<?xml version="1.0" standalone="no"?>
 <!DOCTYPE svg PUBLIC "-//W3C//DTD SVG 1.1//EN" 
 "http://www.w3.org/Graphics/SVG/1.1/DTD/svg11.dtd"> 
<svg
  xmlns:svg="http://www.w3.org/2000/svg"
  xmlns="http://www.w3.org/2000/svg"
  xmlns:xlink="http://www.w3.org/1999/xlink"
  version="1.1"
  width="279.4000mm" height="215.9000mm" viewBox="0.0000 0.0000 279.4000 215.9000">
<title>SVG Image created as sofle_nest-bottom_plate_foam_lh.svg date 2025/12/28 20:41:24 </title>
  <desc>Image generated by PCBNEW </desc>
<g style="fill:#000000; fill-opacity:1.0000;stroke:#000000; stroke-opacity:1.0000;
stroke-linecap:round; stroke-linejoin:round;"
 transform="translate(0 0) scale(1 1)">
<path style="fill:none; 
stroke:#000000; stroke-width:0.1000; stroke-opacity:1; 
stroke-linecap:round; stroke-linejoin:round;fill:none"
d="M 224.5254,43.4451
224.7271,43.4968
224.9119,43.5815
225.0766,43.6956
225.2183,43.8356
225.3339,43.9978
225.4203,44.1787
225.4744,44.3746
225.4932,44.5819
225.5202,119.5000
187.5500,134.0000
138.2041,134.0000
93.9500,146.7500
93.4000,146.6500
92.9500,146.5000
92.6000,146.2000
82.3500,128.4000
82.2000,127.9000
82.1500,127.3000
82.1500,126.9000
82.2500,126.4000
88.0500,115.6500
88.2500,115.0500
88.3253,114.4000
88.3239,38.4774
88.3473,38.2453
88.4144,38.0290
88.5206,37.8333
88.6613,37.6628
88.8318,37.5222
89.0274,37.4159
89.2437,37.3488
89.4759,37.3254
149.2568,34.9515
171.2068,34.9515
Z" /> 
</g>
<g style="fill:none; 
stroke:#000000; stroke-width:0.0500; stroke-opacity:1; 
stroke-linecap:round; stroke-linejoin:round;">
<path d="M100.5947 110.9300
L99.4053 110.9300
" />
<path d="M100.5902 99.7384
L99.4009 99.7384
" />
<path d="M100.5842 109.2400
L99.3948 109.2400
" />
<path d="M100.5797 98.0484
L99.3904 98.0484
" />
<path d="M100.5842 110.9300 A0.8450 0.8450 0.0 0 0 100.5842 109.2400" />
<path d="M100.5797 99.7384 A0.8450 0.8450 0.0 0 0 100.5797 98.0484" />
<path d="M99.3948 109.2400 A0.8450 0.8450 0.0 0 0 99.3948 110.9300" />
<path d="M99.3904 98.0484 A0.8450 0.8450 0.0 0 0 99.3904 99.7384" />
<circle cx="107.5368" cy="106.9638" r="1.1500" /> 
<circle cx="107.5114" cy="104.5000" r="1.1500" /> 
<circle cx="107.5114" cy="101.9600" r="1.1500" /> 
<circle cx="103.8170" cy="102.9506" r="1.1500" /> 
<circle cx="97.4854" cy="100.4176" r="1.1500" /> 
<circle cx="93.0080" cy="106.9638" r="1.1500" /> 
<circle cx="93.0080" cy="101.9600" r="1.1500" /> 
<path style="fill:none; 
stroke:#000000; stroke-width:0.0500; stroke-opacity:1; 
stroke-linecap:round; stroke-linejoin:round;fill:none"
d="M 106.0950,132.5715
104.3803,133.5615
104.6203,133.9771
104.6552,134.0393
104.7190,134.1667
104.7756,134.2976
104.8248,134.4314
104.8665,134.5677
104.9005,134.7061
104.9268,134.8462
104.9452,134.9876
104.9558,135.1297
104.9584,135.2722
104.9531,135.4147
104.9399,135.5566
104.9188,135.6976
104.8899,135.8372
104.8533,135.9749
104.8090,136.1104
104.7573,136.2433
104.6983,136.3730
104.6322,136.4993
104.5591,136.6217
104.4794,136.7398
104.3932,136.8534
104.3008,136.9619
104.2025,137.0652
104.0986,137.1628
103.9895,137.2545
103.8754,137.3400
103.7568,137.4190
103.6956,137.4555
96.5335,141.5905
96.5035,141.6069
96.4407,141.6337
96.3753,141.6535
96.3081,141.6660
96.2399,141.6710
96.1716,141.6685
96.1040,141.6586
96.0378,141.6413
95.9740,141.6168
95.9133,141.5855
95.8563,141.5477
95.8038,141.5039
95.7565,141.4547
95.7353,141.4279
93.7088,142.5979
92.3238,140.1990
93.9952,139.2340
93.7302,138.7750
93.7127,138.7453
93.6840,138.6826
93.6626,138.6171
93.6489,138.5496
93.6429,138.4810
93.6449,138.4121
93.6548,138.3439
93.6724,138.2773
93.6975,138.2131
93.7298,138.1523
93.7689,138.0955
93.8142,138.0436
93.8652,137.9972
93.8929,137.9767
98.1710,135.5067
98.2314,135.4703
98.3485,135.3920
98.4612,135.3073
98.5691,135.2167
98.6719,135.1204
98.7694,135.0186
98.8612,134.9117
98.9470,134.8000
99.0267,134.6837
99.1000,134.5634
99.1666,134.4392
99.2263,134.3116
99.2791,134.1809
99.3247,134.0476
99.3629,133.9119
99.3938,133.7745
99.4171,133.6355
99.4329,133.4955
99.4411,133.3548
99.4416,133.2139
99.4344,133.0731
99.4275,133.0030
99.4213,132.9725
99.4151,132.9106
99.4163,132.8483
99.4247,132.7866
99.4403,132.7263
99.4628,132.6683
99.4920,132.6133
99.5274,132.5621
99.5685,132.5153
99.6148,132.4737
99.6657,132.4378
99.6929,132.4226
102.1870,130.9826
102.2161,130.9654
102.2773,130.9370
102.3413,130.9156
102.4073,130.9015
102.4745,130.8949
102.5420,130.8958
102.6090,130.9043
102.6746,130.9203
102.7380,130.9435
102.7984,130.9736
102.8550,131.0103
102.9072,131.0531
102.9542,131.1015
102.9753,131.1279
104.6900,130.1379
Z" /> 
<path d="M89.2794 82.9444
L101.6784 82.9444
" />
<path d="M89.2794 90.8827
L89.2794 82.9444
" />
<path d="M101.6784 82.9444
L101.6784 90.8827
" />
<path d="M101.6784 90.8827
L89.2794 90.8827
" />
<path d="M90.5594 40.7572
L90.5735 72.8628
" />
<path d="M90.5735 72.8628
L92.4249 72.8628
" />
<path d="M92.4136 40.7572
L90.5594 40.7572
" />
<path d="M92.4249 72.8628
L92.4136 40.7572
" />
<path d="M105.7994 40.7572
L105.7994 72.9136
" />
<path d="M105.7994 72.9136
L107.6776 72.9136
" />
<path d="M107.6776 72.9136
L107.6804 40.7826
" />
<path d="M107.6804 40.7590
L105.7994 40.7572
" />
</g>
<g style="fill:none; 
stroke:#000000; stroke-width:0.1500; stroke-opacity:1; 
stroke-linecap:round; stroke-linejoin:round;">
<circle cx="130.0250" cy="97.7750" r="2.2000" /> 
</g>
<g style="fill:none; 
stroke:#000000; stroke-width:0.0500; stroke-opacity:1; 
stroke-linecap:round; stroke-linejoin:round;">
<path d="M118.9008 36.9952
L122.5584 36.9952
" />
<path d="M118.9008 40.2718
L118.9008 36.9952
" />
<path d="M122.5584 36.9952
L122.5584 40.2718
" />
<path d="M122.5584 40.2718
L118.9008 40.2718
" />
</g>
<g style="fill:none; 
stroke:#000000; stroke-width:0.1500; stroke-opacity:1; 
stroke-linecap:round; stroke-linejoin:round;">
<circle cx="91.5000" cy="93.7000" r="2.2000" /> 
</g>
<g style="fill:none; 
stroke:#000000; stroke-width:0.0500; stroke-opacity:1; 
stroke-linecap:round; stroke-linejoin:round;">
<path d="M125.9458 120.2252
L129.6034 120.2252
" />
<path d="M125.9458 123.5018
L125.9458 120.2252
" />
<path d="M129.6034 120.2252
L129.6034 123.5018
" />
<path d="M129.6034 123.5018
L125.9458 123.5018
" />
<path d="M107.3164 80.0449
L109.0436 80.0449
" />
<path d="M107.3164 89.6918
L107.3164 80.0449
" />
<path d="M109.0104 89.6918
L107.3164 89.6918
" />
<path d="M109.0436 80.0449
L109.0436 89.6919
" />
</g>
<g style="fill:none; 
stroke:#000000; stroke-width:0.1500; stroke-opacity:1; 
stroke-linecap:round; stroke-linejoin:round;">
<circle cx="107.0000" cy="93.7000" r="2.2000" /> 
</g>
<g style="fill:none; 
stroke:#000000; stroke-width:0.0500; stroke-opacity:1; 
stroke-linecap:round; stroke-linejoin:round;">
<path d="M93.7130 37.4622
L105.7586 37.4622
" />
<path d="M93.7130 45.0356
L93.7130 37.4622
" />
<path d="M105.7586 37.4622
L105.7586 45.0358
" />
<path d="M105.7586 45.0358
L93.7130 45.0358
" />
</g>
<g style="fill:none; 
stroke:#000000; stroke-width:0.1500; stroke-opacity:1; 
stroke-linecap:round; stroke-linejoin:round;">
<circle cx="129.9750" cy="57.2750" r="2.2000" /> 
<circle cx="206.2250" cy="61.9750" r="2.2000" /> 
</g>
<g style="fill:none; 
stroke:#000000; stroke-width:0.0500; stroke-opacity:1; 
stroke-linecap:round; stroke-linejoin:round;">
<path d="M204.1277 105.3917
L207.7853 105.3917
" />
<path d="M204.1277 108.6683
L204.1277 105.3917
" />
<path d="M207.7853 105.3917
L207.7853 108.6683
" />
<path d="M207.7853 108.6683
L204.1277 108.6683
" />
</g>
<g style="fill:none; 
stroke:#000000; stroke-width:0.1500; stroke-opacity:1; 
stroke-linecap:round; stroke-linejoin:round;">
<circle cx="103.0000" cy="119.2000" r="2.2000" /> 
</g>
<g style="fill:none; 
stroke:#000000; stroke-width:0.0500; stroke-opacity:1; 
stroke-linecap:round; stroke-linejoin:round;">
<path d="M104.9704 80.1049
L106.6976 80.1049
" />
<path d="M104.9704 89.7518
L104.9704 80.1049
" />
<path d="M106.6644 89.7518
L104.9704 89.7518
" />
<path d="M106.6976 80.1049
L106.6976 89.7519
" />
<path d="M195.0295 46.0500
L198.4235 46.0500
" />
<path d="M195.0295 49.0294
L195.0295 46.0500
" />
<path d="M198.4235 46.0500
L198.4310 49.0286
" />
<path d="M198.4310 49.0286
L195.0295 49.0294
" />
<path d="M156.9322 38.6565
L160.3262 38.6565
" />
<path d="M156.9322 41.6359
L156.9322 38.6565
" />
<path d="M160.3262 38.6565
L160.3337 41.6351
" />
<path d="M160.3337 41.6351
L156.9322 41.6359
" />
<path d="M94.3786 74.4121
L94.3786 76.4187
" />
<path d="M94.3786 76.4187
L104.0814 76.4187
" />
<path d="M104.0814 74.4121
L94.3786 74.4121
" />
<path d="M104.0814 76.4187
L104.0814 74.4121
" />
<path d="M166.6458 116.4752
L170.3034 116.4752
" />
<path d="M166.6458 119.7518
L166.6458 116.4752
" />
<path d="M170.3034 116.4752
L170.3034 119.7518
" />
<path d="M170.3034 119.7518
L166.6458 119.7518
" />
<path d="M83.8555 123.7617
L88.6834 114.7952
" />
<path d="M88.6834 114.7952
L95.8512 118.6706
" />
<path d="M91.0299 127.6247
L83.8555 123.7617
" />
<path d="M95.8512 118.6706
L91.0299 127.6247
" />
</g>
<g style="fill:none; 
stroke:#000000; stroke-width:0.1500; stroke-opacity:1; 
stroke-linecap:round; stroke-linejoin:round;">
<circle cx="206.1750" cy="100.2250" r="2.2000" /> 
</g>
<g style="fill:none; 
stroke:#000000; stroke-width:0.0500; stroke-opacity:1; 
stroke-linecap:round; stroke-linejoin:round;">
<path d="M115.6716 58.5518
L125.4831 58.5518
" />
<path d="M115.6716 60.5790
L115.6716 58.5518
" />
<path d="M125.4831 58.5518
L125.4831 60.5790
" />
<path d="M125.4831 60.5790
L115.6715 60.5790
" />
<path d="M134.9441 56.0105
L144.7556 56.0105
" />
<path d="M134.9441 58.0377
L134.9441 56.0105
" />
<path d="M144.7556 56.0105
L144.7556 58.0377
" />
<path d="M144.7556 58.0377
L134.9440 58.0377
" />
<path d="M153.6496 53.6338
L163.4611 53.6338
" />
<path d="M153.6496 55.6610
L153.6496 53.6338
" />
<path d="M163.4611 53.6338
L163.4611 55.6610
" />
<path d="M163.4611 55.6610
L153.6495 55.6610
" />
<path d="M172.6996 56.0988
L182.5111 56.0988
" />
<path d="M172.6996 58.1260
L172.6996 56.0988
" />
<path d="M182.5111 56.0988
L182.5111 58.1260
" />
<path d="M182.5111 58.1260
L172.6995 58.1260
" />
<path d="M191.7496 60.9988
L201.5611 60.9988
" />
<path d="M191.7496 63.0260
L191.7496 60.9988
" />
<path d="M201.5611 60.9988
L201.5611 63.0260
" />
<path d="M201.5611 63.0260
L191.7495 63.0260
" />
<path d="M210.7996 60.9988
L220.6111 60.9988
" />
<path d="M210.7996 63.0260
L210.7996 60.9988
" />
<path d="M220.6111 60.9988
L220.6111 63.0260
" />
<path d="M220.6111 63.0260
L210.7995 63.0260
" />
<path d="M115.6716 96.6518
L125.4831 96.6518
" />
<path d="M115.6716 98.6790
L115.6716 96.6518
" />
<path d="M125.4831 96.6518
L125.4831 98.6790
" />
<path d="M125.4831 98.6790
L115.6715 98.6790
" />
<path d="M115.6716 115.7018
L125.4831 115.7018
" />
<path d="M115.6716 117.7290
L115.6716 115.7018
" />
<path d="M125.4831 115.7018
L125.4831 117.7290
" />
<path d="M125.4831 117.7290
L115.6715 117.7290
" />
<path d="M95.0216 112.0288
L104.8331 112.0288
" />
<path d="M95.0216 114.0560
L95.0216 112.0288
" />
<path d="M104.8331 112.0288
L104.8331 114.0560
" />
<path d="M104.8331 114.0560
L95.0215 114.0560
" />
<path d="M99.0008 142.6928
L107.7429 138.2385
" />
<path d="M99.9211 144.4991
L99.0008 142.6928
" />
<path d="M107.7429 138.2385
L108.6632 140.0448
" />
<path d="M108.6632 140.0448
L99.9210 144.4992
" />
<path style="fill:none; 
stroke:#000000; stroke-width:0.0500; stroke-opacity:1; 
stroke-linecap:round; stroke-linejoin:round;fill:none"
d="M 123.0486,50.9992
123.0584,50.9697
123.0841,50.9129
123.1162,50.8596
123.1543,50.8104
123.1980,50.7660
123.2465,50.7270
123.2993,50.6939
123.3555,50.6672
123.4145,50.6473
123.4754,50.6345
123.5374,50.6288
123.5686,50.6292
126.4486,50.6292
126.4823,50.6289
126.5496,50.6349
126.6157,50.6483
126.6799,50.6691
126.7414,50.6970
126.7994,50.7316
126.8531,50.7724
126.9020,50.8190
126.9453,50.8708
126.9825,50.9271
127.0132,50.9872
127.0370,51.0504
127.0535,51.1158
127.0586,51.1492
129.0386,51.1492
129.0386,53.9592
127.0586,53.9592
127.0586,54.4392
127.0578,54.5105
127.0493,54.6528
127.0328,54.7943
127.0085,54.9348
126.9765,55.0737
126.9368,55.2106
126.8895,55.3451
126.8348,55.4767
126.7728,55.6051
126.7038,55.7298
126.6280,55.8505
126.5456,55.9668
126.4569,56.0784
126.3620,56.1848
126.2614,56.2858
126.1554,56.3811
126.0442,56.4702
125.9282,56.5531
125.8078,56.6294
125.6833,56.6989
125.5552,56.7613
125.4238,56.8165
125.2895,56.8643
125.1527,56.9046
125.0140,56.9372
124.8736,56.9621
124.7321,56.9790
124.5898,56.9881
124.5186,56.9892
116.2486,56.9892
116.2144,56.9884
116.1465,56.9802
116.0800,56.9646
116.0156,56.9418
115.9540,56.9121
115.8961,56.8758
115.8425,56.8333
115.7939,56.7853
115.7508,56.7322
115.7139,56.6747
115.6834,56.6135
115.6599,56.5494
115.6435,56.4830
115.6386,56.4492
113.2986,56.4492
113.2986,53.6792
115.2286,53.6792
115.2286,53.1492
115.2283,53.1147
115.2347,53.0461
115.2489,52.9787
115.2708,52.9134
115.3000,52.8509
115.3362,52.7923
115.3788,52.7382
115.4274,52.6893
115.4812,52.6463
115.5396,52.6097
115.6018,52.5801
115.6670,52.5578
115.7343,52.5431
115.7686,52.5392
120.7086,52.5392
120.7790,52.5379
120.9196,52.5286
121.0595,52.5116
121.1983,52.4871
121.3355,52.4551
121.4708,52.4157
121.6038,52.3690
121.7340,52.3152
121.8611,52.2543
121.9847,52.1867
122.1045,52.1125
122.2200,52.0318
122.3311,51.9450
122.4372,51.8524
122.5382,51.7541
122.6336,51.6504
122.7233,51.5417
122.8070,51.4284
122.8844,51.3106
122.9553,51.1888
123.0195,51.0634
Z" /> 
<path style="fill:none; 
stroke:#000000; stroke-width:0.0500; stroke-opacity:1; 
stroke-linecap:round; stroke-linejoin:round;fill:none"
d="M 161.1578,45.9950
161.1677,45.9655
161.1933,45.9087
161.2254,45.8554
161.2636,45.8062
161.3072,45.7618
161.3557,45.7228
161.4085,45.6897
161.4648,45.6630
161.5237,45.6431
161.5847,45.6303
161.6467,45.6246
161.6778,45.6250
164.5578,45.6250
164.5916,45.6247
164.6588,45.6307
164.7249,45.6442
164.7891,45.6650
164.8506,45.6928
164.9086,45.7274
164.9623,45.7682
165.0112,45.8148
165.0545,45.8666
165.0917,45.9229
165.1224,45.9830
165.1462,46.0462
165.1628,46.1116
165.1678,46.1450
167.1478,46.1450
167.1478,48.9550
165.1678,48.9550
165.1678,49.4350
165.1670,49.5063
165.1585,49.6486
165.1421,49.7902
165.1178,49.9306
165.0857,50.0695
165.0460,50.2064
164.9987,50.3409
164.9440,50.4725
164.8821,50.6009
164.8131,50.7256
164.7373,50.8463
164.6549,50.9627
164.5661,51.0742
164.4713,51.1806
164.3707,51.2816
164.2646,51.3769
164.1534,51.4661
164.0374,51.5489
163.9170,51.6252
163.7926,51.6947
163.6644,51.7571
163.5330,51.8123
163.3987,51.8601
163.2620,51.9004
163.1232,51.9330
162.9828,51.9579
162.8413,51.9748
162.6991,51.9839
162.6278,51.9850
154.3578,51.9850
154.3236,51.9842
154.2558,51.9760
154.1892,51.9604
154.1248,51.9376
154.0632,51.9079
154.0053,51.8716
153.9517,51.8292
153.9031,51.7811
153.8601,51.7280
153.8231,51.6705
153.7927,51.6093
153.7691,51.5452
153.7528,51.4788
153.7478,51.4450
151.4078,51.4450
151.4078,48.6750
153.3378,48.6750
153.3378,48.1450
153.3375,48.1105
153.3439,48.0419
153.3582,47.9745
153.3800,47.9092
153.4092,47.8468
153.4454,47.7881
153.4880,47.7340
153.5366,47.6851
153.5904,47.6421
153.6488,47.6055
153.7110,47.5759
153.7762,47.5536
153.8436,47.5389
153.8778,47.5350
158.8178,47.5350
158.8882,47.5337
159.0289,47.5244
159.1687,47.5074
159.3075,47.4829
159.4447,47.4509
159.5800,47.4115
159.7130,47.3648
159.8432,47.3110
159.9703,47.2502
160.0939,47.1825
160.2137,47.1083
160.3293,47.0276
160.4403,46.9409
160.5464,46.8482
160.6474,46.7499
160.7429,46.6462
160.8326,46.5375
160.9163,46.4242
160.9937,46.3064
161.0645,46.1846
161.1287,46.0592
Z" /> 
<path style="fill:none; 
stroke:#000000; stroke-width:0.0500; stroke-opacity:1; 
stroke-linecap:round; stroke-linejoin:round;fill:none"
d="M 123.0578,89.0950
123.0677,89.0655
123.0933,89.0087
123.1254,88.9554
123.1636,88.9062
123.2072,88.8618
123.2557,88.8228
123.3085,88.7897
123.3648,88.7630
123.4237,88.7431
123.4847,88.7303
123.5467,88.7246
123.5778,88.7250
126.4578,88.7250
126.4916,88.7247
126.5588,88.7307
126.6249,88.7442
126.6891,88.7650
126.7506,88.7928
126.8086,88.8274
126.8623,88.8682
126.9112,88.9148
126.9545,88.9666
126.9917,89.0229
127.0224,89.0830
127.0462,89.1462
127.0628,89.2116
127.0678,89.2450
129.0478,89.2450
129.0478,92.0550
127.0678,92.0550
127.0678,92.5350
127.0670,92.6063
127.0585,92.7486
127.0421,92.8902
127.0178,93.0306
126.9857,93.1695
126.9460,93.3064
126.8987,93.4409
126.8440,93.5725
126.7821,93.7009
126.7131,93.8256
126.6373,93.9463
126.5549,94.0627
126.4661,94.1742
126.3713,94.2806
126.2707,94.3816
126.1646,94.4769
126.0534,94.5661
125.9374,94.6489
125.8170,94.7252
125.6926,94.7947
125.5644,94.8571
125.4330,94.9123
125.2987,94.9601
125.1620,95.0004
125.0232,95.0330
124.8828,95.0579
124.7413,95.0748
124.5991,95.0839
124.5278,95.0850
116.2578,95.0850
116.2236,95.0842
116.1558,95.0760
116.0892,95.0604
116.0248,95.0376
115.9632,95.0079
115.9053,94.9716
115.8517,94.9292
115.8031,94.8811
115.7601,94.8280
115.7231,94.7705
115.6927,94.7093
115.6691,94.6452
115.6528,94.5788
115.6478,94.5450
113.3078,94.5450
113.3078,91.7750
115.2378,91.7750
115.2378,91.2450
115.2375,91.2105
115.2439,91.1419
115.2582,91.0745
115.2800,91.0092
115.3092,90.9468
115.3454,90.8881
115.3880,90.8340
115.4366,90.7851
115.4904,90.7421
115.5488,90.7055
115.6110,90.6759
115.6762,90.6536
115.7436,90.6389
115.7778,90.6350
120.7178,90.6350
120.7882,90.6337
120.9289,90.6244
121.0687,90.6074
121.2075,90.5829
121.3447,90.5509
121.4800,90.5115
121.6130,90.4648
121.7432,90.4110
121.8703,90.3502
121.9939,90.2825
122.1137,90.2083
122.2293,90.1276
122.3403,90.0409
122.4464,89.9482
122.5474,89.8499
122.6429,89.7462
122.7326,89.6375
122.8163,89.5242
122.8937,89.4064
122.9645,89.2846
123.0287,89.1592
Z" /> 
<path style="fill:none; 
stroke:#000000; stroke-width:0.0500; stroke-opacity:1; 
stroke-linecap:round; stroke-linejoin:round;fill:none"
d="M 142.0578,86.5950
142.0676,86.5655
142.0933,86.5087
142.1254,86.4554
142.1636,86.4062
142.2072,86.3618
142.2557,86.3228
142.3085,86.2897
142.3647,86.2630
142.4237,86.2431
142.4846,86.2303
142.5467,86.2246
142.5778,86.2250
145.4578,86.2250
145.4915,86.2247
145.5588,86.2307
145.6249,86.2442
145.6891,86.2650
145.7506,86.2928
145.8086,86.3274
145.8623,86.3682
145.9112,86.4148
145.9545,86.4666
145.9917,86.5229
146.0224,86.5830
146.0462,86.6462
146.0628,86.7116
146.0678,86.7450
148.0478,86.7450
148.0478,89.5550
146.0678,89.5550
146.0678,90.0350
146.0670,90.1063
146.0585,90.2486
146.0420,90.3902
146.0178,90.5306
145.9857,90.6695
145.9460,90.8064
145.8987,90.9409
145.8440,91.0725
145.7820,91.2009
145.7131,91.3256
145.6372,91.4463
145.5548,91.5627
145.4661,91.6742
145.3713,91.7806
145.2707,91.8816
145.1646,91.9769
145.0534,92.0661
144.9374,92.1489
144.8170,92.2252
144.6925,92.2947
144.5644,92.3571
144.4330,92.4123
144.2987,92.4601
144.1620,92.5004
144.0232,92.5330
143.8828,92.5579
143.7413,92.5748
143.5991,92.5839
143.5278,92.5850
135.2578,92.5850
135.2236,92.5842
135.1558,92.5760
135.0892,92.5604
135.0248,92.5376
134.9632,92.5079
134.9053,92.4716
134.8517,92.4292
134.8031,92.3811
134.7601,92.3280
134.7231,92.2705
134.6927,92.2093
134.6691,92.1452
134.6527,92.0788
134.6478,92.0450
132.3078,92.0450
132.3078,89.2750
134.2378,89.2750
134.2378,88.7450
134.2375,88.7105
134.2439,88.6419
134.2582,88.5745
134.2800,88.5092
134.3092,88.4468
134.3454,88.3881
134.3880,88.3340
134.4366,88.2851
134.4904,88.2421
134.5488,88.2055
134.6110,88.1759
134.6762,88.1536
134.7436,88.1389
134.7778,88.1350
139.7178,88.1350
139.7882,88.1337
139.9288,88.1244
140.0687,88.1074
140.2075,88.0829
140.3447,88.0509
140.4800,88.0115
140.6130,87.9648
140.7432,87.9110
140.8703,87.8502
140.9939,87.7825
141.1137,87.7083
141.2293,87.6276
141.3403,87.5409
141.4464,87.4482
141.5474,87.3499
141.6429,87.2462
141.7326,87.1375
141.8162,87.0242
141.8936,86.9064
141.9645,86.7846
142.0287,86.6592
Z" /> 
<path style="fill:none; 
stroke:#000000; stroke-width:0.0500; stroke-opacity:1; 
stroke-linecap:round; stroke-linejoin:round;fill:none"
d="M 161.1578,103.1850
161.1677,103.1555
161.1933,103.0987
161.2254,103.0454
161.2636,102.9962
161.3072,102.9518
161.3557,102.9128
161.4085,102.8797
161.4648,102.8530
161.5237,102.8331
161.5847,102.8203
161.6467,102.8146
161.6778,102.8150
164.5578,102.8150
164.5916,102.8147
164.6588,102.8207
164.7249,102.8342
164.7891,102.8550
164.8506,102.8828
164.9086,102.9174
164.9623,102.9582
165.0112,103.0048
165.0545,103.0566
165.0917,103.1129
165.1224,103.1730
165.1462,103.2362
165.1628,103.3016
165.1678,103.3350
167.1478,103.3350
167.1478,106.1450
165.1678,106.1450
165.1678,106.6250
165.1670,106.6963
165.1585,106.8386
165.1421,106.9802
165.1178,107.1206
165.0857,107.2595
165.0460,107.3964
164.9987,107.5309
164.9440,107.6625
164.8821,107.7909
164.8131,107.9156
164.7373,108.0363
164.6549,108.1527
164.5661,108.2642
164.4713,108.3706
164.3707,108.4716
164.2646,108.5669
164.1534,108.6561
164.0374,108.7389
163.9170,108.8152
163.7926,108.8847
163.6644,108.9471
163.5330,109.0023
163.3987,109.0502
163.2620,109.0904
163.1232,109.1230
162.9828,109.1479
162.8413,109.1648
162.6991,109.1739
162.6278,109.1750
154.3578,109.1750
154.3236,109.1742
154.2558,109.1660
154.1892,109.1504
154.1248,109.1276
154.0632,109.0979
154.0053,109.0616
153.9517,109.0192
153.9031,108.9711
153.8601,108.9180
153.8231,108.8605
153.7927,108.7993
153.7691,108.7352
153.7528,108.6688
153.7478,108.6350
151.4078,108.6350
151.4078,105.8650
153.3378,105.8650
153.3378,105.3350
153.3375,105.3005
153.3439,105.2319
153.3582,105.1645
153.3800,105.0992
153.4092,105.0368
153.4454,104.9781
153.4880,104.9240
153.5366,104.8751
153.5904,104.8321
153.6488,104.7955
153.7110,104.7659
153.7762,104.7436
153.8436,104.7289
153.8778,104.7250
158.8178,104.7250
158.8882,104.7237
159.0289,104.7144
159.1687,104.6974
159.3075,104.6729
159.4447,104.6409
159.5800,104.6015
159.7130,104.5548
159.8432,104.5010
159.9703,104.4402
160.0939,104.3725
160.2137,104.2983
160.3293,104.2176
160.4403,104.1309
160.5464,104.0382
160.6474,103.9399
160.7429,103.8362
160.8326,103.7275
160.9163,103.6142
160.9937,103.4964
161.0645,103.3746
161.1287,103.2492
Z" /> 
<path style="fill:none; 
stroke:#000000; stroke-width:0.0500; stroke-opacity:1; 
stroke-linecap:round; stroke-linejoin:round;fill:none"
d="M 199.2578,110.4950
199.2676,110.4655
199.2933,110.4087
199.3254,110.3554
199.3636,110.3062
199.4072,110.2618
199.4557,110.2228
199.5085,110.1897
199.5647,110.1630
199.6237,110.1431
199.6847,110.1303
199.7467,110.1246
199.7778,110.1250
202.6578,110.1250
202.6915,110.1247
202.7588,110.1307
202.8249,110.1442
202.8891,110.1650
202.9506,110.1928
203.0086,110.2274
203.0623,110.2682
203.1112,110.3148
203.1545,110.3666
203.1917,110.4229
203.2224,110.4830
203.2462,110.5462
203.2628,110.6116
203.2678,110.6450
205.2478,110.6450
205.2478,113.4550
203.2678,113.4550
203.2678,113.9350
203.2670,114.0063
203.2585,114.1486
203.2420,114.2902
203.2178,114.4306
203.1857,114.5695
203.1460,114.7064
203.0987,114.8409
203.0440,114.9725
202.9820,115.1009
202.9131,115.2256
202.8372,115.3463
202.7548,115.4627
202.6661,115.5742
202.5713,115.6806
202.4707,115.7816
202.3646,115.8769
202.2534,115.9661
202.1374,116.0489
202.0170,116.1252
201.8925,116.1947
201.7644,116.2571
201.6330,116.3123
201.4987,116.3601
201.3620,116.4004
201.2232,116.4330
201.0828,116.4579
200.9413,116.4748
200.7991,116.4839
200.7278,116.4850
192.4578,116.4850
192.4236,116.4842
192.3558,116.4760
192.2892,116.4604
192.2248,116.4376
192.1632,116.4079
192.1053,116.3716
192.0517,116.3292
192.0031,116.2811
191.9601,116.2280
191.9231,116.1705
191.8927,116.1093
191.8691,116.0452
191.8527,115.9788
191.8478,115.9450
189.5078,115.9450
189.5078,113.1750
191.4378,113.1750
191.4378,112.6450
191.4375,112.6105
191.4439,112.5419
191.4582,112.4745
191.4800,112.4092
191.5092,112.3468
191.5454,112.2881
191.5880,112.2340
191.6366,112.1851
191.6904,112.1421
191.7488,112.1055
191.8110,112.0759
191.8762,112.0536
191.9436,112.0389
191.9778,112.0350
196.9178,112.0350
196.9882,112.0337
197.1288,112.0244
197.2687,112.0074
197.4075,111.9829
197.5447,111.9509
197.6800,111.9115
197.8130,111.8648
197.9432,111.8110
198.0703,111.7502
198.1939,111.6825
198.3137,111.6083
198.4293,111.5276
198.5403,111.4409
198.6464,111.3482
198.7474,111.2499
198.8429,111.1462
198.9326,111.0375
199.0162,110.9242
199.0936,110.8064
199.1645,110.6846
199.2287,110.5592
Z" /> 
<path style="fill:none; 
stroke:#000000; stroke-width:0.0500; stroke-opacity:1; 
stroke-linecap:round; stroke-linejoin:round;fill:none"
d="M 126.8855,130.0201
124.9730,130.5326
125.0972,130.9962
125.1149,131.0653
125.1435,131.2049
125.1643,131.3460
125.1772,131.4879
125.1821,131.6304
125.1792,131.7729
125.1683,131.9150
125.1496,132.0563
125.1230,132.1964
125.0886,132.3347
125.0466,132.4709
124.9971,132.6046
124.9403,132.7353
124.8762,132.8627
124.8052,132.9863
124.7274,133.1057
124.6431,133.2206
124.5525,133.3307
124.4559,133.4355
124.3537,133.5349
124.2461,133.6283
124.1334,133.7157
124.0161,133.7966
123.8944,133.8709
123.7688,133.9383
123.6397,133.9986
123.5074,134.0517
123.3723,134.0973
123.3037,134.1168
115.3155,136.2572
115.2823,136.2652
115.2147,136.2749
115.1463,136.2770
115.0782,136.2717
115.0111,136.2589
114.9457,136.2389
114.8830,136.2118
114.8236,136.1779
114.7683,136.1378
114.7177,136.0918
114.6724,136.0406
114.6331,135.9847
114.6001,135.9248
114.5866,135.8935
112.3263,136.4991
111.6094,133.8235
113.4736,133.3240
113.3364,132.8120
113.3273,132.7788
113.3157,132.7109
113.3120,132.6421
113.3162,132.5733
113.3282,132.5055
113.3480,132.4394
113.3752,132.3761
113.4094,132.3163
113.4503,132.2609
113.4972,132.2104
113.5497,132.1657
113.6069,132.1273
113.6681,132.0957
113.7002,132.0831
118.4718,130.8045
118.5395,130.7850
118.6729,130.7396
118.8037,130.6870
118.9314,130.6274
119.0556,130.5610
119.1761,130.4879
119.2925,130.4084
119.4043,130.3227
119.5114,130.2310
119.6133,130.1337
119.7097,130.0310
119.8005,129.9232
119.8853,129.8106
119.9638,129.6937
120.0359,129.5726
120.1013,129.4477
120.1598,129.3196
120.2113,129.1884
120.2556,129.0546
120.2925,128.9186
120.3220,128.7808
120.3335,128.7113
120.3354,128.6802
120.3455,128.6188
120.3627,128.5590
120.3868,128.5016
120.4175,128.4474
120.4542,128.3971
120.4966,128.3516
120.5441,128.3112
120.5959,128.2767
120.6514,128.2485
120.7099,128.2270
120.7400,128.2193
123.5219,127.4739
123.5544,127.4649
123.6209,127.4533
123.6883,127.4492
123.7557,127.4527
123.8223,127.4637
123.8872,127.4820
123.9497,127.5076
124.0090,127.5400
124.0642,127.5788
124.1147,127.6235
124.1600,127.6736
124.1993,127.7285
124.2322,127.7874
124.2457,127.8183
126.1582,127.3059
Z" /> 
<path style="fill:none; 
stroke:#000000; stroke-width:0.0500; stroke-opacity:1; 
stroke-linecap:round; stroke-linejoin:round;fill:none"
d="M 218.2578,72.2950
218.2676,72.2655
218.2933,72.2087
218.3254,72.1554
218.3636,72.1062
218.4072,72.0618
218.4557,72.0228
218.5085,71.9897
218.5647,71.9630
218.6237,71.9431
218.6846,71.9303
218.7467,71.9246
218.7778,71.9250
221.6578,71.9250
221.6915,71.9247
221.7588,71.9307
221.8249,71.9442
221.8891,71.9650
221.9506,71.9928
222.0086,72.0274
222.0623,72.0682
222.1112,72.1148
222.1545,72.1666
222.1917,72.2229
222.2224,72.2830
222.2462,72.3462
222.2628,72.4116
222.2678,72.4450
224.2478,72.4450
224.2478,75.2550
222.2678,75.2550
222.2678,75.7350
222.2670,75.8063
222.2585,75.9486
222.2420,76.0902
222.2178,76.2306
222.1857,76.3695
222.1460,76.5064
222.0987,76.6409
222.0440,76.7725
221.9820,76.9009
221.9131,77.0256
221.8372,77.1463
221.7548,77.2627
221.6661,77.3742
221.5713,77.4806
221.4707,77.5816
221.3646,77.6769
221.2534,77.7661
221.1374,77.8489
221.0170,77.9252
220.8925,77.9947
220.7644,78.0571
220.6330,78.1123
220.4987,78.1602
220.3620,78.2004
220.2232,78.2330
220.0828,78.2579
219.9413,78.2748
219.7991,78.2839
219.7278,78.2850
211.4578,78.2850
211.4236,78.2842
211.3558,78.2760
211.2892,78.2604
211.2248,78.2376
211.1632,78.2079
211.1053,78.1716
211.0517,78.1292
211.0031,78.0811
210.9601,78.0280
210.9231,77.9705
210.8927,77.9093
210.8691,77.8452
210.8527,77.7788
210.8478,77.7450
208.5078,77.7450
208.5078,74.9750
210.4378,74.9750
210.4378,74.4450
210.4375,74.4105
210.4439,74.3419
210.4582,74.2745
210.4800,74.2092
210.5092,74.1468
210.5454,74.0881
210.5880,74.0340
210.6366,73.9851
210.6904,73.9421
210.7488,73.9055
210.8110,73.8759
210.8762,73.8536
210.9436,73.8389
210.9778,73.8350
215.9178,73.8350
215.9882,73.8337
216.1288,73.8244
216.2687,73.8074
216.4075,73.7829
216.5447,73.7509
216.6800,73.7115
216.8130,73.6648
216.9432,73.6110
217.0703,73.5502
217.1939,73.4825
217.3137,73.4083
217.4293,73.3276
217.5403,73.2409
217.6464,73.1482
217.7474,73.0499
217.8429,72.9462
217.9326,72.8375
218.0162,72.7242
218.0936,72.6064
218.1645,72.4846
218.2287,72.3592
Z" /> 
<path style="fill:none; 
stroke:#000000; stroke-width:0.0500; stroke-opacity:1; 
stroke-linecap:round; stroke-linejoin:round;fill:none"
d="M 218.2578,91.4950
218.2676,91.4655
218.2933,91.4087
218.3254,91.3554
218.3636,91.3062
218.4072,91.2618
218.4557,91.2228
218.5085,91.1897
218.5647,91.1630
218.6237,91.1431
218.6846,91.1303
218.7467,91.1246
218.7778,91.1250
221.6578,91.1250
221.6915,91.1247
221.7588,91.1307
221.8249,91.1442
221.8891,91.1650
221.9506,91.1928
222.0086,91.2274
222.0623,91.2682
222.1112,91.3148
222.1545,91.3666
222.1917,91.4229
222.2224,91.4830
222.2462,91.5462
222.2628,91.6116
222.2678,91.6450
224.2478,91.6450
224.2478,94.4550
222.2678,94.4550
222.2678,94.9350
222.2670,95.0063
222.2585,95.1486
222.2420,95.2902
222.2178,95.4306
222.1857,95.5695
222.1460,95.7064
222.0987,95.8409
222.0440,95.9725
221.9820,96.1009
221.9131,96.2256
221.8372,96.3463
221.7548,96.4627
221.6661,96.5742
221.5713,96.6806
221.4707,96.7816
221.3646,96.8769
221.2534,96.9661
221.1374,97.0489
221.0170,97.1252
220.8925,97.1947
220.7644,97.2571
220.6330,97.3123
220.4987,97.3601
220.3620,97.4004
220.2232,97.4330
220.0828,97.4579
219.9413,97.4748
219.7991,97.4839
219.7278,97.4850
211.4578,97.4850
211.4236,97.4842
211.3558,97.4760
211.2892,97.4604
211.2248,97.4376
211.1632,97.4079
211.1053,97.3716
211.0517,97.3292
211.0031,97.2811
210.9601,97.2280
210.9231,97.1705
210.8927,97.1093
210.8691,97.0452
210.8527,96.9788
210.8478,96.9450
208.5078,96.9450
208.5078,94.1750
210.4378,94.1750
210.4378,93.6450
210.4375,93.6105
210.4439,93.5419
210.4582,93.4745
210.4800,93.4092
210.5092,93.3468
210.5454,93.2881
210.5880,93.2340
210.6366,93.1851
210.6904,93.1421
210.7488,93.1055
210.8110,93.0759
210.8762,93.0536
210.9436,93.0389
210.9778,93.0350
215.9178,93.0350
215.9882,93.0337
216.1288,93.0244
216.2687,93.0074
216.4075,92.9829
216.5447,92.9509
216.6800,92.9115
216.8130,92.8648
216.9432,92.8110
217.0703,92.7502
217.1939,92.6825
217.3137,92.6083
217.4293,92.5276
217.5403,92.4409
217.6464,92.3482
217.7474,92.2499
217.8429,92.1462
217.9326,92.0375
218.0162,91.9242
218.0936,91.8064
218.1645,91.6846
218.2287,91.5592
Z" /> 
<path style="fill:none; 
stroke:#000000; stroke-width:0.0500; stroke-opacity:1; 
stroke-linecap:round; stroke-linejoin:round;fill:none"
d="M 218.3078,110.4950
218.3176,110.4655
218.3433,110.4087
218.3754,110.3554
218.4136,110.3062
218.4572,110.2618
218.5057,110.2228
218.5585,110.1897
218.6147,110.1630
218.6737,110.1431
218.7346,110.1303
218.7967,110.1246
218.8278,110.1250
221.7078,110.1250
221.7415,110.1247
221.8088,110.1307
221.8749,110.1442
221.9391,110.1650
222.0006,110.1928
222.0586,110.2274
222.1123,110.2682
222.1612,110.3148
222.2045,110.3666
222.2417,110.4229
222.2724,110.4830
222.2962,110.5462
222.3128,110.6116
222.3178,110.6450
224.2978,110.6450
224.2978,113.4550
222.3178,113.4550
222.3178,113.9350
222.3170,114.0063
222.3085,114.1486
222.2920,114.2902
222.2678,114.4306
222.2357,114.5695
222.1960,114.7064
222.1487,114.8409
222.0940,114.9725
222.0320,115.1009
221.9631,115.2256
221.8872,115.3463
221.8048,115.4627
221.7161,115.5742
221.6213,115.6806
221.5207,115.7816
221.4146,115.8769
221.3034,115.9661
221.1874,116.0489
221.0670,116.1252
220.9425,116.1947
220.8144,116.2571
220.6830,116.3123
220.5487,116.3601
220.4120,116.4004
220.2732,116.4330
220.1328,116.4579
219.9913,116.4748
219.8491,116.4839
219.7778,116.4850
211.5078,116.4850
211.4736,116.4842
211.4058,116.4760
211.3392,116.4604
211.2748,116.4376
211.2132,116.4079
211.1553,116.3716
211.1017,116.3292
211.0531,116.2811
211.0101,116.2280
210.9731,116.1705
210.9427,116.1093
210.9191,116.0452
210.9027,115.9788
210.8978,115.9450
208.5578,115.9450
208.5578,113.1750
210.4878,113.1750
210.4878,112.6450
210.4875,112.6105
210.4939,112.5419
210.5082,112.4745
210.5300,112.4092
210.5592,112.3468
210.5954,112.2881
210.6380,112.2340
210.6866,112.1851
210.7404,112.1421
210.7988,112.1055
210.8610,112.0759
210.9262,112.0536
210.9936,112.0389
211.0278,112.0350
215.9678,112.0350
216.0382,112.0337
216.1788,112.0244
216.3187,112.0074
216.4575,111.9829
216.5947,111.9509
216.7300,111.9115
216.8630,111.8648
216.9932,111.8110
217.1203,111.7502
217.2439,111.6825
217.3637,111.6083
217.4793,111.5276
217.5903,111.4409
217.6964,111.3482
217.7974,111.2499
217.8929,111.1462
217.9826,111.0375
218.0662,110.9242
218.1436,110.8064
218.2145,110.6846
218.2787,110.5592
Z" /> 
<path style="fill:none; 
stroke:#000000; stroke-width:0.0500; stroke-opacity:1; 
stroke-linecap:round; stroke-linejoin:round;fill:none"
d="M 180.1578,48.5350
180.1676,48.5055
180.1933,48.4487
180.2254,48.3954
180.2636,48.3462
180.3072,48.3018
180.3557,48.2628
180.4085,48.2297
180.4647,48.2030
180.5237,48.1831
180.5846,48.1703
180.6467,48.1646
180.6778,48.1650
183.5578,48.1650
183.5915,48.1647
183.6588,48.1707
183.7249,48.1842
183.7891,48.2050
183.8506,48.2328
183.9086,48.2674
183.9623,48.3082
184.0112,48.3548
184.0545,48.4066
184.0917,48.4629
184.1224,48.5230
184.1462,48.5862
184.1628,48.6516
184.1678,48.6850
186.1478,48.6850
186.1478,51.4950
184.1678,51.4950
184.1678,51.9750
184.1670,52.0463
184.1585,52.1886
184.1420,52.3302
184.1178,52.4706
184.0857,52.6095
184.0460,52.7464
183.9987,52.8809
183.9440,53.0125
183.8820,53.1409
183.8131,53.2656
183.7372,53.3863
183.6548,53.5027
183.5661,53.6142
183.4713,53.7206
183.3707,53.8216
183.2646,53.9169
183.1534,54.0061
183.0374,54.0889
182.9170,54.1652
182.7925,54.2347
182.6644,54.2971
182.5330,54.3523
182.3987,54.4001
182.2620,54.4404
182.1232,54.4730
181.9828,54.4979
181.8413,54.5148
181.6991,54.5239
181.6278,54.5250
173.3578,54.5250
173.3236,54.5242
173.2558,54.5160
173.1892,54.5004
173.1248,54.4776
173.0632,54.4479
173.0053,54.4116
172.9517,54.3692
172.9031,54.3211
172.8601,54.2680
172.8231,54.2105
172.7927,54.1493
172.7691,54.0852
172.7527,54.0188
172.7478,53.9850
170.4078,53.9850
170.4078,51.2150
172.3378,51.2150
172.3378,50.6850
172.3375,50.6505
172.3439,50.5819
172.3582,50.5145
172.3800,50.4492
172.4092,50.3868
172.4454,50.3281
172.4880,50.2740
172.5366,50.2251
172.5904,50.1821
172.6488,50.1455
172.7110,50.1159
172.7762,50.0936
172.8436,50.0789
172.8778,50.0750
177.8178,50.0750
177.8882,50.0737
178.0288,50.0644
178.1687,50.0474
178.3075,50.0229
178.4447,49.9909
178.5800,49.9515
178.7130,49.9048
178.8432,49.8510
178.9703,49.7902
179.0939,49.7225
179.2137,49.6483
179.3293,49.5676
179.4403,49.4809
179.5464,49.3882
179.6474,49.2899
179.7429,49.1862
179.8326,49.0775
179.9162,48.9642
179.9936,48.8464
180.0645,48.7246
180.1287,48.5992
Z" /> 
<path d="M115.6716 77.6518
L125.4831 77.6518
" />
<path d="M115.6716 79.6790
L115.6716 77.6518
" />
<path d="M125.4831 77.6518
L125.4831 79.6790
" />
<path d="M125.4831 79.6790
L115.6715 79.6790
" />
<path d="M134.9441 75.0605
L144.7556 75.0605
" />
<path d="M134.9441 77.0877
L134.9441 75.0605
" />
<path d="M144.7556 75.0605
L144.7556 77.0877
" />
<path d="M144.7556 77.0877
L134.9440 77.0877
" />
<path d="M153.6496 72.6488
L163.4611 72.6488
" />
<path d="M153.6496 74.6760
L153.6496 72.6488
" />
<path d="M163.4611 72.6488
L163.4611 74.6760
" />
<path d="M163.4611 74.6760
L153.6495 74.6760
" />
<path d="M172.6996 75.1488
L182.5111 75.1488
" />
<path d="M172.6996 77.1760
L172.6996 75.1488
" />
<path d="M182.5111 75.1488
L182.5111 77.1760
" />
<path d="M182.5111 77.1760
L172.6995 77.1760
" />
<path d="M191.7496 80.0488
L201.5611 80.0488
" />
<path d="M191.7496 82.0760
L191.7496 80.0488
" />
<path d="M201.5611 80.0488
L201.5611 82.0760
" />
<path d="M201.5611 82.0760
L191.7495 82.0760
" />
<path d="M210.7996 80.0488
L220.6111 80.0488
" />
<path d="M210.7996 82.0760
L210.7996 80.0488
" />
<path d="M220.6111 80.0488
L220.6111 82.0760
" />
<path d="M220.6111 82.0760
L210.7995 82.0760
" />
<path style="fill:none; 
stroke:#000000; stroke-width:0.0500; stroke-opacity:1; 
stroke-linecap:round; stroke-linejoin:round;fill:none"
d="M 199.2578,53.3950
199.2677,53.3655
199.2933,53.3087
199.3254,53.2554
199.3636,53.2062
199.4072,53.1618
199.4557,53.1228
199.5085,53.0897
199.5648,53.0630
199.6237,53.0431
199.6847,53.0303
199.7467,53.0246
199.7778,53.0250
202.6578,53.0250
202.6916,53.0247
202.7588,53.0307
202.8249,53.0442
202.8891,53.0650
202.9506,53.0928
203.0086,53.1274
203.0623,53.1682
203.1112,53.2148
203.1545,53.2666
203.1917,53.3229
203.2224,53.3830
203.2462,53.4462
203.2628,53.5116
203.2678,53.5450
205.2478,53.5450
205.2478,56.3550
203.2678,56.3550
203.2678,56.8350
203.2670,56.9063
203.2585,57.0486
203.2421,57.1902
203.2178,57.3306
203.1857,57.4695
203.1460,57.6064
203.0987,57.7409
203.0440,57.8725
202.9821,58.0009
202.9131,58.1256
202.8373,58.2463
202.7549,58.3627
202.6661,58.4742
202.5713,58.5806
202.4707,58.6816
202.3646,58.7769
202.2534,58.8661
202.1374,58.9489
202.0170,59.0252
201.8926,59.0947
201.7644,59.1571
201.6330,59.2123
201.4987,59.2601
201.3620,59.3004
201.2232,59.3330
201.0828,59.3579
200.9413,59.3748
200.7991,59.3839
200.7278,59.3850
192.4578,59.3850
192.4236,59.3842
192.3558,59.3760
192.2892,59.3604
192.2248,59.3376
192.1632,59.3079
192.1053,59.2716
192.0517,59.2292
192.0031,59.1811
191.9601,59.1280
191.9231,59.0705
191.8927,59.0093
191.8691,58.9452
191.8528,58.8788
191.8478,58.8450
189.5078,58.8450
189.5078,56.0750
191.4378,56.0750
191.4378,55.5450
191.4375,55.5105
191.4439,55.4419
191.4582,55.3745
191.4800,55.3092
191.5092,55.2468
191.5454,55.1881
191.5880,55.1340
191.6366,55.0851
191.6904,55.0421
191.7488,55.0055
191.8110,54.9759
191.8762,54.9536
191.9436,54.9389
191.9778,54.9350
196.9178,54.9350
196.9882,54.9337
197.1289,54.9244
197.2687,54.9074
197.4075,54.8829
197.5447,54.8509
197.6800,54.8115
197.8130,54.7648
197.9432,54.7110
198.0703,54.6502
198.1939,54.5825
198.3137,54.5083
198.4293,54.4276
198.5403,54.3409
198.6464,54.2482
198.7474,54.1499
198.8429,54.0462
198.9326,53.9375
199.0163,53.8242
199.0937,53.7064
199.1645,53.5846
199.2287,53.4592
Z" /> 
<path style="fill:none; 
stroke:#000000; stroke-width:0.0500; stroke-opacity:1; 
stroke-linecap:round; stroke-linejoin:round;fill:none"
d="M 142.0578,67.5950
142.0676,67.5655
142.0933,67.5087
142.1254,67.4554
142.1636,67.4062
142.2072,67.3618
142.2557,67.3228
142.3085,67.2897
142.3647,67.2630
142.4237,67.2431
142.4846,67.2303
142.5467,67.2246
142.5778,67.2250
145.4578,67.2250
145.4915,67.2247
145.5588,67.2307
145.6249,67.2442
145.6891,67.2650
145.7506,67.2928
145.8086,67.3274
145.8623,67.3682
145.9112,67.4148
145.9545,67.4666
145.9917,67.5229
146.0224,67.5830
146.0462,67.6462
146.0628,67.7116
146.0678,67.7450
148.0478,67.7450
148.0478,70.5550
146.0678,70.5550
146.0678,71.0350
146.0670,71.1063
146.0585,71.2486
146.0420,71.3902
146.0178,71.5306
145.9857,71.6695
145.9460,71.8064
145.8987,71.9409
145.8440,72.0725
145.7820,72.2009
145.7131,72.3256
145.6372,72.4463
145.5548,72.5627
145.4661,72.6742
145.3713,72.7806
145.2707,72.8816
145.1646,72.9769
145.0534,73.0661
144.9374,73.1489
144.8170,73.2252
144.6925,73.2947
144.5644,73.3571
144.4330,73.4123
144.2987,73.4601
144.1620,73.5004
144.0232,73.5330
143.8828,73.5579
143.7413,73.5748
143.5991,73.5839
143.5278,73.5850
135.2578,73.5850
135.2236,73.5842
135.1558,73.5760
135.0892,73.5604
135.0248,73.5376
134.9632,73.5079
134.9053,73.4716
134.8517,73.4292
134.8031,73.3811
134.7601,73.3280
134.7231,73.2705
134.6927,73.2093
134.6691,73.1452
134.6527,73.0788
134.6478,73.0450
132.3078,73.0450
132.3078,70.2750
134.2378,70.2750
134.2378,69.7450
134.2375,69.7105
134.2439,69.6419
134.2582,69.5745
134.2800,69.5092
134.3092,69.4468
134.3454,69.3881
134.3880,69.3340
134.4366,69.2851
134.4904,69.2421
134.5488,69.2055
134.6110,69.1759
134.6762,69.1536
134.7436,69.1389
134.7778,69.1350
139.7178,69.1350
139.7882,69.1337
139.9288,69.1244
140.0687,69.1074
140.2075,69.0829
140.3447,69.0509
140.4800,69.0115
140.6130,68.9648
140.7432,68.9110
140.8703,68.8502
140.9939,68.7825
141.1137,68.7083
141.2293,68.6276
141.3403,68.5409
141.4464,68.4482
141.5474,68.3499
141.6429,68.2462
141.7326,68.1375
141.8162,68.0242
141.8936,67.9064
141.9645,67.7846
142.0287,67.6592
Z" /> 
<path style="fill:none; 
stroke:#000000; stroke-width:0.0500; stroke-opacity:1; 
stroke-linecap:round; stroke-linejoin:round;fill:none"
d="M 180.1578,67.5350
180.1676,67.5055
180.1933,67.4487
180.2254,67.3954
180.2636,67.3462
180.3072,67.3018
180.3557,67.2628
180.4085,67.2297
180.4647,67.2030
180.5237,67.1831
180.5846,67.1703
180.6467,67.1646
180.6778,67.1650
183.5578,67.1650
183.5915,67.1647
183.6588,67.1707
183.7249,67.1842
183.7891,67.2050
183.8506,67.2328
183.9086,67.2674
183.9623,67.3082
184.0112,67.3548
184.0545,67.4066
184.0917,67.4629
184.1224,67.5230
184.1462,67.5862
184.1628,67.6516
184.1678,67.6850
186.1478,67.6850
186.1478,70.4950
184.1678,70.4950
184.1678,70.9750
184.1670,71.0463
184.1585,71.1886
184.1420,71.3302
184.1178,71.4706
184.0857,71.6095
184.0460,71.7464
183.9987,71.8809
183.9440,72.0125
183.8820,72.1409
183.8131,72.2656
183.7372,72.3863
183.6548,72.5027
183.5661,72.6142
183.4713,72.7206
183.3707,72.8216
183.2646,72.9169
183.1534,73.0061
183.0374,73.0889
182.9170,73.1652
182.7925,73.2347
182.6644,73.2971
182.5330,73.3523
182.3987,73.4001
182.2620,73.4404
182.1232,73.4730
181.9828,73.4979
181.8413,73.5148
181.6991,73.5239
181.6278,73.5250
173.3578,73.5250
173.3236,73.5242
173.2558,73.5160
173.1892,73.5004
173.1248,73.4776
173.0632,73.4479
173.0053,73.4116
172.9517,73.3692
172.9031,73.3211
172.8601,73.2680
172.8231,73.2105
172.7927,73.1493
172.7691,73.0852
172.7527,73.0188
172.7478,72.9850
170.4078,72.9850
170.4078,70.2150
172.3378,70.2150
172.3378,69.6850
172.3375,69.6505
172.3439,69.5819
172.3582,69.5145
172.3800,69.4492
172.4092,69.3868
172.4454,69.3281
172.4880,69.2740
172.5366,69.2251
172.5904,69.1821
172.6488,69.1455
172.7110,69.1159
172.7762,69.0936
172.8436,69.0789
172.8778,69.0750
177.8178,69.0750
177.8882,69.0737
178.0288,69.0644
178.1687,69.0474
178.3075,69.0229
178.4447,68.9909
178.5800,68.9515
178.7130,68.9048
178.8432,68.8510
178.9703,68.7902
179.0939,68.7225
179.2137,68.6483
179.3293,68.5676
179.4403,68.4809
179.5464,68.3882
179.6474,68.2899
179.7429,68.1862
179.8326,68.0775
179.9162,67.9642
179.9936,67.8464
180.0645,67.7246
180.1287,67.5992
Z" /> 
<path style="fill:none; 
stroke:#000000; stroke-width:0.0500; stroke-opacity:1; 
stroke-linecap:round; stroke-linejoin:round;fill:none"
d="M 161.1578,65.0850
161.1676,65.0555
161.1933,64.9987
161.2254,64.9454
161.2636,64.8962
161.3072,64.8518
161.3557,64.8128
161.4085,64.7797
161.4647,64.7530
161.5237,64.7331
161.5846,64.7203
161.6467,64.7146
161.6778,64.7150
164.5578,64.7150
164.5915,64.7147
164.6588,64.7207
164.7249,64.7342
164.7891,64.7550
164.8506,64.7828
164.9086,64.8174
164.9623,64.8582
165.0112,64.9048
165.0545,64.9566
165.0917,65.0129
165.1224,65.0730
165.1462,65.1362
165.1628,65.2016
165.1678,65.2350
167.1478,65.2350
167.1478,68.0450
165.1678,68.0450
165.1678,68.5250
165.1670,68.5963
165.1585,68.7386
165.1420,68.8802
165.1178,69.0206
165.0857,69.1595
165.0460,69.2964
164.9987,69.4309
164.9440,69.5625
164.8820,69.6909
164.8131,69.8156
164.7372,69.9363
164.6548,70.0527
164.5661,70.1642
164.4713,70.2706
164.3707,70.3716
164.2646,70.4669
164.1534,70.5561
164.0374,70.6389
163.9170,70.7152
163.7925,70.7847
163.6644,70.8471
163.5330,70.9023
163.3987,70.9501
163.2620,70.9904
163.1232,71.0230
162.9828,71.0479
162.8413,71.0648
162.6991,71.0739
162.6278,71.0750
154.3578,71.0750
154.3236,71.0742
154.2558,71.0660
154.1892,71.0504
154.1248,71.0276
154.0632,70.9979
154.0053,70.9616
153.9517,70.9192
153.9031,70.8711
153.8601,70.8180
153.8231,70.7605
153.7927,70.6993
153.7691,70.6352
153.7527,70.5688
153.7478,70.5350
151.4078,70.5350
151.4078,67.7650
153.3378,67.7650
153.3378,67.2350
153.3375,67.2005
153.3439,67.1319
153.3582,67.0645
153.3800,66.9992
153.4092,66.9368
153.4454,66.8781
153.4880,66.8240
153.5366,66.7751
153.5904,66.7321
153.6488,66.6955
153.7110,66.6659
153.7762,66.6436
153.8436,66.6289
153.8778,66.6250
158.8178,66.6250
158.8882,66.6237
159.0288,66.6144
159.1687,66.5974
159.3075,66.5729
159.4447,66.5409
159.5800,66.5015
159.7130,66.4548
159.8432,66.4010
159.9703,66.3402
160.0939,66.2725
160.2137,66.1983
160.3293,66.1176
160.4403,66.0309
160.5464,65.9382
160.6474,65.8399
160.7429,65.7362
160.8326,65.6275
160.9162,65.5142
160.9936,65.3964
161.0645,65.2746
161.1287,65.1492
Z" /> 
<path style="fill:none; 
stroke:#000000; stroke-width:0.0500; stroke-opacity:1; 
stroke-linecap:round; stroke-linejoin:round;fill:none"
d="M 180.1578,86.5950
180.1676,86.5655
180.1933,86.5087
180.2254,86.4554
180.2636,86.4062
180.3072,86.3618
180.3557,86.3228
180.4085,86.2897
180.4647,86.2630
180.5237,86.2431
180.5846,86.2303
180.6467,86.2246
180.6778,86.2250
183.5578,86.2250
183.5915,86.2247
183.6588,86.2307
183.7249,86.2442
183.7891,86.2650
183.8506,86.2928
183.9086,86.3274
183.9623,86.3682
184.0112,86.4148
184.0545,86.4666
184.0917,86.5229
184.1224,86.5830
184.1462,86.6462
184.1628,86.7116
184.1678,86.7450
186.1478,86.7450
186.1478,89.5550
184.1678,89.5550
184.1678,90.0350
184.1670,90.1063
184.1585,90.2486
184.1420,90.3902
184.1178,90.5306
184.0857,90.6695
184.0460,90.8064
183.9987,90.9409
183.9440,91.0725
183.8820,91.2009
183.8131,91.3256
183.7372,91.4463
183.6548,91.5627
183.5661,91.6742
183.4713,91.7806
183.3707,91.8816
183.2646,91.9769
183.1534,92.0661
183.0374,92.1489
182.9170,92.2252
182.7925,92.2947
182.6644,92.3571
182.5330,92.4123
182.3987,92.4601
182.2620,92.5004
182.1232,92.5330
181.9828,92.5579
181.8413,92.5748
181.6991,92.5839
181.6278,92.5850
173.3578,92.5850
173.3236,92.5842
173.2558,92.5760
173.1892,92.5604
173.1248,92.5376
173.0632,92.5079
173.0053,92.4716
172.9517,92.4292
172.9031,92.3811
172.8601,92.3280
172.8231,92.2705
172.7927,92.2093
172.7691,92.1452
172.7527,92.0788
172.7478,92.0450
170.4078,92.0450
170.4078,89.2750
172.3378,89.2750
172.3378,88.7450
172.3375,88.7105
172.3439,88.6419
172.3582,88.5745
172.3800,88.5092
172.4092,88.4468
172.4454,88.3881
172.4880,88.3340
172.5366,88.2851
172.5904,88.2421
172.6488,88.2055
172.7110,88.1759
172.7762,88.1536
172.8436,88.1389
172.8778,88.1350
177.8178,88.1350
177.8882,88.1337
178.0288,88.1244
178.1687,88.1074
178.3075,88.0829
178.4447,88.0509
178.5800,88.0115
178.7130,87.9648
178.8432,87.9110
178.9703,87.8502
179.0939,87.7825
179.2137,87.7083
179.3293,87.6276
179.4403,87.5409
179.5464,87.4482
179.6474,87.3499
179.7429,87.2462
179.8326,87.1375
179.9162,87.0242
179.9936,86.9064
180.0645,86.7846
180.1287,86.6592
Z" /> 
<path style="fill:none; 
stroke:#000000; stroke-width:0.0500; stroke-opacity:1; 
stroke-linecap:round; stroke-linejoin:round;fill:none"
d="M 218.2578,53.3950
218.2676,53.3655
218.2933,53.3087
218.3254,53.2554
218.3636,53.2062
218.4072,53.1618
218.4557,53.1228
218.5085,53.0897
218.5647,53.0630
218.6237,53.0431
218.6846,53.0303
218.7467,53.0246
218.7778,53.0250
221.6578,53.0250
221.6915,53.0247
221.7588,53.0307
221.8249,53.0442
221.8891,53.0650
221.9506,53.0928
222.0086,53.1274
222.0623,53.1682
222.1112,53.2148
222.1545,53.2666
222.1917,53.3229
222.2224,53.3830
222.2462,53.4462
222.2628,53.5116
222.2678,53.5450
224.2478,53.5450
224.2478,56.3550
222.2678,56.3550
222.2678,56.8350
222.2670,56.9063
222.2585,57.0486
222.2420,57.1902
222.2178,57.3306
222.1857,57.4695
222.1460,57.6064
222.0987,57.7409
222.0440,57.8725
221.9820,58.0009
221.9131,58.1256
221.8372,58.2463
221.7548,58.3627
221.6661,58.4742
221.5713,58.5806
221.4707,58.6816
221.3646,58.7769
221.2534,58.8661
221.1374,58.9489
221.0170,59.0252
220.8925,59.0947
220.7644,59.1571
220.6330,59.2123
220.4987,59.2601
220.3620,59.3004
220.2232,59.3330
220.0828,59.3579
219.9413,59.3748
219.7991,59.3839
219.7278,59.3850
211.4578,59.3850
211.4236,59.3842
211.3558,59.3760
211.2892,59.3604
211.2248,59.3376
211.1632,59.3079
211.1053,59.2716
211.0517,59.2292
211.0031,59.1811
210.9601,59.1280
210.9231,59.0705
210.8927,59.0093
210.8691,58.9452
210.8527,58.8788
210.8478,58.8450
208.5078,58.8450
208.5078,56.0750
210.4378,56.0750
210.4378,55.5450
210.4375,55.5105
210.4439,55.4419
210.4582,55.3745
210.4800,55.3092
210.5092,55.2468
210.5454,55.1881
210.5880,55.1340
210.6366,55.0851
210.6904,55.0421
210.7488,55.0055
210.8110,54.9759
210.8762,54.9536
210.9436,54.9389
210.9778,54.9350
215.9178,54.9350
215.9882,54.9337
216.1288,54.9244
216.2687,54.9074
216.4075,54.8829
216.5447,54.8509
216.6800,54.8115
216.8130,54.7648
216.9432,54.7110
217.0703,54.6502
217.1939,54.5825
217.3137,54.5083
217.4293,54.4276
217.5403,54.3409
217.6464,54.2482
217.7474,54.1499
217.8429,54.0462
217.9326,53.9375
218.0162,53.8242
218.0936,53.7064
218.1645,53.5846
218.2287,53.4592
Z" /> 
<path style="fill:none; 
stroke:#000000; stroke-width:0.0500; stroke-opacity:1; 
stroke-linecap:round; stroke-linejoin:round;fill:none"
d="M 180.1578,124.7950
180.1676,124.7655
180.1933,124.7087
180.2254,124.6554
180.2636,124.6062
180.3072,124.5618
180.3557,124.5228
180.4085,124.4897
180.4647,124.4630
180.5237,124.4431
180.5846,124.4303
180.6467,124.4246
180.6778,124.4250
183.5578,124.4250
183.5915,124.4247
183.6588,124.4307
183.7249,124.4442
183.7891,124.4650
183.8506,124.4928
183.9086,124.5274
183.9623,124.5682
184.0112,124.6148
184.0545,124.6666
184.0917,124.7229
184.1224,124.7830
184.1462,124.8462
184.1628,124.9116
184.1678,124.9450
186.1478,124.9450
186.1478,127.7550
184.1678,127.7550
184.1678,128.2350
184.1670,128.3063
184.1585,128.4486
184.1420,128.5902
184.1178,128.7306
184.0857,128.8695
184.0460,129.0064
183.9987,129.1409
183.9440,129.2725
183.8820,129.4009
183.8131,129.5256
183.7372,129.6463
183.6548,129.7627
183.5661,129.8742
183.4713,129.9806
183.3707,130.0816
183.2646,130.1769
183.1534,130.2661
183.0374,130.3489
182.9170,130.4252
182.7925,130.4947
182.6644,130.5571
182.5330,130.6123
182.3987,130.6601
182.2620,130.7004
182.1232,130.7330
181.9828,130.7579
181.8413,130.7748
181.6991,130.7839
181.6278,130.7850
173.3578,130.7850
173.3236,130.7842
173.2558,130.7760
173.1892,130.7604
173.1248,130.7376
173.0632,130.7079
173.0053,130.6716
172.9517,130.6292
172.9031,130.5811
172.8601,130.5280
172.8231,130.4705
172.7927,130.4093
172.7691,130.3452
172.7527,130.2788
172.7478,130.2450
170.4078,130.2450
170.4078,127.4750
172.3378,127.4750
172.3378,126.9450
172.3375,126.9105
172.3439,126.8419
172.3582,126.7745
172.3800,126.7092
172.4092,126.6468
172.4454,126.5881
172.4880,126.5340
172.5366,126.4851
172.5904,126.4421
172.6488,126.4055
172.7110,126.3759
172.7762,126.3536
172.8436,126.3389
172.8778,126.3350
177.8178,126.3350
177.8882,126.3337
178.0288,126.3244
178.1687,126.3074
178.3075,126.2829
178.4447,126.2509
178.5800,126.2115
178.7130,126.1648
178.8432,126.1110
178.9703,126.0502
179.0939,125.9825
179.2137,125.9083
179.3293,125.8276
179.4403,125.7409
179.5464,125.6482
179.6474,125.5499
179.7429,125.4462
179.8326,125.3375
179.9162,125.2242
179.9936,125.1064
180.0645,124.9846
180.1287,124.8592
Z" /> 
<path style="fill:none; 
stroke:#000000; stroke-width:0.0500; stroke-opacity:1; 
stroke-linecap:round; stroke-linejoin:round;fill:none"
d="M 199.2578,72.2950
199.2677,72.2655
199.2933,72.2087
199.3254,72.1554
199.3636,72.1062
199.4072,72.0618
199.4557,72.0228
199.5085,71.9897
199.5648,71.9630
199.6237,71.9431
199.6847,71.9303
199.7467,71.9246
199.7778,71.9250
202.6578,71.9250
202.6916,71.9247
202.7588,71.9307
202.8249,71.9442
202.8891,71.9650
202.9506,71.9928
203.0086,72.0274
203.0623,72.0682
203.1112,72.1148
203.1545,72.1666
203.1917,72.2229
203.2224,72.2830
203.2462,72.3462
203.2628,72.4116
203.2678,72.4450
205.2478,72.4450
205.2478,75.2550
203.2678,75.2550
203.2678,75.7350
203.2670,75.8063
203.2585,75.9486
203.2421,76.0902
203.2178,76.2306
203.1857,76.3695
203.1460,76.5064
203.0987,76.6409
203.0440,76.7725
202.9821,76.9009
202.9131,77.0256
202.8373,77.1463
202.7549,77.2627
202.6661,77.3742
202.5713,77.4806
202.4707,77.5816
202.3646,77.6769
202.2534,77.7661
202.1374,77.8489
202.0170,77.9252
201.8926,77.9947
201.7644,78.0571
201.6330,78.1123
201.4987,78.1602
201.3620,78.2004
201.2232,78.2330
201.0828,78.2579
200.9413,78.2748
200.7991,78.2839
200.7278,78.2850
192.4578,78.2850
192.4236,78.2842
192.3558,78.2760
192.2892,78.2604
192.2248,78.2376
192.1632,78.2079
192.1053,78.1716
192.0517,78.1292
192.0031,78.0811
191.9601,78.0280
191.9231,77.9705
191.8927,77.9093
191.8691,77.8452
191.8528,77.7788
191.8478,77.7450
189.5078,77.7450
189.5078,74.9750
191.4378,74.9750
191.4378,74.4450
191.4375,74.4105
191.4439,74.3419
191.4582,74.2745
191.4800,74.2092
191.5092,74.1468
191.5454,74.0881
191.5880,74.0340
191.6366,73.9851
191.6904,73.9421
191.7488,73.9055
191.8110,73.8759
191.8762,73.8536
191.9436,73.8389
191.9778,73.8350
196.9178,73.8350
196.9882,73.8337
197.1289,73.8244
197.2687,73.8074
197.4075,73.7829
197.5447,73.7509
197.6800,73.7115
197.8130,73.6648
197.9432,73.6110
198.0703,73.5502
198.1939,73.4825
198.3137,73.4083
198.4293,73.3276
198.5403,73.2409
198.6464,73.1482
198.7474,73.0499
198.8429,72.9462
198.9326,72.8375
199.0163,72.7242
199.0937,72.6064
199.1645,72.4846
199.2287,72.3592
Z" /> 
<path style="fill:none; 
stroke:#000000; stroke-width:0.0500; stroke-opacity:1; 
stroke-linecap:round; stroke-linejoin:round;fill:none"
d="M 180.1578,105.6950
180.1676,105.6655
180.1933,105.6087
180.2254,105.5554
180.2636,105.5062
180.3072,105.4618
180.3557,105.4228
180.4085,105.3897
180.4647,105.3630
180.5237,105.3431
180.5846,105.3303
180.6467,105.3246
180.6778,105.3250
183.5578,105.3250
183.5915,105.3247
183.6588,105.3307
183.7249,105.3442
183.7891,105.3650
183.8506,105.3928
183.9086,105.4274
183.9623,105.4682
184.0112,105.5148
184.0545,105.5666
184.0917,105.6229
184.1224,105.6830
184.1462,105.7462
184.1628,105.8116
184.1678,105.8450
186.1478,105.8450
186.1478,108.6550
184.1678,108.6550
184.1678,109.1350
184.1670,109.2063
184.1585,109.3486
184.1420,109.4902
184.1178,109.6306
184.0857,109.7695
184.0460,109.9064
183.9987,110.0409
183.9440,110.1725
183.8820,110.3009
183.8131,110.4256
183.7372,110.5463
183.6548,110.6627
183.5661,110.7742
183.4713,110.8806
183.3707,110.9816
183.2646,111.0769
183.1534,111.1661
183.0374,111.2489
182.9170,111.3252
182.7925,111.3947
182.6644,111.4571
182.5330,111.5123
182.3987,111.5601
182.2620,111.6004
182.1232,111.6330
181.9828,111.6579
181.8413,111.6748
181.6991,111.6839
181.6278,111.6850
173.3578,111.6850
173.3236,111.6842
173.2558,111.6760
173.1892,111.6604
173.1248,111.6376
173.0632,111.6079
173.0053,111.5716
172.9517,111.5292
172.9031,111.4811
172.8601,111.4280
172.8231,111.3705
172.7927,111.3093
172.7691,111.2452
172.7527,111.1788
172.7478,111.1450
170.4078,111.1450
170.4078,108.3750
172.3378,108.3750
172.3378,107.8450
172.3375,107.8105
172.3439,107.7419
172.3582,107.6745
172.3800,107.6092
172.4092,107.5468
172.4454,107.4881
172.4880,107.4340
172.5366,107.3851
172.5904,107.3421
172.6488,107.3055
172.7110,107.2759
172.7762,107.2536
172.8436,107.2389
172.8778,107.2350
177.8178,107.2350
177.8882,107.2337
178.0288,107.2244
178.1687,107.2074
178.3075,107.1829
178.4447,107.1509
178.5800,107.1115
178.7130,107.0648
178.8432,107.0110
178.9703,106.9502
179.0939,106.8825
179.2137,106.8083
179.3293,106.7276
179.4403,106.6409
179.5464,106.5482
179.6474,106.4499
179.7429,106.3462
179.8326,106.2375
179.9162,106.1242
179.9936,106.0064
180.0645,105.8846
180.1287,105.7592
Z" /> 
<path style="fill:none; 
stroke:#000000; stroke-width:0.0500; stroke-opacity:1; 
stroke-linecap:round; stroke-linejoin:round;fill:none"
d="M 199.2578,91.4950
199.2677,91.4655
199.2933,91.4087
199.3254,91.3554
199.3636,91.3062
199.4072,91.2618
199.4557,91.2228
199.5085,91.1897
199.5648,91.1630
199.6237,91.1431
199.6847,91.1303
199.7467,91.1246
199.7778,91.1250
202.6578,91.1250
202.6916,91.1247
202.7588,91.1307
202.8249,91.1442
202.8891,91.1650
202.9506,91.1928
203.0086,91.2274
203.0623,91.2682
203.1112,91.3148
203.1545,91.3666
203.1917,91.4229
203.2224,91.4830
203.2462,91.5462
203.2628,91.6116
203.2678,91.6450
205.2478,91.6450
205.2478,94.4550
203.2678,94.4550
203.2678,94.9350
203.2670,95.0063
203.2585,95.1486
203.2421,95.2902
203.2178,95.4306
203.1857,95.5695
203.1460,95.7064
203.0987,95.8409
203.0440,95.9725
202.9821,96.1009
202.9131,96.2256
202.8373,96.3463
202.7549,96.4627
202.6661,96.5742
202.5713,96.6806
202.4707,96.7816
202.3646,96.8769
202.2534,96.9661
202.1374,97.0489
202.0170,97.1252
201.8926,97.1947
201.7644,97.2571
201.6330,97.3123
201.4987,97.3601
201.3620,97.4004
201.2232,97.4330
201.0828,97.4579
200.9413,97.4748
200.7991,97.4839
200.7278,97.4850
192.4578,97.4850
192.4236,97.4842
192.3558,97.4760
192.2892,97.4604
192.2248,97.4376
192.1632,97.4079
192.1053,97.3716
192.0517,97.3292
192.0031,97.2811
191.9601,97.2280
191.9231,97.1705
191.8927,97.1093
191.8691,97.0452
191.8528,96.9788
191.8478,96.9450
189.5078,96.9450
189.5078,94.1750
191.4378,94.1750
191.4378,93.6450
191.4375,93.6105
191.4439,93.5419
191.4582,93.4745
191.4800,93.4092
191.5092,93.3468
191.5454,93.2881
191.5880,93.2340
191.6366,93.1851
191.6904,93.1421
191.7488,93.1055
191.8110,93.0759
191.8762,93.0536
191.9436,93.0389
191.9778,93.0350
196.9178,93.0350
196.9882,93.0337
197.1289,93.0244
197.2687,93.0074
197.4075,92.9829
197.5447,92.9509
197.6800,92.9115
197.8130,92.8648
197.9432,92.8110
198.0703,92.7502
198.1939,92.6825
198.3137,92.6083
198.4293,92.5276
198.5403,92.4409
198.6464,92.3482
198.7474,92.2499
198.8429,92.1462
198.9326,92.0375
199.0163,91.9242
199.0937,91.8064
199.1645,91.6846
199.2287,91.5592
Z" /> 
<path style="fill:none; 
stroke:#000000; stroke-width:0.0500; stroke-opacity:1; 
stroke-linecap:round; stroke-linejoin:round;fill:none"
d="M 161.1578,122.2850
161.1676,122.2555
161.1933,122.1987
161.2254,122.1454
161.2636,122.0962
161.3072,122.0518
161.3557,122.0128
161.4085,121.9797
161.4647,121.9530
161.5237,121.9331
161.5846,121.9203
161.6467,121.9146
161.6778,121.9150
164.5578,121.9150
164.5915,121.9147
164.6588,121.9207
164.7249,121.9342
164.7891,121.9550
164.8506,121.9828
164.9086,122.0174
164.9623,122.0582
165.0112,122.1048
165.0545,122.1566
165.0917,122.2129
165.1224,122.2730
165.1462,122.3362
165.1628,122.4016
165.1678,122.4350
167.1478,122.4350
167.1478,125.2450
165.1678,125.2450
165.1678,125.7250
165.1670,125.7963
165.1585,125.9386
165.1420,126.0802
165.1178,126.2206
165.0857,126.3595
165.0460,126.4964
164.9987,126.6309
164.9440,126.7625
164.8820,126.8909
164.8131,127.0156
164.7372,127.1363
164.6548,127.2527
164.5661,127.3642
164.4713,127.4706
164.3707,127.5716
164.2646,127.6669
164.1534,127.7561
164.0374,127.8389
163.9170,127.9152
163.7925,127.9847
163.6644,128.0471
163.5330,128.1023
163.3987,128.1501
163.2620,128.1904
163.1232,128.2230
162.9828,128.2479
162.8413,128.2648
162.6991,128.2739
162.6278,128.2750
154.3578,128.2750
154.3236,128.2742
154.2558,128.2660
154.1892,128.2504
154.1248,128.2276
154.0632,128.1979
154.0053,128.1616
153.9517,128.1192
153.9031,128.0711
153.8601,128.0180
153.8231,127.9605
153.7927,127.8993
153.7691,127.8352
153.7527,127.7688
153.7478,127.7350
151.4078,127.7350
151.4078,124.9650
153.3378,124.9650
153.3378,124.4350
153.3375,124.4005
153.3439,124.3319
153.3582,124.2645
153.3800,124.1992
153.4092,124.1368
153.4454,124.0781
153.4880,124.0240
153.5366,123.9751
153.5904,123.9321
153.6488,123.8955
153.7110,123.8659
153.7762,123.8436
153.8436,123.8289
153.8778,123.8250
158.8178,123.8250
158.8882,123.8237
159.0288,123.8144
159.1687,123.7974
159.3075,123.7729
159.4447,123.7409
159.5800,123.7015
159.7130,123.6548
159.8432,123.6010
159.9703,123.5402
160.0939,123.4725
160.2137,123.3983
160.3293,123.3176
160.4403,123.2309
160.5464,123.1382
160.6474,123.0399
160.7429,122.9362
160.8326,122.8275
160.9162,122.7142
160.9936,122.5964
161.0645,122.4746
161.1287,122.3492
Z" /> 
<path style="fill:none; 
stroke:#000000; stroke-width:0.0500; stroke-opacity:1; 
stroke-linecap:round; stroke-linejoin:round;fill:none"
d="M 161.1578,84.1850
161.1677,84.1555
161.1933,84.0987
161.2254,84.0454
161.2636,83.9962
161.3072,83.9518
161.3557,83.9128
161.4085,83.8797
161.4648,83.8530
161.5237,83.8331
161.5847,83.8203
161.6467,83.8146
161.6778,83.8150
164.5578,83.8150
164.5916,83.8147
164.6588,83.8207
164.7249,83.8342
164.7891,83.8550
164.8506,83.8828
164.9086,83.9174
164.9623,83.9582
165.0112,84.0048
165.0545,84.0566
165.0917,84.1129
165.1224,84.1730
165.1462,84.2362
165.1628,84.3016
165.1678,84.3350
167.1478,84.3350
167.1478,87.1450
165.1678,87.1450
165.1678,87.6250
165.1670,87.6963
165.1585,87.8386
165.1421,87.9802
165.1178,88.1206
165.0857,88.2595
165.0460,88.3964
164.9987,88.5309
164.9440,88.6625
164.8821,88.7909
164.8131,88.9156
164.7373,89.0363
164.6549,89.1527
164.5661,89.2642
164.4713,89.3706
164.3707,89.4716
164.2646,89.5669
164.1534,89.6561
164.0374,89.7389
163.9170,89.8152
163.7926,89.8847
163.6644,89.9471
163.5330,90.0023
163.3987,90.0502
163.2620,90.0904
163.1232,90.1230
162.9828,90.1479
162.8413,90.1648
162.6991,90.1739
162.6278,90.1750
154.3578,90.1750
154.3236,90.1742
154.2558,90.1660
154.1892,90.1504
154.1248,90.1276
154.0632,90.0979
154.0053,90.0616
153.9517,90.0192
153.9031,89.9711
153.8601,89.9180
153.8231,89.8605
153.7927,89.7993
153.7691,89.7352
153.7528,89.6688
153.7478,89.6350
151.4078,89.6350
151.4078,86.8650
153.3378,86.8650
153.3378,86.3350
153.3375,86.3005
153.3439,86.2319
153.3582,86.1645
153.3800,86.0992
153.4092,86.0368
153.4454,85.9781
153.4880,85.9240
153.5366,85.8751
153.5904,85.8321
153.6488,85.7955
153.7110,85.7659
153.7762,85.7436
153.8436,85.7289
153.8778,85.7250
158.8178,85.7250
158.8882,85.7237
159.0289,85.7144
159.1687,85.6974
159.3075,85.6729
159.4447,85.6409
159.5800,85.6015
159.7130,85.5548
159.8432,85.5010
159.9703,85.4402
160.0939,85.3725
160.2137,85.2983
160.3293,85.2176
160.4403,85.1309
160.5464,85.0382
160.6474,84.9399
160.7429,84.8362
160.8326,84.7275
160.9163,84.6142
160.9937,84.4964
161.0645,84.3746
161.1287,84.2492
Z" /> 
<path style="fill:none; 
stroke:#000000; stroke-width:0.0500; stroke-opacity:1; 
stroke-linecap:round; stroke-linejoin:round;fill:none"
d="M 142.0578,48.4950
142.0676,48.4655
142.0933,48.4087
142.1254,48.3554
142.1636,48.3062
142.2072,48.2618
142.2557,48.2228
142.3085,48.1897
142.3647,48.1630
142.4237,48.1431
142.4846,48.1303
142.5467,48.1246
142.5778,48.1250
145.4578,48.1250
145.4915,48.1247
145.5588,48.1307
145.6249,48.1442
145.6891,48.1650
145.7506,48.1928
145.8086,48.2274
145.8623,48.2682
145.9112,48.3148
145.9545,48.3666
145.9917,48.4229
146.0224,48.4830
146.0462,48.5462
146.0628,48.6116
146.0678,48.6450
148.0478,48.6450
148.0478,51.4550
146.0678,51.4550
146.0678,51.9350
146.0670,52.0063
146.0585,52.1486
146.0420,52.2902
146.0178,52.4306
145.9857,52.5695
145.9460,52.7064
145.8987,52.8409
145.8440,52.9725
145.7820,53.1009
145.7131,53.2256
145.6372,53.3463
145.5548,53.4627
145.4661,53.5742
145.3713,53.6806
145.2707,53.7816
145.1646,53.8769
145.0534,53.9661
144.9374,54.0489
144.8170,54.1252
144.6925,54.1947
144.5644,54.2571
144.4330,54.3123
144.2987,54.3601
144.1620,54.4004
144.0232,54.4330
143.8828,54.4579
143.7413,54.4748
143.5991,54.4839
143.5278,54.4850
135.2578,54.4850
135.2236,54.4842
135.1558,54.4760
135.0892,54.4604
135.0248,54.4376
134.9632,54.4079
134.9053,54.3716
134.8517,54.3292
134.8031,54.2811
134.7601,54.2280
134.7231,54.1705
134.6927,54.1093
134.6691,54.0452
134.6527,53.9788
134.6478,53.9450
132.3078,53.9450
132.3078,51.1750
134.2378,51.1750
134.2378,50.6450
134.2375,50.6105
134.2439,50.5419
134.2582,50.4745
134.2800,50.4092
134.3092,50.3468
134.3454,50.2881
134.3880,50.2340
134.4366,50.1851
134.4904,50.1421
134.5488,50.1055
134.6110,50.0759
134.6762,50.0536
134.7436,50.0389
134.7778,50.0350
139.7178,50.0350
139.7882,50.0337
139.9288,50.0244
140.0687,50.0074
140.2075,49.9829
140.3447,49.9509
140.4800,49.9115
140.6130,49.8648
140.7432,49.8110
140.8703,49.7502
140.9939,49.6825
141.1137,49.6083
141.2293,49.5276
141.3403,49.4409
141.4464,49.3482
141.5474,49.2499
141.6429,49.1462
141.7326,49.0375
141.8162,48.9242
141.8936,48.8064
141.9645,48.6846
142.0287,48.5592
Z" /> 
<path d="M115.1640 136.6427
L124.6412 134.1033
" />
<path d="M115.6887 138.6008
L115.1640 136.6427
" />
<path d="M124.6412 134.1033
L125.1659 136.0614
" />
<path d="M125.1659 136.0614
L115.6886 138.6009
" />
<path style="fill:none; 
stroke:#000000; stroke-width:0.0500; stroke-opacity:1; 
stroke-linecap:round; stroke-linejoin:round;fill:none"
d="M 142.0578,105.6950
142.0676,105.6655
142.0933,105.6087
142.1254,105.5554
142.1636,105.5062
142.2072,105.4618
142.2557,105.4228
142.3085,105.3897
142.3647,105.3630
142.4237,105.3431
142.4846,105.3303
142.5467,105.3246
142.5778,105.3250
145.4578,105.3250
145.4915,105.3247
145.5588,105.3307
145.6249,105.3442
145.6891,105.3650
145.7506,105.3928
145.8086,105.4274
145.8623,105.4682
145.9112,105.5148
145.9545,105.5666
145.9917,105.6229
146.0224,105.6830
146.0462,105.7462
146.0628,105.8116
146.0678,105.8450
148.0478,105.8450
148.0478,108.6550
146.0678,108.6550
146.0678,109.1350
146.0670,109.2063
146.0585,109.3486
146.0420,109.4902
146.0178,109.6306
145.9857,109.7695
145.9460,109.9064
145.8987,110.0409
145.8440,110.1725
145.7820,110.3009
145.7131,110.4256
145.6372,110.5463
145.5548,110.6627
145.4661,110.7742
145.3713,110.8806
145.2707,110.9816
145.1646,111.0769
145.0534,111.1661
144.9374,111.2489
144.8170,111.3252
144.6925,111.3947
144.5644,111.4571
144.4330,111.5123
144.2987,111.5601
144.1620,111.6004
144.0232,111.6330
143.8828,111.6579
143.7413,111.6748
143.5991,111.6839
143.5278,111.6850
135.2578,111.6850
135.2236,111.6842
135.1558,111.6760
135.0892,111.6604
135.0248,111.6376
134.9632,111.6079
134.9053,111.5716
134.8517,111.5292
134.8031,111.4811
134.7601,111.4280
134.7231,111.3705
134.6927,111.3093
134.6691,111.2452
134.6527,111.1788
134.6478,111.1450
132.3078,111.1450
132.3078,108.3750
134.2378,108.3750
134.2378,107.8450
134.2375,107.8105
134.2439,107.7419
134.2582,107.6745
134.2800,107.6092
134.3092,107.5468
134.3454,107.4881
134.3880,107.4340
134.4366,107.3851
134.4904,107.3421
134.5488,107.3055
134.6110,107.2759
134.6762,107.2536
134.7436,107.2389
134.7778,107.2350
139.7178,107.2350
139.7882,107.2337
139.9288,107.2244
140.0687,107.2074
140.2075,107.1829
140.3447,107.1509
140.4800,107.1115
140.6130,107.0648
140.7432,107.0110
140.8703,106.9502
140.9939,106.8825
141.1137,106.8083
141.2293,106.7276
141.3403,106.6409
141.4464,106.5482
141.5474,106.4499
141.6429,106.3462
141.7326,106.2375
141.8162,106.1242
141.8936,106.0064
141.9645,105.8846
142.0287,105.7592
Z" /> 
<path d="M153.6496 91.6988
L163.4611 91.6988
" />
<path d="M153.6496 93.7260
L153.6496 91.6988
" />
<path d="M163.4611 91.6988
L163.4611 93.7260
" />
<path d="M163.4611 93.7260
L153.6495 93.7260
" />
<path d="M191.7496 99.0988
L201.5611 99.0988
" />
<path d="M191.7496 101.1260
L191.7496 99.0988
" />
<path d="M201.5611 99.0988
L201.5611 101.1260
" />
<path d="M201.5611 101.1260
L191.7495 101.1260
" />
<path d="M210.7996 99.0988
L220.6111 99.0988
" />
<path d="M210.7996 101.1260
L210.7996 99.0988
" />
<path d="M220.6111 99.0988
L220.6111 101.1260
" />
<path d="M220.6111 101.1260
L210.7995 101.1260
" />
<path d="M134.9250 130.9575
L144.7366 130.9575
" />
<path d="M134.9250 132.9847
L134.9250 130.9575
" />
<path d="M144.7366 130.9575
L144.7366 132.9847
" />
<path d="M144.7366 132.9847
L134.9249 132.9847
" />
<path d="M153.6496 129.7988
L163.4611 129.7988
" />
<path d="M153.6496 131.8260
L153.6496 129.7988
" />
<path d="M163.4611 129.7988
L163.4611 131.8260
" />
<path d="M163.4611 131.8260
L153.6495 131.8260
" />
<path d="M210.7996 118.1488
L220.6111 118.1488
" />
<path d="M210.7996 120.1760
L210.7996 118.1488
" />
<path d="M220.6111 118.1488
L220.6111 120.1760
" />
<path d="M220.6111 120.1760
L210.7995 120.1760
" />
<path d="M134.9441 113.1605
L144.7556 113.1605
" />
<path d="M134.9441 115.1877
L134.9441 113.1605
" />
<path d="M144.7556 113.1605
L144.7556 115.1877
" />
<path d="M144.7556 115.1877
L134.9440 115.1877
" />
<path d="M153.6496 110.7488
L163.4611 110.7488
" />
<path d="M153.6496 112.7760
L153.6496 110.7488
" />
<path d="M163.4611 110.7488
L163.4611 112.7760
" />
<path d="M163.4611 112.7760
L153.6495 112.7760
" />
<path d="M172.6996 113.2488
L182.5111 113.2488
" />
<path d="M172.6996 115.2760
L172.6996 113.2488
" />
<path d="M182.5111 113.2488
L182.5111 115.2760
" />
<path d="M182.5111 115.2760
L172.6995 115.2760
" />
<path d="M191.7821 118.0338
L201.5936 118.0338
" />
<path d="M191.7821 120.0610
L191.7821 118.0338
" />
<path d="M201.5936 118.0338
L201.5936 120.0610
" />
<path d="M201.5936 120.0610
L191.7820 120.0610
" />
<path d="M134.9441 94.1105
L144.7556 94.1105
" />
<path d="M134.9441 96.1377
L134.9441 94.1105
" />
<path d="M144.7556 94.1105
L144.7556 96.1377
" />
<path d="M144.7556 96.1377
L134.9440 96.1377
" />
<path d="M172.6850 131.0075
L182.4966 131.0075
" />
<path d="M172.6850 133.0348
L172.6850 131.0075
" />
<path d="M182.4966 131.0075
L182.4966 133.0348
" />
<path d="M182.4966 133.0348
L172.6849 133.0348
" />
<path style="fill:none; 
stroke:#000000; stroke-width:0.0500; stroke-opacity:1; 
stroke-linecap:round; stroke-linejoin:round;fill:none"
d="M 142.0578,124.6950
142.0676,124.6655
142.0933,124.6087
142.1254,124.5554
142.1636,124.5062
142.2072,124.4618
142.2557,124.4228
142.3085,124.3897
142.3647,124.3630
142.4237,124.3431
142.4846,124.3303
142.5467,124.3246
142.5778,124.3250
145.4578,124.3250
145.4915,124.3247
145.5588,124.3307
145.6249,124.3442
145.6891,124.3650
145.7506,124.3928
145.8086,124.4274
145.8623,124.4682
145.9112,124.5148
145.9545,124.5666
145.9917,124.6229
146.0224,124.6830
146.0462,124.7462
146.0628,124.8116
146.0678,124.8450
148.0478,124.8450
148.0478,127.6550
146.0678,127.6550
146.0678,128.1350
146.0670,128.2063
146.0585,128.3486
146.0420,128.4902
146.0178,128.6306
145.9857,128.7695
145.9460,128.9064
145.8987,129.0409
145.8440,129.1725
145.7820,129.3009
145.7131,129.4256
145.6372,129.5463
145.5548,129.6627
145.4661,129.7742
145.3713,129.8806
145.2707,129.9816
145.1646,130.0769
145.0534,130.1661
144.9374,130.2489
144.8170,130.3252
144.6925,130.3947
144.5644,130.4571
144.4330,130.5123
144.2987,130.5601
144.1620,130.6004
144.0232,130.6330
143.8828,130.6579
143.7413,130.6748
143.5991,130.6839
143.5278,130.6850
135.2578,130.6850
135.2236,130.6842
135.1558,130.6760
135.0892,130.6604
135.0248,130.6376
134.9632,130.6079
134.9053,130.5716
134.8517,130.5292
134.8031,130.4811
134.7601,130.4280
134.7231,130.3705
134.6927,130.3093
134.6691,130.2452
134.6527,130.1788
134.6478,130.1450
132.3078,130.1450
132.3078,127.3750
134.2378,127.3750
134.2378,126.8450
134.2375,126.8105
134.2439,126.7419
134.2582,126.6745
134.2800,126.6092
134.3092,126.5468
134.3454,126.4881
134.3880,126.4340
134.4366,126.3851
134.4904,126.3421
134.5488,126.3055
134.6110,126.2759
134.6762,126.2536
134.7436,126.2389
134.7778,126.2350
139.7178,126.2350
139.7882,126.2337
139.9288,126.2244
140.0687,126.2074
140.2075,126.1829
140.3447,126.1509
140.4800,126.1115
140.6130,126.0648
140.7432,126.0110
140.8703,125.9502
140.9939,125.8825
141.1137,125.8083
141.2293,125.7276
141.3403,125.6409
141.4464,125.5482
141.5474,125.4499
141.6429,125.3462
141.7326,125.2375
141.8162,125.1242
141.8936,125.0064
141.9645,124.8846
142.0287,124.7592
Z" /> 
<path d="M137.8353 41.1306
L137.8353 44.1100
" />
<path d="M137.8353 44.1100
L141.2293 44.1100
" />
<path d="M141.2293 44.1100
L141.2368 41.1314
" />
<path d="M141.2368 41.1314
L137.8353 41.1306
" />
<path d="M114.3489 122.6907
L115.1200 125.5686
" />
<path d="M115.1200 125.5686
L118.3984 124.6902
" />
<path d="M117.6347 121.8111
L114.3489 122.6907
" />
<path d="M118.3984 124.6902
L117.6347 121.8111
" />
<path d="M195.0353 84.1306
L195.0353 87.1100
" />
<path d="M195.0353 87.1100
L198.4293 87.1100
" />
<path d="M198.4293 87.1100
L198.4368 84.1314
" />
<path d="M198.4368 84.1314
L195.0353 84.1306
" />
<path d="M92.4402 128.7527
L93.7928 131.4075
" />
<path d="M93.7928 131.4075
L96.8169 129.8666
" />
<path d="M95.4713 127.2092
L92.4402 128.7527
" />
<path d="M96.8169 129.8666
L95.4713 127.2092
" />
<path style="fill:none; 
stroke:#000000; stroke-width:0.0500; stroke-opacity:1; 
stroke-linecap:round; stroke-linejoin:round;fill:none"
d="M 123.0578,108.0950
123.0676,108.0655
123.0933,108.0087
123.1254,107.9554
123.1636,107.9062
123.2072,107.8618
123.2557,107.8228
123.3085,107.7897
123.3647,107.7630
123.4237,107.7431
123.4846,107.7303
123.5467,107.7246
123.5778,107.7250
126.4578,107.7250
126.4915,107.7247
126.5588,107.7307
126.6249,107.7442
126.6891,107.7650
126.7506,107.7928
126.8086,107.8274
126.8623,107.8682
126.9112,107.9148
126.9545,107.9666
126.9917,108.0229
127.0224,108.0830
127.0462,108.1462
127.0628,108.2116
127.0678,108.2450
129.0478,108.2450
129.0478,111.0550
127.0678,111.0550
127.0678,111.5350
127.0670,111.6063
127.0585,111.7486
127.0420,111.8902
127.0178,112.0306
126.9857,112.1695
126.9460,112.3064
126.8987,112.4409
126.8440,112.5725
126.7820,112.7009
126.7131,112.8256
126.6372,112.9463
126.5548,113.0627
126.4661,113.1742
126.3713,113.2806
126.2707,113.3816
126.1646,113.4769
126.0534,113.5661
125.9374,113.6489
125.8170,113.7252
125.6925,113.7947
125.5644,113.8571
125.4330,113.9123
125.2987,113.9601
125.1620,114.0004
125.0232,114.0330
124.8828,114.0579
124.7413,114.0748
124.5991,114.0839
124.5278,114.0850
116.2578,114.0850
116.2236,114.0842
116.1558,114.0760
116.0892,114.0604
116.0248,114.0376
115.9632,114.0079
115.9053,113.9716
115.8517,113.9292
115.8031,113.8811
115.7601,113.8280
115.7231,113.7705
115.6927,113.7093
115.6691,113.6452
115.6527,113.5788
115.6478,113.5450
113.3078,113.5450
113.3078,110.7750
115.2378,110.7750
115.2378,110.2450
115.2375,110.2105
115.2439,110.1419
115.2582,110.0745
115.2800,110.0092
115.3092,109.9468
115.3454,109.8881
115.3880,109.8340
115.4366,109.7851
115.4904,109.7421
115.5488,109.7055
115.6110,109.6759
115.6762,109.6536
115.7436,109.6389
115.7778,109.6350
120.7178,109.6350
120.7882,109.6337
120.9288,109.6244
121.0687,109.6074
121.2075,109.5829
121.3447,109.5509
121.4800,109.5115
121.6130,109.4648
121.7432,109.4110
121.8703,109.3502
121.9939,109.2825
122.1137,109.2083
122.2293,109.1276
122.3403,109.0409
122.4464,108.9482
122.5474,108.8499
122.6429,108.7462
122.7326,108.6375
122.8162,108.5242
122.8936,108.4064
122.9645,108.2846
123.0287,108.1592
Z" /> 
<path d="M195.0353 64.9306
L195.0353 67.9100
" />
<path d="M195.0353 67.9100
L198.4293 67.9100
" />
<path d="M198.4293 67.9100
L198.4368 64.9314
" />
<path d="M198.4368 64.9314
L195.0353 64.9306
" />
<path d="M204.7177 42.5517
L204.7177 45.8283
" />
<path d="M204.7177 45.8283
L208.3753 45.8283
" />
<path d="M208.3753 42.5517
L204.7177 42.5517
" />
<path d="M208.3753 45.8283
L208.3753 42.5517
" />
<path d="M195.0353 103.1306
L195.0353 106.1100
" />
<path d="M195.0353 106.1100
L198.4293 106.1100
" />
<path d="M198.4293 106.1100
L198.4368 103.1314
" />
<path d="M198.4368 103.1314
L195.0353 103.1306
" />
<path d="M137.8353 60.2306
L137.8353 63.2100
" />
<path d="M137.8353 63.2100
L141.2293 63.2100
" />
<path d="M141.2293 63.2100
L141.2368 60.2314
" />
<path d="M141.2368 60.2314
L137.8353 60.2306
" />
<path d="M175.9353 98.3306
L175.9353 101.3100
" />
<path d="M175.9353 101.3100
L179.3293 101.3100
" />
<path d="M179.3293 101.3100
L179.3368 98.3314
" />
<path d="M179.3368 98.3314
L175.9353 98.3306
" />
<path d="M156.9353 95.8206
L156.9353 98.8000
" />
<path d="M156.9353 98.8000
L160.3293 98.8000
" />
<path d="M160.3293 98.8000
L160.3368 95.8214
" />
<path d="M160.3368 95.8214
L156.9353 95.8206
" />
<path d="M214.0353 84.1306
L214.0353 87.1100
" />
<path d="M214.0353 87.1100
L217.4293 87.1100
" />
<path d="M217.4293 87.1100
L217.4368 84.1314
" />
<path d="M217.4368 84.1314
L214.0353 84.1306
" />
<path d="M172.6996 94.1988
L182.5111 94.1988
" />
<path d="M172.6996 96.2260
L172.6996 94.1988
" />
<path d="M182.5111 94.1988
L182.5111 96.2260
" />
<path d="M182.5111 96.2260
L172.6995 96.2260
" />
<path d="M118.8353 81.7306
L118.8353 84.7100
" />
<path d="M118.8353 84.7100
L122.2293 84.7100
" />
<path d="M122.2293 84.7100
L122.2368 81.7314
" />
<path d="M122.2368 81.7314
L118.8353 81.7306
" />
<path d="M175.9353 60.1706
L175.9353 63.1500
" />
<path d="M175.9353 63.1500
L179.3293 63.1500
" />
<path d="M179.3293 63.1500
L179.3368 60.1714
" />
<path d="M179.3368 60.1714
L175.9353 60.1706
" />
<path d="M137.8353 98.3306
L137.8353 101.3100
" />
<path d="M137.8353 101.3100
L141.2293 101.3100
" />
<path d="M141.2293 101.3100
L141.2368 98.3314
" />
<path d="M141.2368 98.3314
L137.8353 98.3306
" />
<path d="M214.0353 46.0306
L214.0353 49.0100
" />
<path d="M214.0353 49.0100
L217.4293 49.0100
" />
<path d="M217.4293 49.0100
L217.4368 46.0314
" />
<path d="M217.4368 46.0314
L214.0353 46.0306
" />
<path d="M118.8353 43.6306
L118.8353 46.6100
" />
<path d="M118.8353 46.6100
L122.2293 46.6100
" />
<path d="M122.2293 46.6100
L122.2368 43.6314
" />
<path d="M122.2368 43.6314
L118.8353 43.6306
" />
<path d="M166.7750 36.8882
L166.7750 40.1648
" />
<path d="M166.7750 40.1648
L170.4326 40.1648
" />
<path d="M170.4326 36.8882
L166.7750 36.8882
" />
<path d="M170.4326 40.1648
L170.4326 36.8882
" />
<path d="M156.9353 114.9206
L156.9353 117.9000
" />
<path d="M156.9353 117.9000
L160.3293 117.9000
" />
<path d="M160.3293 117.9000
L160.3368 114.9214
" />
<path d="M160.3368 114.9214
L156.9353 114.9206
" />
<path d="M156.9353 57.7206
L156.9353 60.7000
" />
<path d="M156.9353 60.7000
L160.3293 60.7000
" />
<path d="M160.3293 60.7000
L160.3368 57.7214
" />
<path d="M160.3368 57.7214
L156.9353 57.7206
" />
<path style="fill:none; 
stroke:#000000; stroke-width:0.0500; stroke-opacity:1; 
stroke-linecap:round; stroke-linejoin:round;fill:none"
d="M 123.0578,70.0950
123.0676,70.0655
123.0933,70.0087
123.1254,69.9554
123.1636,69.9062
123.2072,69.8618
123.2557,69.8228
123.3085,69.7897
123.3647,69.7630
123.4237,69.7431
123.4846,69.7303
123.5467,69.7246
123.5778,69.7250
126.4578,69.7250
126.4915,69.7247
126.5588,69.7307
126.6249,69.7442
126.6891,69.7650
126.7506,69.7928
126.8086,69.8274
126.8623,69.8682
126.9112,69.9148
126.9545,69.9666
126.9917,70.0229
127.0224,70.0830
127.0462,70.1462
127.0628,70.2116
127.0678,70.2450
129.0478,70.2450
129.0478,73.0550
127.0678,73.0550
127.0678,73.5350
127.0670,73.6063
127.0585,73.7486
127.0420,73.8902
127.0178,74.0306
126.9857,74.1695
126.9460,74.3064
126.8987,74.4409
126.8440,74.5725
126.7820,74.7009
126.7131,74.8256
126.6372,74.9463
126.5548,75.0627
126.4661,75.1742
126.3713,75.2806
126.2707,75.3816
126.1646,75.4769
126.0534,75.5661
125.9374,75.6489
125.8170,75.7252
125.6925,75.7947
125.5644,75.8571
125.4330,75.9123
125.2987,75.9601
125.1620,76.0004
125.0232,76.0330
124.8828,76.0579
124.7413,76.0748
124.5991,76.0839
124.5278,76.0850
116.2578,76.0850
116.2236,76.0842
116.1558,76.0760
116.0892,76.0604
116.0248,76.0376
115.9632,76.0079
115.9053,75.9716
115.8517,75.9292
115.8031,75.8811
115.7601,75.8280
115.7231,75.7705
115.6927,75.7093
115.6691,75.6452
115.6527,75.5788
115.6478,75.5450
113.3078,75.5450
113.3078,72.7750
115.2378,72.7750
115.2378,72.2450
115.2375,72.2105
115.2439,72.1419
115.2582,72.0745
115.2800,72.0092
115.3092,71.9468
115.3454,71.8881
115.3880,71.8340
115.4366,71.7851
115.4904,71.7421
115.5488,71.7055
115.6110,71.6759
115.6762,71.6536
115.7436,71.6389
115.7778,71.6350
120.7178,71.6350
120.7882,71.6337
120.9288,71.6244
121.0687,71.6074
121.2075,71.5829
121.3447,71.5509
121.4800,71.5115
121.6130,71.4648
121.7432,71.4110
121.8703,71.3502
121.9939,71.2825
122.1137,71.2083
122.2293,71.1276
122.3403,71.0409
122.4464,70.9482
122.5474,70.8499
122.6429,70.7462
122.7326,70.6375
122.8162,70.5242
122.8936,70.4064
122.9645,70.2846
123.0287,70.1592
Z" /> 
<path d="M137.8353 117.3306
L137.8353 120.3100
" />
<path d="M137.8353 120.3100
L141.2293 120.3100
" />
<path d="M141.2293 120.3100
L141.2368 117.3314
" />
<path d="M141.2368 117.3314
L137.8353 117.3306
" />
<path d="M118.8353 62.7306
L118.8353 65.7100
" />
<path d="M118.8353 65.7100
L122.2293 65.7100
" />
<path d="M122.2293 65.7100
L122.2368 62.7314
" />
<path d="M122.2368 62.7314
L118.8353 62.7306
" />
<path d="M175.9353 41.1706
L175.9353 44.1500
" />
<path d="M175.9353 44.1500
L179.3293 44.1500
" />
<path d="M179.3293 44.1500
L179.3368 41.1714
" />
<path d="M179.3368 41.1714
L175.9353 41.1706
" />
<path d="M118.8353 100.7306
L118.8353 103.7100
" />
<path d="M118.8353 103.7100
L122.2293 103.7100
" />
<path d="M122.2293 103.7100
L122.2368 100.7314
" />
<path d="M122.2368 100.7314
L118.8353 100.7306
" />
<path d="M175.9353 79.2306
L175.9353 82.2100
" />
<path d="M175.9353 82.2100
L179.3293 82.2100
" />
<path d="M179.3293 82.2100
L179.3368 79.2314
" />
<path d="M179.3368 79.2314
L175.9353 79.2306
" />
<path d="M137.8353 79.2306
L137.8353 82.2100
" />
<path d="M137.8353 82.2100
L141.2293 82.2100
" />
<path d="M141.2293 82.2100
L141.2368 79.2314
" />
<path d="M141.2368 79.2314
L137.8353 79.2306
" />
<path d="M156.9353 76.8206
L156.9353 79.8000
" />
<path d="M156.9353 79.8000
L160.3293 79.8000
" />
<path d="M160.3293 79.8000
L160.3368 76.8214
" />
<path d="M160.3368 76.8214
L156.9353 76.8206
" />
<path d="M214.0353 64.9306
L214.0353 67.9100
" />
<path d="M214.0353 67.9100
L217.4293 67.9100
" />
<path d="M217.4293 67.9100
L217.4368 64.9314
" />
<path d="M217.4368 64.9314
L214.0353 64.9306
" />
<path d="M214.0853 103.1306
L214.0853 106.1100
" />
<path d="M214.0853 106.1100
L217.4793 106.1100
" />
<path d="M217.4793 106.1100
L217.4868 103.1314
" />
<path d="M217.4868 103.1314
L214.0853 103.1306
" />
<path d="M175.9353 117.4306
L175.9353 120.4100
" />
<path d="M175.9353 120.4100
L179.3293 120.4100
" />
<path d="M179.3293 120.4100
L179.3368 117.4314
" />
<path d="M179.3368 117.4314
L175.9353 117.4306
" />
</g> 
</svg>
