  0
SECTION
  2
HEADER
  9
$ANGBASE
  50
0.0
  9
$ANGDIR
  70
1
  9
$MEASUREMENT
  70
1
  0
ENDSEC
  0
SECTION
  2
TABLES
  0
TABLE
  2
LTYPE
  70
4
  0
LTYPE
  5
40F
  2
CONTINUOUS
  70
0
  3
Solid line
  72
65
  73
0
  40
0.0
  0
LTYPE
  5
410
  2
DASHDOT
 70
0
  3
Dash Dot ____ _ ____ _
 72
65
 73
4
 40
2.0
 49
1.25
 49
-0.25
 49
0.25
 49
-0.25
  0
LTYPE
  5
411
  2
DASHED
 70
0
  3
Dashed __ __ __ __ __
 72
65
 73
2
 40
0.75
 49
0.5
 49
-0.25
  0
LTYPE
  5
43B
  2
DOTTED
 70
0
  3
Dotted .  .  .  .
 72
65
 73
2
 40
0.2
 49
0.0
 49
-0.2
  0
ENDTAB
  0
TABLE
  2
STYLE
  70
4
  0
STYLE
  2
KICAD
  70
0
  40
0
  41
1
  42
1
  50
0
  71
0
  3
isocp.shx
  0
STYLE
  2
KICADB
  70
0
  40
0
  41
1
  42
1
  50
0
  71
0
  3
isocp.shx
  0
STYLE
  2
KICADI
  70
0
  40
0
  41
1
  42
1
  50
15
  71
0
  3
isocp.shx
  0
STYLE
  2
KICADBI
  70
0
  40
0
  41
1
  42
1
  50
15
  71
0
  3
isocp.shx
  0
ENDTAB
  0
TABLE
  2
LAYER
  70
1
  0
LAYER
  2
BLACK
  70
0
  62
7
  6
CONTINUOUS
  0
ENDTAB
  0
ENDSEC
  0
SECTION
  2
ENTITIES
0
LINE
8
BLACK
6
CONTINUOUS
10
103.2684619999999995
20
-118.0817749999999933
11
103.4400859999999938
21
-118.1375389999999896
0
LINE
8
BLACK
6
CONTINUOUS
10
103.4400859999999938
20
-118.1375389999999896
11
103.6008729999999929
21
-118.2194639999999879
0
LINE
8
BLACK
6
CONTINUOUS
10
103.6008729999999929
20
-118.2194639999999879
11
103.7468649999999997
21
-118.325532999999993
0
LINE
8
BLACK
6
CONTINUOUS
10
103.7468649999999997
20
-118.325532999999993
11
103.8744669999999957
21
-118.453134999999989
0
LINE
8
BLACK
6
CONTINUOUS
10
103.8744669999999957
20
-118.453134999999989
11
103.9805360000000007
21
-118.5991269999999957
0
LINE
8
BLACK
6
CONTINUOUS
10
103.9805360000000007
20
-118.5991269999999957
11
104.062460999999999
21
-118.7599139999999949
0
LINE
8
BLACK
6
CONTINUOUS
10
104.062460999999999
20
-118.7599139999999949
11
104.1182249999999954
21
-118.9315379999999891
0
LINE
8
BLACK
6
CONTINUOUS
10
104.1182249999999954
20
-118.9315379999999891
11
104.1464549999999889
21
-119.1097719999999924
0
LINE
8
BLACK
6
CONTINUOUS
10
104.1464549999999889
20
-119.1097719999999924
11
104.1464549999999889
21
-119.290227999999999
0
LINE
8
BLACK
6
CONTINUOUS
10
104.1464549999999889
20
-119.290227999999999
11
104.1182249999999954
21
-119.4684619999999882
0
LINE
8
BLACK
6
CONTINUOUS
10
104.1182249999999954
20
-119.4684619999999882
11
104.062460999999999
21
-119.6400859999999966
0
LINE
8
BLACK
6
CONTINUOUS
10
104.062460999999999
20
-119.6400859999999966
11
103.9805360000000007
21
-119.8008729999999957
0
LINE
8
BLACK
6
CONTINUOUS
10
103.9805360000000007
20
-119.8008729999999957
11
103.8744669999999957
21
-119.9468649999999883
0
LINE
8
BLACK
6
CONTINUOUS
10
103.8744669999999957
20
-119.9468649999999883
11
103.7468649999999997
21
-120.0744669999999985
0
LINE
8
BLACK
6
CONTINUOUS
10
103.7468649999999997
20
-120.0744669999999985
11
103.6008729999999929
21
-120.1805359999999894
0
LINE
8
BLACK
6
CONTINUOUS
10
103.6008729999999929
20
-120.1805359999999894
11
103.4400859999999938
21
-120.2624609999999876
0
LINE
8
BLACK
6
CONTINUOUS
10
103.4400859999999938
20
-120.2624609999999876
11
103.2684619999999995
21
-120.3182249999999982
0
LINE
8
BLACK
6
CONTINUOUS
10
103.2684619999999995
20
-120.3182249999999982
11
103.0902279999999962
21
-120.3464549999999917
0
LINE
8
BLACK
6
CONTINUOUS
10
103.0902279999999962
20
-120.3464549999999917
11
102.9097719999999896
21
-120.3464549999999917
0
LINE
8
BLACK
6
CONTINUOUS
10
102.9097719999999896
20
-120.3464549999999917
11
102.7315380000000005
21
-120.3182249999999982
0
LINE
8
BLACK
6
CONTINUOUS
10
102.7315380000000005
20
-120.3182249999999982
11
102.559913999999992
21
-120.2624609999999876
0
LINE
8
BLACK
6
CONTINUOUS
10
102.559913999999992
20
-120.2624609999999876
11
102.3991269999999929
21
-120.1805359999999894
0
LINE
8
BLACK
6
CONTINUOUS
10
102.3991269999999929
20
-120.1805359999999894
11
102.2531350000000003
21
-120.0744669999999985
0
LINE
8
BLACK
6
CONTINUOUS
10
102.2531350000000003
20
-120.0744669999999985
11
102.1255329999999901
21
-119.9468649999999883
0
LINE
8
BLACK
6
CONTINUOUS
10
102.1255329999999901
20
-119.9468649999999883
11
102.0194639999999993
21
-119.8008729999999957
0
LINE
8
BLACK
6
CONTINUOUS
10
102.0194639999999993
20
-119.8008729999999957
11
101.937539000000001
21
-119.6400859999999966
0
LINE
8
BLACK
6
CONTINUOUS
10
101.937539000000001
20
-119.6400859999999966
11
101.8817749999999904
21
-119.4684619999999882
0
LINE
8
BLACK
6
CONTINUOUS
10
101.8817749999999904
20
-119.4684619999999882
11
101.8535449999999969
21
-119.290227999999999
0
LINE
8
BLACK
6
CONTINUOUS
10
101.8535449999999969
20
-119.290227999999999
11
101.8535449999999969
21
-119.1097719999999924
0
LINE
8
BLACK
6
CONTINUOUS
10
101.8535449999999969
20
-119.1097719999999924
11
101.8556339999999949
21
-119.0965839999999929
0
LINE
8
BLACK
6
CONTINUOUS
10
101.8556339999999949
20
-119.0965839999999929
11
101.8817749999999904
21
-118.9315379999999891
0
LINE
8
BLACK
6
CONTINUOUS
10
101.8817749999999904
20
-118.9315379999999891
11
101.937539000000001
21
-118.7599139999999949
0
LINE
8
BLACK
6
CONTINUOUS
10
101.937539000000001
20
-118.7599139999999949
11
102.0194639999999993
21
-118.5991269999999957
0
LINE
8
BLACK
6
CONTINUOUS
10
102.0194639999999993
20
-118.5991269999999957
11
102.1255329999999901
21
-118.453134999999989
0
LINE
8
BLACK
6
CONTINUOUS
10
102.1255329999999901
20
-118.453134999999989
11
102.2531350000000003
21
-118.325532999999993
0
LINE
8
BLACK
6
CONTINUOUS
10
102.2531350000000003
20
-118.325532999999993
11
102.3991269999999929
21
-118.2194639999999879
0
LINE
8
BLACK
6
CONTINUOUS
10
102.3991269999999929
20
-118.2194639999999879
11
102.559913999999992
21
-118.1375389999999896
0
LINE
8
BLACK
6
CONTINUOUS
10
102.559913999999992
20
-118.1375389999999896
11
102.7315380000000005
21
-118.0817749999999933
0
LINE
8
BLACK
6
CONTINUOUS
10
102.7315380000000005
20
-118.0817749999999933
11
102.9097719999999896
21
-118.0535449999999997
0
LINE
8
BLACK
6
CONTINUOUS
10
102.9097719999999896
20
-118.0535449999999997
11
103.0902279999999962
21
-118.0535449999999997
0
LINE
8
BLACK
6
CONTINUOUS
10
103.0902279999999962
20
-118.0535449999999997
11
103.2684619999999995
21
-118.0817749999999933
0
LINE
8
BLACK
6
CONTINUOUS
10
101.9499999999999886
20
-119.3034159999999986
11
101.9903499999999923
21
-119.5062739999999906
0
LINE
8
BLACK
6
CONTINUOUS
10
101.9903499999999923
20
-119.5062739999999906
11
102.069502
21
-119.6973619999999983
0
LINE
8
BLACK
6
CONTINUOUS
10
102.069502
20
-119.6973619999999983
11
102.1844109999999972
21
-119.8693359999999899
0
LINE
8
BLACK
6
CONTINUOUS
10
102.1844109999999972
20
-119.8693359999999899
11
102.3306639999999987
21
-120.0155889999999914
0
LINE
8
BLACK
6
CONTINUOUS
10
102.3306639999999987
20
-120.0155889999999914
11
102.5026379999999904
21
-120.1304979999999887
0
LINE
8
BLACK
6
CONTINUOUS
10
102.5026379999999904
20
-120.1304979999999887
11
102.6937259999999981
21
-120.2096499999999963
0
LINE
8
BLACK
6
CONTINUOUS
10
102.6937259999999981
20
-120.2096499999999963
11
102.8965839999999901
21
-120.25
0
LINE
8
BLACK
6
CONTINUOUS
10
102.8965839999999901
20
-120.25
11
103.1034159999999957
21
-120.25
0
LINE
8
BLACK
6
CONTINUOUS
10
103.1034159999999957
20
-120.25
11
103.3062740000000019
21
-120.2096499999999963
0
LINE
8
BLACK
6
CONTINUOUS
10
103.3062740000000019
20
-120.2096499999999963
11
103.4973619999999954
21
-120.1304979999999887
0
LINE
8
BLACK
6
CONTINUOUS
10
103.4973619999999954
20
-120.1304979999999887
11
103.6693360000000013
21
-120.0155889999999914
0
LINE
8
BLACK
6
CONTINUOUS
10
103.6693360000000013
20
-120.0155889999999914
11
103.8155889999999886
21
-119.8693359999999899
0
LINE
8
BLACK
6
CONTINUOUS
10
103.8155889999999886
20
-119.8693359999999899
11
103.930498
21
-119.6973619999999983
0
LINE
8
BLACK
6
CONTINUOUS
10
103.930498
20
-119.6973619999999983
11
104.0096499999999935
21
-119.5062739999999906
0
LINE
8
BLACK
6
CONTINUOUS
10
104.0096499999999935
20
-119.5062739999999906
11
104.0499999999999972
21
-119.3034159999999986
0
LINE
8
BLACK
6
CONTINUOUS
10
104.0499999999999972
20
-119.3034159999999986
11
104.0499999999999972
21
-119.0965839999999929
0
LINE
8
BLACK
6
CONTINUOUS
10
104.0499999999999972
20
-119.0965839999999929
11
104.0096499999999935
21
-118.8937260000000009
0
LINE
8
BLACK
6
CONTINUOUS
10
104.0096499999999935
20
-118.8937260000000009
11
103.930498
21
-118.7026379999999932
0
LINE
8
BLACK
6
CONTINUOUS
10
103.930498
20
-118.7026379999999932
11
103.8155889999999886
21
-118.5306640000000016
0
LINE
8
BLACK
6
CONTINUOUS
10
103.8155889999999886
20
-118.5306640000000016
11
103.6693360000000013
21
-118.3844110000000001
0
LINE
8
BLACK
6
CONTINUOUS
10
103.6693360000000013
20
-118.3844110000000001
11
103.4973619999999954
21
-118.2695019999999886
0
LINE
8
BLACK
6
CONTINUOUS
10
103.4973619999999954
20
-118.2695019999999886
11
103.3062740000000019
21
-118.1903499999999951
0
LINE
8
BLACK
6
CONTINUOUS
10
103.3062740000000019
20
-118.1903499999999951
11
103.1034159999999957
21
-118.1499999999999915
0
LINE
8
BLACK
6
CONTINUOUS
10
103.1034159999999957
20
-118.1499999999999915
11
102.8965839999999901
21
-118.1499999999999915
0
LINE
8
BLACK
6
CONTINUOUS
10
102.8965839999999901
20
-118.1499999999999915
11
102.6937259999999981
21
-118.1903499999999951
0
LINE
8
BLACK
6
CONTINUOUS
10
102.6937259999999981
20
-118.1903499999999951
11
102.5026379999999904
21
-118.2695019999999886
0
LINE
8
BLACK
6
CONTINUOUS
10
102.5026379999999904
20
-118.2695019999999886
11
102.3306639999999987
21
-118.3844110000000001
0
LINE
8
BLACK
6
CONTINUOUS
10
102.3306639999999987
20
-118.3844110000000001
11
102.1844109999999972
21
-118.5306640000000016
0
LINE
8
BLACK
6
CONTINUOUS
10
102.1844109999999972
20
-118.5306640000000016
11
102.069502
21
-118.7026379999999932
0
LINE
8
BLACK
6
CONTINUOUS
10
102.069502
20
-118.7026379999999932
11
101.9903499999999923
21
-118.8937260000000009
0
LINE
8
BLACK
6
CONTINUOUS
10
101.9903499999999923
20
-118.8937260000000009
11
101.9499999999999886
21
-119.0965839999999929
0
LINE
8
BLACK
6
CONTINUOUS
10
101.9499999999999886
20
-119.0965839999999929
11
101.9499999999999886
21
-119.3034159999999986
0
LINE
8
BLACK
6
CONTINUOUS
10
206.4434619999999825
20
-99.106774999999999
11
206.6150859999999909
21
-99.1625389999999953
0
LINE
8
BLACK
6
CONTINUOUS
10
206.6150859999999909
20
-99.1625389999999953
11
206.77587299999999
21
-99.2444639999999936
0
LINE
8
BLACK
6
CONTINUOUS
10
206.77587299999999
20
-99.2444639999999936
11
206.9218649999999968
21
-99.3505329999999987
0
LINE
8
BLACK
6
CONTINUOUS
10
206.9218649999999968
20
-99.3505329999999987
11
207.0494669999999928
21
-99.4781349999999946
0
LINE
8
BLACK
6
CONTINUOUS
10
207.0494669999999928
20
-99.4781349999999946
11
207.1555359999999837
21
-99.6241270000000014
0
LINE
8
BLACK
6
CONTINUOUS
10
207.1555359999999837
20
-99.6241270000000014
11
207.2374609999999961
21
-99.7849140000000006
0
LINE
8
BLACK
6
CONTINUOUS
10
207.2374609999999961
20
-99.7849140000000006
11
207.2932249999999783
21
-99.9565379999999948
0
LINE
8
BLACK
6
CONTINUOUS
10
207.2932249999999783
20
-99.9565379999999948
11
207.3214549999999861
21
-100.1347719999999981
0
LINE
8
BLACK
6
CONTINUOUS
10
207.3214549999999861
20
-100.1347719999999981
11
207.3214549999999861
21
-100.3152279999999905
0
LINE
8
BLACK
6
CONTINUOUS
10
207.3214549999999861
20
-100.3152279999999905
11
207.2932249999999783
21
-100.4934619999999938
0
LINE
8
BLACK
6
CONTINUOUS
10
207.2932249999999783
20
-100.4934619999999938
11
207.2374609999999961
21
-100.6650860000000023
0
LINE
8
BLACK
6
CONTINUOUS
10
207.2374609999999961
20
-100.6650860000000023
11
207.1555359999999837
21
-100.8258730000000014
0
LINE
8
BLACK
6
CONTINUOUS
10
207.1555359999999837
20
-100.8258730000000014
11
207.0494669999999928
21
-100.971864999999994
0
LINE
8
BLACK
6
CONTINUOUS
10
207.0494669999999928
20
-100.971864999999994
11
206.9218649999999968
21
-101.09946699999999
0
LINE
8
BLACK
6
CONTINUOUS
10
206.9218649999999968
20
-101.09946699999999
11
206.77587299999999
21
-101.2055359999999951
0
LINE
8
BLACK
6
CONTINUOUS
10
206.77587299999999
20
-101.2055359999999951
11
206.6150859999999909
21
-101.2874609999999933
0
LINE
8
BLACK
6
CONTINUOUS
10
206.6150859999999909
20
-101.2874609999999933
11
206.4434619999999825
21
-101.3432249999999897
0
LINE
8
BLACK
6
CONTINUOUS
10
206.4434619999999825
20
-101.3432249999999897
11
206.2652279999999791
21
-101.3714549999999974
0
LINE
8
BLACK
6
CONTINUOUS
10
206.2652279999999791
20
-101.3714549999999974
11
206.0847719999999867
21
-101.3714549999999974
0
LINE
8
BLACK
6
CONTINUOUS
10
206.0847719999999867
20
-101.3714549999999974
11
205.9065379999999834
21
-101.3432249999999897
0
LINE
8
BLACK
6
CONTINUOUS
10
205.9065379999999834
20
-101.3432249999999897
11
205.7349140000000034
21
-101.2874609999999933
0
LINE
8
BLACK
6
CONTINUOUS
10
205.7349140000000034
20
-101.2874609999999933
11
205.5741270000000043
21
-101.2055359999999951
0
LINE
8
BLACK
6
CONTINUOUS
10
205.5741270000000043
20
-101.2055359999999951
11
205.4281349999999975
21
-101.09946699999999
0
LINE
8
BLACK
6
CONTINUOUS
10
205.4281349999999975
20
-101.09946699999999
11
205.3005330000000015
21
-100.971864999999994
0
LINE
8
BLACK
6
CONTINUOUS
10
205.3005330000000015
20
-100.971864999999994
11
205.1944639999999822
21
-100.8258730000000014
0
LINE
8
BLACK
6
CONTINUOUS
10
205.1944639999999822
20
-100.8258730000000014
11
205.1125389999999982
21
-100.6650860000000023
0
LINE
8
BLACK
6
CONTINUOUS
10
205.1125389999999982
20
-100.6650860000000023
11
205.0567749999999876
21
-100.4934619999999938
0
LINE
8
BLACK
6
CONTINUOUS
10
205.0567749999999876
20
-100.4934619999999938
11
205.0285449999999798
21
-100.3152279999999905
0
LINE
8
BLACK
6
CONTINUOUS
10
205.0285449999999798
20
-100.3152279999999905
11
205.0285449999999798
21
-100.1347719999999981
0
LINE
8
BLACK
6
CONTINUOUS
10
205.0285449999999798
20
-100.1347719999999981
11
205.0306339999999921
21
-100.1215839999999986
0
LINE
8
BLACK
6
CONTINUOUS
10
205.0306339999999921
20
-100.1215839999999986
11
205.0567749999999876
21
-99.9565379999999948
0
LINE
8
BLACK
6
CONTINUOUS
10
205.0567749999999876
20
-99.9565379999999948
11
205.1125389999999982
21
-99.7849140000000006
0
LINE
8
BLACK
6
CONTINUOUS
10
205.1125389999999982
20
-99.7849140000000006
11
205.1944639999999822
21
-99.6241270000000014
0
LINE
8
BLACK
6
CONTINUOUS
10
205.1944639999999822
20
-99.6241270000000014
11
205.3005330000000015
21
-99.4781349999999946
0
LINE
8
BLACK
6
CONTINUOUS
10
205.3005330000000015
20
-99.4781349999999946
11
205.4281349999999975
21
-99.3505329999999987
0
LINE
8
BLACK
6
CONTINUOUS
10
205.4281349999999975
20
-99.3505329999999987
11
205.5741270000000043
21
-99.2444639999999936
0
LINE
8
BLACK
6
CONTINUOUS
10
205.5741270000000043
20
-99.2444639999999936
11
205.7349140000000034
21
-99.1625389999999953
0
LINE
8
BLACK
6
CONTINUOUS
10
205.7349140000000034
20
-99.1625389999999953
11
205.9065379999999834
21
-99.106774999999999
0
LINE
8
BLACK
6
CONTINUOUS
10
205.9065379999999834
20
-99.106774999999999
11
206.0847719999999867
21
-99.0785449999999912
0
LINE
8
BLACK
6
CONTINUOUS
10
206.0847719999999867
20
-99.0785449999999912
11
206.2652279999999791
21
-99.0785449999999912
0
LINE
8
BLACK
6
CONTINUOUS
10
206.2652279999999791
20
-99.0785449999999912
11
206.4434619999999825
21
-99.106774999999999
0
LINE
8
BLACK
6
CONTINUOUS
10
205.125
20
-100.32841599999999
11
205.1653499999999894
21
-100.5312739999999962
0
LINE
8
BLACK
6
CONTINUOUS
10
205.1653499999999894
20
-100.5312739999999962
11
205.2445019999999829
21
-100.7223619999999897
0
LINE
8
BLACK
6
CONTINUOUS
10
205.2445019999999829
20
-100.7223619999999897
11
205.3594109999999944
21
-100.8943359999999956
0
LINE
8
BLACK
6
CONTINUOUS
10
205.3594109999999944
20
-100.8943359999999956
11
205.5056639999999959
21
-101.0405889999999971
0
LINE
8
BLACK
6
CONTINUOUS
10
205.5056639999999959
20
-101.0405889999999971
11
205.6776380000000017
21
-101.1554979999999944
0
LINE
8
BLACK
6
CONTINUOUS
10
205.6776380000000017
20
-101.1554979999999944
11
205.868725999999981
21
-101.234650000000002
0
LINE
8
BLACK
6
CONTINUOUS
10
205.868725999999981
20
-101.234650000000002
11
206.0715840000000014
21
-101.2749999999999915
0
LINE
8
BLACK
6
CONTINUOUS
10
206.0715840000000014
20
-101.2749999999999915
11
206.2784159999999929
21
-101.2749999999999915
0
LINE
8
BLACK
6
CONTINUOUS
10
206.2784159999999929
20
-101.2749999999999915
11
206.4812739999999849
21
-101.234650000000002
0
LINE
8
BLACK
6
CONTINUOUS
10
206.4812739999999849
20
-101.234650000000002
11
206.6723619999999926
21
-101.1554979999999944
0
LINE
8
BLACK
6
CONTINUOUS
10
206.6723619999999926
20
-101.1554979999999944
11
206.8443359999999984
21
-101.0405889999999971
0
LINE
8
BLACK
6
CONTINUOUS
10
206.8443359999999984
20
-101.0405889999999971
11
206.9905889999999999
21
-100.8943359999999956
0
LINE
8
BLACK
6
CONTINUOUS
10
206.9905889999999999
20
-100.8943359999999956
11
207.105497999999983
21
-100.7223619999999897
0
LINE
8
BLACK
6
CONTINUOUS
10
207.105497999999983
20
-100.7223619999999897
11
207.1846499999999764
21
-100.5312739999999962
0
LINE
8
BLACK
6
CONTINUOUS
10
207.1846499999999764
20
-100.5312739999999962
11
207.2249999999999943
21
-100.32841599999999
0
LINE
8
BLACK
6
CONTINUOUS
10
207.2249999999999943
20
-100.32841599999999
11
207.2249999999999943
21
-100.1215839999999986
0
LINE
8
BLACK
6
CONTINUOUS
10
207.2249999999999943
20
-100.1215839999999986
11
207.1846499999999764
21
-99.9187259999999924
0
LINE
8
BLACK
6
CONTINUOUS
10
207.1846499999999764
20
-99.9187259999999924
11
207.105497999999983
21
-99.7276379999999989
0
LINE
8
BLACK
6
CONTINUOUS
10
207.105497999999983
20
-99.7276379999999989
11
206.9905889999999999
21
-99.5556639999999931
0
LINE
8
BLACK
6
CONTINUOUS
10
206.9905889999999999
20
-99.5556639999999931
11
206.8443359999999984
21
-99.4094109999999915
0
LINE
8
BLACK
6
CONTINUOUS
10
206.8443359999999984
20
-99.4094109999999915
11
206.6723619999999926
21
-99.2945019999999943
0
LINE
8
BLACK
6
CONTINUOUS
10
206.6723619999999926
20
-99.2945019999999943
11
206.4812739999999849
21
-99.2153500000000008
0
LINE
8
BLACK
6
CONTINUOUS
10
206.4812739999999849
20
-99.2153500000000008
11
206.2784159999999929
21
-99.1749999999999972
0
LINE
8
BLACK
6
CONTINUOUS
10
206.2784159999999929
20
-99.1749999999999972
11
206.0715840000000014
21
-99.1749999999999972
0
LINE
8
BLACK
6
CONTINUOUS
10
206.0715840000000014
20
-99.1749999999999972
11
205.868725999999981
21
-99.2153500000000008
0
LINE
8
BLACK
6
CONTINUOUS
10
205.868725999999981
20
-99.2153500000000008
11
205.6776380000000017
21
-99.2945019999999943
0
LINE
8
BLACK
6
CONTINUOUS
10
205.6776380000000017
20
-99.2945019999999943
11
205.5056639999999959
21
-99.4094109999999915
0
LINE
8
BLACK
6
CONTINUOUS
10
205.5056639999999959
20
-99.4094109999999915
11
205.3594109999999944
21
-99.5556639999999931
0
LINE
8
BLACK
6
CONTINUOUS
10
205.3594109999999944
20
-99.5556639999999931
11
205.2445019999999829
21
-99.7276379999999989
0
LINE
8
BLACK
6
CONTINUOUS
10
205.2445019999999829
20
-99.7276379999999989
11
205.1653499999999894
21
-99.9187259999999924
0
LINE
8
BLACK
6
CONTINUOUS
10
205.1653499999999894
20
-99.9187259999999924
11
205.125
21
-100.1215839999999986
0
LINE
8
BLACK
6
CONTINUOUS
10
205.125
20
-100.1215839999999986
11
205.125
21
-100.32841599999999
0
LINE
8
BLACK
6
CONTINUOUS
10
130.2934620000000052
20
-96.6567749999999961
11
130.4650859999999852
21
-96.7125389999999925
0
LINE
8
BLACK
6
CONTINUOUS
10
130.4650859999999852
20
-96.7125389999999925
11
130.6258729999999844
21
-96.7944639999999907
0
LINE
8
BLACK
6
CONTINUOUS
10
130.6258729999999844
20
-96.7944639999999907
11
130.7718649999999911
21
-96.9005329999999958
0
LINE
8
BLACK
6
CONTINUOUS
10
130.7718649999999911
20
-96.9005329999999958
11
130.8994669999999871
21
-97.0281349999999918
0
LINE
8
BLACK
6
CONTINUOUS
10
130.8994669999999871
20
-97.0281349999999918
11
131.0055360000000064
21
-97.1741269999999986
0
LINE
8
BLACK
6
CONTINUOUS
10
131.0055360000000064
20
-97.1741269999999986
11
131.0874609999999905
21
-97.3349139999999977
0
LINE
8
BLACK
6
CONTINUOUS
10
131.0874609999999905
20
-97.3349139999999977
11
131.143225000000001
21
-97.5065379999999919
0
LINE
8
BLACK
6
CONTINUOUS
10
131.143225000000001
20
-97.5065379999999919
11
131.1714549999999804
21
-97.6847719999999953
0
LINE
8
BLACK
6
CONTINUOUS
10
131.1714549999999804
20
-97.6847719999999953
11
131.1714549999999804
21
-97.8652280000000019
0
LINE
8
BLACK
6
CONTINUOUS
10
131.1714549999999804
20
-97.8652280000000019
11
131.143225000000001
21
-98.043461999999991
0
LINE
8
BLACK
6
CONTINUOUS
10
131.143225000000001
20
-98.043461999999991
11
131.0874609999999905
21
-98.2150859999999994
0
LINE
8
BLACK
6
CONTINUOUS
10
131.0874609999999905
20
-98.2150859999999994
11
131.0055360000000064
21
-98.3758729999999986
0
LINE
8
BLACK
6
CONTINUOUS
10
131.0055360000000064
20
-98.3758729999999986
11
130.8994669999999871
21
-98.5218649999999911
0
LINE
8
BLACK
6
CONTINUOUS
10
130.8994669999999871
20
-98.5218649999999911
11
130.7718649999999911
21
-98.6494670000000013
0
LINE
8
BLACK
6
CONTINUOUS
10
130.7718649999999911
20
-98.6494670000000013
11
130.6258729999999844
21
-98.7555359999999922
0
LINE
8
BLACK
6
CONTINUOUS
10
130.6258729999999844
20
-98.7555359999999922
11
130.4650859999999852
21
-98.8374609999999905
0
LINE
8
BLACK
6
CONTINUOUS
10
130.4650859999999852
20
-98.8374609999999905
11
130.2934620000000052
21
-98.893225000000001
0
LINE
8
BLACK
6
CONTINUOUS
10
130.2934620000000052
20
-98.893225000000001
11
130.1152280000000019
21
-98.9214549999999946
0
LINE
8
BLACK
6
CONTINUOUS
10
130.1152280000000019
20
-98.9214549999999946
11
129.9347719999999811
21
-98.9214549999999946
0
LINE
8
BLACK
6
CONTINUOUS
10
129.9347719999999811
20
-98.9214549999999946
11
129.7565380000000062
21
-98.893225000000001
0
LINE
8
BLACK
6
CONTINUOUS
10
129.7565380000000062
20
-98.893225000000001
11
129.5849139999999977
21
-98.8374609999999905
0
LINE
8
BLACK
6
CONTINUOUS
10
129.5849139999999977
20
-98.8374609999999905
11
129.4241269999999986
21
-98.7555359999999922
0
LINE
8
BLACK
6
CONTINUOUS
10
129.4241269999999986
20
-98.7555359999999922
11
129.2781349999999918
21
-98.6494670000000013
0
LINE
8
BLACK
6
CONTINUOUS
10
129.2781349999999918
20
-98.6494670000000013
11
129.1505329999999958
21
-98.5218649999999911
0
LINE
8
BLACK
6
CONTINUOUS
10
129.1505329999999958
20
-98.5218649999999911
11
129.0444640000000049
21
-98.3758729999999986
0
LINE
8
BLACK
6
CONTINUOUS
10
129.0444640000000049
20
-98.3758729999999986
11
128.9625389999999925
21
-98.2150859999999994
0
LINE
8
BLACK
6
CONTINUOUS
10
128.9625389999999925
20
-98.2150859999999994
11
128.9067749999999819
21
-98.043461999999991
0
LINE
8
BLACK
6
CONTINUOUS
10
128.9067749999999819
20
-98.043461999999991
11
128.8785450000000026
21
-97.8652280000000019
0
LINE
8
BLACK
6
CONTINUOUS
10
128.8785450000000026
20
-97.8652280000000019
11
128.8785450000000026
21
-97.6847719999999953
0
LINE
8
BLACK
6
CONTINUOUS
10
128.8785450000000026
20
-97.6847719999999953
11
128.8806339999999864
21
-97.6715839999999957
0
LINE
8
BLACK
6
CONTINUOUS
10
128.8806339999999864
20
-97.6715839999999957
11
128.9067749999999819
21
-97.5065379999999919
0
LINE
8
BLACK
6
CONTINUOUS
10
128.9067749999999819
20
-97.5065379999999919
11
128.9625389999999925
21
-97.3349139999999977
0
LINE
8
BLACK
6
CONTINUOUS
10
128.9625389999999925
20
-97.3349139999999977
11
129.0444640000000049
21
-97.1741269999999986
0
LINE
8
BLACK
6
CONTINUOUS
10
129.0444640000000049
20
-97.1741269999999986
11
129.1505329999999958
21
-97.0281349999999918
0
LINE
8
BLACK
6
CONTINUOUS
10
129.1505329999999958
20
-97.0281349999999918
11
129.2781349999999918
21
-96.9005329999999958
0
LINE
8
BLACK
6
CONTINUOUS
10
129.2781349999999918
20
-96.9005329999999958
11
129.4241269999999986
21
-96.7944639999999907
0
LINE
8
BLACK
6
CONTINUOUS
10
129.4241269999999986
20
-96.7944639999999907
11
129.5849139999999977
21
-96.7125389999999925
0
LINE
8
BLACK
6
CONTINUOUS
10
129.5849139999999977
20
-96.7125389999999925
11
129.7565380000000062
21
-96.6567749999999961
0
LINE
8
BLACK
6
CONTINUOUS
10
129.7565380000000062
20
-96.6567749999999961
11
129.9347719999999811
21
-96.6285450000000026
0
LINE
8
BLACK
6
CONTINUOUS
10
129.9347719999999811
20
-96.6285450000000026
11
130.1152280000000019
21
-96.6285450000000026
0
LINE
8
BLACK
6
CONTINUOUS
10
130.1152280000000019
20
-96.6285450000000026
11
130.2934620000000052
21
-96.6567749999999961
0
LINE
8
BLACK
6
CONTINUOUS
10
128.9749999999999943
20
-97.8784160000000014
11
129.0153499999999838
21
-98.0812739999999934
0
LINE
8
BLACK
6
CONTINUOUS
10
129.0153499999999838
20
-98.0812739999999934
11
129.0945020000000056
21
-98.2723620000000011
0
LINE
8
BLACK
6
CONTINUOUS
10
129.0945020000000056
20
-98.2723620000000011
11
129.2094109999999887
21
-98.4443359999999927
0
LINE
8
BLACK
6
CONTINUOUS
10
129.2094109999999887
20
-98.4443359999999927
11
129.3556639999999902
21
-98.5905889999999943
0
LINE
8
BLACK
6
CONTINUOUS
10
129.3556639999999902
20
-98.5905889999999943
11
129.5276379999999961
21
-98.7054979999999915
0
LINE
8
BLACK
6
CONTINUOUS
10
129.5276379999999961
20
-98.7054979999999915
11
129.7187260000000038
21
-98.7846499999999992
0
LINE
8
BLACK
6
CONTINUOUS
10
129.7187260000000038
20
-98.7846499999999992
11
129.9215839999999957
21
-98.8249999999999886
0
LINE
8
BLACK
6
CONTINUOUS
10
129.9215839999999957
20
-98.8249999999999886
11
130.1284159999999872
21
-98.8249999999999886
0
LINE
8
BLACK
6
CONTINUOUS
10
130.1284159999999872
20
-98.8249999999999886
11
130.3312740000000076
21
-98.7846499999999992
0
LINE
8
BLACK
6
CONTINUOUS
10
130.3312740000000076
20
-98.7846499999999992
11
130.5223619999999869
21
-98.7054979999999915
0
LINE
8
BLACK
6
CONTINUOUS
10
130.5223619999999869
20
-98.7054979999999915
11
130.6943359999999927
21
-98.5905889999999943
0
LINE
8
BLACK
6
CONTINUOUS
10
130.6943359999999927
20
-98.5905889999999943
11
130.8405889999999943
21
-98.4443359999999927
0
LINE
8
BLACK
6
CONTINUOUS
10
130.8405889999999943
20
-98.4443359999999927
11
130.9554980000000057
21
-98.2723620000000011
0
LINE
8
BLACK
6
CONTINUOUS
10
130.9554980000000057
20
-98.2723620000000011
11
131.0346499999999992
21
-98.0812739999999934
0
LINE
8
BLACK
6
CONTINUOUS
10
131.0346499999999992
20
-98.0812739999999934
11
131.0749999999999886
21
-97.8784160000000014
0
LINE
8
BLACK
6
CONTINUOUS
10
131.0749999999999886
20
-97.8784160000000014
11
131.0749999999999886
21
-97.6715839999999957
0
LINE
8
BLACK
6
CONTINUOUS
10
131.0749999999999886
20
-97.6715839999999957
11
131.0346499999999992
21
-97.4687259999999895
0
LINE
8
BLACK
6
CONTINUOUS
10
131.0346499999999992
20
-97.4687259999999895
11
130.9554980000000057
21
-97.2776379999999961
0
LINE
8
BLACK
6
CONTINUOUS
10
130.9554980000000057
20
-97.2776379999999961
11
130.8405889999999943
21
-97.1056639999999902
0
LINE
8
BLACK
6
CONTINUOUS
10
130.8405889999999943
20
-97.1056639999999902
11
130.6943359999999927
21
-96.9594109999999887
0
LINE
8
BLACK
6
CONTINUOUS
10
130.6943359999999927
20
-96.9594109999999887
11
130.5223619999999869
21
-96.8445019999999914
0
LINE
8
BLACK
6
CONTINUOUS
10
130.5223619999999869
20
-96.8445019999999914
11
130.3312740000000076
21
-96.765349999999998
0
LINE
8
BLACK
6
CONTINUOUS
10
130.3312740000000076
20
-96.765349999999998
11
130.1284159999999872
21
-96.7249999999999943
0
LINE
8
BLACK
6
CONTINUOUS
10
130.1284159999999872
20
-96.7249999999999943
11
129.9215839999999957
21
-96.7249999999999943
0
LINE
8
BLACK
6
CONTINUOUS
10
129.9215839999999957
20
-96.7249999999999943
11
129.7187260000000038
21
-96.765349999999998
0
LINE
8
BLACK
6
CONTINUOUS
10
129.7187260000000038
20
-96.765349999999998
11
129.5276379999999961
21
-96.8445019999999914
0
LINE
8
BLACK
6
CONTINUOUS
10
129.5276379999999961
20
-96.8445019999999914
11
129.3556639999999902
21
-96.9594109999999887
0
LINE
8
BLACK
6
CONTINUOUS
10
129.3556639999999902
20
-96.9594109999999887
11
129.2094109999999887
21
-97.1056639999999902
0
LINE
8
BLACK
6
CONTINUOUS
10
129.2094109999999887
20
-97.1056639999999902
11
129.0945020000000056
21
-97.2776379999999961
0
LINE
8
BLACK
6
CONTINUOUS
10
129.0945020000000056
20
-97.2776379999999961
11
129.0153499999999838
21
-97.4687259999999895
0
LINE
8
BLACK
6
CONTINUOUS
10
129.0153499999999838
20
-97.4687259999999895
11
128.9749999999999943
21
-97.6715839999999957
0
LINE
8
BLACK
6
CONTINUOUS
10
128.9749999999999943
20
-97.6715839999999957
11
128.9749999999999943
21
-97.8784160000000014
0
LINE
8
BLACK
6
CONTINUOUS
10
91.7860620000000011
20
-92.5817749999999933
11
91.9576859999999954
21
-92.6375389999999896
0
LINE
8
BLACK
6
CONTINUOUS
10
91.9576859999999954
20
-92.6375389999999896
11
92.1184729999999945
21
-92.7194640000000021
0
LINE
8
BLACK
6
CONTINUOUS
10
92.1184729999999945
20
-92.7194640000000021
11
92.2644650000000013
21
-92.825532999999993
0
LINE
8
BLACK
6
CONTINUOUS
10
92.2644650000000013
20
-92.825532999999993
11
92.3920669999999973
21
-92.953134999999989
0
LINE
8
BLACK
6
CONTINUOUS
10
92.3920669999999973
20
-92.953134999999989
11
92.4981360000000024
21
-93.0991269999999957
0
LINE
8
BLACK
6
CONTINUOUS
10
92.4981360000000024
20
-93.0991269999999957
11
92.5800610000000006
21
-93.2599139999999949
0
LINE
8
BLACK
6
CONTINUOUS
10
92.5800610000000006
20
-93.2599139999999949
11
92.635824999999997
21
-93.4315379999999891
0
LINE
8
BLACK
6
CONTINUOUS
10
92.635824999999997
20
-93.4315379999999891
11
92.6640549999999905
21
-93.6097719999999924
0
LINE
8
BLACK
6
CONTINUOUS
10
92.6640549999999905
20
-93.6097719999999924
11
92.6640549999999905
21
-93.790227999999999
0
LINE
8
BLACK
6
CONTINUOUS
10
92.6640549999999905
20
-93.790227999999999
11
92.635824999999997
21
-93.9684620000000024
0
LINE
8
BLACK
6
CONTINUOUS
10
92.635824999999997
20
-93.9684620000000024
11
92.5800610000000006
21
-94.1400859999999966
0
LINE
8
BLACK
6
CONTINUOUS
10
92.5800610000000006
20
-94.1400859999999966
11
92.4981360000000024
21
-94.3008729999999957
0
LINE
8
BLACK
6
CONTINUOUS
10
92.4981360000000024
20
-94.3008729999999957
11
92.3920669999999973
21
-94.4468650000000025
0
LINE
8
BLACK
6
CONTINUOUS
10
92.3920669999999973
20
-94.4468650000000025
11
92.2644650000000013
21
-94.5744669999999985
0
LINE
8
BLACK
6
CONTINUOUS
10
92.2644650000000013
20
-94.5744669999999985
11
92.1184729999999945
21
-94.6805359999999894
0
LINE
8
BLACK
6
CONTINUOUS
10
92.1184729999999945
20
-94.6805359999999894
11
91.9576859999999954
21
-94.7624610000000018
0
LINE
8
BLACK
6
CONTINUOUS
10
91.9576859999999954
20
-94.7624610000000018
11
91.7860620000000011
21
-94.8182249999999982
0
LINE
8
BLACK
6
CONTINUOUS
10
91.7860620000000011
20
-94.8182249999999982
11
91.6078279999999978
21
-94.8464549999999917
0
LINE
8
BLACK
6
CONTINUOUS
10
91.6078279999999978
20
-94.8464549999999917
11
91.4273719999999912
21
-94.8464549999999917
0
LINE
8
BLACK
6
CONTINUOUS
10
91.4273719999999912
20
-94.8464549999999917
11
91.2491380000000021
21
-94.8182249999999982
0
LINE
8
BLACK
6
CONTINUOUS
10
91.2491380000000021
20
-94.8182249999999982
11
91.0775139999999936
21
-94.7624610000000018
0
LINE
8
BLACK
6
CONTINUOUS
10
91.0775139999999936
20
-94.7624610000000018
11
90.9167269999999945
21
-94.6805359999999894
0
LINE
8
BLACK
6
CONTINUOUS
10
90.9167269999999945
20
-94.6805359999999894
11
90.7707350000000019
21
-94.5744669999999985
0
LINE
8
BLACK
6
CONTINUOUS
10
90.7707350000000019
20
-94.5744669999999985
11
90.6431329999999917
21
-94.4468650000000025
0
LINE
8
BLACK
6
CONTINUOUS
10
90.6431329999999917
20
-94.4468650000000025
11
90.5370640000000009
21
-94.3008729999999957
0
LINE
8
BLACK
6
CONTINUOUS
10
90.5370640000000009
20
-94.3008729999999957
11
90.4551390000000026
21
-94.1400859999999966
0
LINE
8
BLACK
6
CONTINUOUS
10
90.4551390000000026
20
-94.1400859999999966
11
90.399374999999992
21
-93.9684620000000024
0
LINE
8
BLACK
6
CONTINUOUS
10
90.399374999999992
20
-93.9684620000000024
11
90.3711449999999985
21
-93.790227999999999
0
LINE
8
BLACK
6
CONTINUOUS
10
90.3711449999999985
20
-93.790227999999999
11
90.3711449999999985
21
-93.6097719999999924
0
LINE
8
BLACK
6
CONTINUOUS
10
90.3711449999999985
20
-93.6097719999999924
11
90.3732339999999965
21
-93.5965839999999929
0
LINE
8
BLACK
6
CONTINUOUS
10
90.3732339999999965
20
-93.5965839999999929
11
90.399374999999992
21
-93.4315379999999891
0
LINE
8
BLACK
6
CONTINUOUS
10
90.399374999999992
20
-93.4315379999999891
11
90.4551390000000026
21
-93.2599139999999949
0
LINE
8
BLACK
6
CONTINUOUS
10
90.4551390000000026
20
-93.2599139999999949
11
90.5370640000000009
21
-93.0991269999999957
0
LINE
8
BLACK
6
CONTINUOUS
10
90.5370640000000009
20
-93.0991269999999957
11
90.6431329999999917
21
-92.953134999999989
0
LINE
8
BLACK
6
CONTINUOUS
10
90.6431329999999917
20
-92.953134999999989
11
90.7707350000000019
21
-92.825532999999993
0
LINE
8
BLACK
6
CONTINUOUS
10
90.7707350000000019
20
-92.825532999999993
11
90.9167269999999945
21
-92.7194640000000021
0
LINE
8
BLACK
6
CONTINUOUS
10
90.9167269999999945
20
-92.7194640000000021
11
91.0775139999999936
21
-92.6375389999999896
0
LINE
8
BLACK
6
CONTINUOUS
10
91.0775139999999936
20
-92.6375389999999896
11
91.2491380000000021
21
-92.5817749999999933
0
LINE
8
BLACK
6
CONTINUOUS
10
91.2491380000000021
20
-92.5817749999999933
11
91.4273719999999912
21
-92.5535449999999997
0
LINE
8
BLACK
6
CONTINUOUS
10
91.4273719999999912
20
-92.5535449999999997
11
91.6078279999999978
21
-92.5535449999999997
0
LINE
8
BLACK
6
CONTINUOUS
10
91.6078279999999978
20
-92.5535449999999997
11
91.7860620000000011
21
-92.5817749999999933
0
LINE
8
BLACK
6
CONTINUOUS
10
90.4675999999999902
20
-93.8034159999999986
11
90.5079499999999939
21
-94.0062739999999906
0
LINE
8
BLACK
6
CONTINUOUS
10
90.5079499999999939
20
-94.0062739999999906
11
90.5871020000000016
21
-94.1973619999999983
0
LINE
8
BLACK
6
CONTINUOUS
10
90.5871020000000016
20
-94.1973619999999983
11
90.7020109999999988
21
-94.3693359999999899
0
LINE
8
BLACK
6
CONTINUOUS
10
90.7020109999999988
20
-94.3693359999999899
11
90.8482640000000004
21
-94.5155889999999914
0
LINE
8
BLACK
6
CONTINUOUS
10
90.8482640000000004
20
-94.5155889999999914
11
91.020237999999992
21
-94.6304979999999887
0
LINE
8
BLACK
6
CONTINUOUS
10
91.020237999999992
20
-94.6304979999999887
11
91.2113259999999997
21
-94.7096499999999963
0
LINE
8
BLACK
6
CONTINUOUS
10
91.2113259999999997
20
-94.7096499999999963
11
91.4141839999999917
21
-94.75
0
LINE
8
BLACK
6
CONTINUOUS
10
91.4141839999999917
20
-94.75
11
91.6210159999999973
21
-94.75
0
LINE
8
BLACK
6
CONTINUOUS
10
91.6210159999999973
20
-94.75
11
91.8238739999999893
21
-94.7096499999999963
0
LINE
8
BLACK
6
CONTINUOUS
10
91.8238739999999893
20
-94.7096499999999963
11
92.014961999999997
21
-94.6304979999999887
0
LINE
8
BLACK
6
CONTINUOUS
10
92.014961999999997
20
-94.6304979999999887
11
92.1869360000000029
21
-94.5155889999999914
0
LINE
8
BLACK
6
CONTINUOUS
10
92.1869360000000029
20
-94.5155889999999914
11
92.3331889999999902
21
-94.3693359999999899
0
LINE
8
BLACK
6
CONTINUOUS
10
92.3331889999999902
20
-94.3693359999999899
11
92.4480980000000017
21
-94.1973619999999983
0
LINE
8
BLACK
6
CONTINUOUS
10
92.4480980000000017
20
-94.1973619999999983
11
92.5272499999999951
21
-94.0062739999999906
0
LINE
8
BLACK
6
CONTINUOUS
10
92.5272499999999951
20
-94.0062739999999906
11
92.5675999999999988
21
-93.8034159999999986
0
LINE
8
BLACK
6
CONTINUOUS
10
92.5675999999999988
20
-93.8034159999999986
11
92.5675999999999988
21
-93.5965839999999929
0
LINE
8
BLACK
6
CONTINUOUS
10
92.5675999999999988
20
-93.5965839999999929
11
92.5272499999999951
21
-93.3937260000000009
0
LINE
8
BLACK
6
CONTINUOUS
10
92.5272499999999951
20
-93.3937260000000009
11
92.4480980000000017
21
-93.2026379999999932
0
LINE
8
BLACK
6
CONTINUOUS
10
92.4480980000000017
20
-93.2026379999999932
11
92.3331889999999902
21
-93.0306640000000016
0
LINE
8
BLACK
6
CONTINUOUS
10
92.3331889999999902
20
-93.0306640000000016
11
92.1869360000000029
21
-92.8844110000000001
0
LINE
8
BLACK
6
CONTINUOUS
10
92.1869360000000029
20
-92.8844110000000001
11
92.014961999999997
21
-92.7695020000000028
0
LINE
8
BLACK
6
CONTINUOUS
10
92.014961999999997
20
-92.7695020000000028
11
91.8238739999999893
21
-92.6903499999999951
0
LINE
8
BLACK
6
CONTINUOUS
10
91.8238739999999893
20
-92.6903499999999951
11
91.6210159999999973
21
-92.6499999999999915
0
LINE
8
BLACK
6
CONTINUOUS
10
91.6210159999999973
20
-92.6499999999999915
11
91.4141839999999917
21
-92.6499999999999915
0
LINE
8
BLACK
6
CONTINUOUS
10
91.4141839999999917
20
-92.6499999999999915
11
91.2113259999999997
21
-92.6903499999999951
0
LINE
8
BLACK
6
CONTINUOUS
10
91.2113259999999997
20
-92.6903499999999951
11
91.020237999999992
21
-92.7695020000000028
0
LINE
8
BLACK
6
CONTINUOUS
10
91.020237999999992
20
-92.7695020000000028
11
90.8482640000000004
21
-92.8844110000000001
0
LINE
8
BLACK
6
CONTINUOUS
10
90.8482640000000004
20
-92.8844110000000001
11
90.7020109999999988
21
-93.0306640000000016
0
LINE
8
BLACK
6
CONTINUOUS
10
90.7020109999999988
20
-93.0306640000000016
11
90.5871020000000016
21
-93.2026379999999932
0
LINE
8
BLACK
6
CONTINUOUS
10
90.5871020000000016
20
-93.2026379999999932
11
90.5079499999999939
21
-93.3937260000000009
0
LINE
8
BLACK
6
CONTINUOUS
10
90.5079499999999939
20
-93.3937260000000009
11
90.4675999999999902
21
-93.5965839999999929
0
LINE
8
BLACK
6
CONTINUOUS
10
90.4675999999999902
20
-93.5965839999999929
11
90.4675999999999902
21
-93.8034159999999986
0
LINE
8
BLACK
6
CONTINUOUS
10
107.2860620000000011
20
-92.5817749999999933
11
107.4576859999999954
21
-92.6375389999999896
0
LINE
8
BLACK
6
CONTINUOUS
10
107.4576859999999954
20
-92.6375389999999896
11
107.6184729999999945
21
-92.7194640000000021
0
LINE
8
BLACK
6
CONTINUOUS
10
107.6184729999999945
20
-92.7194640000000021
11
107.7644650000000013
21
-92.825532999999993
0
LINE
8
BLACK
6
CONTINUOUS
10
107.7644650000000013
20
-92.825532999999993
11
107.8920669999999973
21
-92.953134999999989
0
LINE
8
BLACK
6
CONTINUOUS
10
107.8920669999999973
20
-92.953134999999989
11
107.9981359999999881
21
-93.0991269999999957
0
LINE
8
BLACK
6
CONTINUOUS
10
107.9981359999999881
20
-93.0991269999999957
11
108.0800610000000006
21
-93.2599139999999949
0
LINE
8
BLACK
6
CONTINUOUS
10
108.0800610000000006
20
-93.2599139999999949
11
108.135824999999997
21
-93.4315379999999891
0
LINE
8
BLACK
6
CONTINUOUS
10
108.135824999999997
20
-93.4315379999999891
11
108.1640549999999905
21
-93.6097719999999924
0
LINE
8
BLACK
6
CONTINUOUS
10
108.1640549999999905
20
-93.6097719999999924
11
108.1640549999999905
21
-93.790227999999999
0
LINE
8
BLACK
6
CONTINUOUS
10
108.1640549999999905
20
-93.790227999999999
11
108.135824999999997
21
-93.9684620000000024
0
LINE
8
BLACK
6
CONTINUOUS
10
108.135824999999997
20
-93.9684620000000024
11
108.0800610000000006
21
-94.1400859999999966
0
LINE
8
BLACK
6
CONTINUOUS
10
108.0800610000000006
20
-94.1400859999999966
11
107.9981359999999881
21
-94.3008729999999957
0
LINE
8
BLACK
6
CONTINUOUS
10
107.9981359999999881
20
-94.3008729999999957
11
107.8920669999999973
21
-94.4468650000000025
0
LINE
8
BLACK
6
CONTINUOUS
10
107.8920669999999973
20
-94.4468650000000025
11
107.7644650000000013
21
-94.5744669999999985
0
LINE
8
BLACK
6
CONTINUOUS
10
107.7644650000000013
20
-94.5744669999999985
11
107.6184729999999945
21
-94.6805359999999894
0
LINE
8
BLACK
6
CONTINUOUS
10
107.6184729999999945
20
-94.6805359999999894
11
107.4576859999999954
21
-94.7624610000000018
0
LINE
8
BLACK
6
CONTINUOUS
10
107.4576859999999954
20
-94.7624610000000018
11
107.2860620000000011
21
-94.8182249999999982
0
LINE
8
BLACK
6
CONTINUOUS
10
107.2860620000000011
20
-94.8182249999999982
11
107.1078279999999978
21
-94.8464549999999917
0
LINE
8
BLACK
6
CONTINUOUS
10
107.1078279999999978
20
-94.8464549999999917
11
106.9273719999999912
21
-94.8464549999999917
0
LINE
8
BLACK
6
CONTINUOUS
10
106.9273719999999912
20
-94.8464549999999917
11
106.7491380000000021
21
-94.8182249999999982
0
LINE
8
BLACK
6
CONTINUOUS
10
106.7491380000000021
20
-94.8182249999999982
11
106.5775139999999936
21
-94.7624610000000018
0
LINE
8
BLACK
6
CONTINUOUS
10
106.5775139999999936
20
-94.7624610000000018
11
106.4167269999999945
21
-94.6805359999999894
0
LINE
8
BLACK
6
CONTINUOUS
10
106.4167269999999945
20
-94.6805359999999894
11
106.2707350000000019
21
-94.5744669999999985
0
LINE
8
BLACK
6
CONTINUOUS
10
106.2707350000000019
20
-94.5744669999999985
11
106.1431329999999917
21
-94.4468650000000025
0
LINE
8
BLACK
6
CONTINUOUS
10
106.1431329999999917
20
-94.4468650000000025
11
106.0370640000000009
21
-94.3008729999999957
0
LINE
8
BLACK
6
CONTINUOUS
10
106.0370640000000009
20
-94.3008729999999957
11
105.9551389999999884
21
-94.1400859999999966
0
LINE
8
BLACK
6
CONTINUOUS
10
105.9551389999999884
20
-94.1400859999999966
11
105.899374999999992
21
-93.9684620000000024
0
LINE
8
BLACK
6
CONTINUOUS
10
105.899374999999992
20
-93.9684620000000024
11
105.8711449999999985
21
-93.790227999999999
0
LINE
8
BLACK
6
CONTINUOUS
10
105.8711449999999985
20
-93.790227999999999
11
105.8711449999999985
21
-93.6097719999999924
0
LINE
8
BLACK
6
CONTINUOUS
10
105.8711449999999985
20
-93.6097719999999924
11
105.8732339999999965
21
-93.5965839999999929
0
LINE
8
BLACK
6
CONTINUOUS
10
105.8732339999999965
20
-93.5965839999999929
11
105.899374999999992
21
-93.4315379999999891
0
LINE
8
BLACK
6
CONTINUOUS
10
105.899374999999992
20
-93.4315379999999891
11
105.9551389999999884
21
-93.2599139999999949
0
LINE
8
BLACK
6
CONTINUOUS
10
105.9551389999999884
20
-93.2599139999999949
11
106.0370640000000009
21
-93.0991269999999957
0
LINE
8
BLACK
6
CONTINUOUS
10
106.0370640000000009
20
-93.0991269999999957
11
106.1431329999999917
21
-92.953134999999989
0
LINE
8
BLACK
6
CONTINUOUS
10
106.1431329999999917
20
-92.953134999999989
11
106.2707350000000019
21
-92.825532999999993
0
LINE
8
BLACK
6
CONTINUOUS
10
106.2707350000000019
20
-92.825532999999993
11
106.4167269999999945
21
-92.7194640000000021
0
LINE
8
BLACK
6
CONTINUOUS
10
106.4167269999999945
20
-92.7194640000000021
11
106.5775139999999936
21
-92.6375389999999896
0
LINE
8
BLACK
6
CONTINUOUS
10
106.5775139999999936
20
-92.6375389999999896
11
106.7491380000000021
21
-92.5817749999999933
0
LINE
8
BLACK
6
CONTINUOUS
10
106.7491380000000021
20
-92.5817749999999933
11
106.9273719999999912
21
-92.5535449999999997
0
LINE
8
BLACK
6
CONTINUOUS
10
106.9273719999999912
20
-92.5535449999999997
11
107.1078279999999978
21
-92.5535449999999997
0
LINE
8
BLACK
6
CONTINUOUS
10
107.1078279999999978
20
-92.5535449999999997
11
107.2860620000000011
21
-92.5817749999999933
0
LINE
8
BLACK
6
CONTINUOUS
10
105.9675999999999902
20
-93.8034159999999986
11
106.0079499999999939
21
-94.0062739999999906
0
LINE
8
BLACK
6
CONTINUOUS
10
106.0079499999999939
20
-94.0062739999999906
11
106.0871020000000016
21
-94.1973619999999983
0
LINE
8
BLACK
6
CONTINUOUS
10
106.0871020000000016
20
-94.1973619999999983
11
106.2020109999999988
21
-94.3693359999999899
0
LINE
8
BLACK
6
CONTINUOUS
10
106.2020109999999988
20
-94.3693359999999899
11
106.3482640000000004
21
-94.5155889999999914
0
LINE
8
BLACK
6
CONTINUOUS
10
106.3482640000000004
20
-94.5155889999999914
11
106.520237999999992
21
-94.6304979999999887
0
LINE
8
BLACK
6
CONTINUOUS
10
106.520237999999992
20
-94.6304979999999887
11
106.7113259999999997
21
-94.7096499999999963
0
LINE
8
BLACK
6
CONTINUOUS
10
106.7113259999999997
20
-94.7096499999999963
11
106.9141839999999917
21
-94.75
0
LINE
8
BLACK
6
CONTINUOUS
10
106.9141839999999917
20
-94.75
11
107.1210159999999973
21
-94.75
0
LINE
8
BLACK
6
CONTINUOUS
10
107.1210159999999973
20
-94.75
11
107.3238739999999893
21
-94.7096499999999963
0
LINE
8
BLACK
6
CONTINUOUS
10
107.3238739999999893
20
-94.7096499999999963
11
107.514961999999997
21
-94.6304979999999887
0
LINE
8
BLACK
6
CONTINUOUS
10
107.514961999999997
20
-94.6304979999999887
11
107.6869359999999887
21
-94.5155889999999914
0
LINE
8
BLACK
6
CONTINUOUS
10
107.6869359999999887
20
-94.5155889999999914
11
107.8331889999999902
21
-94.3693359999999899
0
LINE
8
BLACK
6
CONTINUOUS
10
107.8331889999999902
20
-94.3693359999999899
11
107.9480980000000017
21
-94.1973619999999983
0
LINE
8
BLACK
6
CONTINUOUS
10
107.9480980000000017
20
-94.1973619999999983
11
108.0272499999999951
21
-94.0062739999999906
0
LINE
8
BLACK
6
CONTINUOUS
10
108.0272499999999951
20
-94.0062739999999906
11
108.0675999999999988
21
-93.8034159999999986
0
LINE
8
BLACK
6
CONTINUOUS
10
108.0675999999999988
20
-93.8034159999999986
11
108.0675999999999988
21
-93.5965839999999929
0
LINE
8
BLACK
6
CONTINUOUS
10
108.0675999999999988
20
-93.5965839999999929
11
108.0272499999999951
21
-93.3937260000000009
0
LINE
8
BLACK
6
CONTINUOUS
10
108.0272499999999951
20
-93.3937260000000009
11
107.9480980000000017
21
-93.2026379999999932
0
LINE
8
BLACK
6
CONTINUOUS
10
107.9480980000000017
20
-93.2026379999999932
11
107.8331889999999902
21
-93.0306640000000016
0
LINE
8
BLACK
6
CONTINUOUS
10
107.8331889999999902
20
-93.0306640000000016
11
107.6869359999999887
21
-92.8844110000000001
0
LINE
8
BLACK
6
CONTINUOUS
10
107.6869359999999887
20
-92.8844110000000001
11
107.514961999999997
21
-92.7695020000000028
0
LINE
8
BLACK
6
CONTINUOUS
10
107.514961999999997
20
-92.7695020000000028
11
107.3238739999999893
21
-92.6903499999999951
0
LINE
8
BLACK
6
CONTINUOUS
10
107.3238739999999893
20
-92.6903499999999951
11
107.1210159999999973
21
-92.6499999999999915
0
LINE
8
BLACK
6
CONTINUOUS
10
107.1210159999999973
20
-92.6499999999999915
11
106.9141839999999917
21
-92.6499999999999915
0
LINE
8
BLACK
6
CONTINUOUS
10
106.9141839999999917
20
-92.6499999999999915
11
106.7113259999999997
21
-92.6903499999999951
0
LINE
8
BLACK
6
CONTINUOUS
10
106.7113259999999997
20
-92.6903499999999951
11
106.520237999999992
21
-92.7695020000000028
0
LINE
8
BLACK
6
CONTINUOUS
10
106.520237999999992
20
-92.7695020000000028
11
106.3482640000000004
21
-92.8844110000000001
0
LINE
8
BLACK
6
CONTINUOUS
10
106.3482640000000004
20
-92.8844110000000001
11
106.2020109999999988
21
-93.0306640000000016
0
LINE
8
BLACK
6
CONTINUOUS
10
106.2020109999999988
20
-93.0306640000000016
11
106.0871020000000016
21
-93.2026379999999932
0
LINE
8
BLACK
6
CONTINUOUS
10
106.0871020000000016
20
-93.2026379999999932
11
106.0079499999999939
21
-93.3937260000000009
0
LINE
8
BLACK
6
CONTINUOUS
10
106.0079499999999939
20
-93.3937260000000009
11
105.9675999999999902
21
-93.5965839999999929
0
LINE
8
BLACK
6
CONTINUOUS
10
105.9675999999999902
20
-93.5965839999999929
11
105.9675999999999902
21
-93.8034159999999986
0
LINE
8
BLACK
6
CONTINUOUS
10
206.4934619999999938
20
-60.856774999999999
11
206.6650860000000023
21
-60.9125389999999953
0
LINE
8
BLACK
6
CONTINUOUS
10
206.6650860000000023
20
-60.9125389999999953
11
206.8258730000000014
21
-60.9944640000000007
0
LINE
8
BLACK
6
CONTINUOUS
10
206.8258730000000014
20
-60.9944640000000007
11
206.9718649999999798
21
-61.1005329999999987
0
LINE
8
BLACK
6
CONTINUOUS
10
206.9718649999999798
20
-61.1005329999999987
11
207.0994670000000042
21
-61.2281349999999946
0
LINE
8
BLACK
6
CONTINUOUS
10
207.0994670000000042
20
-61.2281349999999946
11
207.2055359999999951
21
-61.3741269999999943
0
LINE
8
BLACK
6
CONTINUOUS
10
207.2055359999999951
20
-61.3741269999999943
11
207.2874609999999791
21
-61.5349140000000006
0
LINE
8
BLACK
6
CONTINUOUS
10
207.2874609999999791
20
-61.5349140000000006
11
207.3432249999999897
21
-61.7065379999999948
0
LINE
8
BLACK
6
CONTINUOUS
10
207.3432249999999897
20
-61.7065379999999948
11
207.3714549999999974
21
-61.8847719999999981
0
LINE
8
BLACK
6
CONTINUOUS
10
207.3714549999999974
20
-61.8847719999999981
11
207.3714549999999974
21
-62.0652279999999976
0
LINE
8
BLACK
6
CONTINUOUS
10
207.3714549999999974
20
-62.0652279999999976
11
207.3432249999999897
21
-62.2434619999999938
0
LINE
8
BLACK
6
CONTINUOUS
10
207.3432249999999897
20
-62.2434619999999938
11
207.2874609999999791
21
-62.4150859999999952
0
LINE
8
BLACK
6
CONTINUOUS
10
207.2874609999999791
20
-62.4150859999999952
11
207.2055359999999951
21
-62.5758729999999943
0
LINE
8
BLACK
6
CONTINUOUS
10
207.2055359999999951
20
-62.5758729999999943
11
207.0994670000000042
21
-62.721864999999994
0
LINE
8
BLACK
6
CONTINUOUS
10
207.0994670000000042
20
-62.721864999999994
11
206.9718649999999798
21
-62.8494669999999971
0
LINE
8
BLACK
6
CONTINUOUS
10
206.9718649999999798
20
-62.8494669999999971
11
206.8258730000000014
21
-62.9555359999999951
0
LINE
8
BLACK
6
CONTINUOUS
10
206.8258730000000014
20
-62.9555359999999951
11
206.6650860000000023
21
-63.0374610000000004
0
LINE
8
BLACK
6
CONTINUOUS
10
206.6650860000000023
20
-63.0374610000000004
11
206.4934619999999938
21
-63.0932249999999968
0
LINE
8
BLACK
6
CONTINUOUS
10
206.4934619999999938
20
-63.0932249999999968
11
206.3152279999999905
21
-63.1214549999999974
0
LINE
8
BLACK
6
CONTINUOUS
10
206.3152279999999905
20
-63.1214549999999974
11
206.1347719999999981
21
-63.1214549999999974
0
LINE
8
BLACK
6
CONTINUOUS
10
206.1347719999999981
20
-63.1214549999999974
11
205.9565379999999948
21
-63.0932249999999968
0
LINE
8
BLACK
6
CONTINUOUS
10
205.9565379999999948
20
-63.0932249999999968
11
205.7849139999999863
21
-63.0374610000000004
0
LINE
8
BLACK
6
CONTINUOUS
10
205.7849139999999863
20
-63.0374610000000004
11
205.6241269999999872
21
-62.9555359999999951
0
LINE
8
BLACK
6
CONTINUOUS
10
205.6241269999999872
20
-62.9555359999999951
11
205.4781349999999804
21
-62.8494669999999971
0
LINE
8
BLACK
6
CONTINUOUS
10
205.4781349999999804
20
-62.8494669999999971
11
205.3505329999999844
21
-62.721864999999994
0
LINE
8
BLACK
6
CONTINUOUS
10
205.3505329999999844
20
-62.721864999999994
11
205.2444639999999936
21
-62.5758729999999943
0
LINE
8
BLACK
6
CONTINUOUS
10
205.2444639999999936
20
-62.5758729999999943
11
205.1625389999999811
21
-62.4150859999999952
0
LINE
8
BLACK
6
CONTINUOUS
10
205.1625389999999811
20
-62.4150859999999952
11
205.106774999999999
21
-62.2434619999999938
0
LINE
8
BLACK
6
CONTINUOUS
10
205.106774999999999
20
-62.2434619999999938
11
205.0785449999999912
21
-62.0652279999999976
0
LINE
8
BLACK
6
CONTINUOUS
10
205.0785449999999912
20
-62.0652279999999976
11
205.0785449999999912
21
-61.8847719999999981
0
LINE
8
BLACK
6
CONTINUOUS
10
205.0785449999999912
20
-61.8847719999999981
11
205.0806340000000034
21
-61.8715839999999986
0
LINE
8
BLACK
6
CONTINUOUS
10
205.0806340000000034
20
-61.8715839999999986
11
205.106774999999999
21
-61.7065379999999948
0
LINE
8
BLACK
6
CONTINUOUS
10
205.106774999999999
20
-61.7065379999999948
11
205.1625389999999811
21
-61.5349140000000006
0
LINE
8
BLACK
6
CONTINUOUS
10
205.1625389999999811
20
-61.5349140000000006
11
205.2444639999999936
21
-61.3741269999999943
0
LINE
8
BLACK
6
CONTINUOUS
10
205.2444639999999936
20
-61.3741269999999943
11
205.3505329999999844
21
-61.2281349999999946
0
LINE
8
BLACK
6
CONTINUOUS
10
205.3505329999999844
20
-61.2281349999999946
11
205.4781349999999804
21
-61.1005329999999987
0
LINE
8
BLACK
6
CONTINUOUS
10
205.4781349999999804
20
-61.1005329999999987
11
205.6241269999999872
21
-60.9944640000000007
0
LINE
8
BLACK
6
CONTINUOUS
10
205.6241269999999872
20
-60.9944640000000007
11
205.7849139999999863
21
-60.9125389999999953
0
LINE
8
BLACK
6
CONTINUOUS
10
205.7849139999999863
20
-60.9125389999999953
11
205.9565379999999948
21
-60.856774999999999
0
LINE
8
BLACK
6
CONTINUOUS
10
205.9565379999999948
20
-60.856774999999999
11
206.1347719999999981
21
-60.8285449999999983
0
LINE
8
BLACK
6
CONTINUOUS
10
206.1347719999999981
20
-60.8285449999999983
11
206.3152279999999905
21
-60.8285449999999983
0
LINE
8
BLACK
6
CONTINUOUS
10
206.3152279999999905
20
-60.8285449999999983
11
206.4934619999999938
21
-60.856774999999999
0
LINE
8
BLACK
6
CONTINUOUS
10
205.1749999999999829
20
-62.0784159999999972
11
205.2153500000000008
21
-62.2812739999999962
0
LINE
8
BLACK
6
CONTINUOUS
10
205.2153500000000008
20
-62.2812739999999962
11
205.2945019999999943
21
-62.4723619999999968
0
LINE
8
BLACK
6
CONTINUOUS
10
205.2945019999999943
20
-62.4723619999999968
11
205.4094109999999773
21
-62.6443359999999956
0
LINE
8
BLACK
6
CONTINUOUS
10
205.4094109999999773
20
-62.6443359999999956
11
205.5556639999999788
21
-62.7905889999999971
0
LINE
8
BLACK
6
CONTINUOUS
10
205.5556639999999788
20
-62.7905889999999971
11
205.7276379999999847
21
-62.9054979999999944
0
LINE
8
BLACK
6
CONTINUOUS
10
205.7276379999999847
20
-62.9054979999999944
11
205.9187259999999924
21
-62.9846499999999949
0
LINE
8
BLACK
6
CONTINUOUS
10
205.9187259999999924
20
-62.9846499999999949
11
206.1215839999999844
21
-63.0249999999999986
0
LINE
8
BLACK
6
CONTINUOUS
10
206.1215839999999844
20
-63.0249999999999986
11
206.3284160000000043
21
-63.0249999999999986
0
LINE
8
BLACK
6
CONTINUOUS
10
206.3284160000000043
20
-63.0249999999999986
11
206.5312739999999962
21
-62.9846499999999949
0
LINE
8
BLACK
6
CONTINUOUS
10
206.5312739999999962
20
-62.9846499999999949
11
206.7223620000000039
21
-62.9054979999999944
0
LINE
8
BLACK
6
CONTINUOUS
10
206.7223620000000039
20
-62.9054979999999944
11
206.8943359999999814
21
-62.7905889999999971
0
LINE
8
BLACK
6
CONTINUOUS
10
206.8943359999999814
20
-62.7905889999999971
11
207.0405889999999829
21
-62.6443359999999956
0
LINE
8
BLACK
6
CONTINUOUS
10
207.0405889999999829
20
-62.6443359999999956
11
207.1554979999999944
21
-62.4723619999999968
0
LINE
8
BLACK
6
CONTINUOUS
10
207.1554979999999944
20
-62.4723619999999968
11
207.2346499999999878
21
-62.2812739999999962
0
LINE
8
BLACK
6
CONTINUOUS
10
207.2346499999999878
20
-62.2812739999999962
11
207.2749999999999773
21
-62.0784159999999972
0
LINE
8
BLACK
6
CONTINUOUS
10
207.2749999999999773
20
-62.0784159999999972
11
207.2749999999999773
21
-61.8715839999999986
0
LINE
8
BLACK
6
CONTINUOUS
10
207.2749999999999773
20
-61.8715839999999986
11
207.2346499999999878
21
-61.6687259999999995
0
LINE
8
BLACK
6
CONTINUOUS
10
207.2346499999999878
20
-61.6687259999999995
11
207.1554979999999944
21
-61.4776379999999989
0
LINE
8
BLACK
6
CONTINUOUS
10
207.1554979999999944
20
-61.4776379999999989
11
207.0405889999999829
21
-61.3056640000000002
0
LINE
8
BLACK
6
CONTINUOUS
10
207.0405889999999829
20
-61.3056640000000002
11
206.8943359999999814
21
-61.1594109999999986
0
LINE
8
BLACK
6
CONTINUOUS
10
206.8943359999999814
20
-61.1594109999999986
11
206.7223620000000039
21
-61.0445019999999943
0
LINE
8
BLACK
6
CONTINUOUS
10
206.7223620000000039
20
-61.0445019999999943
11
206.5312739999999962
21
-60.9653499999999937
0
LINE
8
BLACK
6
CONTINUOUS
10
206.5312739999999962
20
-60.9653499999999937
11
206.3284160000000043
21
-60.9249999999999972
0
LINE
8
BLACK
6
CONTINUOUS
10
206.3284160000000043
20
-60.9249999999999972
11
206.1215839999999844
21
-60.9249999999999972
0
LINE
8
BLACK
6
CONTINUOUS
10
206.1215839999999844
20
-60.9249999999999972
11
205.9187259999999924
21
-60.9653499999999937
0
LINE
8
BLACK
6
CONTINUOUS
10
205.9187259999999924
20
-60.9653499999999937
11
205.7276379999999847
21
-61.0445019999999943
0
LINE
8
BLACK
6
CONTINUOUS
10
205.7276379999999847
20
-61.0445019999999943
11
205.5556639999999788
21
-61.1594109999999986
0
LINE
8
BLACK
6
CONTINUOUS
10
205.5556639999999788
20
-61.1594109999999986
11
205.4094109999999773
21
-61.3056640000000002
0
LINE
8
BLACK
6
CONTINUOUS
10
205.4094109999999773
20
-61.3056640000000002
11
205.2945019999999943
21
-61.4776379999999989
0
LINE
8
BLACK
6
CONTINUOUS
10
205.2945019999999943
20
-61.4776379999999989
11
205.2153500000000008
21
-61.6687259999999995
0
LINE
8
BLACK
6
CONTINUOUS
10
205.2153500000000008
20
-61.6687259999999995
11
205.1749999999999829
21
-61.8715839999999986
0
LINE
8
BLACK
6
CONTINUOUS
10
205.1749999999999829
20
-61.8715839999999986
11
205.1749999999999829
21
-62.0784159999999972
0
LINE
8
BLACK
6
CONTINUOUS
10
130.2434619999999938
20
-56.1567749999999961
11
130.4150860000000023
21
-56.2125389999999996
0
LINE
8
BLACK
6
CONTINUOUS
10
130.4150860000000023
20
-56.2125389999999996
11
130.5758730000000014
21
-56.2944639999999978
0
LINE
8
BLACK
6
CONTINUOUS
10
130.5758730000000014
20
-56.2944639999999978
11
130.7218650000000082
21
-56.4005329999999958
0
LINE
8
BLACK
6
CONTINUOUS
10
130.7218650000000082
20
-56.4005329999999958
11
130.8494670000000042
21
-56.5281349999999989
0
LINE
8
BLACK
6
CONTINUOUS
10
130.8494670000000042
20
-56.5281349999999989
11
130.9555359999999951
21
-56.6741269999999986
0
LINE
8
BLACK
6
CONTINUOUS
10
130.9555359999999951
20
-56.6741269999999986
11
131.0374610000000075
21
-56.8349139999999977
0
LINE
8
BLACK
6
CONTINUOUS
10
131.0374610000000075
20
-56.8349139999999977
11
131.0932249999999897
21
-57.006537999999999
0
LINE
8
BLACK
6
CONTINUOUS
10
131.0932249999999897
20
-57.006537999999999
11
131.1214549999999974
21
-57.1847719999999953
0
LINE
8
BLACK
6
CONTINUOUS
10
131.1214549999999974
20
-57.1847719999999953
11
131.1214549999999974
21
-57.3652279999999948
0
LINE
8
BLACK
6
CONTINUOUS
10
131.1214549999999974
20
-57.3652279999999948
11
131.0932249999999897
21
-57.5434619999999981
0
LINE
8
BLACK
6
CONTINUOUS
10
131.0932249999999897
20
-57.5434619999999981
11
131.0374610000000075
21
-57.7150859999999994
0
LINE
8
BLACK
6
CONTINUOUS
10
131.0374610000000075
20
-57.7150859999999994
11
130.9555359999999951
21
-57.8758729999999986
0
LINE
8
BLACK
6
CONTINUOUS
10
130.9555359999999951
20
-57.8758729999999986
11
130.8494670000000042
21
-58.0218649999999982
0
LINE
8
BLACK
6
CONTINUOUS
10
130.8494670000000042
20
-58.0218649999999982
11
130.7218650000000082
21
-58.1494669999999942
0
LINE
8
BLACK
6
CONTINUOUS
10
130.7218650000000082
20
-58.1494669999999942
11
130.5758730000000014
21
-58.2555359999999993
0
LINE
8
BLACK
6
CONTINUOUS
10
130.5758730000000014
20
-58.2555359999999993
11
130.4150860000000023
21
-58.3374609999999976
0
LINE
8
BLACK
6
CONTINUOUS
10
130.4150860000000023
20
-58.3374609999999976
11
130.2434619999999938
21
-58.3932249999999939
0
LINE
8
BLACK
6
CONTINUOUS
10
130.2434619999999938
20
-58.3932249999999939
11
130.0652279999999905
21
-58.4214549999999946
0
LINE
8
BLACK
6
CONTINUOUS
10
130.0652279999999905
20
-58.4214549999999946
11
129.8847719999999981
21
-58.4214549999999946
0
LINE
8
BLACK
6
CONTINUOUS
10
129.8847719999999981
20
-58.4214549999999946
11
129.7065379999999948
21
-58.3932249999999939
0
LINE
8
BLACK
6
CONTINUOUS
10
129.7065379999999948
20
-58.3932249999999939
11
129.5349139999999863
21
-58.3374609999999976
0
LINE
8
BLACK
6
CONTINUOUS
10
129.5349139999999863
20
-58.3374609999999976
11
129.3741269999999872
21
-58.2555359999999993
0
LINE
8
BLACK
6
CONTINUOUS
10
129.3741269999999872
20
-58.2555359999999993
11
129.2281349999999804
21
-58.1494669999999942
0
LINE
8
BLACK
6
CONTINUOUS
10
129.2281349999999804
20
-58.1494669999999942
11
129.1005329999999844
21
-58.0218649999999982
0
LINE
8
BLACK
6
CONTINUOUS
10
129.1005329999999844
20
-58.0218649999999982
11
128.9944639999999936
21
-57.8758729999999986
0
LINE
8
BLACK
6
CONTINUOUS
10
128.9944639999999936
20
-57.8758729999999986
11
128.9125389999999811
21
-57.7150859999999994
0
LINE
8
BLACK
6
CONTINUOUS
10
128.9125389999999811
20
-57.7150859999999994
11
128.856774999999999
21
-57.5434619999999981
0
LINE
8
BLACK
6
CONTINUOUS
10
128.856774999999999
20
-57.5434619999999981
11
128.8285449999999912
21
-57.3652279999999948
0
LINE
8
BLACK
6
CONTINUOUS
10
128.8285449999999912
20
-57.3652279999999948
11
128.8285449999999912
21
-57.1847719999999953
0
LINE
8
BLACK
6
CONTINUOUS
10
128.8285449999999912
20
-57.1847719999999953
11
128.8306340000000034
21
-57.1715839999999957
0
LINE
8
BLACK
6
CONTINUOUS
10
128.8306340000000034
20
-57.1715839999999957
11
128.856774999999999
21
-57.006537999999999
0
LINE
8
BLACK
6
CONTINUOUS
10
128.856774999999999
20
-57.006537999999999
11
128.9125389999999811
21
-56.8349139999999977
0
LINE
8
BLACK
6
CONTINUOUS
10
128.9125389999999811
20
-56.8349139999999977
11
128.9944639999999936
21
-56.6741269999999986
0
LINE
8
BLACK
6
CONTINUOUS
10
128.9944639999999936
20
-56.6741269999999986
11
129.1005329999999844
21
-56.5281349999999989
0
LINE
8
BLACK
6
CONTINUOUS
10
129.1005329999999844
20
-56.5281349999999989
11
129.2281349999999804
21
-56.4005329999999958
0
LINE
8
BLACK
6
CONTINUOUS
10
129.2281349999999804
20
-56.4005329999999958
11
129.3741269999999872
21
-56.2944639999999978
0
LINE
8
BLACK
6
CONTINUOUS
10
129.3741269999999872
20
-56.2944639999999978
11
129.5349139999999863
21
-56.2125389999999996
0
LINE
8
BLACK
6
CONTINUOUS
10
129.5349139999999863
20
-56.2125389999999996
11
129.7065379999999948
21
-56.1567749999999961
0
LINE
8
BLACK
6
CONTINUOUS
10
129.7065379999999948
20
-56.1567749999999961
11
129.8847719999999981
21
-56.1285449999999955
0
LINE
8
BLACK
6
CONTINUOUS
10
129.8847719999999981
20
-56.1285449999999955
11
130.0652279999999905
21
-56.1285449999999955
0
LINE
8
BLACK
6
CONTINUOUS
10
130.0652279999999905
20
-56.1285449999999955
11
130.2434619999999938
21
-56.1567749999999961
0
LINE
8
BLACK
6
CONTINUOUS
10
128.9249999999999829
20
-57.3784159999999943
11
128.9653500000000008
21
-57.5812740000000005
0
LINE
8
BLACK
6
CONTINUOUS
10
128.9653500000000008
20
-57.5812740000000005
11
129.0445019999999943
21
-57.772361999999994
0
LINE
8
BLACK
6
CONTINUOUS
10
129.0445019999999943
20
-57.772361999999994
11
129.1594110000000057
21
-57.9443359999999998
0
LINE
8
BLACK
6
CONTINUOUS
10
129.1594110000000057
20
-57.9443359999999998
11
129.3056640000000073
21
-58.0905889999999943
0
LINE
8
BLACK
6
CONTINUOUS
10
129.3056640000000073
20
-58.0905889999999943
11
129.4776379999999847
21
-58.2054979999999986
0
LINE
8
BLACK
6
CONTINUOUS
10
129.4776379999999847
20
-58.2054979999999986
11
129.6687259999999924
21
-58.2846499999999992
0
LINE
8
BLACK
6
CONTINUOUS
10
129.6687259999999924
20
-58.2846499999999992
11
129.8715839999999844
21
-58.3249999999999957
0
LINE
8
BLACK
6
CONTINUOUS
10
129.8715839999999844
20
-58.3249999999999957
11
130.0784160000000043
21
-58.3249999999999957
0
LINE
8
BLACK
6
CONTINUOUS
10
130.0784160000000043
20
-58.3249999999999957
11
130.2812739999999962
21
-58.2846499999999992
0
LINE
8
BLACK
6
CONTINUOUS
10
130.2812739999999962
20
-58.2846499999999992
11
130.4723620000000039
21
-58.2054979999999986
0
LINE
8
BLACK
6
CONTINUOUS
10
130.4723620000000039
20
-58.2054979999999986
11
130.6443359999999814
21
-58.0905889999999943
0
LINE
8
BLACK
6
CONTINUOUS
10
130.6443359999999814
20
-58.0905889999999943
11
130.7905889999999829
21
-57.9443359999999998
0
LINE
8
BLACK
6
CONTINUOUS
10
130.7905889999999829
20
-57.9443359999999998
11
130.9054979999999944
21
-57.772361999999994
0
LINE
8
BLACK
6
CONTINUOUS
10
130.9054979999999944
20
-57.772361999999994
11
130.9846499999999878
21
-57.5812740000000005
0
LINE
8
BLACK
6
CONTINUOUS
10
130.9846499999999878
20
-57.5812740000000005
11
131.0250000000000057
21
-57.3784159999999943
0
LINE
8
BLACK
6
CONTINUOUS
10
131.0250000000000057
20
-57.3784159999999943
11
131.0250000000000057
21
-57.1715839999999957
0
LINE
8
BLACK
6
CONTINUOUS
10
131.0250000000000057
20
-57.1715839999999957
11
130.9846499999999878
21
-56.9687259999999966
0
LINE
8
BLACK
6
CONTINUOUS
10
130.9846499999999878
20
-56.9687259999999966
11
130.9054979999999944
21
-56.7776379999999961
0
LINE
8
BLACK
6
CONTINUOUS
10
130.9054979999999944
20
-56.7776379999999961
11
130.7905889999999829
21
-56.6056639999999973
0
LINE
8
BLACK
6
CONTINUOUS
10
130.7905889999999829
20
-56.6056639999999973
11
130.6443359999999814
21
-56.4594109999999958
0
LINE
8
BLACK
6
CONTINUOUS
10
130.6443359999999814
20
-56.4594109999999958
11
130.4723620000000039
21
-56.3445019999999985
0
LINE
8
BLACK
6
CONTINUOUS
10
130.4723620000000039
20
-56.3445019999999985
11
130.2812739999999962
21
-56.265349999999998
0
LINE
8
BLACK
6
CONTINUOUS
10
130.2812739999999962
20
-56.265349999999998
11
130.0784160000000043
21
-56.2249999999999943
0
LINE
8
BLACK
6
CONTINUOUS
10
130.0784160000000043
20
-56.2249999999999943
11
129.8715839999999844
21
-56.2249999999999943
0
LINE
8
BLACK
6
CONTINUOUS
10
129.8715839999999844
20
-56.2249999999999943
11
129.6687259999999924
21
-56.265349999999998
0
LINE
8
BLACK
6
CONTINUOUS
10
129.6687259999999924
20
-56.265349999999998
11
129.4776379999999847
21
-56.3445019999999985
0
LINE
8
BLACK
6
CONTINUOUS
10
129.4776379999999847
20
-56.3445019999999985
11
129.3056640000000073
21
-56.4594109999999958
0
LINE
8
BLACK
6
CONTINUOUS
10
129.3056640000000073
20
-56.4594109999999958
11
129.1594110000000057
21
-56.6056639999999973
0
LINE
8
BLACK
6
CONTINUOUS
10
129.1594110000000057
20
-56.6056639999999973
11
129.0445019999999943
21
-56.7776379999999961
0
LINE
8
BLACK
6
CONTINUOUS
10
129.0445019999999943
20
-56.7776379999999961
11
128.9653500000000008
21
-56.9687259999999966
0
LINE
8
BLACK
6
CONTINUOUS
10
128.9653500000000008
20
-56.9687259999999966
11
128.9249999999999829
21
-57.1715839999999957
0
LINE
8
BLACK
6
CONTINUOUS
10
128.9249999999999829
20
-57.1715839999999957
11
128.9249999999999829
21
-57.3784159999999943
0
LINE
8
BLACK
6
CONTINUOUS
10
171.2106839999999863
20
-34.9023059999999958
11
171.2146529999999984
21
-34.9021539999999959
0
LINE
8
BLACK
6
CONTINUOUS
10
171.2146529999999984
20
-34.9021539999999959
11
224.5332919999999888
21
-43.3957690000000014
0
LINE
8
BLACK
6
CONTINUOUS
10
224.5332919999999888
20
-43.3957690000000014
11
224.5354859999999917
21
-43.3965800000000002
0
LINE
8
BLACK
6
CONTINUOUS
10
224.5354859999999917
20
-43.3965800000000002
11
224.5378269999999929
21
-43.3967079999999967
0
LINE
8
BLACK
6
CONTINUOUS
10
224.5378269999999929
20
-43.3967079999999967
11
224.7394970000000001
21
-43.4483379999999997
0
LINE
8
BLACK
6
CONTINUOUS
10
224.7394970000000001
20
-43.4483379999999997
11
224.7435549999999864
21
-43.4502829999999989
0
LINE
8
BLACK
6
CONTINUOUS
10
224.7435549999999864
20
-43.4502829999999989
11
224.7479299999999967
21
-43.4513239999999996
0
LINE
8
BLACK
6
CONTINUOUS
10
224.7479299999999967
20
-43.4513239999999996
11
224.9326899999999796
21
-43.536012999999997
0
LINE
8
BLACK
6
CONTINUOUS
10
224.9326899999999796
20
-43.536012999999997
11
224.9362729999999999
21
-43.5386039999999994
0
LINE
8
BLACK
6
CONTINUOUS
10
224.9362729999999999
20
-43.5386039999999994
11
224.9403289999999913
21
-43.5403650000000013
0
LINE
8
BLACK
6
CONTINUOUS
10
224.9403289999999913
20
-43.5403650000000013
11
225.1050789999999893
21
-43.6544990000000013
0
LINE
8
BLACK
6
CONTINUOUS
10
225.1050789999999893
20
-43.6544990000000013
11
225.1081079999999872
21
-43.657630999999995
0
LINE
8
BLACK
6
CONTINUOUS
10
225.1081079999999872
20
-43.657630999999995
11
225.1117449999999849
21
-43.660029999999999
0
LINE
8
BLACK
6
CONTINUOUS
10
225.1117449999999849
20
-43.660029999999999
11
225.2534449999999993
21
-43.8000119999999953
0
LINE
8
BLACK
6
CONTINUOUS
10
225.2534449999999993
20
-43.8000119999999953
11
225.2558729999999798
21
-43.8035980000000009
0
LINE
8
BLACK
6
CONTINUOUS
10
225.2558729999999798
20
-43.8035980000000009
11
225.2590299999999957
21
-43.8065719999999956
0
LINE
8
BLACK
6
CONTINUOUS
10
225.2590299999999957
20
-43.8065719999999956
11
225.3745899999999835
21
-43.9687979999999996
0
LINE
8
BLACK
6
CONTINUOUS
10
225.3745899999999835
20
-43.9687979999999996
11
225.3763759999999934
21
-43.9727689999999996
0
LINE
8
BLACK
6
CONTINUOUS
10
225.3763759999999934
20
-43.9727689999999996
11
225.3789819999999793
21
-43.9762549999999948
0
LINE
8
BLACK
6
CONTINUOUS
10
225.3789819999999793
20
-43.9762549999999948
11
225.4653819999999769
21
-44.1571189999999945
0
LINE
8
BLACK
6
CONTINUOUS
10
225.4653819999999769
20
-44.1571189999999945
11
225.4664729999999793
21
-44.161406999999997
0
LINE
8
BLACK
6
CONTINUOUS
10
225.4664729999999793
20
-44.161406999999997
11
225.4684619999999882
21
-44.1653619999999947
0
LINE
8
BLACK
6
CONTINUOUS
10
225.4684619999999882
20
-44.1653619999999947
11
225.5225619999999935
21
-44.3612609999999989
0
LINE
8
BLACK
6
CONTINUOUS
10
225.5225619999999935
20
-44.3612609999999989
11
225.5228899999999896
21
-44.3657439999999994
0
LINE
8
BLACK
6
CONTINUOUS
10
225.5228899999999896
20
-44.3657439999999994
11
225.5241619999999898
21
-44.3700559999999982
0
LINE
8
BLACK
6
CONTINUOUS
10
225.5241619999999898
20
-44.3700559999999982
11
225.5429619999999886
21
-44.5773869999999945
0
LINE
8
BLACK
6
CONTINUOUS
10
225.5429619999999886
20
-44.5773869999999945
11
225.5427210000000002
21
-44.5796509999999984
0
LINE
8
BLACK
6
CONTINUOUS
10
225.5427210000000002
20
-44.5796509999999984
11
225.5431659999999852
21
-44.5818839999999952
0
LINE
8
BLACK
6
CONTINUOUS
10
225.5431659999999852
20
-44.5818839999999952
11
225.5701660000000004
21
-119.4999819999999886
0
LINE
8
BLACK
6
CONTINUOUS
10
225.5701660000000004
20
-119.4999819999999886
11
225.569974000000002
21
-119.5009439999999898
0
LINE
8
BLACK
6
CONTINUOUS
10
225.569974000000002
20
-119.5009439999999898
11
225.5701469999999915
21
-119.501394999999988
0
LINE
8
BLACK
6
CONTINUOUS
10
225.5701469999999915
20
-119.501394999999988
11
225.569675999999987
21
-119.502445999999992
0
LINE
8
BLACK
6
CONTINUOUS
10
225.569675999999987
20
-119.502445999999992
11
225.5663669999999854
21
-119.5191169999999943
0
LINE
8
BLACK
6
CONTINUOUS
10
225.5663669999999854
20
-119.5191169999999943
11
225.5588579999999865
21
-119.5266299999999973
0
LINE
8
BLACK
6
CONTINUOUS
10
225.5588579999999865
20
-119.5266299999999973
11
225.554520999999994
21
-119.5363279999999975
0
LINE
8
BLACK
6
CONTINUOUS
10
225.554520999999994
20
-119.5363279999999975
11
225.540128999999979
21
-119.5453739999999954
0
LINE
8
BLACK
6
CONTINUOUS
10
225.540128999999979
20
-119.5453739999999954
11
225.5393169999999827
21
-119.5461869999999891
0
LINE
8
BLACK
6
CONTINUOUS
10
225.5393169999999827
20
-119.5461869999999891
11
225.5388349999999775
21
-119.5461869999999891
0
LINE
8
BLACK
6
CONTINUOUS
10
225.5388349999999775
20
-119.5461869999999891
11
225.5380040000000008
21
-119.5467099999999903
0
LINE
8
BLACK
6
CONTINUOUS
10
225.5380040000000008
20
-119.5467099999999903
11
187.5678230000000042
21
-134.0467099999999903
0
LINE
8
BLACK
6
CONTINUOUS
10
187.5678230000000042
20
-134.0467099999999903
11
187.5588860000000011
21
-134.0482289999999921
0
LINE
8
BLACK
6
CONTINUOUS
10
187.5588860000000011
20
-134.0482289999999921
11
187.5499849999999924
21
-134.0499999999999829
0
LINE
8
BLACK
6
CONTINUOUS
10
187.5499849999999924
20
-134.0499999999999829
11
138.2111730000000023
21
-134.0499999999999829
0
LINE
8
BLACK
6
CONTINUOUS
10
138.2111730000000023
20
-134.0499999999999829
11
93.9638269999999949
21
-146.7980459999999994
0
LINE
8
BLACK
6
CONTINUOUS
10
93.9638269999999949
20
-146.7980459999999994
11
93.9614499999999992
21
-146.798246000000006
0
LINE
8
BLACK
6
CONTINUOUS
10
93.9614499999999992
20
-146.798246000000006
11
93.9605469999999912
21
-146.7988719999999887
0
LINE
8
BLACK
6
CONTINUOUS
10
93.9605469999999912
20
-146.7988719999999887
11
93.9524579999999929
21
-146.799004999999994
0
LINE
8
BLACK
6
CONTINUOUS
10
93.9524579999999929
20
-146.799004999999994
11
93.9443879999999893
21
-146.7996859999999799
0
LINE
8
BLACK
6
CONTINUOUS
10
93.9443879999999893
20
-146.7996859999999799
11
93.9434239999999932
21
-146.7991529999999898
0
LINE
8
BLACK
6
CONTINUOUS
10
93.9434239999999932
20
-146.7991529999999898
11
93.9410409999999985
21
-146.7991930000000025
0
LINE
8
BLACK
6
CONTINUOUS
10
93.9410409999999985
20
-146.7991930000000025
11
93.3910410000000013
21
-146.6991929999999797
0
LINE
8
BLACK
6
CONTINUOUS
10
93.3910410000000013
20
-146.6991929999999797
11
93.3877189999999899
21
-146.6978799999999978
0
LINE
8
BLACK
6
CONTINUOUS
10
93.3877189999999899
20
-146.6978799999999978
11
93.3841740000000016
21
-146.697433999999987
0
LINE
8
BLACK
6
CONTINUOUS
10
93.3841740000000016
20
-146.697433999999987
11
92.9341739999999987
21
-146.5474339999999813
0
LINE
8
BLACK
6
CONTINUOUS
10
92.9341739999999987
20
-146.5474339999999813
11
92.9258349999999922
21
-146.5426809999999875
0
LINE
8
BLACK
6
CONTINUOUS
10
92.9258349999999922
20
-146.5426809999999875
11
92.9174450000000007
21
-146.5379629999999906
0
LINE
8
BLACK
6
CONTINUOUS
10
92.9174450000000007
20
-146.5379629999999906
11
92.5674449999999922
21
-146.2379629999999793
0
LINE
8
BLACK
6
CONTINUOUS
10
92.5674449999999922
20
-146.2379629999999793
11
92.5622219999999913
21
-146.2313130000000001
0
LINE
8
BLACK
6
CONTINUOUS
10
92.5622219999999913
20
-146.2313130000000001
11
92.5566549999999921
21
-146.2249510000000043
0
LINE
8
BLACK
6
CONTINUOUS
10
92.5566549999999921
20
-146.2249510000000043
11
82.3066549999999921
21
-128.424950999999993
0
LINE
8
BLACK
6
CONTINUOUS
10
82.3066549999999921
20
-128.424950999999993
11
82.3048009999999977
21
-128.4194699999999898
0
LINE
8
BLACK
6
CONTINUOUS
10
82.3048009999999977
20
-128.4194699999999898
11
82.3020939999999968
21
-128.4143669999999986
0
LINE
8
BLACK
6
CONTINUOUS
10
82.3020939999999968
20
-128.4143669999999986
11
82.1520939999999911
21
-127.9143669999999986
0
LINE
8
BLACK
6
CONTINUOUS
10
82.1520939999999911
20
-127.9143669999999986
11
82.1515979999999928
21
-127.9091699999999889
0
LINE
8
BLACK
6
CONTINUOUS
10
82.1515979999999928
20
-127.9091699999999889
11
82.1501579999999905
21
-127.9041529999999938
0
LINE
8
BLACK
6
CONTINUOUS
10
82.1501579999999905
20
-127.9041529999999938
11
82.1001579999999933
21
-127.3041519999999878
0
LINE
8
BLACK
6
CONTINUOUS
10
82.1001579999999933
20
-127.3041519999999878
11
82.1003949999999918
21
-127.3020629999999898
0
LINE
8
BLACK
6
CONTINUOUS
10
82.1003949999999918
20
-127.3020629999999898
11
82.0999849999999896
21
-127.2999999999999972
0
LINE
8
BLACK
6
CONTINUOUS
10
82.0999849999999896
20
-127.2999999999999972
11
82.0999849999999896
21
-126.8999999999999915
0
LINE
8
BLACK
6
CONTINUOUS
10
82.0999849999999896
20
-126.8999999999999915
11
82.1009499999999974
21
-126.8951429999999903
0
LINE
8
BLACK
6
CONTINUOUS
10
82.1009499999999974
20
-126.8951429999999903
11
82.1009559999999965
21
-126.8901939999999939
0
LINE
8
BLACK
6
CONTINUOUS
10
82.1009559999999965
20
-126.8901939999999939
11
82.2009559999999908
21
-126.3901939999999939
0
LINE
8
BLACK
6
CONTINUOUS
10
82.2009559999999908
20
-126.3901939999999939
11
82.2037989999999894
21
-126.383349999999993
0
LINE
8
BLACK
6
CONTINUOUS
10
82.2037989999999894
20
-126.383349999999993
11
82.2059809999999942
21
-126.3762579999999929
0
LINE
8
BLACK
6
CONTINUOUS
10
82.2059809999999942
20
-126.3762579999999929
11
88.0039230000000003
21
-115.6300710000000009
0
LINE
8
BLACK
6
CONTINUOUS
10
88.0039230000000003
20
-115.6300710000000009
11
88.2009120000000024
21
-115.0391019999999997
0
LINE
8
BLACK
6
CONTINUOUS
10
88.2009120000000024
20
-115.0391019999999997
11
88.2752409999999941
21
-114.3971169999999944
0
LINE
8
BLACK
6
CONTINUOUS
10
88.2752409999999941
20
-114.3971169999999944
11
88.2738420000000019
21
-38.4774359999999973
0
LINE
8
BLACK
6
CONTINUOUS
10
88.2738420000000019
20
-38.4774359999999973
11
88.2743370000000027
21
-38.4749470000000002
0
LINE
8
BLACK
6
CONTINUOUS
10
88.2743370000000027
20
-38.4749470000000002
11
88.274093999999991
21
-38.4724209999999971
0
LINE
8
BLACK
6
CONTINUOUS
10
88.274093999999991
20
-38.4724209999999971
11
88.2974940000000004
21
-38.2402469999999965
0
LINE
8
BLACK
6
CONTINUOUS
10
88.2974940000000004
20
-38.2402469999999965
11
88.2989630000000005
21
-38.2354410000000016
0
LINE
8
BLACK
6
CONTINUOUS
10
88.2989630000000005
20
-38.2354410000000016
11
88.2994889999999941
21
-38.230438999999997
0
LINE
8
BLACK
6
CONTINUOUS
10
88.2994889999999941
20
-38.230438999999997
11
88.3666089999999969
21
-38.0141920000000013
0
LINE
8
BLACK
6
CONTINUOUS
10
88.3666089999999969
20
-38.0141920000000013
11
88.3689589999999896
21
-38.0098619999999983
0
LINE
8
BLACK
6
CONTINUOUS
10
88.3689589999999896
20
-38.0098619999999983
11
88.3704180000000008
21
-38.0051619999999986
0
LINE
8
BLACK
6
CONTINUOUS
10
88.3704180000000008
20
-38.0051619999999986
11
88.4766309999999976
21
-37.8094749999999991
0
LINE
8
BLACK
6
CONTINUOUS
10
88.4766309999999976
20
-37.8094749999999991
11
88.4797179999999912
21
-37.8057609999999968
0
LINE
8
BLACK
6
CONTINUOUS
10
88.4797179999999912
20
-37.8057609999999968
11
88.4820069999999959
21
-37.8015070000000009
0
LINE
8
BLACK
6
CONTINUOUS
10
88.4820069999999959
20
-37.8015070000000009
11
88.6226759999999985
21
-37.6310110000000009
0
LINE
8
BLACK
6
CONTINUOUS
10
88.6226759999999985
20
-37.6310110000000009
11
88.6263900000000007
21
-37.6279779999999988
0
LINE
8
BLACK
6
CONTINUOUS
10
88.6263900000000007
20
-37.6279779999999988
11
88.6294230000000027
21
-37.6242639999999966
0
LINE
8
BLACK
6
CONTINUOUS
10
88.6294230000000027
20
-37.6242639999999966
11
88.7999159999999961
21
-37.4835929999999991
0
LINE
8
BLACK
6
CONTINUOUS
10
88.7999159999999961
20
-37.4835929999999991
11
88.8041699999999992
21
-37.4813040000000015
0
LINE
8
BLACK
6
CONTINUOUS
10
88.8041699999999992
20
-37.4813040000000015
11
88.8078849999999989
21
-37.4782159999999962
0
LINE
8
BLACK
6
CONTINUOUS
10
88.8078849999999989
20
-37.4782159999999962
11
89.0035689999999988
21
-37.3720009999999974
0
LINE
8
BLACK
6
CONTINUOUS
10
89.0035689999999988
20
-37.3720009999999974
11
89.008269999999996
21
-37.3705409999999958
0
LINE
8
BLACK
6
CONTINUOUS
10
89.008269999999996
20
-37.3705409999999958
11
89.0125969999999995
21
-37.368192999999998
0
LINE
8
BLACK
6
CONTINUOUS
10
89.0125969999999995
20
-37.368192999999998
11
89.2288410000000027
21
-37.3010629999999992
0
LINE
8
BLACK
6
CONTINUOUS
10
89.2288410000000027
20
-37.3010629999999992
11
89.2338409999999982
21
-37.3005369999999985
0
LINE
8
BLACK
6
CONTINUOUS
10
89.2338409999999982
20
-37.3005369999999985
11
89.2386489999999952
21
-37.2990670000000009
0
LINE
8
BLACK
6
CONTINUOUS
10
89.2386489999999952
20
-37.2990670000000009
11
89.4708219999999983
21
-37.2756569999999954
0
LINE
8
BLACK
6
CONTINUOUS
10
89.4708219999999983
20
-37.2756569999999954
11
89.4723549999999932
21
-37.2758040000000008
0
LINE
8
BLACK
6
CONTINUOUS
10
89.4723549999999932
20
-37.2758040000000008
11
89.4738540000000029
21
-37.2754440000000002
0
LINE
8
BLACK
6
CONTINUOUS
10
89.4738540000000029
20
-37.2754440000000002
11
149.2548029999999812
21
-34.9015699999999995
0
LINE
8
BLACK
6
CONTINUOUS
10
149.2548029999999812
20
-34.9015699999999995
11
149.2557989999999961
21
-34.9017270000000011
0
LINE
8
BLACK
6
CONTINUOUS
10
149.2557989999999961
20
-34.9017270000000011
11
149.2567870000000028
21
-34.9015309999999985
0
LINE
8
BLACK
6
CONTINUOUS
10
149.2567870000000028
20
-34.9015309999999985
11
171.2067869999999914
21
-34.9015309999999985
0
LINE
8
BLACK
6
CONTINUOUS
10
171.2067869999999914
20
-34.9015309999999985
11
171.2106839999999863
21
-34.9023059999999958
0
LINE
8
BLACK
6
CONTINUOUS
10
149.2577890000000025
20
-35.0015309999999999
11
89.4793379999999985
21
-37.3753049999999973
0
LINE
8
BLACK
6
CONTINUOUS
10
89.4793379999999985
20
-37.3753049999999973
11
89.2536839999999927
21
-37.3980579999999989
0
LINE
8
BLACK
6
CONTINUOUS
10
89.2536839999999927
20
-37.3980579999999989
11
89.0469459999999913
21
-37.4622370000000018
0
LINE
8
BLACK
6
CONTINUOUS
10
89.0469459999999913
20
-37.4622370000000018
11
88.8598329999999947
21
-37.5638000000000005
0
LINE
8
BLACK
6
CONTINUOUS
10
88.8598329999999947
20
-37.5638000000000005
11
88.6967609999999951
21
-37.6983479999999957
0
LINE
8
BLACK
6
CONTINUOUS
10
88.6967609999999951
20
-37.6983479999999957
11
88.5622129999999999
21
-37.8614239999999995
0
LINE
8
BLACK
6
CONTINUOUS
10
88.5622129999999999
20
-37.8614239999999995
11
88.4606560000000002
21
-38.0485350000000011
0
LINE
8
BLACK
6
CONTINUOUS
10
88.4606560000000002
20
-38.0485350000000011
11
88.3964849999999984
21
-38.2552809999999965
0
LINE
8
BLACK
6
CONTINUOUS
10
88.3964849999999984
20
-38.2552809999999965
11
88.3738419999999962
21
-38.4799480000000003
0
LINE
8
BLACK
6
CONTINUOUS
10
88.3738419999999962
20
-38.4799480000000003
11
88.3752420000000001
21
-114.399998999999994
0
LINE
8
BLACK
6
CONTINUOUS
10
88.3752420000000001
20
-114.399998999999994
11
88.3746739999999988
21
-114.4028519999999958
0
LINE
8
BLACK
6
CONTINUOUS
10
88.3746739999999988
20
-114.4028519999999958
11
88.3749099999999999
21
-114.4057509999999951
0
LINE
8
BLACK
6
CONTINUOUS
10
88.3749099999999999
20
-114.4057509999999951
11
88.2996529999999922
21
-115.0557510000000008
0
LINE
8
BLACK
6
CONTINUOUS
10
88.2996529999999922
20
-115.0557510000000008
11
88.2980659999999915
21
-115.0606769999999983
0
LINE
8
BLACK
6
CONTINUOUS
10
88.2980659999999915
20
-115.0606769999999983
11
88.2974189999999908
21
-115.0658109999999965
0
LINE
8
BLACK
6
CONTINUOUS
10
88.2974189999999908
20
-115.0658109999999965
11
88.0974190000000021
21
-115.6658109999999908
0
LINE
8
BLACK
6
CONTINUOUS
10
88.0974190000000021
20
-115.6658109999999908
11
88.0952669999999927
21
-115.6695859999999954
0
LINE
8
BLACK
6
CONTINUOUS
10
88.0952669999999927
20
-115.6695859999999954
11
88.0939889999999934
21
-115.6737409999999926
0
LINE
8
BLACK
6
CONTINUOUS
10
88.0939889999999934
20
-115.6737409999999926
11
82.297544000000002
21
-126.4171509999999898
0
LINE
8
BLACK
6
CONTINUOUS
10
82.297544000000002
20
-126.4171509999999898
11
82.1999849999999981
21
-126.904950999999997
0
LINE
8
BLACK
6
CONTINUOUS
10
82.1999849999999981
20
-126.904950999999997
11
82.1999849999999981
21
-127.2979239999999947
0
LINE
8
BLACK
6
CONTINUOUS
10
82.1999849999999981
20
-127.2979239999999947
11
82.2493769999999955
21
-127.8906389999999931
0
LINE
8
BLACK
6
CONTINUOUS
10
82.2493769999999955
20
-127.8906389999999931
11
82.3962080000000014
21
-128.3800729999999817
0
LINE
8
BLACK
6
CONTINUOUS
10
82.3962080000000014
20
-128.3800729999999817
11
92.6390329999999977
21
-146.1676149999999836
0
LINE
8
BLACK
6
CONTINUOUS
10
92.6390329999999977
20
-146.1676149999999836
11
92.9750879999999995
21
-146.4556629999999871
0
LINE
8
BLACK
6
CONTINUOUS
10
92.9750879999999995
20
-146.4556629999999871
11
93.4124289999999888
21
-146.6014429999999891
0
LINE
8
BLACK
6
CONTINUOUS
10
93.4124289999999888
20
-146.6014429999999891
11
93.9473989999999901
21
-146.6987100000000055
0
LINE
8
BLACK
6
CONTINUOUS
10
93.9473989999999901
20
-146.6987100000000055
11
138.1902709999999956
21
-133.9519540000000006
0
LINE
8
BLACK
6
CONTINUOUS
10
138.1902709999999956
20
-133.9519540000000006
11
138.1972489999999993
21
-133.9513649999999814
0
LINE
8
BLACK
6
CONTINUOUS
10
138.1972489999999993
20
-133.9513649999999814
11
138.2041130000000067
21
-133.9499999999999886
0
LINE
8
BLACK
6
CONTINUOUS
10
138.2041130000000067
20
-133.9499999999999886
11
187.5407620000000009
21
-133.9499999999999886
0
LINE
8
BLACK
6
CONTINUOUS
10
187.5407620000000009
20
-133.9499999999999886
11
225.4701529999999821
21
-119.4655759999999987
0
LINE
8
BLACK
6
CONTINUOUS
10
225.4701529999999821
20
-119.4655759999999987
11
225.4431659999999908
21
-44.5841769999999968
0
LINE
8
BLACK
6
CONTINUOUS
10
225.4431659999999908
20
-44.5841769999999968
11
225.4249749999999892
21
-44.3835539999999966
0
LINE
8
BLACK
6
CONTINUOUS
10
225.4249749999999892
20
-44.3835539999999966
11
225.3732449999999972
21
-44.196239999999996
0
LINE
8
BLACK
6
CONTINUOUS
10
225.3732449999999972
20
-44.196239999999996
11
225.2906239999999798
21
-44.0232819999999947
0
LINE
8
BLACK
6
CONTINUOUS
10
225.2906239999999798
20
-44.0232819999999947
11
225.1800879999999836
21
-43.868110999999999
0
LINE
8
BLACK
6
CONTINUOUS
10
225.1800879999999836
20
-43.868110999999999
11
225.0445589999999925
21
-43.734224999999995
0
LINE
8
BLACK
6
CONTINUOUS
10
225.0445589999999925
20
-43.734224999999995
11
224.8870079999999803
21
-43.6250779999999949
0
LINE
8
BLACK
6
CONTINUOUS
10
224.8870079999999803
20
-43.6250779999999949
11
224.710347999999982
21
-43.5441009999999977
0
LINE
8
BLACK
6
CONTINUOUS
10
224.710347999999982
20
-43.5441009999999977
11
224.5152619999999786
21
-43.4941559999999967
0
LINE
8
BLACK
6
CONTINUOUS
10
224.5152619999999786
20
-43.4941559999999967
11
171.2028320000000008
21
-35.0015309999999999
0
LINE
8
BLACK
6
CONTINUOUS
10
171.2028320000000008
20
-35.0015309999999999
11
149.2577890000000025
21
-35.0015309999999999
  0
ENDSEC
  0
EOF
