  0
SECTION
  2
HEADER
  9
$ANGBASE
  50
0.0
  9
$ANGDIR
  70
1
  9
$MEASUREMENT
  70
0
  0
ENDSEC
  0
SECTION
  2
TABLES
  0
TABLE
  2
LTYPE
  70
4
  0
LTYPE
  5
40F
  2
CONTINUOUS
  70
0
  3
Solid line
  72
65
  73
0
  40
0.0
  0
LTYPE
  5
410
  2
DASHDOT
 70
0
  3
Dash Dot ____ _ ____ _
 72
65
 73
4
 40
2.0
 49
1.25
 49
-0.25
 49
0.25
 49
-0.25
  0
LTYPE
  5
411
  2
DASHED
 70
0
  3
Dashed __ __ __ __ __
 72
65
 73
2
 40
0.75
 49
0.5
 49
-0.25
  0
LTYPE
  5
43B
  2
DOTTED
 70
0
  3
Dotted .  .  .  .
 72
65
 73
2
 40
0.2
 49
0.0
 49
-0.2
  0
ENDTAB
  0
TABLE
  2
STYLE
  70
4
  0
STYLE
  2
KICAD
  70
0
  40
0
  41
1
  42
1
  50
0
  71
0
  3
isocp.shx
  0
STYLE
  2
KICADB
  70
0
  40
0
  41
1
  42
1
  50
0
  71
0
  3
isocp.shx
  0
STYLE
  2
KICADI
  70
0
  40
0
  41
1
  42
1
  50
15
  71
0
  3
isocp.shx
  0
STYLE
  2
KICADBI
  70
0
  40
0
  41
1
  42
1
  50
15
  71
0
  3
isocp.shx
  0
ENDTAB
  0
TABLE
  2
LAYER
  70
1
  0
LAYER
  2
BLACK
  70
0
  62
7
  6
CONTINUOUS
  0
ENDTAB
  0
ENDSEC
  0
SECTION
  2
ENTITIES
0
LINE
8
BLACK
6
CONTINUOUS
10
4.0656874803149607
20
-4.6488887795275593
11
4.0724443307086613
21
-4.6510842125984251
0
LINE
8
BLACK
6
CONTINUOUS
10
4.0724443307086613
20
-4.6510842125984251
11
4.0787745275590552
21
-4.6543096062992122
0
LINE
8
BLACK
6
CONTINUOUS
10
4.0787745275590552
20
-4.6543096062992122
11
4.0845222440944884
21
-4.6584855511811023
0
LINE
8
BLACK
6
CONTINUOUS
10
4.0845222440944884
20
-4.6584855511811023
11
4.0895459448818894
21
-4.6635092519685042
0
LINE
8
BLACK
6
CONTINUOUS
10
4.0895459448818894
20
-4.6635092519685042
11
4.0937218897637795
21
-4.6692569685039373
0
LINE
8
BLACK
6
CONTINUOUS
10
4.0937218897637795
20
-4.6692569685039373
11
4.0969472834645666
21
-4.6755871653543304
0
LINE
8
BLACK
6
CONTINUOUS
10
4.0969472834645666
20
-4.6755871653543304
11
4.0991427165354333
21
-4.6823440157480318
0
LINE
8
BLACK
6
CONTINUOUS
10
4.0991427165354333
20
-4.6823440157480318
11
4.1002541338582672
21
-4.6893611023622048
0
LINE
8
BLACK
6
CONTINUOUS
10
4.1002541338582672
20
-4.6893611023622048
11
4.1002541338582672
21
-4.6964656692913387
0
LINE
8
BLACK
6
CONTINUOUS
10
4.1002541338582672
20
-4.6964656692913387
11
4.0991427165354333
21
-4.7034827559055117
0
LINE
8
BLACK
6
CONTINUOUS
10
4.0991427165354333
20
-4.7034827559055117
11
4.0969472834645666
21
-4.7102396062992122
0
LINE
8
BLACK
6
CONTINUOUS
10
4.0969472834645666
20
-4.7102396062992122
11
4.0937218897637795
21
-4.7165698031496062
0
LINE
8
BLACK
6
CONTINUOUS
10
4.0937218897637795
20
-4.7165698031496062
11
4.0895459448818894
21
-4.7223175196850393
0
LINE
8
BLACK
6
CONTINUOUS
10
4.0895459448818894
20
-4.7223175196850393
11
4.0845222440944884
21
-4.7273412204724412
0
LINE
8
BLACK
6
CONTINUOUS
10
4.0845222440944884
20
-4.7273412204724412
11
4.0787745275590552
21
-4.7315171653543304
0
LINE
8
BLACK
6
CONTINUOUS
10
4.0787745275590552
20
-4.7315171653543304
11
4.0724443307086613
21
-4.7347425590551184
0
LINE
8
BLACK
6
CONTINUOUS
10
4.0724443307086613
20
-4.7347425590551184
11
4.0656874803149607
21
-4.7369379921259842
0
LINE
8
BLACK
6
CONTINUOUS
10
4.0656874803149607
20
-4.7369379921259842
11
4.0586703937007877
21
-4.738049409448819
0
LINE
8
BLACK
6
CONTINUOUS
10
4.0586703937007877
20
-4.738049409448819
11
4.0515658267716539
21
-4.738049409448819
0
LINE
8
BLACK
6
CONTINUOUS
10
4.0515658267716539
20
-4.738049409448819
11
4.04454874015748
21
-4.7369379921259842
0
LINE
8
BLACK
6
CONTINUOUS
10
4.04454874015748
20
-4.7369379921259842
11
4.0377918897637795
21
-4.7347425590551184
0
LINE
8
BLACK
6
CONTINUOUS
10
4.0377918897637795
20
-4.7347425590551184
11
4.0314616929133855
21
-4.7315171653543304
0
LINE
8
BLACK
6
CONTINUOUS
10
4.0314616929133855
20
-4.7315171653543304
11
4.0257139763779524
21
-4.7273412204724412
0
LINE
8
BLACK
6
CONTINUOUS
10
4.0257139763779524
20
-4.7273412204724412
11
4.0206902755905514
21
-4.7223175196850393
0
LINE
8
BLACK
6
CONTINUOUS
10
4.0206902755905514
20
-4.7223175196850393
11
4.0165143307086613
21
-4.7165698031496062
0
LINE
8
BLACK
6
CONTINUOUS
10
4.0165143307086613
20
-4.7165698031496062
11
4.0132889370078741
21
-4.7102396062992122
0
LINE
8
BLACK
6
CONTINUOUS
10
4.0132889370078741
20
-4.7102396062992122
11
4.0110935039370075
21
-4.7034827559055117
0
LINE
8
BLACK
6
CONTINUOUS
10
4.0110935039370075
20
-4.7034827559055117
11
4.0099820866141735
21
-4.6964656692913387
0
LINE
8
BLACK
6
CONTINUOUS
10
4.0099820866141735
20
-4.6964656692913387
11
4.0099820866141735
21
-4.6893611023622048
0
LINE
8
BLACK
6
CONTINUOUS
10
4.0099820866141735
20
-4.6893611023622048
11
4.0100643307086612
21
-4.6888418897637791
0
LINE
8
BLACK
6
CONTINUOUS
10
4.0100643307086612
20
-4.6888418897637791
11
4.0110935039370075
21
-4.6823440157480318
0
LINE
8
BLACK
6
CONTINUOUS
10
4.0110935039370075
20
-4.6823440157480318
11
4.0132889370078741
21
-4.6755871653543304
0
LINE
8
BLACK
6
CONTINUOUS
10
4.0132889370078741
20
-4.6755871653543304
11
4.0165143307086613
21
-4.6692569685039373
0
LINE
8
BLACK
6
CONTINUOUS
10
4.0165143307086613
20
-4.6692569685039373
11
4.0206902755905514
21
-4.6635092519685042
0
LINE
8
BLACK
6
CONTINUOUS
10
4.0206902755905514
20
-4.6635092519685042
11
4.0257139763779524
21
-4.6584855511811023
0
LINE
8
BLACK
6
CONTINUOUS
10
4.0257139763779524
20
-4.6584855511811023
11
4.0314616929133855
21
-4.6543096062992122
0
LINE
8
BLACK
6
CONTINUOUS
10
4.0314616929133855
20
-4.6543096062992122
11
4.0377918897637795
21
-4.6510842125984251
0
LINE
8
BLACK
6
CONTINUOUS
10
4.0377918897637795
20
-4.6510842125984251
11
4.04454874015748
21
-4.6488887795275593
0
LINE
8
BLACK
6
CONTINUOUS
10
4.04454874015748
20
-4.6488887795275593
11
4.0515658267716539
21
-4.6477773622047245
0
LINE
8
BLACK
6
CONTINUOUS
10
4.0515658267716539
20
-4.6477773622047245
11
4.0586703937007877
21
-4.6477773622047245
0
LINE
8
BLACK
6
CONTINUOUS
10
4.0586703937007877
20
-4.6477773622047245
11
4.0656874803149607
21
-4.6488887795275593
0
LINE
8
BLACK
6
CONTINUOUS
10
4.0137795275590546
20
-4.6969848818897635
11
4.0153681102362206
21
-4.7049714173228345
0
LINE
8
BLACK
6
CONTINUOUS
10
4.0153681102362206
20
-4.7049714173228345
11
4.0184843307086613
21
-4.7124945669291334
0
LINE
8
BLACK
6
CONTINUOUS
10
4.0184843307086613
20
-4.7124945669291334
11
4.0230083070866138
21
-4.7192651968503938
0
LINE
8
BLACK
6
CONTINUOUS
10
4.0230083070866138
20
-4.7192651968503938
11
4.0287662992125988
21
-4.7250231889763779
0
LINE
8
BLACK
6
CONTINUOUS
10
4.0287662992125988
20
-4.7250231889763779
11
4.0355369291338583
21
-4.7295471653543304
0
LINE
8
BLACK
6
CONTINUOUS
10
4.0355369291338583
20
-4.7295471653543304
11
4.0430600787401572
21
-4.7326633858267719
0
LINE
8
BLACK
6
CONTINUOUS
10
4.0430600787401572
20
-4.7326633858267719
11
4.0510466141732282
21
-4.734251968503937
0
LINE
8
BLACK
6
CONTINUOUS
10
4.0510466141732282
20
-4.734251968503937
11
4.0591896062992125
21
-4.734251968503937
0
LINE
8
BLACK
6
CONTINUOUS
10
4.0591896062992125
20
-4.734251968503937
11
4.0671761417322836
21
-4.7326633858267719
0
LINE
8
BLACK
6
CONTINUOUS
10
4.0671761417322836
20
-4.7326633858267719
11
4.0746992913385824
21
-4.7295471653543304
0
LINE
8
BLACK
6
CONTINUOUS
10
4.0746992913385824
20
-4.7295471653543304
11
4.0814699212598429
21
-4.7250231889763779
0
LINE
8
BLACK
6
CONTINUOUS
10
4.0814699212598429
20
-4.7250231889763779
11
4.0872279133858269
21
-4.7192651968503938
0
LINE
8
BLACK
6
CONTINUOUS
10
4.0872279133858269
20
-4.7192651968503938
11
4.0917518897637795
21
-4.7124945669291334
0
LINE
8
BLACK
6
CONTINUOUS
10
4.0917518897637795
20
-4.7124945669291334
11
4.0948681102362201
21
-4.7049714173228345
0
LINE
8
BLACK
6
CONTINUOUS
10
4.0948681102362201
20
-4.7049714173228345
11
4.0964566929133861
21
-4.6969848818897635
0
LINE
8
BLACK
6
CONTINUOUS
10
4.0964566929133861
20
-4.6969848818897635
11
4.0964566929133861
21
-4.6888418897637791
0
LINE
8
BLACK
6
CONTINUOUS
10
4.0964566929133861
20
-4.6888418897637791
11
4.0948681102362201
21
-4.680855354330709
0
LINE
8
BLACK
6
CONTINUOUS
10
4.0948681102362201
20
-4.680855354330709
11
4.0917518897637795
21
-4.6733322047244092
0
LINE
8
BLACK
6
CONTINUOUS
10
4.0917518897637795
20
-4.6733322047244092
11
4.0872279133858269
21
-4.6665615748031497
0
LINE
8
BLACK
6
CONTINUOUS
10
4.0872279133858269
20
-4.6665615748031497
11
4.0814699212598429
21
-4.6608035826771657
0
LINE
8
BLACK
6
CONTINUOUS
10
4.0814699212598429
20
-4.6608035826771657
11
4.0746992913385824
21
-4.6562796062992122
0
LINE
8
BLACK
6
CONTINUOUS
10
4.0746992913385824
20
-4.6562796062992122
11
4.0671761417322836
21
-4.6531633858267716
0
LINE
8
BLACK
6
CONTINUOUS
10
4.0671761417322836
20
-4.6531633858267716
11
4.0591896062992125
21
-4.6515748031496065
0
LINE
8
BLACK
6
CONTINUOUS
10
4.0591896062992125
20
-4.6515748031496065
11
4.0510466141732282
21
-4.6515748031496065
0
LINE
8
BLACK
6
CONTINUOUS
10
4.0510466141732282
20
-4.6515748031496065
11
4.0430600787401572
21
-4.6531633858267716
0
LINE
8
BLACK
6
CONTINUOUS
10
4.0430600787401572
20
-4.6531633858267716
11
4.0355369291338583
21
-4.6562796062992122
0
LINE
8
BLACK
6
CONTINUOUS
10
4.0355369291338583
20
-4.6562796062992122
11
4.0287662992125988
21
-4.6608035826771657
0
LINE
8
BLACK
6
CONTINUOUS
10
4.0287662992125988
20
-4.6608035826771657
11
4.0230083070866138
21
-4.6665615748031497
0
LINE
8
BLACK
6
CONTINUOUS
10
4.0230083070866138
20
-4.6665615748031497
11
4.0184843307086613
21
-4.6733322047244092
0
LINE
8
BLACK
6
CONTINUOUS
10
4.0184843307086613
20
-4.6733322047244092
11
4.0153681102362206
21
-4.680855354330709
0
LINE
8
BLACK
6
CONTINUOUS
10
4.0153681102362206
20
-4.680855354330709
11
4.0137795275590546
21
-4.6888418897637791
0
LINE
8
BLACK
6
CONTINUOUS
10
4.0137795275590546
20
-4.6888418897637791
11
4.0137795275590546
21
-4.6969848818897635
0
LINE
8
BLACK
6
CONTINUOUS
10
8.127695354330708
20
-3.9018415354330709
11
8.1344522047244094
21
-3.9040369685039371
0
LINE
8
BLACK
6
CONTINUOUS
10
8.1344522047244094
20
-3.9040369685039371
11
8.1407824015748034
21
-3.9072623622047242
0
LINE
8
BLACK
6
CONTINUOUS
10
8.1407824015748034
20
-3.9072623622047242
11
8.1465301181102365
21
-3.9114383070866139
0
LINE
8
BLACK
6
CONTINUOUS
10
8.1465301181102365
20
-3.9114383070866139
11
8.1515538188976375
21
-3.9164620078740158
0
LINE
8
BLACK
6
CONTINUOUS
10
8.1515538188976375
20
-3.9164620078740158
11
8.1557297637795276
21
-3.9222097244094489
0
LINE
8
BLACK
6
CONTINUOUS
10
8.1557297637795276
20
-3.9222097244094489
11
8.1589551574803156
21
-3.9285399212598424
0
LINE
8
BLACK
6
CONTINUOUS
10
8.1589551574803156
20
-3.9285399212598424
11
8.1611505905511805
21
-3.9352967716535434
0
LINE
8
BLACK
6
CONTINUOUS
10
8.1611505905511805
20
-3.9352967716535434
11
8.1622620078740162
21
-3.9423138582677164
0
LINE
8
BLACK
6
CONTINUOUS
10
8.1622620078740162
20
-3.9423138582677164
11
8.1622620078740162
21
-3.9494184251968503
0
LINE
8
BLACK
6
CONTINUOUS
10
8.1622620078740162
20
-3.9494184251968503
11
8.1611505905511805
21
-3.9564355118110237
0
LINE
8
BLACK
6
CONTINUOUS
10
8.1611505905511805
20
-3.9564355118110237
11
8.1589551574803156
21
-3.9631923622047243
0
LINE
8
BLACK
6
CONTINUOUS
10
8.1589551574803156
20
-3.9631923622047243
11
8.1557297637795276
21
-3.9695225590551182
0
LINE
8
BLACK
6
CONTINUOUS
10
8.1557297637795276
20
-3.9695225590551182
11
8.1515538188976375
21
-3.9752702755905509
0
LINE
8
BLACK
6
CONTINUOUS
10
8.1515538188976375
20
-3.9752702755905509
11
8.1465301181102365
21
-3.9802939763779528
0
LINE
8
BLACK
6
CONTINUOUS
10
8.1465301181102365
20
-3.9802939763779528
11
8.1407824015748034
21
-3.9844699212598425
0
LINE
8
BLACK
6
CONTINUOUS
10
8.1407824015748034
20
-3.9844699212598425
11
8.1344522047244094
21
-3.98769531496063
0
LINE
8
BLACK
6
CONTINUOUS
10
8.1344522047244094
20
-3.98769531496063
11
8.127695354330708
21
-3.9898907480314958
0
LINE
8
BLACK
6
CONTINUOUS
10
8.127695354330708
20
-3.9898907480314958
11
8.120678267716535
21
-3.9910021653543306
0
LINE
8
BLACK
6
CONTINUOUS
10
8.120678267716535
20
-3.9910021653543306
11
8.113573700787402
21
-3.9910021653543306
0
LINE
8
BLACK
6
CONTINUOUS
10
8.113573700787402
20
-3.9910021653543306
11
8.106556614173229
21
-3.9898907480314958
0
LINE
8
BLACK
6
CONTINUOUS
10
8.106556614173229
20
-3.9898907480314958
11
8.0997997637795276
21
-3.98769531496063
0
LINE
8
BLACK
6
CONTINUOUS
10
8.0997997637795276
20
-3.98769531496063
11
8.0934695669291337
21
-3.9844699212598425
0
LINE
8
BLACK
6
CONTINUOUS
10
8.0934695669291337
20
-3.9844699212598425
11
8.0877218503937005
21
-3.9802939763779528
0
LINE
8
BLACK
6
CONTINUOUS
10
8.0877218503937005
20
-3.9802939763779528
11
8.0826981496062995
21
-3.9752702755905509
0
LINE
8
BLACK
6
CONTINUOUS
10
8.0826981496062995
20
-3.9752702755905509
11
8.0785222047244094
21
-3.9695225590551182
0
LINE
8
BLACK
6
CONTINUOUS
10
8.0785222047244094
20
-3.9695225590551182
11
8.0752968110236214
21
-3.9631923622047243
0
LINE
8
BLACK
6
CONTINUOUS
10
8.0752968110236214
20
-3.9631923622047243
11
8.0731013779527565
21
-3.9564355118110237
0
LINE
8
BLACK
6
CONTINUOUS
10
8.0731013779527565
20
-3.9564355118110237
11
8.0719899606299208
21
-3.9494184251968503
0
LINE
8
BLACK
6
CONTINUOUS
10
8.0719899606299208
20
-3.9494184251968503
11
8.0719899606299208
21
-3.9423138582677164
0
LINE
8
BLACK
6
CONTINUOUS
10
8.0719899606299208
20
-3.9423138582677164
11
8.0720722047244085
21
-3.9417946456692912
0
LINE
8
BLACK
6
CONTINUOUS
10
8.0720722047244085
20
-3.9417946456692912
11
8.0731013779527565
21
-3.9352967716535434
0
LINE
8
BLACK
6
CONTINUOUS
10
8.0731013779527565
20
-3.9352967716535434
11
8.0752968110236214
21
-3.9285399212598424
0
LINE
8
BLACK
6
CONTINUOUS
10
8.0752968110236214
20
-3.9285399212598424
11
8.0785222047244094
21
-3.9222097244094489
0
LINE
8
BLACK
6
CONTINUOUS
10
8.0785222047244094
20
-3.9222097244094489
11
8.0826981496062995
21
-3.9164620078740158
0
LINE
8
BLACK
6
CONTINUOUS
10
8.0826981496062995
20
-3.9164620078740158
11
8.0877218503937005
21
-3.9114383070866139
0
LINE
8
BLACK
6
CONTINUOUS
10
8.0877218503937005
20
-3.9114383070866139
11
8.0934695669291337
21
-3.9072623622047242
0
LINE
8
BLACK
6
CONTINUOUS
10
8.0934695669291337
20
-3.9072623622047242
11
8.0997997637795276
21
-3.9040369685039371
0
LINE
8
BLACK
6
CONTINUOUS
10
8.0997997637795276
20
-3.9040369685039371
11
8.106556614173229
21
-3.9018415354330709
0
LINE
8
BLACK
6
CONTINUOUS
10
8.106556614173229
20
-3.9018415354330709
11
8.113573700787402
21
-3.9007301181102361
0
LINE
8
BLACK
6
CONTINUOUS
10
8.113573700787402
20
-3.9007301181102361
11
8.120678267716535
21
-3.9007301181102361
0
LINE
8
BLACK
6
CONTINUOUS
10
8.120678267716535
20
-3.9007301181102361
11
8.127695354330708
21
-3.9018415354330709
0
LINE
8
BLACK
6
CONTINUOUS
10
8.0757874015748037
20
-3.9499376377952755
11
8.0773759842519688
21
-3.9579241732283466
0
LINE
8
BLACK
6
CONTINUOUS
10
8.0773759842519688
20
-3.9579241732283466
11
8.0804922047244094
21
-3.9654473228346454
0
LINE
8
BLACK
6
CONTINUOUS
10
8.0804922047244094
20
-3.9654473228346454
11
8.0850161811023629
21
-3.9722179527559054
0
LINE
8
BLACK
6
CONTINUOUS
10
8.0850161811023629
20
-3.9722179527559054
11
8.0907741732283469
21
-3.9779759448818899
0
LINE
8
BLACK
6
CONTINUOUS
10
8.0907741732283469
20
-3.9779759448818899
11
8.0975448031496065
21
-3.9824999212598424
0
LINE
8
BLACK
6
CONTINUOUS
10
8.0975448031496065
20
-3.9824999212598424
11
8.1050679527559062
21
-3.9856161417322835
0
LINE
8
BLACK
6
CONTINUOUS
10
8.1050679527559062
20
-3.9856161417322835
11
8.1130544881889755
21
-3.9872047244094486
0
LINE
8
BLACK
6
CONTINUOUS
10
8.1130544881889755
20
-3.9872047244094486
11
8.1211974803149598
21
-3.9872047244094486
0
LINE
8
BLACK
6
CONTINUOUS
10
8.1211974803149598
20
-3.9872047244094486
11
8.1291840157480308
21
-3.9856161417322835
0
LINE
8
BLACK
6
CONTINUOUS
10
8.1291840157480308
20
-3.9856161417322835
11
8.1367071653543306
21
-3.9824999212598424
0
LINE
8
BLACK
6
CONTINUOUS
10
8.1367071653543306
20
-3.9824999212598424
11
8.1434777952755901
21
-3.9779759448818899
0
LINE
8
BLACK
6
CONTINUOUS
10
8.1434777952755901
20
-3.9779759448818899
11
8.1492357874015742
21
-3.9722179527559054
0
LINE
8
BLACK
6
CONTINUOUS
10
8.1492357874015742
20
-3.9722179527559054
11
8.1537597637795276
21
-3.9654473228346454
0
LINE
8
BLACK
6
CONTINUOUS
10
8.1537597637795276
20
-3.9654473228346454
11
8.1568759842519682
21
-3.9579241732283466
0
LINE
8
BLACK
6
CONTINUOUS
10
8.1568759842519682
20
-3.9579241732283466
11
8.1584645669291334
21
-3.9499376377952755
0
LINE
8
BLACK
6
CONTINUOUS
10
8.1584645669291334
20
-3.9499376377952755
11
8.1584645669291334
21
-3.9417946456692912
0
LINE
8
BLACK
6
CONTINUOUS
10
8.1584645669291334
20
-3.9417946456692912
11
8.1568759842519682
21
-3.9338081102362206
0
LINE
8
BLACK
6
CONTINUOUS
10
8.1568759842519682
20
-3.9338081102362206
11
8.1537597637795276
21
-3.9262849606299213
0
LINE
8
BLACK
6
CONTINUOUS
10
8.1537597637795276
20
-3.9262849606299213
11
8.1492357874015742
21
-3.9195143307086613
0
LINE
8
BLACK
6
CONTINUOUS
10
8.1492357874015742
20
-3.9195143307086613
11
8.1434777952755901
21
-3.9137563385826772
0
LINE
8
BLACK
6
CONTINUOUS
10
8.1434777952755901
20
-3.9137563385826772
11
8.1367071653543306
21
-3.9092323622047243
0
LINE
8
BLACK
6
CONTINUOUS
10
8.1367071653543306
20
-3.9092323622047243
11
8.1291840157480308
21
-3.9061161417322832
0
LINE
8
BLACK
6
CONTINUOUS
10
8.1291840157480308
20
-3.9061161417322832
11
8.1211974803149598
21
-3.9045275590551181
0
LINE
8
BLACK
6
CONTINUOUS
10
8.1211974803149598
20
-3.9045275590551181
11
8.1130544881889755
21
-3.9045275590551181
0
LINE
8
BLACK
6
CONTINUOUS
10
8.1130544881889755
20
-3.9045275590551181
11
8.1050679527559062
21
-3.9061161417322832
0
LINE
8
BLACK
6
CONTINUOUS
10
8.1050679527559062
20
-3.9061161417322832
11
8.0975448031496065
21
-3.9092323622047243
0
LINE
8
BLACK
6
CONTINUOUS
10
8.0975448031496065
20
-3.9092323622047243
11
8.0907741732283469
21
-3.9137563385826772
0
LINE
8
BLACK
6
CONTINUOUS
10
8.0907741732283469
20
-3.9137563385826772
11
8.0850161811023629
21
-3.9195143307086613
0
LINE
8
BLACK
6
CONTINUOUS
10
8.0850161811023629
20
-3.9195143307086613
11
8.0804922047244094
21
-3.9262849606299213
0
LINE
8
BLACK
6
CONTINUOUS
10
8.0804922047244094
20
-3.9262849606299213
11
8.0773759842519688
21
-3.9338081102362206
0
LINE
8
BLACK
6
CONTINUOUS
10
8.0773759842519688
20
-3.9338081102362206
11
8.0757874015748037
21
-3.9417946456692912
0
LINE
8
BLACK
6
CONTINUOUS
10
8.0757874015748037
20
-3.9417946456692912
11
8.0757874015748037
21
-3.9499376377952755
0
LINE
8
BLACK
6
CONTINUOUS
10
5.1296638582677163
20
-3.8053848425196848
11
5.1364207086614169
21
-3.807580275590551
0
LINE
8
BLACK
6
CONTINUOUS
10
5.1364207086614169
20
-3.807580275590551
11
5.1427509055118108
21
-3.8108056692913386
0
LINE
8
BLACK
6
CONTINUOUS
10
5.1427509055118108
20
-3.8108056692913386
11
5.148498622047244
21
-3.8149816141732282
0
LINE
8
BLACK
6
CONTINUOUS
10
5.148498622047244
20
-3.8149816141732282
11
5.1535223228346458
21
-3.8200053149606297
0
LINE
8
BLACK
6
CONTINUOUS
10
5.1535223228346458
20
-3.8200053149606297
11
5.1576982677165351
21
-3.8257530314960628
0
LINE
8
BLACK
6
CONTINUOUS
10
5.1576982677165351
20
-3.8257530314960628
11
5.1609236614173231
21
-3.8320832283464568
0
LINE
8
BLACK
6
CONTINUOUS
10
5.1609236614173231
20
-3.8320832283464568
11
5.1631190944881888
21
-3.8388400787401573
0
LINE
8
BLACK
6
CONTINUOUS
10
5.1631190944881888
20
-3.8388400787401573
11
5.1642305118110237
21
-3.8458571653543308
0
LINE
8
BLACK
6
CONTINUOUS
10
5.1642305118110237
20
-3.8458571653543308
11
5.1642305118110237
21
-3.8529617322834646
0
LINE
8
BLACK
6
CONTINUOUS
10
5.1642305118110237
20
-3.8529617322834646
11
5.1631190944881888
21
-3.8599788188976376
0
LINE
8
BLACK
6
CONTINUOUS
10
5.1631190944881888
20
-3.8599788188976376
11
5.1609236614173231
21
-3.8667356692913386
0
LINE
8
BLACK
6
CONTINUOUS
10
5.1609236614173231
20
-3.8667356692913386
11
5.1576982677165351
21
-3.8730658661417321
0
LINE
8
BLACK
6
CONTINUOUS
10
5.1576982677165351
20
-3.8730658661417321
11
5.1535223228346458
21
-3.8788135826771653
0
LINE
8
BLACK
6
CONTINUOUS
10
5.1535223228346458
20
-3.8788135826771653
11
5.148498622047244
21
-3.8838372834645667
0
LINE
8
BLACK
6
CONTINUOUS
10
5.148498622047244
20
-3.8838372834645667
11
5.1427509055118108
21
-3.8880132283464568
0
LINE
8
BLACK
6
CONTINUOUS
10
5.1427509055118108
20
-3.8880132283464568
11
5.1364207086614169
21
-3.8912386220472439
0
LINE
8
BLACK
6
CONTINUOUS
10
5.1364207086614169
20
-3.8912386220472439
11
5.1296638582677163
21
-3.8934340551181101
0
LINE
8
BLACK
6
CONTINUOUS
10
5.1296638582677163
20
-3.8934340551181101
11
5.1226467716535433
21
-3.894545472440945
0
LINE
8
BLACK
6
CONTINUOUS
10
5.1226467716535433
20
-3.894545472440945
11
5.1155422047244095
21
-3.894545472440945
0
LINE
8
BLACK
6
CONTINUOUS
10
5.1155422047244095
20
-3.894545472440945
11
5.1085251181102365
21
-3.8934340551181101
0
LINE
8
BLACK
6
CONTINUOUS
10
5.1085251181102365
20
-3.8934340551181101
11
5.101768267716535
21
-3.8912386220472439
0
LINE
8
BLACK
6
CONTINUOUS
10
5.101768267716535
20
-3.8912386220472439
11
5.095438070866142
21
-3.8880132283464568
0
LINE
8
BLACK
6
CONTINUOUS
10
5.095438070866142
20
-3.8880132283464568
11
5.0896903543307088
21
-3.8838372834645667
0
LINE
8
BLACK
6
CONTINUOUS
10
5.0896903543307088
20
-3.8838372834645667
11
5.0846666535433069
21
-3.8788135826771653
0
LINE
8
BLACK
6
CONTINUOUS
10
5.0846666535433069
20
-3.8788135826771653
11
5.0804907086614168
21
-3.8730658661417321
0
LINE
8
BLACK
6
CONTINUOUS
10
5.0804907086614168
20
-3.8730658661417321
11
5.0772653149606297
21
-3.8667356692913386
0
LINE
8
BLACK
6
CONTINUOUS
10
5.0772653149606297
20
-3.8667356692913386
11
5.0750698818897639
21
-3.8599788188976376
0
LINE
8
BLACK
6
CONTINUOUS
10
5.0750698818897639
20
-3.8599788188976376
11
5.0739584645669291
21
-3.8529617322834646
0
LINE
8
BLACK
6
CONTINUOUS
10
5.0739584645669291
20
-3.8529617322834646
11
5.0739584645669291
21
-3.8458571653543308
0
LINE
8
BLACK
6
CONTINUOUS
10
5.0739584645669291
20
-3.8458571653543308
11
5.0740407086614168
21
-3.8453379527559055
0
LINE
8
BLACK
6
CONTINUOUS
10
5.0740407086614168
20
-3.8453379527559055
11
5.0750698818897639
21
-3.8388400787401573
0
LINE
8
BLACK
6
CONTINUOUS
10
5.0750698818897639
20
-3.8388400787401573
11
5.0772653149606297
21
-3.8320832283464568
0
LINE
8
BLACK
6
CONTINUOUS
10
5.0772653149606297
20
-3.8320832283464568
11
5.0804907086614168
21
-3.8257530314960628
0
LINE
8
BLACK
6
CONTINUOUS
10
5.0804907086614168
20
-3.8257530314960628
11
5.0846666535433069
21
-3.8200053149606297
0
LINE
8
BLACK
6
CONTINUOUS
10
5.0846666535433069
20
-3.8200053149606297
11
5.0896903543307088
21
-3.8149816141732282
0
LINE
8
BLACK
6
CONTINUOUS
10
5.0896903543307088
20
-3.8149816141732282
11
5.095438070866142
21
-3.8108056692913386
0
LINE
8
BLACK
6
CONTINUOUS
10
5.095438070866142
20
-3.8108056692913386
11
5.101768267716535
21
-3.807580275590551
0
LINE
8
BLACK
6
CONTINUOUS
10
5.101768267716535
20
-3.807580275590551
11
5.1085251181102365
21
-3.8053848425196848
0
LINE
8
BLACK
6
CONTINUOUS
10
5.1085251181102365
20
-3.8053848425196848
11
5.1155422047244095
21
-3.8042734251968504
0
LINE
8
BLACK
6
CONTINUOUS
10
5.1155422047244095
20
-3.8042734251968504
11
5.1226467716535433
21
-3.8042734251968504
0
LINE
8
BLACK
6
CONTINUOUS
10
5.1226467716535433
20
-3.8042734251968504
11
5.1296638582677163
21
-3.8053848425196848
0
LINE
8
BLACK
6
CONTINUOUS
10
5.0777559055118111
20
-3.8534809448818899
11
5.0793444881889762
21
-3.8614674803149605
0
LINE
8
BLACK
6
CONTINUOUS
10
5.0793444881889762
20
-3.8614674803149605
11
5.0824607086614169
21
-3.8689906299212597
0
LINE
8
BLACK
6
CONTINUOUS
10
5.0824607086614169
20
-3.8689906299212597
11
5.0869846850393703
21
-3.8757612598425197
0
LINE
8
BLACK
6
CONTINUOUS
10
5.0869846850393703
20
-3.8757612598425197
11
5.0927426771653543
21
-3.8815192519685038
0
LINE
8
BLACK
6
CONTINUOUS
10
5.0927426771653543
20
-3.8815192519685038
11
5.0995133070866139
21
-3.8860432283464568
0
LINE
8
BLACK
6
CONTINUOUS
10
5.0995133070866139
20
-3.8860432283464568
11
5.1070364566929136
21
-3.8891594488188974
0
LINE
8
BLACK
6
CONTINUOUS
10
5.1070364566929136
20
-3.8891594488188974
11
5.1150229921259838
21
-3.890748031496063
0
LINE
8
BLACK
6
CONTINUOUS
10
5.1150229921259838
20
-3.890748031496063
11
5.1231659842519681
21
-3.890748031496063
0
LINE
8
BLACK
6
CONTINUOUS
10
5.1231659842519681
20
-3.890748031496063
11
5.1311525196850392
21
-3.8891594488188974
0
LINE
8
BLACK
6
CONTINUOUS
10
5.1311525196850392
20
-3.8891594488188974
11
5.1386756692913389
21
-3.8860432283464568
0
LINE
8
BLACK
6
CONTINUOUS
10
5.1386756692913389
20
-3.8860432283464568
11
5.1454462992125984
21
-3.8815192519685038
0
LINE
8
BLACK
6
CONTINUOUS
10
5.1454462992125984
20
-3.8815192519685038
11
5.1512042913385825
21
-3.8757612598425197
0
LINE
8
BLACK
6
CONTINUOUS
10
5.1512042913385825
20
-3.8757612598425197
11
5.155728267716535
21
-3.8689906299212597
0
LINE
8
BLACK
6
CONTINUOUS
10
5.155728267716535
20
-3.8689906299212597
11
5.1588444881889766
21
-3.8614674803149605
0
LINE
8
BLACK
6
CONTINUOUS
10
5.1588444881889766
20
-3.8614674803149605
11
5.1604330708661417
21
-3.8534809448818899
0
LINE
8
BLACK
6
CONTINUOUS
10
5.1604330708661417
20
-3.8534809448818899
11
5.1604330708661417
21
-3.8453379527559055
0
LINE
8
BLACK
6
CONTINUOUS
10
5.1604330708661417
20
-3.8453379527559055
11
5.1588444881889766
21
-3.8373514173228345
0
LINE
8
BLACK
6
CONTINUOUS
10
5.1588444881889766
20
-3.8373514173228345
11
5.155728267716535
21
-3.8298282677165352
0
LINE
8
BLACK
6
CONTINUOUS
10
5.155728267716535
20
-3.8298282677165352
11
5.1512042913385825
21
-3.8230576377952756
0
LINE
8
BLACK
6
CONTINUOUS
10
5.1512042913385825
20
-3.8230576377952756
11
5.1454462992125984
21
-3.8172996456692911
0
LINE
8
BLACK
6
CONTINUOUS
10
5.1454462992125984
20
-3.8172996456692911
11
5.1386756692913389
21
-3.8127756692913386
0
LINE
8
BLACK
6
CONTINUOUS
10
5.1386756692913389
20
-3.8127756692913386
11
5.1311525196850392
21
-3.8096594488188975
0
LINE
8
BLACK
6
CONTINUOUS
10
5.1311525196850392
20
-3.8096594488188975
11
5.1231659842519681
21
-3.8080708661417324
0
LINE
8
BLACK
6
CONTINUOUS
10
5.1231659842519681
20
-3.8080708661417324
11
5.1150229921259838
21
-3.8080708661417324
0
LINE
8
BLACK
6
CONTINUOUS
10
5.1150229921259838
20
-3.8080708661417324
11
5.1070364566929136
21
-3.8096594488188975
0
LINE
8
BLACK
6
CONTINUOUS
10
5.1070364566929136
20
-3.8096594488188975
11
5.0995133070866139
21
-3.8127756692913386
0
LINE
8
BLACK
6
CONTINUOUS
10
5.0995133070866139
20
-3.8127756692913386
11
5.0927426771653543
21
-3.8172996456692911
0
LINE
8
BLACK
6
CONTINUOUS
10
5.0927426771653543
20
-3.8172996456692911
11
5.0869846850393703
21
-3.8230576377952756
0
LINE
8
BLACK
6
CONTINUOUS
10
5.0869846850393703
20
-3.8230576377952756
11
5.0824607086614169
21
-3.8298282677165352
0
LINE
8
BLACK
6
CONTINUOUS
10
5.0824607086614169
20
-3.8298282677165352
11
5.0793444881889762
21
-3.8373514173228345
0
LINE
8
BLACK
6
CONTINUOUS
10
5.0793444881889762
20
-3.8373514173228345
11
5.0777559055118111
21
-3.8453379527559055
0
LINE
8
BLACK
6
CONTINUOUS
10
5.0777559055118111
20
-3.8453379527559055
11
5.0777559055118111
21
-3.8534809448818899
0
LINE
8
BLACK
6
CONTINUOUS
10
3.6136244881889761
20
-3.6449517716535431
11
3.6203813385826771
21
-3.6471472047244093
0
LINE
8
BLACK
6
CONTINUOUS
10
3.6203813385826771
20
-3.6471472047244093
11
3.6267115354330706
21
-3.6503725984251969
0
LINE
8
BLACK
6
CONTINUOUS
10
3.6267115354330706
20
-3.6503725984251969
11
3.6324592519685037
21
-3.6545485433070866
0
LINE
8
BLACK
6
CONTINUOUS
10
3.6324592519685037
20
-3.6545485433070866
11
3.6374829527559056
21
-3.659572244094488
0
LINE
8
BLACK
6
CONTINUOUS
10
3.6374829527559056
20
-3.659572244094488
11
3.6416588976377953
21
-3.6653199606299212
0
LINE
8
BLACK
6
CONTINUOUS
10
3.6416588976377953
20
-3.6653199606299212
11
3.6448842913385824
21
-3.6716501574803151
0
LINE
8
BLACK
6
CONTINUOUS
10
3.6448842913385824
20
-3.6716501574803151
11
3.6470797244094486
21
-3.6784070078740156
0
LINE
8
BLACK
6
CONTINUOUS
10
3.6470797244094486
20
-3.6784070078740156
11
3.6481911417322834
21
-3.6854240944881891
0
LINE
8
BLACK
6
CONTINUOUS
10
3.6481911417322834
20
-3.6854240944881891
11
3.6481911417322834
21
-3.6925286614173229
0
LINE
8
BLACK
6
CONTINUOUS
10
3.6481911417322834
20
-3.6925286614173229
11
3.6470797244094486
21
-3.6995457480314959
0
LINE
8
BLACK
6
CONTINUOUS
10
3.6470797244094486
20
-3.6995457480314959
11
3.6448842913385824
21
-3.7063025984251969
0
LINE
8
BLACK
6
CONTINUOUS
10
3.6448842913385824
20
-3.7063025984251969
11
3.6416588976377953
21
-3.7126327952755904
0
LINE
8
BLACK
6
CONTINUOUS
10
3.6416588976377953
20
-3.7126327952755904
11
3.6374829527559056
21
-3.7183805118110236
0
LINE
8
BLACK
6
CONTINUOUS
10
3.6374829527559056
20
-3.7183805118110236
11
3.6324592519685037
21
-3.723404212598425
0
LINE
8
BLACK
6
CONTINUOUS
10
3.6324592519685037
20
-3.723404212598425
11
3.6267115354330706
21
-3.7275801574803147
0
LINE
8
BLACK
6
CONTINUOUS
10
3.6267115354330706
20
-3.7275801574803147
11
3.6203813385826771
21
-3.7308055511811022
0
LINE
8
BLACK
6
CONTINUOUS
10
3.6203813385826771
20
-3.7308055511811022
11
3.6136244881889761
21
-3.7330009842519685
0
LINE
8
BLACK
6
CONTINUOUS
10
3.6136244881889761
20
-3.7330009842519685
11
3.6066074015748031
21
-3.7341124015748033
0
LINE
8
BLACK
6
CONTINUOUS
10
3.6066074015748031
20
-3.7341124015748033
11
3.5995028346456692
21
-3.7341124015748033
0
LINE
8
BLACK
6
CONTINUOUS
10
3.5995028346456692
20
-3.7341124015748033
11
3.5924857480314958
21
-3.7330009842519685
0
LINE
8
BLACK
6
CONTINUOUS
10
3.5924857480314958
20
-3.7330009842519685
11
3.5857288976377952
21
-3.7308055511811022
0
LINE
8
BLACK
6
CONTINUOUS
10
3.5857288976377952
20
-3.7308055511811022
11
3.5793987007874013
21
-3.7275801574803147
0
LINE
8
BLACK
6
CONTINUOUS
10
3.5793987007874013
20
-3.7275801574803147
11
3.5736509842519686
21
-3.723404212598425
0
LINE
8
BLACK
6
CONTINUOUS
10
3.5736509842519686
20
-3.723404212598425
11
3.5686272834645667
21
-3.7183805118110236
0
LINE
8
BLACK
6
CONTINUOUS
10
3.5686272834645667
20
-3.7183805118110236
11
3.564451338582677
21
-3.7126327952755904
0
LINE
8
BLACK
6
CONTINUOUS
10
3.564451338582677
20
-3.7126327952755904
11
3.5612259448818895
21
-3.7063025984251969
0
LINE
8
BLACK
6
CONTINUOUS
10
3.5612259448818895
20
-3.7063025984251969
11
3.5590305118110237
21
-3.6995457480314959
0
LINE
8
BLACK
6
CONTINUOUS
10
3.5590305118110237
20
-3.6995457480314959
11
3.5579190944881889
21
-3.6925286614173229
0
LINE
8
BLACK
6
CONTINUOUS
10
3.5579190944881889
20
-3.6925286614173229
11
3.5579190944881889
21
-3.6854240944881891
0
LINE
8
BLACK
6
CONTINUOUS
10
3.5579190944881889
20
-3.6854240944881891
11
3.558001338582677
21
-3.6849048818897638
0
LINE
8
BLACK
6
CONTINUOUS
10
3.558001338582677
20
-3.6849048818897638
11
3.5590305118110237
21
-3.6784070078740156
0
LINE
8
BLACK
6
CONTINUOUS
10
3.5590305118110237
20
-3.6784070078740156
11
3.5612259448818895
21
-3.6716501574803151
0
LINE
8
BLACK
6
CONTINUOUS
10
3.5612259448818895
20
-3.6716501574803151
11
3.564451338582677
21
-3.6653199606299212
0
LINE
8
BLACK
6
CONTINUOUS
10
3.564451338582677
20
-3.6653199606299212
11
3.5686272834645667
21
-3.659572244094488
0
LINE
8
BLACK
6
CONTINUOUS
10
3.5686272834645667
20
-3.659572244094488
11
3.5736509842519686
21
-3.6545485433070866
0
LINE
8
BLACK
6
CONTINUOUS
10
3.5736509842519686
20
-3.6545485433070866
11
3.5793987007874013
21
-3.6503725984251969
0
LINE
8
BLACK
6
CONTINUOUS
10
3.5793987007874013
20
-3.6503725984251969
11
3.5857288976377952
21
-3.6471472047244093
0
LINE
8
BLACK
6
CONTINUOUS
10
3.5857288976377952
20
-3.6471472047244093
11
3.5924857480314958
21
-3.6449517716535431
0
LINE
8
BLACK
6
CONTINUOUS
10
3.5924857480314958
20
-3.6449517716535431
11
3.5995028346456692
21
-3.6438403543307087
0
LINE
8
BLACK
6
CONTINUOUS
10
3.5995028346456692
20
-3.6438403543307087
11
3.6066074015748031
21
-3.6438403543307087
0
LINE
8
BLACK
6
CONTINUOUS
10
3.6066074015748031
20
-3.6438403543307087
11
3.6136244881889761
21
-3.6449517716535431
0
LINE
8
BLACK
6
CONTINUOUS
10
3.5617165354330709
20
-3.6930478740157477
11
3.563305118110236
21
-3.7010344094488188
0
LINE
8
BLACK
6
CONTINUOUS
10
3.563305118110236
20
-3.7010344094488188
11
3.5664213385826771
21
-3.7085575590551181
0
LINE
8
BLACK
6
CONTINUOUS
10
3.5664213385826771
20
-3.7085575590551181
11
3.5709453149606301
21
-3.7153281889763781
0
LINE
8
BLACK
6
CONTINUOUS
10
3.5709453149606301
20
-3.7153281889763781
11
3.5767033070866141
21
-3.7210861811023621
0
LINE
8
BLACK
6
CONTINUOUS
10
3.5767033070866141
20
-3.7210861811023621
11
3.5834739370078741
21
-3.7256101574803147
0
LINE
8
BLACK
6
CONTINUOUS
10
3.5834739370078741
20
-3.7256101574803147
11
3.5909970866141729
21
-3.7287263779527557
0
LINE
8
BLACK
6
CONTINUOUS
10
3.5909970866141729
20
-3.7287263779527557
11
3.598983622047244
21
-3.7303149606299213
0
LINE
8
BLACK
6
CONTINUOUS
10
3.598983622047244
20
-3.7303149606299213
11
3.6071266141732283
21
-3.7303149606299213
0
LINE
8
BLACK
6
CONTINUOUS
10
3.6071266141732283
20
-3.7303149606299213
11
3.6151131496062989
21
-3.7287263779527557
0
LINE
8
BLACK
6
CONTINUOUS
10
3.6151131496062989
20
-3.7287263779527557
11
3.6226362992125982
21
-3.7256101574803147
0
LINE
8
BLACK
6
CONTINUOUS
10
3.6226362992125982
20
-3.7256101574803147
11
3.6294069291338582
21
-3.7210861811023621
0
LINE
8
BLACK
6
CONTINUOUS
10
3.6294069291338582
20
-3.7210861811023621
11
3.6351649212598423
21
-3.7153281889763781
0
LINE
8
BLACK
6
CONTINUOUS
10
3.6351649212598423
20
-3.7153281889763781
11
3.6396888976377952
21
-3.7085575590551181
0
LINE
8
BLACK
6
CONTINUOUS
10
3.6396888976377952
20
-3.7085575590551181
11
3.6428051181102363
21
-3.7010344094488188
0
LINE
8
BLACK
6
CONTINUOUS
10
3.6428051181102363
20
-3.7010344094488188
11
3.6443937007874014
21
-3.6930478740157477
0
LINE
8
BLACK
6
CONTINUOUS
10
3.6443937007874014
20
-3.6930478740157477
11
3.6443937007874014
21
-3.6849048818897638
0
LINE
8
BLACK
6
CONTINUOUS
10
3.6443937007874014
20
-3.6849048818897638
11
3.6428051181102363
21
-3.6769183464566928
0
LINE
8
BLACK
6
CONTINUOUS
10
3.6428051181102363
20
-3.6769183464566928
11
3.6396888976377952
21
-3.6693951968503935
0
LINE
8
BLACK
6
CONTINUOUS
10
3.6396888976377952
20
-3.6693951968503935
11
3.6351649212598423
21
-3.662624566929134
0
LINE
8
BLACK
6
CONTINUOUS
10
3.6351649212598423
20
-3.662624566929134
11
3.6294069291338582
21
-3.6568665748031495
0
LINE
8
BLACK
6
CONTINUOUS
10
3.6294069291338582
20
-3.6568665748031495
11
3.6226362992125982
21
-3.6523425984251969
0
LINE
8
BLACK
6
CONTINUOUS
10
3.6226362992125982
20
-3.6523425984251969
11
3.6151131496062989
21
-3.6492263779527558
0
LINE
8
BLACK
6
CONTINUOUS
10
3.6151131496062989
20
-3.6492263779527558
11
3.6071266141732283
21
-3.6476377952755903
0
LINE
8
BLACK
6
CONTINUOUS
10
3.6071266141732283
20
-3.6476377952755903
11
3.598983622047244
21
-3.6476377952755903
0
LINE
8
BLACK
6
CONTINUOUS
10
3.598983622047244
20
-3.6476377952755903
11
3.5909970866141729
21
-3.6492263779527558
0
LINE
8
BLACK
6
CONTINUOUS
10
3.5909970866141729
20
-3.6492263779527558
11
3.5834739370078741
21
-3.6523425984251969
0
LINE
8
BLACK
6
CONTINUOUS
10
3.5834739370078741
20
-3.6523425984251969
11
3.5767033070866141
21
-3.6568665748031495
0
LINE
8
BLACK
6
CONTINUOUS
10
3.5767033070866141
20
-3.6568665748031495
11
3.5709453149606301
21
-3.662624566929134
0
LINE
8
BLACK
6
CONTINUOUS
10
3.5709453149606301
20
-3.662624566929134
11
3.5664213385826771
21
-3.6693951968503935
0
LINE
8
BLACK
6
CONTINUOUS
10
3.5664213385826771
20
-3.6693951968503935
11
3.563305118110236
21
-3.6769183464566928
0
LINE
8
BLACK
6
CONTINUOUS
10
3.563305118110236
20
-3.6769183464566928
11
3.5617165354330709
21
-3.6849048818897638
0
LINE
8
BLACK
6
CONTINUOUS
10
3.5617165354330709
20
-3.6849048818897638
11
3.5617165354330709
21
-3.6930478740157477
0
LINE
8
BLACK
6
CONTINUOUS
10
4.2238607086614168
20
-3.6449517716535431
11
4.2306175590551183
21
-3.6471472047244093
0
LINE
8
BLACK
6
CONTINUOUS
10
4.2306175590551183
20
-3.6471472047244093
11
4.2369477559055113
21
-3.6503725984251969
0
LINE
8
BLACK
6
CONTINUOUS
10
4.2369477559055113
20
-3.6503725984251969
11
4.2426954724409445
21
-3.6545485433070866
0
LINE
8
BLACK
6
CONTINUOUS
10
4.2426954724409445
20
-3.6545485433070866
11
4.2477191732283464
21
-3.659572244094488
0
LINE
8
BLACK
6
CONTINUOUS
10
4.2477191732283464
20
-3.659572244094488
11
4.2518951181102365
21
-3.6653199606299212
0
LINE
8
BLACK
6
CONTINUOUS
10
4.2518951181102365
20
-3.6653199606299212
11
4.2551205118110236
21
-3.6716501574803151
0
LINE
8
BLACK
6
CONTINUOUS
10
4.2551205118110236
20
-3.6716501574803151
11
4.2573159448818894
21
-3.6784070078740156
0
LINE
8
BLACK
6
CONTINUOUS
10
4.2573159448818894
20
-3.6784070078740156
11
4.2584273622047242
21
-3.6854240944881891
0
LINE
8
BLACK
6
CONTINUOUS
10
4.2584273622047242
20
-3.6854240944881891
11
4.2584273622047242
21
-3.6925286614173229
0
LINE
8
BLACK
6
CONTINUOUS
10
4.2584273622047242
20
-3.6925286614173229
11
4.2573159448818894
21
-3.6995457480314959
0
LINE
8
BLACK
6
CONTINUOUS
10
4.2573159448818894
20
-3.6995457480314959
11
4.2551205118110236
21
-3.7063025984251969
0
LINE
8
BLACK
6
CONTINUOUS
10
4.2551205118110236
20
-3.7063025984251969
11
4.2518951181102365
21
-3.7126327952755904
0
LINE
8
BLACK
6
CONTINUOUS
10
4.2518951181102365
20
-3.7126327952755904
11
4.2477191732283464
21
-3.7183805118110236
0
LINE
8
BLACK
6
CONTINUOUS
10
4.2477191732283464
20
-3.7183805118110236
11
4.2426954724409445
21
-3.723404212598425
0
LINE
8
BLACK
6
CONTINUOUS
10
4.2426954724409445
20
-3.723404212598425
11
4.2369477559055113
21
-3.7275801574803147
0
LINE
8
BLACK
6
CONTINUOUS
10
4.2369477559055113
20
-3.7275801574803147
11
4.2306175590551183
21
-3.7308055511811022
0
LINE
8
BLACK
6
CONTINUOUS
10
4.2306175590551183
20
-3.7308055511811022
11
4.2238607086614168
21
-3.7330009842519685
0
LINE
8
BLACK
6
CONTINUOUS
10
4.2238607086614168
20
-3.7330009842519685
11
4.2168436220472438
21
-3.7341124015748033
0
LINE
8
BLACK
6
CONTINUOUS
10
4.2168436220472438
20
-3.7341124015748033
11
4.20973905511811
21
-3.7341124015748033
0
LINE
8
BLACK
6
CONTINUOUS
10
4.20973905511811
20
-3.7341124015748033
11
4.202721968503937
21
-3.7330009842519685
0
LINE
8
BLACK
6
CONTINUOUS
10
4.202721968503937
20
-3.7330009842519685
11
4.1959651181102364
21
-3.7308055511811022
0
LINE
8
BLACK
6
CONTINUOUS
10
4.1959651181102364
20
-3.7308055511811022
11
4.1896349212598425
21
-3.7275801574803147
0
LINE
8
BLACK
6
CONTINUOUS
10
4.1896349212598425
20
-3.7275801574803147
11
4.1838872047244093
21
-3.723404212598425
0
LINE
8
BLACK
6
CONTINUOUS
10
4.1838872047244093
20
-3.723404212598425
11
4.1788635039370075
21
-3.7183805118110236
0
LINE
8
BLACK
6
CONTINUOUS
10
4.1788635039370075
20
-3.7183805118110236
11
4.1746875590551182
21
-3.7126327952755904
0
LINE
8
BLACK
6
CONTINUOUS
10
4.1746875590551182
20
-3.7126327952755904
11
4.1714621653543302
21
-3.7063025984251969
0
LINE
8
BLACK
6
CONTINUOUS
10
4.1714621653543302
20
-3.7063025984251969
11
4.1692667322834644
21
-3.6995457480314959
0
LINE
8
BLACK
6
CONTINUOUS
10
4.1692667322834644
20
-3.6995457480314959
11
4.1681553149606296
21
-3.6925286614173229
0
LINE
8
BLACK
6
CONTINUOUS
10
4.1681553149606296
20
-3.6925286614173229
11
4.1681553149606296
21
-3.6854240944881891
0
LINE
8
BLACK
6
CONTINUOUS
10
4.1681553149606296
20
-3.6854240944881891
11
4.1682375590551182
21
-3.6849048818897638
0
LINE
8
BLACK
6
CONTINUOUS
10
4.1682375590551182
20
-3.6849048818897638
11
4.1692667322834644
21
-3.6784070078740156
0
LINE
8
BLACK
6
CONTINUOUS
10
4.1692667322834644
20
-3.6784070078740156
11
4.1714621653543302
21
-3.6716501574803151
0
LINE
8
BLACK
6
CONTINUOUS
10
4.1714621653543302
20
-3.6716501574803151
11
4.1746875590551182
21
-3.6653199606299212
0
LINE
8
BLACK
6
CONTINUOUS
10
4.1746875590551182
20
-3.6653199606299212
11
4.1788635039370075
21
-3.659572244094488
0
LINE
8
BLACK
6
CONTINUOUS
10
4.1788635039370075
20
-3.659572244094488
11
4.1838872047244093
21
-3.6545485433070866
0
LINE
8
BLACK
6
CONTINUOUS
10
4.1838872047244093
20
-3.6545485433070866
11
4.1896349212598425
21
-3.6503725984251969
0
LINE
8
BLACK
6
CONTINUOUS
10
4.1896349212598425
20
-3.6503725984251969
11
4.1959651181102364
21
-3.6471472047244093
0
LINE
8
BLACK
6
CONTINUOUS
10
4.1959651181102364
20
-3.6471472047244093
11
4.202721968503937
21
-3.6449517716535431
0
LINE
8
BLACK
6
CONTINUOUS
10
4.202721968503937
20
-3.6449517716535431
11
4.20973905511811
21
-3.6438403543307087
0
LINE
8
BLACK
6
CONTINUOUS
10
4.20973905511811
20
-3.6438403543307087
11
4.2168436220472438
21
-3.6438403543307087
0
LINE
8
BLACK
6
CONTINUOUS
10
4.2168436220472438
20
-3.6438403543307087
11
4.2238607086614168
21
-3.6449517716535431
0
LINE
8
BLACK
6
CONTINUOUS
10
4.1719527559055116
20
-3.6930478740157477
11
4.1735413385826767
21
-3.7010344094488188
0
LINE
8
BLACK
6
CONTINUOUS
10
4.1735413385826767
20
-3.7010344094488188
11
4.1766575590551183
21
-3.7085575590551181
0
LINE
8
BLACK
6
CONTINUOUS
10
4.1766575590551183
20
-3.7085575590551181
11
4.1811815354330708
21
-3.7153281889763781
0
LINE
8
BLACK
6
CONTINUOUS
10
4.1811815354330708
20
-3.7153281889763781
11
4.1869395275590549
21
-3.7210861811023621
0
LINE
8
BLACK
6
CONTINUOUS
10
4.1869395275590549
20
-3.7210861811023621
11
4.1937101574803153
21
-3.7256101574803147
0
LINE
8
BLACK
6
CONTINUOUS
10
4.1937101574803153
20
-3.7256101574803147
11
4.2012333070866141
21
-3.7287263779527557
0
LINE
8
BLACK
6
CONTINUOUS
10
4.2012333070866141
20
-3.7287263779527557
11
4.2092198425196852
21
-3.7303149606299213
0
LINE
8
BLACK
6
CONTINUOUS
10
4.2092198425196852
20
-3.7303149606299213
11
4.2173628346456695
21
-3.7303149606299213
0
LINE
8
BLACK
6
CONTINUOUS
10
4.2173628346456695
20
-3.7303149606299213
11
4.2253493700787397
21
-3.7287263779527557
0
LINE
8
BLACK
6
CONTINUOUS
10
4.2253493700787397
20
-3.7287263779527557
11
4.2328725196850394
21
-3.7256101574803147
0
LINE
8
BLACK
6
CONTINUOUS
10
4.2328725196850394
20
-3.7256101574803147
11
4.239643149606299
21
-3.7210861811023621
0
LINE
8
BLACK
6
CONTINUOUS
10
4.239643149606299
20
-3.7210861811023621
11
4.245401141732283
21
-3.7153281889763781
0
LINE
8
BLACK
6
CONTINUOUS
10
4.245401141732283
20
-3.7153281889763781
11
4.2499251181102364
21
-3.7085575590551181
0
LINE
8
BLACK
6
CONTINUOUS
10
4.2499251181102364
20
-3.7085575590551181
11
4.2530413385826771
21
-3.7010344094488188
0
LINE
8
BLACK
6
CONTINUOUS
10
4.2530413385826771
20
-3.7010344094488188
11
4.2546299212598422
21
-3.6930478740157477
0
LINE
8
BLACK
6
CONTINUOUS
10
4.2546299212598422
20
-3.6930478740157477
11
4.2546299212598422
21
-3.6849048818897638
0
LINE
8
BLACK
6
CONTINUOUS
10
4.2546299212598422
20
-3.6849048818897638
11
4.2530413385826771
21
-3.6769183464566928
0
LINE
8
BLACK
6
CONTINUOUS
10
4.2530413385826771
20
-3.6769183464566928
11
4.2499251181102364
21
-3.6693951968503935
0
LINE
8
BLACK
6
CONTINUOUS
10
4.2499251181102364
20
-3.6693951968503935
11
4.245401141732283
21
-3.662624566929134
0
LINE
8
BLACK
6
CONTINUOUS
10
4.245401141732283
20
-3.662624566929134
11
4.239643149606299
21
-3.6568665748031495
0
LINE
8
BLACK
6
CONTINUOUS
10
4.239643149606299
20
-3.6568665748031495
11
4.2328725196850394
21
-3.6523425984251969
0
LINE
8
BLACK
6
CONTINUOUS
10
4.2328725196850394
20
-3.6523425984251969
11
4.2253493700787397
21
-3.6492263779527558
0
LINE
8
BLACK
6
CONTINUOUS
10
4.2253493700787397
20
-3.6492263779527558
11
4.2173628346456695
21
-3.6476377952755903
0
LINE
8
BLACK
6
CONTINUOUS
10
4.2173628346456695
20
-3.6476377952755903
11
4.2092198425196852
21
-3.6476377952755903
0
LINE
8
BLACK
6
CONTINUOUS
10
4.2092198425196852
20
-3.6476377952755903
11
4.2012333070866141
21
-3.6492263779527558
0
LINE
8
BLACK
6
CONTINUOUS
10
4.2012333070866141
20
-3.6492263779527558
11
4.1937101574803153
21
-3.6523425984251969
0
LINE
8
BLACK
6
CONTINUOUS
10
4.1937101574803153
20
-3.6523425984251969
11
4.1869395275590549
21
-3.6568665748031495
0
LINE
8
BLACK
6
CONTINUOUS
10
4.1869395275590549
20
-3.6568665748031495
11
4.1811815354330708
21
-3.662624566929134
0
LINE
8
BLACK
6
CONTINUOUS
10
4.1811815354330708
20
-3.662624566929134
11
4.1766575590551183
21
-3.6693951968503935
0
LINE
8
BLACK
6
CONTINUOUS
10
4.1766575590551183
20
-3.6693951968503935
11
4.1735413385826767
21
-3.6769183464566928
0
LINE
8
BLACK
6
CONTINUOUS
10
4.1735413385826767
20
-3.6769183464566928
11
4.1719527559055116
21
-3.6849048818897638
0
LINE
8
BLACK
6
CONTINUOUS
10
4.1719527559055116
20
-3.6849048818897638
11
4.1719527559055116
21
-3.6930478740157477
0
LINE
8
BLACK
6
CONTINUOUS
10
8.1296638582677172
20
-2.3959360236220473
11
8.1364207086614169
21
-2.3981314566929135
0
LINE
8
BLACK
6
CONTINUOUS
10
8.1364207086614169
20
-2.3981314566929135
11
8.1427509055118108
21
-2.4013568503937006
0
LINE
8
BLACK
6
CONTINUOUS
10
8.1427509055118108
20
-2.4013568503937006
11
8.148498622047244
21
-2.4055327952755907
0
LINE
8
BLACK
6
CONTINUOUS
10
8.148498622047244
20
-2.4055327952755907
11
8.153522322834645
21
-2.4105564960629922
0
LINE
8
BLACK
6
CONTINUOUS
10
8.153522322834645
20
-2.4105564960629922
11
8.1576982677165351
21
-2.4163042125984253
0
LINE
8
BLACK
6
CONTINUOUS
10
8.1576982677165351
20
-2.4163042125984253
11
8.1609236614173231
21
-2.4226344094488188
0
LINE
8
BLACK
6
CONTINUOUS
10
8.1609236614173231
20
-2.4226344094488188
11
8.163119094488188
21
-2.4293912598425198
0
LINE
8
BLACK
6
CONTINUOUS
10
8.163119094488188
20
-2.4293912598425198
11
8.1642305118110237
21
-2.4364083464566928
0
LINE
8
BLACK
6
CONTINUOUS
10
8.1642305118110237
20
-2.4364083464566928
11
8.1642305118110237
21
-2.4435129133858267
0
LINE
8
BLACK
6
CONTINUOUS
10
8.1642305118110237
20
-2.4435129133858267
11
8.163119094488188
21
-2.4505300000000001
0
LINE
8
BLACK
6
CONTINUOUS
10
8.163119094488188
20
-2.4505300000000001
11
8.1609236614173231
21
-2.4572868503937007
0
LINE
8
BLACK
6
CONTINUOUS
10
8.1609236614173231
20
-2.4572868503937007
11
8.1576982677165351
21
-2.4636170472440946
0
LINE
8
BLACK
6
CONTINUOUS
10
8.1576982677165351
20
-2.4636170472440946
11
8.153522322834645
21
-2.4693647637795273
0
LINE
8
BLACK
6
CONTINUOUS
10
8.153522322834645
20
-2.4693647637795273
11
8.148498622047244
21
-2.4743884645669292
0
LINE
8
BLACK
6
CONTINUOUS
10
8.148498622047244
20
-2.4743884645669292
11
8.1427509055118108
21
-2.4785644094488188
0
LINE
8
BLACK
6
CONTINUOUS
10
8.1427509055118108
20
-2.4785644094488188
11
8.1364207086614169
21
-2.4817898031496064
0
LINE
8
BLACK
6
CONTINUOUS
10
8.1364207086614169
20
-2.4817898031496064
11
8.1296638582677172
21
-2.4839852362204722
0
LINE
8
BLACK
6
CONTINUOUS
10
8.1296638582677172
20
-2.4839852362204722
11
8.1226467716535424
21
-2.485096653543307
0
LINE
8
BLACK
6
CONTINUOUS
10
8.1226467716535424
20
-2.485096653543307
11
8.1155422047244095
21
-2.485096653543307
0
LINE
8
BLACK
6
CONTINUOUS
10
8.1155422047244095
20
-2.485096653543307
11
8.1085251181102365
21
-2.4839852362204722
0
LINE
8
BLACK
6
CONTINUOUS
10
8.1085251181102365
20
-2.4839852362204722
11
8.101768267716535
21
-2.4817898031496064
0
LINE
8
BLACK
6
CONTINUOUS
10
8.101768267716535
20
-2.4817898031496064
11
8.0954380708661411
21
-2.4785644094488188
0
LINE
8
BLACK
6
CONTINUOUS
10
8.0954380708661411
20
-2.4785644094488188
11
8.0896903543307079
21
-2.4743884645669292
0
LINE
8
BLACK
6
CONTINUOUS
10
8.0896903543307079
20
-2.4743884645669292
11
8.0846666535433069
21
-2.4693647637795273
0
LINE
8
BLACK
6
CONTINUOUS
10
8.0846666535433069
20
-2.4693647637795273
11
8.0804907086614168
21
-2.4636170472440946
0
LINE
8
BLACK
6
CONTINUOUS
10
8.0804907086614168
20
-2.4636170472440946
11
8.0772653149606306
21
-2.4572868503937007
0
LINE
8
BLACK
6
CONTINUOUS
10
8.0772653149606306
20
-2.4572868503937007
11
8.0750698818897639
21
-2.4505300000000001
0
LINE
8
BLACK
6
CONTINUOUS
10
8.0750698818897639
20
-2.4505300000000001
11
8.0739584645669282
21
-2.4435129133858267
0
LINE
8
BLACK
6
CONTINUOUS
10
8.0739584645669282
20
-2.4435129133858267
11
8.0739584645669282
21
-2.4364083464566928
0
LINE
8
BLACK
6
CONTINUOUS
10
8.0739584645669282
20
-2.4364083464566928
11
8.0740407086614177
21
-2.4358891338582676
0
LINE
8
BLACK
6
CONTINUOUS
10
8.0740407086614177
20
-2.4358891338582676
11
8.0750698818897639
21
-2.4293912598425198
0
LINE
8
BLACK
6
CONTINUOUS
10
8.0750698818897639
20
-2.4293912598425198
11
8.0772653149606306
21
-2.4226344094488188
0
LINE
8
BLACK
6
CONTINUOUS
10
8.0772653149606306
20
-2.4226344094488188
11
8.0804907086614168
21
-2.4163042125984253
0
LINE
8
BLACK
6
CONTINUOUS
10
8.0804907086614168
20
-2.4163042125984253
11
8.0846666535433069
21
-2.4105564960629922
0
LINE
8
BLACK
6
CONTINUOUS
10
8.0846666535433069
20
-2.4105564960629922
11
8.0896903543307079
21
-2.4055327952755907
0
LINE
8
BLACK
6
CONTINUOUS
10
8.0896903543307079
20
-2.4055327952755907
11
8.0954380708661411
21
-2.4013568503937006
0
LINE
8
BLACK
6
CONTINUOUS
10
8.0954380708661411
20
-2.4013568503937006
11
8.101768267716535
21
-2.3981314566929135
0
LINE
8
BLACK
6
CONTINUOUS
10
8.101768267716535
20
-2.3981314566929135
11
8.1085251181102365
21
-2.3959360236220473
0
LINE
8
BLACK
6
CONTINUOUS
10
8.1085251181102365
20
-2.3959360236220473
11
8.1155422047244095
21
-2.3948246062992125
0
LINE
8
BLACK
6
CONTINUOUS
10
8.1155422047244095
20
-2.3948246062992125
11
8.1226467716535424
21
-2.3948246062992125
0
LINE
8
BLACK
6
CONTINUOUS
10
8.1226467716535424
20
-2.3948246062992125
11
8.1296638582677172
21
-2.3959360236220473
0
LINE
8
BLACK
6
CONTINUOUS
10
8.0777559055118111
20
-2.4440321259842519
11
8.0793444881889762
21
-2.4520186614173229
0
LINE
8
BLACK
6
CONTINUOUS
10
8.0793444881889762
20
-2.4520186614173229
11
8.0824607086614169
21
-2.4595418110236218
0
LINE
8
BLACK
6
CONTINUOUS
10
8.0824607086614169
20
-2.4595418110236218
11
8.0869846850393703
21
-2.4663124409448818
0
LINE
8
BLACK
6
CONTINUOUS
10
8.0869846850393703
20
-2.4663124409448818
11
8.0927426771653543
21
-2.4720704330708663
0
LINE
8
BLACK
6
CONTINUOUS
10
8.0927426771653543
20
-2.4720704330708663
11
8.0995133070866139
21
-2.4765944094488188
0
LINE
8
BLACK
6
CONTINUOUS
10
8.0995133070866139
20
-2.4765944094488188
11
8.1070364566929136
21
-2.4797106299212599
0
LINE
8
BLACK
6
CONTINUOUS
10
8.1070364566929136
20
-2.4797106299212599
11
8.1150229921259847
21
-2.481299212598425
0
LINE
8
BLACK
6
CONTINUOUS
10
8.1150229921259847
20
-2.481299212598425
11
8.123165984251969
21
-2.481299212598425
0
LINE
8
BLACK
6
CONTINUOUS
10
8.123165984251969
20
-2.481299212598425
11
8.13115251968504
21
-2.4797106299212599
0
LINE
8
BLACK
6
CONTINUOUS
10
8.13115251968504
20
-2.4797106299212599
11
8.138675669291338
21
-2.4765944094488188
0
LINE
8
BLACK
6
CONTINUOUS
10
8.138675669291338
20
-2.4765944094488188
11
8.1454462992125976
21
-2.4720704330708663
0
LINE
8
BLACK
6
CONTINUOUS
10
8.1454462992125976
20
-2.4720704330708663
11
8.1512042913385834
21
-2.4663124409448818
0
LINE
8
BLACK
6
CONTINUOUS
10
8.1512042913385834
20
-2.4663124409448818
11
8.155728267716535
21
-2.4595418110236218
0
LINE
8
BLACK
6
CONTINUOUS
10
8.155728267716535
20
-2.4595418110236218
11
8.1588444881889757
21
-2.4520186614173229
0
LINE
8
BLACK
6
CONTINUOUS
10
8.1588444881889757
20
-2.4520186614173229
11
8.1604330708661408
21
-2.4440321259842519
0
LINE
8
BLACK
6
CONTINUOUS
10
8.1604330708661408
20
-2.4440321259842519
11
8.1604330708661408
21
-2.4358891338582676
0
LINE
8
BLACK
6
CONTINUOUS
10
8.1604330708661408
20
-2.4358891338582676
11
8.1588444881889757
21
-2.427902598425197
0
LINE
8
BLACK
6
CONTINUOUS
10
8.1588444881889757
20
-2.427902598425197
11
8.155728267716535
21
-2.4203794488188977
0
LINE
8
BLACK
6
CONTINUOUS
10
8.155728267716535
20
-2.4203794488188977
11
8.1512042913385834
21
-2.4136088188976377
0
LINE
8
BLACK
6
CONTINUOUS
10
8.1512042913385834
20
-2.4136088188976377
11
8.1454462992125976
21
-2.4078508267716536
0
LINE
8
BLACK
6
CONTINUOUS
10
8.1454462992125976
20
-2.4078508267716536
11
8.138675669291338
21
-2.4033268503937006
0
LINE
8
BLACK
6
CONTINUOUS
10
8.138675669291338
20
-2.4033268503937006
11
8.13115251968504
21
-2.40021062992126
0
LINE
8
BLACK
6
CONTINUOUS
10
8.13115251968504
20
-2.40021062992126
11
8.123165984251969
21
-2.3986220472440944
0
LINE
8
BLACK
6
CONTINUOUS
10
8.123165984251969
20
-2.3986220472440944
11
8.1150229921259847
21
-2.3986220472440944
0
LINE
8
BLACK
6
CONTINUOUS
10
8.1150229921259847
20
-2.3986220472440944
11
8.1070364566929136
21
-2.40021062992126
0
LINE
8
BLACK
6
CONTINUOUS
10
8.1070364566929136
20
-2.40021062992126
11
8.0995133070866139
21
-2.4033268503937006
0
LINE
8
BLACK
6
CONTINUOUS
10
8.0995133070866139
20
-2.4033268503937006
11
8.0927426771653543
21
-2.4078508267716536
0
LINE
8
BLACK
6
CONTINUOUS
10
8.0927426771653543
20
-2.4078508267716536
11
8.0869846850393703
21
-2.4136088188976377
0
LINE
8
BLACK
6
CONTINUOUS
10
8.0869846850393703
20
-2.4136088188976377
11
8.0824607086614169
21
-2.4203794488188977
0
LINE
8
BLACK
6
CONTINUOUS
10
8.0824607086614169
20
-2.4203794488188977
11
8.0793444881889762
21
-2.427902598425197
0
LINE
8
BLACK
6
CONTINUOUS
10
8.0793444881889762
20
-2.427902598425197
11
8.0777559055118111
21
-2.4358891338582676
0
LINE
8
BLACK
6
CONTINUOUS
10
8.0777559055118111
20
-2.4358891338582676
11
8.0777559055118111
21
-2.4440321259842519
0
LINE
8
BLACK
6
CONTINUOUS
10
5.1276953543307089
20
-2.210896653543307
11
5.1344522047244094
21
-2.2130920866141732
0
LINE
8
BLACK
6
CONTINUOUS
10
5.1344522047244094
20
-2.2130920866141732
11
5.1407824015748034
21
-2.2163174803149608
0
LINE
8
BLACK
6
CONTINUOUS
10
5.1407824015748034
20
-2.2163174803149608
11
5.1465301181102365
21
-2.2204934251968504
0
LINE
8
BLACK
6
CONTINUOUS
10
5.1465301181102365
20
-2.2204934251968504
11
5.1515538188976375
21
-2.2255171259842519
0
LINE
8
BLACK
6
CONTINUOUS
10
5.1515538188976375
20
-2.2255171259842519
11
5.1557297637795276
21
-2.231264842519685
0
LINE
8
BLACK
6
CONTINUOUS
10
5.1557297637795276
20
-2.231264842519685
11
5.1589551574803147
21
-2.2375950393700785
0
LINE
8
BLACK
6
CONTINUOUS
10
5.1589551574803147
20
-2.2375950393700785
11
5.1611505905511814
21
-2.2443518897637795
0
LINE
8
BLACK
6
CONTINUOUS
10
5.1611505905511814
20
-2.2443518897637795
11
5.1622620078740153
21
-2.2513689763779525
0
LINE
8
BLACK
6
CONTINUOUS
10
5.1622620078740153
20
-2.2513689763779525
11
5.1622620078740153
21
-2.2584735433070864
0
LINE
8
BLACK
6
CONTINUOUS
10
5.1622620078740153
20
-2.2584735433070864
11
5.1611505905511814
21
-2.2654906299212598
0
LINE
8
BLACK
6
CONTINUOUS
10
5.1611505905511814
20
-2.2654906299212598
11
5.1589551574803147
21
-2.2722474803149604
0
LINE
8
BLACK
6
CONTINUOUS
10
5.1589551574803147
20
-2.2722474803149604
11
5.1557297637795276
21
-2.2785776771653543
0
LINE
8
BLACK
6
CONTINUOUS
10
5.1557297637795276
20
-2.2785776771653543
11
5.1515538188976375
21
-2.2843253937007875
0
LINE
8
BLACK
6
CONTINUOUS
10
5.1515538188976375
20
-2.2843253937007875
11
5.1465301181102365
21
-2.2893490944881889
0
LINE
8
BLACK
6
CONTINUOUS
10
5.1465301181102365
20
-2.2893490944881889
11
5.1407824015748034
21
-2.2935250393700786
0
LINE
8
BLACK
6
CONTINUOUS
10
5.1407824015748034
20
-2.2935250393700786
11
5.1344522047244094
21
-2.2967504330708661
0
LINE
8
BLACK
6
CONTINUOUS
10
5.1344522047244094
20
-2.2967504330708661
11
5.1276953543307089
21
-2.2989458661417324
0
LINE
8
BLACK
6
CONTINUOUS
10
5.1276953543307089
20
-2.2989458661417324
11
5.120678267716535
21
-2.3000572834645667
0
LINE
8
BLACK
6
CONTINUOUS
10
5.120678267716535
20
-2.3000572834645667
11
5.1135737007874011
21
-2.3000572834645667
0
LINE
8
BLACK
6
CONTINUOUS
10
5.1135737007874011
20
-2.3000572834645667
11
5.1065566141732281
21
-2.2989458661417324
0
LINE
8
BLACK
6
CONTINUOUS
10
5.1065566141732281
20
-2.2989458661417324
11
5.0997997637795276
21
-2.2967504330708661
0
LINE
8
BLACK
6
CONTINUOUS
10
5.0997997637795276
20
-2.2967504330708661
11
5.0934695669291337
21
-2.2935250393700786
0
LINE
8
BLACK
6
CONTINUOUS
10
5.0934695669291337
20
-2.2935250393700786
11
5.0877218503937005
21
-2.2893490944881889
0
LINE
8
BLACK
6
CONTINUOUS
10
5.0877218503937005
20
-2.2893490944881889
11
5.0826981496062995
21
-2.2843253937007875
0
LINE
8
BLACK
6
CONTINUOUS
10
5.0826981496062995
20
-2.2843253937007875
11
5.0785222047244094
21
-2.2785776771653543
0
LINE
8
BLACK
6
CONTINUOUS
10
5.0785222047244094
20
-2.2785776771653543
11
5.0752968110236223
21
-2.2722474803149604
0
LINE
8
BLACK
6
CONTINUOUS
10
5.0752968110236223
20
-2.2722474803149604
11
5.0731013779527556
21
-2.2654906299212598
0
LINE
8
BLACK
6
CONTINUOUS
10
5.0731013779527556
20
-2.2654906299212598
11
5.0719899606299208
21
-2.2584735433070864
0
LINE
8
BLACK
6
CONTINUOUS
10
5.0719899606299208
20
-2.2584735433070864
11
5.0719899606299208
21
-2.2513689763779525
0
LINE
8
BLACK
6
CONTINUOUS
10
5.0719899606299208
20
-2.2513689763779525
11
5.0720722047244093
21
-2.2508497637795277
0
LINE
8
BLACK
6
CONTINUOUS
10
5.0720722047244093
20
-2.2508497637795277
11
5.0731013779527556
21
-2.2443518897637795
0
LINE
8
BLACK
6
CONTINUOUS
10
5.0731013779527556
20
-2.2443518897637795
11
5.0752968110236223
21
-2.2375950393700785
0
LINE
8
BLACK
6
CONTINUOUS
10
5.0752968110236223
20
-2.2375950393700785
11
5.0785222047244094
21
-2.231264842519685
0
LINE
8
BLACK
6
CONTINUOUS
10
5.0785222047244094
20
-2.231264842519685
11
5.0826981496062995
21
-2.2255171259842519
0
LINE
8
BLACK
6
CONTINUOUS
10
5.0826981496062995
20
-2.2255171259842519
11
5.0877218503937005
21
-2.2204934251968504
0
LINE
8
BLACK
6
CONTINUOUS
10
5.0877218503937005
20
-2.2204934251968504
11
5.0934695669291337
21
-2.2163174803149608
0
LINE
8
BLACK
6
CONTINUOUS
10
5.0934695669291337
20
-2.2163174803149608
11
5.0997997637795276
21
-2.2130920866141732
0
LINE
8
BLACK
6
CONTINUOUS
10
5.0997997637795276
20
-2.2130920866141732
11
5.1065566141732281
21
-2.210896653543307
0
LINE
8
BLACK
6
CONTINUOUS
10
5.1065566141732281
20
-2.210896653543307
11
5.1135737007874011
21
-2.2097852362204722
0
LINE
8
BLACK
6
CONTINUOUS
10
5.1135737007874011
20
-2.2097852362204722
11
5.120678267716535
21
-2.2097852362204722
0
LINE
8
BLACK
6
CONTINUOUS
10
5.120678267716535
20
-2.2097852362204722
11
5.1276953543307089
21
-2.210896653543307
0
LINE
8
BLACK
6
CONTINUOUS
10
5.0757874015748028
20
-2.2589927559055116
11
5.0773759842519688
21
-2.2669792913385827
0
LINE
8
BLACK
6
CONTINUOUS
10
5.0773759842519688
20
-2.2669792913385827
11
5.0804922047244094
21
-2.274502440944882
0
LINE
8
BLACK
6
CONTINUOUS
10
5.0804922047244094
20
-2.274502440944882
11
5.085016181102362
21
-2.2812730708661415
0
LINE
8
BLACK
6
CONTINUOUS
10
5.085016181102362
20
-2.2812730708661415
11
5.090774173228346
21
-2.287031062992126
0
LINE
8
BLACK
6
CONTINUOUS
10
5.090774173228346
20
-2.287031062992126
11
5.0975448031496065
21
-2.2915550393700785
0
LINE
8
BLACK
6
CONTINUOUS
10
5.0975448031496065
20
-2.2915550393700785
11
5.1050679527559053
21
-2.2946712598425196
0
LINE
8
BLACK
6
CONTINUOUS
10
5.1050679527559053
20
-2.2946712598425196
11
5.1130544881889763
21
-2.2962598425196852
0
LINE
8
BLACK
6
CONTINUOUS
10
5.1130544881889763
20
-2.2962598425196852
11
5.1211974803149607
21
-2.2962598425196852
0
LINE
8
BLACK
6
CONTINUOUS
10
5.1211974803149607
20
-2.2962598425196852
11
5.1291840157480317
21
-2.2946712598425196
0
LINE
8
BLACK
6
CONTINUOUS
10
5.1291840157480317
20
-2.2946712598425196
11
5.1367071653543306
21
-2.2915550393700785
0
LINE
8
BLACK
6
CONTINUOUS
10
5.1367071653543306
20
-2.2915550393700785
11
5.1434777952755901
21
-2.287031062992126
0
LINE
8
BLACK
6
CONTINUOUS
10
5.1434777952755901
20
-2.287031062992126
11
5.1492357874015751
21
-2.2812730708661415
0
LINE
8
BLACK
6
CONTINUOUS
10
5.1492357874015751
20
-2.2812730708661415
11
5.1537597637795276
21
-2.274502440944882
0
LINE
8
BLACK
6
CONTINUOUS
10
5.1537597637795276
20
-2.274502440944882
11
5.1568759842519682
21
-2.2669792913385827
0
LINE
8
BLACK
6
CONTINUOUS
10
5.1568759842519682
20
-2.2669792913385827
11
5.1584645669291334
21
-2.2589927559055116
0
LINE
8
BLACK
6
CONTINUOUS
10
5.1584645669291334
20
-2.2589927559055116
11
5.1584645669291334
21
-2.2508497637795277
0
LINE
8
BLACK
6
CONTINUOUS
10
5.1584645669291334
20
-2.2508497637795277
11
5.1568759842519682
21
-2.2428632283464567
0
LINE
8
BLACK
6
CONTINUOUS
10
5.1568759842519682
20
-2.2428632283464567
11
5.1537597637795276
21
-2.2353400787401574
0
LINE
8
BLACK
6
CONTINUOUS
10
5.1537597637795276
20
-2.2353400787401574
11
5.1492357874015751
21
-2.2285694488188974
0
LINE
8
BLACK
6
CONTINUOUS
10
5.1492357874015751
20
-2.2285694488188974
11
5.1434777952755901
21
-2.2228114566929134
0
LINE
8
BLACK
6
CONTINUOUS
10
5.1434777952755901
20
-2.2228114566929134
11
5.1367071653543306
21
-2.2182874803149604
0
LINE
8
BLACK
6
CONTINUOUS
10
5.1367071653543306
20
-2.2182874803149604
11
5.1291840157480317
21
-2.2151712598425197
0
LINE
8
BLACK
6
CONTINUOUS
10
5.1291840157480317
20
-2.2151712598425197
11
5.1211974803149607
21
-2.2135826771653542
0
LINE
8
BLACK
6
CONTINUOUS
10
5.1211974803149607
20
-2.2135826771653542
11
5.1130544881889763
21
-2.2135826771653542
0
LINE
8
BLACK
6
CONTINUOUS
10
5.1130544881889763
20
-2.2135826771653542
11
5.1050679527559053
21
-2.2151712598425197
0
LINE
8
BLACK
6
CONTINUOUS
10
5.1050679527559053
20
-2.2151712598425197
11
5.0975448031496065
21
-2.2182874803149604
0
LINE
8
BLACK
6
CONTINUOUS
10
5.0975448031496065
20
-2.2182874803149604
11
5.090774173228346
21
-2.2228114566929134
0
LINE
8
BLACK
6
CONTINUOUS
10
5.090774173228346
20
-2.2228114566929134
11
5.085016181102362
21
-2.2285694488188974
0
LINE
8
BLACK
6
CONTINUOUS
10
5.085016181102362
20
-2.2285694488188974
11
5.0804922047244094
21
-2.2353400787401574
0
LINE
8
BLACK
6
CONTINUOUS
10
5.0804922047244094
20
-2.2353400787401574
11
5.0773759842519688
21
-2.2428632283464567
0
LINE
8
BLACK
6
CONTINUOUS
10
5.0773759842519688
20
-2.2428632283464567
11
5.0757874015748028
21
-2.2508497637795277
0
LINE
8
BLACK
6
CONTINUOUS
10
5.0757874015748028
20
-2.2508497637795277
11
5.0757874015748028
21
-2.2589927559055116
0
LINE
8
BLACK
6
CONTINUOUS
10
6.7405781102362203
20
-1.3741065354330708
11
6.7407343700787399
21
-1.3741005511811024
0
LINE
8
BLACK
6
CONTINUOUS
10
6.7407343700787399
20
-1.3741005511811024
11
8.8398933858267714
21
-1.7084948425196851
0
LINE
8
BLACK
6
CONTINUOUS
10
8.8398933858267714
20
-1.7084948425196851
11
8.8399797637795281
21
-1.7085267716535433
0
LINE
8
BLACK
6
CONTINUOUS
10
8.8399797637795281
20
-1.7085267716535433
11
8.8400719291338579
21
-1.7085318110236221
0
LINE
8
BLACK
6
CONTINUOUS
10
8.8400719291338579
20
-1.7085318110236221
11
8.848011692913385
21
-1.7105644881889763
0
LINE
8
BLACK
6
CONTINUOUS
10
8.848011692913385
20
-1.7105644881889763
11
8.8481714566929135
21
-1.710641062992126
0
LINE
8
BLACK
6
CONTINUOUS
10
8.8481714566929135
20
-1.710641062992126
11
8.8483437007874013
21
-1.7106820472440945
0
LINE
8
BLACK
6
CONTINUOUS
10
8.8483437007874013
20
-1.7106820472440945
11
8.8556177165354324
21
-1.7140162598425197
0
LINE
8
BLACK
6
CONTINUOUS
10
8.8556177165354324
20
-1.7140162598425197
11
8.8557587795275587
21
-1.7141182677165354
0
LINE
8
BLACK
6
CONTINUOUS
10
8.8557587795275587
20
-1.7141182677165354
11
8.8559184645669298
21
-1.7141875984251969
0
LINE
8
BLACK
6
CONTINUOUS
10
8.8559184645669298
20
-1.7141875984251969
11
8.8624046850393707
21
-1.7186810629921259
0
LINE
8
BLACK
6
CONTINUOUS
10
8.8624046850393707
20
-1.7186810629921259
11
8.8625239370078734
21
-1.7188043700787401
0
LINE
8
BLACK
6
CONTINUOUS
10
8.8625239370078734
20
-1.7188043700787401
11
8.8626671259842524
21
-1.7188988188976377
0
LINE
8
BLACK
6
CONTINUOUS
10
8.8626671259842524
20
-1.7188988188976377
11
8.8682458661417325
21
-1.7244099212598425
0
LINE
8
BLACK
6
CONTINUOUS
10
8.8682458661417325
20
-1.7244099212598425
11
8.8683414566929137
21
-1.7245511023622047
0
LINE
8
BLACK
6
CONTINUOUS
10
8.8683414566929137
20
-1.7245511023622047
11
8.868465748031495
21
-1.724668188976378
0
LINE
8
BLACK
6
CONTINUOUS
10
8.868465748031495
20
-1.724668188976378
11
8.8730153543307093
21
-1.7310550393700788
0
LINE
8
BLACK
6
CONTINUOUS
10
8.8730153543307093
20
-1.7310550393700788
11
8.8730856692913385
21
-1.7312113779527558
0
LINE
8
BLACK
6
CONTINUOUS
10
8.8730856692913385
20
-1.7312113779527558
11
8.8731882677165359
21
-1.731348622047244
0
LINE
8
BLACK
6
CONTINUOUS
10
8.8731882677165359
20
-1.731348622047244
11
8.8765898425196852
21
-1.7384692519685039
0
LINE
8
BLACK
6
CONTINUOUS
10
8.8765898425196852
20
-1.7384692519685039
11
8.8766327952755901
21
-1.7386380708661417
0
LINE
8
BLACK
6
CONTINUOUS
10
8.8766327952755901
20
-1.7386380708661417
11
8.8767111023622043
21
-1.738793779527559
0
LINE
8
BLACK
6
CONTINUOUS
10
8.8767111023622043
20
-1.738793779527559
11
8.8788410236220479
21
-1.7465063385826771
0
LINE
8
BLACK
6
CONTINUOUS
10
8.8788410236220479
20
-1.7465063385826771
11
8.8788539370078734
21
-1.7466828346456693
0
LINE
8
BLACK
6
CONTINUOUS
10
8.8788539370078734
20
-1.7466828346456693
11
8.8789040157480308
21
-1.7468525984251968
0
LINE
8
BLACK
6
CONTINUOUS
10
8.8789040157480308
20
-1.7468525984251968
11
8.8796441732283462
21
-1.7550152362204725
0
LINE
8
BLACK
6
CONTINUOUS
10
8.8796441732283462
20
-1.7550152362204725
11
8.8796346850393704
21
-1.7551043700787401
0
LINE
8
BLACK
6
CONTINUOUS
10
8.8796346850393704
20
-1.7551043700787401
11
8.87965220472441
21
-1.7551922834645668
0
LINE
8
BLACK
6
CONTINUOUS
10
8.87965220472441
20
-1.7551922834645668
11
8.8807151968503941
21
-4.7047237007874019
0
LINE
8
BLACK
6
CONTINUOUS
10
8.8807151968503941
20
-4.7047237007874019
11
8.8807076377952754
21
-4.7047615748031495
0
LINE
8
BLACK
6
CONTINUOUS
10
8.8807076377952754
20
-4.7047615748031495
11
8.8807144488188978
21
-4.7047793307086616
0
LINE
8
BLACK
6
CONTINUOUS
10
8.8807144488188978
20
-4.7047793307086616
11
8.8806959055118107
21
-4.7048207086614173
0
LINE
8
BLACK
6
CONTINUOUS
10
8.8806959055118107
20
-4.7048207086614173
11
8.880565629921259
21
-4.7054770472440941
0
LINE
8
BLACK
6
CONTINUOUS
10
8.880565629921259
20
-4.7054770472440941
11
8.8802699999999994
21
-4.7057728346456695
0
LINE
8
BLACK
6
CONTINUOUS
10
8.8802699999999994
20
-4.7057728346456695
11
8.8800992519685042
21
-4.7061546456692911
0
LINE
8
BLACK
6
CONTINUOUS
10
8.8800992519685042
20
-4.7061546456692911
11
8.8795326377952755
21
-4.7065107874015748
0
LINE
8
BLACK
6
CONTINUOUS
10
8.8795326377952755
20
-4.7065107874015748
11
8.879500669291339
21
-4.7065427952755901
0
LINE
8
BLACK
6
CONTINUOUS
10
8.879500669291339
20
-4.7065427952755901
11
8.8794816929133855
21
-4.7065427952755901
0
LINE
8
BLACK
6
CONTINUOUS
10
8.8794816929133855
20
-4.7065427952755901
11
8.8794489763779527
21
-4.7065633858267715
0
LINE
8
BLACK
6
CONTINUOUS
10
8.8794489763779527
20
-4.7065633858267715
11
7.3845599606299208
21
-5.2774295275590548
0
LINE
8
BLACK
6
CONTINUOUS
10
7.3845599606299208
20
-5.2774295275590548
11
7.3842081102362203
21
-5.2774893307086614
0
LINE
8
BLACK
6
CONTINUOUS
10
7.3842081102362203
20
-5.2774893307086614
11
7.3838576771653539
21
-5.2775590551181102
0
LINE
8
BLACK
6
CONTINUOUS
10
7.3838576771653539
20
-5.2775590551181102
11
5.4413847637795278
21
-5.2775590551181102
0
LINE
8
BLACK
6
CONTINUOUS
10
5.4413847637795278
20
-5.2775590551181102
11
3.6993632677165356
21
-5.7794506299212598
0
LINE
8
BLACK
6
CONTINUOUS
10
3.6993632677165356
20
-5.7794506299212598
11
3.6992696850393698
21
-5.7794585039370077
0
LINE
8
BLACK
6
CONTINUOUS
10
3.6992696850393698
20
-5.7794585039370077
11
3.6992341338582677
21
-5.7794831496062988
0
LINE
8
BLACK
6
CONTINUOUS
10
3.6992341338582677
20
-5.7794831496062988
11
3.6989156692913383
21
-5.7794883858267712
0
LINE
8
BLACK
6
CONTINUOUS
10
3.6989156692913383
20
-5.7794883858267712
11
3.6985979527559056
21
-5.7795151968503937
0
LINE
8
BLACK
6
CONTINUOUS
10
3.6985979527559056
20
-5.7795151968503937
11
3.6985600000000001
21
-5.7794942125984248
0
LINE
8
BLACK
6
CONTINUOUS
10
3.6985600000000001
20
-5.7794942125984248
11
3.6984661811023622
21
-5.7794957874015749
0
LINE
8
BLACK
6
CONTINUOUS
10
3.6984661811023622
20
-5.7794957874015749
11
3.6768126377952757
21
-5.7755587795275591
0
LINE
8
BLACK
6
CONTINUOUS
10
3.6768126377952757
20
-5.7755587795275591
11
3.6766818503937007
21
-5.7755070866141729
0
LINE
8
BLACK
6
CONTINUOUS
10
3.6766818503937007
20
-5.7755070866141729
11
3.6765422834645669
21
-5.7754895275590554
0
LINE
8
BLACK
6
CONTINUOUS
10
3.6765422834645669
20
-5.7754895275590554
11
3.6588257480314961
21
-5.7695840157480314
0
LINE
8
BLACK
6
CONTINUOUS
10
3.6588257480314961
20
-5.7695840157480314
11
3.6584974409448816
21
-5.7693968897637795
0
LINE
8
BLACK
6
CONTINUOUS
10
3.6584974409448816
20
-5.7693968897637795
11
3.6581671259842521
21
-5.7692111417322831
0
LINE
8
BLACK
6
CONTINUOUS
10
3.6581671259842521
20
-5.7692111417322831
11
3.6443875984251966
21
-5.7574001181102359
0
LINE
8
BLACK
6
CONTINUOUS
10
3.6443875984251966
20
-5.7574001181102359
11
3.6441819685039367
21
-5.7571383070866142
0
LINE
8
BLACK
6
CONTINUOUS
10
3.6441819685039367
20
-5.7571383070866142
11
3.6439627952755904
21
-5.7568878346456689
0
LINE
8
BLACK
6
CONTINUOUS
10
3.6439627952755904
20
-5.7568878346456689
11
3.2404194881889765
21
-5.0561004330708661
0
LINE
8
BLACK
6
CONTINUOUS
10
3.2404194881889765
20
-5.0561004330708661
11
3.2403464960629922
21
-5.0558846456692912
0
LINE
8
BLACK
6
CONTINUOUS
10
3.2403464960629922
20
-5.0558846456692912
11
3.2402399212598425
21
-5.0556837401574803
0
LINE
8
BLACK
6
CONTINUOUS
10
3.2402399212598425
20
-5.0556837401574803
11
3.2343344094488189
21
-5.0359987007874016
0
LINE
8
BLACK
6
CONTINUOUS
10
3.2343344094488189
20
-5.0359987007874016
11
3.2343148818897638
21
-5.0357940944881889
0
LINE
8
BLACK
6
CONTINUOUS
10
3.2343148818897638
20
-5.0357940944881889
11
3.2342581889763777
21
-5.0355965748031499
0
LINE
8
BLACK
6
CONTINUOUS
10
3.2342581889763777
20
-5.0355965748031499
11
3.2322896850393699
21
-5.0119744881889758
0
LINE
8
BLACK
6
CONTINUOUS
10
3.2322896850393699
20
-5.0119744881889758
11
3.2322990157480316
21
-5.0118922440944882
0
LINE
8
BLACK
6
CONTINUOUS
10
3.2322990157480316
20
-5.0118922440944882
11
3.2322828740157479
21
-5.0118110236220472
0
LINE
8
BLACK
6
CONTINUOUS
10
3.2322828740157479
20
-5.0118110236220472
11
3.2322828740157479
21
-4.9960629921259843
0
LINE
8
BLACK
6
CONTINUOUS
10
3.2322828740157479
20
-4.9960629921259843
11
3.2323208661417322
21
-4.995871771653543
0
LINE
8
BLACK
6
CONTINUOUS
10
3.2323208661417322
20
-4.995871771653543
11
3.2323211023622047
21
-4.9956769291338583
0
LINE
8
BLACK
6
CONTINUOUS
10
3.2323211023622047
20
-4.9956769291338583
11
3.2362581102362205
21
-4.9759918897637796
0
LINE
8
BLACK
6
CONTINUOUS
10
3.2362581102362205
20
-4.9759918897637796
11
3.2363700393700787
21
-4.9757224409448817
0
LINE
8
BLACK
6
CONTINUOUS
10
3.2363700393700787
20
-4.9757224409448817
11
3.2364559448818895
21
-4.9754432283464567
0
LINE
8
BLACK
6
CONTINUOUS
10
3.2364559448818895
20
-4.9754432283464567
11
3.4647213779527557
21
-4.552365
0
LINE
8
BLACK
6
CONTINUOUS
10
3.4647213779527557
20
-4.552365
11
3.4724768503937007
21
-4.529098503937008
0
LINE
8
BLACK
6
CONTINUOUS
10
3.4724768503937007
20
-4.529098503937008
11
3.4754031889763777
21
-4.5038235039370074
0
LINE
8
BLACK
6
CONTINUOUS
10
3.4754031889763777
20
-4.5038235039370074
11
3.4753481102362205
21
-1.5148596850393701
0
LINE
8
BLACK
6
CONTINUOUS
10
3.4753481102362205
20
-1.5148596850393701
11
3.4753675984251968
21
-1.5147616929133858
0
LINE
8
BLACK
6
CONTINUOUS
10
3.4753675984251968
20
-1.5147616929133858
11
3.475358031496063
21
-1.5146622440944881
0
LINE
8
BLACK
6
CONTINUOUS
10
3.475358031496063
20
-1.5146622440944881
11
3.4762792913385825
21
-1.5055215354330709
0
LINE
8
BLACK
6
CONTINUOUS
10
3.4762792913385825
20
-1.5055215354330709
11
3.4763371259842519
21
-1.5053323228346456
0
LINE
8
BLACK
6
CONTINUOUS
10
3.4763371259842519
20
-1.5053323228346456
11
3.4763578346456692
21
-1.5051353937007874
0
LINE
8
BLACK
6
CONTINUOUS
10
3.4763578346456692
20
-1.5051353937007874
11
3.4790003543307084
21
-1.4966217322834645
0
LINE
8
BLACK
6
CONTINUOUS
10
3.4790003543307084
20
-1.4966217322834645
11
3.4790928740157478
21
-1.4964512598425197
0
LINE
8
BLACK
6
CONTINUOUS
10
3.4790928740157478
20
-1.4964512598425197
11
3.4791503149606298
21
-1.4962662204724408
0
LINE
8
BLACK
6
CONTINUOUS
10
3.4791503149606298
20
-1.4962662204724408
11
3.483331929133858
21
-1.4885620078740158
0
LINE
8
BLACK
6
CONTINUOUS
10
3.483331929133858
20
-1.4885620078740158
11
3.4834534645669288
21
-1.4884157874015749
0
LINE
8
BLACK
6
CONTINUOUS
10
3.4834534645669288
20
-1.4884157874015749
11
3.4835435826771652
21
-1.4882483070866142
0
LINE
8
BLACK
6
CONTINUOUS
10
3.4835435826771652
20
-1.4882483070866142
11
3.4890817322834646
21
-1.4815358661417322
0
LINE
8
BLACK
6
CONTINUOUS
10
3.4890817322834646
20
-1.4815358661417322
11
3.4892279527559054
21
-1.4814164566929133
0
LINE
8
BLACK
6
CONTINUOUS
10
3.4892279527559054
20
-1.4814164566929133
11
3.4893473622047244
21
-1.4812702362204724
0
LINE
8
BLACK
6
CONTINUOUS
10
3.4893473622047244
20
-1.4812702362204724
11
3.4960596850393699
21
-1.4757320078740157
0
LINE
8
BLACK
6
CONTINUOUS
10
3.4960596850393699
20
-1.4757320078740157
11
3.4962271653543304
21
-1.4756418897637795
0
LINE
8
BLACK
6
CONTINUOUS
10
3.4962271653543304
20
-1.4756418897637795
11
3.4963734251968503
21
-1.47552031496063
0
LINE
8
BLACK
6
CONTINUOUS
10
3.4963734251968503
20
-1.47552031496063
11
3.5040775196850391
21
-1.471338622047244
0
LINE
8
BLACK
6
CONTINUOUS
10
3.5040775196850391
20
-1.471338622047244
11
3.5042625984251967
21
-1.4712811417322835
0
LINE
8
BLACK
6
CONTINUOUS
10
3.5042625984251967
20
-1.4712811417322835
11
3.5044329527559053
21
-1.4711887007874016
0
LINE
8
BLACK
6
CONTINUOUS
10
3.5044329527559053
20
-1.4711887007874016
11
3.5129464960629919
21
-1.4685457874015748
0
LINE
8
BLACK
6
CONTINUOUS
10
3.5129464960629919
20
-1.4685457874015748
11
3.513143346456693
21
-1.4685250787401574
0
LINE
8
BLACK
6
CONTINUOUS
10
3.513143346456693
20
-1.4685250787401574
11
3.5133326377952754
21
-1.4684672047244094
0
LINE
8
BLACK
6
CONTINUOUS
10
3.5133326377952754
20
-1.4684672047244094
11
3.5224733070866141
21
-1.4675455511811024
0
LINE
8
BLACK
6
CONTINUOUS
10
3.5224733070866141
20
-1.4675455511811024
11
3.5225336614173228
21
-1.4675513385826771
0
LINE
8
BLACK
6
CONTINUOUS
10
3.5225336614173228
20
-1.4675513385826771
11
3.5225926771653544
21
-1.4675371653543308
0
LINE
8
BLACK
6
CONTINUOUS
10
3.5225926771653544
20
-1.4675371653543308
11
5.8761733464566932
21
-1.374077559055118
0
LINE
8
BLACK
6
CONTINUOUS
10
5.8761733464566932
20
-1.374077559055118
11
5.8762125590551184
21
-1.3740837401574804
0
LINE
8
BLACK
6
CONTINUOUS
10
5.8762125590551184
20
-1.3740837401574804
11
5.8762514566929136
21
-1.3740760236220473
0
LINE
8
BLACK
6
CONTINUOUS
10
5.8762514566929136
20
-1.3740760236220473
11
6.7404246850393701
21
-1.3740760236220473
0
LINE
8
BLACK
6
CONTINUOUS
10
6.7404246850393701
20
-1.3740760236220473
11
6.7405781102362203
21
-1.3741065354330708
0
LINE
8
BLACK
6
CONTINUOUS
10
5.8762909055118113
20
-1.378013031496063
11
3.5228085826771651
21
-1.4714687007874014
0
LINE
8
BLACK
6
CONTINUOUS
10
3.5228085826771651
20
-1.4714687007874014
11
3.5139245669291337
21
-1.4723644881889764
0
LINE
8
BLACK
6
CONTINUOUS
10
3.5139245669291337
20
-1.4723644881889764
11
3.5057852755905512
21
-1.4748912204724409
0
LINE
8
BLACK
6
CONTINUOUS
10
3.5057852755905512
20
-1.4748912204724409
11
3.498418622047244
21
-1.4788897637795275
0
LINE
8
BLACK
6
CONTINUOUS
10
3.498418622047244
20
-1.4788897637795275
11
3.4919984645669291
21
-1.4841869291338583
0
LINE
8
BLACK
6
CONTINUOUS
10
3.4919984645669291
20
-1.4841869291338583
11
3.4867012992125983
21
-1.4906072440944882
0
LINE
8
BLACK
6
CONTINUOUS
10
3.4867012992125983
20
-1.4906072440944882
11
3.4827029921259842
21
-1.4979738188976377
0
LINE
8
BLACK
6
CONTINUOUS
10
3.4827029921259842
20
-1.4979738188976377
11
3.4801765748031497
21
-1.5061134251968504
0
LINE
8
BLACK
6
CONTINUOUS
10
3.4801765748031497
20
-1.5061134251968504
11
3.4792851181102362
21
-1.5149585826771652
0
LINE
8
BLACK
6
CONTINUOUS
10
3.4792851181102362
20
-1.5149585826771652
11
3.4793402362204722
21
-4.503936968503937
0
LINE
8
BLACK
6
CONTINUOUS
10
3.4793402362204722
20
-4.503936968503937
11
3.4793178740157478
21
-4.5040492913385828
0
LINE
8
BLACK
6
CONTINUOUS
10
3.4793178740157478
20
-4.5040492913385828
11
3.4793271653543307
21
-4.5041634251968503
0
LINE
8
BLACK
6
CONTINUOUS
10
3.4793271653543307
20
-4.5041634251968503
11
3.4763642913385824
21
-4.5297539763779531
0
LINE
8
BLACK
6
CONTINUOUS
10
3.4763642913385824
20
-4.5297539763779531
11
3.4763018110236219
21
-4.5299479133858265
0
LINE
8
BLACK
6
CONTINUOUS
10
3.4763018110236219
20
-4.5299479133858265
11
3.4762763385826769
21
-4.5301500393700787
0
LINE
8
BLACK
6
CONTINUOUS
10
3.4762763385826769
20
-4.5301500393700787
11
3.4684023228346454
21
-4.5537720866141731
0
LINE
8
BLACK
6
CONTINUOUS
10
3.4684023228346454
20
-4.5537720866141731
11
3.4683175984251968
21
-4.5539207086614173
0
LINE
8
BLACK
6
CONTINUOUS
10
3.4683175984251968
20
-4.5539207086614173
11
3.4682672834645669
21
-4.5540842913385822
0
LINE
8
BLACK
6
CONTINUOUS
10
3.4682672834645669
20
-4.5540842913385822
11
3.2400607874015748
21
-4.9770531889763783
0
LINE
8
BLACK
6
CONTINUOUS
10
3.2400607874015748
20
-4.9770531889763783
11
3.2362198818897636
21
-4.9962579133858265
0
LINE
8
BLACK
6
CONTINUOUS
10
3.2362198818897636
20
-4.9962579133858265
11
3.2362198818897636
21
-5.0117292913385825
0
LINE
8
BLACK
6
CONTINUOUS
10
3.2362198818897636
20
-5.0117292913385825
11
3.2381644488188974
21
-5.0350645275590553
0
LINE
8
BLACK
6
CONTINUOUS
10
3.2381644488188974
20
-5.0350645275590553
11
3.2439451968503938
21
-5.0543335826771649
0
LINE
8
BLACK
6
CONTINUOUS
10
3.2439451968503938
20
-5.0543335826771649
11
3.6472060236220472
21
-5.7546305118110235
0
LINE
8
BLACK
6
CONTINUOUS
10
3.6472060236220472
20
-5.7546305118110235
11
3.6604365354330706
21
-5.7659709842519682
0
LINE
8
BLACK
6
CONTINUOUS
10
3.6604365354330706
20
-5.7659709842519682
11
3.6776546850393701
21
-5.7717103543307084
0
LINE
8
BLACK
6
CONTINUOUS
10
3.6776546850393701
20
-5.7717103543307084
11
3.6987164960629921
21
-5.7755397637795278
0
LINE
8
BLACK
6
CONTINUOUS
10
3.6987164960629921
20
-5.7755397637795278
11
5.440561850393701
21
-5.2736989763779523
0
LINE
8
BLACK
6
CONTINUOUS
10
5.440561850393701
20
-5.2736989763779523
11
5.4408365748031491
21
-5.2736757874015749
0
LINE
8
BLACK
6
CONTINUOUS
10
5.4408365748031491
20
-5.2736757874015749
11
5.441106811023622
21
-5.2736220472440944
0
LINE
8
BLACK
6
CONTINUOUS
10
5.441106811023622
20
-5.2736220472440944
11
7.3834945669291336
21
-5.2736220472440944
0
LINE
8
BLACK
6
CONTINUOUS
10
7.3834945669291336
20
-5.2736220472440944
11
8.8767776771653537
21
-4.7033691338582679
0
LINE
8
BLACK
6
CONTINUOUS
10
8.8767776771653537
20
-4.7033691338582679
11
8.8757151968503933
21
-1.755282559055118
0
LINE
8
BLACK
6
CONTINUOUS
10
8.8757151968503933
20
-1.755282559055118
11
8.8749990157480312
21
-1.7473840157480314
0
LINE
8
BLACK
6
CONTINUOUS
10
8.8749990157480312
20
-1.7473840157480314
11
8.872962401574803
21
-1.7400094488188975
0
LINE
8
BLACK
6
CONTINUOUS
10
8.872962401574803
20
-1.7400094488188975
11
8.869709606299212
21
-1.7332000787401574
0
LINE
8
BLACK
6
CONTINUOUS
10
8.869709606299212
20
-1.7332000787401574
11
8.8653577952755906
21
-1.7270909842519684
0
LINE
8
BLACK
6
CONTINUOUS
10
8.8653577952755906
20
-1.7270909842519684
11
8.8600220078740151
21
-1.7218198818897636
0
LINE
8
BLACK
6
CONTINUOUS
10
8.8600220078740151
20
-1.7218198818897636
11
8.8538192125984256
21
-1.7175227559055117
0
LINE
8
BLACK
6
CONTINUOUS
10
8.8538192125984256
20
-1.7175227559055117
11
8.846864094488188
21
-1.7143346850393701
0
LINE
8
BLACK
6
CONTINUOUS
10
8.846864094488188
20
-1.7143346850393701
11
8.8391835433070867
21
-1.7123683464566928
0
LINE
8
BLACK
6
CONTINUOUS
10
8.8391835433070867
20
-1.7123683464566928
11
6.7402689763779522
21
-1.378013031496063
0
LINE
8
BLACK
6
CONTINUOUS
10
6.7402689763779522
20
-1.378013031496063
11
5.8762909055118113
21
-1.378013031496063
  0
ENDSEC
  0
EOF
