  0
SECTION
  2
HEADER
  9
$ANGBASE
  50
0.0
  9
$ANGDIR
  70
1
  9
$MEASUREMENT
  70
1
  0
ENDSEC
  0
SECTION
  2
TABLES
  0
TABLE
  2
LTYPE
  70
4
  0
LTYPE
  5
40F
  2
CONTINUOUS
  70
0
  3
Solid line
  72
65
  73
0
  40
0.0
  0
LTYPE
  5
410
  2
DASHDOT
 70
0
  3
Dash Dot ____ _ ____ _
 72
65
 73
4
 40
2.0
 49
1.25
 49
-0.25
 49
0.25
 49
-0.25
  0
LTYPE
  5
411
  2
DASHED
 70
0
  3
Dashed __ __ __ __ __
 72
65
 73
2
 40
0.75
 49
0.5
 49
-0.25
  0
LTYPE
  5
43B
  2
DOTTED
 70
0
  3
Dotted .  .  .  .
 72
65
 73
2
 40
0.2
 49
0.0
 49
-0.2
  0
ENDTAB
  0
TABLE
  2
STYLE
  70
4
  0
STYLE
  2
KICAD
  70
0
  40
0
  41
1
  42
1
  50
0
  71
0
  3
isocp.shx
  0
STYLE
  2
KICADB
  70
0
  40
0
  41
1
  42
1
  50
0
  71
0
  3
isocp.shx
  0
STYLE
  2
KICADI
  70
0
  40
0
  41
1
  42
1
  50
15
  71
0
  3
isocp.shx
  0
STYLE
  2
KICADBI
  70
0
  40
0
  41
1
  42
1
  50
15
  71
0
  3
isocp.shx
  0
ENDTAB
  0
TABLE
  2
LAYER
  70
1
  0
LAYER
  2
BLACK
  70
0
  62
7
  6
CONTINUOUS
  0
ENDTAB
  0
ENDSEC
  0
SECTION
  2
ENTITIES
0
LINE
8
BLACK
6
CONTINUOUS
10
99.35690799999999
20
-123.7854430000000008
11
99.3723439999999982
21
-123.8030439999999999
0
LINE
8
BLACK
6
CONTINUOUS
10
99.3723439999999982
20
-123.8030439999999999
11
106.3723430000000008
21
-135.9274000000000058
0
LINE
8
BLACK
6
CONTINUOUS
10
106.3723430000000008
20
-135.9274000000000058
11
106.3798689999999993
21
-135.9495679999999993
0
LINE
8
BLACK
6
CONTINUOUS
10
106.3798689999999993
20
-135.9495679999999993
11
106.3679829999999953
21
-135.9939259999999877
0
LINE
8
BLACK
6
CONTINUOUS
10
106.3679829999999953
20
-135.9939259999999877
11
106.3503819999999962
21
-136.0093619999999817
0
LINE
8
BLACK
6
CONTINUOUS
10
106.3503819999999962
20
-136.0093619999999817
11
94.2260259999999903
21
-143.0093619999999817
0
LINE
8
BLACK
6
CONTINUOUS
10
94.2260259999999903
20
-143.0093619999999817
11
94.2038579999999968
21
-143.016886999999997
0
LINE
8
BLACK
6
CONTINUOUS
10
94.2038579999999968
20
-143.016886999999997
11
94.1594999999999942
21
-143.0050009999999929
0
LINE
8
BLACK
6
CONTINUOUS
10
94.1594999999999942
20
-143.0050009999999929
11
94.1440640000000002
21
-142.9873999999999796
0
LINE
8
BLACK
6
CONTINUOUS
10
94.1440640000000002
20
-142.9873999999999796
11
87.1440640000000002
21
-130.8630440000000021
0
LINE
8
BLACK
6
CONTINUOUS
10
87.1440640000000002
20
-130.8630440000000021
11
87.1365389999999991
21
-130.8408759999999802
0
LINE
8
BLACK
6
CONTINUOUS
10
87.1365389999999991
20
-130.8408759999999802
11
87.1484250000000031
21
-130.7965179999999918
0
LINE
8
BLACK
6
CONTINUOUS
10
87.1484250000000031
20
-130.7965179999999918
11
87.1660260000000022
21
-130.7810819999999978
0
LINE
8
BLACK
6
CONTINUOUS
10
87.1660260000000022
20
-130.7810819999999978
11
99.2903819999999939
21
-123.7810829999999953
0
LINE
8
BLACK
6
CONTINUOUS
10
99.2903819999999939
20
-123.7810829999999953
11
99.3125500000000017
21
-123.7735569999999967
0
LINE
8
BLACK
6
CONTINUOUS
10
99.3125500000000017
20
-123.7735569999999967
11
99.35690799999999
21
-123.7854430000000008
0
LINE
8
BLACK
6
CONTINUOUS
10
87.2779879999999935
20
-130.8550050000000056
11
94.2179859999999962
21
-142.8754380000000026
0
LINE
8
BLACK
6
CONTINUOUS
10
94.2179859999999962
20
-142.8754380000000026
11
106.2384199999999908
21
-135.9354390000000024
0
LINE
8
BLACK
6
CONTINUOUS
10
106.2384199999999908
20
-135.9354390000000024
11
99.298419999999993
21
-123.9150059999999911
0
LINE
8
BLACK
6
CONTINUOUS
10
99.298419999999993
20
-123.9150059999999911
11
87.2779879999999935
21
-130.8550050000000056
0
LINE
8
BLACK
6
CONTINUOUS
10
122.6112179999999938
20
-119.7665919999999886
11
122.6509879999999981
21
-119.789552999999998
0
LINE
8
BLACK
6
CONTINUOUS
10
122.6509879999999981
20
-119.789552999999998
11
122.6509889999999956
21
-119.7895569999999879
0
LINE
8
BLACK
6
CONTINUOUS
10
122.6509889999999956
20
-119.7895569999999879
11
122.6613419999999905
21
-119.8105499999999921
0
LINE
8
BLACK
6
CONTINUOUS
10
122.6613419999999905
20
-119.8105499999999921
11
126.2848089999999956
21
-133.3335109999999872
0
LINE
8
BLACK
6
CONTINUOUS
10
126.2848089999999956
20
-133.3335109999999872
11
126.2863399999999956
21
-133.3568719999999814
0
LINE
8
BLACK
6
CONTINUOUS
10
126.2863399999999956
20
-133.3568719999999814
11
126.2633790000000005
21
-133.3966419999999857
0
LINE
8
BLACK
6
CONTINUOUS
10
126.2633790000000005
20
-133.3966419999999857
11
126.2633739999999989
21
-133.3966429999999832
0
LINE
8
BLACK
6
CONTINUOUS
10
126.2633739999999989
20
-133.3966429999999832
11
126.2423829999999896
21
-133.4069949999999949
0
LINE
8
BLACK
6
CONTINUOUS
10
126.2423829999999896
20
-133.4069949999999949
11
112.719420999999997
21
-137.0304629999999975
0
LINE
8
BLACK
6
CONTINUOUS
10
112.719420999999997
20
-137.0304629999999975
11
112.6960610000000003
21
-137.0319929999999999
0
LINE
8
BLACK
6
CONTINUOUS
10
112.6960610000000003
20
-137.0319929999999999
11
112.6960610000000003
21
-137.0319939999999974
0
LINE
8
BLACK
6
CONTINUOUS
10
112.6960610000000003
20
-137.0319939999999974
11
112.6960599999999886
21
-137.0319929999999999
0
LINE
8
BLACK
6
CONTINUOUS
10
112.6960599999999886
20
-137.0319929999999999
11
112.6960599999999886
21
-137.0319939999999974
0
LINE
8
BLACK
6
CONTINUOUS
10
112.6960599999999886
20
-137.0319939999999974
11
112.656290999999996
21
-137.0090329999999881
0
LINE
8
BLACK
6
CONTINUOUS
10
112.656290999999996
20
-137.0090329999999881
11
112.6459369999999893
21
-136.9880369999999914
0
LINE
8
BLACK
6
CONTINUOUS
10
112.6459369999999893
20
-136.9880369999999914
11
109.022469000000001
21
-123.4650749999999988
0
LINE
8
BLACK
6
CONTINUOUS
10
109.022469000000001
20
-123.4650749999999988
11
109.020938000000001
21
-123.4417139999999904
0
LINE
8
BLACK
6
CONTINUOUS
10
109.020938000000001
20
-123.4417139999999904
11
109.0438989999999961
21
-123.4019449999999978
0
LINE
8
BLACK
6
CONTINUOUS
10
109.0438989999999961
20
-123.4019449999999978
11
109.0648959999999903
21
-123.3915899999999937
0
LINE
8
BLACK
6
CONTINUOUS
10
109.0648959999999903
20
-123.3915899999999937
11
122.5878569999999996
21
-119.7681229999999886
0
LINE
8
BLACK
6
CONTINUOUS
10
122.5878569999999996
20
-119.7681229999999886
11
122.6112179999999938
21
-119.7665919999999886
0
LINE
8
BLACK
6
CONTINUOUS
10
109.1539099999999962
20
-123.4919719999999899
11
112.746317999999988
21
-136.8990210000000047
0
LINE
8
BLACK
6
CONTINUOUS
10
112.746317999999988
20
-136.8990210000000047
11
126.1533680000000004
21
-133.3066129999999987
0
LINE
8
BLACK
6
CONTINUOUS
10
126.1533680000000004
20
-133.3066129999999987
11
122.5609589999999969
21
-119.8995630000000006
0
LINE
8
BLACK
6
CONTINUOUS
10
122.5609589999999969
20
-119.8995630000000006
11
109.1539099999999962
21
-123.4919719999999899
0
LINE
8
BLACK
6
CONTINUOUS
10
184.672945999999996
20
-116.7445669999999893
11
184.7054179999999803
21
-116.7770389999999878
0
LINE
8
BLACK
6
CONTINUOUS
10
184.7054179999999803
20
-116.7770389999999878
11
184.709984999999989
21
-116.7999999999999972
0
LINE
8
BLACK
6
CONTINUOUS
10
184.709984999999989
20
-116.7999999999999972
11
184.709984999999989
21
-130.7999999999999829
0
LINE
8
BLACK
6
CONTINUOUS
10
184.709984999999989
20
-130.7999999999999829
11
184.7054179999999803
21
-130.8229609999999923
0
LINE
8
BLACK
6
CONTINUOUS
10
184.7054179999999803
20
-130.8229609999999923
11
184.672945999999996
21
-130.855433000000005
0
LINE
8
BLACK
6
CONTINUOUS
10
184.672945999999996
20
-130.855433000000005
11
184.6499849999999867
21
-130.8599999999999852
0
LINE
8
BLACK
6
CONTINUOUS
10
184.6499849999999867
20
-130.8599999999999852
11
170.6499849999999867
21
-130.8599999999999852
0
LINE
8
BLACK
6
CONTINUOUS
10
170.6499849999999867
20
-130.8599999999999852
11
170.6270240000000058
21
-130.855433000000005
0
LINE
8
BLACK
6
CONTINUOUS
10
170.6270240000000058
20
-130.855433000000005
11
170.5945519999999931
21
-130.8229609999999923
0
LINE
8
BLACK
6
CONTINUOUS
10
170.5945519999999931
20
-130.8229609999999923
11
170.5899849999999844
21
-130.7999999999999829
0
LINE
8
BLACK
6
CONTINUOUS
10
170.5899849999999844
20
-130.7999999999999829
11
170.5899849999999844
21
-116.7999999999999972
0
LINE
8
BLACK
6
CONTINUOUS
10
170.5899849999999844
20
-116.7999999999999972
11
170.5945519999999931
21
-116.7770389999999878
0
LINE
8
BLACK
6
CONTINUOUS
10
170.5945519999999931
20
-116.7770389999999878
11
170.6270240000000058
21
-116.7445669999999893
0
LINE
8
BLACK
6
CONTINUOUS
10
170.6270240000000058
20
-116.7445669999999893
11
170.6499849999999867
21
-116.7399999999999949
0
LINE
8
BLACK
6
CONTINUOUS
10
170.6499849999999867
20
-116.7399999999999949
11
184.6499849999999867
21
-116.7399999999999949
0
LINE
8
BLACK
6
CONTINUOUS
10
184.6499849999999867
20
-116.7399999999999949
11
184.672945999999996
21
-116.7445669999999893
0
LINE
8
BLACK
6
CONTINUOUS
10
170.709984999999989
20
-116.8599999999999994
11
170.709984999999989
21
-130.7399999999999807
0
LINE
8
BLACK
6
CONTINUOUS
10
170.709984999999989
20
-130.7399999999999807
11
184.5899849999999844
21
-130.7399999999999807
0
LINE
8
BLACK
6
CONTINUOUS
10
184.5899849999999844
20
-130.7399999999999807
11
184.5899849999999844
21
-116.8599999999999994
0
LINE
8
BLACK
6
CONTINUOUS
10
184.5899849999999844
20
-116.8599999999999994
11
170.709984999999989
21
-116.8599999999999994
0
LINE
8
BLACK
6
CONTINUOUS
10
146.5729460000000017
20
-116.644566999999995
11
146.605417999999986
21
-116.6770389999999935
0
LINE
8
BLACK
6
CONTINUOUS
10
146.605417999999986
20
-116.6770389999999935
11
146.6099849999999947
21
-116.6999999999999886
0
LINE
8
BLACK
6
CONTINUOUS
10
146.6099849999999947
20
-116.6999999999999886
11
146.6099849999999947
21
-130.6999999999999886
0
LINE
8
BLACK
6
CONTINUOUS
10
146.6099849999999947
20
-130.6999999999999886
11
146.605417999999986
21
-130.722960999999998
0
LINE
8
BLACK
6
CONTINUOUS
10
146.605417999999986
20
-130.722960999999998
11
146.5729460000000017
21
-130.7554329999999823
0
LINE
8
BLACK
6
CONTINUOUS
10
146.5729460000000017
20
-130.7554329999999823
11
146.5499849999999924
21
-130.7599999999999909
0
LINE
8
BLACK
6
CONTINUOUS
10
146.5499849999999924
20
-130.7599999999999909
11
132.5499849999999924
21
-130.7599999999999909
0
LINE
8
BLACK
6
CONTINUOUS
10
132.5499849999999924
20
-130.7599999999999909
11
132.5270239999999831
21
-130.7554329999999823
0
LINE
8
BLACK
6
CONTINUOUS
10
132.5270239999999831
20
-130.7554329999999823
11
132.4945519999999988
21
-130.722960999999998
0
LINE
8
BLACK
6
CONTINUOUS
10
132.4945519999999988
20
-130.722960999999998
11
132.4899849999999901
21
-130.6999999999999886
0
LINE
8
BLACK
6
CONTINUOUS
10
132.4899849999999901
20
-130.6999999999999886
11
132.4899849999999901
21
-116.6999999999999886
0
LINE
8
BLACK
6
CONTINUOUS
10
132.4899849999999901
20
-116.6999999999999886
11
132.4945519999999988
21
-116.6770389999999935
0
LINE
8
BLACK
6
CONTINUOUS
10
132.4945519999999988
20
-116.6770389999999935
11
132.5270239999999831
21
-116.644566999999995
0
LINE
8
BLACK
6
CONTINUOUS
10
132.5270239999999831
20
-116.644566999999995
11
132.5499849999999924
21
-116.6400000000000006
0
LINE
8
BLACK
6
CONTINUOUS
10
132.5499849999999924
20
-116.6400000000000006
11
146.5499849999999924
21
-116.6400000000000006
0
LINE
8
BLACK
6
CONTINUOUS
10
146.5499849999999924
20
-116.6400000000000006
11
146.5729460000000017
21
-116.644566999999995
0
LINE
8
BLACK
6
CONTINUOUS
10
132.6099849999999947
20
-116.7599999999999909
11
132.6099849999999947
21
-130.6399999999999864
0
LINE
8
BLACK
6
CONTINUOUS
10
132.6099849999999947
20
-130.6399999999999864
11
146.4899849999999901
21
-130.6399999999999864
0
LINE
8
BLACK
6
CONTINUOUS
10
146.4899849999999901
20
-130.6399999999999864
11
146.4899849999999901
21
-116.7599999999999909
0
LINE
8
BLACK
6
CONTINUOUS
10
146.4899849999999901
20
-116.7599999999999909
11
132.6099849999999947
21
-116.7599999999999909
0
LINE
8
BLACK
6
CONTINUOUS
10
165.672945999999996
20
-114.2345669999999984
11
165.7054179999999803
21
-114.2670389999999969
0
LINE
8
BLACK
6
CONTINUOUS
10
165.7054179999999803
20
-114.2670389999999969
11
165.709984999999989
21
-114.289999999999992
0
LINE
8
BLACK
6
CONTINUOUS
10
165.709984999999989
20
-114.289999999999992
11
165.709984999999989
21
-128.289999999999992
0
LINE
8
BLACK
6
CONTINUOUS
10
165.709984999999989
20
-128.289999999999992
11
165.7054179999999803
21
-128.3129610000000014
0
LINE
8
BLACK
6
CONTINUOUS
10
165.7054179999999803
20
-128.3129610000000014
11
165.672945999999996
21
-128.3454329999999857
0
LINE
8
BLACK
6
CONTINUOUS
10
165.672945999999996
20
-128.3454329999999857
11
165.6499849999999867
21
-128.3499999999999943
0
LINE
8
BLACK
6
CONTINUOUS
10
165.6499849999999867
20
-128.3499999999999943
11
151.6499849999999867
21
-128.3499999999999943
0
LINE
8
BLACK
6
CONTINUOUS
10
151.6499849999999867
20
-128.3499999999999943
11
151.6270240000000058
21
-128.3454329999999857
0
LINE
8
BLACK
6
CONTINUOUS
10
151.6270240000000058
20
-128.3454329999999857
11
151.5945519999999931
21
-128.3129610000000014
0
LINE
8
BLACK
6
CONTINUOUS
10
151.5945519999999931
20
-128.3129610000000014
11
151.5899849999999844
21
-128.289999999999992
0
LINE
8
BLACK
6
CONTINUOUS
10
151.5899849999999844
20
-128.289999999999992
11
151.5899849999999844
21
-114.289999999999992
0
LINE
8
BLACK
6
CONTINUOUS
10
151.5899849999999844
20
-114.289999999999992
11
151.5945519999999931
21
-114.2670389999999969
0
LINE
8
BLACK
6
CONTINUOUS
10
151.5945519999999931
20
-114.2670389999999969
11
151.6270240000000058
21
-114.2345669999999984
0
LINE
8
BLACK
6
CONTINUOUS
10
151.6270240000000058
20
-114.2345669999999984
11
151.6499849999999867
21
-114.2299999999999898
0
LINE
8
BLACK
6
CONTINUOUS
10
151.6499849999999867
20
-114.2299999999999898
11
165.6499849999999867
21
-114.2299999999999898
0
LINE
8
BLACK
6
CONTINUOUS
10
165.6499849999999867
20
-114.2299999999999898
11
165.672945999999996
21
-114.2345669999999984
0
LINE
8
BLACK
6
CONTINUOUS
10
151.709984999999989
20
-114.3499999999999943
11
151.709984999999989
21
-128.2299999999999898
0
LINE
8
BLACK
6
CONTINUOUS
10
151.709984999999989
20
-128.2299999999999898
11
165.5899849999999844
21
-128.2299999999999898
0
LINE
8
BLACK
6
CONTINUOUS
10
165.5899849999999844
20
-128.2299999999999898
11
165.5899849999999844
21
-114.3499999999999943
0
LINE
8
BLACK
6
CONTINUOUS
10
165.5899849999999844
20
-114.3499999999999943
11
151.709984999999989
21
-114.3499999999999943
0
LINE
8
BLACK
6
CONTINUOUS
10
103.2684619999999995
20
-118.0817749999999933
11
103.4400859999999938
21
-118.1375389999999896
0
LINE
8
BLACK
6
CONTINUOUS
10
103.4400859999999938
20
-118.1375389999999896
11
103.6008729999999929
21
-118.2194639999999879
0
LINE
8
BLACK
6
CONTINUOUS
10
103.6008729999999929
20
-118.2194639999999879
11
103.7468649999999997
21
-118.325532999999993
0
LINE
8
BLACK
6
CONTINUOUS
10
103.7468649999999997
20
-118.325532999999993
11
103.8744669999999957
21
-118.453134999999989
0
LINE
8
BLACK
6
CONTINUOUS
10
103.8744669999999957
20
-118.453134999999989
11
103.9805360000000007
21
-118.5991269999999957
0
LINE
8
BLACK
6
CONTINUOUS
10
103.9805360000000007
20
-118.5991269999999957
11
104.062460999999999
21
-118.7599139999999949
0
LINE
8
BLACK
6
CONTINUOUS
10
104.062460999999999
20
-118.7599139999999949
11
104.1182249999999954
21
-118.9315379999999891
0
LINE
8
BLACK
6
CONTINUOUS
10
104.1182249999999954
20
-118.9315379999999891
11
104.1464549999999889
21
-119.1097719999999924
0
LINE
8
BLACK
6
CONTINUOUS
10
104.1464549999999889
20
-119.1097719999999924
11
104.1464549999999889
21
-119.290227999999999
0
LINE
8
BLACK
6
CONTINUOUS
10
104.1464549999999889
20
-119.290227999999999
11
104.1182249999999954
21
-119.4684619999999882
0
LINE
8
BLACK
6
CONTINUOUS
10
104.1182249999999954
20
-119.4684619999999882
11
104.062460999999999
21
-119.6400859999999966
0
LINE
8
BLACK
6
CONTINUOUS
10
104.062460999999999
20
-119.6400859999999966
11
103.9805360000000007
21
-119.8008729999999957
0
LINE
8
BLACK
6
CONTINUOUS
10
103.9805360000000007
20
-119.8008729999999957
11
103.8744669999999957
21
-119.9468649999999883
0
LINE
8
BLACK
6
CONTINUOUS
10
103.8744669999999957
20
-119.9468649999999883
11
103.7468649999999997
21
-120.0744669999999985
0
LINE
8
BLACK
6
CONTINUOUS
10
103.7468649999999997
20
-120.0744669999999985
11
103.6008729999999929
21
-120.1805359999999894
0
LINE
8
BLACK
6
CONTINUOUS
10
103.6008729999999929
20
-120.1805359999999894
11
103.4400859999999938
21
-120.2624609999999876
0
LINE
8
BLACK
6
CONTINUOUS
10
103.4400859999999938
20
-120.2624609999999876
11
103.2684619999999995
21
-120.3182249999999982
0
LINE
8
BLACK
6
CONTINUOUS
10
103.2684619999999995
20
-120.3182249999999982
11
103.0902279999999962
21
-120.3464549999999917
0
LINE
8
BLACK
6
CONTINUOUS
10
103.0902279999999962
20
-120.3464549999999917
11
102.9097719999999896
21
-120.3464549999999917
0
LINE
8
BLACK
6
CONTINUOUS
10
102.9097719999999896
20
-120.3464549999999917
11
102.7315380000000005
21
-120.3182249999999982
0
LINE
8
BLACK
6
CONTINUOUS
10
102.7315380000000005
20
-120.3182249999999982
11
102.559913999999992
21
-120.2624609999999876
0
LINE
8
BLACK
6
CONTINUOUS
10
102.559913999999992
20
-120.2624609999999876
11
102.3991269999999929
21
-120.1805359999999894
0
LINE
8
BLACK
6
CONTINUOUS
10
102.3991269999999929
20
-120.1805359999999894
11
102.2531350000000003
21
-120.0744669999999985
0
LINE
8
BLACK
6
CONTINUOUS
10
102.2531350000000003
20
-120.0744669999999985
11
102.1255329999999901
21
-119.9468649999999883
0
LINE
8
BLACK
6
CONTINUOUS
10
102.1255329999999901
20
-119.9468649999999883
11
102.0194639999999993
21
-119.8008729999999957
0
LINE
8
BLACK
6
CONTINUOUS
10
102.0194639999999993
20
-119.8008729999999957
11
101.937539000000001
21
-119.6400859999999966
0
LINE
8
BLACK
6
CONTINUOUS
10
101.937539000000001
20
-119.6400859999999966
11
101.8817749999999904
21
-119.4684619999999882
0
LINE
8
BLACK
6
CONTINUOUS
10
101.8817749999999904
20
-119.4684619999999882
11
101.8535449999999969
21
-119.290227999999999
0
LINE
8
BLACK
6
CONTINUOUS
10
101.8535449999999969
20
-119.290227999999999
11
101.8535449999999969
21
-119.1097719999999924
0
LINE
8
BLACK
6
CONTINUOUS
10
101.8535449999999969
20
-119.1097719999999924
11
101.8556339999999949
21
-119.0965839999999929
0
LINE
8
BLACK
6
CONTINUOUS
10
101.8556339999999949
20
-119.0965839999999929
11
101.8817749999999904
21
-118.9315379999999891
0
LINE
8
BLACK
6
CONTINUOUS
10
101.8817749999999904
20
-118.9315379999999891
11
101.937539000000001
21
-118.7599139999999949
0
LINE
8
BLACK
6
CONTINUOUS
10
101.937539000000001
20
-118.7599139999999949
11
102.0194639999999993
21
-118.5991269999999957
0
LINE
8
BLACK
6
CONTINUOUS
10
102.0194639999999993
20
-118.5991269999999957
11
102.1255329999999901
21
-118.453134999999989
0
LINE
8
BLACK
6
CONTINUOUS
10
102.1255329999999901
20
-118.453134999999989
11
102.2531350000000003
21
-118.325532999999993
0
LINE
8
BLACK
6
CONTINUOUS
10
102.2531350000000003
20
-118.325532999999993
11
102.3991269999999929
21
-118.2194639999999879
0
LINE
8
BLACK
6
CONTINUOUS
10
102.3991269999999929
20
-118.2194639999999879
11
102.559913999999992
21
-118.1375389999999896
0
LINE
8
BLACK
6
CONTINUOUS
10
102.559913999999992
20
-118.1375389999999896
11
102.7315380000000005
21
-118.0817749999999933
0
LINE
8
BLACK
6
CONTINUOUS
10
102.7315380000000005
20
-118.0817749999999933
11
102.9097719999999896
21
-118.0535449999999997
0
LINE
8
BLACK
6
CONTINUOUS
10
102.9097719999999896
20
-118.0535449999999997
11
103.0902279999999962
21
-118.0535449999999997
0
LINE
8
BLACK
6
CONTINUOUS
10
103.0902279999999962
20
-118.0535449999999997
11
103.2684619999999995
21
-118.0817749999999933
0
LINE
8
BLACK
6
CONTINUOUS
10
101.9499999999999886
20
-119.3034159999999986
11
101.9903499999999923
21
-119.5062739999999906
0
LINE
8
BLACK
6
CONTINUOUS
10
101.9903499999999923
20
-119.5062739999999906
11
102.069502
21
-119.6973619999999983
0
LINE
8
BLACK
6
CONTINUOUS
10
102.069502
20
-119.6973619999999983
11
102.1844109999999972
21
-119.8693359999999899
0
LINE
8
BLACK
6
CONTINUOUS
10
102.1844109999999972
20
-119.8693359999999899
11
102.3306639999999987
21
-120.0155889999999914
0
LINE
8
BLACK
6
CONTINUOUS
10
102.3306639999999987
20
-120.0155889999999914
11
102.5026379999999904
21
-120.1304979999999887
0
LINE
8
BLACK
6
CONTINUOUS
10
102.5026379999999904
20
-120.1304979999999887
11
102.6937259999999981
21
-120.2096499999999963
0
LINE
8
BLACK
6
CONTINUOUS
10
102.6937259999999981
20
-120.2096499999999963
11
102.8965839999999901
21
-120.25
0
LINE
8
BLACK
6
CONTINUOUS
10
102.8965839999999901
20
-120.25
11
103.1034159999999957
21
-120.25
0
LINE
8
BLACK
6
CONTINUOUS
10
103.1034159999999957
20
-120.25
11
103.3062740000000019
21
-120.2096499999999963
0
LINE
8
BLACK
6
CONTINUOUS
10
103.3062740000000019
20
-120.2096499999999963
11
103.4973619999999954
21
-120.1304979999999887
0
LINE
8
BLACK
6
CONTINUOUS
10
103.4973619999999954
20
-120.1304979999999887
11
103.6693360000000013
21
-120.0155889999999914
0
LINE
8
BLACK
6
CONTINUOUS
10
103.6693360000000013
20
-120.0155889999999914
11
103.8155889999999886
21
-119.8693359999999899
0
LINE
8
BLACK
6
CONTINUOUS
10
103.8155889999999886
20
-119.8693359999999899
11
103.930498
21
-119.6973619999999983
0
LINE
8
BLACK
6
CONTINUOUS
10
103.930498
20
-119.6973619999999983
11
104.0096499999999935
21
-119.5062739999999906
0
LINE
8
BLACK
6
CONTINUOUS
10
104.0096499999999935
20
-119.5062739999999906
11
104.0499999999999972
21
-119.3034159999999986
0
LINE
8
BLACK
6
CONTINUOUS
10
104.0499999999999972
20
-119.3034159999999986
11
104.0499999999999972
21
-119.0965839999999929
0
LINE
8
BLACK
6
CONTINUOUS
10
104.0499999999999972
20
-119.0965839999999929
11
104.0096499999999935
21
-118.8937260000000009
0
LINE
8
BLACK
6
CONTINUOUS
10
104.0096499999999935
20
-118.8937260000000009
11
103.930498
21
-118.7026379999999932
0
LINE
8
BLACK
6
CONTINUOUS
10
103.930498
20
-118.7026379999999932
11
103.8155889999999886
21
-118.5306640000000016
0
LINE
8
BLACK
6
CONTINUOUS
10
103.8155889999999886
20
-118.5306640000000016
11
103.6693360000000013
21
-118.3844110000000001
0
LINE
8
BLACK
6
CONTINUOUS
10
103.6693360000000013
20
-118.3844110000000001
11
103.4973619999999954
21
-118.2695019999999886
0
LINE
8
BLACK
6
CONTINUOUS
10
103.4973619999999954
20
-118.2695019999999886
11
103.3062740000000019
21
-118.1903499999999951
0
LINE
8
BLACK
6
CONTINUOUS
10
103.3062740000000019
20
-118.1903499999999951
11
103.1034159999999957
21
-118.1499999999999915
0
LINE
8
BLACK
6
CONTINUOUS
10
103.1034159999999957
20
-118.1499999999999915
11
102.8965839999999901
21
-118.1499999999999915
0
LINE
8
BLACK
6
CONTINUOUS
10
102.8965839999999901
20
-118.1499999999999915
11
102.6937259999999981
21
-118.1903499999999951
0
LINE
8
BLACK
6
CONTINUOUS
10
102.6937259999999981
20
-118.1903499999999951
11
102.5026379999999904
21
-118.2695019999999886
0
LINE
8
BLACK
6
CONTINUOUS
10
102.5026379999999904
20
-118.2695019999999886
11
102.3306639999999987
21
-118.3844110000000001
0
LINE
8
BLACK
6
CONTINUOUS
10
102.3306639999999987
20
-118.3844110000000001
11
102.1844109999999972
21
-118.5306640000000016
0
LINE
8
BLACK
6
CONTINUOUS
10
102.1844109999999972
20
-118.5306640000000016
11
102.069502
21
-118.7026379999999932
0
LINE
8
BLACK
6
CONTINUOUS
10
102.069502
20
-118.7026379999999932
11
101.9903499999999923
21
-118.8937260000000009
0
LINE
8
BLACK
6
CONTINUOUS
10
101.9903499999999923
20
-118.8937260000000009
11
101.9499999999999886
21
-119.0965839999999929
0
LINE
8
BLACK
6
CONTINUOUS
10
101.9499999999999886
20
-119.0965839999999929
11
101.9499999999999886
21
-119.3034159999999986
0
LINE
8
BLACK
6
CONTINUOUS
10
203.7729459999999904
20
-102.4445669999999922
11
203.8054180000000031
21
-102.4770389999999907
0
LINE
8
BLACK
6
CONTINUOUS
10
203.8054180000000031
20
-102.4770389999999907
11
203.8099849999999833
21
-102.5
0
LINE
8
BLACK
6
CONTINUOUS
10
203.8099849999999833
20
-102.5
11
203.8099849999999833
21
-116.5
0
LINE
8
BLACK
6
CONTINUOUS
10
203.8099849999999833
20
-116.5
11
203.8054180000000031
21
-116.5229609999999951
0
LINE
8
BLACK
6
CONTINUOUS
10
203.8054180000000031
20
-116.5229609999999951
11
203.7729459999999904
21
-116.5554329999999936
0
LINE
8
BLACK
6
CONTINUOUS
10
203.7729459999999904
20
-116.5554329999999936
11
203.749984999999981
21
-116.5599999999999881
0
LINE
8
BLACK
6
CONTINUOUS
10
203.749984999999981
20
-116.5599999999999881
11
189.749984999999981
21
-116.5599999999999881
0
LINE
8
BLACK
6
CONTINUOUS
10
189.749984999999981
20
-116.5599999999999881
11
189.7270240000000001
21
-116.5554329999999936
0
LINE
8
BLACK
6
CONTINUOUS
10
189.7270240000000001
20
-116.5554329999999936
11
189.6945519999999874
21
-116.5229609999999951
0
LINE
8
BLACK
6
CONTINUOUS
10
189.6945519999999874
20
-116.5229609999999951
11
189.6899849999999788
21
-116.5
0
LINE
8
BLACK
6
CONTINUOUS
10
189.6899849999999788
20
-116.5
11
189.6899849999999788
21
-102.5
0
LINE
8
BLACK
6
CONTINUOUS
10
189.6899849999999788
20
-102.5
11
189.6945519999999874
21
-102.4770389999999907
0
LINE
8
BLACK
6
CONTINUOUS
10
189.6945519999999874
20
-102.4770389999999907
11
189.7270240000000001
21
-102.4445669999999922
0
LINE
8
BLACK
6
CONTINUOUS
10
189.7270240000000001
20
-102.4445669999999922
11
189.749984999999981
21
-102.4399999999999977
0
LINE
8
BLACK
6
CONTINUOUS
10
189.749984999999981
20
-102.4399999999999977
11
203.749984999999981
21
-102.4399999999999977
0
LINE
8
BLACK
6
CONTINUOUS
10
203.749984999999981
20
-102.4399999999999977
11
203.7729459999999904
21
-102.4445669999999922
0
LINE
8
BLACK
6
CONTINUOUS
10
189.8099849999999833
20
-102.5600000000000023
11
189.8099849999999833
21
-116.4399999999999977
0
LINE
8
BLACK
6
CONTINUOUS
10
189.8099849999999833
20
-116.4399999999999977
11
203.6899849999999788
21
-116.4399999999999977
0
LINE
8
BLACK
6
CONTINUOUS
10
203.6899849999999788
20
-116.4399999999999977
11
203.6899849999999788
21
-102.5600000000000023
0
LINE
8
BLACK
6
CONTINUOUS
10
203.6899849999999788
20
-102.5600000000000023
11
189.8099849999999833
21
-102.5600000000000023
0
LINE
8
BLACK
6
CONTINUOUS
10
222.8229460000000017
20
-102.4445669999999922
11
222.855417999999986
21
-102.4770389999999907
0
LINE
8
BLACK
6
CONTINUOUS
10
222.855417999999986
20
-102.4770389999999907
11
222.8599849999999947
21
-102.5
0
LINE
8
BLACK
6
CONTINUOUS
10
222.8599849999999947
20
-102.5
11
222.8599849999999947
21
-116.5
0
LINE
8
BLACK
6
CONTINUOUS
10
222.8599849999999947
20
-116.5
11
222.855417999999986
21
-116.5229609999999951
0
LINE
8
BLACK
6
CONTINUOUS
10
222.855417999999986
20
-116.5229609999999951
11
222.8229460000000017
21
-116.5554329999999936
0
LINE
8
BLACK
6
CONTINUOUS
10
222.8229460000000017
20
-116.5554329999999936
11
222.7999849999999924
21
-116.5599999999999881
0
LINE
8
BLACK
6
CONTINUOUS
10
222.7999849999999924
20
-116.5599999999999881
11
208.7999849999999924
21
-116.5599999999999881
0
LINE
8
BLACK
6
CONTINUOUS
10
208.7999849999999924
20
-116.5599999999999881
11
208.7770239999999831
21
-116.5554329999999936
0
LINE
8
BLACK
6
CONTINUOUS
10
208.7770239999999831
20
-116.5554329999999936
11
208.7445519999999988
21
-116.5229609999999951
0
LINE
8
BLACK
6
CONTINUOUS
10
208.7445519999999988
20
-116.5229609999999951
11
208.7399849999999901
21
-116.5
0
LINE
8
BLACK
6
CONTINUOUS
10
208.7399849999999901
20
-116.5
11
208.7399849999999901
21
-102.5
0
LINE
8
BLACK
6
CONTINUOUS
10
208.7399849999999901
20
-102.5
11
208.7445519999999988
21
-102.4770389999999907
0
LINE
8
BLACK
6
CONTINUOUS
10
208.7445519999999988
20
-102.4770389999999907
11
208.7770239999999831
21
-102.4445669999999922
0
LINE
8
BLACK
6
CONTINUOUS
10
208.7770239999999831
20
-102.4445669999999922
11
208.7999849999999924
21
-102.4399999999999977
0
LINE
8
BLACK
6
CONTINUOUS
10
208.7999849999999924
20
-102.4399999999999977
11
222.7999849999999924
21
-102.4399999999999977
0
LINE
8
BLACK
6
CONTINUOUS
10
222.7999849999999924
20
-102.4399999999999977
11
222.8229460000000017
21
-102.4445669999999922
0
LINE
8
BLACK
6
CONTINUOUS
10
208.8599849999999947
20
-102.5600000000000023
11
208.8599849999999947
21
-116.4399999999999977
0
LINE
8
BLACK
6
CONTINUOUS
10
208.8599849999999947
20
-116.4399999999999977
11
222.7399849999999901
21
-116.4399999999999977
0
LINE
8
BLACK
6
CONTINUOUS
10
222.7399849999999901
20
-116.4399999999999977
11
222.7399849999999901
21
-102.5600000000000023
0
LINE
8
BLACK
6
CONTINUOUS
10
222.7399849999999901
20
-102.5600000000000023
11
208.8599849999999947
21
-102.5600000000000023
0
LINE
8
BLACK
6
CONTINUOUS
10
127.5729459999999875
20
-100.0445670000000007
11
127.6054180000000002
21
-100.0770389999999992
0
LINE
8
BLACK
6
CONTINUOUS
10
127.6054180000000002
20
-100.0770389999999992
11
127.6099849999999947
21
-100.0999999999999943
0
LINE
8
BLACK
6
CONTINUOUS
10
127.6099849999999947
20
-100.0999999999999943
11
127.6099849999999947
21
-114.0999999999999943
0
LINE
8
BLACK
6
CONTINUOUS
10
127.6099849999999947
20
-114.0999999999999943
11
127.6054180000000002
21
-114.1229609999999894
0
LINE
8
BLACK
6
CONTINUOUS
10
127.6054180000000002
20
-114.1229609999999894
11
127.5729459999999875
21
-114.1554329999999879
0
LINE
8
BLACK
6
CONTINUOUS
10
127.5729459999999875
20
-114.1554329999999879
11
127.5499849999999924
21
-114.1599999999999966
0
LINE
8
BLACK
6
CONTINUOUS
10
127.5499849999999924
20
-114.1599999999999966
11
113.5499849999999924
21
-114.1599999999999966
0
LINE
8
BLACK
6
CONTINUOUS
10
113.5499849999999924
20
-114.1599999999999966
11
113.5270239999999973
21
-114.1554329999999879
0
LINE
8
BLACK
6
CONTINUOUS
10
113.5270239999999973
20
-114.1554329999999879
11
113.4945519999999988
21
-114.1229609999999894
0
LINE
8
BLACK
6
CONTINUOUS
10
113.4945519999999988
20
-114.1229609999999894
11
113.4899849999999901
21
-114.0999999999999943
0
LINE
8
BLACK
6
CONTINUOUS
10
113.4899849999999901
20
-114.0999999999999943
11
113.4899849999999901
21
-100.0999999999999943
0
LINE
8
BLACK
6
CONTINUOUS
10
113.4899849999999901
20
-100.0999999999999943
11
113.4945519999999988
21
-100.0770389999999992
0
LINE
8
BLACK
6
CONTINUOUS
10
113.4945519999999988
20
-100.0770389999999992
11
113.5270239999999973
21
-100.0445670000000007
0
LINE
8
BLACK
6
CONTINUOUS
10
113.5270239999999973
20
-100.0445670000000007
11
113.5499849999999924
21
-100.039999999999992
0
LINE
8
BLACK
6
CONTINUOUS
10
113.5499849999999924
20
-100.039999999999992
11
127.5499849999999924
21
-100.039999999999992
0
LINE
8
BLACK
6
CONTINUOUS
10
127.5499849999999924
20
-100.039999999999992
11
127.5729459999999875
21
-100.0445670000000007
0
LINE
8
BLACK
6
CONTINUOUS
10
113.6099849999999947
20
-100.1599999999999966
11
113.6099849999999947
21
-114.039999999999992
0
LINE
8
BLACK
6
CONTINUOUS
10
113.6099849999999947
20
-114.039999999999992
11
127.4899849999999901
21
-114.039999999999992
0
LINE
8
BLACK
6
CONTINUOUS
10
127.4899849999999901
20
-114.039999999999992
11
127.4899849999999901
21
-100.1599999999999966
0
LINE
8
BLACK
6
CONTINUOUS
10
127.4899849999999901
20
-100.1599999999999966
11
113.6099849999999947
21
-100.1599999999999966
0
LINE
8
BLACK
6
CONTINUOUS
10
107.8103610000000003
20
-98.4501669999999933
11
107.8428329999999988
21
-98.4826389999999918
0
LINE
8
BLACK
6
CONTINUOUS
10
107.8428329999999988
20
-98.4826389999999918
11
107.8473999999999933
21
-98.5056000000000012
0
LINE
8
BLACK
6
CONTINUOUS
10
107.8473999999999933
20
-98.5056000000000012
11
107.8473999999999933
21
-112.5056000000000012
0
LINE
8
BLACK
6
CONTINUOUS
10
107.8473999999999933
20
-112.5056000000000012
11
107.8428329999999988
21
-112.5285609999999963
0
LINE
8
BLACK
6
CONTINUOUS
10
107.8428329999999988
20
-112.5285609999999963
11
107.8103610000000003
21
-112.5610329999999948
0
LINE
8
BLACK
6
CONTINUOUS
10
107.8103610000000003
20
-112.5610329999999948
11
107.787399999999991
21
-112.5655999999999892
0
LINE
8
BLACK
6
CONTINUOUS
10
107.787399999999991
20
-112.5655999999999892
11
92.2125999999999948
21
-112.5655999999999892
0
LINE
8
BLACK
6
CONTINUOUS
10
92.2125999999999948
20
-112.5655999999999892
11
92.1896389999999997
21
-112.5610329999999948
0
LINE
8
BLACK
6
CONTINUOUS
10
92.1896389999999997
20
-112.5610329999999948
11
92.1571670000000012
21
-112.5285609999999963
0
LINE
8
BLACK
6
CONTINUOUS
10
92.1571670000000012
20
-112.5285609999999963
11
92.1525999999999925
21
-112.5056000000000012
0
LINE
8
BLACK
6
CONTINUOUS
10
92.1525999999999925
20
-112.5056000000000012
11
92.1525999999999925
21
-98.5056000000000012
0
LINE
8
BLACK
6
CONTINUOUS
10
92.1525999999999925
20
-98.5056000000000012
11
92.1571670000000012
21
-98.4826389999999918
0
LINE
8
BLACK
6
CONTINUOUS
10
92.1571670000000012
20
-98.4826389999999918
11
92.1896389999999997
21
-98.4501669999999933
0
LINE
8
BLACK
6
CONTINUOUS
10
92.1896389999999997
20
-98.4501669999999933
11
92.2125999999999948
21
-98.4455999999999989
0
LINE
8
BLACK
6
CONTINUOUS
10
92.2125999999999948
20
-98.4455999999999989
11
107.787399999999991
21
-98.4455999999999989
0
LINE
8
BLACK
6
CONTINUOUS
10
107.787399999999991
20
-98.4455999999999989
11
107.8103610000000003
21
-98.4501669999999933
0
LINE
8
BLACK
6
CONTINUOUS
10
92.2725999999999971
20
-98.5655999999999892
11
92.2725999999999971
21
-112.4455999999999989
0
LINE
8
BLACK
6
CONTINUOUS
10
92.2725999999999971
20
-112.4455999999999989
11
107.7273999999999887
21
-112.4455999999999989
0
LINE
8
BLACK
6
CONTINUOUS
10
107.7273999999999887
20
-112.4455999999999989
11
107.7273999999999887
21
-98.5655999999999892
0
LINE
8
BLACK
6
CONTINUOUS
10
107.7273999999999887
20
-98.5655999999999892
11
92.2725999999999971
21
-98.5655999999999892
0
LINE
8
BLACK
6
CONTINUOUS
10
146.5729460000000017
20
-97.644566999999995
11
146.605417999999986
21
-97.6770389999999935
0
LINE
8
BLACK
6
CONTINUOUS
10
146.605417999999986
20
-97.6770389999999935
11
146.6099849999999947
21
-97.6999999999999886
0
LINE
8
BLACK
6
CONTINUOUS
10
146.6099849999999947
20
-97.6999999999999886
11
146.6099849999999947
21
-111.6999999999999886
0
LINE
8
BLACK
6
CONTINUOUS
10
146.6099849999999947
20
-111.6999999999999886
11
146.605417999999986
21
-111.722960999999998
0
LINE
8
BLACK
6
CONTINUOUS
10
146.605417999999986
20
-111.722960999999998
11
146.5729460000000017
21
-111.7554329999999965
0
LINE
8
BLACK
6
CONTINUOUS
10
146.5729460000000017
20
-111.7554329999999965
11
146.5499849999999924
21
-111.7599999999999909
0
LINE
8
BLACK
6
CONTINUOUS
10
146.5499849999999924
20
-111.7599999999999909
11
132.5499849999999924
21
-111.7599999999999909
0
LINE
8
BLACK
6
CONTINUOUS
10
132.5499849999999924
20
-111.7599999999999909
11
132.5270239999999831
21
-111.7554329999999965
0
LINE
8
BLACK
6
CONTINUOUS
10
132.5270239999999831
20
-111.7554329999999965
11
132.4945519999999988
21
-111.722960999999998
0
LINE
8
BLACK
6
CONTINUOUS
10
132.4945519999999988
20
-111.722960999999998
11
132.4899849999999901
21
-111.6999999999999886
0
LINE
8
BLACK
6
CONTINUOUS
10
132.4899849999999901
20
-111.6999999999999886
11
132.4899849999999901
21
-97.6999999999999886
0
LINE
8
BLACK
6
CONTINUOUS
10
132.4899849999999901
20
-97.6999999999999886
11
132.4945519999999988
21
-97.6770389999999935
0
LINE
8
BLACK
6
CONTINUOUS
10
132.4945519999999988
20
-97.6770389999999935
11
132.5270239999999831
21
-97.644566999999995
0
LINE
8
BLACK
6
CONTINUOUS
10
132.5270239999999831
20
-97.644566999999995
11
132.5499849999999924
21
-97.6400000000000006
0
LINE
8
BLACK
6
CONTINUOUS
10
132.5499849999999924
20
-97.6400000000000006
11
146.5499849999999924
21
-97.6400000000000006
0
LINE
8
BLACK
6
CONTINUOUS
10
146.5499849999999924
20
-97.6400000000000006
11
146.5729460000000017
21
-97.644566999999995
0
LINE
8
BLACK
6
CONTINUOUS
10
132.6099849999999947
20
-97.7599999999999909
11
132.6099849999999947
21
-111.6400000000000006
0
LINE
8
BLACK
6
CONTINUOUS
10
132.6099849999999947
20
-111.6400000000000006
11
146.4899849999999901
21
-111.6400000000000006
0
LINE
8
BLACK
6
CONTINUOUS
10
146.4899849999999901
20
-111.6400000000000006
11
146.4899849999999901
21
-97.7599999999999909
0
LINE
8
BLACK
6
CONTINUOUS
10
146.4899849999999901
20
-97.7599999999999909
11
132.6099849999999947
21
-97.7599999999999909
0
LINE
8
BLACK
6
CONTINUOUS
10
184.672945999999996
20
-97.644566999999995
11
184.7054179999999803
21
-97.6770389999999935
0
LINE
8
BLACK
6
CONTINUOUS
10
184.7054179999999803
20
-97.6770389999999935
11
184.709984999999989
21
-97.6999999999999886
0
LINE
8
BLACK
6
CONTINUOUS
10
184.709984999999989
20
-97.6999999999999886
11
184.709984999999989
21
-111.6999999999999886
0
LINE
8
BLACK
6
CONTINUOUS
10
184.709984999999989
20
-111.6999999999999886
11
184.7054179999999803
21
-111.722960999999998
0
LINE
8
BLACK
6
CONTINUOUS
10
184.7054179999999803
20
-111.722960999999998
11
184.672945999999996
21
-111.7554329999999965
0
LINE
8
BLACK
6
CONTINUOUS
10
184.672945999999996
20
-111.7554329999999965
11
184.6499849999999867
21
-111.7599999999999909
0
LINE
8
BLACK
6
CONTINUOUS
10
184.6499849999999867
20
-111.7599999999999909
11
170.6499849999999867
21
-111.7599999999999909
0
LINE
8
BLACK
6
CONTINUOUS
10
170.6499849999999867
20
-111.7599999999999909
11
170.6270240000000058
21
-111.7554329999999965
0
LINE
8
BLACK
6
CONTINUOUS
10
170.6270240000000058
20
-111.7554329999999965
11
170.5945519999999931
21
-111.722960999999998
0
LINE
8
BLACK
6
CONTINUOUS
10
170.5945519999999931
20
-111.722960999999998
11
170.5899849999999844
21
-111.6999999999999886
0
LINE
8
BLACK
6
CONTINUOUS
10
170.5899849999999844
20
-111.6999999999999886
11
170.5899849999999844
21
-97.6999999999999886
0
LINE
8
BLACK
6
CONTINUOUS
10
170.5899849999999844
20
-97.6999999999999886
11
170.5945519999999931
21
-97.6770389999999935
0
LINE
8
BLACK
6
CONTINUOUS
10
170.5945519999999931
20
-97.6770389999999935
11
170.6270240000000058
21
-97.644566999999995
0
LINE
8
BLACK
6
CONTINUOUS
10
170.6270240000000058
20
-97.644566999999995
11
170.6499849999999867
21
-97.6400000000000006
0
LINE
8
BLACK
6
CONTINUOUS
10
170.6499849999999867
20
-97.6400000000000006
11
184.6499849999999867
21
-97.6400000000000006
0
LINE
8
BLACK
6
CONTINUOUS
10
184.6499849999999867
20
-97.6400000000000006
11
184.672945999999996
21
-97.644566999999995
0
LINE
8
BLACK
6
CONTINUOUS
10
170.709984999999989
20
-97.7599999999999909
11
170.709984999999989
21
-111.6400000000000006
0
LINE
8
BLACK
6
CONTINUOUS
10
170.709984999999989
20
-111.6400000000000006
11
184.5899849999999844
21
-111.6400000000000006
0
LINE
8
BLACK
6
CONTINUOUS
10
184.5899849999999844
20
-111.6400000000000006
11
184.5899849999999844
21
-97.7599999999999909
0
LINE
8
BLACK
6
CONTINUOUS
10
184.5899849999999844
20
-97.7599999999999909
11
170.709984999999989
21
-97.7599999999999909
0
LINE
8
BLACK
6
CONTINUOUS
10
165.6729609999999866
20
-95.1345669999999899
11
165.7054329999999993
21
-95.1670390000000026
0
LINE
8
BLACK
6
CONTINUOUS
10
165.7054329999999993
20
-95.1670390000000026
11
165.7099999999999795
21
-95.1899999999999977
0
LINE
8
BLACK
6
CONTINUOUS
10
165.7099999999999795
20
-95.1899999999999977
11
165.7099999999999795
21
-109.1899999999999977
0
LINE
8
BLACK
6
CONTINUOUS
10
165.7099999999999795
20
-109.1899999999999977
11
165.7054329999999993
21
-109.2129609999999929
0
LINE
8
BLACK
6
CONTINUOUS
10
165.7054329999999993
20
-109.2129609999999929
11
165.6729609999999866
21
-109.2454329999999914
0
LINE
8
BLACK
6
CONTINUOUS
10
165.6729609999999866
20
-109.2454329999999914
11
165.6500000000000057
21
-109.25
0
LINE
8
BLACK
6
CONTINUOUS
10
165.6500000000000057
20
-109.25
11
151.6500000000000057
21
-109.25
0
LINE
8
BLACK
6
CONTINUOUS
10
151.6500000000000057
20
-109.25
11
151.6270389999999963
21
-109.2454329999999914
0
LINE
8
BLACK
6
CONTINUOUS
10
151.6270389999999963
20
-109.2454329999999914
11
151.5945669999999836
21
-109.2129609999999929
0
LINE
8
BLACK
6
CONTINUOUS
10
151.5945669999999836
20
-109.2129609999999929
11
151.5900000000000034
21
-109.1899999999999977
0
LINE
8
BLACK
6
CONTINUOUS
10
151.5900000000000034
20
-109.1899999999999977
11
151.5900000000000034
21
-95.1899999999999977
0
LINE
8
BLACK
6
CONTINUOUS
10
151.5900000000000034
20
-95.1899999999999977
11
151.5945669999999836
21
-95.1670390000000026
0
LINE
8
BLACK
6
CONTINUOUS
10
151.5945669999999836
20
-95.1670390000000026
11
151.6270389999999963
21
-95.1345669999999899
0
LINE
8
BLACK
6
CONTINUOUS
10
151.6270389999999963
20
-95.1345669999999899
11
151.6500000000000057
21
-95.1299999999999955
0
LINE
8
BLACK
6
CONTINUOUS
10
151.6500000000000057
20
-95.1299999999999955
11
165.6500000000000057
21
-95.1299999999999955
0
LINE
8
BLACK
6
CONTINUOUS
10
165.6500000000000057
20
-95.1299999999999955
11
165.6729609999999866
21
-95.1345669999999899
0
LINE
8
BLACK
6
CONTINUOUS
10
151.7099999999999795
20
-95.25
11
151.7099999999999795
21
-109.1299999999999955
0
LINE
8
BLACK
6
CONTINUOUS
10
151.7099999999999795
20
-109.1299999999999955
11
165.5900000000000034
21
-109.1299999999999955
0
LINE
8
BLACK
6
CONTINUOUS
10
165.5900000000000034
20
-109.1299999999999955
11
165.5900000000000034
21
-95.25
0
LINE
8
BLACK
6
CONTINUOUS
10
165.5900000000000034
20
-95.25
11
151.7099999999999795
21
-95.25
0
LINE
8
BLACK
6
CONTINUOUS
10
206.4434619999999825
20
-99.106774999999999
11
206.6150859999999909
21
-99.1625389999999953
0
LINE
8
BLACK
6
CONTINUOUS
10
206.6150859999999909
20
-99.1625389999999953
11
206.77587299999999
21
-99.2444639999999936
0
LINE
8
BLACK
6
CONTINUOUS
10
206.77587299999999
20
-99.2444639999999936
11
206.9218649999999968
21
-99.3505329999999987
0
LINE
8
BLACK
6
CONTINUOUS
10
206.9218649999999968
20
-99.3505329999999987
11
207.0494669999999928
21
-99.4781349999999946
0
LINE
8
BLACK
6
CONTINUOUS
10
207.0494669999999928
20
-99.4781349999999946
11
207.1555359999999837
21
-99.6241270000000014
0
LINE
8
BLACK
6
CONTINUOUS
10
207.1555359999999837
20
-99.6241270000000014
11
207.2374609999999961
21
-99.7849140000000006
0
LINE
8
BLACK
6
CONTINUOUS
10
207.2374609999999961
20
-99.7849140000000006
11
207.2932249999999783
21
-99.9565379999999948
0
LINE
8
BLACK
6
CONTINUOUS
10
207.2932249999999783
20
-99.9565379999999948
11
207.3214549999999861
21
-100.1347719999999981
0
LINE
8
BLACK
6
CONTINUOUS
10
207.3214549999999861
20
-100.1347719999999981
11
207.3214549999999861
21
-100.3152279999999905
0
LINE
8
BLACK
6
CONTINUOUS
10
207.3214549999999861
20
-100.3152279999999905
11
207.2932249999999783
21
-100.4934619999999938
0
LINE
8
BLACK
6
CONTINUOUS
10
207.2932249999999783
20
-100.4934619999999938
11
207.2374609999999961
21
-100.6650860000000023
0
LINE
8
BLACK
6
CONTINUOUS
10
207.2374609999999961
20
-100.6650860000000023
11
207.1555359999999837
21
-100.8258730000000014
0
LINE
8
BLACK
6
CONTINUOUS
10
207.1555359999999837
20
-100.8258730000000014
11
207.0494669999999928
21
-100.971864999999994
0
LINE
8
BLACK
6
CONTINUOUS
10
207.0494669999999928
20
-100.971864999999994
11
206.9218649999999968
21
-101.09946699999999
0
LINE
8
BLACK
6
CONTINUOUS
10
206.9218649999999968
20
-101.09946699999999
11
206.77587299999999
21
-101.2055359999999951
0
LINE
8
BLACK
6
CONTINUOUS
10
206.77587299999999
20
-101.2055359999999951
11
206.6150859999999909
21
-101.2874609999999933
0
LINE
8
BLACK
6
CONTINUOUS
10
206.6150859999999909
20
-101.2874609999999933
11
206.4434619999999825
21
-101.3432249999999897
0
LINE
8
BLACK
6
CONTINUOUS
10
206.4434619999999825
20
-101.3432249999999897
11
206.2652279999999791
21
-101.3714549999999974
0
LINE
8
BLACK
6
CONTINUOUS
10
206.2652279999999791
20
-101.3714549999999974
11
206.0847719999999867
21
-101.3714549999999974
0
LINE
8
BLACK
6
CONTINUOUS
10
206.0847719999999867
20
-101.3714549999999974
11
205.9065379999999834
21
-101.3432249999999897
0
LINE
8
BLACK
6
CONTINUOUS
10
205.9065379999999834
20
-101.3432249999999897
11
205.7349140000000034
21
-101.2874609999999933
0
LINE
8
BLACK
6
CONTINUOUS
10
205.7349140000000034
20
-101.2874609999999933
11
205.5741270000000043
21
-101.2055359999999951
0
LINE
8
BLACK
6
CONTINUOUS
10
205.5741270000000043
20
-101.2055359999999951
11
205.4281349999999975
21
-101.09946699999999
0
LINE
8
BLACK
6
CONTINUOUS
10
205.4281349999999975
20
-101.09946699999999
11
205.3005330000000015
21
-100.971864999999994
0
LINE
8
BLACK
6
CONTINUOUS
10
205.3005330000000015
20
-100.971864999999994
11
205.1944639999999822
21
-100.8258730000000014
0
LINE
8
BLACK
6
CONTINUOUS
10
205.1944639999999822
20
-100.8258730000000014
11
205.1125389999999982
21
-100.6650860000000023
0
LINE
8
BLACK
6
CONTINUOUS
10
205.1125389999999982
20
-100.6650860000000023
11
205.0567749999999876
21
-100.4934619999999938
0
LINE
8
BLACK
6
CONTINUOUS
10
205.0567749999999876
20
-100.4934619999999938
11
205.0285449999999798
21
-100.3152279999999905
0
LINE
8
BLACK
6
CONTINUOUS
10
205.0285449999999798
20
-100.3152279999999905
11
205.0285449999999798
21
-100.1347719999999981
0
LINE
8
BLACK
6
CONTINUOUS
10
205.0285449999999798
20
-100.1347719999999981
11
205.0306339999999921
21
-100.1215839999999986
0
LINE
8
BLACK
6
CONTINUOUS
10
205.0306339999999921
20
-100.1215839999999986
11
205.0567749999999876
21
-99.9565379999999948
0
LINE
8
BLACK
6
CONTINUOUS
10
205.0567749999999876
20
-99.9565379999999948
11
205.1125389999999982
21
-99.7849140000000006
0
LINE
8
BLACK
6
CONTINUOUS
10
205.1125389999999982
20
-99.7849140000000006
11
205.1944639999999822
21
-99.6241270000000014
0
LINE
8
BLACK
6
CONTINUOUS
10
205.1944639999999822
20
-99.6241270000000014
11
205.3005330000000015
21
-99.4781349999999946
0
LINE
8
BLACK
6
CONTINUOUS
10
205.3005330000000015
20
-99.4781349999999946
11
205.4281349999999975
21
-99.3505329999999987
0
LINE
8
BLACK
6
CONTINUOUS
10
205.4281349999999975
20
-99.3505329999999987
11
205.5741270000000043
21
-99.2444639999999936
0
LINE
8
BLACK
6
CONTINUOUS
10
205.5741270000000043
20
-99.2444639999999936
11
205.7349140000000034
21
-99.1625389999999953
0
LINE
8
BLACK
6
CONTINUOUS
10
205.7349140000000034
20
-99.1625389999999953
11
205.9065379999999834
21
-99.106774999999999
0
LINE
8
BLACK
6
CONTINUOUS
10
205.9065379999999834
20
-99.106774999999999
11
206.0847719999999867
21
-99.0785449999999912
0
LINE
8
BLACK
6
CONTINUOUS
10
206.0847719999999867
20
-99.0785449999999912
11
206.2652279999999791
21
-99.0785449999999912
0
LINE
8
BLACK
6
CONTINUOUS
10
206.2652279999999791
20
-99.0785449999999912
11
206.4434619999999825
21
-99.106774999999999
0
LINE
8
BLACK
6
CONTINUOUS
10
205.125
20
-100.32841599999999
11
205.1653499999999894
21
-100.5312739999999962
0
LINE
8
BLACK
6
CONTINUOUS
10
205.1653499999999894
20
-100.5312739999999962
11
205.2445019999999829
21
-100.7223619999999897
0
LINE
8
BLACK
6
CONTINUOUS
10
205.2445019999999829
20
-100.7223619999999897
11
205.3594109999999944
21
-100.8943359999999956
0
LINE
8
BLACK
6
CONTINUOUS
10
205.3594109999999944
20
-100.8943359999999956
11
205.5056639999999959
21
-101.0405889999999971
0
LINE
8
BLACK
6
CONTINUOUS
10
205.5056639999999959
20
-101.0405889999999971
11
205.6776380000000017
21
-101.1554979999999944
0
LINE
8
BLACK
6
CONTINUOUS
10
205.6776380000000017
20
-101.1554979999999944
11
205.868725999999981
21
-101.234650000000002
0
LINE
8
BLACK
6
CONTINUOUS
10
205.868725999999981
20
-101.234650000000002
11
206.0715840000000014
21
-101.2749999999999915
0
LINE
8
BLACK
6
CONTINUOUS
10
206.0715840000000014
20
-101.2749999999999915
11
206.2784159999999929
21
-101.2749999999999915
0
LINE
8
BLACK
6
CONTINUOUS
10
206.2784159999999929
20
-101.2749999999999915
11
206.4812739999999849
21
-101.234650000000002
0
LINE
8
BLACK
6
CONTINUOUS
10
206.4812739999999849
20
-101.234650000000002
11
206.6723619999999926
21
-101.1554979999999944
0
LINE
8
BLACK
6
CONTINUOUS
10
206.6723619999999926
20
-101.1554979999999944
11
206.8443359999999984
21
-101.0405889999999971
0
LINE
8
BLACK
6
CONTINUOUS
10
206.8443359999999984
20
-101.0405889999999971
11
206.9905889999999999
21
-100.8943359999999956
0
LINE
8
BLACK
6
CONTINUOUS
10
206.9905889999999999
20
-100.8943359999999956
11
207.105497999999983
21
-100.7223619999999897
0
LINE
8
BLACK
6
CONTINUOUS
10
207.105497999999983
20
-100.7223619999999897
11
207.1846499999999764
21
-100.5312739999999962
0
LINE
8
BLACK
6
CONTINUOUS
10
207.1846499999999764
20
-100.5312739999999962
11
207.2249999999999943
21
-100.32841599999999
0
LINE
8
BLACK
6
CONTINUOUS
10
207.2249999999999943
20
-100.32841599999999
11
207.2249999999999943
21
-100.1215839999999986
0
LINE
8
BLACK
6
CONTINUOUS
10
207.2249999999999943
20
-100.1215839999999986
11
207.1846499999999764
21
-99.9187259999999924
0
LINE
8
BLACK
6
CONTINUOUS
10
207.1846499999999764
20
-99.9187259999999924
11
207.105497999999983
21
-99.7276379999999989
0
LINE
8
BLACK
6
CONTINUOUS
10
207.105497999999983
20
-99.7276379999999989
11
206.9905889999999999
21
-99.5556639999999931
0
LINE
8
BLACK
6
CONTINUOUS
10
206.9905889999999999
20
-99.5556639999999931
11
206.8443359999999984
21
-99.4094109999999915
0
LINE
8
BLACK
6
CONTINUOUS
10
206.8443359999999984
20
-99.4094109999999915
11
206.6723619999999926
21
-99.2945019999999943
0
LINE
8
BLACK
6
CONTINUOUS
10
206.6723619999999926
20
-99.2945019999999943
11
206.4812739999999849
21
-99.2153500000000008
0
LINE
8
BLACK
6
CONTINUOUS
10
206.4812739999999849
20
-99.2153500000000008
11
206.2784159999999929
21
-99.1749999999999972
0
LINE
8
BLACK
6
CONTINUOUS
10
206.2784159999999929
20
-99.1749999999999972
11
206.0715840000000014
21
-99.1749999999999972
0
LINE
8
BLACK
6
CONTINUOUS
10
206.0715840000000014
20
-99.1749999999999972
11
205.868725999999981
21
-99.2153500000000008
0
LINE
8
BLACK
6
CONTINUOUS
10
205.868725999999981
20
-99.2153500000000008
11
205.6776380000000017
21
-99.2945019999999943
0
LINE
8
BLACK
6
CONTINUOUS
10
205.6776380000000017
20
-99.2945019999999943
11
205.5056639999999959
21
-99.4094109999999915
0
LINE
8
BLACK
6
CONTINUOUS
10
205.5056639999999959
20
-99.4094109999999915
11
205.3594109999999944
21
-99.5556639999999931
0
LINE
8
BLACK
6
CONTINUOUS
10
205.3594109999999944
20
-99.5556639999999931
11
205.2445019999999829
21
-99.7276379999999989
0
LINE
8
BLACK
6
CONTINUOUS
10
205.2445019999999829
20
-99.7276379999999989
11
205.1653499999999894
21
-99.9187259999999924
0
LINE
8
BLACK
6
CONTINUOUS
10
205.1653499999999894
20
-99.9187259999999924
11
205.125
21
-100.1215839999999986
0
LINE
8
BLACK
6
CONTINUOUS
10
205.125
20
-100.1215839999999986
11
205.125
21
-100.32841599999999
0
LINE
8
BLACK
6
CONTINUOUS
10
130.2934620000000052
20
-96.6567749999999961
11
130.4650859999999852
21
-96.7125389999999925
0
LINE
8
BLACK
6
CONTINUOUS
10
130.4650859999999852
20
-96.7125389999999925
11
130.6258729999999844
21
-96.7944639999999907
0
LINE
8
BLACK
6
CONTINUOUS
10
130.6258729999999844
20
-96.7944639999999907
11
130.7718649999999911
21
-96.9005329999999958
0
LINE
8
BLACK
6
CONTINUOUS
10
130.7718649999999911
20
-96.9005329999999958
11
130.8994669999999871
21
-97.0281349999999918
0
LINE
8
BLACK
6
CONTINUOUS
10
130.8994669999999871
20
-97.0281349999999918
11
131.0055360000000064
21
-97.1741269999999986
0
LINE
8
BLACK
6
CONTINUOUS
10
131.0055360000000064
20
-97.1741269999999986
11
131.0874609999999905
21
-97.3349139999999977
0
LINE
8
BLACK
6
CONTINUOUS
10
131.0874609999999905
20
-97.3349139999999977
11
131.143225000000001
21
-97.5065379999999919
0
LINE
8
BLACK
6
CONTINUOUS
10
131.143225000000001
20
-97.5065379999999919
11
131.1714549999999804
21
-97.6847719999999953
0
LINE
8
BLACK
6
CONTINUOUS
10
131.1714549999999804
20
-97.6847719999999953
11
131.1714549999999804
21
-97.8652280000000019
0
LINE
8
BLACK
6
CONTINUOUS
10
131.1714549999999804
20
-97.8652280000000019
11
131.143225000000001
21
-98.043461999999991
0
LINE
8
BLACK
6
CONTINUOUS
10
131.143225000000001
20
-98.043461999999991
11
131.0874609999999905
21
-98.2150859999999994
0
LINE
8
BLACK
6
CONTINUOUS
10
131.0874609999999905
20
-98.2150859999999994
11
131.0055360000000064
21
-98.3758729999999986
0
LINE
8
BLACK
6
CONTINUOUS
10
131.0055360000000064
20
-98.3758729999999986
11
130.8994669999999871
21
-98.5218649999999911
0
LINE
8
BLACK
6
CONTINUOUS
10
130.8994669999999871
20
-98.5218649999999911
11
130.7718649999999911
21
-98.6494670000000013
0
LINE
8
BLACK
6
CONTINUOUS
10
130.7718649999999911
20
-98.6494670000000013
11
130.6258729999999844
21
-98.7555359999999922
0
LINE
8
BLACK
6
CONTINUOUS
10
130.6258729999999844
20
-98.7555359999999922
11
130.4650859999999852
21
-98.8374609999999905
0
LINE
8
BLACK
6
CONTINUOUS
10
130.4650859999999852
20
-98.8374609999999905
11
130.2934620000000052
21
-98.893225000000001
0
LINE
8
BLACK
6
CONTINUOUS
10
130.2934620000000052
20
-98.893225000000001
11
130.1152280000000019
21
-98.9214549999999946
0
LINE
8
BLACK
6
CONTINUOUS
10
130.1152280000000019
20
-98.9214549999999946
11
129.9347719999999811
21
-98.9214549999999946
0
LINE
8
BLACK
6
CONTINUOUS
10
129.9347719999999811
20
-98.9214549999999946
11
129.7565380000000062
21
-98.893225000000001
0
LINE
8
BLACK
6
CONTINUOUS
10
129.7565380000000062
20
-98.893225000000001
11
129.5849139999999977
21
-98.8374609999999905
0
LINE
8
BLACK
6
CONTINUOUS
10
129.5849139999999977
20
-98.8374609999999905
11
129.4241269999999986
21
-98.7555359999999922
0
LINE
8
BLACK
6
CONTINUOUS
10
129.4241269999999986
20
-98.7555359999999922
11
129.2781349999999918
21
-98.6494670000000013
0
LINE
8
BLACK
6
CONTINUOUS
10
129.2781349999999918
20
-98.6494670000000013
11
129.1505329999999958
21
-98.5218649999999911
0
LINE
8
BLACK
6
CONTINUOUS
10
129.1505329999999958
20
-98.5218649999999911
11
129.0444640000000049
21
-98.3758729999999986
0
LINE
8
BLACK
6
CONTINUOUS
10
129.0444640000000049
20
-98.3758729999999986
11
128.9625389999999925
21
-98.2150859999999994
0
LINE
8
BLACK
6
CONTINUOUS
10
128.9625389999999925
20
-98.2150859999999994
11
128.9067749999999819
21
-98.043461999999991
0
LINE
8
BLACK
6
CONTINUOUS
10
128.9067749999999819
20
-98.043461999999991
11
128.8785450000000026
21
-97.8652280000000019
0
LINE
8
BLACK
6
CONTINUOUS
10
128.8785450000000026
20
-97.8652280000000019
11
128.8785450000000026
21
-97.6847719999999953
0
LINE
8
BLACK
6
CONTINUOUS
10
128.8785450000000026
20
-97.6847719999999953
11
128.8806339999999864
21
-97.6715839999999957
0
LINE
8
BLACK
6
CONTINUOUS
10
128.8806339999999864
20
-97.6715839999999957
11
128.9067749999999819
21
-97.5065379999999919
0
LINE
8
BLACK
6
CONTINUOUS
10
128.9067749999999819
20
-97.5065379999999919
11
128.9625389999999925
21
-97.3349139999999977
0
LINE
8
BLACK
6
CONTINUOUS
10
128.9625389999999925
20
-97.3349139999999977
11
129.0444640000000049
21
-97.1741269999999986
0
LINE
8
BLACK
6
CONTINUOUS
10
129.0444640000000049
20
-97.1741269999999986
11
129.1505329999999958
21
-97.0281349999999918
0
LINE
8
BLACK
6
CONTINUOUS
10
129.1505329999999958
20
-97.0281349999999918
11
129.2781349999999918
21
-96.9005329999999958
0
LINE
8
BLACK
6
CONTINUOUS
10
129.2781349999999918
20
-96.9005329999999958
11
129.4241269999999986
21
-96.7944639999999907
0
LINE
8
BLACK
6
CONTINUOUS
10
129.4241269999999986
20
-96.7944639999999907
11
129.5849139999999977
21
-96.7125389999999925
0
LINE
8
BLACK
6
CONTINUOUS
10
129.5849139999999977
20
-96.7125389999999925
11
129.7565380000000062
21
-96.6567749999999961
0
LINE
8
BLACK
6
CONTINUOUS
10
129.7565380000000062
20
-96.6567749999999961
11
129.9347719999999811
21
-96.6285450000000026
0
LINE
8
BLACK
6
CONTINUOUS
10
129.9347719999999811
20
-96.6285450000000026
11
130.1152280000000019
21
-96.6285450000000026
0
LINE
8
BLACK
6
CONTINUOUS
10
130.1152280000000019
20
-96.6285450000000026
11
130.2934620000000052
21
-96.6567749999999961
0
LINE
8
BLACK
6
CONTINUOUS
10
128.9749999999999943
20
-97.8784160000000014
11
129.0153499999999838
21
-98.0812739999999934
0
LINE
8
BLACK
6
CONTINUOUS
10
129.0153499999999838
20
-98.0812739999999934
11
129.0945020000000056
21
-98.2723620000000011
0
LINE
8
BLACK
6
CONTINUOUS
10
129.0945020000000056
20
-98.2723620000000011
11
129.2094109999999887
21
-98.4443359999999927
0
LINE
8
BLACK
6
CONTINUOUS
10
129.2094109999999887
20
-98.4443359999999927
11
129.3556639999999902
21
-98.5905889999999943
0
LINE
8
BLACK
6
CONTINUOUS
10
129.3556639999999902
20
-98.5905889999999943
11
129.5276379999999961
21
-98.7054979999999915
0
LINE
8
BLACK
6
CONTINUOUS
10
129.5276379999999961
20
-98.7054979999999915
11
129.7187260000000038
21
-98.7846499999999992
0
LINE
8
BLACK
6
CONTINUOUS
10
129.7187260000000038
20
-98.7846499999999992
11
129.9215839999999957
21
-98.8249999999999886
0
LINE
8
BLACK
6
CONTINUOUS
10
129.9215839999999957
20
-98.8249999999999886
11
130.1284159999999872
21
-98.8249999999999886
0
LINE
8
BLACK
6
CONTINUOUS
10
130.1284159999999872
20
-98.8249999999999886
11
130.3312740000000076
21
-98.7846499999999992
0
LINE
8
BLACK
6
CONTINUOUS
10
130.3312740000000076
20
-98.7846499999999992
11
130.5223619999999869
21
-98.7054979999999915
0
LINE
8
BLACK
6
CONTINUOUS
10
130.5223619999999869
20
-98.7054979999999915
11
130.6943359999999927
21
-98.5905889999999943
0
LINE
8
BLACK
6
CONTINUOUS
10
130.6943359999999927
20
-98.5905889999999943
11
130.8405889999999943
21
-98.4443359999999927
0
LINE
8
BLACK
6
CONTINUOUS
10
130.8405889999999943
20
-98.4443359999999927
11
130.9554980000000057
21
-98.2723620000000011
0
LINE
8
BLACK
6
CONTINUOUS
10
130.9554980000000057
20
-98.2723620000000011
11
131.0346499999999992
21
-98.0812739999999934
0
LINE
8
BLACK
6
CONTINUOUS
10
131.0346499999999992
20
-98.0812739999999934
11
131.0749999999999886
21
-97.8784160000000014
0
LINE
8
BLACK
6
CONTINUOUS
10
131.0749999999999886
20
-97.8784160000000014
11
131.0749999999999886
21
-97.6715839999999957
0
LINE
8
BLACK
6
CONTINUOUS
10
131.0749999999999886
20
-97.6715839999999957
11
131.0346499999999992
21
-97.4687259999999895
0
LINE
8
BLACK
6
CONTINUOUS
10
131.0346499999999992
20
-97.4687259999999895
11
130.9554980000000057
21
-97.2776379999999961
0
LINE
8
BLACK
6
CONTINUOUS
10
130.9554980000000057
20
-97.2776379999999961
11
130.8405889999999943
21
-97.1056639999999902
0
LINE
8
BLACK
6
CONTINUOUS
10
130.8405889999999943
20
-97.1056639999999902
11
130.6943359999999927
21
-96.9594109999999887
0
LINE
8
BLACK
6
CONTINUOUS
10
130.6943359999999927
20
-96.9594109999999887
11
130.5223619999999869
21
-96.8445019999999914
0
LINE
8
BLACK
6
CONTINUOUS
10
130.5223619999999869
20
-96.8445019999999914
11
130.3312740000000076
21
-96.765349999999998
0
LINE
8
BLACK
6
CONTINUOUS
10
130.3312740000000076
20
-96.765349999999998
11
130.1284159999999872
21
-96.7249999999999943
0
LINE
8
BLACK
6
CONTINUOUS
10
130.1284159999999872
20
-96.7249999999999943
11
129.9215839999999957
21
-96.7249999999999943
0
LINE
8
BLACK
6
CONTINUOUS
10
129.9215839999999957
20
-96.7249999999999943
11
129.7187260000000038
21
-96.765349999999998
0
LINE
8
BLACK
6
CONTINUOUS
10
129.7187260000000038
20
-96.765349999999998
11
129.5276379999999961
21
-96.8445019999999914
0
LINE
8
BLACK
6
CONTINUOUS
10
129.5276379999999961
20
-96.8445019999999914
11
129.3556639999999902
21
-96.9594109999999887
0
LINE
8
BLACK
6
CONTINUOUS
10
129.3556639999999902
20
-96.9594109999999887
11
129.2094109999999887
21
-97.1056639999999902
0
LINE
8
BLACK
6
CONTINUOUS
10
129.2094109999999887
20
-97.1056639999999902
11
129.0945020000000056
21
-97.2776379999999961
0
LINE
8
BLACK
6
CONTINUOUS
10
129.0945020000000056
20
-97.2776379999999961
11
129.0153499999999838
21
-97.4687259999999895
0
LINE
8
BLACK
6
CONTINUOUS
10
129.0153499999999838
20
-97.4687259999999895
11
128.9749999999999943
21
-97.6715839999999957
0
LINE
8
BLACK
6
CONTINUOUS
10
128.9749999999999943
20
-97.6715839999999957
11
128.9749999999999943
21
-97.8784160000000014
0
LINE
8
BLACK
6
CONTINUOUS
10
203.7729609999999809
20
-83.4445669999999922
11
203.8054329999999936
21
-83.4770389999999907
0
LINE
8
BLACK
6
CONTINUOUS
10
203.8054329999999936
20
-83.4770389999999907
11
203.8100000000000023
21
-83.5
0
LINE
8
BLACK
6
CONTINUOUS
10
203.8100000000000023
20
-83.5
11
203.8100000000000023
21
-97.5
0
LINE
8
BLACK
6
CONTINUOUS
10
203.8100000000000023
20
-97.5
11
203.8054329999999936
21
-97.5229609999999951
0
LINE
8
BLACK
6
CONTINUOUS
10
203.8054329999999936
20
-97.5229609999999951
11
203.7729609999999809
21
-97.5554329999999936
0
LINE
8
BLACK
6
CONTINUOUS
10
203.7729609999999809
20
-97.5554329999999936
11
203.75
21
-97.5600000000000023
0
LINE
8
BLACK
6
CONTINUOUS
10
203.75
20
-97.5600000000000023
11
189.75
21
-97.5600000000000023
0
LINE
8
BLACK
6
CONTINUOUS
10
189.75
20
-97.5600000000000023
11
189.7270389999999907
21
-97.5554329999999936
0
LINE
8
BLACK
6
CONTINUOUS
10
189.7270389999999907
20
-97.5554329999999936
11
189.694566999999978
21
-97.5229609999999951
0
LINE
8
BLACK
6
CONTINUOUS
10
189.694566999999978
20
-97.5229609999999951
11
189.6899999999999977
21
-97.5
0
LINE
8
BLACK
6
CONTINUOUS
10
189.6899999999999977
20
-97.5
11
189.6899999999999977
21
-83.5
0
LINE
8
BLACK
6
CONTINUOUS
10
189.6899999999999977
20
-83.5
11
189.694566999999978
21
-83.4770389999999907
0
LINE
8
BLACK
6
CONTINUOUS
10
189.694566999999978
20
-83.4770389999999907
11
189.7270389999999907
21
-83.4445669999999922
0
LINE
8
BLACK
6
CONTINUOUS
10
189.7270389999999907
20
-83.4445669999999922
11
189.75
21
-83.4399999999999977
0
LINE
8
BLACK
6
CONTINUOUS
10
189.75
20
-83.4399999999999977
11
203.75
21
-83.4399999999999977
0
LINE
8
BLACK
6
CONTINUOUS
10
203.75
20
-83.4399999999999977
11
203.7729609999999809
21
-83.4445669999999922
0
LINE
8
BLACK
6
CONTINUOUS
10
189.8100000000000023
20
-83.5600000000000023
11
189.8100000000000023
21
-97.4399999999999977
0
LINE
8
BLACK
6
CONTINUOUS
10
189.8100000000000023
20
-97.4399999999999977
11
203.6899999999999977
21
-97.4399999999999977
0
LINE
8
BLACK
6
CONTINUOUS
10
203.6899999999999977
20
-97.4399999999999977
11
203.6899999999999977
21
-83.5600000000000023
0
LINE
8
BLACK
6
CONTINUOUS
10
203.6899999999999977
20
-83.5600000000000023
11
189.8100000000000023
21
-83.5600000000000023
0
LINE
8
BLACK
6
CONTINUOUS
10
222.7729459999999904
20
-83.4445669999999922
11
222.8054180000000031
21
-83.4770389999999907
0
LINE
8
BLACK
6
CONTINUOUS
10
222.8054180000000031
20
-83.4770389999999907
11
222.8099849999999833
21
-83.5
0
LINE
8
BLACK
6
CONTINUOUS
10
222.8099849999999833
20
-83.5
11
222.8099849999999833
21
-97.5
0
LINE
8
BLACK
6
CONTINUOUS
10
222.8099849999999833
20
-97.5
11
222.8054180000000031
21
-97.5229609999999951
0
LINE
8
BLACK
6
CONTINUOUS
10
222.8054180000000031
20
-97.5229609999999951
11
222.7729459999999904
21
-97.5554329999999936
0
LINE
8
BLACK
6
CONTINUOUS
10
222.7729459999999904
20
-97.5554329999999936
11
222.749984999999981
21
-97.5600000000000023
0
LINE
8
BLACK
6
CONTINUOUS
10
222.749984999999981
20
-97.5600000000000023
11
208.749984999999981
21
-97.5600000000000023
0
LINE
8
BLACK
6
CONTINUOUS
10
208.749984999999981
20
-97.5600000000000023
11
208.7270240000000001
21
-97.5554329999999936
0
LINE
8
BLACK
6
CONTINUOUS
10
208.7270240000000001
20
-97.5554329999999936
11
208.6945519999999874
21
-97.5229609999999951
0
LINE
8
BLACK
6
CONTINUOUS
10
208.6945519999999874
20
-97.5229609999999951
11
208.6899849999999788
21
-97.5
0
LINE
8
BLACK
6
CONTINUOUS
10
208.6899849999999788
20
-97.5
11
208.6899849999999788
21
-83.5
0
LINE
8
BLACK
6
CONTINUOUS
10
208.6899849999999788
20
-83.5
11
208.6945519999999874
21
-83.4770389999999907
0
LINE
8
BLACK
6
CONTINUOUS
10
208.6945519999999874
20
-83.4770389999999907
11
208.7270240000000001
21
-83.4445669999999922
0
LINE
8
BLACK
6
CONTINUOUS
10
208.7270240000000001
20
-83.4445669999999922
11
208.749984999999981
21
-83.4399999999999977
0
LINE
8
BLACK
6
CONTINUOUS
10
208.749984999999981
20
-83.4399999999999977
11
222.749984999999981
21
-83.4399999999999977
0
LINE
8
BLACK
6
CONTINUOUS
10
222.749984999999981
20
-83.4399999999999977
11
222.7729459999999904
21
-83.4445669999999922
0
LINE
8
BLACK
6
CONTINUOUS
10
208.8099849999999833
20
-83.5600000000000023
11
208.8099849999999833
21
-97.4399999999999977
0
LINE
8
BLACK
6
CONTINUOUS
10
208.8099849999999833
20
-97.4399999999999977
11
222.6899849999999788
21
-97.4399999999999977
0
LINE
8
BLACK
6
CONTINUOUS
10
222.6899849999999788
20
-97.4399999999999977
11
222.6899849999999788
21
-83.5600000000000023
0
LINE
8
BLACK
6
CONTINUOUS
10
222.6899849999999788
20
-83.5600000000000023
11
208.8099849999999833
21
-83.5600000000000023
0
LINE
8
BLACK
6
CONTINUOUS
10
127.5729609999999923
20
-81.0445670000000007
11
127.6054329999999908
21
-81.0770389999999992
0
LINE
8
BLACK
6
CONTINUOUS
10
127.6054329999999908
20
-81.0770389999999992
11
127.6099999999999994
21
-81.0999999999999943
0
LINE
8
BLACK
6
CONTINUOUS
10
127.6099999999999994
20
-81.0999999999999943
11
127.6099999999999994
21
-95.0999999999999943
0
LINE
8
BLACK
6
CONTINUOUS
10
127.6099999999999994
20
-95.0999999999999943
11
127.6054329999999908
21
-95.1229609999999894
0
LINE
8
BLACK
6
CONTINUOUS
10
127.6054329999999908
20
-95.1229609999999894
11
127.5729609999999923
21
-95.1554330000000022
0
LINE
8
BLACK
6
CONTINUOUS
10
127.5729609999999923
20
-95.1554330000000022
11
127.5499999999999972
21
-95.1599999999999966
0
LINE
8
BLACK
6
CONTINUOUS
10
127.5499999999999972
20
-95.1599999999999966
11
113.5499999999999972
21
-95.1599999999999966
0
LINE
8
BLACK
6
CONTINUOUS
10
113.5499999999999972
20
-95.1599999999999966
11
113.5270389999999878
21
-95.1554330000000022
0
LINE
8
BLACK
6
CONTINUOUS
10
113.5270389999999878
20
-95.1554330000000022
11
113.4945669999999893
21
-95.1229609999999894
0
LINE
8
BLACK
6
CONTINUOUS
10
113.4945669999999893
20
-95.1229609999999894
11
113.4899999999999949
21
-95.0999999999999943
0
LINE
8
BLACK
6
CONTINUOUS
10
113.4899999999999949
20
-95.0999999999999943
11
113.4899999999999949
21
-81.0999999999999943
0
LINE
8
BLACK
6
CONTINUOUS
10
113.4899999999999949
20
-81.0999999999999943
11
113.4945669999999893
21
-81.0770389999999992
0
LINE
8
BLACK
6
CONTINUOUS
10
113.4945669999999893
20
-81.0770389999999992
11
113.5270389999999878
21
-81.0445670000000007
0
LINE
8
BLACK
6
CONTINUOUS
10
113.5270389999999878
20
-81.0445670000000007
11
113.5499999999999972
21
-81.039999999999992
0
LINE
8
BLACK
6
CONTINUOUS
10
113.5499999999999972
20
-81.039999999999992
11
127.5499999999999972
21
-81.039999999999992
0
LINE
8
BLACK
6
CONTINUOUS
10
127.5499999999999972
20
-81.039999999999992
11
127.5729609999999923
21
-81.0445670000000007
0
LINE
8
BLACK
6
CONTINUOUS
10
113.6099999999999994
20
-81.1599999999999966
11
113.6099999999999994
21
-95.039999999999992
0
LINE
8
BLACK
6
CONTINUOUS
10
113.6099999999999994
20
-95.039999999999992
11
127.4899999999999949
21
-95.039999999999992
0
LINE
8
BLACK
6
CONTINUOUS
10
127.4899999999999949
20
-95.039999999999992
11
127.4899999999999949
21
-81.1599999999999966
0
LINE
8
BLACK
6
CONTINUOUS
10
127.4899999999999949
20
-81.1599999999999966
11
113.6099999999999994
21
-81.1599999999999966
0
LINE
8
BLACK
6
CONTINUOUS
10
146.5729460000000017
20
-78.5445670000000007
11
146.605417999999986
21
-78.5770389999999992
0
LINE
8
BLACK
6
CONTINUOUS
10
146.605417999999986
20
-78.5770389999999992
11
146.6099849999999947
21
-78.5999999999999943
0
LINE
8
BLACK
6
CONTINUOUS
10
146.6099849999999947
20
-78.5999999999999943
11
146.6099849999999947
21
-92.5999999999999943
0
LINE
8
BLACK
6
CONTINUOUS
10
146.6099849999999947
20
-92.5999999999999943
11
146.605417999999986
21
-92.6229609999999894
0
LINE
8
BLACK
6
CONTINUOUS
10
146.605417999999986
20
-92.6229609999999894
11
146.5729460000000017
21
-92.6554330000000022
0
LINE
8
BLACK
6
CONTINUOUS
10
146.5729460000000017
20
-92.6554330000000022
11
146.5499849999999924
21
-92.6599999999999966
0
LINE
8
BLACK
6
CONTINUOUS
10
146.5499849999999924
20
-92.6599999999999966
11
132.5499849999999924
21
-92.6599999999999966
0
LINE
8
BLACK
6
CONTINUOUS
10
132.5499849999999924
20
-92.6599999999999966
11
132.5270239999999831
21
-92.6554330000000022
0
LINE
8
BLACK
6
CONTINUOUS
10
132.5270239999999831
20
-92.6554330000000022
11
132.4945519999999988
21
-92.6229609999999894
0
LINE
8
BLACK
6
CONTINUOUS
10
132.4945519999999988
20
-92.6229609999999894
11
132.4899849999999901
21
-92.5999999999999943
0
LINE
8
BLACK
6
CONTINUOUS
10
132.4899849999999901
20
-92.5999999999999943
11
132.4899849999999901
21
-78.5999999999999943
0
LINE
8
BLACK
6
CONTINUOUS
10
132.4899849999999901
20
-78.5999999999999943
11
132.4945519999999988
21
-78.5770389999999992
0
LINE
8
BLACK
6
CONTINUOUS
10
132.4945519999999988
20
-78.5770389999999992
11
132.5270239999999831
21
-78.5445670000000007
0
LINE
8
BLACK
6
CONTINUOUS
10
132.5270239999999831
20
-78.5445670000000007
11
132.5499849999999924
21
-78.539999999999992
0
LINE
8
BLACK
6
CONTINUOUS
10
132.5499849999999924
20
-78.539999999999992
11
146.5499849999999924
21
-78.539999999999992
0
LINE
8
BLACK
6
CONTINUOUS
10
146.5499849999999924
20
-78.539999999999992
11
146.5729460000000017
21
-78.5445670000000007
0
LINE
8
BLACK
6
CONTINUOUS
10
132.6099849999999947
20
-78.6599999999999966
11
132.6099849999999947
21
-92.539999999999992
0
LINE
8
BLACK
6
CONTINUOUS
10
132.6099849999999947
20
-92.539999999999992
11
146.4899849999999901
21
-92.539999999999992
0
LINE
8
BLACK
6
CONTINUOUS
10
146.4899849999999901
20
-92.539999999999992
11
146.4899849999999901
21
-78.6599999999999966
0
LINE
8
BLACK
6
CONTINUOUS
10
146.4899849999999901
20
-78.6599999999999966
11
132.6099849999999947
21
-78.6599999999999966
0
LINE
8
BLACK
6
CONTINUOUS
10
184.672945999999996
20
-78.5445670000000007
11
184.7054179999999803
21
-78.5770389999999992
0
LINE
8
BLACK
6
CONTINUOUS
10
184.7054179999999803
20
-78.5770389999999992
11
184.709984999999989
21
-78.5999999999999943
0
LINE
8
BLACK
6
CONTINUOUS
10
184.709984999999989
20
-78.5999999999999943
11
184.709984999999989
21
-92.5999999999999943
0
LINE
8
BLACK
6
CONTINUOUS
10
184.709984999999989
20
-92.5999999999999943
11
184.7054179999999803
21
-92.6229609999999894
0
LINE
8
BLACK
6
CONTINUOUS
10
184.7054179999999803
20
-92.6229609999999894
11
184.672945999999996
21
-92.6554330000000022
0
LINE
8
BLACK
6
CONTINUOUS
10
184.672945999999996
20
-92.6554330000000022
11
184.6499849999999867
21
-92.6599999999999966
0
LINE
8
BLACK
6
CONTINUOUS
10
184.6499849999999867
20
-92.6599999999999966
11
170.6499849999999867
21
-92.6599999999999966
0
LINE
8
BLACK
6
CONTINUOUS
10
170.6499849999999867
20
-92.6599999999999966
11
170.6270240000000058
21
-92.6554330000000022
0
LINE
8
BLACK
6
CONTINUOUS
10
170.6270240000000058
20
-92.6554330000000022
11
170.5945519999999931
21
-92.6229609999999894
0
LINE
8
BLACK
6
CONTINUOUS
10
170.5945519999999931
20
-92.6229609999999894
11
170.5899849999999844
21
-92.5999999999999943
0
LINE
8
BLACK
6
CONTINUOUS
10
170.5899849999999844
20
-92.5999999999999943
11
170.5899849999999844
21
-78.5999999999999943
0
LINE
8
BLACK
6
CONTINUOUS
10
170.5899849999999844
20
-78.5999999999999943
11
170.5945519999999931
21
-78.5770389999999992
0
LINE
8
BLACK
6
CONTINUOUS
10
170.5945519999999931
20
-78.5770389999999992
11
170.6270240000000058
21
-78.5445670000000007
0
LINE
8
BLACK
6
CONTINUOUS
10
170.6270240000000058
20
-78.5445670000000007
11
170.6499849999999867
21
-78.539999999999992
0
LINE
8
BLACK
6
CONTINUOUS
10
170.6499849999999867
20
-78.539999999999992
11
184.6499849999999867
21
-78.539999999999992
0
LINE
8
BLACK
6
CONTINUOUS
10
184.6499849999999867
20
-78.539999999999992
11
184.672945999999996
21
-78.5445670000000007
0
LINE
8
BLACK
6
CONTINUOUS
10
170.709984999999989
20
-78.6599999999999966
11
170.709984999999989
21
-92.539999999999992
0
LINE
8
BLACK
6
CONTINUOUS
10
170.709984999999989
20
-92.539999999999992
11
184.5899849999999844
21
-92.539999999999992
0
LINE
8
BLACK
6
CONTINUOUS
10
184.5899849999999844
20
-92.539999999999992
11
184.5899849999999844
21
-78.6599999999999966
0
LINE
8
BLACK
6
CONTINUOUS
10
184.5899849999999844
20
-78.6599999999999966
11
170.709984999999989
21
-78.6599999999999966
0
LINE
8
BLACK
6
CONTINUOUS
10
165.6729609999999866
20
-76.1345669999999899
11
165.7054329999999993
21
-76.1670390000000026
0
LINE
8
BLACK
6
CONTINUOUS
10
165.7054329999999993
20
-76.1670390000000026
11
165.7099999999999795
21
-76.1899999999999977
0
LINE
8
BLACK
6
CONTINUOUS
10
165.7099999999999795
20
-76.1899999999999977
11
165.7099999999999795
21
-90.1899999999999977
0
LINE
8
BLACK
6
CONTINUOUS
10
165.7099999999999795
20
-90.1899999999999977
11
165.7054329999999993
21
-90.2129609999999929
0
LINE
8
BLACK
6
CONTINUOUS
10
165.7054329999999993
20
-90.2129609999999929
11
165.6729609999999866
21
-90.2454329999999914
0
LINE
8
BLACK
6
CONTINUOUS
10
165.6729609999999866
20
-90.2454329999999914
11
165.6500000000000057
21
-90.25
0
LINE
8
BLACK
6
CONTINUOUS
10
165.6500000000000057
20
-90.25
11
151.6500000000000057
21
-90.25
0
LINE
8
BLACK
6
CONTINUOUS
10
151.6500000000000057
20
-90.25
11
151.6270389999999963
21
-90.2454329999999914
0
LINE
8
BLACK
6
CONTINUOUS
10
151.6270389999999963
20
-90.2454329999999914
11
151.5945669999999836
21
-90.2129609999999929
0
LINE
8
BLACK
6
CONTINUOUS
10
151.5945669999999836
20
-90.2129609999999929
11
151.5900000000000034
21
-90.1899999999999977
0
LINE
8
BLACK
6
CONTINUOUS
10
151.5900000000000034
20
-90.1899999999999977
11
151.5900000000000034
21
-76.1899999999999977
0
LINE
8
BLACK
6
CONTINUOUS
10
151.5900000000000034
20
-76.1899999999999977
11
151.5945669999999836
21
-76.1670390000000026
0
LINE
8
BLACK
6
CONTINUOUS
10
151.5945669999999836
20
-76.1670390000000026
11
151.6270389999999963
21
-76.1345669999999899
0
LINE
8
BLACK
6
CONTINUOUS
10
151.6270389999999963
20
-76.1345669999999899
11
151.6500000000000057
21
-76.1299999999999955
0
LINE
8
BLACK
6
CONTINUOUS
10
151.6500000000000057
20
-76.1299999999999955
11
165.6500000000000057
21
-76.1299999999999955
0
LINE
8
BLACK
6
CONTINUOUS
10
165.6500000000000057
20
-76.1299999999999955
11
165.6729609999999866
21
-76.1345669999999899
0
LINE
8
BLACK
6
CONTINUOUS
10
151.7099999999999795
20
-76.25
11
151.7099999999999795
21
-90.1299999999999955
0
LINE
8
BLACK
6
CONTINUOUS
10
151.7099999999999795
20
-90.1299999999999955
11
165.5900000000000034
21
-90.1299999999999955
0
LINE
8
BLACK
6
CONTINUOUS
10
165.5900000000000034
20
-90.1299999999999955
11
165.5900000000000034
21
-76.25
0
LINE
8
BLACK
6
CONTINUOUS
10
165.5900000000000034
20
-76.25
11
151.7099999999999795
21
-76.25
0
LINE
8
BLACK
6
CONTINUOUS
10
203.7729609999999809
20
-64.2445670000000035
11
203.8054329999999936
21
-64.277039000000002
0
LINE
8
BLACK
6
CONTINUOUS
10
203.8054329999999936
20
-64.277039000000002
11
203.8100000000000023
21
-64.2999999999999972
0
LINE
8
BLACK
6
CONTINUOUS
10
203.8100000000000023
20
-64.2999999999999972
11
203.8100000000000023
21
-78.2999999999999972
0
LINE
8
BLACK
6
CONTINUOUS
10
203.8100000000000023
20
-78.2999999999999972
11
203.8054329999999936
21
-78.3229609999999923
0
LINE
8
BLACK
6
CONTINUOUS
10
203.8054329999999936
20
-78.3229609999999923
11
203.7729609999999809
21
-78.3554329999999908
0
LINE
8
BLACK
6
CONTINUOUS
10
203.7729609999999809
20
-78.3554329999999908
11
203.75
21
-78.3599999999999994
0
LINE
8
BLACK
6
CONTINUOUS
10
203.75
20
-78.3599999999999994
11
189.75
21
-78.3599999999999994
0
LINE
8
BLACK
6
CONTINUOUS
10
189.75
20
-78.3599999999999994
11
189.7270389999999907
21
-78.3554329999999908
0
LINE
8
BLACK
6
CONTINUOUS
10
189.7270389999999907
20
-78.3554329999999908
11
189.694566999999978
21
-78.3229609999999923
0
LINE
8
BLACK
6
CONTINUOUS
10
189.694566999999978
20
-78.3229609999999923
11
189.6899999999999977
21
-78.2999999999999972
0
LINE
8
BLACK
6
CONTINUOUS
10
189.6899999999999977
20
-78.2999999999999972
11
189.6899999999999977
21
-64.2999999999999972
0
LINE
8
BLACK
6
CONTINUOUS
10
189.6899999999999977
20
-64.2999999999999972
11
189.694566999999978
21
-64.277039000000002
0
LINE
8
BLACK
6
CONTINUOUS
10
189.694566999999978
20
-64.277039000000002
11
189.7270389999999907
21
-64.2445670000000035
0
LINE
8
BLACK
6
CONTINUOUS
10
189.7270389999999907
20
-64.2445670000000035
11
189.75
21
-64.2399999999999949
0
LINE
8
BLACK
6
CONTINUOUS
10
189.75
20
-64.2399999999999949
11
203.75
21
-64.2399999999999949
0
LINE
8
BLACK
6
CONTINUOUS
10
203.75
20
-64.2399999999999949
11
203.7729609999999809
21
-64.2445670000000035
0
LINE
8
BLACK
6
CONTINUOUS
10
189.8100000000000023
20
-64.3599999999999994
11
189.8100000000000023
21
-78.2399999999999949
0
LINE
8
BLACK
6
CONTINUOUS
10
189.8100000000000023
20
-78.2399999999999949
11
203.6899999999999977
21
-78.2399999999999949
0
LINE
8
BLACK
6
CONTINUOUS
10
203.6899999999999977
20
-78.2399999999999949
11
203.6899999999999977
21
-64.3599999999999994
0
LINE
8
BLACK
6
CONTINUOUS
10
203.6899999999999977
20
-64.3599999999999994
11
189.8100000000000023
21
-64.3599999999999994
0
LINE
8
BLACK
6
CONTINUOUS
10
222.7729459999999904
20
-64.2445670000000035
11
222.8054180000000031
21
-64.277039000000002
0
LINE
8
BLACK
6
CONTINUOUS
10
222.8054180000000031
20
-64.277039000000002
11
222.8099849999999833
21
-64.2999999999999972
0
LINE
8
BLACK
6
CONTINUOUS
10
222.8099849999999833
20
-64.2999999999999972
11
222.8099849999999833
21
-78.2999999999999972
0
LINE
8
BLACK
6
CONTINUOUS
10
222.8099849999999833
20
-78.2999999999999972
11
222.8054180000000031
21
-78.3229609999999923
0
LINE
8
BLACK
6
CONTINUOUS
10
222.8054180000000031
20
-78.3229609999999923
11
222.7729459999999904
21
-78.3554329999999908
0
LINE
8
BLACK
6
CONTINUOUS
10
222.7729459999999904
20
-78.3554329999999908
11
222.749984999999981
21
-78.3599999999999994
0
LINE
8
BLACK
6
CONTINUOUS
10
222.749984999999981
20
-78.3599999999999994
11
208.749984999999981
21
-78.3599999999999994
0
LINE
8
BLACK
6
CONTINUOUS
10
208.749984999999981
20
-78.3599999999999994
11
208.7270240000000001
21
-78.3554329999999908
0
LINE
8
BLACK
6
CONTINUOUS
10
208.7270240000000001
20
-78.3554329999999908
11
208.6945519999999874
21
-78.3229609999999923
0
LINE
8
BLACK
6
CONTINUOUS
10
208.6945519999999874
20
-78.3229609999999923
11
208.6899849999999788
21
-78.2999999999999972
0
LINE
8
BLACK
6
CONTINUOUS
10
208.6899849999999788
20
-78.2999999999999972
11
208.6899849999999788
21
-64.2999999999999972
0
LINE
8
BLACK
6
CONTINUOUS
10
208.6899849999999788
20
-64.2999999999999972
11
208.6945519999999874
21
-64.277039000000002
0
LINE
8
BLACK
6
CONTINUOUS
10
208.6945519999999874
20
-64.277039000000002
11
208.7270240000000001
21
-64.2445670000000035
0
LINE
8
BLACK
6
CONTINUOUS
10
208.7270240000000001
20
-64.2445670000000035
11
208.749984999999981
21
-64.2399999999999949
0
LINE
8
BLACK
6
CONTINUOUS
10
208.749984999999981
20
-64.2399999999999949
11
222.749984999999981
21
-64.2399999999999949
0
LINE
8
BLACK
6
CONTINUOUS
10
222.749984999999981
20
-64.2399999999999949
11
222.7729459999999904
21
-64.2445670000000035
0
LINE
8
BLACK
6
CONTINUOUS
10
208.8099849999999833
20
-64.3599999999999994
11
208.8099849999999833
21
-78.2399999999999949
0
LINE
8
BLACK
6
CONTINUOUS
10
208.8099849999999833
20
-78.2399999999999949
11
222.6899849999999788
21
-78.2399999999999949
0
LINE
8
BLACK
6
CONTINUOUS
10
222.6899849999999788
20
-78.2399999999999949
11
222.6899849999999788
21
-64.3599999999999994
0
LINE
8
BLACK
6
CONTINUOUS
10
222.6899849999999788
20
-64.3599999999999994
11
208.8099849999999833
21
-64.3599999999999994
0
LINE
8
BLACK
6
CONTINUOUS
10
127.5729459999999875
20
-62.0445670000000007
11
127.6054180000000002
21
-62.0770389999999992
0
LINE
8
BLACK
6
CONTINUOUS
10
127.6054180000000002
20
-62.0770389999999992
11
127.6099849999999947
21
-62.0999999999999943
0
LINE
8
BLACK
6
CONTINUOUS
10
127.6099849999999947
20
-62.0999999999999943
11
127.6099849999999947
21
-76.0999999999999943
0
LINE
8
BLACK
6
CONTINUOUS
10
127.6099849999999947
20
-76.0999999999999943
11
127.6054180000000002
21
-76.1229610000000037
0
LINE
8
BLACK
6
CONTINUOUS
10
127.6054180000000002
20
-76.1229610000000037
11
127.5729459999999875
21
-76.1554330000000022
0
LINE
8
BLACK
6
CONTINUOUS
10
127.5729459999999875
20
-76.1554330000000022
11
127.5499849999999924
21
-76.1599999999999966
0
LINE
8
BLACK
6
CONTINUOUS
10
127.5499849999999924
20
-76.1599999999999966
11
113.5499849999999924
21
-76.1599999999999966
0
LINE
8
BLACK
6
CONTINUOUS
10
113.5499849999999924
20
-76.1599999999999966
11
113.5270239999999973
21
-76.1554330000000022
0
LINE
8
BLACK
6
CONTINUOUS
10
113.5270239999999973
20
-76.1554330000000022
11
113.4945519999999988
21
-76.1229610000000037
0
LINE
8
BLACK
6
CONTINUOUS
10
113.4945519999999988
20
-76.1229610000000037
11
113.4899849999999901
21
-76.0999999999999943
0
LINE
8
BLACK
6
CONTINUOUS
10
113.4899849999999901
20
-76.0999999999999943
11
113.4899849999999901
21
-62.0999999999999943
0
LINE
8
BLACK
6
CONTINUOUS
10
113.4899849999999901
20
-62.0999999999999943
11
113.4945519999999988
21
-62.0770389999999992
0
LINE
8
BLACK
6
CONTINUOUS
10
113.4945519999999988
20
-62.0770389999999992
11
113.5270239999999973
21
-62.0445670000000007
0
LINE
8
BLACK
6
CONTINUOUS
10
113.5270239999999973
20
-62.0445670000000007
11
113.5499849999999924
21
-62.0399999999999991
0
LINE
8
BLACK
6
CONTINUOUS
10
113.5499849999999924
20
-62.0399999999999991
11
127.5499849999999924
21
-62.0399999999999991
0
LINE
8
BLACK
6
CONTINUOUS
10
127.5499849999999924
20
-62.0399999999999991
11
127.5729459999999875
21
-62.0445670000000007
0
LINE
8
BLACK
6
CONTINUOUS
10
113.6099849999999947
20
-62.1599999999999966
11
113.6099849999999947
21
-76.039999999999992
0
LINE
8
BLACK
6
CONTINUOUS
10
113.6099849999999947
20
-76.039999999999992
11
127.4899849999999901
21
-76.039999999999992
0
LINE
8
BLACK
6
CONTINUOUS
10
127.4899849999999901
20
-76.039999999999992
11
127.4899849999999901
21
-62.1599999999999966
0
LINE
8
BLACK
6
CONTINUOUS
10
127.4899849999999901
20
-62.1599999999999966
11
113.6099849999999947
21
-62.1599999999999966
0
LINE
8
BLACK
6
CONTINUOUS
10
146.5729460000000017
20
-59.5445670000000007
11
146.605417999999986
21
-59.5770389999999992
0
LINE
8
BLACK
6
CONTINUOUS
10
146.605417999999986
20
-59.5770389999999992
11
146.6099849999999947
21
-59.5999999999999943
0
LINE
8
BLACK
6
CONTINUOUS
10
146.6099849999999947
20
-59.5999999999999943
11
146.6099849999999947
21
-73.5999999999999943
0
LINE
8
BLACK
6
CONTINUOUS
10
146.6099849999999947
20
-73.5999999999999943
11
146.605417999999986
21
-73.6229610000000037
0
LINE
8
BLACK
6
CONTINUOUS
10
146.605417999999986
20
-73.6229610000000037
11
146.5729460000000017
21
-73.6554330000000022
0
LINE
8
BLACK
6
CONTINUOUS
10
146.5729460000000017
20
-73.6554330000000022
11
146.5499849999999924
21
-73.6599999999999966
0
LINE
8
BLACK
6
CONTINUOUS
10
146.5499849999999924
20
-73.6599999999999966
11
132.5499849999999924
21
-73.6599999999999966
0
LINE
8
BLACK
6
CONTINUOUS
10
132.5499849999999924
20
-73.6599999999999966
11
132.5270239999999831
21
-73.6554330000000022
0
LINE
8
BLACK
6
CONTINUOUS
10
132.5270239999999831
20
-73.6554330000000022
11
132.4945519999999988
21
-73.6229610000000037
0
LINE
8
BLACK
6
CONTINUOUS
10
132.4945519999999988
20
-73.6229610000000037
11
132.4899849999999901
21
-73.5999999999999943
0
LINE
8
BLACK
6
CONTINUOUS
10
132.4899849999999901
20
-73.5999999999999943
11
132.4899849999999901
21
-59.5999999999999943
0
LINE
8
BLACK
6
CONTINUOUS
10
132.4899849999999901
20
-59.5999999999999943
11
132.4945519999999988
21
-59.5770389999999992
0
LINE
8
BLACK
6
CONTINUOUS
10
132.4945519999999988
20
-59.5770389999999992
11
132.5270239999999831
21
-59.5445670000000007
0
LINE
8
BLACK
6
CONTINUOUS
10
132.5270239999999831
20
-59.5445670000000007
11
132.5499849999999924
21
-59.5399999999999991
0
LINE
8
BLACK
6
CONTINUOUS
10
132.5499849999999924
20
-59.5399999999999991
11
146.5499849999999924
21
-59.5399999999999991
0
LINE
8
BLACK
6
CONTINUOUS
10
146.5499849999999924
20
-59.5399999999999991
11
146.5729460000000017
21
-59.5445670000000007
0
LINE
8
BLACK
6
CONTINUOUS
10
132.6099849999999947
20
-59.6599999999999966
11
132.6099849999999947
21
-73.539999999999992
0
LINE
8
BLACK
6
CONTINUOUS
10
132.6099849999999947
20
-73.539999999999992
11
146.4899849999999901
21
-73.539999999999992
0
LINE
8
BLACK
6
CONTINUOUS
10
146.4899849999999901
20
-73.539999999999992
11
146.4899849999999901
21
-59.6599999999999966
0
LINE
8
BLACK
6
CONTINUOUS
10
146.4899849999999901
20
-59.6599999999999966
11
132.6099849999999947
21
-59.6599999999999966
0
LINE
8
BLACK
6
CONTINUOUS
10
184.672945999999996
20
-59.4845669999999984
11
184.7054179999999803
21
-59.5170389999999969
0
LINE
8
BLACK
6
CONTINUOUS
10
184.7054179999999803
20
-59.5170389999999969
11
184.709984999999989
21
-59.5399999999999991
0
LINE
8
BLACK
6
CONTINUOUS
10
184.709984999999989
20
-59.5399999999999991
11
184.709984999999989
21
-73.539999999999992
0
LINE
8
BLACK
6
CONTINUOUS
10
184.709984999999989
20
-73.539999999999992
11
184.7054179999999803
21
-73.5629610000000014
0
LINE
8
BLACK
6
CONTINUOUS
10
184.7054179999999803
20
-73.5629610000000014
11
184.672945999999996
21
-73.5954329999999999
0
LINE
8
BLACK
6
CONTINUOUS
10
184.672945999999996
20
-73.5954329999999999
11
184.6499849999999867
21
-73.5999999999999943
0
LINE
8
BLACK
6
CONTINUOUS
10
184.6499849999999867
20
-73.5999999999999943
11
170.6499849999999867
21
-73.5999999999999943
0
LINE
8
BLACK
6
CONTINUOUS
10
170.6499849999999867
20
-73.5999999999999943
11
170.6270240000000058
21
-73.5954329999999999
0
LINE
8
BLACK
6
CONTINUOUS
10
170.6270240000000058
20
-73.5954329999999999
11
170.5945519999999931
21
-73.5629610000000014
0
LINE
8
BLACK
6
CONTINUOUS
10
170.5945519999999931
20
-73.5629610000000014
11
170.5899849999999844
21
-73.539999999999992
0
LINE
8
BLACK
6
CONTINUOUS
10
170.5899849999999844
20
-73.539999999999992
11
170.5899849999999844
21
-59.5399999999999991
0
LINE
8
BLACK
6
CONTINUOUS
10
170.5899849999999844
20
-59.5399999999999991
11
170.5945519999999931
21
-59.5170389999999969
0
LINE
8
BLACK
6
CONTINUOUS
10
170.5945519999999931
20
-59.5170389999999969
11
170.6270240000000058
21
-59.4845669999999984
0
LINE
8
BLACK
6
CONTINUOUS
10
170.6270240000000058
20
-59.4845669999999984
11
170.6499849999999867
21
-59.4799999999999969
0
LINE
8
BLACK
6
CONTINUOUS
10
170.6499849999999867
20
-59.4799999999999969
11
184.6499849999999867
21
-59.4799999999999969
0
LINE
8
BLACK
6
CONTINUOUS
10
184.6499849999999867
20
-59.4799999999999969
11
184.672945999999996
21
-59.4845669999999984
0
LINE
8
BLACK
6
CONTINUOUS
10
170.709984999999989
20
-59.5999999999999943
11
170.709984999999989
21
-73.4799999999999898
0
LINE
8
BLACK
6
CONTINUOUS
10
170.709984999999989
20
-73.4799999999999898
11
184.5899849999999844
21
-73.4799999999999898
0
LINE
8
BLACK
6
CONTINUOUS
10
184.5899849999999844
20
-73.4799999999999898
11
184.5899849999999844
21
-59.5999999999999943
0
LINE
8
BLACK
6
CONTINUOUS
10
184.5899849999999844
20
-59.5999999999999943
11
170.709984999999989
21
-59.5999999999999943
0
LINE
8
BLACK
6
CONTINUOUS
10
165.672945999999996
20
-57.0345669999999956
11
165.7054179999999803
21
-57.0670389999999941
0
LINE
8
BLACK
6
CONTINUOUS
10
165.7054179999999803
20
-57.0670389999999941
11
165.709984999999989
21
-57.0899999999999963
0
LINE
8
BLACK
6
CONTINUOUS
10
165.709984999999989
20
-57.0899999999999963
11
165.709984999999989
21
-71.0900000000000034
0
LINE
8
BLACK
6
CONTINUOUS
10
165.709984999999989
20
-71.0900000000000034
11
165.7054179999999803
21
-71.1129609999999985
0
LINE
8
BLACK
6
CONTINUOUS
10
165.7054179999999803
20
-71.1129609999999985
11
165.672945999999996
21
-71.145432999999997
0
LINE
8
BLACK
6
CONTINUOUS
10
165.672945999999996
20
-71.145432999999997
11
165.6499849999999867
21
-71.1499999999999915
0
LINE
8
BLACK
6
CONTINUOUS
10
165.6499849999999867
20
-71.1499999999999915
11
151.6499849999999867
21
-71.1499999999999915
0
LINE
8
BLACK
6
CONTINUOUS
10
151.6499849999999867
20
-71.1499999999999915
11
151.6270240000000058
21
-71.145432999999997
0
LINE
8
BLACK
6
CONTINUOUS
10
151.6270240000000058
20
-71.145432999999997
11
151.5945519999999931
21
-71.1129609999999985
0
LINE
8
BLACK
6
CONTINUOUS
10
151.5945519999999931
20
-71.1129609999999985
11
151.5899849999999844
21
-71.0900000000000034
0
LINE
8
BLACK
6
CONTINUOUS
10
151.5899849999999844
20
-71.0900000000000034
11
151.5899849999999844
21
-57.0899999999999963
0
LINE
8
BLACK
6
CONTINUOUS
10
151.5899849999999844
20
-57.0899999999999963
11
151.5945519999999931
21
-57.0670389999999941
0
LINE
8
BLACK
6
CONTINUOUS
10
151.5945519999999931
20
-57.0670389999999941
11
151.6270240000000058
21
-57.0345669999999956
0
LINE
8
BLACK
6
CONTINUOUS
10
151.6270240000000058
20
-57.0345669999999956
11
151.6499849999999867
21
-57.029999999999994
0
LINE
8
BLACK
6
CONTINUOUS
10
151.6499849999999867
20
-57.029999999999994
11
165.6499849999999867
21
-57.029999999999994
0
LINE
8
BLACK
6
CONTINUOUS
10
165.6499849999999867
20
-57.029999999999994
11
165.672945999999996
21
-57.0345669999999956
0
LINE
8
BLACK
6
CONTINUOUS
10
151.709984999999989
20
-57.1499999999999986
11
151.709984999999989
21
-71.0300000000000011
0
LINE
8
BLACK
6
CONTINUOUS
10
151.709984999999989
20
-71.0300000000000011
11
165.5899849999999844
21
-71.0300000000000011
0
LINE
8
BLACK
6
CONTINUOUS
10
165.5899849999999844
20
-71.0300000000000011
11
165.5899849999999844
21
-57.1499999999999986
0
LINE
8
BLACK
6
CONTINUOUS
10
165.5899849999999844
20
-57.1499999999999986
11
151.709984999999989
21
-57.1499999999999986
0
LINE
8
BLACK
6
CONTINUOUS
10
206.4934619999999938
20
-60.856774999999999
11
206.6650860000000023
21
-60.9125389999999953
0
LINE
8
BLACK
6
CONTINUOUS
10
206.6650860000000023
20
-60.9125389999999953
11
206.8258730000000014
21
-60.9944640000000007
0
LINE
8
BLACK
6
CONTINUOUS
10
206.8258730000000014
20
-60.9944640000000007
11
206.9718649999999798
21
-61.1005329999999987
0
LINE
8
BLACK
6
CONTINUOUS
10
206.9718649999999798
20
-61.1005329999999987
11
207.0994670000000042
21
-61.2281349999999946
0
LINE
8
BLACK
6
CONTINUOUS
10
207.0994670000000042
20
-61.2281349999999946
11
207.2055359999999951
21
-61.3741269999999943
0
LINE
8
BLACK
6
CONTINUOUS
10
207.2055359999999951
20
-61.3741269999999943
11
207.2874609999999791
21
-61.5349140000000006
0
LINE
8
BLACK
6
CONTINUOUS
10
207.2874609999999791
20
-61.5349140000000006
11
207.3432249999999897
21
-61.7065379999999948
0
LINE
8
BLACK
6
CONTINUOUS
10
207.3432249999999897
20
-61.7065379999999948
11
207.3714549999999974
21
-61.8847719999999981
0
LINE
8
BLACK
6
CONTINUOUS
10
207.3714549999999974
20
-61.8847719999999981
11
207.3714549999999974
21
-62.0652279999999976
0
LINE
8
BLACK
6
CONTINUOUS
10
207.3714549999999974
20
-62.0652279999999976
11
207.3432249999999897
21
-62.2434619999999938
0
LINE
8
BLACK
6
CONTINUOUS
10
207.3432249999999897
20
-62.2434619999999938
11
207.2874609999999791
21
-62.4150859999999952
0
LINE
8
BLACK
6
CONTINUOUS
10
207.2874609999999791
20
-62.4150859999999952
11
207.2055359999999951
21
-62.5758729999999943
0
LINE
8
BLACK
6
CONTINUOUS
10
207.2055359999999951
20
-62.5758729999999943
11
207.0994670000000042
21
-62.721864999999994
0
LINE
8
BLACK
6
CONTINUOUS
10
207.0994670000000042
20
-62.721864999999994
11
206.9718649999999798
21
-62.8494669999999971
0
LINE
8
BLACK
6
CONTINUOUS
10
206.9718649999999798
20
-62.8494669999999971
11
206.8258730000000014
21
-62.9555359999999951
0
LINE
8
BLACK
6
CONTINUOUS
10
206.8258730000000014
20
-62.9555359999999951
11
206.6650860000000023
21
-63.0374610000000004
0
LINE
8
BLACK
6
CONTINUOUS
10
206.6650860000000023
20
-63.0374610000000004
11
206.4934619999999938
21
-63.0932249999999968
0
LINE
8
BLACK
6
CONTINUOUS
10
206.4934619999999938
20
-63.0932249999999968
11
206.3152279999999905
21
-63.1214549999999974
0
LINE
8
BLACK
6
CONTINUOUS
10
206.3152279999999905
20
-63.1214549999999974
11
206.1347719999999981
21
-63.1214549999999974
0
LINE
8
BLACK
6
CONTINUOUS
10
206.1347719999999981
20
-63.1214549999999974
11
205.9565379999999948
21
-63.0932249999999968
0
LINE
8
BLACK
6
CONTINUOUS
10
205.9565379999999948
20
-63.0932249999999968
11
205.7849139999999863
21
-63.0374610000000004
0
LINE
8
BLACK
6
CONTINUOUS
10
205.7849139999999863
20
-63.0374610000000004
11
205.6241269999999872
21
-62.9555359999999951
0
LINE
8
BLACK
6
CONTINUOUS
10
205.6241269999999872
20
-62.9555359999999951
11
205.4781349999999804
21
-62.8494669999999971
0
LINE
8
BLACK
6
CONTINUOUS
10
205.4781349999999804
20
-62.8494669999999971
11
205.3505329999999844
21
-62.721864999999994
0
LINE
8
BLACK
6
CONTINUOUS
10
205.3505329999999844
20
-62.721864999999994
11
205.2444639999999936
21
-62.5758729999999943
0
LINE
8
BLACK
6
CONTINUOUS
10
205.2444639999999936
20
-62.5758729999999943
11
205.1625389999999811
21
-62.4150859999999952
0
LINE
8
BLACK
6
CONTINUOUS
10
205.1625389999999811
20
-62.4150859999999952
11
205.106774999999999
21
-62.2434619999999938
0
LINE
8
BLACK
6
CONTINUOUS
10
205.106774999999999
20
-62.2434619999999938
11
205.0785449999999912
21
-62.0652279999999976
0
LINE
8
BLACK
6
CONTINUOUS
10
205.0785449999999912
20
-62.0652279999999976
11
205.0785449999999912
21
-61.8847719999999981
0
LINE
8
BLACK
6
CONTINUOUS
10
205.0785449999999912
20
-61.8847719999999981
11
205.0806340000000034
21
-61.8715839999999986
0
LINE
8
BLACK
6
CONTINUOUS
10
205.0806340000000034
20
-61.8715839999999986
11
205.106774999999999
21
-61.7065379999999948
0
LINE
8
BLACK
6
CONTINUOUS
10
205.106774999999999
20
-61.7065379999999948
11
205.1625389999999811
21
-61.5349140000000006
0
LINE
8
BLACK
6
CONTINUOUS
10
205.1625389999999811
20
-61.5349140000000006
11
205.2444639999999936
21
-61.3741269999999943
0
LINE
8
BLACK
6
CONTINUOUS
10
205.2444639999999936
20
-61.3741269999999943
11
205.3505329999999844
21
-61.2281349999999946
0
LINE
8
BLACK
6
CONTINUOUS
10
205.3505329999999844
20
-61.2281349999999946
11
205.4781349999999804
21
-61.1005329999999987
0
LINE
8
BLACK
6
CONTINUOUS
10
205.4781349999999804
20
-61.1005329999999987
11
205.6241269999999872
21
-60.9944640000000007
0
LINE
8
BLACK
6
CONTINUOUS
10
205.6241269999999872
20
-60.9944640000000007
11
205.7849139999999863
21
-60.9125389999999953
0
LINE
8
BLACK
6
CONTINUOUS
10
205.7849139999999863
20
-60.9125389999999953
11
205.9565379999999948
21
-60.856774999999999
0
LINE
8
BLACK
6
CONTINUOUS
10
205.9565379999999948
20
-60.856774999999999
11
206.1347719999999981
21
-60.8285449999999983
0
LINE
8
BLACK
6
CONTINUOUS
10
206.1347719999999981
20
-60.8285449999999983
11
206.3152279999999905
21
-60.8285449999999983
0
LINE
8
BLACK
6
CONTINUOUS
10
206.3152279999999905
20
-60.8285449999999983
11
206.4934619999999938
21
-60.856774999999999
0
LINE
8
BLACK
6
CONTINUOUS
10
205.1749999999999829
20
-62.0784159999999972
11
205.2153500000000008
21
-62.2812739999999962
0
LINE
8
BLACK
6
CONTINUOUS
10
205.2153500000000008
20
-62.2812739999999962
11
205.2945019999999943
21
-62.4723619999999968
0
LINE
8
BLACK
6
CONTINUOUS
10
205.2945019999999943
20
-62.4723619999999968
11
205.4094109999999773
21
-62.6443359999999956
0
LINE
8
BLACK
6
CONTINUOUS
10
205.4094109999999773
20
-62.6443359999999956
11
205.5556639999999788
21
-62.7905889999999971
0
LINE
8
BLACK
6
CONTINUOUS
10
205.5556639999999788
20
-62.7905889999999971
11
205.7276379999999847
21
-62.9054979999999944
0
LINE
8
BLACK
6
CONTINUOUS
10
205.7276379999999847
20
-62.9054979999999944
11
205.9187259999999924
21
-62.9846499999999949
0
LINE
8
BLACK
6
CONTINUOUS
10
205.9187259999999924
20
-62.9846499999999949
11
206.1215839999999844
21
-63.0249999999999986
0
LINE
8
BLACK
6
CONTINUOUS
10
206.1215839999999844
20
-63.0249999999999986
11
206.3284160000000043
21
-63.0249999999999986
0
LINE
8
BLACK
6
CONTINUOUS
10
206.3284160000000043
20
-63.0249999999999986
11
206.5312739999999962
21
-62.9846499999999949
0
LINE
8
BLACK
6
CONTINUOUS
10
206.5312739999999962
20
-62.9846499999999949
11
206.7223620000000039
21
-62.9054979999999944
0
LINE
8
BLACK
6
CONTINUOUS
10
206.7223620000000039
20
-62.9054979999999944
11
206.8943359999999814
21
-62.7905889999999971
0
LINE
8
BLACK
6
CONTINUOUS
10
206.8943359999999814
20
-62.7905889999999971
11
207.0405889999999829
21
-62.6443359999999956
0
LINE
8
BLACK
6
CONTINUOUS
10
207.0405889999999829
20
-62.6443359999999956
11
207.1554979999999944
21
-62.4723619999999968
0
LINE
8
BLACK
6
CONTINUOUS
10
207.1554979999999944
20
-62.4723619999999968
11
207.2346499999999878
21
-62.2812739999999962
0
LINE
8
BLACK
6
CONTINUOUS
10
207.2346499999999878
20
-62.2812739999999962
11
207.2749999999999773
21
-62.0784159999999972
0
LINE
8
BLACK
6
CONTINUOUS
10
207.2749999999999773
20
-62.0784159999999972
11
207.2749999999999773
21
-61.8715839999999986
0
LINE
8
BLACK
6
CONTINUOUS
10
207.2749999999999773
20
-61.8715839999999986
11
207.2346499999999878
21
-61.6687259999999995
0
LINE
8
BLACK
6
CONTINUOUS
10
207.2346499999999878
20
-61.6687259999999995
11
207.1554979999999944
21
-61.4776379999999989
0
LINE
8
BLACK
6
CONTINUOUS
10
207.1554979999999944
20
-61.4776379999999989
11
207.0405889999999829
21
-61.3056640000000002
0
LINE
8
BLACK
6
CONTINUOUS
10
207.0405889999999829
20
-61.3056640000000002
11
206.8943359999999814
21
-61.1594109999999986
0
LINE
8
BLACK
6
CONTINUOUS
10
206.8943359999999814
20
-61.1594109999999986
11
206.7223620000000039
21
-61.0445019999999943
0
LINE
8
BLACK
6
CONTINUOUS
10
206.7223620000000039
20
-61.0445019999999943
11
206.5312739999999962
21
-60.9653499999999937
0
LINE
8
BLACK
6
CONTINUOUS
10
206.5312739999999962
20
-60.9653499999999937
11
206.3284160000000043
21
-60.9249999999999972
0
LINE
8
BLACK
6
CONTINUOUS
10
206.3284160000000043
20
-60.9249999999999972
11
206.1215839999999844
21
-60.9249999999999972
0
LINE
8
BLACK
6
CONTINUOUS
10
206.1215839999999844
20
-60.9249999999999972
11
205.9187259999999924
21
-60.9653499999999937
0
LINE
8
BLACK
6
CONTINUOUS
10
205.9187259999999924
20
-60.9653499999999937
11
205.7276379999999847
21
-61.0445019999999943
0
LINE
8
BLACK
6
CONTINUOUS
10
205.7276379999999847
20
-61.0445019999999943
11
205.5556639999999788
21
-61.1594109999999986
0
LINE
8
BLACK
6
CONTINUOUS
10
205.5556639999999788
20
-61.1594109999999986
11
205.4094109999999773
21
-61.3056640000000002
0
LINE
8
BLACK
6
CONTINUOUS
10
205.4094109999999773
20
-61.3056640000000002
11
205.2945019999999943
21
-61.4776379999999989
0
LINE
8
BLACK
6
CONTINUOUS
10
205.2945019999999943
20
-61.4776379999999989
11
205.2153500000000008
21
-61.6687259999999995
0
LINE
8
BLACK
6
CONTINUOUS
10
205.2153500000000008
20
-61.6687259999999995
11
205.1749999999999829
21
-61.8715839999999986
0
LINE
8
BLACK
6
CONTINUOUS
10
205.1749999999999829
20
-61.8715839999999986
11
205.1749999999999829
21
-62.0784159999999972
0
LINE
8
BLACK
6
CONTINUOUS
10
203.7729609999999809
20
-45.3445669999999978
11
203.8054329999999936
21
-45.3770389999999963
0
LINE
8
BLACK
6
CONTINUOUS
10
203.8054329999999936
20
-45.3770389999999963
11
203.8100000000000023
21
-45.3999999999999986
0
LINE
8
BLACK
6
CONTINUOUS
10
203.8100000000000023
20
-45.3999999999999986
11
203.8100000000000023
21
-59.3999999999999986
0
LINE
8
BLACK
6
CONTINUOUS
10
203.8100000000000023
20
-59.3999999999999986
11
203.8054329999999936
21
-59.4229610000000008
0
LINE
8
BLACK
6
CONTINUOUS
10
203.8054329999999936
20
-59.4229610000000008
11
203.7729609999999809
21
-59.4554329999999993
0
LINE
8
BLACK
6
CONTINUOUS
10
203.7729609999999809
20
-59.4554329999999993
11
203.75
21
-59.4600000000000009
0
LINE
8
BLACK
6
CONTINUOUS
10
203.75
20
-59.4600000000000009
11
189.75
21
-59.4600000000000009
0
LINE
8
BLACK
6
CONTINUOUS
10
189.75
20
-59.4600000000000009
11
189.7270389999999907
21
-59.4554329999999993
0
LINE
8
BLACK
6
CONTINUOUS
10
189.7270389999999907
20
-59.4554329999999993
11
189.694566999999978
21
-59.4229610000000008
0
LINE
8
BLACK
6
CONTINUOUS
10
189.694566999999978
20
-59.4229610000000008
11
189.6899999999999977
21
-59.3999999999999986
0
LINE
8
BLACK
6
CONTINUOUS
10
189.6899999999999977
20
-59.3999999999999986
11
189.6899999999999977
21
-45.3999999999999986
0
LINE
8
BLACK
6
CONTINUOUS
10
189.6899999999999977
20
-45.3999999999999986
11
189.694566999999978
21
-45.3770389999999963
0
LINE
8
BLACK
6
CONTINUOUS
10
189.694566999999978
20
-45.3770389999999963
11
189.7270389999999907
21
-45.3445669999999978
0
LINE
8
BLACK
6
CONTINUOUS
10
189.7270389999999907
20
-45.3445669999999978
11
189.75
21
-45.3399999999999963
0
LINE
8
BLACK
6
CONTINUOUS
10
189.75
20
-45.3399999999999963
11
203.75
21
-45.3399999999999963
0
LINE
8
BLACK
6
CONTINUOUS
10
203.75
20
-45.3399999999999963
11
203.7729609999999809
21
-45.3445669999999978
0
LINE
8
BLACK
6
CONTINUOUS
10
189.8100000000000023
20
-45.4600000000000009
11
189.8100000000000023
21
-59.3399999999999963
0
LINE
8
BLACK
6
CONTINUOUS
10
189.8100000000000023
20
-59.3399999999999963
11
203.6899999999999977
21
-59.3399999999999963
0
LINE
8
BLACK
6
CONTINUOUS
10
203.6899999999999977
20
-59.3399999999999963
11
203.6899999999999977
21
-45.4600000000000009
0
LINE
8
BLACK
6
CONTINUOUS
10
203.6899999999999977
20
-45.4600000000000009
11
189.8100000000000023
21
-45.4600000000000009
0
LINE
8
BLACK
6
CONTINUOUS
10
222.7729459999999904
20
-45.3445669999999978
11
222.8054180000000031
21
-45.3770389999999963
0
LINE
8
BLACK
6
CONTINUOUS
10
222.8054180000000031
20
-45.3770389999999963
11
222.8099849999999833
21
-45.3999999999999986
0
LINE
8
BLACK
6
CONTINUOUS
10
222.8099849999999833
20
-45.3999999999999986
11
222.8099849999999833
21
-59.3999999999999986
0
LINE
8
BLACK
6
CONTINUOUS
10
222.8099849999999833
20
-59.3999999999999986
11
222.8054180000000031
21
-59.4229610000000008
0
LINE
8
BLACK
6
CONTINUOUS
10
222.8054180000000031
20
-59.4229610000000008
11
222.7729459999999904
21
-59.4554329999999993
0
LINE
8
BLACK
6
CONTINUOUS
10
222.7729459999999904
20
-59.4554329999999993
11
222.749984999999981
21
-59.4600000000000009
0
LINE
8
BLACK
6
CONTINUOUS
10
222.749984999999981
20
-59.4600000000000009
11
208.749984999999981
21
-59.4600000000000009
0
LINE
8
BLACK
6
CONTINUOUS
10
208.749984999999981
20
-59.4600000000000009
11
208.7270240000000001
21
-59.4554329999999993
0
LINE
8
BLACK
6
CONTINUOUS
10
208.7270240000000001
20
-59.4554329999999993
11
208.6945519999999874
21
-59.4229610000000008
0
LINE
8
BLACK
6
CONTINUOUS
10
208.6945519999999874
20
-59.4229610000000008
11
208.6899849999999788
21
-59.3999999999999986
0
LINE
8
BLACK
6
CONTINUOUS
10
208.6899849999999788
20
-59.3999999999999986
11
208.6899849999999788
21
-45.3999999999999986
0
LINE
8
BLACK
6
CONTINUOUS
10
208.6899849999999788
20
-45.3999999999999986
11
208.6945519999999874
21
-45.3770389999999963
0
LINE
8
BLACK
6
CONTINUOUS
10
208.6945519999999874
20
-45.3770389999999963
11
208.7270240000000001
21
-45.3445669999999978
0
LINE
8
BLACK
6
CONTINUOUS
10
208.7270240000000001
20
-45.3445669999999978
11
208.749984999999981
21
-45.3399999999999963
0
LINE
8
BLACK
6
CONTINUOUS
10
208.749984999999981
20
-45.3399999999999963
11
222.749984999999981
21
-45.3399999999999963
0
LINE
8
BLACK
6
CONTINUOUS
10
222.749984999999981
20
-45.3399999999999963
11
222.7729459999999904
21
-45.3445669999999978
0
LINE
8
BLACK
6
CONTINUOUS
10
208.8099849999999833
20
-45.4600000000000009
11
208.8099849999999833
21
-59.3399999999999963
0
LINE
8
BLACK
6
CONTINUOUS
10
208.8099849999999833
20
-59.3399999999999963
11
222.6899849999999788
21
-59.3399999999999963
0
LINE
8
BLACK
6
CONTINUOUS
10
222.6899849999999788
20
-59.3399999999999963
11
222.6899849999999788
21
-45.4600000000000009
0
LINE
8
BLACK
6
CONTINUOUS
10
222.6899849999999788
20
-45.4600000000000009
11
208.8099849999999833
21
-45.4600000000000009
0
LINE
8
BLACK
6
CONTINUOUS
10
130.2434619999999938
20
-56.1567749999999961
11
130.4150860000000023
21
-56.2125389999999996
0
LINE
8
BLACK
6
CONTINUOUS
10
130.4150860000000023
20
-56.2125389999999996
11
130.5758730000000014
21
-56.2944639999999978
0
LINE
8
BLACK
6
CONTINUOUS
10
130.5758730000000014
20
-56.2944639999999978
11
130.7218650000000082
21
-56.4005329999999958
0
LINE
8
BLACK
6
CONTINUOUS
10
130.7218650000000082
20
-56.4005329999999958
11
130.8494670000000042
21
-56.5281349999999989
0
LINE
8
BLACK
6
CONTINUOUS
10
130.8494670000000042
20
-56.5281349999999989
11
130.9555359999999951
21
-56.6741269999999986
0
LINE
8
BLACK
6
CONTINUOUS
10
130.9555359999999951
20
-56.6741269999999986
11
131.0374610000000075
21
-56.8349139999999977
0
LINE
8
BLACK
6
CONTINUOUS
10
131.0374610000000075
20
-56.8349139999999977
11
131.0932249999999897
21
-57.006537999999999
0
LINE
8
BLACK
6
CONTINUOUS
10
131.0932249999999897
20
-57.006537999999999
11
131.1214549999999974
21
-57.1847719999999953
0
LINE
8
BLACK
6
CONTINUOUS
10
131.1214549999999974
20
-57.1847719999999953
11
131.1214549999999974
21
-57.3652279999999948
0
LINE
8
BLACK
6
CONTINUOUS
10
131.1214549999999974
20
-57.3652279999999948
11
131.0932249999999897
21
-57.5434619999999981
0
LINE
8
BLACK
6
CONTINUOUS
10
131.0932249999999897
20
-57.5434619999999981
11
131.0374610000000075
21
-57.7150859999999994
0
LINE
8
BLACK
6
CONTINUOUS
10
131.0374610000000075
20
-57.7150859999999994
11
130.9555359999999951
21
-57.8758729999999986
0
LINE
8
BLACK
6
CONTINUOUS
10
130.9555359999999951
20
-57.8758729999999986
11
130.8494670000000042
21
-58.0218649999999982
0
LINE
8
BLACK
6
CONTINUOUS
10
130.8494670000000042
20
-58.0218649999999982
11
130.7218650000000082
21
-58.1494669999999942
0
LINE
8
BLACK
6
CONTINUOUS
10
130.7218650000000082
20
-58.1494669999999942
11
130.5758730000000014
21
-58.2555359999999993
0
LINE
8
BLACK
6
CONTINUOUS
10
130.5758730000000014
20
-58.2555359999999993
11
130.4150860000000023
21
-58.3374609999999976
0
LINE
8
BLACK
6
CONTINUOUS
10
130.4150860000000023
20
-58.3374609999999976
11
130.2434619999999938
21
-58.3932249999999939
0
LINE
8
BLACK
6
CONTINUOUS
10
130.2434619999999938
20
-58.3932249999999939
11
130.0652279999999905
21
-58.4214549999999946
0
LINE
8
BLACK
6
CONTINUOUS
10
130.0652279999999905
20
-58.4214549999999946
11
129.8847719999999981
21
-58.4214549999999946
0
LINE
8
BLACK
6
CONTINUOUS
10
129.8847719999999981
20
-58.4214549999999946
11
129.7065379999999948
21
-58.3932249999999939
0
LINE
8
BLACK
6
CONTINUOUS
10
129.7065379999999948
20
-58.3932249999999939
11
129.5349139999999863
21
-58.3374609999999976
0
LINE
8
BLACK
6
CONTINUOUS
10
129.5349139999999863
20
-58.3374609999999976
11
129.3741269999999872
21
-58.2555359999999993
0
LINE
8
BLACK
6
CONTINUOUS
10
129.3741269999999872
20
-58.2555359999999993
11
129.2281349999999804
21
-58.1494669999999942
0
LINE
8
BLACK
6
CONTINUOUS
10
129.2281349999999804
20
-58.1494669999999942
11
129.1005329999999844
21
-58.0218649999999982
0
LINE
8
BLACK
6
CONTINUOUS
10
129.1005329999999844
20
-58.0218649999999982
11
128.9944639999999936
21
-57.8758729999999986
0
LINE
8
BLACK
6
CONTINUOUS
10
128.9944639999999936
20
-57.8758729999999986
11
128.9125389999999811
21
-57.7150859999999994
0
LINE
8
BLACK
6
CONTINUOUS
10
128.9125389999999811
20
-57.7150859999999994
11
128.856774999999999
21
-57.5434619999999981
0
LINE
8
BLACK
6
CONTINUOUS
10
128.856774999999999
20
-57.5434619999999981
11
128.8285449999999912
21
-57.3652279999999948
0
LINE
8
BLACK
6
CONTINUOUS
10
128.8285449999999912
20
-57.3652279999999948
11
128.8285449999999912
21
-57.1847719999999953
0
LINE
8
BLACK
6
CONTINUOUS
10
128.8285449999999912
20
-57.1847719999999953
11
128.8306340000000034
21
-57.1715839999999957
0
LINE
8
BLACK
6
CONTINUOUS
10
128.8306340000000034
20
-57.1715839999999957
11
128.856774999999999
21
-57.006537999999999
0
LINE
8
BLACK
6
CONTINUOUS
10
128.856774999999999
20
-57.006537999999999
11
128.9125389999999811
21
-56.8349139999999977
0
LINE
8
BLACK
6
CONTINUOUS
10
128.9125389999999811
20
-56.8349139999999977
11
128.9944639999999936
21
-56.6741269999999986
0
LINE
8
BLACK
6
CONTINUOUS
10
128.9944639999999936
20
-56.6741269999999986
11
129.1005329999999844
21
-56.5281349999999989
0
LINE
8
BLACK
6
CONTINUOUS
10
129.1005329999999844
20
-56.5281349999999989
11
129.2281349999999804
21
-56.4005329999999958
0
LINE
8
BLACK
6
CONTINUOUS
10
129.2281349999999804
20
-56.4005329999999958
11
129.3741269999999872
21
-56.2944639999999978
0
LINE
8
BLACK
6
CONTINUOUS
10
129.3741269999999872
20
-56.2944639999999978
11
129.5349139999999863
21
-56.2125389999999996
0
LINE
8
BLACK
6
CONTINUOUS
10
129.5349139999999863
20
-56.2125389999999996
11
129.7065379999999948
21
-56.1567749999999961
0
LINE
8
BLACK
6
CONTINUOUS
10
129.7065379999999948
20
-56.1567749999999961
11
129.8847719999999981
21
-56.1285449999999955
0
LINE
8
BLACK
6
CONTINUOUS
10
129.8847719999999981
20
-56.1285449999999955
11
130.0652279999999905
21
-56.1285449999999955
0
LINE
8
BLACK
6
CONTINUOUS
10
130.0652279999999905
20
-56.1285449999999955
11
130.2434619999999938
21
-56.1567749999999961
0
LINE
8
BLACK
6
CONTINUOUS
10
128.9249999999999829
20
-57.3784159999999943
11
128.9653500000000008
21
-57.5812740000000005
0
LINE
8
BLACK
6
CONTINUOUS
10
128.9653500000000008
20
-57.5812740000000005
11
129.0445019999999943
21
-57.772361999999994
0
LINE
8
BLACK
6
CONTINUOUS
10
129.0445019999999943
20
-57.772361999999994
11
129.1594110000000057
21
-57.9443359999999998
0
LINE
8
BLACK
6
CONTINUOUS
10
129.1594110000000057
20
-57.9443359999999998
11
129.3056640000000073
21
-58.0905889999999943
0
LINE
8
BLACK
6
CONTINUOUS
10
129.3056640000000073
20
-58.0905889999999943
11
129.4776379999999847
21
-58.2054979999999986
0
LINE
8
BLACK
6
CONTINUOUS
10
129.4776379999999847
20
-58.2054979999999986
11
129.6687259999999924
21
-58.2846499999999992
0
LINE
8
BLACK
6
CONTINUOUS
10
129.6687259999999924
20
-58.2846499999999992
11
129.8715839999999844
21
-58.3249999999999957
0
LINE
8
BLACK
6
CONTINUOUS
10
129.8715839999999844
20
-58.3249999999999957
11
130.0784160000000043
21
-58.3249999999999957
0
LINE
8
BLACK
6
CONTINUOUS
10
130.0784160000000043
20
-58.3249999999999957
11
130.2812739999999962
21
-58.2846499999999992
0
LINE
8
BLACK
6
CONTINUOUS
10
130.2812739999999962
20
-58.2846499999999992
11
130.4723620000000039
21
-58.2054979999999986
0
LINE
8
BLACK
6
CONTINUOUS
10
130.4723620000000039
20
-58.2054979999999986
11
130.6443359999999814
21
-58.0905889999999943
0
LINE
8
BLACK
6
CONTINUOUS
10
130.6443359999999814
20
-58.0905889999999943
11
130.7905889999999829
21
-57.9443359999999998
0
LINE
8
BLACK
6
CONTINUOUS
10
130.7905889999999829
20
-57.9443359999999998
11
130.9054979999999944
21
-57.772361999999994
0
LINE
8
BLACK
6
CONTINUOUS
10
130.9054979999999944
20
-57.772361999999994
11
130.9846499999999878
21
-57.5812740000000005
0
LINE
8
BLACK
6
CONTINUOUS
10
130.9846499999999878
20
-57.5812740000000005
11
131.0250000000000057
21
-57.3784159999999943
0
LINE
8
BLACK
6
CONTINUOUS
10
131.0250000000000057
20
-57.3784159999999943
11
131.0250000000000057
21
-57.1715839999999957
0
LINE
8
BLACK
6
CONTINUOUS
10
131.0250000000000057
20
-57.1715839999999957
11
130.9846499999999878
21
-56.9687259999999966
0
LINE
8
BLACK
6
CONTINUOUS
10
130.9846499999999878
20
-56.9687259999999966
11
130.9054979999999944
21
-56.7776379999999961
0
LINE
8
BLACK
6
CONTINUOUS
10
130.9054979999999944
20
-56.7776379999999961
11
130.7905889999999829
21
-56.6056639999999973
0
LINE
8
BLACK
6
CONTINUOUS
10
130.7905889999999829
20
-56.6056639999999973
11
130.6443359999999814
21
-56.4594109999999958
0
LINE
8
BLACK
6
CONTINUOUS
10
130.6443359999999814
20
-56.4594109999999958
11
130.4723620000000039
21
-56.3445019999999985
0
LINE
8
BLACK
6
CONTINUOUS
10
130.4723620000000039
20
-56.3445019999999985
11
130.2812739999999962
21
-56.265349999999998
0
LINE
8
BLACK
6
CONTINUOUS
10
130.2812739999999962
20
-56.265349999999998
11
130.0784160000000043
21
-56.2249999999999943
0
LINE
8
BLACK
6
CONTINUOUS
10
130.0784160000000043
20
-56.2249999999999943
11
129.8715839999999844
21
-56.2249999999999943
0
LINE
8
BLACK
6
CONTINUOUS
10
129.8715839999999844
20
-56.2249999999999943
11
129.6687259999999924
21
-56.265349999999998
0
LINE
8
BLACK
6
CONTINUOUS
10
129.6687259999999924
20
-56.265349999999998
11
129.4776379999999847
21
-56.3445019999999985
0
LINE
8
BLACK
6
CONTINUOUS
10
129.4776379999999847
20
-56.3445019999999985
11
129.3056640000000073
21
-56.4594109999999958
0
LINE
8
BLACK
6
CONTINUOUS
10
129.3056640000000073
20
-56.4594109999999958
11
129.1594110000000057
21
-56.6056639999999973
0
LINE
8
BLACK
6
CONTINUOUS
10
129.1594110000000057
20
-56.6056639999999973
11
129.0445019999999943
21
-56.7776379999999961
0
LINE
8
BLACK
6
CONTINUOUS
10
129.0445019999999943
20
-56.7776379999999961
11
128.9653500000000008
21
-56.9687259999999966
0
LINE
8
BLACK
6
CONTINUOUS
10
128.9653500000000008
20
-56.9687259999999966
11
128.9249999999999829
21
-57.1715839999999957
0
LINE
8
BLACK
6
CONTINUOUS
10
128.9249999999999829
20
-57.1715839999999957
11
128.9249999999999829
21
-57.3784159999999943
0
LINE
8
BLACK
6
CONTINUOUS
10
127.5729609999999923
20
-42.9445669999999993
11
127.6054329999999908
21
-42.9770389999999978
0
LINE
8
BLACK
6
CONTINUOUS
10
127.6054329999999908
20
-42.9770389999999978
11
127.6099999999999994
21
-43.
0
LINE
8
BLACK
6
CONTINUOUS
10
127.6099999999999994
20
-43.
11
127.6099999999999994
21
-57.
0
LINE
8
BLACK
6
CONTINUOUS
10
127.6099999999999994
20
-57.
11
127.6054329999999908
21
-57.0229609999999951
0
LINE
8
BLACK
6
CONTINUOUS
10
127.6054329999999908
20
-57.0229609999999951
11
127.5729609999999923
21
-57.0554330000000007
0
LINE
8
BLACK
6
CONTINUOUS
10
127.5729609999999923
20
-57.0554330000000007
11
127.5499999999999972
21
-57.0599999999999952
0
LINE
8
BLACK
6
CONTINUOUS
10
127.5499999999999972
20
-57.0599999999999952
11
113.5499999999999972
21
-57.0599999999999952
0
LINE
8
BLACK
6
CONTINUOUS
10
113.5499999999999972
20
-57.0599999999999952
11
113.5270389999999878
21
-57.0554330000000007
0
LINE
8
BLACK
6
CONTINUOUS
10
113.5270389999999878
20
-57.0554330000000007
11
113.4945669999999893
21
-57.0229609999999951
0
LINE
8
BLACK
6
CONTINUOUS
10
113.4945669999999893
20
-57.0229609999999951
11
113.4899999999999949
21
-57.
0
LINE
8
BLACK
6
CONTINUOUS
10
113.4899999999999949
20
-57.
11
113.4899999999999949
21
-43.
0
LINE
8
BLACK
6
CONTINUOUS
10
113.4899999999999949
20
-43.
11
113.4945669999999893
21
-42.9770389999999978
0
LINE
8
BLACK
6
CONTINUOUS
10
113.4945669999999893
20
-42.9770389999999978
11
113.5270389999999878
21
-42.9445669999999993
0
LINE
8
BLACK
6
CONTINUOUS
10
113.5270389999999878
20
-42.9445669999999993
11
113.5499999999999972
21
-42.9399999999999977
0
LINE
8
BLACK
6
CONTINUOUS
10
113.5499999999999972
20
-42.9399999999999977
11
127.5499999999999972
21
-42.9399999999999977
0
LINE
8
BLACK
6
CONTINUOUS
10
127.5499999999999972
20
-42.9399999999999977
11
127.5729609999999923
21
-42.9445669999999993
0
LINE
8
BLACK
6
CONTINUOUS
10
113.6099999999999994
20
-43.0599999999999952
11
113.6099999999999994
21
-56.9399999999999977
0
LINE
8
BLACK
6
CONTINUOUS
10
113.6099999999999994
20
-56.9399999999999977
11
127.4899999999999949
21
-56.9399999999999977
0
LINE
8
BLACK
6
CONTINUOUS
10
127.4899999999999949
20
-56.9399999999999977
11
127.4899999999999949
21
-43.0599999999999952
0
LINE
8
BLACK
6
CONTINUOUS
10
127.4899999999999949
20
-43.0599999999999952
11
113.6099999999999994
21
-43.0599999999999952
0
LINE
8
BLACK
6
CONTINUOUS
10
184.672945999999996
20
-40.4845669999999984
11
184.7054179999999803
21
-40.5170389999999969
0
LINE
8
BLACK
6
CONTINUOUS
10
184.7054179999999803
20
-40.5170389999999969
11
184.709984999999989
21
-40.5399999999999991
0
LINE
8
BLACK
6
CONTINUOUS
10
184.709984999999989
20
-40.5399999999999991
11
184.709984999999989
21
-54.5399999999999991
0
LINE
8
BLACK
6
CONTINUOUS
10
184.709984999999989
20
-54.5399999999999991
11
184.7054179999999803
21
-54.5629609999999943
0
LINE
8
BLACK
6
CONTINUOUS
10
184.7054179999999803
20
-54.5629609999999943
11
184.672945999999996
21
-54.5954329999999999
0
LINE
8
BLACK
6
CONTINUOUS
10
184.672945999999996
20
-54.5954329999999999
11
184.6499849999999867
21
-54.5999999999999943
0
LINE
8
BLACK
6
CONTINUOUS
10
184.6499849999999867
20
-54.5999999999999943
11
170.6499849999999867
21
-54.5999999999999943
0
LINE
8
BLACK
6
CONTINUOUS
10
170.6499849999999867
20
-54.5999999999999943
11
170.6270240000000058
21
-54.5954329999999999
0
LINE
8
BLACK
6
CONTINUOUS
10
170.6270240000000058
20
-54.5954329999999999
11
170.5945519999999931
21
-54.5629609999999943
0
LINE
8
BLACK
6
CONTINUOUS
10
170.5945519999999931
20
-54.5629609999999943
11
170.5899849999999844
21
-54.5399999999999991
0
LINE
8
BLACK
6
CONTINUOUS
10
170.5899849999999844
20
-54.5399999999999991
11
170.5899849999999844
21
-40.5399999999999991
0
LINE
8
BLACK
6
CONTINUOUS
10
170.5899849999999844
20
-40.5399999999999991
11
170.5945519999999931
21
-40.5170389999999969
0
LINE
8
BLACK
6
CONTINUOUS
10
170.5945519999999931
20
-40.5170389999999969
11
170.6270240000000058
21
-40.4845669999999984
0
LINE
8
BLACK
6
CONTINUOUS
10
170.6270240000000058
20
-40.4845669999999984
11
170.6499849999999867
21
-40.4799999999999969
0
LINE
8
BLACK
6
CONTINUOUS
10
170.6499849999999867
20
-40.4799999999999969
11
184.6499849999999867
21
-40.4799999999999969
0
LINE
8
BLACK
6
CONTINUOUS
10
184.6499849999999867
20
-40.4799999999999969
11
184.672945999999996
21
-40.4845669999999984
0
LINE
8
BLACK
6
CONTINUOUS
10
170.709984999999989
20
-40.6000000000000014
11
170.709984999999989
21
-54.4799999999999969
0
LINE
8
BLACK
6
CONTINUOUS
10
170.709984999999989
20
-54.4799999999999969
11
184.5899849999999844
21
-54.4799999999999969
0
LINE
8
BLACK
6
CONTINUOUS
10
184.5899849999999844
20
-54.4799999999999969
11
184.5899849999999844
21
-40.6000000000000014
0
LINE
8
BLACK
6
CONTINUOUS
10
184.5899849999999844
20
-40.6000000000000014
11
170.709984999999989
21
-40.6000000000000014
0
LINE
8
BLACK
6
CONTINUOUS
10
146.5729460000000017
20
-40.4445669999999993
11
146.605417999999986
21
-40.4770389999999978
0
LINE
8
BLACK
6
CONTINUOUS
10
146.605417999999986
20
-40.4770389999999978
11
146.6099849999999947
21
-40.5
0
LINE
8
BLACK
6
CONTINUOUS
10
146.6099849999999947
20
-40.5
11
146.6099849999999947
21
-54.5
0
LINE
8
BLACK
6
CONTINUOUS
10
146.6099849999999947
20
-54.5
11
146.605417999999986
21
-54.5229609999999951
0
LINE
8
BLACK
6
CONTINUOUS
10
146.605417999999986
20
-54.5229609999999951
11
146.5729460000000017
21
-54.5554330000000007
0
LINE
8
BLACK
6
CONTINUOUS
10
146.5729460000000017
20
-54.5554330000000007
11
146.5499849999999924
21
-54.5599999999999952
0
LINE
8
BLACK
6
CONTINUOUS
10
146.5499849999999924
20
-54.5599999999999952
11
132.5499849999999924
21
-54.5599999999999952
0
LINE
8
BLACK
6
CONTINUOUS
10
132.5499849999999924
20
-54.5599999999999952
11
132.5270239999999831
21
-54.5554330000000007
0
LINE
8
BLACK
6
CONTINUOUS
10
132.5270239999999831
20
-54.5554330000000007
11
132.4945519999999988
21
-54.5229609999999951
0
LINE
8
BLACK
6
CONTINUOUS
10
132.4945519999999988
20
-54.5229609999999951
11
132.4899849999999901
21
-54.5
0
LINE
8
BLACK
6
CONTINUOUS
10
132.4899849999999901
20
-54.5
11
132.4899849999999901
21
-40.5
0
LINE
8
BLACK
6
CONTINUOUS
10
132.4899849999999901
20
-40.5
11
132.4945519999999988
21
-40.4770389999999978
0
LINE
8
BLACK
6
CONTINUOUS
10
132.4945519999999988
20
-40.4770389999999978
11
132.5270239999999831
21
-40.4445669999999993
0
LINE
8
BLACK
6
CONTINUOUS
10
132.5270239999999831
20
-40.4445669999999993
11
132.5499849999999924
21
-40.4399999999999977
0
LINE
8
BLACK
6
CONTINUOUS
10
132.5499849999999924
20
-40.4399999999999977
11
146.5499849999999924
21
-40.4399999999999977
0
LINE
8
BLACK
6
CONTINUOUS
10
146.5499849999999924
20
-40.4399999999999977
11
146.5729460000000017
21
-40.4445669999999993
0
LINE
8
BLACK
6
CONTINUOUS
10
132.6099849999999947
20
-40.5599999999999952
11
132.6099849999999947
21
-54.4399999999999977
0
LINE
8
BLACK
6
CONTINUOUS
10
132.6099849999999947
20
-54.4399999999999977
11
146.4899849999999901
21
-54.4399999999999977
0
LINE
8
BLACK
6
CONTINUOUS
10
146.4899849999999901
20
-54.4399999999999977
11
146.4899849999999901
21
-40.5599999999999952
0
LINE
8
BLACK
6
CONTINUOUS
10
146.4899849999999901
20
-40.5599999999999952
11
132.6099849999999947
21
-40.5599999999999952
0
LINE
8
BLACK
6
CONTINUOUS
10
165.6729609999999866
20
-37.9445669999999993
11
165.7054329999999993
21
-37.9770389999999978
0
LINE
8
BLACK
6
CONTINUOUS
10
165.7054329999999993
20
-37.9770389999999978
11
165.7099999999999795
21
-38.
0
LINE
8
BLACK
6
CONTINUOUS
10
165.7099999999999795
20
-38.
11
165.7099999999999795
21
-52.
0
LINE
8
BLACK
6
CONTINUOUS
10
165.7099999999999795
20
-52.
11
165.7054329999999993
21
-52.0229609999999951
0
LINE
8
BLACK
6
CONTINUOUS
10
165.7054329999999993
20
-52.0229609999999951
11
165.6729609999999866
21
-52.0554330000000007
0
LINE
8
BLACK
6
CONTINUOUS
10
165.6729609999999866
20
-52.0554330000000007
11
165.6500000000000057
21
-52.0599999999999952
0
LINE
8
BLACK
6
CONTINUOUS
10
165.6500000000000057
20
-52.0599999999999952
11
151.6500000000000057
21
-52.0599999999999952
0
LINE
8
BLACK
6
CONTINUOUS
10
151.6500000000000057
20
-52.0599999999999952
11
151.6270389999999963
21
-52.0554330000000007
0
LINE
8
BLACK
6
CONTINUOUS
10
151.6270389999999963
20
-52.0554330000000007
11
151.5945669999999836
21
-52.0229609999999951
0
LINE
8
BLACK
6
CONTINUOUS
10
151.5945669999999836
20
-52.0229609999999951
11
151.5900000000000034
21
-52.
0
LINE
8
BLACK
6
CONTINUOUS
10
151.5900000000000034
20
-52.
11
151.5900000000000034
21
-38.
0
LINE
8
BLACK
6
CONTINUOUS
10
151.5900000000000034
20
-38.
11
151.5945669999999836
21
-37.9770389999999978
0
LINE
8
BLACK
6
CONTINUOUS
10
151.5945669999999836
20
-37.9770389999999978
11
151.6270389999999963
21
-37.9445669999999993
0
LINE
8
BLACK
6
CONTINUOUS
10
151.6270389999999963
20
-37.9445669999999993
11
151.6500000000000057
21
-37.9399999999999977
0
LINE
8
BLACK
6
CONTINUOUS
10
151.6500000000000057
20
-37.9399999999999977
11
165.6500000000000057
21
-37.9399999999999977
0
LINE
8
BLACK
6
CONTINUOUS
10
165.6500000000000057
20
-37.9399999999999977
11
165.6729609999999866
21
-37.9445669999999993
0
LINE
8
BLACK
6
CONTINUOUS
10
151.7099999999999795
20
-38.0599999999999952
11
151.7099999999999795
21
-51.9399999999999977
0
LINE
8
BLACK
6
CONTINUOUS
10
151.7099999999999795
20
-51.9399999999999977
11
165.5900000000000034
21
-51.9399999999999977
0
LINE
8
BLACK
6
CONTINUOUS
10
165.5900000000000034
20
-51.9399999999999977
11
165.5900000000000034
21
-38.0599999999999952
0
LINE
8
BLACK
6
CONTINUOUS
10
165.5900000000000034
20
-38.0599999999999952
11
151.7099999999999795
21
-38.0599999999999952
0
LINE
8
BLACK
6
CONTINUOUS
10
171.1758729999999957
20
-34.9034879999999958
11
171.1817539999999838
21
-34.9038369999999958
0
LINE
8
BLACK
6
CONTINUOUS
10
171.1817539999999838
20
-34.9038369999999958
11
224.5356769999999926
21
-43.3701119999999989
0
LINE
8
BLACK
6
CONTINUOUS
10
224.5356769999999926
20
-43.3701119999999989
11
224.5390589999999804
21
-43.3709950000000006
0
LINE
8
BLACK
6
CONTINUOUS
10
224.5390589999999804
20
-43.3709950000000006
11
224.542523999999986
21
-43.3715279999999979
0
LINE
8
BLACK
6
CONTINUOUS
10
224.542523999999986
20
-43.3715279999999979
11
224.7441939999999931
21
-43.4231580000000008
0
LINE
8
BLACK
6
CONTINUOUS
10
224.7441939999999931
20
-43.4231580000000008
11
224.758010999999982
21
-43.4281829999999971
0
LINE
8
BLACK
6
CONTINUOUS
10
224.758010999999982
20
-43.4281829999999971
11
224.7608539999999948
21
-43.4303150000000002
0
LINE
8
BLACK
6
CONTINUOUS
10
224.7608539999999948
20
-43.4303150000000002
11
224.7641999999999882
21
-43.4315149999999974
0
LINE
8
BLACK
6
CONTINUOUS
10
224.7641999999999882
20
-43.4315149999999974
11
224.7656169999999918
21
-43.4325679999999963
0
LINE
8
BLACK
6
CONTINUOUS
10
224.7656169999999918
20
-43.4325679999999963
11
224.9436309999999821
21
-43.5141659999999959
0
LINE
8
BLACK
6
CONTINUOUS
10
224.9436309999999821
20
-43.5141659999999959
11
224.9563320000000033
21
-43.5215729999999965
0
LINE
8
BLACK
6
CONTINUOUS
10
224.9563320000000033
20
-43.5215729999999965
11
224.9582240000000013
21
-43.5236099999999979
0
LINE
8
BLACK
6
CONTINUOUS
10
224.9582240000000013
20
-43.5236099999999979
11
224.9606629999999825
21
-43.5249529999999965
0
LINE
8
BLACK
6
CONTINUOUS
10
224.9606629999999825
20
-43.5249529999999965
11
224.9635269999999991
21
-43.528531000000001
0
LINE
8
BLACK
6
CONTINUOUS
10
224.9635269999999991
20
-43.528531000000001
11
225.117812999999984
21
-43.6354159999999993
0
LINE
8
BLACK
6
CONTINUOUS
10
225.117812999999984
20
-43.6354159999999993
11
225.1184659999999838
21
-43.6359709999999978
0
LINE
8
BLACK
6
CONTINUOUS
10
225.1184659999999838
20
-43.6359709999999978
11
225.1192029999999988
21
-43.6364030000000014
0
LINE
8
BLACK
6
CONTINUOUS
10
225.1192029999999988
20
-43.6364030000000014
11
225.1232499999999845
21
-43.6393449999999987
0
LINE
8
BLACK
6
CONTINUOUS
10
225.1232499999999845
20
-43.6393449999999987
11
225.1274659999999983
21
-43.6430930000000004
0
LINE
8
BLACK
6
CONTINUOUS
10
225.1274659999999983
20
-43.6430930000000004
11
225.1318589999999915
21
-43.6466539999999981
0
LINE
8
BLACK
6
CONTINUOUS
10
225.1318589999999915
20
-43.6466539999999981
11
225.2655790000000025
21
-43.7787519999999972
0
LINE
8
BLACK
6
CONTINUOUS
10
225.2655790000000025
20
-43.7787519999999972
11
225.2703149999999823
21
-43.7813389999999956
0
LINE
8
BLACK
6
CONTINUOUS
10
225.2703149999999823
20
-43.7813389999999956
11
225.271727999999996
21
-43.7830930000000009
0
LINE
8
BLACK
6
CONTINUOUS
10
225.271727999999996
20
-43.7830930000000009
11
225.2736429999999928
21
-43.7842909999999961
0
LINE
8
BLACK
6
CONTINUOUS
10
225.2736429999999928
20
-43.7842909999999961
11
225.2833059999999819
21
-43.7953729999999979
0
LINE
8
BLACK
6
CONTINUOUS
10
225.2833059999999819
20
-43.7953729999999979
11
225.3988659999999982
21
-43.9575979999999973
0
LINE
8
BLACK
6
CONTINUOUS
10
225.3988659999999982
20
-43.9575979999999973
11
225.4048269999999832
21
-43.9679900000000004
0
LINE
8
BLACK
6
CONTINUOUS
10
225.4048269999999832
20
-43.9679900000000004
11
225.4055170000000032
21
-43.9689160000000001
0
LINE
8
BLACK
6
CONTINUOUS
10
225.4055170000000032
20
-43.9689160000000001
11
225.4056410000000028
21
-43.9694080000000014
0
LINE
8
BLACK
6
CONTINUOUS
10
225.4056410000000028
20
-43.9694080000000014
11
225.4061820000000012
21
-43.9703510000000009
0
LINE
8
BLACK
6
CONTINUOUS
10
225.4061820000000012
20
-43.9703510000000009
11
225.4092909999999961
21
-43.9838619999999949
0
LINE
8
BLACK
6
CONTINUOUS
10
225.4092909999999961
20
-43.9838619999999949
11
225.4102019999999982
21
-43.9874669999999952
0
LINE
8
BLACK
6
CONTINUOUS
10
225.4102019999999982
20
-43.9874669999999952
11
225.4908749999999884
21
-44.1563429999999997
0
LINE
8
BLACK
6
CONTINUOUS
10
225.4908749999999884
20
-44.1563429999999997
11
225.4958809999999971
21
-44.1701669999999993
0
LINE
8
BLACK
6
CONTINUOUS
10
225.4958809999999971
20
-44.1701669999999993
11
225.4959360000000004
21
-44.1712139999999991
0
LINE
8
BLACK
6
CONTINUOUS
10
225.4959360000000004
20
-44.1712139999999991
11
225.4966319999999769
21
-44.1737339999999961
0
LINE
8
BLACK
6
CONTINUOUS
10
225.4966319999999769
20
-44.1737339999999961
11
225.4967589999999973
21
-44.174039999999998
0
LINE
8
BLACK
6
CONTINUOUS
10
225.4967589999999973
20
-44.174039999999998
11
225.4967589999999973
21
-44.1741919999999979
0
LINE
8
BLACK
6
CONTINUOUS
10
225.4967589999999973
20
-44.1741919999999979
11
225.5493439999999907
21
-44.3646059999999949
0
LINE
8
BLACK
6
CONTINUOUS
10
225.5493439999999907
20
-44.3646059999999949
11
225.5518500000000017
21
-44.3790939999999949
0
LINE
8
BLACK
6
CONTINUOUS
10
225.5518500000000017
20
-44.3790939999999949
11
225.5517919999999776
21
-44.3795579999999958
0
LINE
8
BLACK
6
CONTINUOUS
10
225.5517919999999776
20
-44.3795579999999958
11
225.5519119999999873
21
-44.3800129999999982
0
LINE
8
BLACK
6
CONTINUOUS
10
225.5519119999999873
20
-44.3800129999999982
11
225.5499939999999981
21
-44.3940709999999967
0
LINE
8
BLACK
6
CONTINUOUS
10
225.5499939999999981
20
-44.3940709999999967
11
225.5494649999999979
21
-44.3983399999999975
0
LINE
8
BLACK
6
CONTINUOUS
10
225.5494649999999979
20
-44.3983399999999975
11
225.5663579999999797
21
-44.5851469999999992
0
LINE
8
BLACK
6
CONTINUOUS
10
225.5663579999999797
20
-44.5851469999999992
11
225.566330999999991
21
-44.588516999999996
0
LINE
8
BLACK
6
CONTINUOUS
10
225.566330999999991
20
-44.588516999999996
11
225.566662999999977
21
-44.5918749999999946
0
LINE
8
BLACK
6
CONTINUOUS
10
225.566662999999977
20
-44.5918749999999946
11
225.5936629999999923
21
-119.509972999999988
0
LINE
8
BLACK
6
CONTINUOUS
10
225.5936629999999923
20
-119.509972999999988
11
225.5922269999999799
21
-119.5246059999999915
0
LINE
8
BLACK
6
CONTINUOUS
10
225.5922269999999799
20
-119.5246059999999915
11
225.5918109999999785
21
-119.5256089999999887
0
LINE
8
BLACK
6
CONTINUOUS
10
225.5918109999999785
20
-119.5256089999999887
11
225.5917809999999974
21
-119.5266960000000012
0
LINE
8
BLACK
6
CONTINUOUS
10
225.5917809999999974
20
-119.5266960000000012
11
225.5862300000000005
21
-119.5390979999999956
0
LINE
8
BLACK
6
CONTINUOUS
10
225.5862300000000005
20
-119.5390979999999956
11
225.5810379999999782
21
-119.551645999999991
0
LINE
8
BLACK
6
CONTINUOUS
10
225.5810379999999782
20
-119.551645999999991
11
225.5802699999999845
21
-119.5524130000000014
0
LINE
8
BLACK
6
CONTINUOUS
10
225.5802699999999845
20
-119.5524130000000014
11
225.5798269999999945
21
-119.5534049999999979
0
LINE
8
BLACK
6
CONTINUOUS
10
225.5798269999999945
20
-119.5534049999999979
11
225.5699510000000032
21
-119.5627389999999934
0
LINE
8
BLACK
6
CONTINUOUS
10
225.5699510000000032
20
-119.5627389999999934
11
225.5603529999999921
21
-119.5723449999999985
0
LINE
8
BLACK
6
CONTINUOUS
10
225.5603529999999921
20
-119.5723449999999985
11
225.5593499999999949
21
-119.5727599999999882
0
LINE
8
BLACK
6
CONTINUOUS
10
225.5593499999999949
20
-119.5727599999999882
11
225.5585599999999999
21
-119.5735079999999897
0
LINE
8
BLACK
6
CONTINUOUS
10
225.5585599999999999
20
-119.5735079999999897
11
225.5454039999999907
21
-119.5800709999999896
0
LINE
8
BLACK
6
CONTINUOUS
10
225.5454039999999907
20
-119.5800709999999896
11
187.5752219999999966
21
-134.0700709999999845
0
LINE
8
BLACK
6
CONTINUOUS
10
187.5752219999999966
20
-134.0700709999999845
11
187.5644130000000018
21
-134.0730199999999854
0
LINE
8
BLACK
6
CONTINUOUS
10
187.5644130000000018
20
-134.0730199999999854
11
187.5631139999999846
21
-134.0735589999999888
0
LINE
8
BLACK
6
CONTINUOUS
10
187.5631139999999846
20
-134.0735589999999888
11
187.5620609999999999
21
-134.0736619999999846
0
LINE
8
BLACK
6
CONTINUOUS
10
187.5620609999999999
20
-134.0736619999999846
11
187.5610379999999964
21
-134.0739419999999882
0
LINE
8
BLACK
6
CONTINUOUS
10
187.5610379999999964
20
-134.0739419999999882
11
187.5596280000000036
21
-134.0739020000000039
0
LINE
8
BLACK
6
CONTINUOUS
10
187.5596280000000036
20
-134.0739020000000039
11
187.5484819999999786
21
-134.0749999999999886
0
LINE
8
BLACK
6
CONTINUOUS
10
187.5484819999999786
20
-134.0749999999999886
11
138.2105909999999938
21
-134.0749999999999886
0
LINE
8
BLACK
6
CONTINUOUS
10
138.2105909999999938
20
-134.0749999999999886
11
93.9666359999999941
21
-146.8220689999999991
0
LINE
8
BLACK
6
CONTINUOUS
10
93.9666359999999941
20
-146.8220689999999991
11
93.9521769999999918
21
-146.824735000000004
0
LINE
8
BLACK
6
CONTINUOUS
10
93.9521769999999918
20
-146.824735000000004
11
93.9496209999999934
21
-146.8244469999999922
0
LINE
8
BLACK
6
CONTINUOUS
10
93.9496209999999934
20
-146.8244469999999922
11
93.9471089999999975
21
-146.8249899999999855
0
LINE
8
BLACK
6
CONTINUOUS
10
93.9471089999999975
20
-146.8249899999999855
11
93.9324560000000019
21
-146.8237900000000025
0
LINE
8
BLACK
6
CONTINUOUS
10
93.9324560000000019
20
-146.8237900000000025
11
93.3824559999999906
21
-146.7237899999999797
0
LINE
8
BLACK
6
CONTINUOUS
10
93.3824559999999906
20
-146.7237899999999797
11
93.3773389999999921
21
-146.722329000000002
0
LINE
8
BLACK
6
CONTINUOUS
10
93.3773389999999921
20
-146.722329000000002
11
93.3721549999999922
21
-146.7211509999999919
0
LINE
8
BLACK
6
CONTINUOUS
10
93.3721549999999922
20
-146.7211509999999919
11
92.9221549999999894
21
-146.5711509999999862
0
LINE
8
BLACK
6
CONTINUOUS
10
92.9221549999999894
20
-146.5711509999999862
11
92.9094849999999894
21
-146.5654940000000011
0
LINE
8
BLACK
6
CONTINUOUS
10
92.9094849999999894
20
-146.5654940000000011
11
92.9091099999999983
21
-146.5653719999999964
0
LINE
8
BLACK
6
CONTINUOUS
10
92.9091099999999983
20
-146.5653719999999964
11
92.908931999999993
21
-146.5652469999999994
0
LINE
8
BLACK
6
CONTINUOUS
10
92.908931999999993
20
-146.5652469999999994
11
92.9087289999999939
21
-146.5651569999999992
0
LINE
8
BLACK
6
CONTINUOUS
10
92.9087289999999939
20
-146.5651569999999992
11
92.9084209999999899
21
-146.5648899999999912
0
LINE
8
BLACK
6
CONTINUOUS
10
92.9084209999999899
20
-146.5648899999999912
11
92.8970619999999911
21
-146.5569439999999872
0
LINE
8
BLACK
6
CONTINUOUS
10
92.8970619999999911
20
-146.5569439999999872
11
92.5470629999999943
21
-146.2569440000000043
0
LINE
8
BLACK
6
CONTINUOUS
10
92.5470629999999943
20
-146.2569440000000043
11
92.5409259999999989
21
-146.2505390000000034
0
LINE
8
BLACK
6
CONTINUOUS
10
92.5409259999999989
20
-146.2505390000000034
11
92.5394280000000009
21
-146.2493869999999845
0
LINE
8
BLACK
6
CONTINUOUS
10
92.5394280000000009
20
-146.2493869999999845
11
92.5382699999999971
21
-146.2477669999999819
0
LINE
8
BLACK
6
CONTINUOUS
10
92.5382699999999971
20
-146.2477669999999819
11
92.5368909999999971
21
-146.2463280000000054
0
LINE
8
BLACK
6
CONTINUOUS
10
92.5368909999999971
20
-146.2463280000000054
11
92.5360340000000008
21
-146.2446390000000065
0
LINE
8
BLACK
6
CONTINUOUS
10
92.5360340000000008
20
-146.2446390000000065
11
92.5308780000000013
21
-146.2374259999999992
0
LINE
8
BLACK
6
CONTINUOUS
10
92.5308780000000013
20
-146.2374259999999992
11
82.2808780000000013
21
-128.4374259999999879
0
LINE
8
BLACK
6
CONTINUOUS
10
82.2808780000000013
20
-128.4374259999999879
11
82.2801369999999963
21
-128.4357860000000073
0
LINE
8
BLACK
6
CONTINUOUS
10
82.2801369999999963
20
-128.4357860000000073
11
82.2796199999999942
21
-128.435151999999988
0
LINE
8
BLACK
6
CONTINUOUS
10
82.2796199999999942
20
-128.435151999999988
11
82.2773150000000015
21
-128.4295400000000029
0
LINE
8
BLACK
6
CONTINUOUS
10
82.2773150000000015
20
-128.4295400000000029
11
82.2748249999999928
21
-128.4240269999999953
0
LINE
8
BLACK
6
CONTINUOUS
10
82.2748249999999928
20
-128.4240269999999953
11
82.2747189999999904
21
-128.423216999999994
0
LINE
8
BLACK
6
CONTINUOUS
10
82.2747189999999904
20
-128.423216999999994
11
82.2740349999999978
21
-128.4215509999999938
0
LINE
8
BLACK
6
CONTINUOUS
10
82.2740349999999978
20
-128.4215509999999938
11
82.1240349999999921
21
-127.9215509999999938
0
LINE
8
BLACK
6
CONTINUOUS
10
82.1240349999999921
20
-127.9215509999999938
11
82.1239180000000033
21
-127.9209539999999947
0
LINE
8
BLACK
6
CONTINUOUS
10
82.1239180000000033
20
-127.9209539999999947
11
82.1237819999999914
21
-127.9206899999999933
0
LINE
8
BLACK
6
CONTINUOUS
10
82.1237819999999914
20
-127.9206899999999933
11
82.1225319999999925
21
-127.9138739999999927
0
LINE
8
BLACK
6
CONTINUOUS
10
82.1225319999999925
20
-127.9138739999999927
11
82.1212110000000024
21
-127.9071220000000011
0
LINE
8
BLACK
6
CONTINUOUS
10
82.1212110000000024
20
-127.9071220000000011
11
82.1212400000000002
21
-127.9068279999999902
0
LINE
8
BLACK
6
CONTINUOUS
10
82.1212400000000002
20
-127.9068279999999902
11
82.1211309999999912
21
-127.9062289999999962
0
LINE
8
BLACK
6
CONTINUOUS
10
82.1211309999999912
20
-127.9062289999999962
11
82.0711309999999941
21
-127.3062279999999902
0
LINE
8
BLACK
6
CONTINUOUS
10
82.0711309999999941
20
-127.3062279999999902
11
82.0711769999999916
21
-127.3031059999999997
0
LINE
8
BLACK
6
CONTINUOUS
10
82.0711769999999916
20
-127.3031059999999997
11
82.0708719999999943
21
-127.2999999999999972
0
LINE
8
BLACK
6
CONTINUOUS
10
82.0708719999999943
20
-127.2999999999999972
11
82.0708719999999943
21
-126.8999999999999915
0
LINE
8
BLACK
6
CONTINUOUS
10
82.0708719999999943
20
-126.8999999999999915
11
82.0708769999999959
21
-126.8999469999999974
0
LINE
8
BLACK
6
CONTINUOUS
10
82.0708769999999959
20
-126.8999469999999974
11
82.0708719999999943
21
-126.8999219999999895
0
LINE
8
BLACK
6
CONTINUOUS
10
82.0708719999999943
20
-126.8999219999999895
11
82.0716120000000018
21
-126.892477999999997
0
LINE
8
BLACK
6
CONTINUOUS
10
82.0716120000000018
20
-126.892477999999997
11
82.0723129999999941
21
-126.8853679999999997
0
LINE
8
BLACK
6
CONTINUOUS
10
82.0723129999999941
20
-126.8853679999999997
11
82.0723219999999998
21
-126.8853439999999893
0
LINE
8
BLACK
6
CONTINUOUS
10
82.0723219999999998
20
-126.8853439999999893
11
82.0723279999999988
21
-126.8852909999999952
0
LINE
8
BLACK
6
CONTINUOUS
10
82.0723279999999988
20
-126.8852909999999952
11
82.1723279999999932
21
-126.3852909999999952
0
LINE
8
BLACK
6
CONTINUOUS
10
82.1723279999999932
20
-126.3852909999999952
11
82.1739960000000025
21
-126.3798129999999986
0
LINE
8
BLACK
6
CONTINUOUS
10
82.1739960000000025
20
-126.3798129999999986
11
82.1741869999999892
21
-126.377949000000001
0
LINE
8
BLACK
6
CONTINUOUS
10
82.1741869999999892
20
-126.377949000000001
11
82.1755670000000009
21
-126.3746510000000001
0
LINE
8
BLACK
6
CONTINUOUS
10
82.1755670000000009
20
-126.3746510000000001
11
82.1766109999999941
21
-126.371225999999993
0
LINE
8
BLACK
6
CONTINUOUS
10
82.1766109999999941
20
-126.371225999999993
11
82.1776550000000015
21
-126.3696659999999952
0
LINE
8
BLACK
6
CONTINUOUS
10
82.1776550000000015
20
-126.3696659999999952
11
82.1798659999999899
21
-126.3643879999999911
0
LINE
8
BLACK
6
CONTINUOUS
10
82.1798659999999899
20
-126.3643879999999911
11
87.9767789999999934
21
-115.6201069999999902
0
LINE
8
BLACK
6
CONTINUOUS
10
87.9767789999999934
20
-115.6201069999999902
11
88.1722630000000009
21
-115.033653000000001
0
LINE
8
BLACK
6
CONTINUOUS
10
88.1722630000000009
20
-115.033653000000001
11
88.245285999999993
21
-114.4029549999999915
0
LINE
8
BLACK
6
CONTINUOUS
10
88.245285999999993
20
-114.4029549999999915
11
88.2449999999999903
21
-114.4000499999999931
0
LINE
8
BLACK
6
CONTINUOUS
10
88.2449999999999903
20
-114.4000499999999931
11
88.2449999999999903
21
-97.3499999999999943
0
LINE
8
BLACK
6
CONTINUOUS
10
88.2449999999999903
20
-97.3499999999999943
11
88.2450389999999913
21
-97.3496030000000019
0
LINE
8
BLACK
6
CONTINUOUS
10
88.2450389999999913
20
-97.3496030000000019
11
88.2450039999999944
21
-97.3492040000000003
0
LINE
8
BLACK
6
CONTINUOUS
10
88.2450039999999944
20
-97.3492040000000003
11
88.2454669999999908
21
-97.3055579999999907
0
LINE
8
BLACK
6
CONTINUOUS
10
88.2454669999999908
20
-97.3055579999999907
11
88.2457789999999989
21
-97.3026949999999999
0
LINE
8
BLACK
6
CONTINUOUS
10
88.2457789999999989
20
-97.3026949999999999
11
88.2457479999999919
21
-97.2998159999999928
0
LINE
8
BLACK
6
CONTINUOUS
10
88.2457479999999919
20
-97.2998159999999928
11
88.2533569999999941
21
-97.2128529999999955
0
LINE
8
BLACK
6
CONTINUOUS
10
88.2533569999999941
20
-97.2128529999999955
11
88.2539620000000014
21
-97.2096260000000001
0
LINE
8
BLACK
6
CONTINUOUS
10
88.2539620000000014
20
-97.2096260000000001
11
88.2542119999999954
21
-97.2063639999999936
0
LINE
8
BLACK
6
CONTINUOUS
10
88.2542119999999954
20
-97.2063639999999936
11
88.2693730000000016
21
-97.1203959999999995
0
LINE
8
BLACK
6
CONTINUOUS
10
88.2693730000000016
20
-97.1203959999999995
11
88.2702539999999942
21
-97.1172419999999903
0
LINE
8
BLACK
6
CONTINUOUS
10
88.2702539999999942
20
-97.1172419999999903
11
88.2707889999999935
21
-97.1140079999999983
0
LINE
8
BLACK
6
CONTINUOUS
10
88.2707889999999935
20
-97.1140079999999983
11
88.2933859999999981
21
-97.0296889999999905
0
LINE
8
BLACK
6
CONTINUOUS
10
88.2933859999999981
20
-97.0296889999999905
11
88.2945390000000003
21
-97.0266239999999982
0
LINE
8
BLACK
6
CONTINUOUS
10
88.2945390000000003
20
-97.0266239999999982
11
88.295353999999989
21
-97.0234480000000019
0
LINE
8
BLACK
6
CONTINUOUS
10
88.295353999999989
20
-97.0234480000000019
11
88.325215
21
-96.9414189999999962
0
LINE
8
BLACK
6
CONTINUOUS
10
88.325215
20
-96.9414189999999962
11
88.3266339999999985
21
-96.9384599999999921
0
LINE
8
BLACK
6
CONTINUOUS
10
88.3266339999999985
20
-96.9384599999999921
11
88.3277199999999993
21
-96.9353739999999959
0
LINE
8
BLACK
6
CONTINUOUS
10
88.3277199999999993
20
-96.9353739999999959
11
88.3646169999999955
21
-96.8562599999999918
0
LINE
8
BLACK
6
CONTINUOUS
10
88.3646169999999955
20
-96.8562599999999918
11
88.3662829999999957
21
-96.8534439999999961
0
LINE
8
BLACK
6
CONTINUOUS
10
88.3662829999999957
20
-96.8534439999999961
11
88.3676389999999969
21
-96.8504539999999992
0
LINE
8
BLACK
6
CONTINUOUS
10
88.3676389999999969
20
-96.8504539999999992
11
88.4112930000000006
21
-96.7748579999999947
0
LINE
8
BLACK
6
CONTINUOUS
10
88.4112930000000006
20
-96.7748579999999947
11
88.4132049999999907
21
-96.7721889999999973
0
LINE
8
BLACK
6
CONTINUOUS
10
88.4132049999999907
20
-96.7721889999999973
11
88.4148100000000028
21
-96.7693399999999997
0
LINE
8
BLACK
6
CONTINUOUS
10
88.4148100000000028
20
-96.7693399999999997
11
88.4648869999999903
21
-96.6978369999999927
0
LINE
8
BLACK
6
CONTINUOUS
10
88.4648869999999903
20
-96.6978369999999927
11
88.4670199999999909
21
-96.6953499999999906
0
LINE
8
BLACK
6
CONTINUOUS
10
88.4670199999999909
20
-96.6953499999999906
11
88.4688709999999929
21
-96.6926459999999963
0
LINE
8
BLACK
6
CONTINUOUS
10
88.4688709999999929
20
-96.6926459999999963
11
88.5249900000000025
21
-96.6257809999999893
0
LINE
8
BLACK
6
CONTINUOUS
10
88.5249900000000025
20
-96.6257809999999893
11
88.5273299999999921
21
-96.6234910000000013
0
LINE
8
BLACK
6
CONTINUOUS
10
88.5273299999999921
20
-96.6234910000000013
11
88.5294109999999961
21
-96.62095699999999
0
LINE
8
BLACK
6
CONTINUOUS
10
88.5294109999999961
20
-96.62095699999999
11
88.5911449999999974
21
-96.559236999999996
0
LINE
8
BLACK
6
CONTINUOUS
10
88.5911449999999974
20
-96.559236999999996
11
88.5936789999999945
21
-96.5571569999999895
0
LINE
8
BLACK
6
CONTINUOUS
10
88.5936789999999945
20
-96.5571569999999895
11
88.5959709999999916
21
-96.5548160000000024
0
LINE
8
BLACK
6
CONTINUOUS
10
88.5959709999999916
20
-96.5548160000000024
11
88.6628499999999917
21
-96.4987129999999951
0
LINE
8
BLACK
6
CONTINUOUS
10
88.6628499999999917
20
-96.4987129999999951
11
88.6655540000000002
21
-96.4968629999999905
0
LINE
8
BLACK
6
CONTINUOUS
10
88.6655540000000002
20
-96.4968629999999905
11
88.6680419999999998
21
-96.4947299999999899
0
LINE
8
BLACK
6
CONTINUOUS
10
88.6680419999999998
20
-96.4947299999999899
11
88.7395569999999907
21
-96.4446700000000021
0
LINE
8
BLACK
6
CONTINUOUS
10
88.7395569999999907
20
-96.4446700000000021
11
88.7424109999999899
21
-96.4430629999999951
0
LINE
8
BLACK
6
CONTINUOUS
10
88.7424109999999899
20
-96.4430629999999951
11
88.7450759999999974
21
-96.4411549999999949
0
LINE
8
BLACK
6
CONTINUOUS
10
88.7450759999999974
20
-96.4411549999999949
11
88.8206819999999908
21
-96.3975200000000001
0
LINE
8
BLACK
6
CONTINUOUS
10
88.8206819999999908
20
-96.3975200000000001
11
88.8236649999999912
21
-96.3961679999999888
0
LINE
8
BLACK
6
CONTINUOUS
10
88.8236649999999912
20
-96.3961679999999888
11
88.8264870000000002
21
-96.3944989999999962
0
LINE
8
BLACK
6
CONTINUOUS
10
88.8264870000000002
20
-96.3944989999999962
11
88.9056109999999933
21
-96.3576199999999972
0
LINE
8
BLACK
6
CONTINUOUS
10
88.9056109999999933
20
-96.3576199999999972
11
88.9087009999999935
21
-96.3565329999999989
0
LINE
8
BLACK
6
CONTINUOUS
10
88.9087009999999935
20
-96.3565329999999989
11
88.9116569999999911
21
-96.3551169999999928
0
LINE
8
BLACK
6
CONTINUOUS
10
88.9116569999999911
20
-96.3551169999999928
11
88.9936929999999933
21
-96.3252760000000023
0
LINE
8
BLACK
6
CONTINUOUS
10
88.9936929999999933
20
-96.3252760000000023
11
88.9968700000000013
21
-96.3244619999999969
0
LINE
8
BLACK
6
CONTINUOUS
10
88.9968700000000013
20
-96.3244619999999969
11
88.9999339999999961
21
-96.3233099999999922
0
LINE
8
BLACK
6
CONTINUOUS
10
88.9999339999999961
20
-96.3233099999999922
11
89.0842579999999913
21
-96.3007329999999939
0
LINE
8
BLACK
6
CONTINUOUS
10
89.0842579999999913
20
-96.3007329999999939
11
89.087491
21
-96.3001989999999921
0
LINE
8
BLACK
6
CONTINUOUS
10
89.087491
20
-96.3001989999999921
11
89.0906469999999899
21
-96.2993179999999995
0
LINE
8
BLACK
6
CONTINUOUS
10
89.0906469999999899
20
-96.2993179999999995
11
89.1766190000000023
21
-96.2841779999999972
0
LINE
8
BLACK
6
CONTINUOUS
10
89.1766190000000023
20
-96.2841779999999972
11
89.1798849999999987
21
-96.2839279999999889
0
LINE
8
BLACK
6
CONTINUOUS
10
89.1798849999999987
20
-96.2839279999999889
11
89.1831069999999926
21
-96.2833249999999907
0
LINE
8
BLACK
6
CONTINUOUS
10
89.1831069999999926
20
-96.2833249999999907
11
89.2700710000000015
21
-96.2757359999999949
0
LINE
8
BLACK
6
CONTINUOUS
10
89.2700710000000015
20
-96.2757359999999949
11
89.2729499999999945
21
-96.2757670000000019
0
LINE
8
BLACK
6
CONTINUOUS
10
89.2729499999999945
20
-96.2757670000000019
11
89.2758139999999969
21
-96.2754559999999913
0
LINE
8
BLACK
6
CONTINUOUS
10
89.2758139999999969
20
-96.2754559999999913
11
89.3194620000000015
21
-96.2750039999999956
0
LINE
8
BLACK
6
CONTINUOUS
10
89.3194620000000015
20
-96.2750039999999956
11
89.3198589999999939
21
-96.2750389999999925
0
LINE
8
BLACK
6
CONTINUOUS
10
89.3198589999999939
20
-96.2750389999999925
11
89.320256999999998
21
-96.2749999999999915
0
LINE
8
BLACK
6
CONTINUOUS
10
89.320256999999998
20
-96.2749999999999915
11
110.0591599999999914
21
-96.2799479999999903
0
LINE
8
BLACK
6
CONTINUOUS
10
110.0591599999999914
20
-96.2799479999999903
11
110.1013519999999914
21
-96.2790469999999914
0
LINE
8
BLACK
6
CONTINUOUS
10
110.1013519999999914
20
-96.2790469999999914
11
110.1864699999999999
21
-96.2703349999999887
0
LINE
8
BLACK
6
CONTINUOUS
10
110.1864699999999999
20
-96.2703349999999887
11
110.2700269999999989
21
-96.2539159999999896
0
LINE
8
BLACK
6
CONTINUOUS
10
110.2700269999999989
20
-96.2539159999999896
11
110.3516929999999974
21
-96.2298959999999965
0
LINE
8
BLACK
6
CONTINUOUS
10
110.3516929999999974
20
-96.2298959999999965
11
110.4308369999999968
21
-96.1984599999999972
0
LINE
8
BLACK
6
CONTINUOUS
10
110.4308369999999968
20
-96.1984599999999972
11
110.5067370000000011
21
-96.1598929999999967
0
LINE
8
BLACK
6
CONTINUOUS
10
110.5067370000000011
20
-96.1598929999999967
11
110.5787830000000014
21
-96.1145080000000007
0
LINE
8
BLACK
6
CONTINUOUS
10
110.5787830000000014
20
-96.1145080000000007
11
110.6463499999999982
21
-96.0626929999999959
0
LINE
8
BLACK
6
CONTINUOUS
10
110.6463499999999982
20
-96.0626929999999959
11
110.7088619999999963
21
-96.0048949999999905
0
LINE
8
BLACK
6
CONTINUOUS
10
110.7088619999999963
20
-96.0048949999999905
11
110.7657990000000012
21
-95.9415949999999924
0
LINE
8
BLACK
6
CONTINUOUS
10
110.7657990000000012
20
-95.9415949999999924
11
110.8166820000000001
21
-95.8733259999999916
0
LINE
8
BLACK
6
CONTINUOUS
10
110.8166820000000001
20
-95.8733259999999916
11
110.8610769999999945
21
-95.8006639999999976
0
LINE
8
BLACK
6
CONTINUOUS
10
110.8610769999999945
20
-95.8006639999999976
11
110.8985979999999927
21
-95.7242490000000004
0
LINE
8
BLACK
6
CONTINUOUS
10
110.8985979999999927
20
-95.7242490000000004
11
110.9289459999999963
21
-95.644683999999998
0
LINE
8
BLACK
6
CONTINUOUS
10
110.9289459999999963
20
-95.644683999999998
11
110.9518449999999916
21
-95.5626939999999934
0
LINE
8
BLACK
6
CONTINUOUS
10
110.9518449999999916
20
-95.5626939999999934
11
110.9671179999999993
21
-95.4789219999999972
0
LINE
8
BLACK
6
CONTINUOUS
10
110.9671179999999993
20
-95.4789219999999972
11
110.97466399999999
21
-95.3936849999999907
0
LINE
8
BLACK
6
CONTINUOUS
10
110.97466399999999
20
-95.3936849999999907
11
110.9749920000000003
21
-95.3509439999999984
0
LINE
8
BLACK
6
CONTINUOUS
10
110.9749920000000003
20
-95.3509439999999984
11
110.9749999999999943
21
-37.5549999999999997
0
LINE
8
BLACK
6
CONTINUOUS
10
110.9749999999999943
20
-37.5549999999999997
11
110.9754649999999998
21
-37.5502770000000012
0
LINE
8
BLACK
6
CONTINUOUS
10
110.9754649999999998
20
-37.5502770000000012
11
110.9752759999999938
21
-37.5485749999999996
0
LINE
8
BLACK
6
CONTINUOUS
10
110.9752759999999938
20
-37.5485749999999996
11
110.9760339999999985
21
-37.5444990000000018
0
LINE
8
BLACK
6
CONTINUOUS
10
110.9760339999999985
20
-37.5444990000000018
11
110.9764409999999941
21
-37.5403680000000008
0
LINE
8
BLACK
6
CONTINUOUS
10
110.9764409999999941
20
-37.5403680000000008
11
110.9770970000000005
21
-37.5387819999999977
0
LINE
8
BLACK
6
CONTINUOUS
10
110.9770970000000005
20
-37.5387819999999977
11
110.9779649999999975
21
-37.5341200000000015
0
LINE
8
BLACK
6
CONTINUOUS
10
110.9779649999999975
20
-37.5341200000000015
11
111.0779649999999918
21
-37.1891199999999955
0
LINE
8
BLACK
6
CONTINUOUS
10
111.0779649999999918
20
-37.1891199999999955
11
111.0803030000000007
21
-37.1832709999999977
0
LINE
8
BLACK
6
CONTINUOUS
10
111.0803030000000007
20
-37.1832709999999977
11
111.0806789999999893
21
-37.1813709999999986
0
LINE
8
BLACK
6
CONTINUOUS
10
111.0806789999999893
20
-37.1813709999999986
11
111.0822129999999959
21
-37.178492999999996
0
LINE
8
BLACK
6
CONTINUOUS
10
111.0822129999999959
20
-37.178492999999996
11
111.0834229999999963
21
-37.1754669999999976
0
LINE
8
BLACK
6
CONTINUOUS
10
111.0834229999999963
20
-37.1754669999999976
11
111.0846319999999992
21
-37.1739549999999994
0
LINE
8
BLACK
6
CONTINUOUS
10
111.0846319999999992
20
-37.1739549999999994
11
111.0875959999999907
21
-37.1683969999999988
0
LINE
8
BLACK
6
CONTINUOUS
10
111.0875959999999907
20
-37.1683969999999988
11
111.2875959999999935
21
-36.8683979999999991
0
LINE
8
BLACK
6
CONTINUOUS
10
111.2875959999999935
20
-36.8683979999999991
11
111.2876289999999955
21
-36.8683559999999986
0
LINE
8
BLACK
6
CONTINUOUS
10
111.2876289999999955
20
-36.8683559999999986
11
111.2876399999999961
21
-36.8683319999999952
0
LINE
8
BLACK
6
CONTINUOUS
10
111.2876399999999961
20
-36.8683319999999952
11
111.2923239999999936
21
-36.8626239999999967
0
LINE
8
BLACK
6
CONTINUOUS
10
111.2923239999999936
20
-36.8626239999999967
11
111.2969119999999918
21
-36.8570220000000006
0
LINE
8
BLACK
6
CONTINUOUS
10
111.2969119999999918
20
-36.8570220000000006
11
111.2969329999999957
21
-36.8570069999999959
0
LINE
8
BLACK
6
CONTINUOUS
10
111.2969329999999957
20
-36.8570069999999959
11
111.2969669999999951
21
-36.8569669999999974
0
LINE
8
BLACK
6
CONTINUOUS
10
111.2969669999999951
20
-36.8569669999999974
11
111.4969669999999979
21
-36.6569670000000016
0
LINE
8
BLACK
6
CONTINUOUS
10
111.4969669999999979
20
-36.6569670000000016
11
111.5027159999999924
21
-36.6522480000000002
0
LINE
8
BLACK
6
CONTINUOUS
10
111.5027159999999924
20
-36.6522480000000002
11
111.5040159999999929
21
-36.6507499999999951
0
LINE
8
BLACK
6
CONTINUOUS
10
111.5040159999999929
20
-36.6507499999999951
11
111.5062739999999906
21
-36.649327999999997
0
LINE
8
BLACK
6
CONTINUOUS
10
111.5062739999999906
20
-36.649327999999997
11
111.5083329999999933
21
-36.6476389999999981
0
LINE
8
BLACK
6
CONTINUOUS
10
111.5083329999999933
20
-36.6476389999999981
11
111.510161999999994
21
-36.6468810000000005
0
LINE
8
BLACK
6
CONTINUOUS
10
111.510161999999994
20
-36.6468810000000005
11
111.5164589999999976
21
-36.6429180000000017
0
LINE
8
BLACK
6
CONTINUOUS
10
111.5164589999999976
20
-36.6429180000000017
11
111.7164590000000004
21
-36.5429180000000002
0
LINE
8
BLACK
6
CONTINUOUS
10
111.7164590000000004
20
-36.5429180000000002
11
111.7214279999999889
21
-36.5410159999999991
0
LINE
8
BLACK
6
CONTINUOUS
10
111.7214279999999889
20
-36.5410159999999991
11
111.7262829999999951
21
-36.538848999999999
0
LINE
8
BLACK
6
CONTINUOUS
10
111.7262829999999951
20
-36.538848999999999
11
112.0262829999999923
21
-36.4388489999999976
0
LINE
8
BLACK
6
CONTINUOUS
10
112.0262829999999923
20
-36.4388489999999976
11
112.0290899999999965
21
-36.438209999999998
0
LINE
8
BLACK
6
CONTINUOUS
10
112.0290899999999965
20
-36.438209999999998
11
112.031809999999993
21
-36.4372389999999982
0
LINE
8
BLACK
6
CONTINUOUS
10
112.031809999999993
20
-36.4372389999999982
11
112.4082269999999966
21
-36.3431339999999992
0
LINE
8
BLACK
6
CONTINUOUS
10
112.4082269999999966
20
-36.3431339999999992
11
112.4083320000000015
21
-36.3430299999999988
0
LINE
8
BLACK
6
CONTINUOUS
10
112.4083320000000015
20
-36.3430299999999988
11
112.4205219999999912
21
-36.3379800000000017
0
LINE
8
BLACK
6
CONTINUOUS
10
112.4205219999999912
20
-36.3379800000000017
11
112.4325079999999986
21
-36.3324579999999955
0
LINE
8
BLACK
6
CONTINUOUS
10
112.4325079999999986
20
-36.3324579999999955
11
112.4345269999999886
21
-36.3321789999999964
0
LINE
8
BLACK
6
CONTINUOUS
10
112.4345269999999886
20
-36.3321789999999964
11
112.4353679999999969
21
-36.3318310000000011
0
LINE
8
BLACK
6
CONTINUOUS
10
112.4353679999999969
20
-36.3318310000000011
11
112.4370490000000018
21
-36.3318310000000011
0
LINE
8
BLACK
6
CONTINUOUS
10
112.4370490000000018
20
-36.3318310000000011
11
112.447072999999989
21
-36.3304469999999995
0
LINE
8
BLACK
6
CONTINUOUS
10
112.447072999999989
20
-36.3304469999999995
11
148.9900079999999889
21
-34.9029669999999967
0
LINE
8
BLACK
6
CONTINUOUS
10
148.9900079999999889
20
-34.9029669999999967
11
148.9914749999999799
21
-34.9030529999999999
0
LINE
8
BLACK
6
CONTINUOUS
10
148.9914749999999799
20
-34.9030529999999999
11
148.9929359999999861
21
-34.9029099999999985
0
LINE
8
BLACK
6
CONTINUOUS
10
148.9929359999999861
20
-34.9029099999999985
11
171.1699999999999875
21
-34.9029099999999985
0
LINE
8
BLACK
6
CONTINUOUS
10
171.1699999999999875
20
-34.9029099999999985
11
171.1758729999999957
21
-34.9034879999999958
0
LINE
8
BLACK
6
CONTINUOUS
10
148.994404000000003
20
-35.0529099999999971
11
112.4776929999999879
21
-36.4793650000000014
0
LINE
8
BLACK
6
CONTINUOUS
10
112.4776929999999879
20
-36.4793650000000014
11
112.4681909999999903
21
-36.4827609999999964
0
LINE
8
BLACK
6
CONTINUOUS
10
112.4681909999999903
20
-36.4827609999999964
11
112.0709769999999992
21
-36.5820639999999955
0
LINE
8
BLACK
6
CONTINUOUS
10
112.0709769999999992
20
-36.5820639999999955
11
111.778774999999996
21
-36.6794650000000004
0
LINE
8
BLACK
6
CONTINUOUS
10
111.778774999999996
20
-36.6794650000000004
11
111.594426999999996
21
-36.7716390000000004
0
LINE
8
BLACK
6
CONTINUOUS
10
111.594426999999996
20
-36.7716390000000004
11
111.4082859999999897
21
-36.9577799999999996
0
LINE
8
BLACK
6
CONTINUOUS
10
111.4082859999999897
20
-36.9577799999999996
11
111.2188149999999922
21
-37.2419849999999997
0
LINE
8
BLACK
6
CONTINUOUS
10
111.2188149999999922
20
-37.2419849999999997
11
111.1249989999999883
21
-37.565649999999998
0
LINE
8
BLACK
6
CONTINUOUS
10
111.1249989999999883
20
-37.565649999999998
11
111.1249919999999918
21
-95.3512589999999989
0
LINE
8
BLACK
6
CONTINUOUS
10
111.1249919999999918
20
-95.3512589999999989
11
111.1249629999999939
21
-95.3515450000000016
0
LINE
8
BLACK
6
CONTINUOUS
10
111.1249629999999939
20
-95.3515450000000016
11
111.1249899999999968
21
-95.3518349999999941
0
LINE
8
BLACK
6
CONTINUOUS
10
111.1249899999999968
20
-95.3518349999999941
11
111.1246369999999928
21
-95.3978609999999918
0
LINE
8
BLACK
6
CONTINUOUS
10
111.1246369999999928
20
-95.3978609999999918
11
111.1243169999999907
21
-95.4008719999999926
0
LINE
8
BLACK
6
CONTINUOUS
10
111.1243169999999907
20
-95.4008719999999926
11
111.1243470000000002
21
-95.4038989999999956
0
LINE
8
BLACK
6
CONTINUOUS
10
111.1243470000000002
20
-95.4038989999999956
11
111.1162300000000016
21
-95.4955909999999903
0
LINE
8
BLACK
6
CONTINUOUS
10
111.1162300000000016
20
-95.4955909999999903
11
111.1155889999999999
21
-95.4989829999999955
0
LINE
8
BLACK
6
CONTINUOUS
10
111.1155889999999999
20
-95.4989829999999955
11
111.1153059999999897
21
-95.5024299999999897
0
LINE
8
BLACK
6
CONTINUOUS
10
111.1153059999999897
20
-95.5024299999999897
11
111.098795999999993
21
-95.5929879999999912
0
LINE
8
BLACK
6
CONTINUOUS
10
111.098795999999993
20
-95.5929879999999912
11
111.0978449999999924
21
-95.5963119999999975
0
LINE
8
BLACK
6
CONTINUOUS
10
111.0978449999999924
20
-95.5963119999999975
11
111.0972469999999959
21
-95.5997119999999967
0
LINE
8
BLACK
6
CONTINUOUS
10
111.0972469999999959
20
-95.5997119999999967
11
111.0724850000000004
21
-95.688367999999997
0
LINE
8
BLACK
6
CONTINUOUS
10
111.0724850000000004
20
-95.688367999999997
11
111.071235999999999
21
-95.6915809999999993
0
LINE
8
BLACK
6
CONTINUOUS
10
111.071235999999999
20
-95.6915809999999993
11
111.0703259999999943
21
-95.6949209999999937
0
LINE
8
BLACK
6
CONTINUOUS
10
111.0703259999999943
20
-95.6949209999999937
11
111.0375209999999981
21
-95.7809279999999887
0
LINE
8
BLACK
6
CONTINUOUS
10
111.0375209999999981
20
-95.7809279999999887
11
111.0359769999999884
21
-95.7840229999999906
0
LINE
8
BLACK
6
CONTINUOUS
10
111.0359769999999884
20
-95.7840229999999906
11
111.034766999999988
21
-95.7872559999999993
0
LINE
8
BLACK
6
CONTINUOUS
10
111.034766999999988
20
-95.7872559999999993
11
110.9941959999999881
21
-95.8698830000000015
0
LINE
8
BLACK
6
CONTINUOUS
10
110.9941959999999881
20
-95.8698830000000015
11
110.9923789999999997
21
-95.8728149999999886
0
LINE
8
BLACK
6
CONTINUOUS
10
110.9923789999999997
20
-95.8728149999999886
11
110.9908739999999909
21
-95.8759299999999968
0
LINE
8
BLACK
6
CONTINUOUS
10
110.9908739999999909
20
-95.8759299999999968
11
110.9428809999999999
21
-95.9544799999999896
0
LINE
8
BLACK
6
CONTINUOUS
10
110.9428809999999999
20
-95.9544799999999896
11
110.9407969999999892
21
-95.9572399999999988
0
LINE
8
BLACK
6
CONTINUOUS
10
110.9407969999999892
20
-95.9572399999999988
11
110.9390159999999952
21
-95.9601959999999963
0
LINE
8
BLACK
6
CONTINUOUS
10
110.9390159999999952
20
-95.9601959999999963
11
110.8840069999999969
21
-96.0340029999999985
0
LINE
8
BLACK
6
CONTINUOUS
10
110.8840069999999969
20
-96.0340029999999985
11
110.8816789999999912
21
-96.0365579999999994
0
LINE
8
BLACK
6
CONTINUOUS
10
110.8816789999999912
20
-96.0365579999999994
11
110.8796329999999983
21
-96.0393399999999957
0
LINE
8
BLACK
6
CONTINUOUS
10
110.8796329999999983
20
-96.0393399999999957
11
110.8180739999999957
21
-96.1077779999999962
0
LINE
8
BLACK
6
CONTINUOUS
10
110.8180739999999957
20
-96.1077779999999962
11
110.8155199999999923
21
-96.1101089999999942
0
LINE
8
BLACK
6
CONTINUOUS
10
110.8155199999999923
20
-96.1101089999999942
11
110.8132279999999952
21
-96.1126900000000006
0
LINE
8
BLACK
6
CONTINUOUS
10
110.8132279999999952
20
-96.1126900000000006
11
110.7456389999999971
21
-96.1751809999999949
0
LINE
8
BLACK
6
CONTINUOUS
10
110.7456389999999971
20
-96.1751809999999949
11
110.7428850000000011
21
-96.1772649999999913
0
LINE
8
BLACK
6
CONTINUOUS
10
110.7428850000000011
20
-96.1772649999999913
11
110.7403629999999879
21
-96.1796269999999964
0
LINE
8
BLACK
6
CONTINUOUS
10
110.7403629999999879
20
-96.1796269999999964
11
110.6673179999999945
21
-96.2356419999999986
0
LINE
8
BLACK
6
CONTINUOUS
10
110.6673179999999945
20
-96.2356419999999986
11
110.6643839999999983
21
-96.2374650000000003
0
LINE
8
BLACK
6
CONTINUOUS
10
110.6643839999999983
20
-96.2374650000000003
11
110.6616549999999961
21
-96.2395849999999911
0
LINE
8
BLACK
6
CONTINUOUS
10
110.6616549999999961
20
-96.2395849999999911
11
110.5837700000000012
21
-96.2886489999999924
0
LINE
8
BLACK
6
CONTINUOUS
10
110.5837700000000012
20
-96.2886489999999924
11
110.5806789999999893
21
-96.2901949999999971
0
LINE
8
BLACK
6
CONTINUOUS
10
110.5806789999999893
20
-96.2901949999999971
11
110.5777689999999893
21
-96.2920539999999932
0
LINE
8
BLACK
6
CONTINUOUS
10
110.5777689999999893
20
-96.2920539999999932
11
110.495705000000001
21
-96.3337530000000015
0
LINE
8
BLACK
6
CONTINUOUS
10
110.495705000000001
20
-96.3337530000000015
11
110.4924850000000021
21
-96.3350089999999994
0
LINE
8
BLACK
6
CONTINUOUS
10
110.4924850000000021
20
-96.3350089999999994
11
110.4894169999999889
21
-96.336591999999996
0
LINE
8
BLACK
6
CONTINUOUS
10
110.4894169999999889
20
-96.336591999999996
11
110.4038679999999886
21
-96.3705739999999906
0
LINE
8
BLACK
6
CONTINUOUS
10
110.4038679999999886
20
-96.3705739999999906
11
110.4005409999999898
21
-96.3715299999999928
0
LINE
8
BLACK
6
CONTINUOUS
10
110.4005409999999898
20
-96.3715299999999928
11
110.3973439999999897
21
-96.3728229999999968
0
LINE
8
BLACK
6
CONTINUOUS
10
110.3973439999999897
20
-96.3728229999999968
11
110.3090339999999969
21
-96.3987970000000018
0
LINE
8
BLACK
6
CONTINUOUS
10
110.3090339999999969
20
-96.3987970000000018
11
110.3056419999999918
21
-96.3994419999999934
0
LINE
8
BLACK
6
CONTINUOUS
10
110.3056419999999918
20
-96.3994419999999934
11
110.3023309999999952
21
-96.4004379999999941
0
LINE
8
BLACK
6
CONTINUOUS
10
110.3023309999999952
20
-96.4004379999999941
11
110.2120089999999948
21
-96.4181859999999915
0
LINE
8
BLACK
6
CONTINUOUS
10
110.2120089999999948
20
-96.4181859999999915
11
110.208564999999993
21
-96.4185159999999968
0
LINE
8
BLACK
6
CONTINUOUS
10
110.208564999999993
20
-96.4185159999999968
11
110.2051839999999885
21
-96.419202999999996
0
LINE
8
BLACK
6
CONTINUOUS
10
110.2051839999999885
20
-96.419202999999996
11
110.1136130000000009
21
-96.4285759999999925
0
LINE
8
BLACK
6
CONTINUOUS
10
110.1136130000000009
20
-96.4285759999999925
11
110.1105850000000004
21
-96.4285869999999932
0
LINE
8
BLACK
6
CONTINUOUS
10
110.1105850000000004
20
-96.4285869999999932
11
110.107576999999992
21
-96.4289489999999887
0
LINE
8
BLACK
6
CONTINUOUS
10
110.107576999999992
20
-96.4289489999999887
11
110.0615600000000001
21
-96.4299319999999938
0
LINE
8
BLACK
6
CONTINUOUS
10
110.0615600000000001
20
-96.4299319999999938
11
110.0607479999999896
21
-96.4298689999999965
0
LINE
8
BLACK
6
CONTINUOUS
10
110.0607479999999896
20
-96.4298689999999965
11
110.0599409999999949
21
-96.4299489999999935
0
LINE
8
BLACK
6
CONTINUOUS
10
110.0599409999999949
20
-96.4299489999999935
11
89.3206189999999935
21
-96.4249999999999972
0
LINE
8
BLACK
6
CONTINUOUS
10
89.3206189999999935
20
-96.4249999999999972
11
89.2802439999999962
21
-96.4254179999999934
0
LINE
8
BLACK
6
CONTINUOUS
10
89.2802439999999962
20
-96.4254179999999934
11
89.1994059999999962
21
-96.43247199999999
0
LINE
8
BLACK
6
CONTINUOUS
10
89.1994059999999962
20
-96.43247199999999
11
89.1198879999999889
21
-96.4464749999999924
0
LINE
8
BLACK
6
CONTINUOUS
10
89.1198879999999889
20
-96.4464749999999924
11
89.0418959999999942
21
-96.4673569999999927
0
LINE
8
BLACK
6
CONTINUOUS
10
89.0418959999999942
20
-96.4673569999999927
11
88.966005999999993
21
-96.4949629999999985
0
LINE
8
BLACK
6
CONTINUOUS
10
88.966005999999993
20
-96.4949629999999985
11
88.8928169999999938
21
-96.5290759999999892
0
LINE
8
BLACK
6
CONTINUOUS
10
88.8928169999999938
20
-96.5290759999999892
11
88.822890000000001
21
-96.5694340000000011
0
LINE
8
BLACK
6
CONTINUOUS
10
88.822890000000001
20
-96.5694340000000011
11
88.7567399999999935
21
-96.6157389999999907
0
LINE
8
BLACK
6
CONTINUOUS
10
88.7567399999999935
20
-96.6157389999999907
11
88.6948829999999901
21
-96.6676300000000026
0
LINE
8
BLACK
6
CONTINUOUS
10
88.6948829999999901
20
-96.6676300000000026
11
88.6377829999999989
21
-96.7247160000000008
0
LINE
8
BLACK
6
CONTINUOUS
10
88.6377829999999989
20
-96.7247160000000008
11
88.5858709999999974
21
-96.7865680000000026
0
LINE
8
BLACK
6
CONTINUOUS
10
88.5858709999999974
20
-96.7865680000000026
11
88.5395570000000021
21
-96.8526979999999895
0
LINE
8
BLACK
6
CONTINUOUS
10
88.5395570000000021
20
-96.8526979999999895
11
88.4991699999999923
21
-96.9226369999999946
0
LINE
8
BLACK
6
CONTINUOUS
10
88.4991699999999923
20
-96.9226369999999946
11
88.4650489999999934
21
-96.995798999999991
0
LINE
8
BLACK
6
CONTINUOUS
10
88.4650489999999934
20
-96.995798999999991
11
88.4374260000000021
21
-97.0716779999999915
0
LINE
8
BLACK
6
CONTINUOUS
10
88.4374260000000021
20
-97.0716779999999915
11
88.4165220000000005
21
-97.1496789999999919
0
LINE
8
BLACK
6
CONTINUOUS
10
88.4165220000000005
20
-97.1496789999999919
11
88.4025019999999984
21
-97.2291819999999944
0
LINE
8
BLACK
6
CONTINUOUS
10
88.4025019999999984
20
-97.2291819999999944
11
88.3954279999999954
21
-97.3100269999999909
0
LINE
8
BLACK
6
CONTINUOUS
10
88.3954279999999954
20
-97.3100269999999909
11
88.394999999999996
21
-97.3504179999999906
0
LINE
8
BLACK
6
CONTINUOUS
10
88.394999999999996
20
-97.3504179999999906
11
88.394999999999996
21
-114.390823999999995
0
LINE
8
BLACK
6
CONTINUOUS
10
88.394999999999996
20
-114.390823999999995
11
88.3958829999999978
21
-114.3939249999999959
0
LINE
8
BLACK
6
CONTINUOUS
10
88.3958829999999978
20
-114.3939249999999959
11
88.3956309999999945
21
-114.4086259999999982
0
LINE
8
BLACK
6
CONTINUOUS
10
88.3956309999999945
20
-114.4086259999999982
11
88.320374000000001
21
-115.0586259999999896
0
LINE
8
BLACK
6
CONTINUOUS
10
88.320374000000001
20
-115.0586259999999896
11
88.320264999999992
21
-115.0591280000000012
0
LINE
8
BLACK
6
CONTINUOUS
10
88.320264999999992
20
-115.0591280000000012
11
88.3202829999999892
21
-115.0593799999999902
0
LINE
8
BLACK
6
CONTINUOUS
10
88.3202829999999892
20
-115.0593799999999902
11
88.3187389999999937
21
-115.066166999999993
0
LINE
8
BLACK
6
CONTINUOUS
10
88.3187389999999937
20
-115.066166999999993
11
88.3172599999999903
21
-115.0729949999999917
0
LINE
8
BLACK
6
CONTINUOUS
10
88.3172599999999903
20
-115.0729949999999917
11
88.3171359999999908
21
-115.073215999999988
0
LINE
8
BLACK
6
CONTINUOUS
10
88.3171359999999908
20
-115.073215999999988
11
88.3170229999999918
21
-115.0737169999999878
0
LINE
8
BLACK
6
CONTINUOUS
10
88.3170229999999918
20
-115.0737169999999878
11
88.117022999999989
21
-115.6737169999999963
0
LINE
8
BLACK
6
CONTINUOUS
10
88.117022999999989
20
-115.6737169999999963
11
88.1143859999999961
21
-115.6796219999999948
0
LINE
8
BLACK
6
CONTINUOUS
10
88.1143859999999961
20
-115.6796219999999948
11
88.1118779999999902
21
-115.6856119999999919
0
LINE
8
BLACK
6
CONTINUOUS
10
88.1118779999999902
20
-115.6856119999999919
11
82.3172129999999953
21
-126.4257229999999907
0
LINE
8
BLACK
6
CONTINUOUS
10
82.3172129999999953
20
-126.4257229999999907
11
82.220872
21
-126.9074289999999934
0
LINE
8
BLACK
6
CONTINUOUS
10
82.220872
20
-126.9074289999999934
11
82.220872
21
-127.2968799999999874
0
LINE
8
BLACK
6
CONTINUOUS
10
82.220872
20
-127.2968799999999874
11
82.269960999999995
21
-127.885957999999988
0
LINE
8
BLACK
6
CONTINUOUS
10
82.269960999999995
20
-127.885957999999988
11
82.4152089999999902
21
-128.3701159999999959
0
LINE
8
BLACK
6
CONTINUOUS
10
82.4152089999999902
20
-128.3701159999999959
11
92.6544480000000021
21
-146.151426999999984
0
LINE
8
BLACK
6
CONTINUOUS
10
92.6544480000000021
20
-146.151426999999984
11
92.9835259999999977
21
-146.433493999999996
0
LINE
8
BLACK
6
CONTINUOUS
10
92.9835259999999977
20
-146.433493999999996
11
93.4145319999999941
21
-146.5771629999999845
0
LINE
8
BLACK
6
CONTINUOUS
10
93.4145319999999941
20
-146.5771629999999845
11
93.941993999999994
21
-146.6730649999999798
0
LINE
8
BLACK
6
CONTINUOUS
10
93.941993999999994
20
-146.6730649999999798
11
138.1792360000000031
21
-133.9279310000000009
0
LINE
8
BLACK
6
CONTINUOUS
10
138.1792360000000031
20
-133.9279310000000009
11
138.1838039999999808
21
-133.9270879999999977
0
LINE
8
BLACK
6
CONTINUOUS
10
138.1838039999999808
20
-133.9270879999999977
11
138.1853679999999827
21
-133.9264409999999828
0
LINE
8
BLACK
6
CONTINUOUS
10
138.1853679999999827
20
-133.9264409999999828
11
138.1895519999999919
21
-133.9260280000000023
0
LINE
8
BLACK
6
CONTINUOUS
10
138.1895519999999919
20
-133.9260280000000023
11
138.1936959999999885
21
-133.925264999999996
0
LINE
8
BLACK
6
CONTINUOUS
10
138.1936959999999885
20
-133.925264999999996
11
138.1953809999999976
21
-133.925454000000002
0
LINE
8
BLACK
6
CONTINUOUS
10
138.1953809999999976
20
-133.925454000000002
11
138.1999999999999886
21
-133.9249999999999829
0
LINE
8
BLACK
6
CONTINUOUS
10
138.1999999999999886
20
-133.9249999999999829
11
138.2099999999999795
21
-133.9249999999999829
0
LINE
8
BLACK
6
CONTINUOUS
10
138.2099999999999795
20
-133.9249999999999829
11
187.534657999999979
21
-133.9249999999999829
0
LINE
8
BLACK
6
CONTINUOUS
10
187.534657999999979
20
-133.9249999999999829
11
225.4436439999999777
21
-119.4583519999999908
0
LINE
8
BLACK
6
CONTINUOUS
10
225.4436439999999777
20
-119.4583519999999908
11
225.4166639999999973
21
-44.5952959999999976
0
LINE
8
BLACK
6
CONTINUOUS
10
225.4166639999999973
20
-44.5952959999999976
11
225.3981679999999983
21
-44.3907540000000012
0
LINE
8
BLACK
6
CONTINUOUS
10
225.3981679999999983
20
-44.3907540000000012
11
225.3981799999999964
21
-44.3892379999999989
0
LINE
8
BLACK
6
CONTINUOUS
10
225.3981799999999964
20
-44.3892379999999989
11
225.3980009999999936
21
-44.3885579999999962
0
LINE
8
BLACK
6
CONTINUOUS
10
225.3980009999999936
20
-44.3885579999999962
11
225.3981959999999845
21
-44.3871210000000005
0
LINE
8
BLACK
6
CONTINUOUS
10
225.3981959999999845
20
-44.3871210000000005
11
225.3982450000000028
21
-44.3809619999999967
0
LINE
8
BLACK
6
CONTINUOUS
10
225.3982450000000028
20
-44.3809619999999967
11
225.3520759999999825
21
-44.2137809999999973
0
LINE
8
BLACK
6
CONTINUOUS
10
225.3520759999999825
20
-44.2137809999999973
11
225.2691250000000025
21
-44.0401359999999968
0
LINE
8
BLACK
6
CONTINUOUS
10
225.2691250000000025
20
-44.0401359999999968
11
225.2690899999999772
21
-44.0400409999999951
0
LINE
8
BLACK
6
CONTINUOUS
10
225.2690899999999772
20
-44.0400409999999951
11
225.2690629999999885
21
-44.0400039999999962
0
LINE
8
BLACK
6
CONTINUOUS
10
225.2690629999999885
20
-44.0400039999999962
11
225.2690299999999866
21
-44.0398739999999975
0
LINE
8
BLACK
6
CONTINUOUS
10
225.2690299999999866
20
-44.0398739999999975
11
225.2646039999999914
21
-44.0276539999999983
0
LINE
8
BLACK
6
CONTINUOUS
10
225.2646039999999914
20
-44.0276539999999983
11
225.1700089999999932
21
-43.8948600000000013
0
LINE
8
BLACK
6
CONTINUOUS
10
225.1700089999999932
20
-43.8948600000000013
11
225.1681409999999914
21
-43.8933460000000011
0
LINE
8
BLACK
6
CONTINUOUS
10
225.1681409999999914
20
-43.8933460000000011
11
225.0306109999999933
21
-43.7574830000000006
0
LINE
8
BLACK
6
CONTINUOUS
10
225.0306109999999933
20
-43.7574830000000006
11
224.8676429999999868
21
-43.6445839999999947
0
LINE
8
BLACK
6
CONTINUOUS
10
224.8676429999999868
20
-43.6445839999999947
11
224.8670249999999839
21
-43.6440589999999986
0
LINE
8
BLACK
6
CONTINUOUS
10
224.8670249999999839
20
-43.6440589999999986
11
224.6963679999999783
21
-43.5658339999999953
0
LINE
8
BLACK
6
CONTINUOUS
10
224.6963679999999783
20
-43.5658339999999953
11
224.6961169999999868
21
-43.5656880000000015
0
LINE
8
BLACK
6
CONTINUOUS
10
224.6961169999999868
20
-43.5656880000000015
11
224.5087069999999869
21
-43.5177079999999989
0
LINE
8
BLACK
6
CONTINUOUS
10
224.5087069999999869
20
-43.5177079999999989
11
171.1640879999999925
21
-35.0529099999999971
0
LINE
8
BLACK
6
CONTINUOUS
10
171.1640879999999925
20
-35.0529099999999971
11
148.994404000000003
21
-35.0529099999999971
  0
ENDSEC
  0
EOF
