  0
SECTION
  2
HEADER
  9
$ANGBASE
  50
0.0
  9
$ANGDIR
  70
1
  9
$MEASUREMENT
  70
0
  0
ENDSEC
  0
SECTION
  2
TABLES
  0
TABLE
  2
LTYPE
  70
4
  0
LTYPE
  5
40F
  2
CONTINUOUS
  70
0
  3
Solid line
  72
65
  73
0
  40
0.0
  0
LTYPE
  5
410
  2
DASHDOT
 70
0
  3
Dash Dot ____ _ ____ _
 72
65
 73
4
 40
2.0
 49
1.25
 49
-0.25
 49
0.25
 49
-0.25
  0
LTYPE
  5
411
  2
DASHED
 70
0
  3
Dashed __ __ __ __ __
 72
65
 73
2
 40
0.75
 49
0.5
 49
-0.25
  0
LTYPE
  5
43B
  2
DOTTED
 70
0
  3
Dotted .  .  .  .
 72
65
 73
2
 40
0.2
 49
0.0
 49
-0.2
  0
ENDTAB
  0
TABLE
  2
STYLE
  70
4
  0
STYLE
  2
KICAD
  70
0
  40
0
  41
1
  42
1
  50
0
  71
0
  3
isocp.shx
  0
STYLE
  2
KICADB
  70
0
  40
0
  41
1
  42
1
  50
0
  71
0
  3
isocp.shx
  0
STYLE
  2
KICADI
  70
0
  40
0
  41
1
  42
1
  50
15
  71
0
  3
isocp.shx
  0
STYLE
  2
KICADBI
  70
0
  40
0
  41
1
  42
1
  50
15
  71
0
  3
isocp.shx
  0
ENDTAB
  0
TABLE
  2
LAYER
  70
1
  0
LAYER
  2
BLACK
  70
0
  62
7
  6
CONTINUOUS
  0
ENDTAB
  0
ENDSEC
  0
SECTION
  2
ENTITIES
0
LINE
8
BLACK
6
CONTINUOUS
10
3.9116892913385826
20
-4.8734426377952751
11
3.9122970078740158
21
-4.8741355905511812
0
LINE
8
BLACK
6
CONTINUOUS
10
3.9122970078740158
20
-4.8741355905511812
11
4.1878875196850389
21
-5.3514724409448817
0
LINE
8
BLACK
6
CONTINUOUS
10
4.1878875196850389
20
-5.3514724409448817
11
4.1881838188976381
21
-5.3523451968503934
0
LINE
8
BLACK
6
CONTINUOUS
10
4.1881838188976381
20
-5.3523451968503934
11
4.1877158661417324
21
-5.3540915748031495
0
LINE
8
BLACK
6
CONTINUOUS
10
4.1877158661417324
20
-5.3540915748031495
11
4.1870229133858263
21
-5.3546992913385827
0
LINE
8
BLACK
6
CONTINUOUS
10
4.1870229133858263
20
-5.3546992913385827
11
3.7096860629921258
21
-5.6302898425196846
0
LINE
8
BLACK
6
CONTINUOUS
10
3.7096860629921258
20
-5.6302898425196846
11
3.7088133070866141
21
-5.630586102362205
0
LINE
8
BLACK
6
CONTINUOUS
10
3.7088133070866141
20
-5.630586102362205
11
3.707066929133858
21
-5.6301181496062993
0
LINE
8
BLACK
6
CONTINUOUS
10
3.707066929133858
20
-5.6301181496062993
11
3.7064592125984253
21
-5.6294251968503932
0
LINE
8
BLACK
6
CONTINUOUS
10
3.7064592125984253
20
-5.6294251968503932
11
3.4308686614173229
21
-5.1520883464566927
0
LINE
8
BLACK
6
CONTINUOUS
10
3.4308686614173229
20
-5.1520883464566927
11
3.4305724015748029
21
-5.1512155905511809
0
LINE
8
BLACK
6
CONTINUOUS
10
3.4305724015748029
20
-5.1512155905511809
11
3.4310403543307086
21
-5.1494692125984249
0
LINE
8
BLACK
6
CONTINUOUS
10
3.4310403543307086
20
-5.1494692125984249
11
3.4317333070866143
21
-5.1488614960629917
0
LINE
8
BLACK
6
CONTINUOUS
10
3.4317333070866143
20
-5.1488614960629917
11
3.9090701574803148
21
-4.8732709842519686
0
LINE
8
BLACK
6
CONTINUOUS
10
3.9090701574803148
20
-4.8732709842519686
11
3.9099429133858266
21
-4.8729746850393703
0
LINE
8
BLACK
6
CONTINUOUS
10
3.9099429133858266
20
-4.8729746850393703
11
3.9116892913385826
21
-4.8734426377952751
0
LINE
8
BLACK
6
CONTINUOUS
10
3.4361412598425196
20
-5.1517718503937004
11
3.7093695275590552
21
-5.6250172440944883
0
LINE
8
BLACK
6
CONTINUOUS
10
3.7093695275590552
20
-5.6250172440944883
11
4.1826149606299214
21
-5.3517889370078739
0
LINE
8
BLACK
6
CONTINUOUS
10
4.1826149606299214
20
-5.3517889370078739
11
3.9093866141732283
21
-4.8785435433070861
0
LINE
8
BLACK
6
CONTINUOUS
10
3.9093866141732283
20
-4.8785435433070861
11
3.4361412598425196
21
-5.1517718503937004
0
LINE
8
BLACK
6
CONTINUOUS
10
4.8272133070866143
20
-4.7152201574803145
11
4.82877905511811
21
-4.7161241338582673
0
LINE
8
BLACK
6
CONTINUOUS
10
4.82877905511811
20
-4.7161241338582673
11
4.8287790944881888
21
-4.7161242913385824
0
LINE
8
BLACK
6
CONTINUOUS
10
4.8287790944881888
20
-4.7161242913385824
11
4.8291866929133853
21
-4.7169507874015748
0
LINE
8
BLACK
6
CONTINUOUS
10
4.8291866929133853
20
-4.7169507874015748
11
4.9718428740157483
21
-5.2493508267716535
0
LINE
8
BLACK
6
CONTINUOUS
10
4.9718428740157483
20
-5.2493508267716535
11
4.9719031496062991
21
-5.2502705511811021
0
LINE
8
BLACK
6
CONTINUOUS
10
4.9719031496062991
20
-5.2502705511811021
11
4.9709991732283463
21
-5.2518362992125986
0
LINE
8
BLACK
6
CONTINUOUS
10
4.9709991732283463
20
-5.2518362992125986
11
4.9709989763779525
21
-5.2518363385826774
0
LINE
8
BLACK
6
CONTINUOUS
10
4.9709989763779525
20
-5.2518363385826774
11
4.9701725590551176
21
-5.2522438976377952
0
LINE
8
BLACK
6
CONTINUOUS
10
4.9701725590551176
20
-5.2522438976377952
11
4.437772480314961
21
-5.3949001181102361
0
LINE
8
BLACK
6
CONTINUOUS
10
4.437772480314961
20
-5.3949001181102361
11
4.4368527952755903
21
-5.394960354330709
0
LINE
8
BLACK
6
CONTINUOUS
10
4.4368527952755903
20
-5.394960354330709
11
4.4368527952755903
21
-5.3949603937007868
0
LINE
8
BLACK
6
CONTINUOUS
10
4.4368527952755903
20
-5.3949603937007868
11
4.4368527559055115
21
-5.394960354330709
0
LINE
8
BLACK
6
CONTINUOUS
10
4.4368527559055115
20
-5.394960354330709
11
4.4368527559055115
21
-5.3949603937007868
0
LINE
8
BLACK
6
CONTINUOUS
10
4.4368527559055115
20
-5.3949603937007868
11
4.4352870472440946
21
-5.3940564173228349
0
LINE
8
BLACK
6
CONTINUOUS
10
4.4352870472440946
20
-5.3940564173228349
11
4.4348794094488184
21
-5.3932298031496062
0
LINE
8
BLACK
6
CONTINUOUS
10
4.4348794094488184
20
-5.3932298031496062
11
4.2922231889763776
21
-4.8608297244094487
0
LINE
8
BLACK
6
CONTINUOUS
10
4.2922231889763776
20
-4.8608297244094487
11
4.2921629133858268
21
-4.8599100000000002
0
LINE
8
BLACK
6
CONTINUOUS
10
4.2921629133858268
20
-4.8599100000000002
11
4.2930668897637796
21
-4.8583442913385824
0
LINE
8
BLACK
6
CONTINUOUS
10
4.2930668897637796
20
-4.8583442913385824
11
4.2938935433070862
21
-4.8579366141732283
0
LINE
8
BLACK
6
CONTINUOUS
10
4.2938935433070862
20
-4.8579366141732283
11
4.8262935826771649
21
-4.7152804330708662
0
LINE
8
BLACK
6
CONTINUOUS
10
4.8262935826771649
20
-4.7152804330708662
11
4.8272133070866143
21
-4.7152201574803145
0
LINE
8
BLACK
6
CONTINUOUS
10
4.2973980314960629
20
-4.8618886614173231
11
4.4388314173228345
21
-5.3897252362204719
0
LINE
8
BLACK
6
CONTINUOUS
10
4.4388314173228345
20
-5.3897252362204719
11
4.966668031496063
21
-5.2482918503937004
0
LINE
8
BLACK
6
CONTINUOUS
10
4.966668031496063
20
-5.2482918503937004
11
4.8252346062992126
21
-4.7204552362204719
0
LINE
8
BLACK
6
CONTINUOUS
10
4.8252346062992126
20
-4.7204552362204719
11
4.2973980314960629
21
-4.8618886614173231
0
LINE
8
BLACK
6
CONTINUOUS
10
7.2705884251968502
20
-4.5962427952755904
11
7.2718668503937005
21
-4.5975212204724407
0
LINE
8
BLACK
6
CONTINUOUS
10
7.2718668503937005
20
-4.5975212204724407
11
7.272046653543307
21
-4.5984251968503935
0
LINE
8
BLACK
6
CONTINUOUS
10
7.272046653543307
20
-4.5984251968503935
11
7.272046653543307
21
-5.1496062992125982
0
LINE
8
BLACK
6
CONTINUOUS
10
7.272046653543307
20
-5.1496062992125982
11
7.2718668503937005
21
-5.150510275590551
0
LINE
8
BLACK
6
CONTINUOUS
10
7.2718668503937005
20
-5.150510275590551
11
7.2705884251968502
21
-5.1517887007874013
0
LINE
8
BLACK
6
CONTINUOUS
10
7.2705884251968502
20
-5.1517887007874013
11
7.2696844488188974
21
-5.1519685039370078
0
LINE
8
BLACK
6
CONTINUOUS
10
7.2696844488188974
20
-5.1519685039370078
11
6.7185033464566928
21
-5.1519685039370078
0
LINE
8
BLACK
6
CONTINUOUS
10
6.7185033464566928
20
-5.1519685039370078
11
6.71759937007874
21
-5.1517887007874013
0
LINE
8
BLACK
6
CONTINUOUS
10
6.71759937007874
20
-5.1517887007874013
11
6.7163209448818897
21
-5.150510275590551
0
LINE
8
BLACK
6
CONTINUOUS
10
6.7163209448818897
20
-5.150510275590551
11
6.7161411417322832
21
-5.1496062992125982
0
LINE
8
BLACK
6
CONTINUOUS
10
6.7161411417322832
20
-5.1496062992125982
11
6.7161411417322832
21
-4.5984251968503935
0
LINE
8
BLACK
6
CONTINUOUS
10
6.7161411417322832
20
-4.5984251968503935
11
6.7163209448818897
21
-4.5975212204724407
0
LINE
8
BLACK
6
CONTINUOUS
10
6.7163209448818897
20
-4.5975212204724407
11
6.71759937007874
21
-4.5962427952755904
0
LINE
8
BLACK
6
CONTINUOUS
10
6.71759937007874
20
-4.5962427952755904
11
6.7185033464566928
21
-4.5960629921259839
0
LINE
8
BLACK
6
CONTINUOUS
10
6.7185033464566928
20
-4.5960629921259839
11
7.2696844488188974
21
-4.5960629921259839
0
LINE
8
BLACK
6
CONTINUOUS
10
7.2696844488188974
20
-4.5960629921259839
11
7.2705884251968502
21
-4.5962427952755904
0
LINE
8
BLACK
6
CONTINUOUS
10
6.7208655511811024
20
-4.6007874015748031
11
6.7208655511811024
21
-5.1472440944881885
0
LINE
8
BLACK
6
CONTINUOUS
10
6.7208655511811024
20
-5.1472440944881885
11
7.2673222440944878
21
-5.1472440944881885
0
LINE
8
BLACK
6
CONTINUOUS
10
7.2673222440944878
20
-5.1472440944881885
11
7.2673222440944878
21
-4.6007874015748031
0
LINE
8
BLACK
6
CONTINUOUS
10
7.2673222440944878
20
-4.6007874015748031
11
6.7208655511811024
21
-4.6007874015748031
0
LINE
8
BLACK
6
CONTINUOUS
10
5.7705884251968502
20
-4.5923057874015747
11
5.7718668503937005
21
-4.593584212598425
0
LINE
8
BLACK
6
CONTINUOUS
10
5.7718668503937005
20
-4.593584212598425
11
5.772046653543307
21
-4.5944881889763778
0
LINE
8
BLACK
6
CONTINUOUS
10
5.772046653543307
20
-4.5944881889763778
11
5.772046653543307
21
-5.1456692913385824
0
LINE
8
BLACK
6
CONTINUOUS
10
5.772046653543307
20
-5.1456692913385824
11
5.7718668503937005
21
-5.1465732677165352
0
LINE
8
BLACK
6
CONTINUOUS
10
5.7718668503937005
20
-5.1465732677165352
11
5.7705884251968502
21
-5.1478516929133855
0
LINE
8
BLACK
6
CONTINUOUS
10
5.7705884251968502
20
-5.1478516929133855
11
5.7696844488188974
21
-5.148031496062992
0
LINE
8
BLACK
6
CONTINUOUS
10
5.7696844488188974
20
-5.148031496062992
11
5.2185033464566928
21
-5.148031496062992
0
LINE
8
BLACK
6
CONTINUOUS
10
5.2185033464566928
20
-5.148031496062992
11
5.21759937007874
21
-5.1478516929133855
0
LINE
8
BLACK
6
CONTINUOUS
10
5.21759937007874
20
-5.1478516929133855
11
5.2163209448818897
21
-5.1465732677165352
0
LINE
8
BLACK
6
CONTINUOUS
10
5.2163209448818897
20
-5.1465732677165352
11
5.2161411417322832
21
-5.1456692913385824
0
LINE
8
BLACK
6
CONTINUOUS
10
5.2161411417322832
20
-5.1456692913385824
11
5.2161411417322832
21
-4.5944881889763778
0
LINE
8
BLACK
6
CONTINUOUS
10
5.2161411417322832
20
-4.5944881889763778
11
5.2163209448818897
21
-4.593584212598425
0
LINE
8
BLACK
6
CONTINUOUS
10
5.2163209448818897
20
-4.593584212598425
11
5.21759937007874
21
-4.5923057874015747
0
LINE
8
BLACK
6
CONTINUOUS
10
5.21759937007874
20
-4.5923057874015747
11
5.2185033464566928
21
-4.5921259842519682
0
LINE
8
BLACK
6
CONTINUOUS
10
5.2185033464566928
20
-4.5921259842519682
11
5.7696844488188974
21
-4.5921259842519682
0
LINE
8
BLACK
6
CONTINUOUS
10
5.7696844488188974
20
-4.5921259842519682
11
5.7705884251968502
21
-4.5923057874015747
0
LINE
8
BLACK
6
CONTINUOUS
10
5.2208655511811024
20
-4.5968503937007874
11
5.2208655511811024
21
-5.1433070866141728
0
LINE
8
BLACK
6
CONTINUOUS
10
5.2208655511811024
20
-5.1433070866141728
11
5.7673222440944878
21
-5.1433070866141728
0
LINE
8
BLACK
6
CONTINUOUS
10
5.7673222440944878
20
-5.1433070866141728
11
5.7673222440944878
21
-4.5968503937007874
0
LINE
8
BLACK
6
CONTINUOUS
10
5.7673222440944878
20
-4.5968503937007874
11
5.2208655511811024
21
-4.5968503937007874
0
LINE
8
BLACK
6
CONTINUOUS
10
6.5225569291338585
20
-4.4974238976377956
11
6.5238353543307088
21
-4.4987023228346459
0
LINE
8
BLACK
6
CONTINUOUS
10
6.5238353543307088
20
-4.4987023228346459
11
6.5240151574803145
21
-4.4996062992125987
0
LINE
8
BLACK
6
CONTINUOUS
10
6.5240151574803145
20
-4.4996062992125987
11
6.5240151574803145
21
-5.0507874015748033
0
LINE
8
BLACK
6
CONTINUOUS
10
6.5240151574803145
20
-5.0507874015748033
11
6.5238353543307088
21
-5.0516913779527561
0
LINE
8
BLACK
6
CONTINUOUS
10
6.5238353543307088
20
-5.0516913779527561
11
6.5225569291338585
21
-5.0529698031496064
0
LINE
8
BLACK
6
CONTINUOUS
10
6.5225569291338585
20
-5.0529698031496064
11
6.5216529527559057
21
-5.0531496062992121
0
LINE
8
BLACK
6
CONTINUOUS
10
6.5216529527559057
20
-5.0531496062992121
11
5.9704718503937002
21
-5.0531496062992121
0
LINE
8
BLACK
6
CONTINUOUS
10
5.9704718503937002
20
-5.0531496062992121
11
5.9695678740157483
21
-5.0529698031496064
0
LINE
8
BLACK
6
CONTINUOUS
10
5.9695678740157483
20
-5.0529698031496064
11
5.9682894488188971
21
-5.0516913779527561
0
LINE
8
BLACK
6
CONTINUOUS
10
5.9682894488188971
20
-5.0516913779527561
11
5.9681096456692915
21
-5.0507874015748033
0
LINE
8
BLACK
6
CONTINUOUS
10
5.9681096456692915
20
-5.0507874015748033
11
5.9681096456692915
21
-4.4996062992125987
0
LINE
8
BLACK
6
CONTINUOUS
10
5.9681096456692915
20
-4.4996062992125987
11
5.9682894488188971
21
-4.4987023228346459
0
LINE
8
BLACK
6
CONTINUOUS
10
5.9682894488188971
20
-4.4987023228346459
11
5.9695678740157483
21
-4.4974238976377956
0
LINE
8
BLACK
6
CONTINUOUS
10
5.9695678740157483
20
-4.4974238976377956
11
5.9704718503937002
21
-4.4972440944881891
0
LINE
8
BLACK
6
CONTINUOUS
10
5.9704718503937002
20
-4.4972440944881891
11
6.5216529527559057
21
-4.4972440944881891
0
LINE
8
BLACK
6
CONTINUOUS
10
6.5216529527559057
20
-4.4972440944881891
11
6.5225569291338585
21
-4.4974238976377956
0
LINE
8
BLACK
6
CONTINUOUS
10
5.9728340551181098
20
-4.5019685039370074
11
5.9728340551181098
21
-5.0484251968503937
0
LINE
8
BLACK
6
CONTINUOUS
10
5.9728340551181098
20
-5.0484251968503937
11
6.5192907480314961
21
-5.0484251968503937
0
LINE
8
BLACK
6
CONTINUOUS
10
6.5192907480314961
20
-5.0484251968503937
11
6.5192907480314961
21
-4.5019685039370074
0
LINE
8
BLACK
6
CONTINUOUS
10
6.5192907480314961
20
-4.5019685039370074
11
5.9728340551181098
21
-4.5019685039370074
0
LINE
8
BLACK
6
CONTINUOUS
10
4.0656874803149607
20
-4.6488887795275593
11
4.0724443307086613
21
-4.6510842125984251
0
LINE
8
BLACK
6
CONTINUOUS
10
4.0724443307086613
20
-4.6510842125984251
11
4.0787745275590552
21
-4.6543096062992122
0
LINE
8
BLACK
6
CONTINUOUS
10
4.0787745275590552
20
-4.6543096062992122
11
4.0845222440944884
21
-4.6584855511811023
0
LINE
8
BLACK
6
CONTINUOUS
10
4.0845222440944884
20
-4.6584855511811023
11
4.0895459448818894
21
-4.6635092519685042
0
LINE
8
BLACK
6
CONTINUOUS
10
4.0895459448818894
20
-4.6635092519685042
11
4.0937218897637795
21
-4.6692569685039373
0
LINE
8
BLACK
6
CONTINUOUS
10
4.0937218897637795
20
-4.6692569685039373
11
4.0969472834645666
21
-4.6755871653543304
0
LINE
8
BLACK
6
CONTINUOUS
10
4.0969472834645666
20
-4.6755871653543304
11
4.0991427165354333
21
-4.6823440157480318
0
LINE
8
BLACK
6
CONTINUOUS
10
4.0991427165354333
20
-4.6823440157480318
11
4.1002541338582672
21
-4.6893611023622048
0
LINE
8
BLACK
6
CONTINUOUS
10
4.1002541338582672
20
-4.6893611023622048
11
4.1002541338582672
21
-4.6964656692913387
0
LINE
8
BLACK
6
CONTINUOUS
10
4.1002541338582672
20
-4.6964656692913387
11
4.0991427165354333
21
-4.7034827559055117
0
LINE
8
BLACK
6
CONTINUOUS
10
4.0991427165354333
20
-4.7034827559055117
11
4.0969472834645666
21
-4.7102396062992122
0
LINE
8
BLACK
6
CONTINUOUS
10
4.0969472834645666
20
-4.7102396062992122
11
4.0937218897637795
21
-4.7165698031496062
0
LINE
8
BLACK
6
CONTINUOUS
10
4.0937218897637795
20
-4.7165698031496062
11
4.0895459448818894
21
-4.7223175196850393
0
LINE
8
BLACK
6
CONTINUOUS
10
4.0895459448818894
20
-4.7223175196850393
11
4.0845222440944884
21
-4.7273412204724412
0
LINE
8
BLACK
6
CONTINUOUS
10
4.0845222440944884
20
-4.7273412204724412
11
4.0787745275590552
21
-4.7315171653543304
0
LINE
8
BLACK
6
CONTINUOUS
10
4.0787745275590552
20
-4.7315171653543304
11
4.0724443307086613
21
-4.7347425590551184
0
LINE
8
BLACK
6
CONTINUOUS
10
4.0724443307086613
20
-4.7347425590551184
11
4.0656874803149607
21
-4.7369379921259842
0
LINE
8
BLACK
6
CONTINUOUS
10
4.0656874803149607
20
-4.7369379921259842
11
4.0586703937007877
21
-4.738049409448819
0
LINE
8
BLACK
6
CONTINUOUS
10
4.0586703937007877
20
-4.738049409448819
11
4.0515658267716539
21
-4.738049409448819
0
LINE
8
BLACK
6
CONTINUOUS
10
4.0515658267716539
20
-4.738049409448819
11
4.04454874015748
21
-4.7369379921259842
0
LINE
8
BLACK
6
CONTINUOUS
10
4.04454874015748
20
-4.7369379921259842
11
4.0377918897637795
21
-4.7347425590551184
0
LINE
8
BLACK
6
CONTINUOUS
10
4.0377918897637795
20
-4.7347425590551184
11
4.0314616929133855
21
-4.7315171653543304
0
LINE
8
BLACK
6
CONTINUOUS
10
4.0314616929133855
20
-4.7315171653543304
11
4.0257139763779524
21
-4.7273412204724412
0
LINE
8
BLACK
6
CONTINUOUS
10
4.0257139763779524
20
-4.7273412204724412
11
4.0206902755905514
21
-4.7223175196850393
0
LINE
8
BLACK
6
CONTINUOUS
10
4.0206902755905514
20
-4.7223175196850393
11
4.0165143307086613
21
-4.7165698031496062
0
LINE
8
BLACK
6
CONTINUOUS
10
4.0165143307086613
20
-4.7165698031496062
11
4.0132889370078741
21
-4.7102396062992122
0
LINE
8
BLACK
6
CONTINUOUS
10
4.0132889370078741
20
-4.7102396062992122
11
4.0110935039370075
21
-4.7034827559055117
0
LINE
8
BLACK
6
CONTINUOUS
10
4.0110935039370075
20
-4.7034827559055117
11
4.0099820866141735
21
-4.6964656692913387
0
LINE
8
BLACK
6
CONTINUOUS
10
4.0099820866141735
20
-4.6964656692913387
11
4.0099820866141735
21
-4.6893611023622048
0
LINE
8
BLACK
6
CONTINUOUS
10
4.0099820866141735
20
-4.6893611023622048
11
4.0100643307086612
21
-4.6888418897637791
0
LINE
8
BLACK
6
CONTINUOUS
10
4.0100643307086612
20
-4.6888418897637791
11
4.0110935039370075
21
-4.6823440157480318
0
LINE
8
BLACK
6
CONTINUOUS
10
4.0110935039370075
20
-4.6823440157480318
11
4.0132889370078741
21
-4.6755871653543304
0
LINE
8
BLACK
6
CONTINUOUS
10
4.0132889370078741
20
-4.6755871653543304
11
4.0165143307086613
21
-4.6692569685039373
0
LINE
8
BLACK
6
CONTINUOUS
10
4.0165143307086613
20
-4.6692569685039373
11
4.0206902755905514
21
-4.6635092519685042
0
LINE
8
BLACK
6
CONTINUOUS
10
4.0206902755905514
20
-4.6635092519685042
11
4.0257139763779524
21
-4.6584855511811023
0
LINE
8
BLACK
6
CONTINUOUS
10
4.0257139763779524
20
-4.6584855511811023
11
4.0314616929133855
21
-4.6543096062992122
0
LINE
8
BLACK
6
CONTINUOUS
10
4.0314616929133855
20
-4.6543096062992122
11
4.0377918897637795
21
-4.6510842125984251
0
LINE
8
BLACK
6
CONTINUOUS
10
4.0377918897637795
20
-4.6510842125984251
11
4.04454874015748
21
-4.6488887795275593
0
LINE
8
BLACK
6
CONTINUOUS
10
4.04454874015748
20
-4.6488887795275593
11
4.0515658267716539
21
-4.6477773622047245
0
LINE
8
BLACK
6
CONTINUOUS
10
4.0515658267716539
20
-4.6477773622047245
11
4.0586703937007877
21
-4.6477773622047245
0
LINE
8
BLACK
6
CONTINUOUS
10
4.0586703937007877
20
-4.6477773622047245
11
4.0656874803149607
21
-4.6488887795275593
0
LINE
8
BLACK
6
CONTINUOUS
10
4.0137795275590546
20
-4.6969848818897635
11
4.0153681102362206
21
-4.7049714173228345
0
LINE
8
BLACK
6
CONTINUOUS
10
4.0153681102362206
20
-4.7049714173228345
11
4.0184843307086613
21
-4.7124945669291334
0
LINE
8
BLACK
6
CONTINUOUS
10
4.0184843307086613
20
-4.7124945669291334
11
4.0230083070866138
21
-4.7192651968503938
0
LINE
8
BLACK
6
CONTINUOUS
10
4.0230083070866138
20
-4.7192651968503938
11
4.0287662992125988
21
-4.7250231889763779
0
LINE
8
BLACK
6
CONTINUOUS
10
4.0287662992125988
20
-4.7250231889763779
11
4.0355369291338583
21
-4.7295471653543304
0
LINE
8
BLACK
6
CONTINUOUS
10
4.0355369291338583
20
-4.7295471653543304
11
4.0430600787401572
21
-4.7326633858267719
0
LINE
8
BLACK
6
CONTINUOUS
10
4.0430600787401572
20
-4.7326633858267719
11
4.0510466141732282
21
-4.734251968503937
0
LINE
8
BLACK
6
CONTINUOUS
10
4.0510466141732282
20
-4.734251968503937
11
4.0591896062992125
21
-4.734251968503937
0
LINE
8
BLACK
6
CONTINUOUS
10
4.0591896062992125
20
-4.734251968503937
11
4.0671761417322836
21
-4.7326633858267719
0
LINE
8
BLACK
6
CONTINUOUS
10
4.0671761417322836
20
-4.7326633858267719
11
4.0746992913385824
21
-4.7295471653543304
0
LINE
8
BLACK
6
CONTINUOUS
10
4.0746992913385824
20
-4.7295471653543304
11
4.0814699212598429
21
-4.7250231889763779
0
LINE
8
BLACK
6
CONTINUOUS
10
4.0814699212598429
20
-4.7250231889763779
11
4.0872279133858269
21
-4.7192651968503938
0
LINE
8
BLACK
6
CONTINUOUS
10
4.0872279133858269
20
-4.7192651968503938
11
4.0917518897637795
21
-4.7124945669291334
0
LINE
8
BLACK
6
CONTINUOUS
10
4.0917518897637795
20
-4.7124945669291334
11
4.0948681102362201
21
-4.7049714173228345
0
LINE
8
BLACK
6
CONTINUOUS
10
4.0948681102362201
20
-4.7049714173228345
11
4.0964566929133861
21
-4.6969848818897635
0
LINE
8
BLACK
6
CONTINUOUS
10
4.0964566929133861
20
-4.6969848818897635
11
4.0964566929133861
21
-4.6888418897637791
0
LINE
8
BLACK
6
CONTINUOUS
10
4.0964566929133861
20
-4.6888418897637791
11
4.0948681102362201
21
-4.680855354330709
0
LINE
8
BLACK
6
CONTINUOUS
10
4.0948681102362201
20
-4.680855354330709
11
4.0917518897637795
21
-4.6733322047244092
0
LINE
8
BLACK
6
CONTINUOUS
10
4.0917518897637795
20
-4.6733322047244092
11
4.0872279133858269
21
-4.6665615748031497
0
LINE
8
BLACK
6
CONTINUOUS
10
4.0872279133858269
20
-4.6665615748031497
11
4.0814699212598429
21
-4.6608035826771657
0
LINE
8
BLACK
6
CONTINUOUS
10
4.0814699212598429
20
-4.6608035826771657
11
4.0746992913385824
21
-4.6562796062992122
0
LINE
8
BLACK
6
CONTINUOUS
10
4.0746992913385824
20
-4.6562796062992122
11
4.0671761417322836
21
-4.6531633858267716
0
LINE
8
BLACK
6
CONTINUOUS
10
4.0671761417322836
20
-4.6531633858267716
11
4.0591896062992125
21
-4.6515748031496065
0
LINE
8
BLACK
6
CONTINUOUS
10
4.0591896062992125
20
-4.6515748031496065
11
4.0510466141732282
21
-4.6515748031496065
0
LINE
8
BLACK
6
CONTINUOUS
10
4.0510466141732282
20
-4.6515748031496065
11
4.0430600787401572
21
-4.6531633858267716
0
LINE
8
BLACK
6
CONTINUOUS
10
4.0430600787401572
20
-4.6531633858267716
11
4.0355369291338583
21
-4.6562796062992122
0
LINE
8
BLACK
6
CONTINUOUS
10
4.0355369291338583
20
-4.6562796062992122
11
4.0287662992125988
21
-4.6608035826771657
0
LINE
8
BLACK
6
CONTINUOUS
10
4.0287662992125988
20
-4.6608035826771657
11
4.0230083070866138
21
-4.6665615748031497
0
LINE
8
BLACK
6
CONTINUOUS
10
4.0230083070866138
20
-4.6665615748031497
11
4.0184843307086613
21
-4.6733322047244092
0
LINE
8
BLACK
6
CONTINUOUS
10
4.0184843307086613
20
-4.6733322047244092
11
4.0153681102362206
21
-4.680855354330709
0
LINE
8
BLACK
6
CONTINUOUS
10
4.0153681102362206
20
-4.680855354330709
11
4.0137795275590546
21
-4.6888418897637791
0
LINE
8
BLACK
6
CONTINUOUS
10
4.0137795275590546
20
-4.6888418897637791
11
4.0137795275590546
21
-4.6969848818897635
0
LINE
8
BLACK
6
CONTINUOUS
10
8.0225569291338577
20
-4.0332506692913386
11
8.0238353543307088
21
-4.0345290944881889
0
LINE
8
BLACK
6
CONTINUOUS
10
8.0238353543307088
20
-4.0345290944881889
11
8.0240151574803154
21
-4.0354330708661417
0
LINE
8
BLACK
6
CONTINUOUS
10
8.0240151574803154
20
-4.0354330708661417
11
8.0240151574803154
21
-4.5866141732283463
0
LINE
8
BLACK
6
CONTINUOUS
10
8.0240151574803154
20
-4.5866141732283463
11
8.0238353543307088
21
-4.5875181496062991
0
LINE
8
BLACK
6
CONTINUOUS
10
8.0238353543307088
20
-4.5875181496062991
11
8.0225569291338577
21
-4.5887965748031494
0
LINE
8
BLACK
6
CONTINUOUS
10
8.0225569291338577
20
-4.5887965748031494
11
8.0216529527559057
21
-4.5889763779527559
0
LINE
8
BLACK
6
CONTINUOUS
10
8.0216529527559057
20
-4.5889763779527559
11
7.4704718503937002
21
-4.5889763779527559
0
LINE
8
BLACK
6
CONTINUOUS
10
7.4704718503937002
20
-4.5889763779527559
11
7.4695678740157483
21
-4.5887965748031494
0
LINE
8
BLACK
6
CONTINUOUS
10
7.4695678740157483
20
-4.5887965748031494
11
7.4682894488188971
21
-4.5875181496062991
0
LINE
8
BLACK
6
CONTINUOUS
10
7.4682894488188971
20
-4.5875181496062991
11
7.4681096456692915
21
-4.5866141732283463
0
LINE
8
BLACK
6
CONTINUOUS
10
7.4681096456692915
20
-4.5866141732283463
11
7.4681096456692915
21
-4.0354330708661417
0
LINE
8
BLACK
6
CONTINUOUS
10
7.4681096456692915
20
-4.0354330708661417
11
7.4682894488188971
21
-4.0345290944881889
0
LINE
8
BLACK
6
CONTINUOUS
10
7.4682894488188971
20
-4.0345290944881889
11
7.4695678740157483
21
-4.0332506692913386
0
LINE
8
BLACK
6
CONTINUOUS
10
7.4695678740157483
20
-4.0332506692913386
11
7.4704718503937002
21
-4.033070866141732
0
LINE
8
BLACK
6
CONTINUOUS
10
7.4704718503937002
20
-4.033070866141732
11
8.0216529527559057
21
-4.033070866141732
0
LINE
8
BLACK
6
CONTINUOUS
10
8.0216529527559057
20
-4.033070866141732
11
8.0225569291338577
21
-4.0332506692913386
0
LINE
8
BLACK
6
CONTINUOUS
10
7.4728340551181098
20
-4.0377952755905513
11
7.4728340551181098
21
-4.5842519685039367
0
LINE
8
BLACK
6
CONTINUOUS
10
7.4728340551181098
20
-4.5842519685039367
11
8.0192907480314961
21
-4.5842519685039367
0
LINE
8
BLACK
6
CONTINUOUS
10
8.0192907480314961
20
-4.5842519685039367
11
8.0192907480314961
21
-4.0377952755905513
0
LINE
8
BLACK
6
CONTINUOUS
10
8.0192907480314961
20
-4.0377952755905513
11
7.4728340551181098
21
-4.0377952755905513
0
LINE
8
BLACK
6
CONTINUOUS
10
8.7725569291338577
20
-4.0332506692913386
11
8.7738353543307088
21
-4.0345290944881889
0
LINE
8
BLACK
6
CONTINUOUS
10
8.7738353543307088
20
-4.0345290944881889
11
8.7740151574803154
21
-4.0354330708661417
0
LINE
8
BLACK
6
CONTINUOUS
10
8.7740151574803154
20
-4.0354330708661417
11
8.7740151574803154
21
-4.5866141732283463
0
LINE
8
BLACK
6
CONTINUOUS
10
8.7740151574803154
20
-4.5866141732283463
11
8.7738353543307088
21
-4.5875181496062991
0
LINE
8
BLACK
6
CONTINUOUS
10
8.7738353543307088
20
-4.5875181496062991
11
8.7725569291338577
21
-4.5887965748031494
0
LINE
8
BLACK
6
CONTINUOUS
10
8.7725569291338577
20
-4.5887965748031494
11
8.7716529527559057
21
-4.5889763779527559
0
LINE
8
BLACK
6
CONTINUOUS
10
8.7716529527559057
20
-4.5889763779527559
11
8.2204718503937002
21
-4.5889763779527559
0
LINE
8
BLACK
6
CONTINUOUS
10
8.2204718503937002
20
-4.5889763779527559
11
8.2195678740157483
21
-4.5887965748031494
0
LINE
8
BLACK
6
CONTINUOUS
10
8.2195678740157483
20
-4.5887965748031494
11
8.2182894488188971
21
-4.5875181496062991
0
LINE
8
BLACK
6
CONTINUOUS
10
8.2182894488188971
20
-4.5875181496062991
11
8.2181096456692906
21
-4.5866141732283463
0
LINE
8
BLACK
6
CONTINUOUS
10
8.2181096456692906
20
-4.5866141732283463
11
8.2181096456692906
21
-4.0354330708661417
0
LINE
8
BLACK
6
CONTINUOUS
10
8.2181096456692906
20
-4.0354330708661417
11
8.2182894488188971
21
-4.0345290944881889
0
LINE
8
BLACK
6
CONTINUOUS
10
8.2182894488188971
20
-4.0345290944881889
11
8.2195678740157483
21
-4.0332506692913386
0
LINE
8
BLACK
6
CONTINUOUS
10
8.2195678740157483
20
-4.0332506692913386
11
8.2204718503937002
21
-4.033070866141732
0
LINE
8
BLACK
6
CONTINUOUS
10
8.2204718503937002
20
-4.033070866141732
11
8.7716529527559057
21
-4.033070866141732
0
LINE
8
BLACK
6
CONTINUOUS
10
8.7716529527559057
20
-4.033070866141732
11
8.7725569291338577
21
-4.0332506692913386
0
LINE
8
BLACK
6
CONTINUOUS
10
8.2228340551181098
20
-4.0377952755905513
11
8.2228340551181098
21
-4.5842519685039367
0
LINE
8
BLACK
6
CONTINUOUS
10
8.2228340551181098
20
-4.5842519685039367
11
8.7692907480314961
21
-4.5842519685039367
0
LINE
8
BLACK
6
CONTINUOUS
10
8.7692907480314961
20
-4.5842519685039367
11
8.7692907480314961
21
-4.0377952755905513
0
LINE
8
BLACK
6
CONTINUOUS
10
8.7692907480314961
20
-4.0377952755905513
11
8.2228340551181098
21
-4.0377952755905513
0
LINE
8
BLACK
6
CONTINUOUS
10
5.0225569291338585
20
-3.9387624803149603
11
5.0238353543307088
21
-3.9400409055118111
0
LINE
8
BLACK
6
CONTINUOUS
10
5.0238353543307088
20
-3.9400409055118111
11
5.0240151574803145
21
-3.9409448818897639
0
LINE
8
BLACK
6
CONTINUOUS
10
5.0240151574803145
20
-3.9409448818897639
11
5.0240151574803145
21
-4.4921259842519685
0
LINE
8
BLACK
6
CONTINUOUS
10
5.0240151574803145
20
-4.4921259842519685
11
5.0238353543307088
21
-4.4930299606299213
0
LINE
8
BLACK
6
CONTINUOUS
10
5.0238353543307088
20
-4.4930299606299213
11
5.0225569291338585
21
-4.4943083858267716
0
LINE
8
BLACK
6
CONTINUOUS
10
5.0225569291338585
20
-4.4943083858267716
11
5.0216529527559057
21
-4.4944881889763781
0
LINE
8
BLACK
6
CONTINUOUS
10
5.0216529527559057
20
-4.4944881889763781
11
4.4704718503937011
21
-4.4944881889763781
0
LINE
8
BLACK
6
CONTINUOUS
10
4.4704718503937011
20
-4.4944881889763781
11
4.4695678740157483
21
-4.4943083858267716
0
LINE
8
BLACK
6
CONTINUOUS
10
4.4695678740157483
20
-4.4943083858267716
11
4.4682894488188971
21
-4.4930299606299213
0
LINE
8
BLACK
6
CONTINUOUS
10
4.4682894488188971
20
-4.4930299606299213
11
4.4681096456692915
21
-4.4921259842519685
0
LINE
8
BLACK
6
CONTINUOUS
10
4.4681096456692915
20
-4.4921259842519685
11
4.4681096456692915
21
-3.9409448818897639
0
LINE
8
BLACK
6
CONTINUOUS
10
4.4681096456692915
20
-3.9409448818897639
11
4.4682894488188971
21
-3.9400409055118111
0
LINE
8
BLACK
6
CONTINUOUS
10
4.4682894488188971
20
-3.9400409055118111
11
4.4695678740157483
21
-3.9387624803149603
0
LINE
8
BLACK
6
CONTINUOUS
10
4.4695678740157483
20
-3.9387624803149603
11
4.4704718503937011
21
-3.9385826771653543
0
LINE
8
BLACK
6
CONTINUOUS
10
4.4704718503937011
20
-3.9385826771653543
11
5.0216529527559057
21
-3.9385826771653543
0
LINE
8
BLACK
6
CONTINUOUS
10
5.0216529527559057
20
-3.9385826771653543
11
5.0225569291338585
21
-3.9387624803149603
0
LINE
8
BLACK
6
CONTINUOUS
10
4.4728340551181098
20
-3.9433070866141731
11
4.4728340551181098
21
-4.4897637795275589
0
LINE
8
BLACK
6
CONTINUOUS
10
4.4728340551181098
20
-4.4897637795275589
11
5.0192907480314961
21
-4.4897637795275589
0
LINE
8
BLACK
6
CONTINUOUS
10
5.0192907480314961
20
-4.4897637795275589
11
5.0192907480314961
21
-3.9433070866141731
0
LINE
8
BLACK
6
CONTINUOUS
10
5.0192907480314961
20
-3.9433070866141731
11
4.4728340551181098
21
-3.9433070866141731
0
LINE
8
BLACK
6
CONTINUOUS
10
4.2445024015748034
20
-3.8759908267716536
11
4.2457808267716537
21
-3.8772692519685039
0
LINE
8
BLACK
6
CONTINUOUS
10
4.2457808267716537
20
-3.8772692519685039
11
4.2459606299212593
21
-3.8781732283464567
0
LINE
8
BLACK
6
CONTINUOUS
10
4.2459606299212593
20
-3.8781732283464567
11
4.2459606299212593
21
-4.4293543307086614
0
LINE
8
BLACK
6
CONTINUOUS
10
4.2459606299212593
20
-4.4293543307086614
11
4.2457808267716537
21
-4.4302583070866142
0
LINE
8
BLACK
6
CONTINUOUS
10
4.2457808267716537
20
-4.4302583070866142
11
4.2445024015748034
21
-4.4315367322834645
0
LINE
8
BLACK
6
CONTINUOUS
10
4.2445024015748034
20
-4.4315367322834645
11
4.2435984251968506
21
-4.431716535433071
0
LINE
8
BLACK
6
CONTINUOUS
10
4.2435984251968506
20
-4.431716535433071
11
3.6304173228346457
21
-4.431716535433071
0
LINE
8
BLACK
6
CONTINUOUS
10
3.6304173228346457
20
-4.431716535433071
11
3.6295133464566929
21
-4.4315367322834645
0
LINE
8
BLACK
6
CONTINUOUS
10
3.6295133464566929
20
-4.4315367322834645
11
3.6282349212598426
21
-4.4302583070866142
0
LINE
8
BLACK
6
CONTINUOUS
10
3.6282349212598426
20
-4.4302583070866142
11
3.6280551181102361
21
-4.4293543307086614
0
LINE
8
BLACK
6
CONTINUOUS
10
3.6280551181102361
20
-4.4293543307086614
11
3.6280551181102361
21
-3.8781732283464567
0
LINE
8
BLACK
6
CONTINUOUS
10
3.6280551181102361
20
-3.8781732283464567
11
3.6282349212598426
21
-3.8772692519685039
0
LINE
8
BLACK
6
CONTINUOUS
10
3.6282349212598426
20
-3.8772692519685039
11
3.6295133464566929
21
-3.8759908267716536
0
LINE
8
BLACK
6
CONTINUOUS
10
3.6295133464566929
20
-3.8759908267716536
11
3.6304173228346457
21
-3.8758110236220471
0
LINE
8
BLACK
6
CONTINUOUS
10
3.6304173228346457
20
-3.8758110236220471
11
4.2435984251968506
21
-3.8758110236220471
0
LINE
8
BLACK
6
CONTINUOUS
10
4.2435984251968506
20
-3.8758110236220471
11
4.2445024015748034
21
-3.8759908267716536
0
LINE
8
BLACK
6
CONTINUOUS
10
3.6327795275590549
20
-3.8805354330708659
11
3.6327795275590549
21
-4.4269921259842517
0
LINE
8
BLACK
6
CONTINUOUS
10
3.6327795275590549
20
-4.4269921259842517
11
4.241236220472441
21
-4.4269921259842517
0
LINE
8
BLACK
6
CONTINUOUS
10
4.241236220472441
20
-4.4269921259842517
11
4.241236220472441
21
-3.8805354330708659
0
LINE
8
BLACK
6
CONTINUOUS
10
4.241236220472441
20
-3.8805354330708659
11
3.6327795275590549
21
-3.8805354330708659
0
LINE
8
BLACK
6
CONTINUOUS
10
5.7705884251968502
20
-3.8442742913385826
11
5.7718668503937005
21
-3.8455527165354328
0
LINE
8
BLACK
6
CONTINUOUS
10
5.7718668503937005
20
-3.8455527165354328
11
5.772046653543307
21
-3.8464566929133857
0
LINE
8
BLACK
6
CONTINUOUS
10
5.772046653543307
20
-3.8464566929133857
11
5.772046653543307
21
-4.3976377952755907
0
LINE
8
BLACK
6
CONTINUOUS
10
5.772046653543307
20
-4.3976377952755907
11
5.7718668503937005
21
-4.3985417716535435
0
LINE
8
BLACK
6
CONTINUOUS
10
5.7718668503937005
20
-4.3985417716535435
11
5.7705884251968502
21
-4.3998201968503938
0
LINE
8
BLACK
6
CONTINUOUS
10
5.7705884251968502
20
-4.3998201968503938
11
5.7696844488188974
21
-4.3999999999999995
0
LINE
8
BLACK
6
CONTINUOUS
10
5.7696844488188974
20
-4.3999999999999995
11
5.2185033464566928
21
-4.3999999999999995
0
LINE
8
BLACK
6
CONTINUOUS
10
5.2185033464566928
20
-4.3999999999999995
11
5.21759937007874
21
-4.3998201968503938
0
LINE
8
BLACK
6
CONTINUOUS
10
5.21759937007874
20
-4.3998201968503938
11
5.2163209448818897
21
-4.3985417716535435
0
LINE
8
BLACK
6
CONTINUOUS
10
5.2163209448818897
20
-4.3985417716535435
11
5.2161411417322832
21
-4.3976377952755907
0
LINE
8
BLACK
6
CONTINUOUS
10
5.2161411417322832
20
-4.3976377952755907
11
5.2161411417322832
21
-3.8464566929133857
0
LINE
8
BLACK
6
CONTINUOUS
10
5.2161411417322832
20
-3.8464566929133857
11
5.2163209448818897
21
-3.8455527165354328
0
LINE
8
BLACK
6
CONTINUOUS
10
5.2163209448818897
20
-3.8455527165354328
11
5.21759937007874
21
-3.8442742913385826
0
LINE
8
BLACK
6
CONTINUOUS
10
5.21759937007874
20
-3.8442742913385826
11
5.2185033464566928
21
-3.8440944881889765
0
LINE
8
BLACK
6
CONTINUOUS
10
5.2185033464566928
20
-3.8440944881889765
11
5.7696844488188974
21
-3.8440944881889765
0
LINE
8
BLACK
6
CONTINUOUS
10
5.7696844488188974
20
-3.8440944881889765
11
5.7705884251968502
21
-3.8442742913385826
0
LINE
8
BLACK
6
CONTINUOUS
10
5.2208655511811024
20
-3.8488188976377953
11
5.2208655511811024
21
-4.3952755905511811
0
LINE
8
BLACK
6
CONTINUOUS
10
5.2208655511811024
20
-4.3952755905511811
11
5.7673222440944878
21
-4.3952755905511811
0
LINE
8
BLACK
6
CONTINUOUS
10
5.7673222440944878
20
-4.3952755905511811
11
5.7673222440944878
21
-3.8488188976377953
0
LINE
8
BLACK
6
CONTINUOUS
10
5.7673222440944878
20
-3.8488188976377953
11
5.2208655511811024
21
-3.8488188976377953
0
LINE
8
BLACK
6
CONTINUOUS
10
7.2705884251968502
20
-3.8442742913385826
11
7.2718668503937005
21
-3.8455527165354328
0
LINE
8
BLACK
6
CONTINUOUS
10
7.2718668503937005
20
-3.8455527165354328
11
7.272046653543307
21
-3.8464566929133857
0
LINE
8
BLACK
6
CONTINUOUS
10
7.272046653543307
20
-3.8464566929133857
11
7.272046653543307
21
-4.3976377952755907
0
LINE
8
BLACK
6
CONTINUOUS
10
7.272046653543307
20
-4.3976377952755907
11
7.2718668503937005
21
-4.3985417716535435
0
LINE
8
BLACK
6
CONTINUOUS
10
7.2718668503937005
20
-4.3985417716535435
11
7.2705884251968502
21
-4.3998201968503938
0
LINE
8
BLACK
6
CONTINUOUS
10
7.2705884251968502
20
-4.3998201968503938
11
7.2696844488188974
21
-4.3999999999999995
0
LINE
8
BLACK
6
CONTINUOUS
10
7.2696844488188974
20
-4.3999999999999995
11
6.7185033464566928
21
-4.3999999999999995
0
LINE
8
BLACK
6
CONTINUOUS
10
6.7185033464566928
20
-4.3999999999999995
11
6.71759937007874
21
-4.3998201968503938
0
LINE
8
BLACK
6
CONTINUOUS
10
6.71759937007874
20
-4.3998201968503938
11
6.7163209448818897
21
-4.3985417716535435
0
LINE
8
BLACK
6
CONTINUOUS
10
6.7163209448818897
20
-4.3985417716535435
11
6.7161411417322832
21
-4.3976377952755907
0
LINE
8
BLACK
6
CONTINUOUS
10
6.7161411417322832
20
-4.3976377952755907
11
6.7161411417322832
21
-3.8464566929133857
0
LINE
8
BLACK
6
CONTINUOUS
10
6.7161411417322832
20
-3.8464566929133857
11
6.7163209448818897
21
-3.8455527165354328
0
LINE
8
BLACK
6
CONTINUOUS
10
6.7163209448818897
20
-3.8455527165354328
11
6.71759937007874
21
-3.8442742913385826
0
LINE
8
BLACK
6
CONTINUOUS
10
6.71759937007874
20
-3.8442742913385826
11
6.7185033464566928
21
-3.8440944881889765
0
LINE
8
BLACK
6
CONTINUOUS
10
6.7185033464566928
20
-3.8440944881889765
11
7.2696844488188974
21
-3.8440944881889765
0
LINE
8
BLACK
6
CONTINUOUS
10
7.2696844488188974
20
-3.8440944881889765
11
7.2705884251968502
21
-3.8442742913385826
0
LINE
8
BLACK
6
CONTINUOUS
10
6.7208655511811024
20
-3.8488188976377953
11
6.7208655511811024
21
-4.3952755905511811
0
LINE
8
BLACK
6
CONTINUOUS
10
6.7208655511811024
20
-4.3952755905511811
11
7.2673222440944878
21
-4.3952755905511811
0
LINE
8
BLACK
6
CONTINUOUS
10
7.2673222440944878
20
-4.3952755905511811
11
7.2673222440944878
21
-3.8488188976377953
0
LINE
8
BLACK
6
CONTINUOUS
10
7.2673222440944878
20
-3.8488188976377953
11
6.7208655511811024
21
-3.8488188976377953
0
LINE
8
BLACK
6
CONTINUOUS
10
6.5225575196850389
20
-3.7454553937007873
11
6.5238359448818892
21
-3.7467338188976376
0
LINE
8
BLACK
6
CONTINUOUS
10
6.5238359448818892
20
-3.7467338188976376
11
6.5240157480314958
21
-3.7476377952755904
0
LINE
8
BLACK
6
CONTINUOUS
10
6.5240157480314958
20
-3.7476377952755904
11
6.5240157480314958
21
-4.298818897637795
0
LINE
8
BLACK
6
CONTINUOUS
10
6.5240157480314958
20
-4.298818897637795
11
6.5238359448818892
21
-4.2997228740157478
0
LINE
8
BLACK
6
CONTINUOUS
10
6.5238359448818892
20
-4.2997228740157478
11
6.5225575196850389
21
-4.3010012992125981
0
LINE
8
BLACK
6
CONTINUOUS
10
6.5225575196850389
20
-4.3010012992125981
11
6.5216535433070861
21
-4.3011811023622046
0
LINE
8
BLACK
6
CONTINUOUS
10
6.5216535433070861
20
-4.3011811023622046
11
5.9704724409448815
21
-4.3011811023622046
0
LINE
8
BLACK
6
CONTINUOUS
10
5.9704724409448815
20
-4.3011811023622046
11
5.9695684645669287
21
-4.3010012992125981
0
LINE
8
BLACK
6
CONTINUOUS
10
5.9695684645669287
20
-4.3010012992125981
11
5.9682900393700784
21
-4.2997228740157478
0
LINE
8
BLACK
6
CONTINUOUS
10
5.9682900393700784
20
-4.2997228740157478
11
5.9681102362204719
21
-4.298818897637795
0
LINE
8
BLACK
6
CONTINUOUS
10
5.9681102362204719
20
-4.298818897637795
11
5.9681102362204719
21
-3.7476377952755904
0
LINE
8
BLACK
6
CONTINUOUS
10
5.9681102362204719
20
-3.7476377952755904
11
5.9682900393700784
21
-3.7467338188976376
0
LINE
8
BLACK
6
CONTINUOUS
10
5.9682900393700784
20
-3.7467338188976376
11
5.9695684645669287
21
-3.7454553937007873
0
LINE
8
BLACK
6
CONTINUOUS
10
5.9695684645669287
20
-3.7454553937007873
11
5.9704724409448815
21
-3.7452755905511812
0
LINE
8
BLACK
6
CONTINUOUS
10
5.9704724409448815
20
-3.7452755905511812
11
6.5216535433070861
21
-3.7452755905511812
0
LINE
8
BLACK
6
CONTINUOUS
10
6.5216535433070861
20
-3.7452755905511812
11
6.5225575196850389
21
-3.7454553937007873
0
LINE
8
BLACK
6
CONTINUOUS
10
5.9728346456692911
20
-3.75
11
5.9728346456692911
21
-4.2964566929133854
0
LINE
8
BLACK
6
CONTINUOUS
10
5.9728346456692911
20
-4.2964566929133854
11
6.5192913385826774
21
-4.2964566929133854
0
LINE
8
BLACK
6
CONTINUOUS
10
6.5192913385826774
20
-4.2964566929133854
11
6.5192913385826774
21
-3.75
0
LINE
8
BLACK
6
CONTINUOUS
10
6.5192913385826774
20
-3.75
11
5.9728346456692911
21
-3.75
0
LINE
8
BLACK
6
CONTINUOUS
10
8.127695354330708
20
-3.9018415354330709
11
8.1344522047244094
21
-3.9040369685039371
0
LINE
8
BLACK
6
CONTINUOUS
10
8.1344522047244094
20
-3.9040369685039371
11
8.1407824015748034
21
-3.9072623622047242
0
LINE
8
BLACK
6
CONTINUOUS
10
8.1407824015748034
20
-3.9072623622047242
11
8.1465301181102365
21
-3.9114383070866139
0
LINE
8
BLACK
6
CONTINUOUS
10
8.1465301181102365
20
-3.9114383070866139
11
8.1515538188976375
21
-3.9164620078740158
0
LINE
8
BLACK
6
CONTINUOUS
10
8.1515538188976375
20
-3.9164620078740158
11
8.1557297637795276
21
-3.9222097244094489
0
LINE
8
BLACK
6
CONTINUOUS
10
8.1557297637795276
20
-3.9222097244094489
11
8.1589551574803156
21
-3.9285399212598424
0
LINE
8
BLACK
6
CONTINUOUS
10
8.1589551574803156
20
-3.9285399212598424
11
8.1611505905511805
21
-3.9352967716535434
0
LINE
8
BLACK
6
CONTINUOUS
10
8.1611505905511805
20
-3.9352967716535434
11
8.1622620078740162
21
-3.9423138582677164
0
LINE
8
BLACK
6
CONTINUOUS
10
8.1622620078740162
20
-3.9423138582677164
11
8.1622620078740162
21
-3.9494184251968503
0
LINE
8
BLACK
6
CONTINUOUS
10
8.1622620078740162
20
-3.9494184251968503
11
8.1611505905511805
21
-3.9564355118110237
0
LINE
8
BLACK
6
CONTINUOUS
10
8.1611505905511805
20
-3.9564355118110237
11
8.1589551574803156
21
-3.9631923622047243
0
LINE
8
BLACK
6
CONTINUOUS
10
8.1589551574803156
20
-3.9631923622047243
11
8.1557297637795276
21
-3.9695225590551182
0
LINE
8
BLACK
6
CONTINUOUS
10
8.1557297637795276
20
-3.9695225590551182
11
8.1515538188976375
21
-3.9752702755905509
0
LINE
8
BLACK
6
CONTINUOUS
10
8.1515538188976375
20
-3.9752702755905509
11
8.1465301181102365
21
-3.9802939763779528
0
LINE
8
BLACK
6
CONTINUOUS
10
8.1465301181102365
20
-3.9802939763779528
11
8.1407824015748034
21
-3.9844699212598425
0
LINE
8
BLACK
6
CONTINUOUS
10
8.1407824015748034
20
-3.9844699212598425
11
8.1344522047244094
21
-3.98769531496063
0
LINE
8
BLACK
6
CONTINUOUS
10
8.1344522047244094
20
-3.98769531496063
11
8.127695354330708
21
-3.9898907480314958
0
LINE
8
BLACK
6
CONTINUOUS
10
8.127695354330708
20
-3.9898907480314958
11
8.120678267716535
21
-3.9910021653543306
0
LINE
8
BLACK
6
CONTINUOUS
10
8.120678267716535
20
-3.9910021653543306
11
8.113573700787402
21
-3.9910021653543306
0
LINE
8
BLACK
6
CONTINUOUS
10
8.113573700787402
20
-3.9910021653543306
11
8.106556614173229
21
-3.9898907480314958
0
LINE
8
BLACK
6
CONTINUOUS
10
8.106556614173229
20
-3.9898907480314958
11
8.0997997637795276
21
-3.98769531496063
0
LINE
8
BLACK
6
CONTINUOUS
10
8.0997997637795276
20
-3.98769531496063
11
8.0934695669291337
21
-3.9844699212598425
0
LINE
8
BLACK
6
CONTINUOUS
10
8.0934695669291337
20
-3.9844699212598425
11
8.0877218503937005
21
-3.9802939763779528
0
LINE
8
BLACK
6
CONTINUOUS
10
8.0877218503937005
20
-3.9802939763779528
11
8.0826981496062995
21
-3.9752702755905509
0
LINE
8
BLACK
6
CONTINUOUS
10
8.0826981496062995
20
-3.9752702755905509
11
8.0785222047244094
21
-3.9695225590551182
0
LINE
8
BLACK
6
CONTINUOUS
10
8.0785222047244094
20
-3.9695225590551182
11
8.0752968110236214
21
-3.9631923622047243
0
LINE
8
BLACK
6
CONTINUOUS
10
8.0752968110236214
20
-3.9631923622047243
11
8.0731013779527565
21
-3.9564355118110237
0
LINE
8
BLACK
6
CONTINUOUS
10
8.0731013779527565
20
-3.9564355118110237
11
8.0719899606299208
21
-3.9494184251968503
0
LINE
8
BLACK
6
CONTINUOUS
10
8.0719899606299208
20
-3.9494184251968503
11
8.0719899606299208
21
-3.9423138582677164
0
LINE
8
BLACK
6
CONTINUOUS
10
8.0719899606299208
20
-3.9423138582677164
11
8.0720722047244085
21
-3.9417946456692912
0
LINE
8
BLACK
6
CONTINUOUS
10
8.0720722047244085
20
-3.9417946456692912
11
8.0731013779527565
21
-3.9352967716535434
0
LINE
8
BLACK
6
CONTINUOUS
10
8.0731013779527565
20
-3.9352967716535434
11
8.0752968110236214
21
-3.9285399212598424
0
LINE
8
BLACK
6
CONTINUOUS
10
8.0752968110236214
20
-3.9285399212598424
11
8.0785222047244094
21
-3.9222097244094489
0
LINE
8
BLACK
6
CONTINUOUS
10
8.0785222047244094
20
-3.9222097244094489
11
8.0826981496062995
21
-3.9164620078740158
0
LINE
8
BLACK
6
CONTINUOUS
10
8.0826981496062995
20
-3.9164620078740158
11
8.0877218503937005
21
-3.9114383070866139
0
LINE
8
BLACK
6
CONTINUOUS
10
8.0877218503937005
20
-3.9114383070866139
11
8.0934695669291337
21
-3.9072623622047242
0
LINE
8
BLACK
6
CONTINUOUS
10
8.0934695669291337
20
-3.9072623622047242
11
8.0997997637795276
21
-3.9040369685039371
0
LINE
8
BLACK
6
CONTINUOUS
10
8.0997997637795276
20
-3.9040369685039371
11
8.106556614173229
21
-3.9018415354330709
0
LINE
8
BLACK
6
CONTINUOUS
10
8.106556614173229
20
-3.9018415354330709
11
8.113573700787402
21
-3.9007301181102361
0
LINE
8
BLACK
6
CONTINUOUS
10
8.113573700787402
20
-3.9007301181102361
11
8.120678267716535
21
-3.9007301181102361
0
LINE
8
BLACK
6
CONTINUOUS
10
8.120678267716535
20
-3.9007301181102361
11
8.127695354330708
21
-3.9018415354330709
0
LINE
8
BLACK
6
CONTINUOUS
10
8.0757874015748037
20
-3.9499376377952755
11
8.0773759842519688
21
-3.9579241732283466
0
LINE
8
BLACK
6
CONTINUOUS
10
8.0773759842519688
20
-3.9579241732283466
11
8.0804922047244094
21
-3.9654473228346454
0
LINE
8
BLACK
6
CONTINUOUS
10
8.0804922047244094
20
-3.9654473228346454
11
8.0850161811023629
21
-3.9722179527559054
0
LINE
8
BLACK
6
CONTINUOUS
10
8.0850161811023629
20
-3.9722179527559054
11
8.0907741732283469
21
-3.9779759448818899
0
LINE
8
BLACK
6
CONTINUOUS
10
8.0907741732283469
20
-3.9779759448818899
11
8.0975448031496065
21
-3.9824999212598424
0
LINE
8
BLACK
6
CONTINUOUS
10
8.0975448031496065
20
-3.9824999212598424
11
8.1050679527559062
21
-3.9856161417322835
0
LINE
8
BLACK
6
CONTINUOUS
10
8.1050679527559062
20
-3.9856161417322835
11
8.1130544881889755
21
-3.9872047244094486
0
LINE
8
BLACK
6
CONTINUOUS
10
8.1130544881889755
20
-3.9872047244094486
11
8.1211974803149598
21
-3.9872047244094486
0
LINE
8
BLACK
6
CONTINUOUS
10
8.1211974803149598
20
-3.9872047244094486
11
8.1291840157480308
21
-3.9856161417322835
0
LINE
8
BLACK
6
CONTINUOUS
10
8.1291840157480308
20
-3.9856161417322835
11
8.1367071653543306
21
-3.9824999212598424
0
LINE
8
BLACK
6
CONTINUOUS
10
8.1367071653543306
20
-3.9824999212598424
11
8.1434777952755901
21
-3.9779759448818899
0
LINE
8
BLACK
6
CONTINUOUS
10
8.1434777952755901
20
-3.9779759448818899
11
8.1492357874015742
21
-3.9722179527559054
0
LINE
8
BLACK
6
CONTINUOUS
10
8.1492357874015742
20
-3.9722179527559054
11
8.1537597637795276
21
-3.9654473228346454
0
LINE
8
BLACK
6
CONTINUOUS
10
8.1537597637795276
20
-3.9654473228346454
11
8.1568759842519682
21
-3.9579241732283466
0
LINE
8
BLACK
6
CONTINUOUS
10
8.1568759842519682
20
-3.9579241732283466
11
8.1584645669291334
21
-3.9499376377952755
0
LINE
8
BLACK
6
CONTINUOUS
10
8.1584645669291334
20
-3.9499376377952755
11
8.1584645669291334
21
-3.9417946456692912
0
LINE
8
BLACK
6
CONTINUOUS
10
8.1584645669291334
20
-3.9417946456692912
11
8.1568759842519682
21
-3.9338081102362206
0
LINE
8
BLACK
6
CONTINUOUS
10
8.1568759842519682
20
-3.9338081102362206
11
8.1537597637795276
21
-3.9262849606299213
0
LINE
8
BLACK
6
CONTINUOUS
10
8.1537597637795276
20
-3.9262849606299213
11
8.1492357874015742
21
-3.9195143307086613
0
LINE
8
BLACK
6
CONTINUOUS
10
8.1492357874015742
20
-3.9195143307086613
11
8.1434777952755901
21
-3.9137563385826772
0
LINE
8
BLACK
6
CONTINUOUS
10
8.1434777952755901
20
-3.9137563385826772
11
8.1367071653543306
21
-3.9092323622047243
0
LINE
8
BLACK
6
CONTINUOUS
10
8.1367071653543306
20
-3.9092323622047243
11
8.1291840157480308
21
-3.9061161417322832
0
LINE
8
BLACK
6
CONTINUOUS
10
8.1291840157480308
20
-3.9061161417322832
11
8.1211974803149598
21
-3.9045275590551181
0
LINE
8
BLACK
6
CONTINUOUS
10
8.1211974803149598
20
-3.9045275590551181
11
8.1130544881889755
21
-3.9045275590551181
0
LINE
8
BLACK
6
CONTINUOUS
10
8.1130544881889755
20
-3.9045275590551181
11
8.1050679527559062
21
-3.9061161417322832
0
LINE
8
BLACK
6
CONTINUOUS
10
8.1050679527559062
20
-3.9061161417322832
11
8.0975448031496065
21
-3.9092323622047243
0
LINE
8
BLACK
6
CONTINUOUS
10
8.0975448031496065
20
-3.9092323622047243
11
8.0907741732283469
21
-3.9137563385826772
0
LINE
8
BLACK
6
CONTINUOUS
10
8.0907741732283469
20
-3.9137563385826772
11
8.0850161811023629
21
-3.9195143307086613
0
LINE
8
BLACK
6
CONTINUOUS
10
8.0850161811023629
20
-3.9195143307086613
11
8.0804922047244094
21
-3.9262849606299213
0
LINE
8
BLACK
6
CONTINUOUS
10
8.0804922047244094
20
-3.9262849606299213
11
8.0773759842519688
21
-3.9338081102362206
0
LINE
8
BLACK
6
CONTINUOUS
10
8.0773759842519688
20
-3.9338081102362206
11
8.0757874015748037
21
-3.9417946456692912
0
LINE
8
BLACK
6
CONTINUOUS
10
8.0757874015748037
20
-3.9417946456692912
11
8.0757874015748037
21
-3.9499376377952755
0
LINE
8
BLACK
6
CONTINUOUS
10
5.1296638582677163
20
-3.8053848425196848
11
5.1364207086614169
21
-3.807580275590551
0
LINE
8
BLACK
6
CONTINUOUS
10
5.1364207086614169
20
-3.807580275590551
11
5.1427509055118108
21
-3.8108056692913386
0
LINE
8
BLACK
6
CONTINUOUS
10
5.1427509055118108
20
-3.8108056692913386
11
5.148498622047244
21
-3.8149816141732282
0
LINE
8
BLACK
6
CONTINUOUS
10
5.148498622047244
20
-3.8149816141732282
11
5.1535223228346458
21
-3.8200053149606297
0
LINE
8
BLACK
6
CONTINUOUS
10
5.1535223228346458
20
-3.8200053149606297
11
5.1576982677165351
21
-3.8257530314960628
0
LINE
8
BLACK
6
CONTINUOUS
10
5.1576982677165351
20
-3.8257530314960628
11
5.1609236614173231
21
-3.8320832283464568
0
LINE
8
BLACK
6
CONTINUOUS
10
5.1609236614173231
20
-3.8320832283464568
11
5.1631190944881888
21
-3.8388400787401573
0
LINE
8
BLACK
6
CONTINUOUS
10
5.1631190944881888
20
-3.8388400787401573
11
5.1642305118110237
21
-3.8458571653543308
0
LINE
8
BLACK
6
CONTINUOUS
10
5.1642305118110237
20
-3.8458571653543308
11
5.1642305118110237
21
-3.8529617322834646
0
LINE
8
BLACK
6
CONTINUOUS
10
5.1642305118110237
20
-3.8529617322834646
11
5.1631190944881888
21
-3.8599788188976376
0
LINE
8
BLACK
6
CONTINUOUS
10
5.1631190944881888
20
-3.8599788188976376
11
5.1609236614173231
21
-3.8667356692913386
0
LINE
8
BLACK
6
CONTINUOUS
10
5.1609236614173231
20
-3.8667356692913386
11
5.1576982677165351
21
-3.8730658661417321
0
LINE
8
BLACK
6
CONTINUOUS
10
5.1576982677165351
20
-3.8730658661417321
11
5.1535223228346458
21
-3.8788135826771653
0
LINE
8
BLACK
6
CONTINUOUS
10
5.1535223228346458
20
-3.8788135826771653
11
5.148498622047244
21
-3.8838372834645667
0
LINE
8
BLACK
6
CONTINUOUS
10
5.148498622047244
20
-3.8838372834645667
11
5.1427509055118108
21
-3.8880132283464568
0
LINE
8
BLACK
6
CONTINUOUS
10
5.1427509055118108
20
-3.8880132283464568
11
5.1364207086614169
21
-3.8912386220472439
0
LINE
8
BLACK
6
CONTINUOUS
10
5.1364207086614169
20
-3.8912386220472439
11
5.1296638582677163
21
-3.8934340551181101
0
LINE
8
BLACK
6
CONTINUOUS
10
5.1296638582677163
20
-3.8934340551181101
11
5.1226467716535433
21
-3.894545472440945
0
LINE
8
BLACK
6
CONTINUOUS
10
5.1226467716535433
20
-3.894545472440945
11
5.1155422047244095
21
-3.894545472440945
0
LINE
8
BLACK
6
CONTINUOUS
10
5.1155422047244095
20
-3.894545472440945
11
5.1085251181102365
21
-3.8934340551181101
0
LINE
8
BLACK
6
CONTINUOUS
10
5.1085251181102365
20
-3.8934340551181101
11
5.101768267716535
21
-3.8912386220472439
0
LINE
8
BLACK
6
CONTINUOUS
10
5.101768267716535
20
-3.8912386220472439
11
5.095438070866142
21
-3.8880132283464568
0
LINE
8
BLACK
6
CONTINUOUS
10
5.095438070866142
20
-3.8880132283464568
11
5.0896903543307088
21
-3.8838372834645667
0
LINE
8
BLACK
6
CONTINUOUS
10
5.0896903543307088
20
-3.8838372834645667
11
5.0846666535433069
21
-3.8788135826771653
0
LINE
8
BLACK
6
CONTINUOUS
10
5.0846666535433069
20
-3.8788135826771653
11
5.0804907086614168
21
-3.8730658661417321
0
LINE
8
BLACK
6
CONTINUOUS
10
5.0804907086614168
20
-3.8730658661417321
11
5.0772653149606297
21
-3.8667356692913386
0
LINE
8
BLACK
6
CONTINUOUS
10
5.0772653149606297
20
-3.8667356692913386
11
5.0750698818897639
21
-3.8599788188976376
0
LINE
8
BLACK
6
CONTINUOUS
10
5.0750698818897639
20
-3.8599788188976376
11
5.0739584645669291
21
-3.8529617322834646
0
LINE
8
BLACK
6
CONTINUOUS
10
5.0739584645669291
20
-3.8529617322834646
11
5.0739584645669291
21
-3.8458571653543308
0
LINE
8
BLACK
6
CONTINUOUS
10
5.0739584645669291
20
-3.8458571653543308
11
5.0740407086614168
21
-3.8453379527559055
0
LINE
8
BLACK
6
CONTINUOUS
10
5.0740407086614168
20
-3.8453379527559055
11
5.0750698818897639
21
-3.8388400787401573
0
LINE
8
BLACK
6
CONTINUOUS
10
5.0750698818897639
20
-3.8388400787401573
11
5.0772653149606297
21
-3.8320832283464568
0
LINE
8
BLACK
6
CONTINUOUS
10
5.0772653149606297
20
-3.8320832283464568
11
5.0804907086614168
21
-3.8257530314960628
0
LINE
8
BLACK
6
CONTINUOUS
10
5.0804907086614168
20
-3.8257530314960628
11
5.0846666535433069
21
-3.8200053149606297
0
LINE
8
BLACK
6
CONTINUOUS
10
5.0846666535433069
20
-3.8200053149606297
11
5.0896903543307088
21
-3.8149816141732282
0
LINE
8
BLACK
6
CONTINUOUS
10
5.0896903543307088
20
-3.8149816141732282
11
5.095438070866142
21
-3.8108056692913386
0
LINE
8
BLACK
6
CONTINUOUS
10
5.095438070866142
20
-3.8108056692913386
11
5.101768267716535
21
-3.807580275590551
0
LINE
8
BLACK
6
CONTINUOUS
10
5.101768267716535
20
-3.807580275590551
11
5.1085251181102365
21
-3.8053848425196848
0
LINE
8
BLACK
6
CONTINUOUS
10
5.1085251181102365
20
-3.8053848425196848
11
5.1155422047244095
21
-3.8042734251968504
0
LINE
8
BLACK
6
CONTINUOUS
10
5.1155422047244095
20
-3.8042734251968504
11
5.1226467716535433
21
-3.8042734251968504
0
LINE
8
BLACK
6
CONTINUOUS
10
5.1226467716535433
20
-3.8042734251968504
11
5.1296638582677163
21
-3.8053848425196848
0
LINE
8
BLACK
6
CONTINUOUS
10
5.0777559055118111
20
-3.8534809448818899
11
5.0793444881889762
21
-3.8614674803149605
0
LINE
8
BLACK
6
CONTINUOUS
10
5.0793444881889762
20
-3.8614674803149605
11
5.0824607086614169
21
-3.8689906299212597
0
LINE
8
BLACK
6
CONTINUOUS
10
5.0824607086614169
20
-3.8689906299212597
11
5.0869846850393703
21
-3.8757612598425197
0
LINE
8
BLACK
6
CONTINUOUS
10
5.0869846850393703
20
-3.8757612598425197
11
5.0927426771653543
21
-3.8815192519685038
0
LINE
8
BLACK
6
CONTINUOUS
10
5.0927426771653543
20
-3.8815192519685038
11
5.0995133070866139
21
-3.8860432283464568
0
LINE
8
BLACK
6
CONTINUOUS
10
5.0995133070866139
20
-3.8860432283464568
11
5.1070364566929136
21
-3.8891594488188974
0
LINE
8
BLACK
6
CONTINUOUS
10
5.1070364566929136
20
-3.8891594488188974
11
5.1150229921259838
21
-3.890748031496063
0
LINE
8
BLACK
6
CONTINUOUS
10
5.1150229921259838
20
-3.890748031496063
11
5.1231659842519681
21
-3.890748031496063
0
LINE
8
BLACK
6
CONTINUOUS
10
5.1231659842519681
20
-3.890748031496063
11
5.1311525196850392
21
-3.8891594488188974
0
LINE
8
BLACK
6
CONTINUOUS
10
5.1311525196850392
20
-3.8891594488188974
11
5.1386756692913389
21
-3.8860432283464568
0
LINE
8
BLACK
6
CONTINUOUS
10
5.1386756692913389
20
-3.8860432283464568
11
5.1454462992125984
21
-3.8815192519685038
0
LINE
8
BLACK
6
CONTINUOUS
10
5.1454462992125984
20
-3.8815192519685038
11
5.1512042913385825
21
-3.8757612598425197
0
LINE
8
BLACK
6
CONTINUOUS
10
5.1512042913385825
20
-3.8757612598425197
11
5.155728267716535
21
-3.8689906299212597
0
LINE
8
BLACK
6
CONTINUOUS
10
5.155728267716535
20
-3.8689906299212597
11
5.1588444881889766
21
-3.8614674803149605
0
LINE
8
BLACK
6
CONTINUOUS
10
5.1588444881889766
20
-3.8614674803149605
11
5.1604330708661417
21
-3.8534809448818899
0
LINE
8
BLACK
6
CONTINUOUS
10
5.1604330708661417
20
-3.8534809448818899
11
5.1604330708661417
21
-3.8453379527559055
0
LINE
8
BLACK
6
CONTINUOUS
10
5.1604330708661417
20
-3.8453379527559055
11
5.1588444881889766
21
-3.8373514173228345
0
LINE
8
BLACK
6
CONTINUOUS
10
5.1588444881889766
20
-3.8373514173228345
11
5.155728267716535
21
-3.8298282677165352
0
LINE
8
BLACK
6
CONTINUOUS
10
5.155728267716535
20
-3.8298282677165352
11
5.1512042913385825
21
-3.8230576377952756
0
LINE
8
BLACK
6
CONTINUOUS
10
5.1512042913385825
20
-3.8230576377952756
11
5.1454462992125984
21
-3.8172996456692911
0
LINE
8
BLACK
6
CONTINUOUS
10
5.1454462992125984
20
-3.8172996456692911
11
5.1386756692913389
21
-3.8127756692913386
0
LINE
8
BLACK
6
CONTINUOUS
10
5.1386756692913389
20
-3.8127756692913386
11
5.1311525196850392
21
-3.8096594488188975
0
LINE
8
BLACK
6
CONTINUOUS
10
5.1311525196850392
20
-3.8096594488188975
11
5.1231659842519681
21
-3.8080708661417324
0
LINE
8
BLACK
6
CONTINUOUS
10
5.1231659842519681
20
-3.8080708661417324
11
5.1150229921259838
21
-3.8080708661417324
0
LINE
8
BLACK
6
CONTINUOUS
10
5.1150229921259838
20
-3.8080708661417324
11
5.1070364566929136
21
-3.8096594488188975
0
LINE
8
BLACK
6
CONTINUOUS
10
5.1070364566929136
20
-3.8096594488188975
11
5.0995133070866139
21
-3.8127756692913386
0
LINE
8
BLACK
6
CONTINUOUS
10
5.0995133070866139
20
-3.8127756692913386
11
5.0927426771653543
21
-3.8172996456692911
0
LINE
8
BLACK
6
CONTINUOUS
10
5.0927426771653543
20
-3.8172996456692911
11
5.0869846850393703
21
-3.8230576377952756
0
LINE
8
BLACK
6
CONTINUOUS
10
5.0869846850393703
20
-3.8230576377952756
11
5.0824607086614169
21
-3.8298282677165352
0
LINE
8
BLACK
6
CONTINUOUS
10
5.0824607086614169
20
-3.8298282677165352
11
5.0793444881889762
21
-3.8373514173228345
0
LINE
8
BLACK
6
CONTINUOUS
10
5.0793444881889762
20
-3.8373514173228345
11
5.0777559055118111
21
-3.8453379527559055
0
LINE
8
BLACK
6
CONTINUOUS
10
5.0777559055118111
20
-3.8453379527559055
11
5.0777559055118111
21
-3.8534809448818899
0
LINE
8
BLACK
6
CONTINUOUS
10
8.0225575196850389
20
-3.2852191732283464
11
8.0238359448818901
21
-3.2864975984251967
0
LINE
8
BLACK
6
CONTINUOUS
10
8.0238359448818901
20
-3.2864975984251967
11
8.0240157480314966
21
-3.2874015748031495
0
LINE
8
BLACK
6
CONTINUOUS
10
8.0240157480314966
20
-3.2874015748031495
11
8.0240157480314966
21
-3.8385826771653542
0
LINE
8
BLACK
6
CONTINUOUS
10
8.0240157480314966
20
-3.8385826771653542
11
8.0238359448818901
21
-3.839486653543307
0
LINE
8
BLACK
6
CONTINUOUS
10
8.0238359448818901
20
-3.839486653543307
11
8.0225575196850389
21
-3.8407650787401573
0
LINE
8
BLACK
6
CONTINUOUS
10
8.0225575196850389
20
-3.8407650787401573
11
8.021653543307087
21
-3.8409448818897638
0
LINE
8
BLACK
6
CONTINUOUS
10
8.021653543307087
20
-3.8409448818897638
11
7.4704724409448815
21
-3.8409448818897638
0
LINE
8
BLACK
6
CONTINUOUS
10
7.4704724409448815
20
-3.8409448818897638
11
7.4695684645669287
21
-3.8407650787401573
0
LINE
8
BLACK
6
CONTINUOUS
10
7.4695684645669287
20
-3.8407650787401573
11
7.4682900393700784
21
-3.839486653543307
0
LINE
8
BLACK
6
CONTINUOUS
10
7.4682900393700784
20
-3.839486653543307
11
7.4681102362204719
21
-3.8385826771653542
0
LINE
8
BLACK
6
CONTINUOUS
10
7.4681102362204719
20
-3.8385826771653542
11
7.4681102362204719
21
-3.2874015748031495
0
LINE
8
BLACK
6
CONTINUOUS
10
7.4681102362204719
20
-3.2874015748031495
11
7.4682900393700784
21
-3.2864975984251967
0
LINE
8
BLACK
6
CONTINUOUS
10
7.4682900393700784
20
-3.2864975984251967
11
7.4695684645669287
21
-3.2852191732283464
0
LINE
8
BLACK
6
CONTINUOUS
10
7.4695684645669287
20
-3.2852191732283464
11
7.4704724409448815
21
-3.2850393700787399
0
LINE
8
BLACK
6
CONTINUOUS
10
7.4704724409448815
20
-3.2850393700787399
11
8.021653543307087
21
-3.2850393700787399
0
LINE
8
BLACK
6
CONTINUOUS
10
8.021653543307087
20
-3.2850393700787399
11
8.0225575196850389
21
-3.2852191732283464
0
LINE
8
BLACK
6
CONTINUOUS
10
7.4728346456692911
20
-3.2897637795275592
11
7.4728346456692911
21
-3.836220472440945
0
LINE
8
BLACK
6
CONTINUOUS
10
7.4728346456692911
20
-3.836220472440945
11
8.0192913385826774
21
-3.836220472440945
0
LINE
8
BLACK
6
CONTINUOUS
10
8.0192913385826774
20
-3.836220472440945
11
8.0192913385826774
21
-3.2897637795275592
0
LINE
8
BLACK
6
CONTINUOUS
10
8.0192913385826774
20
-3.2897637795275592
11
7.4728346456692911
21
-3.2897637795275592
0
LINE
8
BLACK
6
CONTINUOUS
10
8.7705884251968502
20
-3.2852191732283464
11
8.7718668503937014
21
-3.2864975984251967
0
LINE
8
BLACK
6
CONTINUOUS
10
8.7718668503937014
20
-3.2864975984251967
11
8.7720466535433061
21
-3.2874015748031495
0
LINE
8
BLACK
6
CONTINUOUS
10
8.7720466535433061
20
-3.2874015748031495
11
8.7720466535433061
21
-3.8385826771653542
0
LINE
8
BLACK
6
CONTINUOUS
10
8.7720466535433061
20
-3.8385826771653542
11
8.7718668503937014
21
-3.839486653543307
0
LINE
8
BLACK
6
CONTINUOUS
10
8.7718668503937014
20
-3.839486653543307
11
8.7705884251968502
21
-3.8407650787401573
0
LINE
8
BLACK
6
CONTINUOUS
10
8.7705884251968502
20
-3.8407650787401573
11
8.7696844488188983
21
-3.8409448818897638
0
LINE
8
BLACK
6
CONTINUOUS
10
8.7696844488188983
20
-3.8409448818897638
11
8.2185033464566928
21
-3.8409448818897638
0
LINE
8
BLACK
6
CONTINUOUS
10
8.2185033464566928
20
-3.8409448818897638
11
8.2175993700787391
21
-3.8407650787401573
0
LINE
8
BLACK
6
CONTINUOUS
10
8.2175993700787391
20
-3.8407650787401573
11
8.2163209448818897
21
-3.839486653543307
0
LINE
8
BLACK
6
CONTINUOUS
10
8.2163209448818897
20
-3.839486653543307
11
8.2161411417322832
21
-3.8385826771653542
0
LINE
8
BLACK
6
CONTINUOUS
10
8.2161411417322832
20
-3.8385826771653542
11
8.2161411417322832
21
-3.2874015748031495
0
LINE
8
BLACK
6
CONTINUOUS
10
8.2161411417322832
20
-3.2874015748031495
11
8.2163209448818897
21
-3.2864975984251967
0
LINE
8
BLACK
6
CONTINUOUS
10
8.2163209448818897
20
-3.2864975984251967
11
8.2175993700787391
21
-3.2852191732283464
0
LINE
8
BLACK
6
CONTINUOUS
10
8.2175993700787391
20
-3.2852191732283464
11
8.2185033464566928
21
-3.2850393700787399
0
LINE
8
BLACK
6
CONTINUOUS
10
8.2185033464566928
20
-3.2850393700787399
11
8.7696844488188983
21
-3.2850393700787399
0
LINE
8
BLACK
6
CONTINUOUS
10
8.7696844488188983
20
-3.2850393700787399
11
8.7705884251968502
21
-3.2852191732283464
0
LINE
8
BLACK
6
CONTINUOUS
10
8.2208655511811024
20
-3.2897637795275592
11
8.2208655511811024
21
-3.836220472440945
0
LINE
8
BLACK
6
CONTINUOUS
10
8.2208655511811024
20
-3.836220472440945
11
8.7673222440944887
21
-3.836220472440945
0
LINE
8
BLACK
6
CONTINUOUS
10
8.7673222440944887
20
-3.836220472440945
11
8.7673222440944887
21
-3.2897637795275592
0
LINE
8
BLACK
6
CONTINUOUS
10
8.7673222440944887
20
-3.2897637795275592
11
8.2208655511811024
21
-3.2897637795275592
0
LINE
8
BLACK
6
CONTINUOUS
10
5.0225575196850389
20
-3.1907309842519682
11
5.0238359448818892
21
-3.1920094094488189
0
LINE
8
BLACK
6
CONTINUOUS
10
5.0238359448818892
20
-3.1920094094488189
11
5.0240157480314958
21
-3.1929133858267718
0
LINE
8
BLACK
6
CONTINUOUS
10
5.0240157480314958
20
-3.1929133858267718
11
5.0240157480314958
21
-3.7440944881889764
0
LINE
8
BLACK
6
CONTINUOUS
10
5.0240157480314958
20
-3.7440944881889764
11
5.0238359448818892
21
-3.7449984645669292
0
LINE
8
BLACK
6
CONTINUOUS
10
5.0238359448818892
20
-3.7449984645669292
11
5.0225575196850389
21
-3.7462768897637795
0
LINE
8
BLACK
6
CONTINUOUS
10
5.0225575196850389
20
-3.7462768897637795
11
5.0216535433070861
21
-3.7464566929133856
0
LINE
8
BLACK
6
CONTINUOUS
10
5.0216535433070861
20
-3.7464566929133856
11
4.4704724409448815
21
-3.7464566929133856
0
LINE
8
BLACK
6
CONTINUOUS
10
4.4704724409448815
20
-3.7464566929133856
11
4.4695684645669287
21
-3.7462768897637795
0
LINE
8
BLACK
6
CONTINUOUS
10
4.4695684645669287
20
-3.7462768897637795
11
4.4682900393700784
21
-3.7449984645669292
0
LINE
8
BLACK
6
CONTINUOUS
10
4.4682900393700784
20
-3.7449984645669292
11
4.4681102362204728
21
-3.7440944881889764
0
LINE
8
BLACK
6
CONTINUOUS
10
4.4681102362204728
20
-3.7440944881889764
11
4.4681102362204728
21
-3.1929133858267718
0
LINE
8
BLACK
6
CONTINUOUS
10
4.4681102362204728
20
-3.1929133858267718
11
4.4682900393700784
21
-3.1920094094488189
0
LINE
8
BLACK
6
CONTINUOUS
10
4.4682900393700784
20
-3.1920094094488189
11
4.4695684645669287
21
-3.1907309842519682
0
LINE
8
BLACK
6
CONTINUOUS
10
4.4695684645669287
20
-3.1907309842519682
11
4.4704724409448815
21
-3.1905511811023621
0
LINE
8
BLACK
6
CONTINUOUS
10
4.4704724409448815
20
-3.1905511811023621
11
5.0216535433070861
21
-3.1905511811023621
0
LINE
8
BLACK
6
CONTINUOUS
10
5.0216535433070861
20
-3.1905511811023621
11
5.0225575196850389
21
-3.1907309842519682
0
LINE
8
BLACK
6
CONTINUOUS
10
4.4728346456692911
20
-3.1952755905511809
11
4.4728346456692911
21
-3.7417322834645668
0
LINE
8
BLACK
6
CONTINUOUS
10
4.4728346456692911
20
-3.7417322834645668
11
5.0192913385826774
21
-3.7417322834645668
0
LINE
8
BLACK
6
CONTINUOUS
10
5.0192913385826774
20
-3.7417322834645668
11
5.0192913385826774
21
-3.1952755905511809
0
LINE
8
BLACK
6
CONTINUOUS
10
5.0192913385826774
20
-3.1952755905511809
11
4.4728346456692911
21
-3.1952755905511809
0
LINE
8
BLACK
6
CONTINUOUS
10
5.7705884251968502
20
-3.0923057874015747
11
5.7718668503937005
21
-3.093584212598425
0
LINE
8
BLACK
6
CONTINUOUS
10
5.7718668503937005
20
-3.093584212598425
11
5.772046653543307
21
-3.0944881889763778
0
LINE
8
BLACK
6
CONTINUOUS
10
5.772046653543307
20
-3.0944881889763778
11
5.772046653543307
21
-3.6456692913385824
0
LINE
8
BLACK
6
CONTINUOUS
10
5.772046653543307
20
-3.6456692913385824
11
5.7718668503937005
21
-3.6465732677165352
0
LINE
8
BLACK
6
CONTINUOUS
10
5.7718668503937005
20
-3.6465732677165352
11
5.7705884251968502
21
-3.647851692913386
0
LINE
8
BLACK
6
CONTINUOUS
10
5.7705884251968502
20
-3.647851692913386
11
5.7696844488188974
21
-3.648031496062992
0
LINE
8
BLACK
6
CONTINUOUS
10
5.7696844488188974
20
-3.648031496062992
11
5.2185033464566928
21
-3.648031496062992
0
LINE
8
BLACK
6
CONTINUOUS
10
5.2185033464566928
20
-3.648031496062992
11
5.21759937007874
21
-3.647851692913386
0
LINE
8
BLACK
6
CONTINUOUS
10
5.21759937007874
20
-3.647851692913386
11
5.2163209448818897
21
-3.6465732677165352
0
LINE
8
BLACK
6
CONTINUOUS
10
5.2163209448818897
20
-3.6465732677165352
11
5.2161411417322832
21
-3.6456692913385824
0
LINE
8
BLACK
6
CONTINUOUS
10
5.2161411417322832
20
-3.6456692913385824
11
5.2161411417322832
21
-3.0944881889763778
0
LINE
8
BLACK
6
CONTINUOUS
10
5.2161411417322832
20
-3.0944881889763778
11
5.2163209448818897
21
-3.093584212598425
0
LINE
8
BLACK
6
CONTINUOUS
10
5.2163209448818897
20
-3.093584212598425
11
5.21759937007874
21
-3.0923057874015747
0
LINE
8
BLACK
6
CONTINUOUS
10
5.21759937007874
20
-3.0923057874015747
11
5.2185033464566928
21
-3.0921259842519686
0
LINE
8
BLACK
6
CONTINUOUS
10
5.2185033464566928
20
-3.0921259842519686
11
5.7696844488188974
21
-3.0921259842519686
0
LINE
8
BLACK
6
CONTINUOUS
10
5.7696844488188974
20
-3.0921259842519686
11
5.7705884251968502
21
-3.0923057874015747
0
LINE
8
BLACK
6
CONTINUOUS
10
5.2208655511811024
20
-3.0968503937007874
11
5.2208655511811024
21
-3.6433070866141732
0
LINE
8
BLACK
6
CONTINUOUS
10
5.2208655511811024
20
-3.6433070866141732
11
5.7673222440944878
21
-3.6433070866141732
0
LINE
8
BLACK
6
CONTINUOUS
10
5.7673222440944878
20
-3.6433070866141732
11
5.7673222440944878
21
-3.0968503937007874
0
LINE
8
BLACK
6
CONTINUOUS
10
5.7673222440944878
20
-3.0968503937007874
11
5.2208655511811024
21
-3.0968503937007874
0
LINE
8
BLACK
6
CONTINUOUS
10
7.2705884251968502
20
-3.0923057874015747
11
7.2718668503937005
21
-3.093584212598425
0
LINE
8
BLACK
6
CONTINUOUS
10
7.2718668503937005
20
-3.093584212598425
11
7.272046653543307
21
-3.0944881889763778
0
LINE
8
BLACK
6
CONTINUOUS
10
7.272046653543307
20
-3.0944881889763778
11
7.272046653543307
21
-3.6456692913385824
0
LINE
8
BLACK
6
CONTINUOUS
10
7.272046653543307
20
-3.6456692913385824
11
7.2718668503937005
21
-3.6465732677165352
0
LINE
8
BLACK
6
CONTINUOUS
10
7.2718668503937005
20
-3.6465732677165352
11
7.2705884251968502
21
-3.647851692913386
0
LINE
8
BLACK
6
CONTINUOUS
10
7.2705884251968502
20
-3.647851692913386
11
7.2696844488188974
21
-3.648031496062992
0
LINE
8
BLACK
6
CONTINUOUS
10
7.2696844488188974
20
-3.648031496062992
11
6.7185033464566928
21
-3.648031496062992
0
LINE
8
BLACK
6
CONTINUOUS
10
6.7185033464566928
20
-3.648031496062992
11
6.71759937007874
21
-3.647851692913386
0
LINE
8
BLACK
6
CONTINUOUS
10
6.71759937007874
20
-3.647851692913386
11
6.7163209448818897
21
-3.6465732677165352
0
LINE
8
BLACK
6
CONTINUOUS
10
6.7163209448818897
20
-3.6465732677165352
11
6.7161411417322832
21
-3.6456692913385824
0
LINE
8
BLACK
6
CONTINUOUS
10
6.7161411417322832
20
-3.6456692913385824
11
6.7161411417322832
21
-3.0944881889763778
0
LINE
8
BLACK
6
CONTINUOUS
10
6.7161411417322832
20
-3.0944881889763778
11
6.7163209448818897
21
-3.093584212598425
0
LINE
8
BLACK
6
CONTINUOUS
10
6.7163209448818897
20
-3.093584212598425
11
6.71759937007874
21
-3.0923057874015747
0
LINE
8
BLACK
6
CONTINUOUS
10
6.71759937007874
20
-3.0923057874015747
11
6.7185033464566928
21
-3.0921259842519686
0
LINE
8
BLACK
6
CONTINUOUS
10
6.7185033464566928
20
-3.0921259842519686
11
7.2696844488188974
21
-3.0921259842519686
0
LINE
8
BLACK
6
CONTINUOUS
10
7.2696844488188974
20
-3.0921259842519686
11
7.2705884251968502
21
-3.0923057874015747
0
LINE
8
BLACK
6
CONTINUOUS
10
6.7208655511811024
20
-3.0968503937007874
11
6.7208655511811024
21
-3.6433070866141732
0
LINE
8
BLACK
6
CONTINUOUS
10
6.7208655511811024
20
-3.6433070866141732
11
7.2673222440944878
21
-3.6433070866141732
0
LINE
8
BLACK
6
CONTINUOUS
10
7.2673222440944878
20
-3.6433070866141732
11
7.2673222440944878
21
-3.0968503937007874
0
LINE
8
BLACK
6
CONTINUOUS
10
7.2673222440944878
20
-3.0968503937007874
11
6.7208655511811024
21
-3.0968503937007874
0
LINE
8
BLACK
6
CONTINUOUS
10
6.5225575196850389
20
-2.9974238976377952
11
6.5238359448818892
21
-2.9987023228346454
0
LINE
8
BLACK
6
CONTINUOUS
10
6.5238359448818892
20
-2.9987023228346454
11
6.5240157480314958
21
-2.9996062992125982
0
LINE
8
BLACK
6
CONTINUOUS
10
6.5240157480314958
20
-2.9996062992125982
11
6.5240157480314958
21
-3.5507874015748029
0
LINE
8
BLACK
6
CONTINUOUS
10
6.5240157480314958
20
-3.5507874015748029
11
6.5238359448818892
21
-3.5516913779527557
0
LINE
8
BLACK
6
CONTINUOUS
10
6.5238359448818892
20
-3.5516913779527557
11
6.5225575196850389
21
-3.5529698031496064
0
LINE
8
BLACK
6
CONTINUOUS
10
6.5225575196850389
20
-3.5529698031496064
11
6.5216535433070861
21
-3.5531496062992125
0
LINE
8
BLACK
6
CONTINUOUS
10
6.5216535433070861
20
-3.5531496062992125
11
5.9704724409448815
21
-3.5531496062992125
0
LINE
8
BLACK
6
CONTINUOUS
10
5.9704724409448815
20
-3.5531496062992125
11
5.9695684645669287
21
-3.5529698031496064
0
LINE
8
BLACK
6
CONTINUOUS
10
5.9695684645669287
20
-3.5529698031496064
11
5.9682900393700784
21
-3.5516913779527557
0
LINE
8
BLACK
6
CONTINUOUS
10
5.9682900393700784
20
-3.5516913779527557
11
5.9681102362204719
21
-3.5507874015748029
0
LINE
8
BLACK
6
CONTINUOUS
10
5.9681102362204719
20
-3.5507874015748029
11
5.9681102362204719
21
-2.9996062992125982
0
LINE
8
BLACK
6
CONTINUOUS
10
5.9681102362204719
20
-2.9996062992125982
11
5.9682900393700784
21
-2.9987023228346454
0
LINE
8
BLACK
6
CONTINUOUS
10
5.9682900393700784
20
-2.9987023228346454
11
5.9695684645669287
21
-2.9974238976377952
0
LINE
8
BLACK
6
CONTINUOUS
10
5.9695684645669287
20
-2.9974238976377952
11
5.9704724409448815
21
-2.9972440944881891
0
LINE
8
BLACK
6
CONTINUOUS
10
5.9704724409448815
20
-2.9972440944881891
11
6.5216535433070861
21
-2.9972440944881891
0
LINE
8
BLACK
6
CONTINUOUS
10
6.5216535433070861
20
-2.9972440944881891
11
6.5225575196850389
21
-2.9974238976377952
0
LINE
8
BLACK
6
CONTINUOUS
10
5.9728346456692911
20
-3.0019685039370079
11
5.9728346456692911
21
-3.5484251968503937
0
LINE
8
BLACK
6
CONTINUOUS
10
5.9728346456692911
20
-3.5484251968503937
11
6.5192913385826774
21
-3.5484251968503937
0
LINE
8
BLACK
6
CONTINUOUS
10
6.5192913385826774
20
-3.5484251968503937
11
6.5192913385826774
21
-3.0019685039370079
0
LINE
8
BLACK
6
CONTINUOUS
10
6.5192913385826774
20
-3.0019685039370079
11
5.9728346456692911
21
-3.0019685039370079
0
LINE
8
BLACK
6
CONTINUOUS
10
8.0225575196850389
20
-2.5293136614173228
11
8.0238359448818901
21
-2.5305920866141731
0
LINE
8
BLACK
6
CONTINUOUS
10
8.0238359448818901
20
-2.5305920866141731
11
8.0240157480314966
21
-2.5314960629921259
0
LINE
8
BLACK
6
CONTINUOUS
10
8.0240157480314966
20
-2.5314960629921259
11
8.0240157480314966
21
-3.0826771653543306
0
LINE
8
BLACK
6
CONTINUOUS
10
8.0240157480314966
20
-3.0826771653543306
11
8.0238359448818901
21
-3.0835811417322834
0
LINE
8
BLACK
6
CONTINUOUS
10
8.0238359448818901
20
-3.0835811417322834
11
8.0225575196850389
21
-3.0848595669291337
0
LINE
8
BLACK
6
CONTINUOUS
10
8.0225575196850389
20
-3.0848595669291337
11
8.021653543307087
21
-3.0850393700787402
0
LINE
8
BLACK
6
CONTINUOUS
10
8.021653543307087
20
-3.0850393700787402
11
7.4704724409448815
21
-3.0850393700787402
0
LINE
8
BLACK
6
CONTINUOUS
10
7.4704724409448815
20
-3.0850393700787402
11
7.4695684645669287
21
-3.0848595669291337
0
LINE
8
BLACK
6
CONTINUOUS
10
7.4695684645669287
20
-3.0848595669291337
11
7.4682900393700784
21
-3.0835811417322834
0
LINE
8
BLACK
6
CONTINUOUS
10
7.4682900393700784
20
-3.0835811417322834
11
7.4681102362204719
21
-3.0826771653543306
0
LINE
8
BLACK
6
CONTINUOUS
10
7.4681102362204719
20
-3.0826771653543306
11
7.4681102362204719
21
-2.5314960629921259
0
LINE
8
BLACK
6
CONTINUOUS
10
7.4681102362204719
20
-2.5314960629921259
11
7.4682900393700784
21
-2.5305920866141731
0
LINE
8
BLACK
6
CONTINUOUS
10
7.4682900393700784
20
-2.5305920866141731
11
7.4695684645669287
21
-2.5293136614173228
0
LINE
8
BLACK
6
CONTINUOUS
10
7.4695684645669287
20
-2.5293136614173228
11
7.4704724409448815
21
-2.5291338582677163
0
LINE
8
BLACK
6
CONTINUOUS
10
7.4704724409448815
20
-2.5291338582677163
11
8.021653543307087
21
-2.5291338582677163
0
LINE
8
BLACK
6
CONTINUOUS
10
8.021653543307087
20
-2.5291338582677163
11
8.0225575196850389
21
-2.5293136614173228
0
LINE
8
BLACK
6
CONTINUOUS
10
7.4728346456692911
20
-2.5338582677165356
11
7.4728346456692911
21
-3.0803149606299214
0
LINE
8
BLACK
6
CONTINUOUS
10
7.4728346456692911
20
-3.0803149606299214
11
8.0192913385826774
21
-3.0803149606299214
0
LINE
8
BLACK
6
CONTINUOUS
10
8.0192913385826774
20
-3.0803149606299214
11
8.0192913385826774
21
-2.5338582677165356
0
LINE
8
BLACK
6
CONTINUOUS
10
8.0192913385826774
20
-2.5338582677165356
11
7.4728346456692911
21
-2.5338582677165356
0
LINE
8
BLACK
6
CONTINUOUS
10
8.7705884251968502
20
-2.5293136614173228
11
8.7718668503937014
21
-2.5305920866141731
0
LINE
8
BLACK
6
CONTINUOUS
10
8.7718668503937014
20
-2.5305920866141731
11
8.7720466535433061
21
-2.5314960629921259
0
LINE
8
BLACK
6
CONTINUOUS
10
8.7720466535433061
20
-2.5314960629921259
11
8.7720466535433061
21
-3.0826771653543306
0
LINE
8
BLACK
6
CONTINUOUS
10
8.7720466535433061
20
-3.0826771653543306
11
8.7718668503937014
21
-3.0835811417322834
0
LINE
8
BLACK
6
CONTINUOUS
10
8.7718668503937014
20
-3.0835811417322834
11
8.7705884251968502
21
-3.0848595669291337
0
LINE
8
BLACK
6
CONTINUOUS
10
8.7705884251968502
20
-3.0848595669291337
11
8.7696844488188983
21
-3.0850393700787402
0
LINE
8
BLACK
6
CONTINUOUS
10
8.7696844488188983
20
-3.0850393700787402
11
8.2185033464566928
21
-3.0850393700787402
0
LINE
8
BLACK
6
CONTINUOUS
10
8.2185033464566928
20
-3.0850393700787402
11
8.2175993700787391
21
-3.0848595669291337
0
LINE
8
BLACK
6
CONTINUOUS
10
8.2175993700787391
20
-3.0848595669291337
11
8.2163209448818897
21
-3.0835811417322834
0
LINE
8
BLACK
6
CONTINUOUS
10
8.2163209448818897
20
-3.0835811417322834
11
8.2161411417322832
21
-3.0826771653543306
0
LINE
8
BLACK
6
CONTINUOUS
10
8.2161411417322832
20
-3.0826771653543306
11
8.2161411417322832
21
-2.5314960629921259
0
LINE
8
BLACK
6
CONTINUOUS
10
8.2161411417322832
20
-2.5314960629921259
11
8.2163209448818897
21
-2.5305920866141731
0
LINE
8
BLACK
6
CONTINUOUS
10
8.2163209448818897
20
-2.5305920866141731
11
8.2175993700787391
21
-2.5293136614173228
0
LINE
8
BLACK
6
CONTINUOUS
10
8.2175993700787391
20
-2.5293136614173228
11
8.2185033464566928
21
-2.5291338582677163
0
LINE
8
BLACK
6
CONTINUOUS
10
8.2185033464566928
20
-2.5291338582677163
11
8.7696844488188983
21
-2.5291338582677163
0
LINE
8
BLACK
6
CONTINUOUS
10
8.7696844488188983
20
-2.5291338582677163
11
8.7705884251968502
21
-2.5293136614173228
0
LINE
8
BLACK
6
CONTINUOUS
10
8.2208655511811024
20
-2.5338582677165356
11
8.2208655511811024
21
-3.0803149606299214
0
LINE
8
BLACK
6
CONTINUOUS
10
8.2208655511811024
20
-3.0803149606299214
11
8.7673222440944887
21
-3.0803149606299214
0
LINE
8
BLACK
6
CONTINUOUS
10
8.7673222440944887
20
-3.0803149606299214
11
8.7673222440944887
21
-2.5338582677165356
0
LINE
8
BLACK
6
CONTINUOUS
10
8.7673222440944887
20
-2.5338582677165356
11
8.2208655511811024
21
-2.5338582677165356
0
LINE
8
BLACK
6
CONTINUOUS
10
5.0225569291338585
20
-2.4426994881889765
11
5.0238353543307088
21
-2.4439779133858268
0
LINE
8
BLACK
6
CONTINUOUS
10
5.0238353543307088
20
-2.4439779133858268
11
5.0240151574803145
21
-2.4448818897637796
0
LINE
8
BLACK
6
CONTINUOUS
10
5.0240151574803145
20
-2.4448818897637796
11
5.0240151574803145
21
-2.9960629921259843
0
LINE
8
BLACK
6
CONTINUOUS
10
5.0240151574803145
20
-2.9960629921259843
11
5.0238353543307088
21
-2.9969669685039371
0
LINE
8
BLACK
6
CONTINUOUS
10
5.0238353543307088
20
-2.9969669685039371
11
5.0225569291338585
21
-2.9982453937007874
0
LINE
8
BLACK
6
CONTINUOUS
10
5.0225569291338585
20
-2.9982453937007874
11
5.0216529527559057
21
-2.9984251968503934
0
LINE
8
BLACK
6
CONTINUOUS
10
5.0216529527559057
20
-2.9984251968503934
11
4.4704718503937011
21
-2.9984251968503934
0
LINE
8
BLACK
6
CONTINUOUS
10
4.4704718503937011
20
-2.9984251968503934
11
4.4695678740157483
21
-2.9982453937007874
0
LINE
8
BLACK
6
CONTINUOUS
10
4.4695678740157483
20
-2.9982453937007874
11
4.4682894488188971
21
-2.9969669685039371
0
LINE
8
BLACK
6
CONTINUOUS
10
4.4682894488188971
20
-2.9969669685039371
11
4.4681096456692915
21
-2.9960629921259843
0
LINE
8
BLACK
6
CONTINUOUS
10
4.4681096456692915
20
-2.9960629921259843
11
4.4681096456692915
21
-2.4448818897637796
0
LINE
8
BLACK
6
CONTINUOUS
10
4.4681096456692915
20
-2.4448818897637796
11
4.4682894488188971
21
-2.4439779133858268
0
LINE
8
BLACK
6
CONTINUOUS
10
4.4682894488188971
20
-2.4439779133858268
11
4.4695678740157483
21
-2.4426994881889765
0
LINE
8
BLACK
6
CONTINUOUS
10
4.4695678740157483
20
-2.4426994881889765
11
4.4704718503937011
21
-2.44251968503937
0
LINE
8
BLACK
6
CONTINUOUS
10
4.4704718503937011
20
-2.44251968503937
11
5.0216529527559057
21
-2.44251968503937
0
LINE
8
BLACK
6
CONTINUOUS
10
5.0216529527559057
20
-2.44251968503937
11
5.0225569291338585
21
-2.4426994881889765
0
LINE
8
BLACK
6
CONTINUOUS
10
4.4728340551181098
20
-2.4472440944881888
11
4.4728340551181098
21
-2.9937007874015746
0
LINE
8
BLACK
6
CONTINUOUS
10
4.4728340551181098
20
-2.9937007874015746
11
5.0192907480314961
21
-2.9937007874015746
0
LINE
8
BLACK
6
CONTINUOUS
10
5.0192907480314961
20
-2.9937007874015746
11
5.0192907480314961
21
-2.4472440944881888
0
LINE
8
BLACK
6
CONTINUOUS
10
5.0192907480314961
20
-2.4472440944881888
11
4.4728340551181098
21
-2.4472440944881888
0
LINE
8
BLACK
6
CONTINUOUS
10
5.7705884251968502
20
-2.3442742913385826
11
5.7718668503937005
21
-2.3455527165354328
0
LINE
8
BLACK
6
CONTINUOUS
10
5.7718668503937005
20
-2.3455527165354328
11
5.772046653543307
21
-2.3464566929133857
0
LINE
8
BLACK
6
CONTINUOUS
10
5.772046653543307
20
-2.3464566929133857
11
5.772046653543307
21
-2.8976377952755903
0
LINE
8
BLACK
6
CONTINUOUS
10
5.772046653543307
20
-2.8976377952755903
11
5.7718668503937005
21
-2.8985417716535431
0
LINE
8
BLACK
6
CONTINUOUS
10
5.7718668503937005
20
-2.8985417716535431
11
5.7705884251968502
21
-2.8998201968503938
0
LINE
8
BLACK
6
CONTINUOUS
10
5.7705884251968502
20
-2.8998201968503938
11
5.7696844488188974
21
-2.8999999999999999
0
LINE
8
BLACK
6
CONTINUOUS
10
5.7696844488188974
20
-2.8999999999999999
11
5.2185033464566928
21
-2.8999999999999999
0
LINE
8
BLACK
6
CONTINUOUS
10
5.2185033464566928
20
-2.8999999999999999
11
5.21759937007874
21
-2.8998201968503938
0
LINE
8
BLACK
6
CONTINUOUS
10
5.21759937007874
20
-2.8998201968503938
11
5.2163209448818897
21
-2.8985417716535431
0
LINE
8
BLACK
6
CONTINUOUS
10
5.2163209448818897
20
-2.8985417716535431
11
5.2161411417322832
21
-2.8976377952755903
0
LINE
8
BLACK
6
CONTINUOUS
10
5.2161411417322832
20
-2.8976377952755903
11
5.2161411417322832
21
-2.3464566929133857
0
LINE
8
BLACK
6
CONTINUOUS
10
5.2161411417322832
20
-2.3464566929133857
11
5.2163209448818897
21
-2.3455527165354328
0
LINE
8
BLACK
6
CONTINUOUS
10
5.2163209448818897
20
-2.3455527165354328
11
5.21759937007874
21
-2.3442742913385826
0
LINE
8
BLACK
6
CONTINUOUS
10
5.21759937007874
20
-2.3442742913385826
11
5.2185033464566928
21
-2.3440944881889765
0
LINE
8
BLACK
6
CONTINUOUS
10
5.2185033464566928
20
-2.3440944881889765
11
5.7696844488188974
21
-2.3440944881889765
0
LINE
8
BLACK
6
CONTINUOUS
10
5.7696844488188974
20
-2.3440944881889765
11
5.7705884251968502
21
-2.3442742913385826
0
LINE
8
BLACK
6
CONTINUOUS
10
5.2208655511811024
20
-2.3488188976377953
11
5.2208655511811024
21
-2.8952755905511811
0
LINE
8
BLACK
6
CONTINUOUS
10
5.2208655511811024
20
-2.8952755905511811
11
5.7673222440944878
21
-2.8952755905511811
0
LINE
8
BLACK
6
CONTINUOUS
10
5.7673222440944878
20
-2.8952755905511811
11
5.7673222440944878
21
-2.3488188976377953
0
LINE
8
BLACK
6
CONTINUOUS
10
5.7673222440944878
20
-2.3488188976377953
11
5.2208655511811024
21
-2.3488188976377953
0
LINE
8
BLACK
6
CONTINUOUS
10
7.2705884251968502
20
-2.3419120866141734
11
7.2718668503937005
21
-2.3431905118110237
0
LINE
8
BLACK
6
CONTINUOUS
10
7.2718668503937005
20
-2.3431905118110237
11
7.272046653543307
21
-2.3440944881889765
0
LINE
8
BLACK
6
CONTINUOUS
10
7.272046653543307
20
-2.3440944881889765
11
7.272046653543307
21
-2.8952755905511811
0
LINE
8
BLACK
6
CONTINUOUS
10
7.272046653543307
20
-2.8952755905511811
11
7.2718668503937005
21
-2.8961795669291339
0
LINE
8
BLACK
6
CONTINUOUS
10
7.2718668503937005
20
-2.8961795669291339
11
7.2705884251968502
21
-2.8974579921259842
0
LINE
8
BLACK
6
CONTINUOUS
10
7.2705884251968502
20
-2.8974579921259842
11
7.2696844488188974
21
-2.8976377952755903
0
LINE
8
BLACK
6
CONTINUOUS
10
7.2696844488188974
20
-2.8976377952755903
11
6.7185033464566928
21
-2.8976377952755903
0
LINE
8
BLACK
6
CONTINUOUS
10
6.7185033464566928
20
-2.8976377952755903
11
6.71759937007874
21
-2.8974579921259842
0
LINE
8
BLACK
6
CONTINUOUS
10
6.71759937007874
20
-2.8974579921259842
11
6.7163209448818897
21
-2.8961795669291339
0
LINE
8
BLACK
6
CONTINUOUS
10
6.7163209448818897
20
-2.8961795669291339
11
6.7161411417322832
21
-2.8952755905511811
0
LINE
8
BLACK
6
CONTINUOUS
10
6.7161411417322832
20
-2.8952755905511811
11
6.7161411417322832
21
-2.3440944881889765
0
LINE
8
BLACK
6
CONTINUOUS
10
6.7161411417322832
20
-2.3440944881889765
11
6.7163209448818897
21
-2.3431905118110237
0
LINE
8
BLACK
6
CONTINUOUS
10
6.7163209448818897
20
-2.3431905118110237
11
6.71759937007874
21
-2.3419120866141734
0
LINE
8
BLACK
6
CONTINUOUS
10
6.71759937007874
20
-2.3419120866141734
11
6.7185033464566928
21
-2.3417322834645669
0
LINE
8
BLACK
6
CONTINUOUS
10
6.7185033464566928
20
-2.3417322834645669
11
7.2696844488188974
21
-2.3417322834645669
0
LINE
8
BLACK
6
CONTINUOUS
10
7.2696844488188974
20
-2.3417322834645669
11
7.2705884251968502
21
-2.3419120866141734
0
LINE
8
BLACK
6
CONTINUOUS
10
6.7208655511811024
20
-2.3464566929133857
11
6.7208655511811024
21
-2.8929133858267715
0
LINE
8
BLACK
6
CONTINUOUS
10
6.7208655511811024
20
-2.8929133858267715
11
7.2673222440944878
21
-2.8929133858267715
0
LINE
8
BLACK
6
CONTINUOUS
10
7.2673222440944878
20
-2.8929133858267715
11
7.2673222440944878
21
-2.3464566929133857
0
LINE
8
BLACK
6
CONTINUOUS
10
7.2673222440944878
20
-2.3464566929133857
11
6.7208655511811024
21
-2.3464566929133857
0
LINE
8
BLACK
6
CONTINUOUS
10
6.5225569291338585
20
-2.2454553937007873
11
6.5238353543307088
21
-2.2467338188976376
0
LINE
8
BLACK
6
CONTINUOUS
10
6.5238353543307088
20
-2.2467338188976376
11
6.5240151574803145
21
-2.2476377952755904
0
LINE
8
BLACK
6
CONTINUOUS
10
6.5240151574803145
20
-2.2476377952755904
11
6.5240151574803145
21
-2.798818897637795
0
LINE
8
BLACK
6
CONTINUOUS
10
6.5240151574803145
20
-2.798818897637795
11
6.5238353543307088
21
-2.7997228740157478
0
LINE
8
BLACK
6
CONTINUOUS
10
6.5238353543307088
20
-2.7997228740157478
11
6.5225569291338585
21
-2.8010012992125985
0
LINE
8
BLACK
6
CONTINUOUS
10
6.5225569291338585
20
-2.8010012992125985
11
6.5216529527559057
21
-2.8011811023622046
0
LINE
8
BLACK
6
CONTINUOUS
10
6.5216529527559057
20
-2.8011811023622046
11
5.9704718503937002
21
-2.8011811023622046
0
LINE
8
BLACK
6
CONTINUOUS
10
5.9704718503937002
20
-2.8011811023622046
11
5.9695678740157483
21
-2.8010012992125985
0
LINE
8
BLACK
6
CONTINUOUS
10
5.9695678740157483
20
-2.8010012992125985
11
5.9682894488188971
21
-2.7997228740157478
0
LINE
8
BLACK
6
CONTINUOUS
10
5.9682894488188971
20
-2.7997228740157478
11
5.9681096456692915
21
-2.798818897637795
0
LINE
8
BLACK
6
CONTINUOUS
10
5.9681096456692915
20
-2.798818897637795
11
5.9681096456692915
21
-2.2476377952755904
0
LINE
8
BLACK
6
CONTINUOUS
10
5.9681096456692915
20
-2.2476377952755904
11
5.9682894488188971
21
-2.2467338188976376
0
LINE
8
BLACK
6
CONTINUOUS
10
5.9682894488188971
20
-2.2467338188976376
11
5.9695678740157483
21
-2.2454553937007873
0
LINE
8
BLACK
6
CONTINUOUS
10
5.9695678740157483
20
-2.2454553937007873
11
5.9704718503937002
21
-2.2452755905511812
0
LINE
8
BLACK
6
CONTINUOUS
10
5.9704718503937002
20
-2.2452755905511812
11
6.5216529527559057
21
-2.2452755905511812
0
LINE
8
BLACK
6
CONTINUOUS
10
6.5216529527559057
20
-2.2452755905511812
11
6.5225569291338585
21
-2.2454553937007873
0
LINE
8
BLACK
6
CONTINUOUS
10
5.9728340551181098
20
-2.25
11
5.9728340551181098
21
-2.7964566929133858
0
LINE
8
BLACK
6
CONTINUOUS
10
5.9728340551181098
20
-2.7964566929133858
11
6.5192907480314961
21
-2.7964566929133858
0
LINE
8
BLACK
6
CONTINUOUS
10
6.5192907480314961
20
-2.7964566929133858
11
6.5192907480314961
21
-2.25
0
LINE
8
BLACK
6
CONTINUOUS
10
6.5192907480314961
20
-2.25
11
5.9728340551181098
21
-2.25
0
LINE
8
BLACK
6
CONTINUOUS
10
8.1296638582677172
20
-2.3959360236220473
11
8.1364207086614169
21
-2.3981314566929135
0
LINE
8
BLACK
6
CONTINUOUS
10
8.1364207086614169
20
-2.3981314566929135
11
8.1427509055118108
21
-2.4013568503937006
0
LINE
8
BLACK
6
CONTINUOUS
10
8.1427509055118108
20
-2.4013568503937006
11
8.148498622047244
21
-2.4055327952755907
0
LINE
8
BLACK
6
CONTINUOUS
10
8.148498622047244
20
-2.4055327952755907
11
8.153522322834645
21
-2.4105564960629922
0
LINE
8
BLACK
6
CONTINUOUS
10
8.153522322834645
20
-2.4105564960629922
11
8.1576982677165351
21
-2.4163042125984253
0
LINE
8
BLACK
6
CONTINUOUS
10
8.1576982677165351
20
-2.4163042125984253
11
8.1609236614173231
21
-2.4226344094488188
0
LINE
8
BLACK
6
CONTINUOUS
10
8.1609236614173231
20
-2.4226344094488188
11
8.163119094488188
21
-2.4293912598425198
0
LINE
8
BLACK
6
CONTINUOUS
10
8.163119094488188
20
-2.4293912598425198
11
8.1642305118110237
21
-2.4364083464566928
0
LINE
8
BLACK
6
CONTINUOUS
10
8.1642305118110237
20
-2.4364083464566928
11
8.1642305118110237
21
-2.4435129133858267
0
LINE
8
BLACK
6
CONTINUOUS
10
8.1642305118110237
20
-2.4435129133858267
11
8.163119094488188
21
-2.4505300000000001
0
LINE
8
BLACK
6
CONTINUOUS
10
8.163119094488188
20
-2.4505300000000001
11
8.1609236614173231
21
-2.4572868503937007
0
LINE
8
BLACK
6
CONTINUOUS
10
8.1609236614173231
20
-2.4572868503937007
11
8.1576982677165351
21
-2.4636170472440946
0
LINE
8
BLACK
6
CONTINUOUS
10
8.1576982677165351
20
-2.4636170472440946
11
8.153522322834645
21
-2.4693647637795273
0
LINE
8
BLACK
6
CONTINUOUS
10
8.153522322834645
20
-2.4693647637795273
11
8.148498622047244
21
-2.4743884645669292
0
LINE
8
BLACK
6
CONTINUOUS
10
8.148498622047244
20
-2.4743884645669292
11
8.1427509055118108
21
-2.4785644094488188
0
LINE
8
BLACK
6
CONTINUOUS
10
8.1427509055118108
20
-2.4785644094488188
11
8.1364207086614169
21
-2.4817898031496064
0
LINE
8
BLACK
6
CONTINUOUS
10
8.1364207086614169
20
-2.4817898031496064
11
8.1296638582677172
21
-2.4839852362204722
0
LINE
8
BLACK
6
CONTINUOUS
10
8.1296638582677172
20
-2.4839852362204722
11
8.1226467716535424
21
-2.485096653543307
0
LINE
8
BLACK
6
CONTINUOUS
10
8.1226467716535424
20
-2.485096653543307
11
8.1155422047244095
21
-2.485096653543307
0
LINE
8
BLACK
6
CONTINUOUS
10
8.1155422047244095
20
-2.485096653543307
11
8.1085251181102365
21
-2.4839852362204722
0
LINE
8
BLACK
6
CONTINUOUS
10
8.1085251181102365
20
-2.4839852362204722
11
8.101768267716535
21
-2.4817898031496064
0
LINE
8
BLACK
6
CONTINUOUS
10
8.101768267716535
20
-2.4817898031496064
11
8.0954380708661411
21
-2.4785644094488188
0
LINE
8
BLACK
6
CONTINUOUS
10
8.0954380708661411
20
-2.4785644094488188
11
8.0896903543307079
21
-2.4743884645669292
0
LINE
8
BLACK
6
CONTINUOUS
10
8.0896903543307079
20
-2.4743884645669292
11
8.0846666535433069
21
-2.4693647637795273
0
LINE
8
BLACK
6
CONTINUOUS
10
8.0846666535433069
20
-2.4693647637795273
11
8.0804907086614168
21
-2.4636170472440946
0
LINE
8
BLACK
6
CONTINUOUS
10
8.0804907086614168
20
-2.4636170472440946
11
8.0772653149606306
21
-2.4572868503937007
0
LINE
8
BLACK
6
CONTINUOUS
10
8.0772653149606306
20
-2.4572868503937007
11
8.0750698818897639
21
-2.4505300000000001
0
LINE
8
BLACK
6
CONTINUOUS
10
8.0750698818897639
20
-2.4505300000000001
11
8.0739584645669282
21
-2.4435129133858267
0
LINE
8
BLACK
6
CONTINUOUS
10
8.0739584645669282
20
-2.4435129133858267
11
8.0739584645669282
21
-2.4364083464566928
0
LINE
8
BLACK
6
CONTINUOUS
10
8.0739584645669282
20
-2.4364083464566928
11
8.0740407086614177
21
-2.4358891338582676
0
LINE
8
BLACK
6
CONTINUOUS
10
8.0740407086614177
20
-2.4358891338582676
11
8.0750698818897639
21
-2.4293912598425198
0
LINE
8
BLACK
6
CONTINUOUS
10
8.0750698818897639
20
-2.4293912598425198
11
8.0772653149606306
21
-2.4226344094488188
0
LINE
8
BLACK
6
CONTINUOUS
10
8.0772653149606306
20
-2.4226344094488188
11
8.0804907086614168
21
-2.4163042125984253
0
LINE
8
BLACK
6
CONTINUOUS
10
8.0804907086614168
20
-2.4163042125984253
11
8.0846666535433069
21
-2.4105564960629922
0
LINE
8
BLACK
6
CONTINUOUS
10
8.0846666535433069
20
-2.4105564960629922
11
8.0896903543307079
21
-2.4055327952755907
0
LINE
8
BLACK
6
CONTINUOUS
10
8.0896903543307079
20
-2.4055327952755907
11
8.0954380708661411
21
-2.4013568503937006
0
LINE
8
BLACK
6
CONTINUOUS
10
8.0954380708661411
20
-2.4013568503937006
11
8.101768267716535
21
-2.3981314566929135
0
LINE
8
BLACK
6
CONTINUOUS
10
8.101768267716535
20
-2.3981314566929135
11
8.1085251181102365
21
-2.3959360236220473
0
LINE
8
BLACK
6
CONTINUOUS
10
8.1085251181102365
20
-2.3959360236220473
11
8.1155422047244095
21
-2.3948246062992125
0
LINE
8
BLACK
6
CONTINUOUS
10
8.1155422047244095
20
-2.3948246062992125
11
8.1226467716535424
21
-2.3948246062992125
0
LINE
8
BLACK
6
CONTINUOUS
10
8.1226467716535424
20
-2.3948246062992125
11
8.1296638582677172
21
-2.3959360236220473
0
LINE
8
BLACK
6
CONTINUOUS
10
8.0777559055118111
20
-2.4440321259842519
11
8.0793444881889762
21
-2.4520186614173229
0
LINE
8
BLACK
6
CONTINUOUS
10
8.0793444881889762
20
-2.4520186614173229
11
8.0824607086614169
21
-2.4595418110236218
0
LINE
8
BLACK
6
CONTINUOUS
10
8.0824607086614169
20
-2.4595418110236218
11
8.0869846850393703
21
-2.4663124409448818
0
LINE
8
BLACK
6
CONTINUOUS
10
8.0869846850393703
20
-2.4663124409448818
11
8.0927426771653543
21
-2.4720704330708663
0
LINE
8
BLACK
6
CONTINUOUS
10
8.0927426771653543
20
-2.4720704330708663
11
8.0995133070866139
21
-2.4765944094488188
0
LINE
8
BLACK
6
CONTINUOUS
10
8.0995133070866139
20
-2.4765944094488188
11
8.1070364566929136
21
-2.4797106299212599
0
LINE
8
BLACK
6
CONTINUOUS
10
8.1070364566929136
20
-2.4797106299212599
11
8.1150229921259847
21
-2.481299212598425
0
LINE
8
BLACK
6
CONTINUOUS
10
8.1150229921259847
20
-2.481299212598425
11
8.123165984251969
21
-2.481299212598425
0
LINE
8
BLACK
6
CONTINUOUS
10
8.123165984251969
20
-2.481299212598425
11
8.13115251968504
21
-2.4797106299212599
0
LINE
8
BLACK
6
CONTINUOUS
10
8.13115251968504
20
-2.4797106299212599
11
8.138675669291338
21
-2.4765944094488188
0
LINE
8
BLACK
6
CONTINUOUS
10
8.138675669291338
20
-2.4765944094488188
11
8.1454462992125976
21
-2.4720704330708663
0
LINE
8
BLACK
6
CONTINUOUS
10
8.1454462992125976
20
-2.4720704330708663
11
8.1512042913385834
21
-2.4663124409448818
0
LINE
8
BLACK
6
CONTINUOUS
10
8.1512042913385834
20
-2.4663124409448818
11
8.155728267716535
21
-2.4595418110236218
0
LINE
8
BLACK
6
CONTINUOUS
10
8.155728267716535
20
-2.4595418110236218
11
8.1588444881889757
21
-2.4520186614173229
0
LINE
8
BLACK
6
CONTINUOUS
10
8.1588444881889757
20
-2.4520186614173229
11
8.1604330708661408
21
-2.4440321259842519
0
LINE
8
BLACK
6
CONTINUOUS
10
8.1604330708661408
20
-2.4440321259842519
11
8.1604330708661408
21
-2.4358891338582676
0
LINE
8
BLACK
6
CONTINUOUS
10
8.1604330708661408
20
-2.4358891338582676
11
8.1588444881889757
21
-2.427902598425197
0
LINE
8
BLACK
6
CONTINUOUS
10
8.1588444881889757
20
-2.427902598425197
11
8.155728267716535
21
-2.4203794488188977
0
LINE
8
BLACK
6
CONTINUOUS
10
8.155728267716535
20
-2.4203794488188977
11
8.1512042913385834
21
-2.4136088188976377
0
LINE
8
BLACK
6
CONTINUOUS
10
8.1512042913385834
20
-2.4136088188976377
11
8.1454462992125976
21
-2.4078508267716536
0
LINE
8
BLACK
6
CONTINUOUS
10
8.1454462992125976
20
-2.4078508267716536
11
8.138675669291338
21
-2.4033268503937006
0
LINE
8
BLACK
6
CONTINUOUS
10
8.138675669291338
20
-2.4033268503937006
11
8.13115251968504
21
-2.40021062992126
0
LINE
8
BLACK
6
CONTINUOUS
10
8.13115251968504
20
-2.40021062992126
11
8.123165984251969
21
-2.3986220472440944
0
LINE
8
BLACK
6
CONTINUOUS
10
8.123165984251969
20
-2.3986220472440944
11
8.1150229921259847
21
-2.3986220472440944
0
LINE
8
BLACK
6
CONTINUOUS
10
8.1150229921259847
20
-2.3986220472440944
11
8.1070364566929136
21
-2.40021062992126
0
LINE
8
BLACK
6
CONTINUOUS
10
8.1070364566929136
20
-2.40021062992126
11
8.0995133070866139
21
-2.4033268503937006
0
LINE
8
BLACK
6
CONTINUOUS
10
8.0995133070866139
20
-2.4033268503937006
11
8.0927426771653543
21
-2.4078508267716536
0
LINE
8
BLACK
6
CONTINUOUS
10
8.0927426771653543
20
-2.4078508267716536
11
8.0869846850393703
21
-2.4136088188976377
0
LINE
8
BLACK
6
CONTINUOUS
10
8.0869846850393703
20
-2.4136088188976377
11
8.0824607086614169
21
-2.4203794488188977
0
LINE
8
BLACK
6
CONTINUOUS
10
8.0824607086614169
20
-2.4203794488188977
11
8.0793444881889762
21
-2.427902598425197
0
LINE
8
BLACK
6
CONTINUOUS
10
8.0793444881889762
20
-2.427902598425197
11
8.0777559055118111
21
-2.4358891338582676
0
LINE
8
BLACK
6
CONTINUOUS
10
8.0777559055118111
20
-2.4358891338582676
11
8.0777559055118111
21
-2.4440321259842519
0
LINE
8
BLACK
6
CONTINUOUS
10
8.0225575196850389
20
-1.7852191732283464
11
8.0238359448818901
21
-1.7864975984251967
0
LINE
8
BLACK
6
CONTINUOUS
10
8.0238359448818901
20
-1.7864975984251967
11
8.0240157480314966
21
-1.7874015748031495
0
LINE
8
BLACK
6
CONTINUOUS
10
8.0240157480314966
20
-1.7874015748031495
11
8.0240157480314966
21
-2.3385826771653542
0
LINE
8
BLACK
6
CONTINUOUS
10
8.0240157480314966
20
-2.3385826771653542
11
8.0238359448818901
21
-2.339486653543307
0
LINE
8
BLACK
6
CONTINUOUS
10
8.0238359448818901
20
-2.339486653543307
11
8.0225575196850389
21
-2.3407650787401573
0
LINE
8
BLACK
6
CONTINUOUS
10
8.0225575196850389
20
-2.3407650787401573
11
8.021653543307087
21
-2.3409448818897638
0
LINE
8
BLACK
6
CONTINUOUS
10
8.021653543307087
20
-2.3409448818897638
11
7.4704724409448815
21
-2.3409448818897638
0
LINE
8
BLACK
6
CONTINUOUS
10
7.4704724409448815
20
-2.3409448818897638
11
7.4695684645669287
21
-2.3407650787401573
0
LINE
8
BLACK
6
CONTINUOUS
10
7.4695684645669287
20
-2.3407650787401573
11
7.4682900393700784
21
-2.339486653543307
0
LINE
8
BLACK
6
CONTINUOUS
10
7.4682900393700784
20
-2.339486653543307
11
7.4681102362204719
21
-2.3385826771653542
0
LINE
8
BLACK
6
CONTINUOUS
10
7.4681102362204719
20
-2.3385826771653542
11
7.4681102362204719
21
-1.7874015748031495
0
LINE
8
BLACK
6
CONTINUOUS
10
7.4681102362204719
20
-1.7874015748031495
11
7.4682900393700784
21
-1.7864975984251967
0
LINE
8
BLACK
6
CONTINUOUS
10
7.4682900393700784
20
-1.7864975984251967
11
7.4695684645669287
21
-1.7852191732283464
0
LINE
8
BLACK
6
CONTINUOUS
10
7.4695684645669287
20
-1.7852191732283464
11
7.4704724409448815
21
-1.7850393700787401
0
LINE
8
BLACK
6
CONTINUOUS
10
7.4704724409448815
20
-1.7850393700787401
11
8.021653543307087
21
-1.7850393700787401
0
LINE
8
BLACK
6
CONTINUOUS
10
8.021653543307087
20
-1.7850393700787401
11
8.0225575196850389
21
-1.7852191732283464
0
LINE
8
BLACK
6
CONTINUOUS
10
7.4728346456692911
20
-1.7897637795275589
11
7.4728346456692911
21
-2.336220472440945
0
LINE
8
BLACK
6
CONTINUOUS
10
7.4728346456692911
20
-2.336220472440945
11
8.0192913385826774
21
-2.336220472440945
0
LINE
8
BLACK
6
CONTINUOUS
10
8.0192913385826774
20
-2.336220472440945
11
8.0192913385826774
21
-1.7897637795275589
0
LINE
8
BLACK
6
CONTINUOUS
10
8.0192913385826774
20
-1.7897637795275589
11
7.4728346456692911
21
-1.7897637795275589
0
LINE
8
BLACK
6
CONTINUOUS
10
8.7705884251968502
20
-1.7852191732283464
11
8.7718668503937014
21
-1.7864975984251967
0
LINE
8
BLACK
6
CONTINUOUS
10
8.7718668503937014
20
-1.7864975984251967
11
8.7720466535433061
21
-1.7874015748031495
0
LINE
8
BLACK
6
CONTINUOUS
10
8.7720466535433061
20
-1.7874015748031495
11
8.7720466535433061
21
-2.3385826771653542
0
LINE
8
BLACK
6
CONTINUOUS
10
8.7720466535433061
20
-2.3385826771653542
11
8.7718668503937014
21
-2.339486653543307
0
LINE
8
BLACK
6
CONTINUOUS
10
8.7718668503937014
20
-2.339486653543307
11
8.7705884251968502
21
-2.3407650787401573
0
LINE
8
BLACK
6
CONTINUOUS
10
8.7705884251968502
20
-2.3407650787401573
11
8.7696844488188983
21
-2.3409448818897638
0
LINE
8
BLACK
6
CONTINUOUS
10
8.7696844488188983
20
-2.3409448818897638
11
8.2185033464566928
21
-2.3409448818897638
0
LINE
8
BLACK
6
CONTINUOUS
10
8.2185033464566928
20
-2.3409448818897638
11
8.2175993700787391
21
-2.3407650787401573
0
LINE
8
BLACK
6
CONTINUOUS
10
8.2175993700787391
20
-2.3407650787401573
11
8.2163209448818897
21
-2.339486653543307
0
LINE
8
BLACK
6
CONTINUOUS
10
8.2163209448818897
20
-2.339486653543307
11
8.2161411417322832
21
-2.3385826771653542
0
LINE
8
BLACK
6
CONTINUOUS
10
8.2161411417322832
20
-2.3385826771653542
11
8.2161411417322832
21
-1.7874015748031495
0
LINE
8
BLACK
6
CONTINUOUS
10
8.2161411417322832
20
-1.7874015748031495
11
8.2163209448818897
21
-1.7864975984251967
0
LINE
8
BLACK
6
CONTINUOUS
10
8.2163209448818897
20
-1.7864975984251967
11
8.2175993700787391
21
-1.7852191732283464
0
LINE
8
BLACK
6
CONTINUOUS
10
8.2175993700787391
20
-1.7852191732283464
11
8.2185033464566928
21
-1.7850393700787401
0
LINE
8
BLACK
6
CONTINUOUS
10
8.2185033464566928
20
-1.7850393700787401
11
8.7696844488188983
21
-1.7850393700787401
0
LINE
8
BLACK
6
CONTINUOUS
10
8.7696844488188983
20
-1.7850393700787401
11
8.7705884251968502
21
-1.7852191732283464
0
LINE
8
BLACK
6
CONTINUOUS
10
8.2208655511811024
20
-1.7897637795275589
11
8.2208655511811024
21
-2.336220472440945
0
LINE
8
BLACK
6
CONTINUOUS
10
8.2208655511811024
20
-2.336220472440945
11
8.7673222440944887
21
-2.336220472440945
0
LINE
8
BLACK
6
CONTINUOUS
10
8.7673222440944887
20
-2.336220472440945
11
8.7673222440944887
21
-1.7897637795275589
0
LINE
8
BLACK
6
CONTINUOUS
10
8.7673222440944887
20
-1.7897637795275589
11
8.2208655511811024
21
-1.7897637795275589
0
LINE
8
BLACK
6
CONTINUOUS
10
5.1276953543307089
20
-2.210896653543307
11
5.1344522047244094
21
-2.2130920866141732
0
LINE
8
BLACK
6
CONTINUOUS
10
5.1344522047244094
20
-2.2130920866141732
11
5.1407824015748034
21
-2.2163174803149608
0
LINE
8
BLACK
6
CONTINUOUS
10
5.1407824015748034
20
-2.2163174803149608
11
5.1465301181102365
21
-2.2204934251968504
0
LINE
8
BLACK
6
CONTINUOUS
10
5.1465301181102365
20
-2.2204934251968504
11
5.1515538188976375
21
-2.2255171259842519
0
LINE
8
BLACK
6
CONTINUOUS
10
5.1515538188976375
20
-2.2255171259842519
11
5.1557297637795276
21
-2.231264842519685
0
LINE
8
BLACK
6
CONTINUOUS
10
5.1557297637795276
20
-2.231264842519685
11
5.1589551574803147
21
-2.2375950393700785
0
LINE
8
BLACK
6
CONTINUOUS
10
5.1589551574803147
20
-2.2375950393700785
11
5.1611505905511814
21
-2.2443518897637795
0
LINE
8
BLACK
6
CONTINUOUS
10
5.1611505905511814
20
-2.2443518897637795
11
5.1622620078740153
21
-2.2513689763779525
0
LINE
8
BLACK
6
CONTINUOUS
10
5.1622620078740153
20
-2.2513689763779525
11
5.1622620078740153
21
-2.2584735433070864
0
LINE
8
BLACK
6
CONTINUOUS
10
5.1622620078740153
20
-2.2584735433070864
11
5.1611505905511814
21
-2.2654906299212598
0
LINE
8
BLACK
6
CONTINUOUS
10
5.1611505905511814
20
-2.2654906299212598
11
5.1589551574803147
21
-2.2722474803149604
0
LINE
8
BLACK
6
CONTINUOUS
10
5.1589551574803147
20
-2.2722474803149604
11
5.1557297637795276
21
-2.2785776771653543
0
LINE
8
BLACK
6
CONTINUOUS
10
5.1557297637795276
20
-2.2785776771653543
11
5.1515538188976375
21
-2.2843253937007875
0
LINE
8
BLACK
6
CONTINUOUS
10
5.1515538188976375
20
-2.2843253937007875
11
5.1465301181102365
21
-2.2893490944881889
0
LINE
8
BLACK
6
CONTINUOUS
10
5.1465301181102365
20
-2.2893490944881889
11
5.1407824015748034
21
-2.2935250393700786
0
LINE
8
BLACK
6
CONTINUOUS
10
5.1407824015748034
20
-2.2935250393700786
11
5.1344522047244094
21
-2.2967504330708661
0
LINE
8
BLACK
6
CONTINUOUS
10
5.1344522047244094
20
-2.2967504330708661
11
5.1276953543307089
21
-2.2989458661417324
0
LINE
8
BLACK
6
CONTINUOUS
10
5.1276953543307089
20
-2.2989458661417324
11
5.120678267716535
21
-2.3000572834645667
0
LINE
8
BLACK
6
CONTINUOUS
10
5.120678267716535
20
-2.3000572834645667
11
5.1135737007874011
21
-2.3000572834645667
0
LINE
8
BLACK
6
CONTINUOUS
10
5.1135737007874011
20
-2.3000572834645667
11
5.1065566141732281
21
-2.2989458661417324
0
LINE
8
BLACK
6
CONTINUOUS
10
5.1065566141732281
20
-2.2989458661417324
11
5.0997997637795276
21
-2.2967504330708661
0
LINE
8
BLACK
6
CONTINUOUS
10
5.0997997637795276
20
-2.2967504330708661
11
5.0934695669291337
21
-2.2935250393700786
0
LINE
8
BLACK
6
CONTINUOUS
10
5.0934695669291337
20
-2.2935250393700786
11
5.0877218503937005
21
-2.2893490944881889
0
LINE
8
BLACK
6
CONTINUOUS
10
5.0877218503937005
20
-2.2893490944881889
11
5.0826981496062995
21
-2.2843253937007875
0
LINE
8
BLACK
6
CONTINUOUS
10
5.0826981496062995
20
-2.2843253937007875
11
5.0785222047244094
21
-2.2785776771653543
0
LINE
8
BLACK
6
CONTINUOUS
10
5.0785222047244094
20
-2.2785776771653543
11
5.0752968110236223
21
-2.2722474803149604
0
LINE
8
BLACK
6
CONTINUOUS
10
5.0752968110236223
20
-2.2722474803149604
11
5.0731013779527556
21
-2.2654906299212598
0
LINE
8
BLACK
6
CONTINUOUS
10
5.0731013779527556
20
-2.2654906299212598
11
5.0719899606299208
21
-2.2584735433070864
0
LINE
8
BLACK
6
CONTINUOUS
10
5.0719899606299208
20
-2.2584735433070864
11
5.0719899606299208
21
-2.2513689763779525
0
LINE
8
BLACK
6
CONTINUOUS
10
5.0719899606299208
20
-2.2513689763779525
11
5.0720722047244093
21
-2.2508497637795277
0
LINE
8
BLACK
6
CONTINUOUS
10
5.0720722047244093
20
-2.2508497637795277
11
5.0731013779527556
21
-2.2443518897637795
0
LINE
8
BLACK
6
CONTINUOUS
10
5.0731013779527556
20
-2.2443518897637795
11
5.0752968110236223
21
-2.2375950393700785
0
LINE
8
BLACK
6
CONTINUOUS
10
5.0752968110236223
20
-2.2375950393700785
11
5.0785222047244094
21
-2.231264842519685
0
LINE
8
BLACK
6
CONTINUOUS
10
5.0785222047244094
20
-2.231264842519685
11
5.0826981496062995
21
-2.2255171259842519
0
LINE
8
BLACK
6
CONTINUOUS
10
5.0826981496062995
20
-2.2255171259842519
11
5.0877218503937005
21
-2.2204934251968504
0
LINE
8
BLACK
6
CONTINUOUS
10
5.0877218503937005
20
-2.2204934251968504
11
5.0934695669291337
21
-2.2163174803149608
0
LINE
8
BLACK
6
CONTINUOUS
10
5.0934695669291337
20
-2.2163174803149608
11
5.0997997637795276
21
-2.2130920866141732
0
LINE
8
BLACK
6
CONTINUOUS
10
5.0997997637795276
20
-2.2130920866141732
11
5.1065566141732281
21
-2.210896653543307
0
LINE
8
BLACK
6
CONTINUOUS
10
5.1065566141732281
20
-2.210896653543307
11
5.1135737007874011
21
-2.2097852362204722
0
LINE
8
BLACK
6
CONTINUOUS
10
5.1135737007874011
20
-2.2097852362204722
11
5.120678267716535
21
-2.2097852362204722
0
LINE
8
BLACK
6
CONTINUOUS
10
5.120678267716535
20
-2.2097852362204722
11
5.1276953543307089
21
-2.210896653543307
0
LINE
8
BLACK
6
CONTINUOUS
10
5.0757874015748028
20
-2.2589927559055116
11
5.0773759842519688
21
-2.2669792913385827
0
LINE
8
BLACK
6
CONTINUOUS
10
5.0773759842519688
20
-2.2669792913385827
11
5.0804922047244094
21
-2.274502440944882
0
LINE
8
BLACK
6
CONTINUOUS
10
5.0804922047244094
20
-2.274502440944882
11
5.085016181102362
21
-2.2812730708661415
0
LINE
8
BLACK
6
CONTINUOUS
10
5.085016181102362
20
-2.2812730708661415
11
5.090774173228346
21
-2.287031062992126
0
LINE
8
BLACK
6
CONTINUOUS
10
5.090774173228346
20
-2.287031062992126
11
5.0975448031496065
21
-2.2915550393700785
0
LINE
8
BLACK
6
CONTINUOUS
10
5.0975448031496065
20
-2.2915550393700785
11
5.1050679527559053
21
-2.2946712598425196
0
LINE
8
BLACK
6
CONTINUOUS
10
5.1050679527559053
20
-2.2946712598425196
11
5.1130544881889763
21
-2.2962598425196852
0
LINE
8
BLACK
6
CONTINUOUS
10
5.1130544881889763
20
-2.2962598425196852
11
5.1211974803149607
21
-2.2962598425196852
0
LINE
8
BLACK
6
CONTINUOUS
10
5.1211974803149607
20
-2.2962598425196852
11
5.1291840157480317
21
-2.2946712598425196
0
LINE
8
BLACK
6
CONTINUOUS
10
5.1291840157480317
20
-2.2946712598425196
11
5.1367071653543306
21
-2.2915550393700785
0
LINE
8
BLACK
6
CONTINUOUS
10
5.1367071653543306
20
-2.2915550393700785
11
5.1434777952755901
21
-2.287031062992126
0
LINE
8
BLACK
6
CONTINUOUS
10
5.1434777952755901
20
-2.287031062992126
11
5.1492357874015751
21
-2.2812730708661415
0
LINE
8
BLACK
6
CONTINUOUS
10
5.1492357874015751
20
-2.2812730708661415
11
5.1537597637795276
21
-2.274502440944882
0
LINE
8
BLACK
6
CONTINUOUS
10
5.1537597637795276
20
-2.274502440944882
11
5.1568759842519682
21
-2.2669792913385827
0
LINE
8
BLACK
6
CONTINUOUS
10
5.1568759842519682
20
-2.2669792913385827
11
5.1584645669291334
21
-2.2589927559055116
0
LINE
8
BLACK
6
CONTINUOUS
10
5.1584645669291334
20
-2.2589927559055116
11
5.1584645669291334
21
-2.2508497637795277
0
LINE
8
BLACK
6
CONTINUOUS
10
5.1584645669291334
20
-2.2508497637795277
11
5.1568759842519682
21
-2.2428632283464567
0
LINE
8
BLACK
6
CONTINUOUS
10
5.1568759842519682
20
-2.2428632283464567
11
5.1537597637795276
21
-2.2353400787401574
0
LINE
8
BLACK
6
CONTINUOUS
10
5.1537597637795276
20
-2.2353400787401574
11
5.1492357874015751
21
-2.2285694488188974
0
LINE
8
BLACK
6
CONTINUOUS
10
5.1492357874015751
20
-2.2285694488188974
11
5.1434777952755901
21
-2.2228114566929134
0
LINE
8
BLACK
6
CONTINUOUS
10
5.1434777952755901
20
-2.2228114566929134
11
5.1367071653543306
21
-2.2182874803149604
0
LINE
8
BLACK
6
CONTINUOUS
10
5.1367071653543306
20
-2.2182874803149604
11
5.1291840157480317
21
-2.2151712598425197
0
LINE
8
BLACK
6
CONTINUOUS
10
5.1291840157480317
20
-2.2151712598425197
11
5.1211974803149607
21
-2.2135826771653542
0
LINE
8
BLACK
6
CONTINUOUS
10
5.1211974803149607
20
-2.2135826771653542
11
5.1130544881889763
21
-2.2135826771653542
0
LINE
8
BLACK
6
CONTINUOUS
10
5.1130544881889763
20
-2.2135826771653542
11
5.1050679527559053
21
-2.2151712598425197
0
LINE
8
BLACK
6
CONTINUOUS
10
5.1050679527559053
20
-2.2151712598425197
11
5.0975448031496065
21
-2.2182874803149604
0
LINE
8
BLACK
6
CONTINUOUS
10
5.0975448031496065
20
-2.2182874803149604
11
5.090774173228346
21
-2.2228114566929134
0
LINE
8
BLACK
6
CONTINUOUS
10
5.090774173228346
20
-2.2228114566929134
11
5.085016181102362
21
-2.2285694488188974
0
LINE
8
BLACK
6
CONTINUOUS
10
5.085016181102362
20
-2.2285694488188974
11
5.0804922047244094
21
-2.2353400787401574
0
LINE
8
BLACK
6
CONTINUOUS
10
5.0804922047244094
20
-2.2353400787401574
11
5.0773759842519688
21
-2.2428632283464567
0
LINE
8
BLACK
6
CONTINUOUS
10
5.0773759842519688
20
-2.2428632283464567
11
5.0757874015748028
21
-2.2508497637795277
0
LINE
8
BLACK
6
CONTINUOUS
10
5.0757874015748028
20
-2.2508497637795277
11
5.0757874015748028
21
-2.2589927559055116
0
LINE
8
BLACK
6
CONTINUOUS
10
5.0225575196850389
20
-1.6907309842519684
11
5.0238359448818892
21
-1.6920094094488189
0
LINE
8
BLACK
6
CONTINUOUS
10
5.0238359448818892
20
-1.6920094094488189
11
5.0240157480314958
21
-1.6929133858267715
0
LINE
8
BLACK
6
CONTINUOUS
10
5.0240157480314958
20
-1.6929133858267715
11
5.0240157480314958
21
-2.2440944881889764
0
LINE
8
BLACK
6
CONTINUOUS
10
5.0240157480314958
20
-2.2440944881889764
11
5.0238359448818892
21
-2.2449984645669292
0
LINE
8
BLACK
6
CONTINUOUS
10
5.0238359448818892
20
-2.2449984645669292
11
5.0225575196850389
21
-2.2462768897637795
0
LINE
8
BLACK
6
CONTINUOUS
10
5.0225575196850389
20
-2.2462768897637795
11
5.0216535433070861
21
-2.2464566929133856
0
LINE
8
BLACK
6
CONTINUOUS
10
5.0216535433070861
20
-2.2464566929133856
11
4.4704724409448815
21
-2.2464566929133856
0
LINE
8
BLACK
6
CONTINUOUS
10
4.4704724409448815
20
-2.2464566929133856
11
4.4695684645669287
21
-2.2462768897637795
0
LINE
8
BLACK
6
CONTINUOUS
10
4.4695684645669287
20
-2.2462768897637795
11
4.4682900393700784
21
-2.2449984645669292
0
LINE
8
BLACK
6
CONTINUOUS
10
4.4682900393700784
20
-2.2449984645669292
11
4.4681102362204728
21
-2.2440944881889764
0
LINE
8
BLACK
6
CONTINUOUS
10
4.4681102362204728
20
-2.2440944881889764
11
4.4681102362204728
21
-1.6929133858267715
0
LINE
8
BLACK
6
CONTINUOUS
10
4.4681102362204728
20
-1.6929133858267715
11
4.4682900393700784
21
-1.6920094094488189
0
LINE
8
BLACK
6
CONTINUOUS
10
4.4682900393700784
20
-1.6920094094488189
11
4.4695684645669287
21
-1.6907309842519684
0
LINE
8
BLACK
6
CONTINUOUS
10
4.4695684645669287
20
-1.6907309842519684
11
4.4704724409448815
21
-1.6905511811023621
0
LINE
8
BLACK
6
CONTINUOUS
10
4.4704724409448815
20
-1.6905511811023621
11
5.0216535433070861
21
-1.6905511811023621
0
LINE
8
BLACK
6
CONTINUOUS
10
5.0216535433070861
20
-1.6905511811023621
11
5.0225575196850389
21
-1.6907309842519684
0
LINE
8
BLACK
6
CONTINUOUS
10
4.4728346456692911
20
-1.6952755905511812
11
4.4728346456692911
21
-2.2417322834645668
0
LINE
8
BLACK
6
CONTINUOUS
10
4.4728346456692911
20
-2.2417322834645668
11
5.0192913385826774
21
-2.2417322834645668
0
LINE
8
BLACK
6
CONTINUOUS
10
5.0192913385826774
20
-2.2417322834645668
11
5.0192913385826774
21
-1.6952755905511812
0
LINE
8
BLACK
6
CONTINUOUS
10
5.0192913385826774
20
-1.6952755905511812
11
4.4728346456692911
21
-1.6952755905511812
0
LINE
8
BLACK
6
CONTINUOUS
10
7.2705884251968502
20
-1.593880590551181
11
7.2718668503937005
21
-1.5951590157480315
0
LINE
8
BLACK
6
CONTINUOUS
10
7.2718668503937005
20
-1.5951590157480315
11
7.272046653543307
21
-1.5960629921259841
0
LINE
8
BLACK
6
CONTINUOUS
10
7.272046653543307
20
-1.5960629921259841
11
7.272046653543307
21
-2.147244094488189
0
LINE
8
BLACK
6
CONTINUOUS
10
7.272046653543307
20
-2.147244094488189
11
7.2718668503937005
21
-2.1481480708661418
0
LINE
8
BLACK
6
CONTINUOUS
10
7.2718668503937005
20
-2.1481480708661418
11
7.2705884251968502
21
-2.1494264960629921
0
LINE
8
BLACK
6
CONTINUOUS
10
7.2705884251968502
20
-2.1494264960629921
11
7.2696844488188974
21
-2.1496062992125982
0
LINE
8
BLACK
6
CONTINUOUS
10
7.2696844488188974
20
-2.1496062992125982
11
6.7185033464566928
21
-2.1496062992125982
0
LINE
8
BLACK
6
CONTINUOUS
10
6.7185033464566928
20
-2.1496062992125982
11
6.71759937007874
21
-2.1494264960629921
0
LINE
8
BLACK
6
CONTINUOUS
10
6.71759937007874
20
-2.1494264960629921
11
6.7163209448818897
21
-2.1481480708661418
0
LINE
8
BLACK
6
CONTINUOUS
10
6.7163209448818897
20
-2.1481480708661418
11
6.7161411417322832
21
-2.147244094488189
0
LINE
8
BLACK
6
CONTINUOUS
10
6.7161411417322832
20
-2.147244094488189
11
6.7161411417322832
21
-1.5960629921259841
0
LINE
8
BLACK
6
CONTINUOUS
10
6.7161411417322832
20
-1.5960629921259841
11
6.7163209448818897
21
-1.5951590157480315
0
LINE
8
BLACK
6
CONTINUOUS
10
6.7163209448818897
20
-1.5951590157480315
11
6.71759937007874
21
-1.593880590551181
0
LINE
8
BLACK
6
CONTINUOUS
10
6.71759937007874
20
-1.593880590551181
11
6.7185033464566928
21
-1.5937007874015747
0
LINE
8
BLACK
6
CONTINUOUS
10
6.7185033464566928
20
-1.5937007874015747
11
7.2696844488188974
21
-1.5937007874015747
0
LINE
8
BLACK
6
CONTINUOUS
10
7.2696844488188974
20
-1.5937007874015747
11
7.2705884251968502
21
-1.593880590551181
0
LINE
8
BLACK
6
CONTINUOUS
10
6.7208655511811024
20
-1.5984251968503937
11
6.7208655511811024
21
-2.1448818897637794
0
LINE
8
BLACK
6
CONTINUOUS
10
6.7208655511811024
20
-2.1448818897637794
11
7.2673222440944878
21
-2.1448818897637794
0
LINE
8
BLACK
6
CONTINUOUS
10
7.2673222440944878
20
-2.1448818897637794
11
7.2673222440944878
21
-1.5984251968503937
0
LINE
8
BLACK
6
CONTINUOUS
10
7.2673222440944878
20
-1.5984251968503937
11
6.7208655511811024
21
-1.5984251968503937
0
LINE
8
BLACK
6
CONTINUOUS
10
5.7705884251968502
20
-1.5923057874015747
11
5.7718668503937005
21
-1.5935842125984252
0
LINE
8
BLACK
6
CONTINUOUS
10
5.7718668503937005
20
-1.5935842125984252
11
5.772046653543307
21
-1.594488188976378
0
LINE
8
BLACK
6
CONTINUOUS
10
5.772046653543307
20
-1.594488188976378
11
5.772046653543307
21
-2.1456692913385824
0
LINE
8
BLACK
6
CONTINUOUS
10
5.772046653543307
20
-2.1456692913385824
11
5.7718668503937005
21
-2.1465732677165352
0
LINE
8
BLACK
6
CONTINUOUS
10
5.7718668503937005
20
-2.1465732677165352
11
5.7705884251968502
21
-2.147851692913386
0
LINE
8
BLACK
6
CONTINUOUS
10
5.7705884251968502
20
-2.147851692913386
11
5.7696844488188974
21
-2.148031496062992
0
LINE
8
BLACK
6
CONTINUOUS
10
5.7696844488188974
20
-2.148031496062992
11
5.2185033464566928
21
-2.148031496062992
0
LINE
8
BLACK
6
CONTINUOUS
10
5.2185033464566928
20
-2.148031496062992
11
5.21759937007874
21
-2.147851692913386
0
LINE
8
BLACK
6
CONTINUOUS
10
5.21759937007874
20
-2.147851692913386
11
5.2163209448818897
21
-2.1465732677165352
0
LINE
8
BLACK
6
CONTINUOUS
10
5.2163209448818897
20
-2.1465732677165352
11
5.2161411417322832
21
-2.1456692913385824
0
LINE
8
BLACK
6
CONTINUOUS
10
5.2161411417322832
20
-2.1456692913385824
11
5.2161411417322832
21
-1.594488188976378
0
LINE
8
BLACK
6
CONTINUOUS
10
5.2161411417322832
20
-1.594488188976378
11
5.2163209448818897
21
-1.5935842125984252
0
LINE
8
BLACK
6
CONTINUOUS
10
5.2163209448818897
20
-1.5935842125984252
11
5.21759937007874
21
-1.5923057874015747
0
LINE
8
BLACK
6
CONTINUOUS
10
5.21759937007874
20
-1.5923057874015747
11
5.2185033464566928
21
-1.5921259842519684
0
LINE
8
BLACK
6
CONTINUOUS
10
5.2185033464566928
20
-1.5921259842519684
11
5.7696844488188974
21
-1.5921259842519684
0
LINE
8
BLACK
6
CONTINUOUS
10
5.7696844488188974
20
-1.5921259842519684
11
5.7705884251968502
21
-1.5923057874015747
0
LINE
8
BLACK
6
CONTINUOUS
10
5.2208655511811024
20
-1.5968503937007874
11
5.2208655511811024
21
-2.1433070866141732
0
LINE
8
BLACK
6
CONTINUOUS
10
5.2208655511811024
20
-2.1433070866141732
11
5.7673222440944878
21
-2.1433070866141732
0
LINE
8
BLACK
6
CONTINUOUS
10
5.7673222440944878
20
-2.1433070866141732
11
5.7673222440944878
21
-1.5968503937007874
0
LINE
8
BLACK
6
CONTINUOUS
10
5.7673222440944878
20
-1.5968503937007874
11
5.2208655511811024
21
-1.5968503937007874
0
LINE
8
BLACK
6
CONTINUOUS
10
6.5225575196850389
20
-1.4938805905511812
11
6.5238359448818892
21
-1.4951590157480315
0
LINE
8
BLACK
6
CONTINUOUS
10
6.5238359448818892
20
-1.4951590157480315
11
6.5240157480314958
21
-1.4960629921259843
0
LINE
8
BLACK
6
CONTINUOUS
10
6.5240157480314958
20
-1.4960629921259843
11
6.5240157480314958
21
-2.0472440944881889
0
LINE
8
BLACK
6
CONTINUOUS
10
6.5240157480314958
20
-2.0472440944881889
11
6.5238359448818892
21
-2.0481480708661417
0
LINE
8
BLACK
6
CONTINUOUS
10
6.5238359448818892
20
-2.0481480708661417
11
6.5225575196850389
21
-2.049426496062992
0
LINE
8
BLACK
6
CONTINUOUS
10
6.5225575196850389
20
-2.049426496062992
11
6.5216535433070861
21
-2.0496062992125985
0
LINE
8
BLACK
6
CONTINUOUS
10
6.5216535433070861
20
-2.0496062992125985
11
5.9704724409448815
21
-2.0496062992125985
0
LINE
8
BLACK
6
CONTINUOUS
10
5.9704724409448815
20
-2.0496062992125985
11
5.9695684645669287
21
-2.049426496062992
0
LINE
8
BLACK
6
CONTINUOUS
10
5.9695684645669287
20
-2.049426496062992
11
5.9682900393700784
21
-2.0481480708661417
0
LINE
8
BLACK
6
CONTINUOUS
10
5.9682900393700784
20
-2.0481480708661417
11
5.9681102362204719
21
-2.0472440944881889
0
LINE
8
BLACK
6
CONTINUOUS
10
5.9681102362204719
20
-2.0472440944881889
11
5.9681102362204719
21
-1.4960629921259843
0
LINE
8
BLACK
6
CONTINUOUS
10
5.9681102362204719
20
-1.4960629921259843
11
5.9682900393700784
21
-1.4951590157480315
0
LINE
8
BLACK
6
CONTINUOUS
10
5.9682900393700784
20
-1.4951590157480315
11
5.9695684645669287
21
-1.4938805905511812
0
LINE
8
BLACK
6
CONTINUOUS
10
5.9695684645669287
20
-1.4938805905511812
11
5.9704724409448815
21
-1.4937007874015749
0
LINE
8
BLACK
6
CONTINUOUS
10
5.9704724409448815
20
-1.4937007874015749
11
6.5216535433070861
21
-1.4937007874015749
0
LINE
8
BLACK
6
CONTINUOUS
10
6.5216535433070861
20
-1.4937007874015749
11
6.5225575196850389
21
-1.4938805905511812
0
LINE
8
BLACK
6
CONTINUOUS
10
5.9728346456692911
20
-1.4984251968503937
11
5.9728346456692911
21
-2.0448818897637793
0
LINE
8
BLACK
6
CONTINUOUS
10
5.9728346456692911
20
-2.0448818897637793
11
6.5192913385826774
21
-2.0448818897637793
0
LINE
8
BLACK
6
CONTINUOUS
10
6.5192913385826774
20
-2.0448818897637793
11
6.5192913385826774
21
-1.4984251968503937
0
LINE
8
BLACK
6
CONTINUOUS
10
6.5192913385826774
20
-1.4984251968503937
11
5.9728346456692911
21
-1.4984251968503937
0
LINE
8
BLACK
6
CONTINUOUS
10
6.7392075984251969
20
-1.3741530708661418
11
6.7394391338582675
21
-1.374166811023622
0
LINE
8
BLACK
6
CONTINUOUS
10
6.7394391338582675
20
-1.374166811023622
11
8.8399872834645663
21
-1.7074847244094489
0
LINE
8
BLACK
6
CONTINUOUS
10
8.8399872834645663
20
-1.7074847244094489
11
8.8401204330708651
21
-1.7075194881889764
0
LINE
8
BLACK
6
CONTINUOUS
10
8.8401204330708651
20
-1.7075194881889764
11
8.8402568503937005
21
-1.7075404724409449
0
LINE
8
BLACK
6
CONTINUOUS
10
8.8402568503937005
20
-1.7075404724409449
11
8.8481966141732276
21
-1.7095731496062991
0
LINE
8
BLACK
6
CONTINUOUS
10
8.8481966141732276
20
-1.7095731496062991
11
8.8487405905511807
21
-1.7097709842519684
0
LINE
8
BLACK
6
CONTINUOUS
10
8.8487405905511807
20
-1.7097709842519684
11
8.8488525196850389
21
-1.7098549212598424
0
LINE
8
BLACK
6
CONTINUOUS
10
8.8488525196850389
20
-1.7098549212598424
11
8.8489842519685045
21
-1.7099021653543307
0
LINE
8
BLACK
6
CONTINUOUS
10
8.8489842519685045
20
-1.7099021653543307
11
8.8490400393700792
21
-1.7099436220472441
0
LINE
8
BLACK
6
CONTINUOUS
10
8.8490400393700792
20
-1.7099436220472441
11
8.8560484645669284
21
-1.7131561417322834
0
LINE
8
BLACK
6
CONTINUOUS
10
8.8560484645669284
20
-1.7131561417322834
11
8.8565485039370078
21
-1.7134477559055117
0
LINE
8
BLACK
6
CONTINUOUS
10
8.8565485039370078
20
-1.7134477559055117
11
8.8566229921259847
21
-1.7135279527559055
0
LINE
8
BLACK
6
CONTINUOUS
10
8.8566229921259847
20
-1.7135279527559055
11
8.8567190157480304
21
-1.7135808267716535
0
LINE
8
BLACK
6
CONTINUOUS
10
8.8567190157480304
20
-1.7135808267716535
11
8.8568317716535425
21
-1.7137216929133858
0
LINE
8
BLACK
6
CONTINUOUS
10
8.8568317716535425
20
-1.7137216929133858
11
8.8629060236220472
21
-1.7179297637795274
0
LINE
8
BLACK
6
CONTINUOUS
10
8.8629060236220472
20
-1.7179297637795274
11
8.8629317322834638
21
-1.7179516141732283
0
LINE
8
BLACK
6
CONTINUOUS
10
8.8629317322834638
20
-1.7179516141732283
11
8.8629607480314956
21
-1.7179686220472441
0
LINE
8
BLACK
6
CONTINUOUS
10
8.8629607480314956
20
-1.7179686220472441
11
8.8631200787401578
21
-1.7180844488188975
0
LINE
8
BLACK
6
CONTINUOUS
10
8.8631200787401578
20
-1.7180844488188975
11
8.8632860629921257
21
-1.7182320078740156
0
LINE
8
BLACK
6
CONTINUOUS
10
8.8632860629921257
20
-1.7182320078740156
11
8.8634590157480311
21
-1.7183722047244094
0
LINE
8
BLACK
6
CONTINUOUS
10
8.8634590157480311
20
-1.7183722047244094
11
8.8687235826771644
21
-1.7235729133858266
0
LINE
8
BLACK
6
CONTINUOUS
10
8.8687235826771644
20
-1.7235729133858266
11
8.8689100393700784
21
-1.7236747637795276
0
LINE
8
BLACK
6
CONTINUOUS
10
8.8689100393700784
20
-1.7236747637795276
11
8.8689656692913381
21
-1.7237438188976377
0
LINE
8
BLACK
6
CONTINUOUS
10
8.8689656692913381
20
-1.7237438188976377
11
8.8690410629921264
21
-1.7237909842519685
0
LINE
8
BLACK
6
CONTINUOUS
10
8.8690410629921264
20
-1.7237909842519685
11
8.8694214960629925
21
-1.7242272834645669
0
LINE
8
BLACK
6
CONTINUOUS
10
8.8694214960629925
20
-1.7242272834645669
11
8.873971102362205
21
-1.7306140944881889
0
LINE
8
BLACK
6
CONTINUOUS
10
8.873971102362205
20
-1.7306140944881889
11
8.874205787401575
21
-1.7310232283464566
0
LINE
8
BLACK
6
CONTINUOUS
10
8.874205787401575
20
-1.7310232283464566
11
8.8742329527559054
21
-1.73105968503937
0
LINE
8
BLACK
6
CONTINUOUS
10
8.8742329527559054
20
-1.73105968503937
11
8.874237834645669
21
-1.7310790551181101
0
LINE
8
BLACK
6
CONTINUOUS
10
8.874237834645669
20
-1.7310790551181101
11
8.874259133858267
21
-1.7311161811023621
0
LINE
8
BLACK
6
CONTINUOUS
10
8.874259133858267
20
-1.7311161811023621
11
8.87438153543307
21
-1.7316481102362205
0
LINE
8
BLACK
6
CONTINUOUS
10
8.87438153543307
20
-1.7316481102362205
11
8.874417401574803
21
-1.7317900393700787
0
LINE
8
BLACK
6
CONTINUOUS
10
8.874417401574803
20
-1.7317900393700787
11
8.8775935039370069
21
-1.7384387007874016
0
LINE
8
BLACK
6
CONTINUOUS
10
8.8775935039370069
20
-1.7384387007874016
11
8.8777905905511805
21
-1.7389829527559055
0
LINE
8
BLACK
6
CONTINUOUS
10
8.8777905905511805
20
-1.7389829527559055
11
8.8777927559055119
21
-1.7390241732283465
0
LINE
8
BLACK
6
CONTINUOUS
10
8.8777927559055119
20
-1.7390241732283465
11
8.8778201574803148
21
-1.7391233858267716
0
LINE
8
BLACK
6
CONTINUOUS
10
8.8778201574803148
20
-1.7391233858267716
11
8.8778251574803146
21
-1.7391354330708662
0
LINE
8
BLACK
6
CONTINUOUS
10
8.8778251574803146
20
-1.7391354330708662
11
8.8778251574803146
21
-1.7391414173228346
0
LINE
8
BLACK
6
CONTINUOUS
10
8.8778251574803146
20
-1.7391414173228346
11
8.8798954330708657
21
-1.746638031496063
0
LINE
8
BLACK
6
CONTINUOUS
10
8.8798954330708657
20
-1.746638031496063
11
8.8799940944881897
21
-1.7472084251968503
0
LINE
8
BLACK
6
CONTINUOUS
10
8.8799940944881897
20
-1.7472084251968503
11
8.879991811023622
21
-1.7472266929133857
0
LINE
8
BLACK
6
CONTINUOUS
10
8.879991811023622
20
-1.7472266929133857
11
8.8799965354330705
21
-1.7472446062992126
0
LINE
8
BLACK
6
CONTINUOUS
10
8.8799965354330705
20
-1.7472446062992126
11
8.8799210236220478
21
-1.7477980708661416
0
LINE
8
BLACK
6
CONTINUOUS
10
8.8799210236220478
20
-1.7477980708661416
11
8.879900196850393
21
-1.7479661417322834
0
LINE
8
BLACK
6
CONTINUOUS
10
8.879900196850393
20
-1.7479661417322834
11
8.8805652755905502
21
-1.7553207480314961
0
LINE
8
BLACK
6
CONTINUOUS
10
8.8805652755905502
20
-1.7553207480314961
11
8.8805642125984257
21
-1.7554534251968503
0
LINE
8
BLACK
6
CONTINUOUS
10
8.8805642125984257
20
-1.7554534251968503
11
8.8805772834645662
21
-1.7555856299212598
0
LINE
8
BLACK
6
CONTINUOUS
10
8.8805772834645662
20
-1.7555856299212598
11
8.8816402755905504
21
-4.7051170472440944
0
LINE
8
BLACK
6
CONTINUOUS
10
8.8816402755905504
20
-4.7051170472440944
11
8.8815837401574793
21
-4.705693149606299
0
LINE
8
BLACK
6
CONTINUOUS
10
8.8815837401574793
20
-4.705693149606299
11
8.8815673622047235
21
-4.7057326377952755
0
LINE
8
BLACK
6
CONTINUOUS
10
8.8815673622047235
20
-4.7057326377952755
11
8.8815661811023627
21
-4.7057754330708663
0
LINE
8
BLACK
6
CONTINUOUS
10
8.8815661811023627
20
-4.7057754330708663
11
8.881347637795276
21
-4.7062637007874013
0
LINE
8
BLACK
6
CONTINUOUS
10
8.881347637795276
20
-4.7062637007874013
11
8.8811432283464562
21
-4.7067577165354333
0
LINE
8
BLACK
6
CONTINUOUS
10
8.8811432283464562
20
-4.7067577165354333
11
8.8811129921259848
21
-4.7067879133858268
0
LINE
8
BLACK
6
CONTINUOUS
10
8.8811129921259848
20
-4.7067879133858268
11
8.8810955511811027
21
-4.706826968503937
0
LINE
8
BLACK
6
CONTINUOUS
10
8.8810955511811027
20
-4.706826968503937
11
8.8807067322834641
21
-4.7071944488188979
0
LINE
8
BLACK
6
CONTINUOUS
10
8.8807067322834641
20
-4.7071944488188979
11
8.8803288582677169
21
-4.7075726377952751
0
LINE
8
BLACK
6
CONTINUOUS
10
8.8803288582677169
20
-4.7075726377952751
11
8.8802893700787404
21
-4.707588976377953
0
LINE
8
BLACK
6
CONTINUOUS
10
8.8802893700787404
20
-4.707588976377953
11
8.8802582677165347
21
-4.7076184251968503
0
LINE
8
BLACK
6
CONTINUOUS
10
8.8802582677165347
20
-4.7076184251968503
11
8.87974031496063
21
-4.7078768110236222
0
LINE
8
BLACK
6
CONTINUOUS
10
8.87974031496063
20
-4.7078768110236222
11
7.3848512598425193
21
-5.2783492519685042
0
LINE
8
BLACK
6
CONTINUOUS
10
7.3848512598425193
20
-5.2783492519685042
11
7.3844257086614169
21
-5.2784653543307085
0
LINE
8
BLACK
6
CONTINUOUS
10
7.3844257086614169
20
-5.2784653543307085
11
7.3843745669291341
21
-5.2784865748031491
0
LINE
8
BLACK
6
CONTINUOUS
10
7.3843745669291341
20
-5.2784865748031491
11
7.38433311023622
21
-5.2784906299212597
0
LINE
8
BLACK
6
CONTINUOUS
10
7.38433311023622
20
-5.2784906299212597
11
7.3842928346456693
21
-5.2785016535433069
0
LINE
8
BLACK
6
CONTINUOUS
10
7.3842928346456693
20
-5.2785016535433069
11
7.3842373228346458
21
-5.2785000787401577
0
LINE
8
BLACK
6
CONTINUOUS
10
7.3842373228346458
20
-5.2785000787401577
11
7.3837985039370073
21
-5.2785433070866139
0
LINE
8
BLACK
6
CONTINUOUS
10
7.3837985039370073
20
-5.2785433070866139
11
5.4413618503937009
21
-5.2785433070866139
0
LINE
8
BLACK
6
CONTINUOUS
10
5.4413618503937009
20
-5.2785433070866139
11
3.6994738582677162
21
-5.7803964173228346
0
LINE
8
BLACK
6
CONTINUOUS
10
3.6994738582677162
20
-5.7803964173228346
11
3.6989046062992124
21
-5.7805013779527554
0
LINE
8
BLACK
6
CONTINUOUS
10
3.6989046062992124
20
-5.7805013779527554
11
3.6988039763779526
21
-5.7804900393700782
0
LINE
8
BLACK
6
CONTINUOUS
10
3.6988039763779526
20
-5.7804900393700782
11
3.6987050787401574
21
-5.7805114173228347
0
LINE
8
BLACK
6
CONTINUOUS
10
3.6987050787401574
20
-5.7805114173228347
11
3.6981281889763777
21
-5.7804641732283466
0
LINE
8
BLACK
6
CONTINUOUS
10
3.6981281889763777
20
-5.7804641732283466
11
3.6764746456692912
21
-5.7765271653543309
0
LINE
8
BLACK
6
CONTINUOUS
10
3.6764746456692912
20
-5.7765271653543309
11
3.6762731889763778
21
-5.776469645669291
0
LINE
8
BLACK
6
CONTINUOUS
10
3.6762731889763778
20
-5.776469645669291
11
3.6760690944881889
21
-5.7764232677165355
0
LINE
8
BLACK
6
CONTINUOUS
10
3.6760690944881889
20
-5.7764232677165355
11
3.658352559055118
21
-5.7705177559055114
0
LINE
8
BLACK
6
CONTINUOUS
10
3.658352559055118
20
-5.7705177559055114
11
3.6578537401574804
21
-5.7702950393700787
0
LINE
8
BLACK
6
CONTINUOUS
10
3.6578537401574804
20
-5.7702950393700787
11
3.6578389763779526
21
-5.7702902362204727
0
LINE
8
BLACK
6
CONTINUOUS
10
3.6578389763779526
20
-5.7702902362204727
11
3.6578319685039369
21
-5.7702853149606295
0
LINE
8
BLACK
6
CONTINUOUS
10
3.6578319685039369
20
-5.7702853149606295
11
3.6578239763779528
21
-5.7702817716535435
0
LINE
8
BLACK
6
CONTINUOUS
10
3.6578239763779528
20
-5.7702817716535435
11
3.6578118503937005
21
-5.7702712598425192
0
LINE
8
BLACK
6
CONTINUOUS
10
3.6578118503937005
20
-5.7702712598425192
11
3.6573646456692912
21
-5.7699584251968501
0
LINE
8
BLACK
6
CONTINUOUS
10
3.6573646456692912
20
-5.7699584251968501
11
3.6435851574803149
21
-5.7581474015748029
0
LINE
8
BLACK
6
CONTINUOUS
10
3.6435851574803149
20
-5.7581474015748029
11
3.6433435433070867
21
-5.7578952362204721
0
LINE
8
BLACK
6
CONTINUOUS
10
3.6433435433070867
20
-5.7578952362204721
11
3.6432845669291338
21
-5.7578498818897632
0
LINE
8
BLACK
6
CONTINUOUS
10
3.6432845669291338
20
-5.7578498818897632
11
3.6432389763779525
21
-5.7577861023622043
0
LINE
8
BLACK
6
CONTINUOUS
10
3.6432389763779525
20
-5.7577861023622043
11
3.6431846850393699
21
-5.7577294488188979
0
LINE
8
BLACK
6
CONTINUOUS
10
3.6431846850393699
20
-5.7577294488188979
11
3.6431509448818895
21
-5.7576629527559051
0
LINE
8
BLACK
6
CONTINUOUS
10
3.6431509448818895
20
-5.7576629527559051
11
3.6429479527559052
21
-5.7573789763779528
0
LINE
8
BLACK
6
CONTINUOUS
10
3.6429479527559052
20
-5.7573789763779528
11
3.2394046456692913
21
-5.0565915748031491
0
LINE
8
BLACK
6
CONTINUOUS
10
3.2394046456692913
20
-5.0565915748031491
11
3.2393754724409449
21
-5.0565270078740152
0
LINE
8
BLACK
6
CONTINUOUS
10
3.2393754724409449
20
-5.0565270078740152
11
3.239355118110236
21
-5.056502047244094
0
LINE
8
BLACK
6
CONTINUOUS
10
3.239355118110236
20
-5.056502047244094
11
3.23926437007874
21
-5.0562811023622043
0
LINE
8
BLACK
6
CONTINUOUS
10
3.23926437007874
20
-5.0562811023622043
11
3.239166338582677
21
-5.0560640551181102
0
LINE
8
BLACK
6
CONTINUOUS
10
3.239166338582677
20
-5.0560640551181102
11
3.2391621653543305
21
-5.0560321653543303
0
LINE
8
BLACK
6
CONTINUOUS
10
3.2391621653543305
20
-5.0560321653543303
11
3.2391352362204722
21
-5.0559665748031497
0
LINE
8
BLACK
6
CONTINUOUS
10
3.2391352362204722
20
-5.0559665748031497
11
3.2332297244094486
21
-5.036281535433071
0
LINE
8
BLACK
6
CONTINUOUS
10
3.2332297244094486
20
-5.036281535433071
11
3.2332251181102363
21
-5.0362580314960628
0
LINE
8
BLACK
6
CONTINUOUS
10
3.2332251181102363
20
-5.0362580314960628
11
3.2332197637795277
21
-5.0362476377952756
0
LINE
8
BLACK
6
CONTINUOUS
10
3.2332197637795277
20
-5.0362476377952756
11
3.2331705511811024
21
-5.0359792913385828
0
LINE
8
BLACK
6
CONTINUOUS
10
3.2331705511811024
20
-5.0359792913385828
11
3.2331185433070866
21
-5.0357134645669293
0
LINE
8
BLACK
6
CONTINUOUS
10
3.2331185433070866
20
-5.0357134645669293
11
3.23311968503937
21
-5.0357018897637795
0
LINE
8
BLACK
6
CONTINUOUS
10
3.23311968503937
20
-5.0357018897637795
11
3.2331153937007873
21
-5.0356783070866138
0
LINE
8
BLACK
6
CONTINUOUS
10
3.2331153937007873
20
-5.0356783070866138
11
3.2311468897637794
21
-5.0120562204724406
0
LINE
8
BLACK
6
CONTINUOUS
10
3.2311468897637794
20
-5.0120562204724406
11
3.2311487007874016
21
-5.0119333070866139
0
LINE
8
BLACK
6
CONTINUOUS
10
3.2311487007874016
20
-5.0119333070866139
11
3.2311366929133856
21
-5.0118110236220472
0
LINE
8
BLACK
6
CONTINUOUS
10
3.2311366929133856
20
-5.0118110236220472
11
3.2311366929133856
21
-4.9960629921259843
0
LINE
8
BLACK
6
CONTINUOUS
10
3.2311366929133856
20
-4.9960629921259843
11
3.2311368897637793
21
-4.9960609055118113
0
LINE
8
BLACK
6
CONTINUOUS
10
3.2311368897637793
20
-4.9960609055118113
11
3.2311366929133856
21
-4.9960599212598424
0
LINE
8
BLACK
6
CONTINUOUS
10
3.2311366929133856
20
-4.9960599212598424
11
3.2311658267716536
21
-4.9957668503937009
0
LINE
8
BLACK
6
CONTINUOUS
10
3.2311658267716536
20
-4.9957668503937009
11
3.2311934251968504
21
-4.9954869291338584
0
LINE
8
BLACK
6
CONTINUOUS
10
3.2311934251968504
20
-4.9954869291338584
11
3.2311937795275592
21
-4.9954859842519683
0
LINE
8
BLACK
6
CONTINUOUS
10
3.2311937795275592
20
-4.9954859842519683
11
3.2311940157480312
21
-4.9954838976377953
0
LINE
8
BLACK
6
CONTINUOUS
10
3.2311940157480312
20
-4.9954838976377953
11
3.235131023622047
21
-4.9757988582677166
0
LINE
8
BLACK
6
CONTINUOUS
10
3.235131023622047
20
-4.9757988582677166
11
3.235196692913386
21
-4.975583188976378
0
LINE
8
BLACK
6
CONTINUOUS
10
3.235196692913386
20
-4.975583188976378
11
3.2352042125984251
21
-4.9755098031496061
0
LINE
8
BLACK
6
CONTINUOUS
10
3.2352042125984251
20
-4.9755098031496061
11
3.2352585433070864
21
-4.9753799606299207
0
LINE
8
BLACK
6
CONTINUOUS
10
3.2352585433070864
20
-4.9753799606299207
11
3.2352996456692913
21
-4.9752451181102364
0
LINE
8
BLACK
6
CONTINUOUS
10
3.2352996456692913
20
-4.9752451181102364
11
3.2353407480314962
21
-4.9751837007874018
0
LINE
8
BLACK
6
CONTINUOUS
10
3.2353407480314962
20
-4.9751837007874018
11
3.2354277952755903
21
-4.974975905511811
0
LINE
8
BLACK
6
CONTINUOUS
10
3.2354277952755903
20
-4.974975905511811
11
3.4636527165354329
21
-4.5519727165354329
0
LINE
8
BLACK
6
CONTINUOUS
10
3.4636527165354329
20
-4.5519727165354329
11
3.4713489370078738
21
-4.5288839763779523
0
LINE
8
BLACK
6
CONTINUOUS
10
3.4713489370078738
20
-4.5288839763779523
11
3.4742238582677163
21
-4.5040533464566925
0
LINE
8
BLACK
6
CONTINUOUS
10
3.4742238582677163
20
-4.5040533464566925
11
3.4742125984251966
21
-4.5039389763779525
0
LINE
8
BLACK
6
CONTINUOUS
10
3.4742125984251966
20
-4.5039389763779525
11
3.4742125984251966
21
-3.8326771653543306
0
LINE
8
BLACK
6
CONTINUOUS
10
3.4742125984251966
20
-3.8326771653543306
11
3.4742141338582675
21
-3.8326615354330706
0
LINE
8
BLACK
6
CONTINUOUS
10
3.4742141338582675
20
-3.8326615354330706
11
3.4742127559055116
21
-3.8326458267716537
0
LINE
8
BLACK
6
CONTINUOUS
10
3.4742127559055116
20
-3.8326458267716537
11
3.4742309842519683
21
-3.8309274803149607
0
LINE
8
BLACK
6
CONTINUOUS
10
3.4742309842519683
20
-3.8309274803149607
11
3.4742432677165351
21
-3.8308147637795273
0
LINE
8
BLACK
6
CONTINUOUS
10
3.4742432677165351
20
-3.8308147637795273
11
3.4742420472440942
21
-3.8307014173228344
0
LINE
8
BLACK
6
CONTINUOUS
10
3.4742420472440942
20
-3.8307014173228344
11
3.4745416141732282
21
-3.8272776771653541
0
LINE
8
BLACK
6
CONTINUOUS
10
3.4745416141732282
20
-3.8272776771653541
11
3.474565433070866
21
-3.8271506299212597
0
LINE
8
BLACK
6
CONTINUOUS
10
3.474565433070866
20
-3.8271506299212597
11
3.474575275590551
21
-3.8270222047244093
0
LINE
8
BLACK
6
CONTINUOUS
10
3.474575275590551
20
-3.8270222047244093
11
3.4751721653543308
21
-3.8236376377952754
0
LINE
8
BLACK
6
CONTINUOUS
10
3.4751721653543308
20
-3.8236376377952754
11
3.4752068503937008
21
-3.8235134645669291
0
LINE
8
BLACK
6
CONTINUOUS
10
3.4752068503937008
20
-3.8235134645669291
11
3.4752279133858268
21
-3.8233861417322834
0
LINE
8
BLACK
6
CONTINUOUS
10
3.4752279133858268
20
-3.8233861417322834
11
3.4761175590551181
21
-3.8200664960629922
0
LINE
8
BLACK
6
CONTINUOUS
10
3.4761175590551181
20
-3.8200664960629922
11
3.4761629527559053
21
-3.8199458267716535
0
LINE
8
BLACK
6
CONTINUOUS
10
3.4761629527559053
20
-3.8199458267716535
11
3.4761950393700785
21
-3.8198207874015746
0
LINE
8
BLACK
6
CONTINUOUS
10
3.4761950393700785
20
-3.8198207874015746
11
3.4773706692913384
21
-3.8165912992125985
0
LINE
8
BLACK
6
CONTINUOUS
10
3.4773706692913384
20
-3.8165912992125985
11
3.4774265354330707
21
-3.8164748031496063
0
LINE
8
BLACK
6
CONTINUOUS
10
3.4774265354330707
20
-3.8164748031496063
11
3.4774692913385827
21
-3.8163533070866142
0
LINE
8
BLACK
6
CONTINUOUS
10
3.4774692913385827
20
-3.8163533070866142
11
3.478921929133858
21
-3.8132385826771653
0
LINE
8
BLACK
6
CONTINUOUS
10
3.478921929133858
20
-3.8132385826771653
11
3.4789875196850395
21
-3.8131277165354329
0
LINE
8
BLACK
6
CONTINUOUS
10
3.4789875196850395
20
-3.8131277165354329
11
3.4790409055118108
21
-3.8130099999999998
0
LINE
8
BLACK
6
CONTINUOUS
10
3.4790409055118108
20
-3.8130099999999998
11
3.4807595669291338
21
-3.8100337795275592
0
LINE
8
BLACK
6
CONTINUOUS
10
3.4807595669291338
20
-3.8100337795275592
11
3.4808348425196849
21
-3.8099287007874016
0
LINE
8
BLACK
6
CONTINUOUS
10
3.4808348425196849
20
-3.8099287007874016
11
3.4808980314960629
21
-3.8098165354330709
0
LINE
8
BLACK
6
CONTINUOUS
10
3.4808980314960629
20
-3.8098165354330709
11
3.4828695669291339
21
-3.8070014566929133
0
LINE
8
BLACK
6
CONTINUOUS
10
3.4828695669291339
20
-3.8070014566929133
11
3.4829535433070866
21
-3.8069035433070866
0
LINE
8
BLACK
6
CONTINUOUS
10
3.4829535433070866
20
-3.8069035433070866
11
3.4830264173228347
21
-3.8067970866141732
0
LINE
8
BLACK
6
CONTINUOUS
10
3.4830264173228347
20
-3.8067970866141732
11
3.4852358267716537
21
-3.8041646062992127
0
LINE
8
BLACK
6
CONTINUOUS
10
3.4852358267716537
20
-3.8041646062992127
11
3.4853279527559056
21
-3.8040744488188976
0
LINE
8
BLACK
6
CONTINUOUS
10
3.4853279527559056
20
-3.8040744488188976
11
3.4854098818897636
21
-3.8039746850393699
0
LINE
8
BLACK
6
CONTINUOUS
10
3.4854098818897636
20
-3.8039746850393699
11
3.4878403543307086
21
-3.8015447637795274
0
LINE
8
BLACK
6
CONTINUOUS
10
3.4878403543307086
20
-3.8015447637795274
11
3.4879401181102363
21
-3.8014628740157481
0
LINE
8
BLACK
6
CONTINUOUS
10
3.4879401181102363
20
-3.8014628740157481
11
3.4880303543307085
21
-3.801370708661417
0
LINE
8
BLACK
6
CONTINUOUS
10
3.4880303543307085
20
-3.801370708661417
11
3.4906633858267715
21
-3.7991619291338581
0
LINE
8
BLACK
6
CONTINUOUS
10
3.4906633858267715
20
-3.7991619291338581
11
3.4907698425196849
21
-3.7990890944881888
0
LINE
8
BLACK
6
CONTINUOUS
10
3.4907698425196849
20
-3.7990890944881888
11
3.4908677952755904
21
-3.799005118110236
0
LINE
8
BLACK
6
CONTINUOUS
10
3.4908677952755904
20
-3.799005118110236
11
3.493683346456693
21
-3.7970342519685039
0
LINE
8
BLACK
6
CONTINUOUS
10
3.493683346456693
20
-3.7970342519685039
11
3.4937957086614171
21
-3.7969709842519683
0
LINE
8
BLACK
6
CONTINUOUS
10
3.4937957086614171
20
-3.7969709842519683
11
3.4939006299212596
21
-3.7968958661417322
0
LINE
8
BLACK
6
CONTINUOUS
10
3.4939006299212596
20
-3.7968958661417322
11
3.4968772440944882
21
-3.7951779527559055
0
LINE
8
BLACK
6
CONTINUOUS
10
3.4968772440944882
20
-3.7951779527559055
11
3.4969946850393701
21
-3.7951247244094488
0
LINE
8
BLACK
6
CONTINUOUS
10
3.4969946850393701
20
-3.7951247244094488
11
3.4971057874015745
21
-3.7950590157480315
0
LINE
8
BLACK
6
CONTINUOUS
10
3.4971057874015745
20
-3.7950590157480315
11
3.500220905511811
21
-3.7936070866141733
0
LINE
8
BLACK
6
CONTINUOUS
10
3.500220905511811
20
-3.7936070866141733
11
3.500342559055118
21
-3.7935642913385825
0
LINE
8
BLACK
6
CONTINUOUS
10
3.500342559055118
20
-3.7935642913385825
11
3.500458937007874
21
-3.7935085433070865
0
LINE
8
BLACK
6
CONTINUOUS
10
3.500458937007874
20
-3.7935085433070865
11
3.5036887007874014
21
-3.7923337007874016
0
LINE
8
BLACK
6
CONTINUOUS
10
3.5036887007874014
20
-3.7923337007874016
11
3.503813779527559
21
-3.7923016535433072
0
LINE
8
BLACK
6
CONTINUOUS
10
3.503813779527559
20
-3.7923016535433072
11
3.503934409448819
21
-3.7922562992125983
0
LINE
8
BLACK
6
CONTINUOUS
10
3.503934409448819
20
-3.7922562992125983
11
3.5072542519685039
21
-3.7913674409448817
0
LINE
8
BLACK
6
CONTINUOUS
10
3.5072542519685039
20
-3.7913674409448817
11
3.5073815354330709
21
-3.7913464173228344
0
LINE
8
BLACK
6
CONTINUOUS
10
3.5073815354330709
20
-3.7913464173228344
11
3.5075057874015747
21
-3.7913117322834644
0
LINE
8
BLACK
6
CONTINUOUS
10
3.5075057874015747
20
-3.7913117322834644
11
3.5108905118110236
21
-3.7907156692913384
0
LINE
8
BLACK
6
CONTINUOUS
10
3.5108905118110236
20
-3.7907156692913384
11
3.5110190944881889
21
-3.7907058267716534
0
LINE
8
BLACK
6
CONTINUOUS
10
3.5110190944881889
20
-3.7907058267716534
11
3.5111459448818896
21
-3.7906820866141731
0
LINE
8
BLACK
6
CONTINUOUS
10
3.5111459448818896
20
-3.7906820866141731
11
3.5145697244094487
21
-3.7903833070866142
0
LINE
8
BLACK
6
CONTINUOUS
10
3.5145697244094487
20
-3.7903833070866142
11
3.5146830708661416
21
-3.7903845275590551
0
LINE
8
BLACK
6
CONTINUOUS
10
3.5146830708661416
20
-3.7903845275590551
11
3.5147958267716533
21
-3.790372283464567
0
LINE
8
BLACK
6
CONTINUOUS
10
3.5147958267716533
20
-3.790372283464567
11
3.5165142519685038
21
-3.7903544881889761
0
LINE
8
BLACK
6
CONTINUOUS
10
3.5165142519685038
20
-3.7903544881889761
11
3.5165298818897637
21
-3.790355866141732
0
LINE
8
BLACK
6
CONTINUOUS
10
3.5165298818897637
20
-3.790355866141732
11
3.5165455511811023
21
-3.7903543307086611
0
LINE
8
BLACK
6
CONTINUOUS
10
3.5165455511811023
20
-3.7903543307086611
11
4.3330377952755903
21
-3.7905491338582675
0
LINE
8
BLACK
6
CONTINUOUS
10
4.3330377952755903
20
-3.7905491338582675
11
4.3346988976377956
21
-3.7905136614173229
0
LINE
8
BLACK
6
CONTINUOUS
10
4.3346988976377956
20
-3.7905136614173229
11
4.33805
21
-3.7901706692913386
0
LINE
8
BLACK
6
CONTINUOUS
10
4.33805
20
-3.7901706692913386
11
4.341339645669291
21
-3.789524251968504
0
LINE
8
BLACK
6
CONTINUOUS
10
4.341339645669291
20
-3.789524251968504
11
4.3445548425196847
21
-3.7885785826771654
0
LINE
8
BLACK
6
CONTINUOUS
10
4.3445548425196847
20
-3.7885785826771654
11
4.3476707480314962
21
-3.7873409448818895
0
LINE
8
BLACK
6
CONTINUOUS
10
4.3476707480314962
20
-3.7873409448818895
11
4.3506589370078741
21
-3.7858225590551182
0
LINE
8
BLACK
6
CONTINUOUS
10
4.3506589370078741
20
-3.7858225590551182
11
4.3534953937007872
21
-3.7840357480314961
0
LINE
8
BLACK
6
CONTINUOUS
10
4.3534953937007872
20
-3.7840357480314961
11
4.3561555118110231
21
-3.7819957874015748
0
LINE
8
BLACK
6
CONTINUOUS
10
4.3561555118110231
20
-3.7819957874015748
11
4.3586166141732283
21
-3.779720275590551
0
LINE
8
BLACK
6
CONTINUOUS
10
4.3586166141732283
20
-3.779720275590551
11
4.3608582283464568
21
-3.7772281496062989
0
LINE
8
BLACK
6
CONTINUOUS
10
4.3608582283464568
20
-3.7772281496062989
11
4.3628614960629921
21
-3.7745403937007875
0
LINE
8
BLACK
6
CONTINUOUS
10
4.3628614960629921
20
-3.7745403937007875
11
4.3646093307086611
21
-3.7716796850393699
0
LINE
8
BLACK
6
CONTINUOUS
10
4.3646093307086611
20
-3.7716796850393699
11
4.3660865354330705
21
-3.7686712204724411
0
LINE
8
BLACK
6
CONTINUOUS
10
4.3660865354330705
20
-3.7686712204724411
11
4.3672813385826768
21
-3.76553874015748
0
LINE
8
BLACK
6
CONTINUOUS
10
4.3672813385826768
20
-3.76553874015748
11
4.3681828740157478
21
-3.7623107874015749
0
LINE
8
BLACK
6
CONTINUOUS
10
4.3681828740157478
20
-3.7623107874015749
11
4.3687841732283461
21
-3.7590126771653543
0
LINE
8
BLACK
6
CONTINUOUS
10
4.3687841732283461
20
-3.7590126771653543
11
4.3690812598425195
21
-3.7556568897637796
0
LINE
8
BLACK
6
CONTINUOUS
10
4.3690812598425195
20
-3.7556568897637796
11
4.3690941732283459
21
-3.7539741732283463
0
LINE
8
BLACK
6
CONTINUOUS
10
4.3690941732283459
20
-3.7539741732283463
11
4.3690944881889759
21
-1.4785433070866141
0
LINE
8
BLACK
6
CONTINUOUS
10
4.3690944881889759
20
-1.4785433070866141
11
4.3691127952755906
21
-1.4783573622047244
0
LINE
8
BLACK
6
CONTINUOUS
10
4.3691127952755906
20
-1.4783573622047244
11
4.3691053543307081
21
-1.4782903543307087
0
LINE
8
BLACK
6
CONTINUOUS
10
4.3691053543307081
20
-1.4782903543307087
11
4.3691351968503938
21
-1.4781298818897637
0
LINE
8
BLACK
6
CONTINUOUS
10
4.3691351968503938
20
-1.4781298818897637
11
4.3691512204724408
21
-1.4779672440944882
0
LINE
8
BLACK
6
CONTINUOUS
10
4.3691512204724408
20
-1.4779672440944882
11
4.3691770472440945
21
-1.4779048031496063
0
LINE
8
BLACK
6
CONTINUOUS
10
4.3691770472440945
20
-1.4779048031496063
11
4.3692112204724411
21
-1.4777212598425196
0
LINE
8
BLACK
6
CONTINUOUS
10
4.3692112204724411
20
-1.4777212598425196
11
4.3731482283464569
21
-1.4641385826771653
0
LINE
8
BLACK
6
CONTINUOUS
10
4.3731482283464569
20
-1.4641385826771653
11
4.3732402755905513
21
-1.4639083070866141
0
LINE
8
BLACK
6
CONTINUOUS
10
4.3732402755905513
20
-1.4639083070866141
11
4.373255078740157
21
-1.4638335039370078
0
LINE
8
BLACK
6
CONTINUOUS
10
4.373255078740157
20
-1.4638335039370078
11
4.3733154724409449
21
-1.4637201968503937
0
LINE
8
BLACK
6
CONTINUOUS
10
4.3733154724409449
20
-1.4637201968503937
11
4.3733631102362205
21
-1.4636010629921259
0
LINE
8
BLACK
6
CONTINUOUS
10
4.3733631102362205
20
-1.4636010629921259
11
4.3734107086614173
21
-1.4635415354330708
0
LINE
8
BLACK
6
CONTINUOUS
10
4.3734107086614173
20
-1.4635415354330708
11
4.3735274015748029
21
-1.463322716535433
0
LINE
8
BLACK
6
CONTINUOUS
10
4.3735274015748029
20
-1.463322716535433
11
4.3814014173228344
21
-1.4515117322834645
0
LINE
8
BLACK
6
CONTINUOUS
10
4.3814014173228344
20
-1.4515117322834645
11
4.3814027165354332
21
-1.4515100787401574
0
LINE
8
BLACK
6
CONTINUOUS
10
4.3814027165354332
20
-1.4515100787401574
11
4.3814031496062995
21
-1.4515091338582677
0
LINE
8
BLACK
6
CONTINUOUS
10
4.3814031496062995
20
-1.4515091338582677
11
4.3815875590551183
21
-1.4512844094488189
0
LINE
8
BLACK
6
CONTINUOUS
10
4.3815875590551183
20
-1.4512844094488189
11
4.3817681889763778
21
-1.4510638582677164
0
LINE
8
BLACK
6
CONTINUOUS
10
4.3817681889763778
20
-1.4510638582677164
11
4.3817690157480316
21
-1.4510632677165354
0
LINE
8
BLACK
6
CONTINUOUS
10
4.3817690157480316
20
-1.4510632677165354
11
4.3817703543307083
21
-1.4510616929133857
0
LINE
8
BLACK
6
CONTINUOUS
10
4.3817703543307083
20
-1.4510616929133857
11
4.3896443700787398
21
-1.4431876771653542
0
LINE
8
BLACK
6
CONTINUOUS
10
4.3896443700787398
20
-1.4431876771653542
11
4.3898707086614168
21
-1.4430018897637795
0
LINE
8
BLACK
6
CONTINUOUS
10
4.3898707086614168
20
-1.4430018897637795
11
4.3899218897637793
21
-1.4429429133858267
0
LINE
8
BLACK
6
CONTINUOUS
10
4.3899218897637793
20
-1.4429429133858267
11
4.3900107874015744
21
-1.4428869291338582
0
LINE
8
BLACK
6
CONTINUOUS
10
4.3900107874015744
20
-1.4428869291338582
11
4.3900918503937003
21
-1.442820433070866
0
LINE
8
BLACK
6
CONTINUOUS
10
4.3900918503937003
20
-1.442820433070866
11
4.3901638582677167
21
-1.4427905905511811
0
LINE
8
BLACK
6
CONTINUOUS
10
4.3901638582677167
20
-1.4427905905511811
11
4.3904117716535431
21
-1.4426345669291338
0
LINE
8
BLACK
6
CONTINUOUS
10
4.3904117716535431
20
-1.4426345669291338
11
4.3982857874015746
21
-1.4386975590551181
0
LINE
8
BLACK
6
CONTINUOUS
10
4.3982857874015746
20
-1.4386975590551181
11
4.3984814173228344
21
-1.4386226771653543
0
LINE
8
BLACK
6
CONTINUOUS
10
4.3984814173228344
20
-1.4386226771653543
11
4.3986725590551181
21
-1.4385373622047244
0
LINE
8
BLACK
6
CONTINUOUS
10
4.3986725590551181
20
-1.4385373622047244
11
4.4104835826771653
21
-1.4346003543307086
0
LINE
8
BLACK
6
CONTINUOUS
10
4.4104835826771653
20
-1.4346003543307086
11
4.4105940944881885
21
-1.4345751968503937
0
LINE
8
BLACK
6
CONTINUOUS
10
4.4105940944881885
20
-1.4345751968503937
11
4.410701181102362
21
-1.4345369685039371
0
LINE
8
BLACK
6
CONTINUOUS
10
4.410701181102362
20
-1.4345369685039371
11
4.425520748031496
21
-1.4308320472440945
0
LINE
8
BLACK
6
CONTINUOUS
10
4.425520748031496
20
-1.4308320472440945
11
4.4255248818897641
21
-1.4308279527559056
0
LINE
8
BLACK
6
CONTINUOUS
10
4.4255248818897641
20
-1.4308279527559056
11
4.4260048031496062
21
-1.4306291338582677
0
LINE
8
BLACK
6
CONTINUOUS
10
4.4260048031496062
20
-1.4306291338582677
11
4.4264766929133854
21
-1.4304117322834646
0
LINE
8
BLACK
6
CONTINUOUS
10
4.4264766929133854
20
-1.4304117322834646
11
4.4265561811023622
21
-1.430400748031496
0
LINE
8
BLACK
6
CONTINUOUS
10
4.4265561811023622
20
-1.430400748031496
11
4.4265892913385825
21
-1.4303870472440945
0
LINE
8
BLACK
6
CONTINUOUS
10
4.4265892913385825
20
-1.4303870472440945
11
4.4266554724409444
21
-1.4303870472440945
0
LINE
8
BLACK
6
CONTINUOUS
10
4.4266554724409444
20
-1.4303870472440945
11
4.4270501181102357
21
-1.4303325590551181
0
LINE
8
BLACK
6
CONTINUOUS
10
4.4270501181102357
20
-1.4303325590551181
11
5.8657483464566926
21
-1.3741325590551181
0
LINE
8
BLACK
6
CONTINUOUS
10
5.8657483464566926
20
-1.3741325590551181
11
5.865806102362205
21
-1.3741359448818897
0
LINE
8
BLACK
6
CONTINUOUS
10
5.865806102362205
20
-1.3741359448818897
11
5.865863622047244
21
-1.3741303149606299
0
LINE
8
BLACK
6
CONTINUOUS
10
5.865863622047244
20
-1.3741303149606299
11
6.7389763779527554
21
-1.3741303149606299
0
LINE
8
BLACK
6
CONTINUOUS
10
6.7389763779527554
20
-1.3741303149606299
11
6.7392075984251969
21
-1.3741530708661418
0
LINE
8
BLACK
6
CONTINUOUS
10
5.8659214173228342
20
-1.3800358267716535
11
4.4282556299212601
21
-1.4361954724409449
0
LINE
8
BLACK
6
CONTINUOUS
10
4.4282556299212601
20
-1.4361954724409449
11
4.4278815354330705
21
-1.4363291732283465
0
LINE
8
BLACK
6
CONTINUOUS
10
4.4278815354330705
20
-1.4363291732283465
11
4.4122431889763778
21
-1.4402387401574803
0
LINE
8
BLACK
6
CONTINUOUS
10
4.4122431889763778
20
-1.4402387401574803
11
4.4007391732283461
21
-1.4440734251968503
0
LINE
8
BLACK
6
CONTINUOUS
10
4.4007391732283461
20
-1.4440734251968503
11
4.3934813779527557
21
-1.4477023228346457
0
LINE
8
BLACK
6
CONTINUOUS
10
4.3934813779527557
20
-1.4477023228346457
11
4.3861529921259841
21
-1.4550307086614174
0
LINE
8
BLACK
6
CONTINUOUS
10
4.3861529921259841
20
-1.4550307086614174
11
4.3786935039370078
21
-1.4662198818897638
0
LINE
8
BLACK
6
CONTINUOUS
10
4.3786935039370078
20
-1.4662198818897638
11
4.3749999606299212
21
-1.4789625984251968
0
LINE
8
BLACK
6
CONTINUOUS
10
4.3749999606299212
20
-1.4789625984251968
11
4.37499968503937
21
-3.7539865748031493
0
LINE
8
BLACK
6
CONTINUOUS
10
4.37499968503937
20
-3.7539865748031493
11
4.3749985433070862
21
-3.7539978346456691
0
LINE
8
BLACK
6
CONTINUOUS
10
4.3749985433070862
20
-3.7539978346456691
11
4.3749996062992125
21
-3.7540092519685038
0
LINE
8
BLACK
6
CONTINUOUS
10
4.3749996062992125
20
-3.7540092519685038
11
4.3749857086614172
21
-3.7558212992125983
0
LINE
8
BLACK
6
CONTINUOUS
10
4.3749857086614172
20
-3.7558212992125983
11
4.3749731102362199
21
-3.7559398425196848
0
LINE
8
BLACK
6
CONTINUOUS
10
4.3749731102362199
20
-3.7559398425196848
11
4.3749742913385825
21
-3.7560590157480314
0
LINE
8
BLACK
6
CONTINUOUS
10
4.3749742913385825
20
-3.7560590157480314
11
4.3746547244094485
21
-3.759668937007874
0
LINE
8
BLACK
6
CONTINUOUS
10
4.3746547244094485
20
-3.759668937007874
11
4.374629488188976
21
-3.7598024803149603
0
LINE
8
BLACK
6
CONTINUOUS
10
4.374629488188976
20
-3.7598024803149603
11
4.3746183464566926
21
-3.7599381889763777
0
LINE
8
BLACK
6
CONTINUOUS
10
4.3746183464566926
20
-3.7599381889763777
11
4.3739683464566932
21
-3.763503464566929
0
LINE
8
BLACK
6
CONTINUOUS
10
4.3739683464566932
20
-3.763503464566929
11
4.373930905511811
21
-3.7636343307086615
0
LINE
8
BLACK
6
CONTINUOUS
10
4.373930905511811
20
-3.7636343307086615
11
4.373907362204724
21
-3.7637681889763779
0
LINE
8
BLACK
6
CONTINUOUS
10
4.373907362204724
20
-3.7637681889763779
11
4.3729324803149607
21
-3.7672585826771652
0
LINE
8
BLACK
6
CONTINUOUS
10
4.3729324803149607
20
-3.7672585826771652
11
4.3728833070866138
21
-3.7673850787401575
0
LINE
8
BLACK
6
CONTINUOUS
10
4.3728833070866138
20
-3.7673850787401575
11
4.3728474803149604
21
-3.7675165748031496
0
LINE
8
BLACK
6
CONTINUOUS
10
4.3728474803149604
20
-3.7675165748031496
11
4.3715559448818899
21
-3.7709026771653544
0
LINE
8
BLACK
6
CONTINUOUS
10
4.3715559448818899
20
-3.7709026771653544
11
4.3714951574803145
21
-3.7710245275590548
0
LINE
8
BLACK
6
CONTINUOUS
10
4.3714951574803145
20
-3.7710245275590548
11
4.3714475196850389
21
-3.7711518110236222
0
LINE
8
BLACK
6
CONTINUOUS
10
4.3714475196850389
20
-3.7711518110236222
11
4.3698502362204721
21
-3.7744048425196848
0
LINE
8
BLACK
6
CONTINUOUS
10
4.3698502362204721
20
-3.7744048425196848
11
4.3697787007874016
21
-3.7745202755905511
0
LINE
8
BLACK
6
CONTINUOUS
10
4.3697787007874016
20
-3.7745202755905511
11
4.3697194488188975
21
-3.7746429133858266
0
LINE
8
BLACK
6
CONTINUOUS
10
4.3697194488188975
20
-3.7746429133858266
11
4.3678299606299209
21
-3.7777354330708661
0
LINE
8
BLACK
6
CONTINUOUS
10
4.3678299606299209
20
-3.7777354330708661
11
4.367747913385827
21
-3.7778440944881888
0
LINE
8
BLACK
6
CONTINUOUS
10
4.367747913385827
20
-3.7778440944881888
11
4.3676777952755907
21
-3.7779604724409448
0
LINE
8
BLACK
6
CONTINUOUS
10
4.3676777952755907
20
-3.7779604724409448
11
4.3655120866141734
21
-3.7808662598425196
0
LINE
8
BLACK
6
CONTINUOUS
10
4.3655120866141734
20
-3.7808662598425196
11
4.3654204330708657
21
-3.7809668503937006
0
LINE
8
BLACK
6
CONTINUOUS
10
4.3654204330708657
20
-3.7809668503937006
11
4.3653398818897635
21
-3.7810763779527559
0
LINE
8
BLACK
6
CONTINUOUS
10
4.3653398818897635
20
-3.7810763779527559
11
4.362916299212598
21
-3.7837707874015747
0
LINE
8
BLACK
6
CONTINUOUS
10
4.362916299212598
20
-3.7837707874015747
11
4.3628157480314957
21
-3.7838625590551178
0
LINE
8
BLACK
6
CONTINUOUS
10
4.3628157480314957
20
-3.7838625590551178
11
4.3627255118110231
21
-3.7839641732283464
0
LINE
8
BLACK
6
CONTINUOUS
10
4.3627255118110231
20
-3.7839641732283464
11
4.3600645275590546
21
-3.7864244488188974
0
LINE
8
BLACK
6
CONTINUOUS
10
4.3600645275590546
20
-3.7864244488188974
11
4.3599561023622044
21
-3.7865064960629922
0
LINE
8
BLACK
6
CONTINUOUS
10
4.3599561023622044
20
-3.7865064960629922
11
4.3598568110236222
21
-3.7865994881889762
0
LINE
8
BLACK
6
CONTINUOUS
10
4.3598568110236222
20
-3.7865994881889762
11
4.3569810236220468
21
-3.7888048031496062
0
LINE
8
BLACK
6
CONTINUOUS
10
4.3569810236220468
20
-3.7888048031496062
11
4.3568655118110238
21
-3.7888765748031497
0
LINE
8
BLACK
6
CONTINUOUS
10
4.3568655118110238
20
-3.7888765748031497
11
4.3567580708661415
21
-3.7889600393700786
0
LINE
8
BLACK
6
CONTINUOUS
10
4.3567580708661415
20
-3.7889600393700786
11
4.3536917322834645
21
-3.7908916929133856
0
LINE
8
BLACK
6
CONTINUOUS
10
4.3536917322834645
20
-3.7908916929133856
11
4.3535700393700782
21
-3.7909525590551181
0
LINE
8
BLACK
6
CONTINUOUS
10
4.3535700393700782
20
-3.7909525590551181
11
4.3534554724409444
21
-3.7910257480314962
0
LINE
8
BLACK
6
CONTINUOUS
10
4.3534554724409444
20
-3.7910257480314962
11
4.3502246062992125
21
-3.7926674409448817
0
LINE
8
BLACK
6
CONTINUOUS
10
4.3502246062992125
20
-3.7926674409448817
11
4.3500978346456689
21
-3.7927168897637795
0
LINE
8
BLACK
6
CONTINUOUS
10
4.3500978346456689
20
-3.7927168897637795
11
4.349977047244094
21
-3.792779212598425
0
LINE
8
BLACK
6
CONTINUOUS
10
4.349977047244094
20
-3.792779212598425
11
4.3466089763779525
21
-3.7941170866141731
0
LINE
8
BLACK
6
CONTINUOUS
10
4.3466089763779525
20
-3.7941170866141731
11
4.3464779921259842
21
-3.7941547244094487
0
LINE
8
BLACK
6
CONTINUOUS
10
4.3464779921259842
20
-3.7941547244094487
11
4.3463521259842519
21
-3.7942056299212599
0
LINE
8
BLACK
6
CONTINUOUS
10
4.3463521259842519
20
-3.7942056299212599
11
4.3428753543307081
21
-3.7952282283464567
0
LINE
8
BLACK
6
CONTINUOUS
10
4.3428753543307081
20
-3.7952282283464567
11
4.3427418110236218
21
-3.7952536220472441
0
LINE
8
BLACK
6
CONTINUOUS
10
4.3427418110236218
20
-3.7952536220472441
11
4.3426114566929135
21
-3.7952928346456694
0
LINE
8
BLACK
6
CONTINUOUS
10
4.3426114566929135
20
-3.7952928346456694
11
4.3390554724409451
21
-3.7959915748031494
0
LINE
8
BLACK
6
CONTINUOUS
10
4.3390554724409451
20
-3.7959915748031494
11
4.3389198818897636
21
-3.7960045669291338
0
LINE
8
BLACK
6
CONTINUOUS
10
4.3389198818897636
20
-3.7960045669291338
11
4.3387867716535435
21
-3.7960316141732284
0
LINE
8
BLACK
6
CONTINUOUS
10
4.3387867716535435
20
-3.7960316141732284
11
4.3351816141732282
21
-3.7964006299212598
0
LINE
8
BLACK
6
CONTINUOUS
10
4.3351816141732282
20
-3.7964006299212598
11
4.3350624015748034
21
-3.7964010629921261
0
LINE
8
BLACK
6
CONTINUOUS
10
4.3350624015748034
20
-3.7964010629921261
11
4.3349439763779527
21
-3.7964153149606297
0
LINE
8
BLACK
6
CONTINUOUS
10
4.3349439763779527
20
-3.7964153149606297
11
4.3331322834645665
21
-3.7964540157480315
0
LINE
8
BLACK
6
CONTINUOUS
10
4.3331322834645665
20
-3.7964540157480315
11
4.33310031496063
21
-3.7964515354330706
0
LINE
8
BLACK
6
CONTINUOUS
10
4.33310031496063
20
-3.7964515354330706
11
4.3330685433070864
21
-3.7964546850393699
0
LINE
8
BLACK
6
CONTINUOUS
10
4.3330685433070864
20
-3.7964546850393699
11
3.5165598031496064
21
-3.7962598425196847
0
LINE
8
BLACK
6
CONTINUOUS
10
3.5165598031496064
20
-3.7962598425196847
11
3.5149702362204724
21
-3.7962762992125985
0
LINE
8
BLACK
6
CONTINUOUS
10
3.5149702362204724
20
-3.7962762992125985
11
3.5117876377952757
21
-3.7965540157480313
0
LINE
8
BLACK
6
CONTINUOUS
10
3.5117876377952757
20
-3.7965540157480313
11
3.5086570078740156
21
-3.7971053149606298
0
LINE
8
BLACK
6
CONTINUOUS
10
3.5086570078740156
20
-3.7971053149606298
11
3.5055864566929134
21
-3.797927440944882
0
LINE
8
BLACK
6
CONTINUOUS
10
3.5055864566929134
20
-3.797927440944882
11
3.5025986614173226
21
-3.7990142913385827
0
LINE
8
BLACK
6
CONTINUOUS
10
3.5025986614173226
20
-3.7990142913385827
11
3.4997172047244094
21
-3.8003573228346457
0
LINE
8
BLACK
6
CONTINUOUS
10
3.4997172047244094
20
-3.8003573228346457
11
3.4969641732283465
21
-3.8019462204724408
0
LINE
8
BLACK
6
CONTINUOUS
10
3.4969641732283465
20
-3.8019462204724408
11
3.4943598425196849
21
-3.8037692519685038
0
LINE
8
BLACK
6
CONTINUOUS
10
3.4943598425196849
20
-3.8037692519685038
11
3.4919245275590551
21
-3.8058122047244094
0
LINE
8
BLACK
6
CONTINUOUS
10
3.4919245275590551
20
-3.8058122047244094
11
3.4896764960629922
21
-3.8080596850393702
0
LINE
8
BLACK
6
CONTINUOUS
10
3.4896764960629922
20
-3.8080596850393702
11
3.4876327165354328
21
-3.8104948031496062
0
LINE
8
BLACK
6
CONTINUOUS
10
3.4876327165354328
20
-3.8104948031496062
11
3.4858093307086615
21
-3.8130983464566928
0
LINE
8
BLACK
6
CONTINUOUS
10
3.4858093307086615
20
-3.8130983464566928
11
3.4842192913385825
21
-3.8158518503937007
0
LINE
8
BLACK
6
CONTINUOUS
10
3.4842192913385825
20
-3.8158518503937007
11
3.4828759448818896
21
-3.818732244094488
0
LINE
8
BLACK
6
CONTINUOUS
10
3.4828759448818896
20
-3.818732244094488
11
3.4817884251968505
21
-3.8217196062992125
0
LINE
8
BLACK
6
CONTINUOUS
10
3.4817884251968505
20
-3.8217196062992125
11
3.4809654330708661
21
-3.8247905118110235
0
LINE
8
BLACK
6
CONTINUOUS
10
3.4809654330708661
20
-3.8247905118110235
11
3.4804134645669289
21
-3.8279205511811023
0
LINE
8
BLACK
6
CONTINUOUS
10
3.4804134645669289
20
-3.8279205511811023
11
3.480134960629921
21
-3.8311034251968503
0
LINE
8
BLACK
6
CONTINUOUS
10
3.480134960629921
20
-3.8311034251968503
11
3.4801181102362202
21
-3.8326936220472438
0
LINE
8
BLACK
6
CONTINUOUS
10
3.4801181102362202
20
-3.8326936220472438
11
3.4801181102362202
21
-4.503575748031496
0
LINE
8
BLACK
6
CONTINUOUS
10
3.4801181102362202
20
-4.503575748031496
11
3.4801528740157481
21
-4.5036978346456689
0
LINE
8
BLACK
6
CONTINUOUS
10
3.4801528740157481
20
-4.5036978346456689
11
3.4801429527559056
21
-4.5042766141732287
0
LINE
8
BLACK
6
CONTINUOUS
10
3.4801429527559056
20
-4.5042766141732287
11
3.4771800787401572
21
-4.5298671653543305
0
LINE
8
BLACK
6
CONTINUOUS
10
3.4771800787401572
20
-4.5298671653543305
11
3.4771757874015745
21
-4.5298869291338582
0
LINE
8
BLACK
6
CONTINUOUS
10
3.4771757874015745
20
-4.5298869291338582
11
3.4771764960629921
21
-4.5298968503937003
0
LINE
8
BLACK
6
CONTINUOUS
10
3.4771764960629921
20
-4.5298968503937003
11
3.4771157086614171
21
-4.5301640551181102
0
LINE
8
BLACK
6
CONTINUOUS
10
3.4771157086614171
20
-4.5301640551181102
11
3.4770574803149605
21
-4.530432874015748
0
LINE
8
BLACK
6
CONTINUOUS
10
3.4770574803149605
20
-4.530432874015748
11
3.477052598425197
21
-4.5304415748031497
0
LINE
8
BLACK
6
CONTINUOUS
10
3.477052598425197
20
-4.5304415748031497
11
3.4770481496062993
21
-4.5304612992125985
0
LINE
8
BLACK
6
CONTINUOUS
10
3.4770481496062993
20
-4.5304612992125985
11
3.4691741338582678
21
-4.554083346456693
0
LINE
8
BLACK
6
CONTINUOUS
10
3.4691741338582678
20
-4.554083346456693
11
3.4690703149606299
21
-4.5543158267716537
0
LINE
8
BLACK
6
CONTINUOUS
10
3.4690703149606299
20
-4.5543158267716537
11
3.4689715748031493
21
-4.5545516535433066
0
LINE
8
BLACK
6
CONTINUOUS
10
3.4689715748031493
20
-4.5545516535433066
11
3.2408351574803147
21
-4.9773906692913386
0
LINE
8
BLACK
6
CONTINUOUS
10
3.2408351574803147
20
-4.9773906692913386
11
3.2370422047244092
21
-4.9963554724409445
0
LINE
8
BLACK
6
CONTINUOUS
10
3.2370422047244092
20
-4.9963554724409445
11
3.2370422047244092
21
-5.011688188976378
0
LINE
8
BLACK
6
CONTINUOUS
10
3.2370422047244092
20
-5.011688188976378
11
3.2389748425196849
21
-5.0348802362204728
0
LINE
8
BLACK
6
CONTINUOUS
10
3.2389748425196849
20
-5.0348802362204728
11
3.2446932677165354
21
-5.0539415748031491
0
LINE
8
BLACK
6
CONTINUOUS
10
3.2446932677165354
20
-5.0539415748031491
11
3.6478129133858266
21
-5.753993188976378
0
LINE
8
BLACK
6
CONTINUOUS
10
3.6478129133858266
20
-5.753993188976378
11
3.6607687401574802
21
-5.7650981889763777
0
LINE
8
BLACK
6
CONTINUOUS
10
3.6607687401574802
20
-5.7650981889763777
11
3.6777374803149607
21
-5.7707544488188978
0
LINE
8
BLACK
6
CONTINUOUS
10
3.6777374803149607
20
-5.7707544488188978
11
3.6985037007874015
21
-5.7745301181102358
0
LINE
8
BLACK
6
CONTINUOUS
10
3.6985037007874015
20
-5.7745301181102358
11
5.4401274015748031
21
-5.2727531889763775
0
LINE
8
BLACK
6
CONTINUOUS
10
5.4401274015748031
20
-5.2727531889763775
11
5.4403072440944884
21
-5.2727199999999996
0
LINE
8
BLACK
6
CONTINUOUS
10
5.4403072440944884
20
-5.2727199999999996
11
5.440368818897638
21
-5.2726945275590547
0
LINE
8
BLACK
6
CONTINUOUS
10
5.440368818897638
20
-5.2726945275590547
11
5.4405335433070867
21
-5.2726782677165351
0
LINE
8
BLACK
6
CONTINUOUS
10
5.4405335433070867
20
-5.2726782677165351
11
5.4406966929133853
21
-5.2726482283464566
0
LINE
8
BLACK
6
CONTINUOUS
10
5.4406966929133853
20
-5.2726482283464566
11
5.4407630314960631
21
-5.2726556692913382
0
LINE
8
BLACK
6
CONTINUOUS
10
5.4407630314960631
20
-5.2726556692913382
11
5.4409448818897639
21
-5.2726377952755907
0
LINE
8
BLACK
6
CONTINUOUS
10
5.4409448818897639
20
-5.2726377952755907
11
5.4413385826771652
21
-5.2726377952755907
0
LINE
8
BLACK
6
CONTINUOUS
10
5.4413385826771652
20
-5.2726377952755907
11
7.3832542519685038
21
-5.2726377952755907
0
LINE
8
BLACK
6
CONTINUOUS
10
7.3832542519685038
20
-5.2726377952755907
11
8.8757340157480318
21
-4.7030847244094485
0
LINE
8
BLACK
6
CONTINUOUS
10
8.8757340157480318
20
-4.7030847244094485
11
8.8746718110236227
21
-1.75572031496063
0
LINE
8
BLACK
6
CONTINUOUS
10
8.8746718110236227
20
-1.75572031496063
11
8.8739436220472445
21
-1.7476674803149606
0
LINE
8
BLACK
6
CONTINUOUS
10
8.8739436220472445
20
-1.7476674803149606
11
8.8739440944881895
21
-1.7476077952755904
0
LINE
8
BLACK
6
CONTINUOUS
10
8.8739440944881895
20
-1.7476077952755904
11
8.8739370472440946
21
-1.7475810236220473
0
LINE
8
BLACK
6
CONTINUOUS
10
8.8739370472440946
20
-1.7475810236220473
11
8.8739447244094478
21
-1.7475244488188977
0
LINE
8
BLACK
6
CONTINUOUS
10
8.8739447244094478
20
-1.7475244488188977
11
8.8739466535433067
21
-1.7472819685039369
0
LINE
8
BLACK
6
CONTINUOUS
10
8.8739466535433067
20
-1.7472819685039369
11
8.8721289763779527
21
-1.7407000393700787
0
LINE
8
BLACK
6
CONTINUOUS
10
8.8721289763779527
20
-1.7407000393700787
11
8.8688631889763769
21
-1.7338636220472441
0
LINE
8
BLACK
6
CONTINUOUS
10
8.8688631889763769
20
-1.7338636220472441
11
8.8688618110236224
21
-1.7338598818897637
0
LINE
8
BLACK
6
CONTINUOUS
10
8.8688618110236224
20
-1.7338598818897637
11
8.868860748031496
21
-1.7338584251968503
0
LINE
8
BLACK
6
CONTINUOUS
10
8.868860748031496
20
-1.7338584251968503
11
8.8688594488188972
21
-1.7338533070866142
0
LINE
8
BLACK
6
CONTINUOUS
10
8.8688594488188972
20
-1.7338533070866142
11
8.868685196850393
21
-1.7333722047244093
0
LINE
8
BLACK
6
CONTINUOUS
10
8.868685196850393
20
-1.7333722047244093
11
8.8649609842519688
21
-1.728144094488189
0
LINE
8
BLACK
6
CONTINUOUS
10
8.8649609842519688
20
-1.728144094488189
11
8.8648874409448819
21
-1.7280844881889763
0
LINE
8
BLACK
6
CONTINUOUS
10
8.8648874409448819
20
-1.7280844881889763
11
8.8594728740157471
21
-1.7227355511811022
0
LINE
8
BLACK
6
CONTINUOUS
10
8.8594728740157471
20
-1.7227355511811022
11
8.8530568110236221
21
-1.7182907086614172
0
LINE
8
BLACK
6
CONTINUOUS
10
8.8530568110236221
20
-1.7182907086614172
11
8.85303248031496
21
-1.7182700393700787
0
LINE
8
BLACK
6
CONTINUOUS
10
8.85303248031496
20
-1.7182700393700787
11
8.8463137007874018
21
-1.7151903149606298
0
LINE
8
BLACK
6
CONTINUOUS
10
8.8463137007874018
20
-1.7151903149606298
11
8.8463038188976384
21
-1.7151845669291339
0
LINE
8
BLACK
6
CONTINUOUS
10
8.8463038188976384
20
-1.7151845669291339
11
8.8389254724409447
21
-1.7132955905511811
0
LINE
8
BLACK
6
CONTINUOUS
10
8.8389254724409447
20
-1.7132955905511811
11
6.7387436220472443
21
-1.3800358267716535
0
LINE
8
BLACK
6
CONTINUOUS
10
6.7387436220472443
20
-1.3800358267716535
11
5.8659214173228342
21
-1.3800358267716535
  0
ENDSEC
  0
EOF
