<?xml version="1.0" encoding="UTF-8" standalone="no"?>
<svg
   viewBox="0 0 597.07756 520.52382"
   width="157.97678mm"
   height="137.72192mm"
   version="1.1"
   id="svg484"
   sodipodi:docname="keyplate_foam.svg"
   inkscape:version="1.4.2 (f4327f4, 2025-05-13)"
   inkscape:export-batch-path="C:\Users\jrdnf\Downloads"
   inkscape:export-batch-name="kbplate"
   xmlns:inkscape="http://www.inkscape.org/namespaces/inkscape"
   xmlns:sodipodi="http://sodipodi.sourceforge.net/DTD/sodipodi-0.dtd"
   xmlns="http://www.w3.org/2000/svg"
   xmlns:svg="http://www.w3.org/2000/svg">
  <sodipodi:namedview
     id="namedview484"
     pagecolor="#ffffff"
     bordercolor="#000000"
     borderopacity="0.25"
     inkscape:showpageshadow="2"
     inkscape:pageopacity="0.0"
     inkscape:pagecheckerboard="0"
     inkscape:deskcolor="#d1d1d1"
     inkscape:zoom="2.0000001"
     inkscape:cx="278.99999"
     inkscape:cy="315.24998"
     inkscape:window-width="3840"
     inkscape:window-height="2054"
     inkscape:window-x="-11"
     inkscape:window-y="-11"
     inkscape:window-maximized="1"
     inkscape:current-layer="g527"
     inkscape:document-units="mm"
     showguides="true" />
  <desc
     id="desc1">kbplate (3).dxf - scale = 1.000000, origin = (0.000000, 0.000000), method = manual</desc>
  <defs
     id="defs4">
    <inkscape:path-effect
       effect="fillet_chamfer"
       id="path-effect16"
       is_visible="true"
       lpeversion="1"
       nodesatellites_param="F,0,0,1,0,7.9404143,0,1 @ F,0,0,1,0,0,0,1 @ F,0,0,1,0,0,0,1 @ F,0,0,1,0,13.444055,0,1 @ F,0,0,1,0,6.1988349,0,1 @ F,0,0,1,0,9.5179725,0,1 @ F,0,0,1,0,7.9402453,0,1 @ F,0,0,1,0,0,0,1 @ F,0,0,1,0,0,0,1 @ F,0,0,1,0,7.5953363,0,1"
       radius="0"
       unit="px"
       method="auto"
       mode="F"
       chamfer_steps="1"
       flexible="false"
       use_knot_distance="true"
       apply_no_radius="true"
       apply_with_radius="true"
       only_selected="false"
       hide_knots="false" />
    <inkscape:path-effect
       effect="bspline"
       id="path-effect659"
       is_visible="true"
       lpeversion="1.3"
       weight="33.333333"
       steps="2"
       helper_size="0"
       apply_no_weight="true"
       apply_with_weight="true"
       only_selected="false"
       uniform="false" />
    <inkscape:path-effect
       effect="fillet_chamfer"
       id="path-effect658"
       is_visible="true"
       lpeversion="1"
       nodesatellites_param="F,0,0,1,0,2.8447581,0,1 @ F,0,0,1,0,2.4967765,0,1 @ F,0,0,1,0,2.314428,0,1 @ F,0,0,1,0,3.5574367,0,1"
       radius="0"
       unit="px"
       method="auto"
       mode="F"
       chamfer_steps="1"
       flexible="false"
       use_knot_distance="true"
       apply_no_radius="true"
       apply_with_radius="true"
       only_selected="false"
       hide_knots="false" />
    <inkscape:path-effect
       effect="fillet_chamfer"
       id="path-effect657"
       is_visible="true"
       lpeversion="1"
       nodesatellites_param="F,0,0,1,0,7.9404143,0,1 @ F,0,0,1,0,0,0,1 @ F,0,0,1,0,0,0,1 @ F,0,0,1,0,13.444055,0,1 @ F,0,0,1,0,6.1988349,0,1 @ F,0,0,1,0,9.5179725,0,1 @ F,0,1,1,0,5.6377498,0,1 @ F,0,0,1,0,6.6457269,0,1 @ F,0,0,1,0,5.6377498,0,1 @ F,0,0,1,0,0,0,1 @ F,0,0,1,0,0,0,1 @ F,0,0,1,0,7.5953363,0,1"
       radius="0"
       unit="px"
       method="auto"
       mode="F"
       chamfer_steps="1"
       flexible="false"
       use_knot_distance="true"
       apply_no_radius="true"
       apply_with_radius="true"
       only_selected="false"
       hide_knots="false" />
    <inkscape:path-effect
       effect="fillet_chamfer"
       id="path-effect656"
       is_visible="true"
       lpeversion="1"
       nodesatellites_param="F,0,0,1,0,0,0,1 @ F,0,0,1,0,0,0,1 @ F,0,0,1,0,0,0,1 @ F,0,0,1,0,0,0,1 @ F,0,0,1,0,0,0,1 @ F,0,0,1,0,0,0,1 @ F,0,0,1,0,4.7464182,0,1 @ F,0,0,1,0,0,0,1 @ F,0,0,1,0,0,0,1 @ F,0,0,1,0,0,0,1"
       radius="0"
       unit="px"
       method="auto"
       mode="F"
       chamfer_steps="1"
       flexible="false"
       use_knot_distance="true"
       apply_no_radius="true"
       apply_with_radius="true"
       only_selected="false"
       hide_knots="false" />
    <inkscape:path-effect
       effect="fillet_chamfer"
       id="path-effect655"
       is_visible="true"
       lpeversion="1"
       nodesatellites_param="F,0,0,1,0,0,0,1 @ F,0,0,1,0,0,0,1 @ F,0,0,1,0,0,0,1 @ F,0,0,1,0,0,0,1 @ F,0,0,1,0,0,0,1 @ F,0,0,1,0,0,0,1 @ F,0,0,1,0,4.4855679,0,1 @ F,0,0,1,0,0,0,1 @ F,0,0,1,0,0,0,1 @ F,0,0,1,0,0,0,1"
       radius="0"
       unit="px"
       method="auto"
       mode="F"
       chamfer_steps="1"
       flexible="false"
       use_knot_distance="true"
       apply_no_radius="true"
       apply_with_radius="true"
       only_selected="false"
       hide_knots="false" />
    <marker
       id="DistanceX"
       orient="auto"
       refX="0"
       refY="0"
       style="overflow:visible">
      <path
         d="M 3,-3 -3,3 M 0,-5 V 5"
         style="stroke:#000000;stroke-width:0.5"
         id="path1" />
    </marker>
    <pattern
       id="Hatch"
       patternUnits="userSpaceOnUse"
       width="8"
       height="8"
       x="0"
       y="0">
      <path
         d="M8 4 l-4,4"
         stroke="#000000"
         stroke-width="0.25"
         linecap="square"
         id="path2" />
      <path
         d="M6 2 l-4,4"
         stroke="#000000"
         stroke-width="0.25"
         linecap="square"
         id="path3" />
      <path
         d="M4 0 l-4,4"
         stroke="#000000"
         stroke-width="0.25"
         linecap="square"
         id="path4" />
    </pattern>
    <inkscape:path-effect
       effect="fill_between_many"
       method="originald"
       linkedpaths="#path5-6,0,1"
       id="path-effect556"
       is_visible="true"
       lpeversion="0"
       join="true"
       close="true"
       autoreverse="true" />
    <inkscape:path-effect
       effect="bspline"
       id="path-effect659-9"
       is_visible="true"
       lpeversion="1.3"
       weight="33.333333"
       steps="2"
       helper_size="0"
       apply_no_weight="true"
       apply_with_weight="true"
       only_selected="false"
       uniform="false" />
  </defs>
  <g
     inkscape:groupmode="layer"
     id="g527"
     inkscape:label="Keyplate Foam Cutouts"
     transform="translate(-199.71456,140.78281)"
     style="display:inline"
     inkscape:highlight-color="#8d8d8d">
    <path
       id="path473"
       style="display:inline;fill:none;stroke:#707070;stroke-opacity:1"
       d="m 448.49866,225.12543 v -49.13692 c -1.5e-4,-1.04231 -0.84622,-1.88839 -1.88988,-1.88988 h -49.13393 c -1.04365,10e-4 -1.88972,0.84757 -1.88988,1.88988 v 49.13692 c 1.6e-4,1.042 0.84623,1.88808 1.88988,1.88989 h 49.13393 c 1.04366,-0.002 1.88973,-0.84789 1.88988,-1.88989 z"
       inkscape:label="SW30"
       transform="translate(-2.4792695e-6)"
       sodipodi:nodetypes="ccccccccc" />
    <path
       id="path474"
       style="display:inline;fill:none;stroke:#707070;stroke-opacity:1"
       d="m 520.49867,216.12543 v -49.13692 c -1.6e-4,-1.04231 -0.84623,-1.88839 -1.88989,-1.88988 h -49.13393 c -1.04365,10e-4 -1.88972,0.84757 -1.88988,1.88988 v 49.13692 c 1.6e-4,1.042 0.84623,1.88808 1.88988,1.88989 h 49.13393 c 1.04366,-0.002 1.88973,-0.84789 1.88989,-1.88989 z"
       inkscape:label="SW29"
       transform="translate(-2.4792695e-6)"
       sodipodi:nodetypes="ccccccccc" />
    <path
       id="path475"
       style="display:inline;fill:none;stroke:#707070;stroke-opacity:1"
       d="m 590.60878,227.01532 c 1.04366,-0.002 1.88973,-0.84789 1.88989,-1.88989 v -49.13692 c -1.6e-4,-1.04231 -0.84623,-1.88839 -1.88989,-1.88988 h -49.13392 c -1.04366,10e-4 -1.88973,0.84757 -1.88989,1.88988 v 49.13692 c 1.6e-4,1.042 0.84623,1.88808 1.88989,1.88989 z"
       sodipodi:nodetypes="ccccccccc"
       inkscape:label="SW28"
       transform="translate(-2.4792695e-6)" />
    <path
       id="path482"
       style="display:inline;fill:none;stroke:#707070;stroke-opacity:1"
       d="m 284.60874,173.01532 c 1.0437,-0.002 1.88977,-0.84789 1.88977,-1.88989 v -49.13692 c 0,-1.04231 -0.84607,-1.88839 -1.88977,-1.88989 H 235.4749 c -1.0437,0.002 -1.88977,0.84758 -1.88978,1.88989 v 49.13692 c 1e-5,1.042 0.84608,1.88808 1.88978,1.88989 z"
       inkscape:label="SW25"
       transform="translate(-2.4792695e-6)"
       sodipodi:nodetypes="ccccccccc" />
    <path
       id="path483"
       style="display:inline;fill:none;stroke:#707070;stroke-opacity:1"
       d="m 376.49866,171.12543 v -49.13692 c -1.5e-4,-1.04231 -0.84622,-1.88839 -1.88988,-1.88989 h -49.13393 c -1.04365,0.002 -1.88972,0.84758 -1.88988,1.88989 v 49.13692 c 1.6e-4,1.042 0.84623,1.88808 1.88988,1.88989 h 49.13393 c 1.04366,-0.002 1.88973,-0.84789 1.88988,-1.88989 z"
       inkscape:label="SW24"
       transform="translate(-2.4792695e-6)"
       sodipodi:nodetypes="ccccccccc" />
    <path
       id="path485"
       style="display:inline;fill:none;stroke:#707070;stroke-opacity:1"
       d="m 448.49866,153.12543 v -49.13692 c -1.5e-4,-1.04231 -0.84622,-1.88839 -1.88988,-1.88989 h -49.13393 c -1.04365,0.002 -1.88972,0.84758 -1.88988,1.88989 v 49.13692 c 1.6e-4,1.042 0.84623,1.88808 1.88988,1.88989 h 49.13393 c 1.04366,-0.002 1.88973,-0.84789 1.88988,-1.88989 z"
       inkscape:label="SW23"
       transform="translate(-2.4792695e-6)"
       sodipodi:nodetypes="ccccccccc" />
    <path
       id="path486"
       style="display:inline;fill:none;stroke:#707070;stroke-opacity:1"
       d="M 520.49867,144.12543 V 94.9885 c -1.6e-4,-1.042309 -0.84623,-1.888388 -1.88989,-1.889885 h -49.13393 c -1.04365,0.0015 -1.88972,0.847576 -1.88988,1.889885 v 49.13693 c 1.6e-4,1.042 0.84623,1.88808 1.88988,1.88989 h 49.13393 c 1.04366,-0.002 1.88973,-0.84789 1.88989,-1.88989 z"
       inkscape:label="SW22"
       transform="translate(-2.4792695e-6)"
       sodipodi:nodetypes="ccccccccc" />
    <path
       id="path487"
       style="display:inline;fill:none;stroke:#707070;stroke-opacity:1"
       d="m 592.49867,153.12543 v -49.13692 c -1.6e-4,-1.04231 -0.84623,-1.88839 -1.88989,-1.88989 h -49.13392 c -1.04366,0.002 -1.88973,0.84758 -1.88989,1.88989 v 49.13692 c 1.6e-4,1.042 0.84623,1.88808 1.88989,1.88989 h 49.13392 c 1.04366,-0.002 1.88973,-0.84789 1.88989,-1.88989 z"
       inkscape:label="SW21"
       transform="translate(-2.4792695e-6)"
       sodipodi:nodetypes="ccccccccc" />
    <path
       id="path488"
       style="display:inline;fill:none;stroke:#707070;stroke-opacity:1"
       d="m 662.60878,164.01532 c 1.04366,-0.002 1.88973,-0.84789 1.88988,-1.88989 v -49.13692 c -1.5e-4,-1.04231 -0.84622,-1.88839 -1.88988,-1.88989 h -49.13392 c -1.04366,0.002 -1.88973,0.84758 -1.88989,1.88989 v 49.13692 c 1.6e-4,1.042 0.84623,1.88808 1.88989,1.88989 z"
       inkscape:label="SW20"
       transform="translate(-2.4792695e-6)"
       sodipodi:nodetypes="ccccccccc" />
    <path
       id="path489"
       style="display:inline;fill:none;stroke:#707070;stroke-opacity:1"
       d="M 736.49866,126.12544 V 76.988496 c -1.5e-4,-1.042309 -0.84622,-1.888388 -1.88988,-1.889885 h -49.13393 c -1.04365,0.0015 -1.88972,0.847576 -1.88988,1.889885 v 49.136944 c 1.6e-4,1.04199 0.84623,1.88807 1.88988,1.88988 h 49.13393 c 1.04366,-0.002 1.88973,-0.84789 1.88988,-1.88988 z"
       inkscape:label="SW19"
       transform="translate(-2.4792695e-6)"
       sodipodi:nodetypes="ccccccccc" />
    <path
       id="path490"
       style="fill:none;stroke:#707070;stroke-opacity:1"
       d="m 284.60874,101.0153 c 1.0437,-0.002 1.88977,-0.84789 1.88977,-1.889883 V 49.988496 c 0,-1.042309 -0.84607,-1.888388 -1.88977,-1.889885 H 235.4749 c -1.0437,0.0015 -1.88977,0.847576 -1.88978,1.889885 v 49.136921 c 1e-5,1.041993 0.84608,1.888073 1.88978,1.889883 z"
       sodipodi:nodetypes="ccccccccc"
       inkscape:label="SW18" />
    <path
       id="path491"
       style="fill:none;stroke:#707070;stroke-opacity:1"
       d="m 374.60878,101.0153 c 1.04366,-0.002 1.88973,-0.84789 1.88988,-1.889883 V 49.988496 c -1.5e-4,-1.042309 -0.84622,-1.888388 -1.88988,-1.889885 h -49.13393 c -1.04365,0.0015 -1.88972,0.847576 -1.88988,1.889885 v 49.136921 c 1.6e-4,1.041993 0.84623,1.888073 1.88988,1.889883 z"
       sodipodi:nodetypes="ccccccccc"
       inkscape:label="SW17" />
    <path
       id="path492"
       style="display:inline;fill:none;stroke:#707070;stroke-opacity:1"
       d="M 448.49866,81.125421 V 31.988496 c -1.5e-4,-1.042309 -0.84622,-1.888388 -1.88988,-1.889885 h -49.13393 c -1.04365,0.0015 -1.88972,0.847576 -1.88988,1.889885 v 49.136925 c 1.6e-4,1.041994 0.84623,1.888073 1.88988,1.889885 h 49.13393 c 1.04366,-0.0018 1.88973,-0.847891 1.88988,-1.889885 z"
       inkscape:label="SW16"
       transform="translate(-2.4792695e-6)"
       sodipodi:nodetypes="ccccccccc" />
    <path
       id="path493"
       style="display:inline;fill:none;stroke:#707070;stroke-opacity:1"
       d="M 520.49867,72.125421 V 22.988496 c -1.6e-4,-1.042309 -0.84623,-1.888388 -1.88989,-1.889885 h -49.13393 c -1.04365,0.0015 -1.88972,0.847576 -1.88988,1.889885 v 49.136925 c 1.6e-4,1.041994 0.84623,1.888073 1.88988,1.889885 h 49.13393 c 1.04366,-0.0018 1.88973,-0.847891 1.88989,-1.889885 z"
       inkscape:label="SW15"
       transform="translate(-2.4792695e-6)"
       sodipodi:nodetypes="ccccccccc" />
    <path
       id="path494"
       style="display:inline;fill:none;stroke:#707070;stroke-opacity:1"
       d="M 592.49867,81.125421 V 31.988496 c -1.6e-4,-1.042309 -0.84623,-1.888388 -1.88989,-1.889885 h -49.13392 c -1.04366,0.0015 -1.88973,0.847576 -1.88989,1.889885 v 49.136925 c 1.6e-4,1.041994 0.84623,1.888073 1.88989,1.889885 h 49.13392 c 1.04366,-0.0018 1.88973,-0.847891 1.88989,-1.889885 z"
       inkscape:label="SW14"
       transform="translate(-2.4792695e-6)"
       sodipodi:nodetypes="ccccccccc" />
    <path
       id="path495"
       style="display:inline;fill:none;stroke:#707070;stroke-opacity:1"
       d="m 662.60878,92.015306 c 1.04366,-0.0018 1.88973,-0.847891 1.88988,-1.889885 V 40.988496 c -1.5e-4,-1.042309 -0.84622,-1.888388 -1.88988,-1.889885 h -49.13392 c -1.04366,0.0015 -1.88973,0.847576 -1.88989,1.889885 v 49.136925 c 1.6e-4,1.041994 0.84623,1.888073 1.88989,1.889885 z"
       inkscape:label="SW13"
       transform="translate(-2.4792695e-6)"
       sodipodi:nodetypes="ccccccccc" />
    <path
       id="path496"
       style="display:inline;fill:none;stroke:#707070;stroke-opacity:1"
       d="m 284.60874,29.015306 c 1.0437,-0.0018 1.88977,-0.847891 1.88977,-1.889885 v -49.136925 c 0,-1.042309 -0.84607,-1.888388 -1.88977,-1.889885 H 235.4749 c -1.0437,0.0015 -1.88977,0.847576 -1.88978,1.889885 v 49.136925 c 1e-5,1.041994 0.84608,1.888073 1.88978,1.889885 z"
       inkscape:label="SW12"
       transform="translate(-2.4792695e-6)"
       sodipodi:nodetypes="ccccccccc" />
    <path
       id="path497"
       style="display:inline;fill:none;stroke:#707070;stroke-opacity:1"
       d="m 376.49866,27.125421 v -49.136925 c -1.5e-4,-1.042309 -0.84622,-1.888388 -1.88988,-1.889885 h -49.13393 c -1.04365,0.0015 -1.88972,0.847576 -1.88988,1.889885 v 49.136925 c 1.6e-4,1.041994 0.84623,1.888073 1.88988,1.889885 h 49.13393 c 1.04366,-0.0018 1.88973,-0.847891 1.88988,-1.889885 z"
       inkscape:label="SW11"
       transform="translate(-2.4792695e-6)"
       sodipodi:nodetypes="ccccccccc" />
    <path
       id="path498"
       style="display:inline;fill:none;stroke:#707070;stroke-opacity:1"
       d="M 448.49866,9.1254202 V -40.011504 c -1.5e-4,-1.042309 -0.84622,-1.888388 -1.88988,-1.889885 h -49.13393 c -1.04365,0.0015 -1.88972,0.847576 -1.88988,1.889885 V 9.1254202 c 1.6e-4,1.0419938 0.84623,1.8880728 1.88988,1.8898848 h 49.13393 c 1.04366,-0.0018 1.88973,-0.847891 1.88988,-1.8898848 z"
       inkscape:label="SW10"
       transform="translate(-2.4792695e-6)"
       sodipodi:nodetypes="ccccccccc" />
    <path
       id="path499"
       style="display:inline;fill:none;stroke:#707070;stroke-opacity:1"
       d="M 520.49867,0.12542029 V -49.011504 c -1.6e-4,-1.042309 -0.84623,-1.888388 -1.88989,-1.889885 h -49.13393 c -1.04365,0.0015 -1.88972,0.847576 -1.88988,1.889885 V 0.12542029 c 1.6e-4,1.04199361 0.84623,1.88807281 1.88988,1.88988501 h 49.13393 c 1.04366,-0.00181 1.88973,-0.8478914 1.88989,-1.88988501 z"
       inkscape:label="SW9"
       transform="translate(-2.4792695e-6)"
       sodipodi:nodetypes="ccccccccc" />
    <path
       id="path500"
       style="display:inline;fill:none;stroke:#707070;stroke-opacity:1"
       d="m 590.60878,11.015305 c 1.04366,-0.0018 1.88973,-0.847891 1.88989,-1.8898848 V -40.011504 c -1.6e-4,-1.042309 -0.84623,-1.888388 -1.88989,-1.889885 h -49.13392 c -1.04366,0.0015 -1.88973,0.847576 -1.88989,1.889885 V 9.1254202 c 1.6e-4,1.0419938 0.84623,1.8880728 1.88989,1.8898848 z"
       inkscape:label="SW8"
       transform="translate(-2.4792695e-6)"
       sodipodi:nodetypes="ccccccccc" />
    <path
       id="path512"
       style="display:inline;fill:none;stroke:#707070;stroke-opacity:1"
       d="m 662.60878,20.015306 c 1.04366,-0.0018 1.88973,-0.847891 1.88988,-1.889885 v -49.136925 c -1.5e-4,-1.042309 -0.84622,-1.888388 -1.88988,-1.889885 h -49.13392 c -1.04366,0.0015 -1.88973,0.847576 -1.88989,1.889885 v 49.136925 c 1.6e-4,1.041994 0.84623,1.888073 1.88989,1.889885 z"
       inkscape:label="SW7"
       transform="translate(-2.4792695e-6)"
       sodipodi:nodetypes="ccccccccc" />
    <path
       id="path513"
       style="display:inline;fill:none;stroke:#707070;stroke-opacity:1"
       d="m 284.60874,-42.984694 c 1.0437,-0.0018 1.88977,-0.847891 1.88977,-1.889885 v -49.136929 c 0,-1.042309 -0.84607,-1.888388 -1.88977,-1.889885 H 235.4749 c -1.0437,0.0015 -1.88977,0.847576 -1.88978,1.889885 v 49.136929 c 1e-5,1.041994 0.84608,1.888073 1.88978,1.889885 z"
       transform="translate(-2.4792695e-6)"
       inkscape:label="SW6"
       sodipodi:nodetypes="ccccccccc" />
    <path
       id="path517"
       style="display:inline;fill:none;stroke:#707070;stroke-opacity:1"
       d="m 376.49866,-44.874579 v -49.136929 c -1.5e-4,-1.042309 -0.84622,-1.888388 -1.88988,-1.889885 h -49.13393 c -1.04365,0.0015 -1.88972,0.847576 -1.88988,1.889885 v 49.136929 c 1.6e-4,1.041994 0.84623,1.888073 1.88988,1.889885 h 49.13393 c 1.04366,-0.0018 1.88973,-0.847891 1.88988,-1.889885 z"
       transform="translate(-2.4792695e-6)"
       inkscape:label="SW5"
       sodipodi:nodetypes="ccccccccc" />
    <path
       id="path518"
       style="display:inline;fill:none;stroke:#707070;stroke-opacity:1"
       d="M 448.49866,-62.874583 V -112.0115 c -1.5e-4,-1.04231 -0.84622,-1.88839 -1.88988,-1.88988 h -49.13393 c -1.04365,0.001 -1.88972,0.84757 -1.88988,1.88988 v 49.136917 c 1.5e-4,1.041995 0.84623,1.888077 1.88988,1.889889 h 49.13393 c 1.04366,-0.0018 1.88974,-0.847894 1.88988,-1.889889 z"
       inkscape:label="SW4"
       transform="translate(-2.4792695e-6)"
       sodipodi:nodetypes="ccccccccc" />
    <path
       id="path522"
       style="display:inline;fill:none;stroke:#707070;stroke-opacity:1"
       d="M 520.49867,-71.874581 V -121.0115 c -1.6e-4,-1.04231 -0.84623,-1.88839 -1.88989,-1.88989 h -49.13393 c -1.04365,0.002 -1.88972,0.84758 -1.88988,1.88989 v 49.136919 c 1.6e-4,1.041993 0.84623,1.888069 1.88988,1.889882 h 49.13393 c 1.04366,-0.0018 1.88973,-0.847889 1.88989,-1.889882 z"
       inkscape:label="SW3"
       transform="translate(-2.4792695e-6)"
       sodipodi:nodetypes="ccccccccc" />
    <path
       id="path523"
       style="display:inline;fill:none;stroke:#707070;stroke-opacity:1"
       d="M 592.49867,-62.874583 V -112.0115 c -1.6e-4,-1.04231 -0.84623,-1.88839 -1.88989,-1.88988 h -49.13392 c -1.04366,0.001 -1.88973,0.84757 -1.88989,1.88988 v 49.136917 c 1.5e-4,1.041995 0.84623,1.888077 1.88989,1.889889 h 49.13392 c 1.04366,-0.0018 1.88974,-0.847894 1.88989,-1.889889 z"
       inkscape:label="SW2"
       transform="translate(-2.4792695e-6)"
       sodipodi:nodetypes="ccccccccc" />
    <path
       id="path527"
       style="display:inline;fill:none;stroke:#707070;stroke-opacity:1"
       d="m 662.60878,-51.984694 c 1.04366,-0.0018 1.88973,-0.847891 1.88988,-1.889885 V -103.0115 c -1.5e-4,-1.04231 -0.84622,-1.88839 -1.88988,-1.88989 h -49.13392 c -1.04366,0.002 -1.88973,0.84758 -1.88989,1.88989 v 49.136921 c 1.6e-4,1.041994 0.84623,1.888073 1.88989,1.889885 z"
       inkscape:label="SW1"
       transform="translate(-2.4792695e-6)"
       sodipodi:nodetypes="ccccccccc" />
    <path
       id="path30-0"
       style="fill:none;stroke:#707070;stroke-opacity:1"
       inkscape:label="SW26"
       d="m 719.12759,346.90377 -64.6533,-33.0866 -6.6033,10.86793 m 71.25724,22.21939 c 0.9297,0.47433 2.06788,0.10517 2.54219,-0.82454 m 50.48959,-103.12611 -64.47416,-32.89296 m 54.99334,55.63541 10.30561,-20.20025 m -67.84129,-34.61078 -6.39686,10.72036 -64.8594,-32.93965 m 139.09816,56.8304 c 0.47431,-0.9297 0.10513,-2.06788 -0.82458,-2.54217 m -64.47229,-32.892 c -0.92969,-0.47432 -2.06787,-0.10517 -2.54218,0.82453 m -84.10706,-1.19613 -30.7036,60.18277 m -9.48087,22.74253 64.47416,32.89296 m -59.28738,-47.21858 -6.01188,11.78404 m 10.30597,-20.20095 -4.29409,8.41691 m 59.28802,47.2193 c 0.9297,0.47433 2.06788,0.10517 2.54219,-0.82454 M 580.03277,290.0754 c -0.47431,0.9297 -0.10514,2.06787 0.82457,2.54217 m 44.47596,-91.34371 -4.294,8.41674 m 10.30561,-20.20025 -6.01161,11.78351 m 8.55664,-12.60657 c -0.92969,-0.47432 -2.06787,-0.10517 -2.54218,0.82453 m 90.32183,156.58819 10.306,-20.20096 30.7036,-60.18276"
       sodipodi:nodetypes="ccccccccccccccccccccccccccccccccccccc" />
  </g>
  <g
     inkscape:groupmode="layer"
     id="layer11"
     inkscape:label="Mounting Holes"
     inkscape:highlight-color="#000000"
     style="display:inline;stroke:#000000;stroke-opacity:1"
     transform="translate(-0.00937429)">
    <g
       id="g652"
       inkscape:label="Plate"
       style="display:inline"
       transform="translate(-1.4142136,-0.70710679)">
      <circle
         cx="-105.91815"
         cy="168.33612"
         r="4.1574802"
         id="circle29"
         transform="scale(-1,1)"
         style="fill:#000000;fill-opacity:0;stroke:#000000;stroke-width:0.377953;stroke-linecap:round;stroke-linejoin:round;stroke-opacity:1" />
      <circle
         cx="-105.91815"
         cy="33.400021"
         r="4.1574802"
         id="circle29-0"
         transform="scale(-1,1)"
         style="display:inline;fill:#000000;fill-opacity:0;stroke:#000000;stroke-width:0.377953;stroke-linecap:round;stroke-linejoin:round;stroke-opacity:1" />
      <circle
         cx="-105.91815"
         cy="325.5575"
         r="4.1574802"
         id="circle30"
         transform="scale(-1,1)"
         style="fill:#000000;fill-opacity:0;stroke:#000000;stroke-width:0.377953;stroke-linecap:round;stroke-linejoin:round;stroke-opacity:1" />
      <circle
         cx="-401.3028"
         cy="89.846458"
         r="4.1574802"
         id="circle31"
         transform="scale(-1,1)"
         style="fill:#000000;fill-opacity:0;stroke:#000000;stroke-width:0.377953;stroke-linecap:round;stroke-linejoin:round;stroke-opacity:1" />
      <circle
         cx="-401.87158"
         cy="305.82492"
         r="4.1574802"
         id="circle31-3"
         transform="scale(-1,1)"
         style="display:inline;fill:#000000;fill-opacity:0;stroke:#000000;stroke-width:0.377953;stroke-linecap:round;stroke-linejoin:round;stroke-opacity:1" />
      <circle
         cx="-330.1575"
         cy="225.50137"
         r="4.1574802"
         id="circle32"
         transform="scale(-1,1)"
         style="fill:#000000;fill-opacity:0;stroke:#000000;stroke-width:0.377953;stroke-linecap:round;stroke-linejoin:round;stroke-opacity:1" />
      <circle
         cx="-350.20255"
         cy="402.94443"
         r="4.1574802"
         id="circle32-4"
         transform="scale(-1,1)"
         style="display:inline;fill:#000000;fill-opacity:0;stroke:#000000;stroke-width:0.377953;stroke-linecap:round;stroke-linejoin:round;stroke-opacity:1" />
      <circle
         cx="-404.83887"
         cy="16.164469"
         r="4.1574802"
         id="circle32-0"
         transform="scale(-1,1)"
         style="display:inline;fill:#000000;fill-opacity:0;stroke:#000000;stroke-width:0.377953;stroke-linecap:round;stroke-linejoin:round;stroke-opacity:1" />
      <circle
         cx="-532.94507"
         cy="318.70547"
         r="4.1574802"
         id="circle37"
         style="fill:#000000;fill-opacity:0;stroke:#000000;stroke-width:0.377953;stroke-linecap:round;stroke-linejoin:round;stroke-opacity:1"
         transform="scale(-1,1)" />
    </g>
  </g>
  <g
     inkscape:groupmode="layer"
     id="layer1"
     inkscape:label="Border"
     transform="translate(18.888264,18.897638)"
     style="display:inline"
     inkscape:highlight-color="#000000">
    <path
       style="display:inline;fill:none;stroke:#000000;stroke-width:0.377953;stroke-linecap:butt;stroke-linejoin:round;stroke-dasharray:none;stroke-opacity:1"
       d="m -10.715619,311.20589 190.490059,55.40887 161.20222,59.5201 155.06162,73.99828 a 13.349289,13.349289 160.30869 0 0 17.8375,-6.3837 L 576.87092,359.30616 A 11.955091,11.955091 87.698851 0 0 576.429,348.30891 l -29.67069,-52.00067 a 35.987782,35.987782 75.105929 0 1 -4.73023,-17.78488 l -0.11905,-85.47858 a 5.6456073,5.6456073 44.9601 0 0 -5.6456,-5.63774 l -72.29486,0 a 6.6457269,6.6457269 45 0 1 -6.64573,-6.64573 V -8.8953532 a 5.7990175,5.7990175 45.807863 0 0 -5.63551,-5.7967118 l -142.39599,-4.016597 h -68.5 L -11.16112,9.6906035 a 8.488998,8.488998 131.74909 0 0 -7.538161,8.4460655 l 0.349437,282.911051 a 10.592799,10.592799 53.073823 0 0 7.634225,10.15817 z"
       id="path505"
       sodipodi:nodetypes="ccccccccccccc"
       inkscape:label="keyplate outline"
       inkscape:path-effect="#path-effect657"
       inkscape:original-d="m -18.340036,308.98813 198.114476,57.62663 161.20222,59.5201 167.19488,79.7885 71.32951,-152.23039 -37.45971,-65.65165 -0.14016,-100.63428 H 457.32284 V -14.533103 l -148.0315,-4.175559 h -68.5 l -259.500002,29.25 z" />
  </g>
</svg>
