<?xml version="1.0" encoding="UTF-8" standalone="no"?>
<svg
   viewBox="0 0 597.07756 520.52382"
   width="157.97678mm"
   height="137.72192mm"
   version="1.1"
   id="svg484"
   sodipodi:docname="support_plate_outline.svg"
   inkscape:version="1.4.2 (f4327f4, 2025-05-13)"
   inkscape:export-batch-path="C:\Users\jrdnf\Downloads"
   inkscape:export-batch-name="kbplate"
   xmlns:inkscape="http://www.inkscape.org/namespaces/inkscape"
   xmlns:sodipodi="http://sodipodi.sourceforge.net/DTD/sodipodi-0.dtd"
   xmlns="http://www.w3.org/2000/svg"
   xmlns:svg="http://www.w3.org/2000/svg">
  <sodipodi:namedview
     id="namedview484"
     pagecolor="#ffffff"
     bordercolor="#000000"
     borderopacity="0.25"
     inkscape:showpageshadow="2"
     inkscape:pageopacity="0.0"
     inkscape:pagecheckerboard="0"
     inkscape:deskcolor="#d1d1d1"
     inkscape:zoom="22.627417"
     inkscape:cx="521.0935"
     inkscape:cy="389.28438"
     inkscape:window-width="3840"
     inkscape:window-height="2054"
     inkscape:window-x="-11"
     inkscape:window-y="-11"
     inkscape:window-maximized="1"
     inkscape:current-layer="g472"
     inkscape:document-units="mm"
     showguides="true" />
  <desc
     id="desc1">kbplate (3).dxf - scale = 1.000000, origin = (0.000000, 0.000000), method = manual</desc>
  <defs
     id="defs4">
    <inkscape:path-effect
       effect="fillet_chamfer"
       id="path-effect16"
       is_visible="true"
       lpeversion="1"
       nodesatellites_param="F,0,0,1,0,7.9404143,0,1 @ F,0,0,1,0,0,0,1 @ F,0,0,1,0,0,0,1 @ F,0,0,1,0,13.444055,0,1 @ F,0,0,1,0,6.1988349,0,1 @ F,0,0,1,0,9.5179725,0,1 @ F,0,0,1,0,7.9402453,0,1 @ F,0,0,1,0,0,0,1 @ F,0,0,1,0,0,0,1 @ F,0,0,1,0,7.5953363,0,1"
       radius="0"
       unit="px"
       method="auto"
       mode="F"
       chamfer_steps="1"
       flexible="false"
       use_knot_distance="true"
       apply_no_radius="true"
       apply_with_radius="true"
       only_selected="false"
       hide_knots="false" />
    <inkscape:path-effect
       effect="bspline"
       id="path-effect659"
       is_visible="true"
       lpeversion="1.3"
       weight="33.333333"
       steps="2"
       helper_size="0"
       apply_no_weight="true"
       apply_with_weight="true"
       only_selected="false"
       uniform="false" />
    <inkscape:path-effect
       effect="fillet_chamfer"
       id="path-effect658"
       is_visible="true"
       lpeversion="1"
       nodesatellites_param="F,0,0,1,0,2.8447581,0,1 @ F,0,0,1,0,2.4967765,0,1 @ F,0,0,1,0,2.314428,0,1 @ F,0,0,1,0,3.5574367,0,1"
       radius="0"
       unit="px"
       method="auto"
       mode="F"
       chamfer_steps="1"
       flexible="false"
       use_knot_distance="true"
       apply_no_radius="true"
       apply_with_radius="true"
       only_selected="false"
       hide_knots="false" />
    <inkscape:path-effect
       effect="fillet_chamfer"
       id="path-effect657"
       is_visible="true"
       lpeversion="1"
       nodesatellites_param="F,0,0,1,0,7.9404143,0,1 @ F,0,0,1,0,0,0,1 @ F,0,0,1,0,0,0,1 @ F,0,0,1,0,13.444055,0,1 @ F,0,0,1,0,6.1988349,0,1 @ F,0,0,1,0,9.5179725,0,1 @ F,0,1,1,0,5.6377498,0,1 @ F,0,0,1,0,6.6457269,0,1 @ F,0,0,1,0,5.6377498,0,1 @ F,0,0,1,0,0,0,1 @ F,0,0,1,0,0,0,1 @ F,0,0,1,0,7.5953363,0,1"
       radius="0"
       unit="px"
       method="auto"
       mode="F"
       chamfer_steps="1"
       flexible="false"
       use_knot_distance="true"
       apply_no_radius="true"
       apply_with_radius="true"
       only_selected="false"
       hide_knots="false" />
    <inkscape:path-effect
       effect="fillet_chamfer"
       id="path-effect656"
       is_visible="true"
       lpeversion="1"
       nodesatellites_param="F,0,0,1,0,0,0,1 @ F,0,0,1,0,0,0,1 @ F,0,0,1,0,0,0,1 @ F,0,0,1,0,0,0,1 @ F,0,0,1,0,0,0,1 @ F,0,0,1,0,0,0,1 @ F,0,0,1,0,4.7464182,0,1 @ F,0,0,1,0,0,0,1 @ F,0,0,1,0,0,0,1 @ F,0,0,1,0,0,0,1"
       radius="0"
       unit="px"
       method="auto"
       mode="F"
       chamfer_steps="1"
       flexible="false"
       use_knot_distance="true"
       apply_no_radius="true"
       apply_with_radius="true"
       only_selected="false"
       hide_knots="false" />
    <inkscape:path-effect
       effect="fillet_chamfer"
       id="path-effect655"
       is_visible="true"
       lpeversion="1"
       nodesatellites_param="F,0,0,1,0,0,0,1 @ F,0,0,1,0,0,0,1 @ F,0,0,1,0,0,0,1 @ F,0,0,1,0,0,0,1 @ F,0,0,1,0,0,0,1 @ F,0,0,1,0,0,0,1 @ F,0,0,1,0,4.4855679,0,1 @ F,0,0,1,0,0,0,1 @ F,0,0,1,0,0,0,1 @ F,0,0,1,0,0,0,1"
       radius="0"
       unit="px"
       method="auto"
       mode="F"
       chamfer_steps="1"
       flexible="false"
       use_knot_distance="true"
       apply_no_radius="true"
       apply_with_radius="true"
       only_selected="false"
       hide_knots="false" />
    <marker
       id="DistanceX"
       orient="auto"
       refX="0"
       refY="0"
       style="overflow:visible">
      <path
         d="M 3,-3 -3,3 M 0,-5 V 5"
         style="stroke:#000000;stroke-width:0.5"
         id="path1" />
    </marker>
    <pattern
       id="Hatch"
       patternUnits="userSpaceOnUse"
       width="8"
       height="8"
       x="0"
       y="0">
      <path
         d="M8 4 l-4,4"
         stroke="#000000"
         stroke-width="0.25"
         linecap="square"
         id="path2" />
      <path
         d="M6 2 l-4,4"
         stroke="#000000"
         stroke-width="0.25"
         linecap="square"
         id="path3" />
      <path
         d="M4 0 l-4,4"
         stroke="#000000"
         stroke-width="0.25"
         linecap="square"
         id="path4" />
    </pattern>
    <inkscape:path-effect
       effect="fill_between_many"
       method="originald"
       linkedpaths="#path5-6,0,1"
       id="path-effect556"
       is_visible="true"
       lpeversion="0"
       join="true"
       close="true"
       autoreverse="true" />
    <inkscape:path-effect
       effect="bspline"
       id="path-effect659-9"
       is_visible="true"
       lpeversion="1.3"
       weight="33.333333"
       steps="2"
       helper_size="0"
       apply_no_weight="true"
       apply_with_weight="true"
       only_selected="false"
       uniform="false" />
  </defs>
  <g
     inkscape:groupmode="layer"
     id="layer4"
     inkscape:label="Support Plate"
     transform="translate(5.8272402,7.836615)"
     style="display:inline">
    <path
       id="path1064"
       style="display:inline;fill:none;stroke:#ff5900;stroke-opacity:1"
       d="m 225.90561,361.84807 9e-5,-1.88807 15.11796,-0.002 c 1.04366,-0.002 1.88974,-0.84789 1.88989,-1.88989 v -49.13693 c -1.5e-4,-1.04231 -0.84623,-1.88838 -1.88989,-1.88988 l -15.11796,-10e-4 -9e-5,-1.88839 c -9e-5,-1.04207 -0.84616,-1.88815 -1.88988,-1.88988 h -15.11805 c -1.04372,0.002 -1.8898,0.84781 -1.88989,1.88988 l -9e-5,1.88839 -15.11797,10e-4 c -1.04364,0.001 -1.88972,0.84758 -1.88987,1.88988 v 49.13693 c 1.5e-4,1.042 0.84622,1.88808 1.88987,1.88989 l 15.11797,0.002 9e-5,1.88807 c 9e-5,1.04176 0.84617,1.88783 1.88989,1.88988 h 15.11805 c 1.04371,-0.002 1.88979,-0.84813 1.88988,-1.88988 z"
       inkscape:label="SW30"
       sodipodi:nodetypes="ccccccccccccccccccccc" />
    <path
       id="path1024"
       style="display:inline;fill:none;stroke:#ff5900;stroke-opacity:1"
       d="m 297.90561,352.84807 9e-5,-1.88807 15.11797,-0.002 c 1.04365,-0.002 1.88973,-0.84789 1.88988,-1.88989 v -49.13693 c -1.5e-4,-1.04231 -0.84623,-1.88838 -1.88988,-1.88988 l -15.11797,-10e-4 -9e-5,-1.88839 c -9e-5,-1.04207 -0.84616,-1.88815 -1.88988,-1.88988 h -15.11805 c -1.04372,0.002 -1.8898,0.84781 -1.88989,1.88988 l -9e-5,1.88839 -15.11796,10e-4 c -1.04365,0.001 -1.88973,0.84758 -1.88988,1.88988 v 49.13693 c 1.5e-4,1.042 0.84622,1.88808 1.88988,1.88989 l 15.11796,0.002 9e-5,1.88807 c 9e-5,1.04176 0.84617,1.88783 1.88989,1.88988 h 15.11805 c 1.04371,-0.002 1.88979,-0.84813 1.88988,-1.88988 z"
       inkscape:label="SW29"
       sodipodi:nodetypes="ccccccccccccccccccccc" />
    <path
       id="path1084"
       style="display:inline;fill:none;stroke:#ff5900;stroke-opacity:1"
       d="m 369.90561,361.84807 9e-5,-1.88807 15.11796,-0.002 c 1.04366,-0.002 1.88974,-0.84789 1.88989,-1.88989 v -49.13693 c -1.5e-4,-1.04231 -0.84623,-1.88838 -1.88989,-1.88988 l -15.11796,-10e-4 -9e-5,-1.88839 c -9e-5,-1.04207 -0.84616,-1.88815 -1.88988,-1.88988 h -15.11805 c -1.04372,0.002 -1.8898,0.84781 -1.88989,1.88988 l -9e-5,1.88839 -15.11797,10e-4 c -1.04364,0.001 -1.88972,0.84758 -1.88987,1.88988 v 49.13693 c 1.5e-4,1.042 0.84622,1.88808 1.88987,1.88989 l 15.11797,0.002 9e-5,1.88807 c 9e-5,1.04176 0.84617,1.88783 1.88989,1.88988 h 15.11805 c 1.04371,-0.002 1.88979,-0.84813 1.88988,-1.88988 z"
       inkscape:label="SW28"
       sodipodi:nodetypes="ccccccccccccccccccccc" />
    <g
       id="g473"
       inkscape:label="SW27"
       style="stroke:#ff5900;stroke-opacity:1">
      <path
         id="path1164"
         style="display:inline;fill:none;stroke:#ff5900;stroke-opacity:1"
         d="m 414.72096,414.11595 13.47016,6.86174 c 0.92991,0.47407 2.06789,0.10432 2.54187,-0.82793 l 0.85816,-1.6823 13.46998,6.86215 c 0.9299,0.47598 2.06787,0.10623 2.54186,-0.82293 l 22.30615,-43.77929 c 0.47382,-0.93 0.10407,-2.06797 -0.82593,-2.54087 l -13.47006,-6.86906 0.85787,-1.67957 c 0.47368,-0.9295 0.10393,-2.06747 -0.82593,-2.54086 l -13.47017,-6.86174 c -0.93016,-0.476 -2.06813,-0.10625 -2.54187,0.82292 l -0.8579,1.68925 -13.47023,-6.86909 c -0.93016,-0.47291 -2.06813,-0.10316 -2.54187,0.82793 l -22.30615,43.77929 c -0.47407,0.92807 -0.10432,2.06604 0.82543,2.54087 l 13.47082,6.861 -0.85812,1.68763 c -0.47394,0.92757 -0.10419,2.06554 0.82593,2.54086 z"
         inkscape:label="SW27"
         sodipodi:nodetypes="ccccccccccccccccccccc" />
      <path
         id="path475"
         style="display:inline;fill:none;stroke:#ff5900;stroke-opacity:1"
         d="m 410.5365,420.80551 -10.29511,20.20775 c -0.47372,0.92793 -0.10397,2.0659 0.82592,2.54086 l 47.14609,24.02109 c 0.93006,0.47377 2.06803,0.10402 2.54186,-0.82792 l 10.29511,-20.20275 c 0.47392,-0.93067 0.10417,-2.06864 -0.82593,-2.54086 l -47.14609,-24.02609 c -0.92984,-0.47151 -2.06781,-0.10176 -2.54185,0.82792 z"
         inkscape:label="Stabilizer2"
         sodipodi:nodetypes="ccccccccc"
         transform="translate(-14.33661,-12.086615)" />
      <path
         id="path477"
         style="display:inline;fill:none;stroke:#ff5900;stroke-opacity:1"
         d="m 501.1925,363.59644 -47.14609,-24.02109 c -0.9298,-0.47372 -2.06777,-0.10397 -2.54136,0.82793 l -10.29561,20.20275 c -0.47367,0.93071 -0.10392,2.06869 0.82593,2.54087 l 47.14608,24.02608 c 0.93011,0.47156 2.06808,0.10181 2.54187,-0.82792 l 10.29511,-20.20776 c 0.47397,-0.92788 0.10422,-2.06585 -0.82593,-2.54086 z"
         inkscape:label="Stabilizer1"
         sodipodi:nodetypes="ccccccccc"
         transform="translate(-14.33661,-12.086615)" />
    </g>
    <g
       id="g472"
       inkscape:label="SW26"
       style="stroke:#ff5900;stroke-opacity:1">
      <path
         id="path1144"
         style="display:inline;fill:none;stroke:#ff5900;stroke-opacity:1"
         d="m 475.05653,424.50526 13.47014,6.86182 -0.85794,1.68182 c -0.47376,0.93175 -0.10401,2.06973 0.82593,2.54586 l 13.47017,6.86174 c 0.93009,0.47326 2.06807,0.10351 2.54186,-0.82793 l 0.85798,-1.68149 13.47016,6.86134 c 0.93009,0.47517 2.06807,0.10542 2.54186,-0.82293 l 22.30615,-43.7793 c 0.47401,-0.93081 0.10426,-2.06879 -0.82593,-2.54086 l -13.47024,-6.86825 0.85804,-1.68039 c 0.47387,-0.93031 0.10413,-2.06827 -0.82592,-2.54086 l -13.47017,-6.86674 c -0.92998,-0.47181 -2.06795,-0.10206 -2.54187,0.82793 l -0.85808,1.68006 -13.47005,-6.8599 c -0.92998,-0.47372 -2.06794,-0.10398 -2.54186,0.82792 l -22.30616,43.7743 c -0.47389,0.93225 -0.10414,2.07023 0.82593,2.54586 z"
         inkscape:label="SW26"
         sodipodi:nodetypes="ccccccccccccccccccccc" />
      <path
         id="path473"
         style="display:inline;fill:none;stroke:#ff5900;stroke-opacity:1"
         d="m 474.13906,462.50226 c -0.47382,0.92993 -0.10407,2.0679 0.82603,2.54227 l 47.14609,24.02109 c 0.92984,0.47436 2.06781,0.10461 2.54186,-0.82293 l 10.29511,-20.20774 c 0.47371,-0.93008 0.10396,-2.06806 -0.82593,-2.54087 l -47.14608,-24.02099 c -0.93007,-0.47582 -2.06804,-0.10607 -2.54186,0.82301 l -10.29501,20.20916"
         inkscape:label="Stabilizer2"
         sodipodi:nodetypes="ccccccccc"
         transform="translate(-14.41719,-12.152355)" />
      <path
         id="path474"
         style="display:inline;fill:none;stroke:#ff5900;stroke-opacity:1"
         d="M 565.62109,407.83583 575.9162,387.6329 c 0.47376,-0.93229 0.10401,-2.07026 -0.82592,-2.54586 l -47.14609,-24.02109 c -0.93002,-0.47313 -2.06799,-0.10338 -2.54186,0.82793 l -10.29512,20.20275 c -0.47388,0.9313 -0.10413,2.06928 0.82593,2.54087 l 47.14609,24.02626 c 0.92989,0.47233 2.06787,0.10258 2.54186,-0.82793 z"
         inkscape:label="Stabilizer1"
         sodipodi:nodetypes="ccccccccc"
         transform="translate(-14.41719,-12.152355)" />
    </g>
    <path
       id="path944"
       style="display:inline;fill:none;stroke:#ff5900;stroke-opacity:1"
       d="m 62.01578,309.73795 c 1.043665,-0.002 1.889738,-0.84813 1.88973,-1.88988 l -10e-6,-1.88807 15.118115,-0.002 c 1.043708,-0.002 1.889788,-0.84789 1.889785,-1.88989 v -49.13693 c -2e-6,-1.04231 -0.846081,-1.88838 -1.889785,-1.88988 L 63.9055,253.04 l 10e-6,-1.88839 c 1.3e-5,-1.04207 -0.846061,-1.88815 -1.88973,-1.88988 H 46.897625 c -1.043668,0.002 -1.889748,0.84781 -1.889735,1.88988 l 10e-6,1.88839 -15.118115,0.001 c -1.0437,0.001 -1.889773,0.84758 -1.88978,1.88988 v 49.13693 c 2e-6,1.042 0.846076,1.88808 1.88978,1.88989 l 15.118115,0.002 -10e-6,1.88807 c -8e-6,1.04176 0.846071,1.88783 1.889735,1.88988 z"
       inkscape:label="SW25"
       sodipodi:nodetypes="ccccccccccccccccccccc" />
    <path
       id="path964"
       style="display:inline;fill:none;stroke:#ff5900;stroke-opacity:1"
       d="m 153.90561,307.84807 9e-5,-1.88807 15.11797,-0.002 c 1.04365,-0.002 1.88973,-0.84789 1.88988,-1.88989 v -49.13693 c -1.5e-4,-1.04231 -0.84623,-1.88838 -1.88988,-1.88988 l -15.11797,-0.001 -9e-5,-1.88839 c -9e-5,-1.04207 -0.84616,-1.88815 -1.88988,-1.88988 h -15.11806 c -1.04371,0.002 -1.88979,0.84781 -1.88988,1.88988 l -9e-5,1.88839 -15.11796,0.001 c -1.04365,0.001 -1.88973,0.84758 -1.88988,1.88988 v 49.13693 c 1.5e-4,1.042 0.84622,1.88808 1.88988,1.88989 l 15.11796,0.002 9e-5,1.88807 c 9e-5,1.04176 0.84617,1.88783 1.88988,1.88988 h 15.11806 c 1.04371,-0.002 1.88979,-0.84813 1.88988,-1.88988 z"
       inkscape:label="SW24"
       sodipodi:nodetypes="ccccccccccccccccccccc" />
    <path
       id="path824"
       style="fill:none;stroke:#ff5900;stroke-opacity:1"
       d="m 225.90561,289.84807 9e-5,-1.88807 15.11796,-0.002 c 1.04366,-0.002 1.88974,-0.84789 1.88989,-1.88989 v -49.13692 c -1.5e-4,-1.04232 -0.84623,-1.88839 -1.88989,-1.88988 l -15.11796,-0.002 -9e-5,-1.88839 c -9e-5,-1.04207 -0.84616,-1.88815 -1.88988,-1.88988 h -15.11805 c -1.04372,0.002 -1.8898,0.84781 -1.88989,1.88988 l -9e-5,1.88839 -15.11797,0.002 c -1.04364,10e-4 -1.88972,0.84757 -1.88987,1.88988 v 49.13692 c 1.5e-4,1.042 0.84622,1.88808 1.88987,1.88989 l 15.11797,0.002 9e-5,1.88807 c 9e-5,1.04176 0.84617,1.88783 1.88989,1.88988 h 15.11805 c 1.04371,-0.002 1.88979,-0.84813 1.88988,-1.88988 z"
       inkscape:label="SW23"
       sodipodi:nodetypes="ccccccccccccccccccccc" />
    <path
       id="path784"
       style="display:inline;fill:none;stroke:#ff5900;stroke-opacity:1"
       d="m 297.90561,280.84807 9e-5,-1.88807 15.11797,-0.002 c 1.04365,-0.002 1.88973,-0.84789 1.88988,-1.88989 v -49.13692 c -1.5e-4,-1.04232 -0.84623,-1.88839 -1.88988,-1.88988 l -15.11797,-0.002 -9e-5,-1.88839 c -9e-5,-1.04207 -0.84616,-1.88815 -1.88988,-1.88988 h -15.11805 c -1.04372,0.002 -1.8898,0.84781 -1.88989,1.88988 l -9e-5,1.88839 -15.11796,0.002 c -1.04365,10e-4 -1.88973,0.84757 -1.88988,1.88988 v 49.13692 c 1.5e-4,1.042 0.84622,1.88808 1.88988,1.88989 l 15.11796,0.002 9e-5,1.88807 c 9e-5,1.04176 0.84617,1.88783 1.88989,1.88988 h 15.11805 c 1.04371,-0.002 1.88979,-0.84813 1.88988,-1.88988 z"
       inkscape:label="SW22"
       sodipodi:nodetypes="ccccccccccccccccccccc" />
    <path
       id="path844"
       style="fill:none;stroke:#ff5900;stroke-opacity:1"
       d="m 369.90561,289.84807 9e-5,-1.88807 15.11796,-0.002 c 1.04366,-0.002 1.88974,-0.84789 1.88989,-1.88989 v -49.13692 c -1.5e-4,-1.04232 -0.84623,-1.88839 -1.88989,-1.88988 l -15.11796,-0.002 -9e-5,-1.88839 c -9e-5,-1.04207 -0.84616,-1.88815 -1.88988,-1.88988 h -15.11805 c -1.04372,0.002 -1.8898,0.84781 -1.88989,1.88988 l -9e-5,1.88839 -15.11797,0.002 c -1.04364,10e-4 -1.88972,0.84757 -1.88987,1.88988 v 49.13692 c 1.5e-4,1.042 0.84622,1.88808 1.88987,1.88989 l 15.11797,0.002 9e-5,1.88807 c 9e-5,1.04176 0.84617,1.88783 1.88989,1.88988 h 15.11805 c 1.04371,-0.002 1.88979,-0.84813 1.88988,-1.88988 z"
       inkscape:label="SW21"
       sodipodi:nodetypes="ccccccccccccccccccccc" />
    <path
       id="path904"
       style="fill:none;stroke:#ff5900;stroke-opacity:1"
       d="m 441.90561,298.84807 9e-5,-1.88807 15.11796,-0.002 c 1.04366,-0.002 1.88974,-0.84789 1.88989,-1.88989 v -49.13692 c -1.5e-4,-1.04232 -0.84623,-1.88839 -1.88989,-1.88988 l -15.11796,-0.002 -9e-5,-1.88839 c -9e-5,-1.04207 -0.84616,-1.88815 -1.88988,-1.88988 h -15.11805 c -1.04372,0.002 -1.8898,0.84781 -1.88989,1.88988 l -9e-5,1.88839 -15.11797,0.002 c -1.04364,10e-4 -1.88972,0.84757 -1.88988,1.88988 v 49.13692 c 1.6e-4,1.042 0.84623,1.88808 1.88988,1.88989 l 15.11797,0.002 9e-5,1.88807 c 9e-5,1.04176 0.84617,1.88783 1.88989,1.88988 h 15.11805 c 1.04371,-0.002 1.88979,-0.84813 1.88988,-1.88988 z"
       inkscape:label="SW20"
       sodipodi:nodetypes="ccccccccccccccccccccc" />
    <path
       id="path744"
       style="display:inline;fill:none;stroke:#ff5900;stroke-opacity:1"
       d="m 513.90561,262.84807 9e-5,-1.88807 15.11797,-0.002 c 1.04365,-0.002 1.88973,-0.84789 1.88988,-1.88989 v -49.13693 c -1.5e-4,-1.04231 -0.84623,-1.88838 -1.88988,-1.88987 l -15.11797,-0.002 -9e-5,-1.88839 c -9e-5,-1.04207 -0.84616,-1.88815 -1.88988,-1.88988 h -15.11805 c -1.04372,0.002 -1.8898,0.84781 -1.88989,1.88988 l -9e-5,1.88839 -15.11796,0.002 c -1.04365,10e-4 -1.88973,0.84757 -1.88989,1.88987 v 49.13693 c 1.6e-4,1.042 0.84623,1.88808 1.88989,1.88989 l 15.11796,0.002 9e-5,1.88807 c 9e-5,1.04176 0.84617,1.88783 1.88988,1.88988 h 15.11806 c 1.04371,-0.002 1.88979,-0.84813 1.88988,-1.88988 z"
       inkscape:label="SW19"
       sodipodi:nodetypes="ccccccccccccccccccccc" />
    <path
       id="path664"
       style="display:inline;fill:none;stroke:#ff5900;stroke-opacity:1"
       d="m 62.01578,237.73795 c 1.043665,-0.002 1.889738,-0.84813 1.88973,-1.88988 l -10e-6,-1.88807 15.118115,-0.002 c 1.043708,-0.002 1.889788,-0.84789 1.889785,-1.88989 v -49.13693 c -2e-6,-1.04231 -0.846081,-1.88838 -1.889785,-1.88988 L 63.9055,181.04 l 10e-6,-1.88838 c 1.3e-5,-1.04208 -0.846061,-1.88816 -1.88973,-1.88989 H 46.897625 c -1.043668,0.002 -1.889748,0.84781 -1.889735,1.88989 l 10e-6,1.88838 -15.118115,0.001 c -1.0437,0.001 -1.889773,0.84758 -1.88978,1.88988 v 49.13693 c 2e-6,1.042 0.846076,1.88808 1.88978,1.88989 l 15.118115,0.002 -10e-6,1.88807 c -8e-6,1.04176 0.846071,1.88783 1.889735,1.88988 z"
       inkscape:label="SW18"
       sodipodi:nodetypes="ccccccccccccccccccccc" />
    <path
       id="path684"
       style="display:inline;fill:none;stroke:#ff5900;stroke-opacity:1"
       d="m 153.90561,235.84807 9e-5,-1.88807 15.11797,-0.002 c 1.04365,-0.002 1.88973,-0.84789 1.88988,-1.88989 v -49.13692 c -1.5e-4,-1.04232 -0.84623,-1.88839 -1.88988,-1.88988 l -15.11797,-0.002 -9e-5,-1.88839 c -9e-5,-1.04207 -0.84616,-1.88815 -1.88988,-1.88988 h -15.11806 c -1.04371,0.002 -1.88979,0.84781 -1.88988,1.88988 l -9e-5,1.88839 -15.11796,0.002 c -1.04365,10e-4 -1.88973,0.84757 -1.88988,1.88988 v 49.13692 c 1.5e-4,1.042 0.84622,1.88808 1.88988,1.88989 l 15.11796,0.002 9e-5,1.88807 c 9e-5,1.04176 0.84617,1.88783 1.88988,1.88988 h 15.11806 c 1.04371,-0.002 1.88979,-0.84813 1.88988,-1.88988 z"
       inkscape:label="SW17"
       sodipodi:nodetypes="ccccccccccccccccccccc" />
    <path
       id="path544"
       style="display:inline;fill:none;stroke:#ff5900;stroke-opacity:1"
       d="m 225.90561,217.84807 9e-5,-1.88807 15.11796,-0.002 c 1.04366,-0.002 1.88974,-0.84789 1.88989,-1.88989 v -49.13692 c -1.5e-4,-1.04232 -0.84623,-1.88839 -1.88989,-1.88988 l -15.11796,-0.002 -9e-5,-1.88839 c -9e-5,-1.04207 -0.84616,-1.88815 -1.88988,-1.88988 h -15.11805 c -1.04372,0.002 -1.8898,0.84781 -1.88989,1.88988 l -9e-5,1.88839 -15.11797,0.002 c -1.04364,10e-4 -1.88972,0.84757 -1.88987,1.88988 v 49.13692 c 1.5e-4,1.042 0.84622,1.88808 1.88987,1.88989 l 15.11797,0.002 9e-5,1.88807 c 9e-5,1.04176 0.84617,1.88783 1.88989,1.88988 h 15.11805 c 1.04371,-0.002 1.88979,-0.84813 1.88988,-1.88988 z"
       inkscape:label="SW16"
       sodipodi:nodetypes="ccccccccccccccccccccc" />
    <path
       id="path504"
       style="display:inline;fill:none;stroke:#ff5900;stroke-opacity:1"
       d="m 297.90561,208.84807 9e-5,-1.88807 15.11797,-0.002 c 1.04365,-0.002 1.88973,-0.84789 1.88988,-1.88989 v -49.13692 c -1.5e-4,-1.04232 -0.84623,-1.88839 -1.88988,-1.88988 l -15.11797,-0.002 -9e-5,-1.88839 c -9e-5,-1.04207 -0.84616,-1.88815 -1.88988,-1.88988 h -15.11805 c -1.04372,0.002 -1.8898,0.84781 -1.88989,1.88988 l -9e-5,1.88839 -15.11796,0.002 c -1.04365,10e-4 -1.88973,0.84757 -1.88988,1.88988 v 49.13692 c 1.5e-4,1.042 0.84622,1.88808 1.88988,1.88989 l 15.11796,0.002 9e-5,1.88807 c 9e-5,1.04176 0.84617,1.88783 1.88989,1.88988 h 15.11805 c 1.04371,-0.002 1.88979,-0.84813 1.88988,-1.88988 z"
       inkscape:label="SW15"
       sodipodi:nodetypes="ccccccccccccccccccccc" />
    <path
       id="path564"
       style="display:inline;fill:none;stroke:#ff5900;stroke-opacity:1"
       d="m 369.90561,217.84807 9e-5,-1.88807 15.11796,-0.002 c 1.04366,-0.002 1.88974,-0.84789 1.88989,-1.88989 v -49.13692 c -1.5e-4,-1.04232 -0.84623,-1.88839 -1.88989,-1.88988 l -15.11796,-0.002 -9e-5,-1.88839 c -9e-5,-1.04207 -0.84616,-1.88815 -1.88988,-1.88988 h -15.11805 c -1.04372,0.002 -1.8898,0.84781 -1.88989,1.88988 l -9e-5,1.88839 -15.11797,0.002 c -1.04364,10e-4 -1.88972,0.84757 -1.88987,1.88988 v 49.13692 c 1.5e-4,1.042 0.84622,1.88808 1.88987,1.88989 l 15.11797,0.002 9e-5,1.88807 c 9e-5,1.04176 0.84617,1.88783 1.88989,1.88988 h 15.11805 c 1.04371,-0.002 1.88979,-0.84813 1.88988,-1.88988 z"
       inkscape:label="SW14"
       sodipodi:nodetypes="ccccccccccccccccccccc" />
    <path
       id="path624"
       style="display:inline;fill:none;stroke:#ff5900;stroke-opacity:1"
       d="m 441.90561,226.84807 9e-5,-1.88807 15.11796,-0.002 c 1.04366,-0.002 1.88974,-0.84789 1.88989,-1.88989 v -49.13692 c -1.5e-4,-1.04232 -0.84623,-1.88839 -1.88989,-1.88988 l -15.11796,-0.002 -9e-5,-1.88839 c -9e-5,-1.04207 -0.84616,-1.88815 -1.88988,-1.88988 h -15.11805 c -1.04372,0.002 -1.8898,0.84781 -1.88989,1.88988 l -9e-5,1.88839 -15.11797,0.002 c -1.04364,10e-4 -1.88972,0.84757 -1.88988,1.88988 v 49.13692 c 1.6e-4,1.042 0.84623,1.88808 1.88988,1.88989 l 15.11797,0.002 9e-5,1.88807 c 9e-5,1.04176 0.84617,1.88783 1.88989,1.88988 h 15.11805 c 1.04371,-0.002 1.88979,-0.84813 1.88988,-1.88988 z"
       inkscape:label="SW13"
       sodipodi:nodetypes="ccccccccccccccccccccc" />
    <path
       id="path424-1"
       style="display:inline;fill:none;stroke:#ff5900;stroke-opacity:1"
       d="m 62.01578,165.73795 c 1.043665,-0.002 1.889738,-0.84813 1.88973,-1.88988 l -10e-6,-1.88807 15.118115,-0.002 c 1.043708,-0.002 1.889788,-0.84789 1.889785,-1.88989 v -49.13693 c -2e-6,-1.04231 -0.846081,-1.88838 -1.889785,-1.88988 L 63.9055,109.04 l 10e-6,-1.88839 c 1.3e-5,-1.04207 -0.846061,-1.88815 -1.88973,-1.88988 H 46.897625 c -1.043668,0.002 -1.889748,0.84781 -1.889735,1.88988 l 10e-6,1.88839 -15.118115,10e-4 c -1.0437,0.002 -1.889773,0.84758 -1.88978,1.88988 v 49.13693 c 2e-6,1.042 0.846076,1.88808 1.88978,1.88989 l 15.118115,0.002 -10e-6,1.88807 c -8e-6,1.04176 0.846071,1.88783 1.889735,1.88988 z"
       inkscape:label="SW12"
       sodipodi:nodetypes="ccccccccccccccccccccc" />
    <path
       id="path444"
       style="display:inline;fill:none;stroke:#ff5900;stroke-opacity:1"
       d="m 153.90561,163.84807 9e-5,-1.88807 15.11797,-0.002 c 1.04365,-0.002 1.88973,-0.84789 1.88988,-1.88989 v -49.13693 c -1.5e-4,-1.04231 -0.84623,-1.88838 -1.88988,-1.88988 l -15.11797,-0.001 -9e-5,-1.88838 c -9e-5,-1.04208 -0.84616,-1.88816 -1.88988,-1.88989 h -15.11806 c -1.04371,0.002 -1.88979,0.84781 -1.88988,1.88989 l -9e-5,1.88838 -15.11796,0.001 c -1.04365,0.002 -1.88973,0.84758 -1.88988,1.88988 v 49.13693 c 1.5e-4,1.042 0.84622,1.88808 1.88988,1.88989 l 15.11796,0.002 9e-5,1.88807 c 9e-5,1.04176 0.84617,1.88783 1.88988,1.88988 h 15.11806 c 1.04371,-0.002 1.88979,-0.84813 1.88988,-1.88988 z"
       inkscape:label="SW11"
       sodipodi:nodetypes="ccccccccccccccccccccc" />
    <path
       id="path304"
       style="display:inline;fill:none;stroke:#ff5900;stroke-opacity:1"
       d="m 225.90561,145.84807 9e-5,-1.88807 15.11796,-0.002 c 1.04366,-0.002 1.88974,-0.84789 1.88989,-1.88989 V 92.931375 c -1.5e-4,-1.042314 -0.84623,-1.888388 -1.88989,-1.88988 L 225.9057,91.04 l -9e-5,-1.888385 c -9e-5,-1.042074 -0.84616,-1.888153 -1.88988,-1.889885 h -15.11805 c -1.04372,0.0017 -1.8898,0.847807 -1.88989,1.889885 l -9e-5,1.888385 -15.11797,0.0015 c -1.04364,0.0015 -1.88972,0.84757 -1.88987,1.88988 v 49.13692 c 1.5e-4,1.042 0.84622,1.88808 1.88987,1.88989 l 15.11797,0.002 9e-5,1.88807 c 9e-5,1.04176 0.84617,1.88783 1.88989,1.88988 h 15.11805 c 1.04371,-0.002 1.88979,-0.84813 1.88988,-1.88988 z"
       inkscape:label="SW10"
       sodipodi:nodetypes="ccccccccccccccccccccc" />
    <path
       id="path264-4"
       style="display:inline;fill:none;stroke:#ff5900;stroke-opacity:1"
       d="m 297.90561,136.84807 9e-5,-1.88807 15.11797,-0.002 c 1.04365,-0.002 1.88973,-0.84789 1.88988,-1.88989 V 83.931375 c -1.5e-4,-1.042314 -0.84623,-1.888388 -1.88988,-1.88988 L 297.9057,82.04 l -9e-5,-1.888385 c -9e-5,-1.042074 -0.84616,-1.888153 -1.88988,-1.889885 h -15.11806 c -1.04371,0.0017 -1.88979,0.847807 -1.88988,1.889885 l -9e-5,1.888385 -15.11796,0.0015 c -1.04365,0.0015 -1.88973,0.84757 -1.88988,1.88988 v 49.13692 c 1.5e-4,1.042 0.84622,1.88808 1.88988,1.88989 l 15.11796,0.002 9e-5,1.88807 c 9e-5,1.04176 0.84617,1.88783 1.88988,1.88988 h 15.11806 c 1.04371,-0.002 1.88979,-0.84813 1.88988,-1.88988 z"
       inkscape:label="SW9"
       sodipodi:nodetypes="ccccccccccccccccccccc" />
    <path
       id="path324"
       style="display:inline;fill:none;stroke:#ff5900;stroke-opacity:1"
       d="m 369.90561,145.84807 9e-5,-1.88807 15.11796,-0.002 c 1.04366,-0.002 1.88974,-0.84789 1.88989,-1.88989 V 92.931375 c -1.5e-4,-1.042314 -0.84623,-1.888388 -1.88989,-1.88988 L 369.9057,91.04 l -9e-5,-1.888385 c -9e-5,-1.042074 -0.84616,-1.888153 -1.88988,-1.889885 h -15.11806 c -1.04371,0.0017 -1.88979,0.847807 -1.88988,1.889885 l -9e-5,1.888385 -15.11797,0.0015 c -1.04364,0.0015 -1.88972,0.84757 -1.88987,1.88988 v 49.13692 c 1.5e-4,1.042 0.84622,1.88808 1.88987,1.88989 l 15.11797,0.002 9e-5,1.88807 c 9e-5,1.04176 0.84617,1.88783 1.88988,1.88988 h 15.11806 c 1.04371,-0.002 1.88979,-0.84813 1.88988,-1.88988 z"
       inkscape:label="SW8"
       sodipodi:nodetypes="ccccccccccccccccccccc" />
    <path
       id="path384-2"
       style="display:inline;fill:none;stroke:#ff5900;stroke-opacity:1"
       d="m 441.90561,154.84807 9e-5,-1.88807 15.11796,-0.002 c 1.04366,-0.002 1.88974,-0.84789 1.88989,-1.88989 v -49.13693 c -1.5e-4,-1.04231 -0.84623,-1.88838 -1.88989,-1.88988 l -15.11796,-0.001 -9e-5,-1.88838 c -9e-5,-1.042074 -0.84616,-1.888155 -1.88988,-1.889887 h -15.11805 c -1.04372,0.0017 -1.8898,0.847809 -1.88989,1.889887 l -9e-5,1.88838 -15.11797,0.001 c -1.04364,0.002 -1.88972,0.84758 -1.88988,1.88988 v 49.13693 c 1.6e-4,1.042 0.84623,1.88808 1.88988,1.88989 l 15.11797,0.002 9e-5,1.88807 c 9e-5,1.04176 0.84617,1.88783 1.88989,1.88988 h 15.11805 c 1.04371,-0.002 1.88979,-0.84813 1.88988,-1.88988 z"
       inkscape:label="SW7"
       sodipodi:nodetypes="ccccccccccccccccccccc" />
    <path
       id="path184"
       style="display:inline;fill:none;stroke:#ff5900;stroke-opacity:1"
       d="m 62.01578,93.73795 c 1.043665,-0.0021 1.889738,-0.848125 1.88973,-1.88988 L 63.9055,89.96 79.023615,89.95819 c 1.043708,-0.0018 1.889788,-0.847887 1.889785,-1.889885 v -49.13693 c -2e-6,-1.042314 -0.846081,-1.888388 -1.889785,-1.88988 L 63.9055,37.04 l 10e-6,-1.88839 c 8e-6,-1.042075 -0.846065,-1.888148 -1.88973,-1.88988 H 46.897625 c -1.043664,0.0017 -1.889743,0.847801 -1.889735,1.88988 l 10e-6,1.88839 -15.118115,0.0015 c -1.0437,0.0015 -1.889773,0.84757 -1.88978,1.88988 v 49.13693 c 2e-6,1.041994 0.846076,1.888073 1.88978,1.889885 L 45.0079,89.96 l -10e-6,1.88807 c -8e-6,1.041759 0.846071,1.887833 1.889735,1.88988 z"
       inkscape:label="SW6"
       sodipodi:nodetypes="ccccccccccccccccccccc" />
    <path
       id="path204-5"
       style="display:inline;fill:none;stroke:#ff5900;stroke-opacity:1"
       d="m 153.90561,91.84807 9e-5,-1.88807 15.11797,-0.0018 c 1.04365,-0.0018 1.88973,-0.847887 1.88988,-1.889885 v -49.13693 c -1.5e-4,-1.042314 -0.84623,-1.888388 -1.88988,-1.88988 L 153.9057,37.04 l -9e-5,-1.88839 c -9e-5,-1.042075 -0.84617,-1.888148 -1.88988,-1.88988 h -15.11806 c -1.04371,0.0017 -1.88979,0.847801 -1.88988,1.88988 l -9e-5,1.88839 -15.11797,0.0015 c -1.04364,0.0015 -1.88972,0.84757 -1.88988,1.88988 v 49.13693 c 1.6e-4,1.041994 0.84623,1.888073 1.88989,1.889885 l 15.11796,0.0018 9e-5,1.88807 c 9e-5,1.041759 0.84617,1.887833 1.88988,1.88988 h 15.11806 c 1.04371,-0.0021 1.88979,-0.848125 1.88988,-1.88988 z"
       inkscape:label="SW5"
       sodipodi:nodetypes="ccccccccccccccccccccc" />
    <path
       id="path64"
       style="display:inline;fill:none;stroke:#ff5900;stroke-opacity:1"
       d="m 225.90561,73.84807 9e-5,-1.88807 15.11796,-0.0018 c 1.04366,-0.0018 1.88974,-0.847887 1.88989,-1.889885 v -49.13693 c -1.5e-4,-1.042314 -0.84623,-1.888388 -1.88989,-1.88988 L 225.9057,19.04 l -9e-5,-1.88839 c -9e-5,-1.042075 -0.84617,-1.888148 -1.88988,-1.88988 h -15.11805 c -1.04372,0.0017 -1.8898,0.847801 -1.88989,1.88988 l -9e-5,1.88839 -15.11797,0.0015 c -1.04364,0.0015 -1.88972,0.84757 -1.88987,1.88988 v 49.13693 c 1.5e-4,1.041994 0.84622,1.888073 1.88987,1.889885 l 15.11797,0.0018 9e-5,1.88807 c 9e-5,1.041759 0.84617,1.887833 1.88989,1.88988 h 15.11805 c 1.04371,-0.0021 1.88979,-0.848125 1.88988,-1.88988 z"
       inkscape:label="SW4"
       sodipodi:nodetypes="ccccccccccccccccccccc" />
    <path
       id="path24-4"
       style="display:inline;fill:none;stroke:#ff5900;stroke-opacity:1"
       d="m 297.90561,64.84807 9e-5,-1.88807 15.11797,-0.0018 c 1.04365,-0.0018 1.88973,-0.847886 1.88988,-1.88988 V 11.93139 c -1.5e-4,-1.042314 -0.84623,-1.888388 -1.88988,-1.88988 L 297.9057,10.04 l -9e-5,-1.8883902 c -9e-5,-1.0420746 -0.84617,-1.8881476 -1.88988,-1.8898798 h -15.11806 c -1.04371,0.00173 -1.88979,0.8478013 -1.88988,1.8898798 l -9e-5,1.8883902 -15.11796,0.0015 c -1.04365,0.0015 -1.88973,0.84757 -1.88988,1.88988 v 49.13693 c 1.5e-4,1.04199 0.84623,1.888063 1.88988,1.88988 l 15.11796,0.0018 9e-5,1.88807 c 9e-5,1.041759 0.84617,1.887833 1.88988,1.88988 h 15.11806 c 1.04371,-0.0021 1.88979,-0.848125 1.88988,-1.88988 z"
       inkscape:label="SW3"
       sodipodi:nodetypes="ccccccccccccccccccccc" />
    <path
       id="path84-4"
       style="display:inline;fill:none;stroke:#ff5900;stroke-opacity:1"
       d="m 369.90561,73.84807 9e-5,-1.88807 15.11796,-0.0018 c 1.04366,-0.0018 1.88974,-0.847887 1.88989,-1.889885 v -49.13693 c -1.5e-4,-1.042314 -0.84623,-1.888388 -1.88989,-1.88988 L 369.9057,19.04 l -9e-5,-1.88839 c -9e-5,-1.042075 -0.84617,-1.888148 -1.88988,-1.88988 h -15.11806 c -1.04371,0.0017 -1.88979,0.847801 -1.88988,1.88988 l -9e-5,1.88839 -15.11797,0.0015 c -1.04364,0.0015 -1.88972,0.84757 -1.88987,1.88988 v 49.13693 c 1.5e-4,1.041994 0.84622,1.888073 1.88987,1.889885 l 15.11797,0.0018 9e-5,1.88807 c 9e-5,1.041759 0.84617,1.887833 1.88988,1.88988 h 15.11806 c 1.04371,-0.0021 1.88979,-0.848125 1.88988,-1.88988 z"
       inkscape:label="SW2"
       sodipodi:nodetypes="ccccccccccccccccccccc" />
    <path
       id="path144"
       style="display:inline;fill:none;stroke:#ff5900;stroke-opacity:1"
       d="m 441.90561,82.84807 9e-5,-1.88807 15.11796,-0.0018 c 1.04366,-0.0018 1.88974,-0.847887 1.88989,-1.889885 v -49.13693 c -1.5e-4,-1.042314 -0.84623,-1.888388 -1.88989,-1.88988 L 441.9057,28.04 l -9e-5,-1.88839 c -9e-5,-1.042075 -0.84617,-1.888148 -1.88988,-1.88988 h -15.11805 c -1.04372,0.0017 -1.8898,0.847801 -1.88989,1.88988 l -9e-5,1.88839 -15.11797,0.0015 c -1.04364,0.0015 -1.88972,0.84757 -1.88988,1.88988 v 49.13693 c 1.6e-4,1.041994 0.84623,1.888073 1.88988,1.889885 l 15.11797,0.0018 9e-5,1.88807 c 9e-5,1.041759 0.84617,1.887833 1.88989,1.88988 h 15.11805 c 1.04371,-0.0021 1.88979,-0.848125 1.88988,-1.88988 z"
       inkscape:label="SW1"
       sodipodi:nodetypes="ccccccccccccccccccccc" />
  </g>
  <g
     inkscape:groupmode="layer"
     id="layer11"
     inkscape:label="Mounting Holes"
     inkscape:highlight-color="#000000"
     style="display:inline;stroke:#000000;stroke-opacity:1"
     transform="translate(-0.00937429)">
    <g
       id="g652"
       inkscape:label="Plate"
       style="display:inline"
       transform="translate(-1.4142136,-0.70710679)">
      <circle
         cx="-105.91815"
         cy="168.33612"
         r="4.1574802"
         id="circle29"
         transform="scale(-1,1)"
         style="fill:#000000;fill-opacity:0;stroke:#000000;stroke-width:0.377953;stroke-linecap:round;stroke-linejoin:round;stroke-opacity:1" />
      <circle
         cx="-105.91815"
         cy="33.400021"
         r="4.1574802"
         id="circle29-0"
         transform="scale(-1,1)"
         style="display:inline;fill:#000000;fill-opacity:0;stroke:#000000;stroke-width:0.377953;stroke-linecap:round;stroke-linejoin:round;stroke-opacity:1" />
      <circle
         cx="-105.91815"
         cy="325.5575"
         r="4.1574802"
         id="circle30"
         transform="scale(-1,1)"
         style="fill:#000000;fill-opacity:0;stroke:#000000;stroke-width:0.377953;stroke-linecap:round;stroke-linejoin:round;stroke-opacity:1" />
      <circle
         cx="-401.3028"
         cy="89.846458"
         r="4.1574802"
         id="circle31"
         transform="scale(-1,1)"
         style="fill:#000000;fill-opacity:0;stroke:#000000;stroke-width:0.377953;stroke-linecap:round;stroke-linejoin:round;stroke-opacity:1" />
      <circle
         cx="-401.87158"
         cy="305.82492"
         r="4.1574802"
         id="circle31-3"
         transform="scale(-1,1)"
         style="display:inline;fill:#000000;fill-opacity:0;stroke:#000000;stroke-width:0.377953;stroke-linecap:round;stroke-linejoin:round;stroke-opacity:1" />
      <circle
         cx="-330.1575"
         cy="225.50137"
         r="4.1574802"
         id="circle32"
         transform="scale(-1,1)"
         style="fill:#000000;fill-opacity:0;stroke:#000000;stroke-width:0.377953;stroke-linecap:round;stroke-linejoin:round;stroke-opacity:1" />
      <circle
         cx="-350.20255"
         cy="402.94443"
         r="4.1574802"
         id="circle32-4"
         transform="scale(-1,1)"
         style="display:inline;fill:#000000;fill-opacity:0;stroke:#000000;stroke-width:0.377953;stroke-linecap:round;stroke-linejoin:round;stroke-opacity:1" />
      <circle
         cx="-404.83887"
         cy="16.164469"
         r="4.1574802"
         id="circle32-0"
         transform="scale(-1,1)"
         style="display:inline;fill:#000000;fill-opacity:0;stroke:#000000;stroke-width:0.377953;stroke-linecap:round;stroke-linejoin:round;stroke-opacity:1" />
      <circle
         cx="-532.94507"
         cy="318.70547"
         r="4.1574802"
         id="circle37"
         style="fill:#000000;fill-opacity:0;stroke:#000000;stroke-width:0.377953;stroke-linecap:round;stroke-linejoin:round;stroke-opacity:1"
         transform="scale(-1,1)" />
    </g>
  </g>
  <g
     inkscape:groupmode="layer"
     id="layer1"
     inkscape:label="Border"
     transform="translate(18.888264,18.897638)"
     style="display:inline"
     inkscape:highlight-color="#000000">
    <path
       style="display:inline;fill:none;stroke:#000000;stroke-width:0.377953;stroke-linecap:butt;stroke-linejoin:round;stroke-dasharray:none;stroke-opacity:1"
       d="m -10.715619,311.20589 190.490059,55.40887 161.20222,59.5201 155.06162,73.99828 a 13.349289,13.349289 160.30869 0 0 17.8375,-6.3837 L 576.87092,359.30616 A 11.955091,11.955091 87.698851 0 0 576.429,348.30891 l -29.67069,-52.00067 a 35.987782,35.987782 75.105929 0 1 -4.73023,-17.78488 l -0.11905,-85.47858 a 5.6456073,5.6456073 44.9601 0 0 -5.6456,-5.63774 l -72.29486,0 a 6.6457269,6.6457269 45 0 1 -6.64573,-6.64573 V -8.8953532 a 5.7990175,5.7990175 45.807863 0 0 -5.63551,-5.7967118 l -142.39599,-4.016597 h -68.5 L -11.16112,9.6906035 a 8.488998,8.488998 131.74909 0 0 -7.538161,8.4460655 l 0.349437,282.911051 a 10.592799,10.592799 53.073823 0 0 7.634225,10.15817 z"
       id="path505"
       sodipodi:nodetypes="ccccccccccccc"
       inkscape:label="keyplate outline"
       inkscape:path-effect="#path-effect657"
       inkscape:original-d="m -18.340036,308.98813 198.114476,57.62663 161.20222,59.5201 167.19488,79.7885 71.32951,-152.23039 -37.45971,-65.65165 -0.14016,-100.63428 H 457.32284 V -14.533103 l -148.0315,-4.175559 h -68.5 l -259.500002,29.25 z" />
  </g>
</svg>
