<?xml version="1.0" encoding="UTF-8" standalone="no"?>
<svg
   version="1.1"
   width="419.9890mm"
   height="297.0022mm"
   viewBox="0.0000 0.0000 419.9890 297.0022"
   id="svg2"
   sodipodi:docname="amoeba-stabilizer-2-User_4.svg"
   inkscape:version="1.4.2 (f4327f4, 2025-05-13)"
   xmlns:inkscape="http://www.inkscape.org/namespaces/inkscape"
   xmlns:sodipodi="http://sodipodi.sourceforge.net/DTD/sodipodi-0.dtd"
   xmlns="http://www.w3.org/2000/svg"
   xmlns:svg="http://www.w3.org/2000/svg">
  <defs
     id="defs2" />
  <sodipodi:namedview
     id="namedview2"
     pagecolor="#ffffff"
     bordercolor="#000000"
     borderopacity="0.25"
     inkscape:showpageshadow="2"
     inkscape:pageopacity="0.0"
     inkscape:pagecheckerboard="0"
     inkscape:deskcolor="#d1d1d1"
     inkscape:document-units="mm"
     inkscape:zoom="6.4675447"
     inkscape:cx="919.82356"
     inkscape:cy="379.81956"
     inkscape:window-width="3840"
     inkscape:window-height="2054"
     inkscape:window-x="-11"
     inkscape:window-y="-11"
     inkscape:window-maximized="1"
     inkscape:current-layer="svg2" />
  <title
     id="title1">SVG Image created as amoeba-stabilizer-2-User_4.svg date 2026/01/16 18:37:41 </title>
  <desc
     id="desc1">Image generated by PCBNEW </desc>
  <g
     style="fill:#000000;fill-opacity:1;stroke:#000000;stroke-opacity:1;stroke-linecap:round;stroke-linejoin:round"
     transform="translate(0 0) scale(1 1)"
     id="g2"
     inkscape:label="SW26">
    <path
       style="fill:none;stroke:#000000;stroke-width:0.1;stroke-opacity:1;stroke-linecap:round;stroke-linejoin:round"
       d="M 235.4580,103.5050 235.4585,103.5594 235.4662,103.6680 235.4817,103.7757 235.5049,103.8820 235.5355,103.9864 235.5735,104.0884 235.6188,104.1874 235.6709,104.2829 235.7297,104.3745 235.7950,104.4616 235.8662,104.5438 235.9432,104.6208 236.0254,104.6920 236.1125,104.7573 236.2041,104.8161 236.2996,104.8682 236.3986,104.9135 236.5006,104.9515 236.6050,104.9821 236.7113,105.0053 236.8190,105.0208 236.9276,105.0285 236.9820,105.0290 237.0364,105.0285 237.1450,105.0208 237.2527,105.0053 237.3590,104.9821 237.4634,104.9515 237.5654,104.9135 237.6644,104.8682 237.7599,104.8161 237.8515,104.7573 237.9386,104.6920 238.0208,104.6208 238.0978,104.5438 238.1690,104.4616 238.2343,104.3745 238.2931,104.2829 238.3452,104.1874 238.3905,104.0884 238.4285,103.9864 238.4591,103.8820 238.4823,103.7757 238.4978,103.6680 238.5055,103.5594 238.5060,103.5050 238.5060,102.1080 240.5380,102.1080 240.5713,102.1084 240.6374,102.1154 240.7025,102.1292 240.7657,102.1497 240.8265,102.1768 240.8841,102.2100 240.9379,102.2491 240.9873,102.2937 241.0319,102.3431 241.0709,102.3969 241.1042,102.4545 241.1313,102.5153 241.1518,102.5785 241.1656,102.6436 241.1726,102.7097 241.1730,102.7430 241.1734,102.7763 241.1804,102.8424 241.1942,102.9075 241.2147,102.9707 241.2418,103.0315 241.2750,103.0891 241.3141,103.1429 241.3587,103.1923 241.4081,103.2369 241.4619,103.2759 241.5195,103.3092 241.5803,103.3363 241.6435,103.3568 241.7086,103.3706 241.7747,103.3776 241.8080,103.3780 256.0320,103.3780 256.0653,103.3776 256.1314,103.3706 256.1965,103.3568 256.2597,103.3363 256.3205,103.3092 256.3781,103.2759 256.4319,103.2369 256.4813,103.1923 256.5259,103.1429 256.5650,103.0891 256.5982,103.0315 256.6253,102.9707 256.6458,102.9075 256.6596,102.8424 256.6666,102.7763 256.6670,102.7430 256.6674,102.7097 256.6744,102.6436 256.6882,102.5785 256.7087,102.5153 256.7358,102.4545 256.7690,102.3969 256.8081,102.3431 256.8527,102.2937 256.9021,102.2491 256.9559,102.2100 257.0135,102.1768 257.0743,102.1497 257.1375,102.1292 257.2026,102.1154 257.2687,102.1084 257.3020,102.1080 259.3340,102.1080 259.3340,103.5050 259.3345,103.5594 259.3422,103.6680 259.3577,103.7757 259.3809,103.8820 259.4115,103.9864 259.4495,104.0884 259.4948,104.1874 259.5469,104.2829 259.6057,104.3745 259.6710,104.4616 259.7422,104.5438 259.8192,104.6208 259.9014,104.6920 259.9885,104.7573 260.0801,104.8161 260.1756,104.8682 260.2746,104.9135 260.3766,104.9515 260.4810,104.9821 260.5873,105.0053 260.6950,105.0208 260.8036,105.0285 260.8580,105.0290 260.9124,105.0285 261.0210,105.0208 261.1287,105.0053 261.2350,104.9821 261.3394,104.9515 261.4414,104.9135 261.5404,104.8682 261.6359,104.8161 261.7275,104.7573 261.8146,104.6920 261.8968,104.6208 261.9738,104.5438 262.0450,104.4616 262.1103,104.3745 262.1691,104.2829 262.2212,104.1874 262.2665,104.0884 262.3045,103.9864 262.3351,103.8820 262.3583,103.7757 262.3738,103.6680 262.3815,103.5594 262.3820,103.5050 262.3820,102.1080 264.0330,102.1080 264.0829,102.1085 264.1823,102.1163 264.2809,102.1319 264.3779,102.1552 264.4727,102.1860 264.5649,102.2242 264.6538,102.2695 264.7389,102.3216 264.8196,102.3802 264.8954,102.4450 264.9660,102.5156 265.0308,102.5914 265.0894,102.6721 265.1415,102.7572 265.1868,102.8461 265.2250,102.9383 265.2558,103.0331 265.2791,103.1301 265.2947,103.2287 265.3025,103.3281 265.3030,103.3780 265.3035,103.4253 265.3113,103.5194 265.3268,103.6127 265.3500,103.7043 265.3807,103.7937 265.4187,103.8802 265.4637,103.9633 265.5154,104.0425 265.5734,104.1170 265.6374,104.1866 265.7070,104.2506 265.7815,104.3086 265.8607,104.3603 265.9438,104.4053 266.0303,104.4433 266.1197,104.4740 266.2113,104.4972 266.3046,104.5127 266.3987,104.5205 266.4460,104.5210 266.4460,109.2200 266.3961,109.2205 266.2967,109.2283 266.1981,109.2439 266.1011,109.2672 266.0063,109.2980 265.9141,109.3362 265.8252,109.3815 265.7401,109.4336 265.6594,109.4922 265.5836,109.5570 265.5130,109.6276 265.4482,109.7034 265.3896,109.7841 265.3375,109.8692 265.2922,109.9581 265.2540,110.0503 265.2232,110.1451 265.1999,110.2421 265.1843,110.3407 265.1765,110.4401 265.1760,110.4900 265.1765,110.5399 265.1843,110.6393 265.1999,110.7379 265.2232,110.8349 265.2540,110.9297 265.2922,111.0219 265.3375,111.1108 265.3896,111.1959 265.4482,111.2766 265.5130,111.3524 265.5836,111.4230 265.6594,111.4878 265.7401,111.5464 265.8252,111.5985 265.9141,111.6438 266.0063,111.6820 266.1011,111.7128 266.1981,111.7361 266.2967,111.7517 266.3961,111.7595 266.4460,111.7600 266.4460,116.5860 266.4456,116.6271 266.4380,116.7089 266.4229,116.7897 266.4004,116.8687 266.3707,116.9453 266.3341,117.0188 266.2908,117.0887 266.2413,117.1543 266.1860,117.2150 266.1253,117.2703 266.0597,117.3198 265.9898,117.3631 265.9163,117.3997 265.8397,117.4294 265.7607,117.4519 265.6799,117.4670 265.5981,117.4746 265.5570,117.4750 265.5196,117.4754 265.4451,117.4828 265.3717,117.4974 265.3001,117.5191 265.2310,117.5477 265.1650,117.5830 265.1028,117.6246 265.0449,117.6720 264.9920,117.7249 264.9446,117.7828 264.9030,117.8450 264.8677,117.9110 264.8391,117.9801 264.8174,118.0517 264.8028,118.1251 264.7954,118.1996 264.7950,118.2370 264.7950,120.1420 264.7945,120.2152 264.7869,120.3613 264.7716,120.5068 264.7487,120.6513 264.7183,120.7944 264.6804,120.9357 264.6352,121.0748 264.5828,121.2114 264.5233,121.3451 264.4568,121.4754 264.3837,121.6021 264.3040,121.7248 264.2180,121.8432 264.1259,121.9569 264.0281,122.0656 263.9246,122.1690 263.8159,122.2669 263.7022,122.3590 263.5838,122.4450 263.4611,122.5247 263.3344,122.5978 263.2041,122.6643 263.0704,122.7238 262.9338,122.7762 262.7947,122.8214 262.6534,122.8593 262.5103,122.8897 262.3658,122.9126 262.2203,122.9279 262.0742,122.9355 262.0010,122.9360 258.9530,122.9360 258.8892,122.9355 258.7617,122.9275 258.6350,122.9115 258.5096,122.8876 258.3859,122.8558 258.2645,122.8164 258.1458,122.7693 258.0303,122.7150 257.9184,122.6535 257.8106,122.5851 257.7073,122.5100 257.6089,122.4286 257.5158,122.3412 257.4284,122.2481 257.3470,122.1497 257.2719,122.0464 257.2035,121.9386 257.1420,121.8267 257.0877,121.7112 257.0406,121.5925 257.0012,121.4711 256.9694,121.3474 256.9455,121.2220 256.9295,121.0953 256.9215,120.9678 256.9210,120.9040 256.9205,120.8541 256.9127,120.7547 256.8971,120.6561 256.8738,120.5591 256.8430,120.4643 256.8048,120.3721 256.7595,120.2832 256.7074,120.1981 256.6488,120.1174 256.5840,120.0416 256.5134,119.9710 256.4376,119.9062 256.3569,119.8476 256.2718,119.7955 256.1829,119.7502 256.0907,119.7120 255.9959,119.6812 255.8989,119.6579 255.8003,119.6423 255.7009,119.6345 255.6510,119.6340 242.0620,119.6340 242.0147,119.6345 241.9206,119.6423 241.8273,119.6578 241.7357,119.6810 241.6463,119.7117 241.5598,119.7497 241.4767,119.7947 241.3975,119.8464 241.3229,119.9044 241.2534,119.9684 241.1894,120.0379 241.1314,120.1125 241.0797,120.1917 241.0347,120.2748 240.9967,120.3613 240.9660,120.4507 240.9428,120.5423 240.9273,120.6356 240.9195,120.7297 240.9190,120.7770 240.9185,120.8422 240.9106,120.9724 240.8949,121.1019 240.8714,121.2302 240.8402,121.3569 240.8014,121.4814 240.7551,121.6034 240.7016,121.7224 240.6410,121.8379 240.5735,121.9495 240.4994,122.0569 240.4189,122.1595 240.3324,122.2572 240.2402,122.3494 240.1425,122.4359 240.0399,122.5164 239.9325,122.5905 239.8209,122.6580 239.7054,122.7186 239.5864,122.7721 239.4644,122.8184 239.3399,122.8572 239.2132,122.8884 239.0849,122.9119 238.9554,122.9276 238.8252,122.9355 238.7600,122.9360 235.8390,122.9360 235.7658,122.9355 235.6197,122.9279 235.4742,122.9126 235.3297,122.8897 235.1866,122.8593 235.0453,122.8214 234.9062,122.7762 234.7696,122.7238 234.6359,122.6643 234.5056,122.5978 234.3789,122.5247 234.2562,122.4450 234.1378,122.3590 234.0241,122.2669 233.9154,122.1690 233.8119,122.0656 233.7141,121.9569 233.6220,121.8432 233.5360,121.7248 233.4563,121.6021 233.3832,121.4754 233.3167,121.3451 233.2572,121.2114 233.2048,121.0748 233.1596,120.9357 233.1217,120.7944 233.0913,120.6513 233.0684,120.5068 233.0531,120.3613 233.0455,120.2152 233.0450,120.1420 233.0450,118.2370 233.0446,118.1996 233.0372,118.1251 233.0226,118.0517 233.0009,117.9801 232.9723,117.9110 232.9370,117.8450 232.8954,117.7828 232.8480,117.7249 232.7951,117.6720 232.7372,117.6246 232.6750,117.5830 232.6090,117.5477 232.5399,117.5191 232.4683,117.4974 232.3949,117.4828 232.3204,117.4754 232.2830,117.4750 232.2419,117.4746 232.1601,117.4670 232.0793,117.4519 232.0003,117.4294 231.9237,117.3997 231.8502,117.3631 231.7803,117.3198 231.7147,117.2703 231.6540,117.2150 231.5987,117.1543 231.5492,117.0887 231.5059,117.0188 231.4693,116.9453 231.4396,116.8687 231.4171,116.7897 231.4020,116.7089 231.3944,116.6271 231.3940,116.5860 231.3940,111.7600 231.4439,111.7595 231.5433,111.7517 231.6419,111.7361 231.7389,111.7128 231.8337,111.6820 231.9259,111.6438 232.0148,111.5985 232.0999,111.5464 232.1806,111.4878 232.2564,111.4230 232.3270,111.3524 232.3918,111.2766 232.4504,111.1959 232.5025,111.1108 232.5478,111.0219 232.5860,110.9297 232.6168,110.8349 232.6401,110.7379 232.6557,110.6393 232.6635,110.5399 232.6640,110.4900 232.6635,110.4401 232.6557,110.3407 232.6401,110.2421 232.6168,110.1451 232.5860,110.0503 232.5478,109.9581 232.5025,109.8692 232.4504,109.7841 232.3918,109.7034 232.3270,109.6276 232.2564,109.5570 232.1806,109.4922 232.0999,109.4336 232.0148,109.3815 231.9259,109.3362 231.8337,109.2980 231.7389,109.2672 231.6419,109.2439 231.5433,109.2283 231.4439,109.2205 231.3940,109.2200 231.3940,104.3940 231.4413,104.3935 231.5354,104.3857 231.6287,104.3702 231.7203,104.3470 231.8097,104.3163 231.8962,104.2783 231.9793,104.2333 232.0585,104.1816 232.1330,104.1236 232.2026,104.0596 232.2666,103.9900 232.3246,103.9155 232.3763,103.8363 232.4213,103.7532 232.4593,103.6667 232.4900,103.5773 232.5132,103.4857 232.5287,103.3924 232.5365,103.2983 232.5370,103.2510 232.5375,103.2037 232.5453,103.1096 232.5608,103.0163 232.5840,102.9247 232.6147,102.8353 232.6527,102.7488 232.6977,102.6657 232.7494,102.5865 232.8074,102.5119 232.8714,102.4424 232.9409,102.3784 233.0155,102.3204 233.0947,102.2687 233.1778,102.2237 233.2643,102.1857 233.3537,102.1550 233.4453,102.1318 233.5386,102.1163 233.6327,102.1085 233.6800,102.1080 235.4580,102.1080 Z"
       id="path1"
       inkscape:label="pcb" />
    <path
       style="fill:none;stroke:#000000;stroke-width:0.265;stroke-opacity:1;stroke-linecap:round;stroke-linejoin:round"
       d="M 241.9200,103.4900 255.9200,103.4900 255.9200,117.4900 241.9200,117.4900 Z"
       id="path2"
       inkscape:label="aligner" />
  </g>
</svg>
