<?xml version="1.0" encoding="UTF-8" standalone="no"?>
<svg
   version="1.1"
   width="419.9890mm"
   height="297.0022mm"
   viewBox="0.0000 0.0000 419.9890 297.0022"
   id="svg5"
   sodipodi:docname="amoeba-king-Cutouts.svg"
   inkscape:version="1.4.2 (f4327f4, 2025-05-13)"
   xmlns:inkscape="http://www.inkscape.org/namespaces/inkscape"
   xmlns:sodipodi="http://sodipodi.sourceforge.net/DTD/sodipodi-0.dtd"
   xmlns="http://www.w3.org/2000/svg"
   xmlns:svg="http://www.w3.org/2000/svg">
  <defs
     id="defs5" />
  <sodipodi:namedview
     id="namedview5"
     pagecolor="#ffffff"
     bordercolor="#000000"
     borderopacity="0.25"
     inkscape:showpageshadow="2"
     inkscape:pageopacity="0.0"
     inkscape:pagecheckerboard="0"
     inkscape:deskcolor="#d1d1d1"
     inkscape:document-units="mm"
     inkscape:zoom="12.935089"
     inkscape:cx="266.87099"
     inkscape:cy="630.33969"
     inkscape:window-width="3840"
     inkscape:window-height="2054"
     inkscape:window-x="-11"
     inkscape:window-y="-11"
     inkscape:window-maximized="1"
     inkscape:current-layer="svg5" />
  <title
     id="title1">SVG Image created as amoeba-king-Cutouts.svg date 2026/01/15 07:49:42 </title>
  <desc
     id="desc1">Image generated by PCBNEW </desc>
  <g
     id="g10"
     inkscape:label="SW">
    <g
       style="fill:none;  stroke:#000000; stroke-width:0.1000; stroke-opacity:1;  stroke-linecap:round; stroke-linejoin:round;"
       id="g5"
       inkscape:label="Borders">
      <path
         style="fill:none;stroke:#ec2ed9;stroke-width:0.265;stroke-opacity:1;stroke-linecap:round;stroke-linejoin:round;stroke-dasharray:none"
         d="M 82.4380,175.6560 68.4380,175.6560 68.4380,161.6560 82.4380,161.6560 Z"
         id="path1"
         inkscape:label="switch" />
      <path
         style="fill:none;  stroke:#000000; stroke-width:0.1000; stroke-opacity:1;  stroke-linecap:round; stroke-linejoin:round;fill:none"
         d="M 73.1450,159.1310 73.1455,159.1809 73.1533,159.2803 73.1689,159.3789 73.1922,159.4759 73.2230,159.5707 73.2612,159.6629 73.3065,159.7518 73.3586,159.8368 73.4173,159.9176 73.4821,159.9934 73.5526,160.0639 73.6284,160.1287 73.7092,160.1874 73.7942,160.2395 73.8831,160.2848 73.9753,160.3230 74.0701,160.3538 74.1671,160.3771 74.2657,160.3927 74.3651,160.4005 74.4649,160.4005 74.5643,160.3927 74.6629,160.3771 74.7599,160.3538 74.8547,160.3230 74.9469,160.2848 75.0358,160.2395 75.1208,160.1874 75.2016,160.1287 75.2774,160.0639 75.3479,159.9934 75.4127,159.9176 75.4714,159.8368 75.5235,159.7518 75.5688,159.6629 75.6070,159.5707 75.6378,159.4759 75.6611,159.3789 75.6767,159.2803 75.6845,159.1809 75.6850,159.1310 80.5180,159.1310 80.5536,159.1315 80.6244,159.1395 80.6939,159.1553 80.7612,159.1789 80.8254,159.2098 80.8857,159.2477 80.9415,159.2921 80.9919,159.3425 81.0363,159.3983 81.0742,159.4586 81.1051,159.5228 81.1287,159.5901 81.1445,159.6595 81.1525,159.7304 81.1530,159.7660 81.1535,159.8016 81.1615,159.8724 81.1773,159.9419 81.2009,160.0092 81.2318,160.0734 81.2697,160.1337 81.3141,160.1895 81.3645,160.2399 81.4203,160.2843 81.4806,160.3222 81.5448,160.3531 81.6121,160.3767 81.6816,160.3925 81.7524,160.4005 81.7880,160.4010 83.0580,160.4010 83.0936,160.4015 83.1645,160.4095 83.2339,160.4253 83.3012,160.4489 83.3654,160.4798 83.4257,160.5177 83.4815,160.5621 83.5319,160.6125 83.5763,160.6683 83.6142,160.7286 83.6451,160.7928 83.6687,160.8601 83.6845,160.9296 83.6925,161.0004 83.6930,161.0360 83.6930,163.5760 83.6935,163.6116 83.7015,163.6824 83.7173,163.7519 83.7409,163.8192 83.7718,163.8834 83.8097,163.9437 83.8541,163.9995 83.9045,164.0499 83.9603,164.0943 84.0206,164.1322 84.0848,164.1631 84.1521,164.1867 84.2215,164.2025 84.2924,164.2105 84.3280,164.2110 84.3636,164.2115 84.4344,164.2195 84.5039,164.2353 84.5712,164.2589 84.6354,164.2898 84.6957,164.3277 84.7515,164.3721 84.8019,164.4225 84.8463,164.4783 84.8842,164.5386 84.9151,164.6028 84.9387,164.6701 84.9545,164.7395 84.9625,164.8104 84.9630,164.8460 84.9630,167.3860 84.9131,167.3865 84.8137,167.3943 84.7151,167.4099 84.6181,167.4332 84.5233,167.4640 84.4311,167.5022 84.3422,167.5475 84.2572,167.5996 84.1764,167.6583 84.1006,167.7231 84.0301,167.7936 83.9653,167.8694 83.9066,167.9502 83.8545,168.0352 83.8092,168.1241 83.7710,168.2163 83.7402,168.3111 83.7169,168.4081 83.7013,168.5067 83.6935,168.6061 83.6935,168.7059 83.7013,168.8053 83.7169,168.9039 83.7402,169.0009 83.7710,169.0957 83.8092,169.1879 83.8545,169.2768 83.9066,169.3618 83.9653,169.4426 84.0301,169.5184 84.1006,169.5889 84.1764,169.6537 84.2572,169.7124 84.3422,169.7645 84.4311,169.8098 84.5233,169.8480 84.6181,169.8788 84.7151,169.9021 84.8137,169.9177 84.9131,169.9255 84.9630,169.9260 84.9630,172.4660 84.9625,172.5016 84.9545,172.5725 84.9387,172.6419 84.9151,172.7092 84.8842,172.7734 84.8463,172.8337 84.8019,172.8895 84.7515,172.9399 84.6957,172.9843 84.6354,173.0222 84.5712,173.0531 84.5039,173.0767 84.4344,173.0925 84.3636,173.1005 84.3280,173.1010 84.2924,173.1015 84.2215,173.1095 84.1521,173.1253 84.0848,173.1489 84.0206,173.1798 83.9603,173.2177 83.9045,173.2621 83.8541,173.3125 83.8097,173.3683 83.7718,173.4286 83.7409,173.4928 83.7173,173.5601 83.7015,173.6295 83.6935,173.7004 83.6930,173.7360 83.6930,176.2760 83.6925,176.3116 83.6845,176.3825 83.6687,176.4519 83.6451,176.5192 83.6142,176.5834 83.5763,176.6437 83.5319,176.6995 83.4815,176.7499 83.4257,176.7943 83.3654,176.8322 83.3012,176.8631 83.2339,176.8867 83.1645,176.9025 83.0936,176.9105 83.0580,176.9110 81.7880,176.9110 81.7524,176.9115 81.6816,176.9195 81.6121,176.9353 81.5448,176.9589 81.4806,176.9898 81.4203,177.0277 81.3645,177.0721 81.3141,177.1225 81.2697,177.1783 81.2318,177.2386 81.2009,177.3028 81.1773,177.3701 81.1615,177.4395 81.1535,177.5104 81.1530,177.5460 81.1525,177.5816 81.1445,177.6524 81.1287,177.7219 81.1051,177.7892 81.0742,177.8534 81.0363,177.9137 80.9919,177.9695 80.9415,178.0199 80.8857,178.0643 80.8254,178.1022 80.7612,178.1331 80.6939,178.1567 80.6244,178.1725 80.5536,178.1805 80.5180,178.1810 75.6850,178.1810 75.6845,178.1311 75.6767,178.0317 75.6611,177.9331 75.6378,177.8361 75.6070,177.7413 75.5688,177.6491 75.5235,177.5602 75.4714,177.4752 75.4127,177.3944 75.3479,177.3186 75.2774,177.2481 75.2016,177.1833 75.1208,177.1246 75.0358,177.0725 74.9469,177.0272 74.8547,176.9890 74.7599,176.9582 74.6629,176.9349 74.5643,176.9193 74.4649,176.9115 74.3651,176.9115 74.2657,176.9193 74.1671,176.9349 74.0701,176.9582 73.9753,176.9890 73.8831,177.0272 73.7942,177.0725 73.7092,177.1246 73.6284,177.1833 73.5526,177.2481 73.4821,177.3186 73.4173,177.3944 73.3586,177.4752 73.3065,177.5602 73.2612,177.6491 73.2230,177.7413 73.1922,177.8361 73.1689,177.9331 73.1533,178.0317 73.1455,178.1311 73.1450,178.1810 70.3580,178.1810 70.3224,178.1805 70.2515,178.1725 70.1821,178.1567 70.1148,178.1331 70.0506,178.1022 69.9903,178.0643 69.9345,178.0199 69.8841,177.9695 69.8397,177.9137 69.8018,177.8534 69.7709,177.7892 69.7473,177.7219 69.7315,177.6524 69.7235,177.5816 69.7230,177.5460 69.7225,177.5104 69.7145,177.4395 69.6987,177.3701 69.6751,177.3028 69.6442,177.2386 69.6063,177.1783 69.5619,177.1225 69.5115,177.0721 69.4557,177.0277 69.3954,176.9898 69.3312,176.9589 69.2639,176.9353 69.1945,176.9195 69.1236,176.9115 69.0880,176.9110 67.8180,176.9110 67.7824,176.9105 67.7116,176.9025 67.6421,176.8867 67.5748,176.8631 67.5106,176.8322 67.4503,176.7943 67.3945,176.7499 67.3441,176.6995 67.2997,176.6437 67.2618,176.5834 67.2309,176.5192 67.2073,176.4519 67.1915,176.3825 67.1835,176.3116 67.1830,176.2760 67.1830,173.7360 67.1825,173.7004 67.1745,173.6295 67.1587,173.5601 67.1351,173.4928 67.1042,173.4286 67.0663,173.3683 67.0219,173.3125 66.9715,173.2621 66.9157,173.2177 66.8554,173.1798 66.7912,173.1489 66.7239,173.1253 66.6544,173.1095 66.5836,173.1015 66.5480,173.1010 66.5124,173.1005 66.4415,173.0925 66.3721,173.0767 66.3048,173.0531 66.2406,173.0222 66.1803,172.9843 66.1245,172.9399 66.0741,172.8895 66.0297,172.8337 65.9918,172.7734 65.9609,172.7092 65.9373,172.6419 65.9215,172.5725 65.9135,172.5016 65.9130,172.4660 65.9130,169.9260 65.9629,169.9255 66.0623,169.9177 66.1609,169.9021 66.2579,169.8788 66.3527,169.8480 66.4449,169.8098 66.5338,169.7645 66.6188,169.7124 66.6996,169.6537 66.7754,169.5889 66.8459,169.5184 66.9107,169.4426 66.9694,169.3618 67.0215,169.2768 67.0668,169.1879 67.1050,169.0957 67.1358,169.0009 67.1591,168.9039 67.1747,168.8053 67.1825,168.7059 67.1825,168.6061 67.1747,168.5067 67.1591,168.4081 67.1358,168.3111 67.1050,168.2163 67.0668,168.1241 67.0215,168.0352 66.9694,167.9502 66.9107,167.8694 66.8459,167.7936 66.7754,167.7231 66.6996,167.6583 66.6188,167.5996 66.5338,167.5475 66.4449,167.5022 66.3527,167.4640 66.2579,167.4332 66.1609,167.4099 66.0623,167.3943 65.9629,167.3865 65.9130,167.3860 65.9130,164.8460 65.9135,164.8104 65.9215,164.7395 65.9373,164.6701 65.9609,164.6028 65.9918,164.5386 66.0297,164.4783 66.0741,164.4225 66.1245,164.3721 66.1803,164.3277 66.2406,164.2898 66.3048,164.2589 66.3721,164.2353 66.4415,164.2195 66.5124,164.2115 66.5480,164.2110 66.5836,164.2105 66.6544,164.2025 66.7239,164.1867 66.7912,164.1631 66.8554,164.1322 66.9157,164.0943 66.9715,164.0499 67.0219,163.9995 67.0663,163.9437 67.1042,163.8834 67.1351,163.8192 67.1587,163.7519 67.1745,163.6824 67.1825,163.6116 67.1830,163.5760 67.1830,161.0360 67.1835,161.0004 67.1915,160.9296 67.2073,160.8601 67.2309,160.7928 67.2618,160.7286 67.2997,160.6683 67.3441,160.6125 67.3945,160.5621 67.4503,160.5177 67.5106,160.4798 67.5748,160.4489 67.6421,160.4253 67.7116,160.4095 67.7824,160.4015 67.8180,160.4010 69.0880,160.4010 69.1236,160.4005 69.1945,160.3925 69.2639,160.3767 69.3312,160.3531 69.3954,160.3222 69.4557,160.2843 69.5115,160.2399 69.5619,160.1895 69.6063,160.1337 69.6442,160.0734 69.6751,160.0092 69.6987,159.9419 69.7145,159.8724 69.7225,159.8016 69.7230,159.7660 69.7235,159.7304 69.7315,159.6595 69.7473,159.5901 69.7709,159.5228 69.8018,159.4586 69.8397,159.3983 69.8841,159.3425 69.9345,159.2921 69.9903,159.2477 70.0506,159.2098 70.1148,159.1789 70.1821,159.1553 70.2515,159.1395 70.3224,159.1315 70.3580,159.1310 Z"
         id="path5"
         inkscape:label="pcb" />
    </g>
    <g
       id="g9"
       style="fill:none;stroke:#000000;stroke-width:0.1;stroke-opacity:1;stroke-linecap:round;stroke-linejoin:round"
       inkscape:label="Cutouts">
      <circle
         cx="75.4380"
         cy="168.6560"
         r="2.0620"
         id="circle2"
         inkscape:label="peg" />
      <path
         style="fill:none;stroke:#000000;stroke-width:0.1;stroke-linecap:round;stroke-linejoin:round;stroke-opacity:1"
         d="m 81.573,169.906 h 2.565 v 2.6 h -2.565 v 1.15 l 0.0019,0.059 -0.0034,0.118 -0.0118,0.1175 -0.0199,0.1163 -0.028,0.1147 -0.0361,0.1124 -0.0438,0.1096 -0.0514,0.1063 -0.0587,0.1024 -0.0658,0.098 -0.0725,0.0932 -0.0788,0.0879 -0.0848,0.0821 -0.0904,0.076 -0.0955,0.0694 -0.1001,0.0626 -0.1042,0.0553 -0.1079,0.048 -0.111,0.0402 -0.1135,0.0324 -0.1155,0.0243 -0.117,0.0162 -0.1178,0.008 -0.059,3e-4 h -9.3 v -0.35 h -2.6 v -2.65 h 2.6 v -1.21 h 5.715 l 0.0572,-5e-4 0.1141,-0.008 0.1134,-0.0156 0.112,-0.0233 0.1102,-0.0308 0.1078,-0.0383 0.1049,-0.0456 0.1016,-0.0526 0.0977,-0.0595 0.0935,-0.066 0.0887,-0.0722 0.0836,-0.0781 0.0781,-0.0836 0.0722,-0.0887 0.066,-0.0935 0.0595,-0.0977 0.0526,-0.1016 0.0456,-0.1049 0.0383,-0.1078 0.0308,-0.1102 0.0233,-0.112 0.0156,-0.1134 0.0078,-0.1141 5e-4,-0.0572 h 3.595 z"
         id="path7"
         sodipodi:nodetypes="cccccccccccccccccccccccccccccccccccccccccccccccccccccccccccccc"
         inkscape:label="switch" />
      <path
         style="fill:none;  stroke:#000000; stroke-width:0.1000; stroke-opacity:1;  stroke-linecap:round; stroke-linejoin:round;fill:none"
         d="M 69.7297,171.2514 67.7097,171.2514 67.7097,166.8214 69.7297,166.8214 Z"
         id="path8"
         inkscape:label="diode" />
      <path
         style="fill:none;  stroke:#000000; stroke-width:0.1000; stroke-opacity:1;  stroke-linecap:round; stroke-linejoin:round;fill:none"
         d="M 77.1890,165.0865 73.6870,165.0865 73.6870,162.0655 77.1890,162.0655 Z"
         id="path9"
         inkscape:label="led" />
    </g>
  </g>
</svg>
