<?xml version="1.0" standalone="no"?>
 <!DOCTYPE svg PUBLIC "-//W3C//DTD SVG 1.1//EN" 
 "http://www.w3.org/Graphics/SVG/1.1/DTD/svg11.dtd"> 
<svg
  xmlns:svg="http://www.w3.org/2000/svg"
  xmlns="http://www.w3.org/2000/svg"
  xmlns:xlink="http://www.w3.org/1999/xlink"
  version="1.1"
  width="279.4000mm" height="215.9000mm" viewBox="0.0000 0.0000 279.4000 215.9000">
<title>SVG Image created as sofle_nest-bottom_plate_foam_rh.svg date 2025/12/28 20:41:24 </title>
  <desc>Image generated by PCBNEW </desc>
<g style="fill:#000000; fill-opacity:1.0000;stroke:#000000; stroke-opacity:1.0000;
stroke-linecap:round; stroke-linejoin:round;"
 transform="translate(0 0) scale(1 1)">
<path style="fill:none; 
stroke:#000000; stroke-width:0.1000; stroke-opacity:1; 
stroke-linecap:round; stroke-linejoin:round;fill:none"
d="M 224.5254,43.4451
224.7271,43.4968
224.9119,43.5815
225.0766,43.6956
225.2183,43.8356
225.3339,43.9978
225.4203,44.1787
225.4744,44.3746
225.4932,44.5819
225.5202,119.5000
187.5500,134.0000
138.2041,134.0000
93.9500,146.7500
93.4000,146.6500
92.9500,146.5000
92.6000,146.2000
82.3500,128.4000
82.2000,127.9000
82.1500,127.3000
82.1500,126.9000
82.2500,126.4000
88.0500,115.6500
88.2500,115.0500
88.3253,114.4000
88.3239,38.4774
88.3473,38.2453
88.4144,38.0290
88.5206,37.8333
88.6613,37.6628
88.8318,37.5222
89.0274,37.4159
89.2437,37.3488
89.4759,37.3254
149.2568,34.9515
171.2068,34.9515
Z" /> 
</g>
<g style="fill:none; 
stroke:#000000; stroke-width:0.0500; stroke-opacity:1; 
stroke-linecap:round; stroke-linejoin:round;">
<path d="M100.5947 110.9300
L99.4053 110.9300
" />
<path d="M100.5902 99.7384
L99.4009 99.7384
" />
<path d="M100.5842 109.2400
L99.3948 109.2400
" />
<path d="M100.5797 98.0484
L99.3904 98.0484
" />
<path d="M100.5842 110.9300 A0.8450 0.8450 0.0 0 0 100.5842 109.2400" />
<path d="M100.5797 99.7384 A0.8450 0.8450 0.0 0 0 100.5797 98.0484" />
<path d="M99.3948 109.2400 A0.8450 0.8450 0.0 0 0 99.3948 110.9300" />
<path d="M99.3904 98.0484 A0.8450 0.8450 0.0 0 0 99.3904 99.7384" />
<circle cx="107.5368" cy="106.9638" r="1.1500" /> 
<circle cx="107.5114" cy="104.5000" r="1.1500" /> 
<circle cx="107.5114" cy="101.9600" r="1.1500" /> 
<circle cx="102.5330" cy="100.4106" r="1.1500" /> 
<circle cx="96.1900" cy="102.9690" r="1.1500" /> 
<circle cx="93.0080" cy="106.9638" r="1.1500" /> 
<circle cx="93.0080" cy="101.9600" r="1.1500" /> 
<path style="fill:none; 
stroke:#000000; stroke-width:0.0500; stroke-opacity:1; 
stroke-linecap:round; stroke-linejoin:round;fill:none"
d="M 106.2272,135.3761
104.2007,136.5461
104.2134,136.5778
104.2324,136.6435
104.2441,136.7108
104.2483,136.7791
104.2450,136.8473
104.2343,136.9148
104.2162,136.9807
104.1910,137.0443
104.1590,137.1047
104.1206,137.1612
104.0762,137.2131
104.0263,137.2599
103.9717,137.3009
103.9425,137.3187
96.7804,141.4537
96.7182,141.4884
96.5904,141.5517
96.4594,141.6078
96.3254,141.6564
96.1889,141.6976
96.0504,141.7311
95.9102,141.7568
95.7688,141.7747
95.6266,141.7847
95.4840,141.7868
95.3416,141.7809
95.1997,141.7671
95.0588,141.7455
94.9194,141.7160
94.7818,141.6789
94.6464,141.6341
94.5138,141.5819
94.3843,141.5224
94.2583,141.4557
94.1361,141.3822
94.0183,141.3020
93.9051,141.2153
93.7969,141.1225
93.6941,141.0238
93.5969,140.9196
93.5056,140.8101
93.4206,140.6957
93.3421,140.5767
93.3057,140.5154
93.0657,140.0997
91.3510,141.0897
89.9460,138.6562
91.6607,137.6662
91.6484,137.6347
91.6300,137.5698
91.6190,137.5032
91.6156,137.4358
91.6197,137.3684
91.6313,137.3019
91.6503,137.2371
91.6764,137.1749
91.7093,137.1160
91.7486,137.0611
91.7939,137.0110
91.8444,136.9662
91.8996,136.9274
91.9290,136.9108
94.4232,135.4708
94.4499,135.4549
94.5065,135.4288
94.5657,135.4095
94.6267,135.3972
94.6887,135.3922
94.7510,135.3945
94.8125,135.4040
94.8725,135.4206
94.9301,135.4442
94.9846,135.4743
95.0352,135.5106
95.0585,135.5312
95.1158,135.5723
95.2341,135.6488
95.3564,135.7189
95.4823,135.7821
95.6114,135.8385
95.7434,135.8878
95.8780,135.9298
96.0145,135.9644
96.1528,135.9916
96.2923,136.0113
96.4327,136.0233
96.5736,136.0277
96.7145,136.0245
96.8550,136.0136
96.9946,135.9951
97.1331,135.9691
97.2700,135.9356
97.4049,135.8947
97.5373,135.8465
97.6669,135.7912
97.7933,135.7290
97.8550,135.6949
102.1332,133.2249
102.1648,133.2112
102.2304,133.1903
102.2980,133.1770
102.3667,133.1715
102.4356,133.1740
102.5037,133.1843
102.5702,133.2024
102.6342,133.2279
102.6948,133.2607
102.7513,133.3001
102.8029,133.3458
102.8489,133.3970
102.8888,133.4533
102.9058,133.4832
103.1708,133.9422
104.8422,132.9772
Z" /> 
<path d="M89.2793 82.9534
L101.6783 82.9534
" />
<path d="M89.2793 90.8917
L89.2793 82.9534
" />
<path d="M101.6783 82.9534
L101.6783 90.8917
" />
<path d="M101.6783 90.8917
L89.2793 90.8917
" />
<path d="M91.8929 42.0272
L91.9056 74.2852
" />
<path d="M91.9056 74.2852
L93.7570 74.2852
" />
<path d="M93.7471 42.0272
L91.8929 42.0272
" />
<path d="M93.7570 74.2852
L93.7597 42.0272
" />
<path d="M107.1964 42.0018
L107.1964 74.2800
" />
<path d="M107.1964 74.2800
L108.9970 74.2800
" />
<path d="M108.9970 74.2800
L108.9998 42.0018
" />
<path d="M108.9998 42.0018
L107.1964 42.0018
" />
</g>
<g style="fill:none; 
stroke:#000000; stroke-width:0.1500; stroke-opacity:1; 
stroke-linecap:round; stroke-linejoin:round;">
<circle cx="130.0250" cy="97.7750" r="2.2000" /> 
</g>
<g style="fill:none; 
stroke:#000000; stroke-width:0.0500; stroke-opacity:1; 
stroke-linecap:round; stroke-linejoin:round;">
<path d="M118.9008 36.9952
L122.5584 36.9952
" />
<path d="M118.9008 40.2718
L118.9008 36.9952
" />
<path d="M122.5584 36.9952
L122.5584 40.2718
" />
<path d="M122.5584 40.2718
L118.9008 40.2718
" />
</g>
<g style="fill:none; 
stroke:#000000; stroke-width:0.1500; stroke-opacity:1; 
stroke-linecap:round; stroke-linejoin:round;">
<circle cx="91.5000" cy="93.7000" r="2.2000" /> 
</g>
<g style="fill:none; 
stroke:#000000; stroke-width:0.0500; stroke-opacity:1; 
stroke-linecap:round; stroke-linejoin:round;">
<path d="M125.9458 120.2252
L129.6034 120.2252
" />
<path d="M125.9458 123.5018
L125.9458 120.2252
" />
<path d="M129.6034 120.2252
L129.6034 123.5018
" />
<path d="M129.6034 123.5018
L125.9458 123.5018
" />
<path d="M107.3164 80.0449
L109.0436 80.0449
" />
<path d="M107.3164 89.6918
L107.3164 80.0449
" />
<path d="M109.0104 89.6918
L107.3164 89.6918
" />
<path d="M109.0436 80.0449
L109.0436 89.6919
" />
</g>
<g style="fill:none; 
stroke:#000000; stroke-width:0.1500; stroke-opacity:1; 
stroke-linecap:round; stroke-linejoin:round;">
<circle cx="107.0000" cy="93.7000" r="2.2000" /> 
</g>
<g style="fill:none; 
stroke:#000000; stroke-width:0.0500; stroke-opacity:1; 
stroke-linecap:round; stroke-linejoin:round;">
<path d="M93.7130 37.4622
L105.7586 37.4622
" />
<path d="M93.7130 45.0356
L93.7130 37.4622
" />
<path d="M105.7586 37.4622
L105.7586 45.0358
" />
<path d="M105.7586 45.0358
L93.7130 45.0358
" />
</g>
<g style="fill:none; 
stroke:#000000; stroke-width:0.1500; stroke-opacity:1; 
stroke-linecap:round; stroke-linejoin:round;">
<circle cx="129.9750" cy="57.2750" r="2.2000" /> 
<circle cx="206.2250" cy="61.9750" r="2.2000" /> 
</g>
<g style="fill:none; 
stroke:#000000; stroke-width:0.0500; stroke-opacity:1; 
stroke-linecap:round; stroke-linejoin:round;">
<path d="M204.1277 105.3917
L207.7853 105.3917
" />
<path d="M204.1277 108.6683
L204.1277 105.3917
" />
<path d="M207.7853 105.3917
L207.7853 108.6683
" />
<path d="M207.7853 108.6683
L204.1277 108.6683
" />
</g>
<g style="fill:none; 
stroke:#000000; stroke-width:0.1500; stroke-opacity:1; 
stroke-linecap:round; stroke-linejoin:round;">
<circle cx="103.0000" cy="119.2000" r="2.2000" /> 
</g>
<g style="fill:none; 
stroke:#000000; stroke-width:0.0500; stroke-opacity:1; 
stroke-linecap:round; stroke-linejoin:round;">
<path d="M104.9704 80.1049
L106.6976 80.1049
" />
<path d="M104.9704 89.7518
L104.9704 80.1049
" />
<path d="M106.6644 89.7518
L104.9704 89.7518
" />
<path d="M106.6976 80.1049
L106.6976 89.7519
" />
<path d="M195.0295 46.0500
L198.4235 46.0500
" />
<path d="M195.0295 49.0294
L195.0295 46.0500
" />
<path d="M198.4235 46.0500
L198.4310 49.0286
" />
<path d="M198.4310 49.0286
L195.0295 49.0294
" />
<path d="M156.9322 38.6565
L160.3262 38.6565
" />
<path d="M156.9322 41.6359
L156.9322 38.6565
" />
<path d="M160.3262 38.6565
L160.3337 41.6351
" />
<path d="M160.3337 41.6351
L156.9322 41.6359
" />
<path d="M94.3786 74.4248
L94.3786 76.4314
" />
<path d="M94.3786 76.4314
L104.0814 76.4314
" />
<path d="M104.0814 74.4248
L94.3786 74.4248
" />
<path d="M104.0814 76.4314
L104.0814 74.4248
" />
<path d="M166.6458 116.4752
L170.3034 116.4752
" />
<path d="M166.6458 119.7518
L166.6458 116.4752
" />
<path d="M170.3034 116.4752
L170.3034 119.7518
" />
<path d="M170.3034 119.7518
L166.6458 119.7518
" />
<path d="M83.8581 123.7619
L88.6861 114.7954
" />
<path d="M88.6861 114.7954
L95.8539 118.6708
" />
<path d="M91.0326 127.6249
L83.8581 123.7619
" />
<path d="M95.8539 118.6708
L91.0326 127.6249
" />
</g>
<g style="fill:none; 
stroke:#000000; stroke-width:0.1500; stroke-opacity:1; 
stroke-linecap:round; stroke-linejoin:round;">
<circle cx="206.1750" cy="100.2250" r="2.2000" /> 
</g>
<g style="fill:none; 
stroke:#000000; stroke-width:0.0500; stroke-opacity:1; 
stroke-linecap:round; stroke-linejoin:round;">
<path d="M115.6716 58.5470
L125.4831 58.5470
" />
<path d="M115.6716 60.5742
L115.6716 58.5470
" />
<path d="M125.4831 58.5470
L125.4831 60.5742
" />
<path d="M125.4831 60.5742
L115.6715 60.5742
" />
<path d="M134.9441 56.0057
L144.7556 56.0057
" />
<path d="M134.9441 58.0330
L134.9441 56.0057
" />
<path d="M144.7556 56.0057
L144.7556 58.0330
" />
<path d="M144.7556 58.0330
L134.9440 58.0330
" />
<path d="M153.6496 53.6290
L163.4611 53.6290
" />
<path d="M153.6496 55.6562
L153.6496 53.6290
" />
<path d="M163.4611 53.6290
L163.4611 55.6562
" />
<path d="M163.4611 55.6562
L153.6495 55.6562
" />
<path d="M172.6996 56.0940
L182.5111 56.0940
" />
<path d="M172.6996 58.1212
L172.6996 56.0940
" />
<path d="M182.5111 56.0940
L182.5111 58.1212
" />
<path d="M182.5111 58.1212
L172.6995 58.1212
" />
<path d="M191.7496 60.9940
L201.5611 60.9940
" />
<path d="M191.7496 63.0212
L191.7496 60.9940
" />
<path d="M201.5611 60.9940
L201.5611 63.0212
" />
<path d="M201.5611 63.0212
L191.7495 63.0212
" />
<path d="M210.7996 60.9940
L220.6111 60.9940
" />
<path d="M210.7996 63.0212
L210.7996 60.9940
" />
<path d="M220.6111 60.9940
L220.6111 63.0212
" />
<path d="M220.6111 63.0212
L210.7995 63.0212
" />
<path d="M115.6716 96.6470
L125.4831 96.6470
" />
<path d="M115.6716 98.6742
L115.6716 96.6470
" />
<path d="M125.4831 96.6470
L125.4831 98.6742
" />
<path d="M125.4831 98.6742
L115.6715 98.6742
" />
<path d="M115.6716 115.6970
L125.4831 115.6970
" />
<path d="M115.6716 117.7242
L115.6716 115.6970
" />
<path d="M125.4831 115.6970
L125.4831 117.7242
" />
<path d="M125.4831 117.7242
L115.6715 117.7242
" />
<path d="M95.0216 112.0240
L104.8331 112.0240
" />
<path d="M95.0216 114.0512
L95.0216 112.0240
" />
<path d="M104.8331 112.0240
L104.8331 114.0512
" />
<path d="M104.8331 114.0512
L95.0215 114.0512
" />
<path d="M98.9986 142.6886
L107.7407 138.2343
" />
<path d="M99.9190 144.4949
L98.9986 142.6886
" />
<path d="M107.7407 138.2343
L108.6611 140.0405
" />
<path d="M108.6611 140.0405
L99.9189 144.4949
" />
<path style="fill:none; 
stroke:#000000; stroke-width:0.0500; stroke-opacity:1; 
stroke-linecap:round; stroke-linejoin:round;fill:none"
d="M 117.4808,50.6342
117.5119,50.6338
117.5739,50.6395
117.6348,50.6523
117.6938,50.6722
117.7501,50.6989
117.8028,50.7320
117.8514,50.7710
117.8950,50.8154
117.9331,50.8646
117.9653,50.9179
117.9909,50.9747
118.0008,51.0042
118.0298,51.0684
118.0940,51.1938
118.1649,51.3156
118.2423,51.4334
118.3260,51.5467
118.4157,51.6554
118.5112,51.7591
118.6121,51.8574
118.7183,51.9500
118.8293,52.0368
118.9448,52.1175
119.0646,52.1917
119.1882,52.2593
119.3154,52.3202
119.4456,52.3740
119.5785,52.4207
119.7138,52.4601
119.8511,52.4921
119.9898,52.5166
120.1297,52.5336
120.2703,52.5429
120.3408,52.5442
125.2808,52.5442
125.3150,52.5481
125.3823,52.5628
125.4475,52.5851
125.5097,52.6147
125.5681,52.6513
125.6220,52.6943
125.6705,52.7432
125.7132,52.7973
125.7493,52.8559
125.7785,52.9184
125.8004,52.9837
125.8146,53.0511
125.8210,53.1197
125.8208,53.1542
125.8208,53.6842
127.7508,53.6842
127.7508,56.4542
125.4108,56.4542
125.4058,56.4880
125.3894,56.5544
125.3659,56.6185
125.3355,56.6797
125.2985,56.7372
125.2554,56.7903
125.2068,56.8383
125.1532,56.8808
125.0953,56.9171
125.0338,56.9468
124.9693,56.9696
124.9028,56.9852
124.8349,56.9934
124.8008,56.9942
116.5308,56.9942
116.4595,56.9931
116.3172,56.9840
116.1757,56.9671
116.0354,56.9422
115.8966,56.9096
115.7598,56.8693
115.6256,56.8215
115.4941,56.7663
115.3660,56.7039
115.2415,56.6344
115.1211,56.5581
115.0051,56.4752
114.8939,56.3861
114.7879,56.2908
114.6873,56.1898
114.5925,56.0834
114.5037,55.9718
114.4213,55.8555
114.3455,55.7348
114.2765,55.6101
114.2146,55.4817
114.1599,55.3501
114.1126,55.2156
114.0729,55.0787
114.0408,54.9398
114.0165,54.7993
114.0001,54.6578
113.9916,54.5155
113.9908,54.4442
113.9908,53.9642
112.0108,53.9642
112.0108,51.1542
113.9908,51.1542
113.9958,51.1208
114.0124,51.0554
114.0361,50.9922
114.0668,50.9321
114.1041,50.8758
114.1474,50.8240
114.1962,50.7774
114.2500,50.7366
114.3079,50.7020
114.3694,50.6741
114.4336,50.6533
114.4998,50.6399
114.5670,50.6339
114.6008,50.6342
Z" /> 
<path style="fill:none; 
stroke:#000000; stroke-width:0.0500; stroke-opacity:1; 
stroke-linecap:round; stroke-linejoin:round;fill:none"
d="M 155.5900,45.6300
155.6211,45.6296
155.6831,45.6353
155.7441,45.6481
155.8030,45.6680
155.8593,45.6947
155.9121,45.7278
155.9606,45.7668
156.0042,45.8112
156.0424,45.8604
156.0745,45.9137
156.1001,45.9705
156.1100,46.0000
156.1391,46.0642
156.2033,46.1896
156.2741,46.3114
156.3515,46.4292
156.4352,46.5425
156.5249,46.6512
156.6204,46.7549
156.7214,46.8532
156.8275,46.9459
156.9385,47.0326
157.0541,47.1133
157.1739,47.1875
157.2975,47.2552
157.4246,47.3160
157.5548,47.3698
157.6878,47.4165
157.8231,47.4559
157.9603,47.4879
158.0991,47.5124
158.2389,47.5294
158.3796,47.5387
158.4500,47.5400
163.3900,47.5400
163.4242,47.5439
163.4916,47.5586
163.5567,47.5809
163.6190,47.6105
163.6774,47.6471
163.7312,47.6901
163.7798,47.7390
163.8224,47.7931
163.8585,47.8518
163.8877,47.9142
163.9096,47.9795
163.9238,48.0469
163.9302,48.1155
163.9300,48.1500
163.9300,48.6800
165.8600,48.6800
165.8600,51.4500
163.5200,51.4500
163.5150,51.4838
163.4987,51.5502
163.4751,51.6143
163.4447,51.6755
163.4077,51.7330
163.3647,51.7861
163.3161,51.8342
163.2625,51.8766
163.2046,51.9129
163.1430,51.9426
163.0786,51.9654
163.0120,51.9810
162.9442,51.9892
162.9100,51.9900
154.6400,51.9900
154.5687,51.9889
154.4265,51.9798
154.2849,51.9629
154.1446,51.9380
154.0058,51.9054
153.8691,51.8651
153.7348,51.8173
153.6034,51.7621
153.4752,51.6997
153.3508,51.6302
153.2304,51.5539
153.1144,51.4711
153.0032,51.3819
152.8971,51.2866
152.7965,51.1856
152.7017,51.0792
152.6129,50.9677
152.5305,50.8513
152.4547,50.7306
152.3857,50.6059
152.3238,50.4775
152.2691,50.3459
152.2218,50.2114
152.1821,50.0745
152.1500,49.9356
152.1257,49.7952
152.1093,49.6536
152.1008,49.5113
152.1000,49.4400
152.1000,48.9600
150.1200,48.9600
150.1200,46.1500
152.1000,46.1500
152.1050,46.1166
152.1216,46.0512
152.1454,45.9880
152.1761,45.9279
152.2133,45.8716
152.2566,45.8198
152.3055,45.7732
152.3592,45.7324
152.4172,45.6978
152.4787,45.6700
152.5429,45.6492
152.6090,45.6357
152.6762,45.6297
152.7100,45.6300
Z" /> 
<path style="fill:none; 
stroke:#000000; stroke-width:0.0500; stroke-opacity:1; 
stroke-linecap:round; stroke-linejoin:round;fill:none"
d="M 117.4900,88.7300
117.5211,88.7296
117.5831,88.7353
117.6441,88.7481
117.7030,88.7680
117.7593,88.7947
117.8121,88.8278
117.8606,88.8668
117.9042,88.9112
117.9424,88.9604
117.9745,89.0137
118.0001,89.0705
118.0100,89.1000
118.0391,89.1642
118.1033,89.2896
118.1741,89.4114
118.2515,89.5292
118.3352,89.6425
118.4249,89.7512
118.5204,89.8549
118.6214,89.9532
118.7275,90.0459
118.8385,90.1326
118.9541,90.2133
119.0739,90.2875
119.1975,90.3552
119.3246,90.4160
119.4548,90.4698
119.5878,90.5165
119.7231,90.5559
119.8603,90.5879
119.9991,90.6124
120.1389,90.6294
120.2796,90.6387
120.3500,90.6400
125.2900,90.6400
125.3242,90.6439
125.3916,90.6586
125.4567,90.6809
125.5190,90.7105
125.5774,90.7471
125.6312,90.7901
125.6798,90.8390
125.7224,90.8931
125.7585,90.9518
125.7877,91.0142
125.8096,91.0795
125.8238,91.1469
125.8302,91.2155
125.8300,91.2500
125.8300,91.7800
127.7600,91.7800
127.7600,94.5500
125.4200,94.5500
125.4150,94.5838
125.3987,94.6502
125.3751,94.7143
125.3447,94.7755
125.3077,94.8330
125.2647,94.8861
125.2161,94.9342
125.1625,94.9766
125.1046,95.0129
125.0430,95.0426
124.9786,95.0654
124.9120,95.0810
124.8442,95.0892
124.8100,95.0900
116.5400,95.0900
116.4687,95.0889
116.3265,95.0798
116.1850,95.0629
116.0446,95.0380
115.9058,95.0054
115.7691,94.9651
115.6348,94.9173
115.5034,94.8621
115.3752,94.7997
115.2508,94.7302
115.1304,94.6539
115.0144,94.5711
114.9032,94.4819
114.7971,94.3866
114.6965,94.2856
114.6017,94.1792
114.5129,94.0677
114.4305,93.9513
114.3547,93.8306
114.2857,93.7059
114.2238,93.5775
114.1691,93.4459
114.1218,93.3114
114.0821,93.1745
114.0500,93.0356
114.0257,92.8952
114.0093,92.7536
114.0008,92.6113
114.0000,92.5400
114.0000,92.0600
112.0200,92.0600
112.0200,89.2500
114.0000,89.2500
114.0050,89.2166
114.0216,89.1512
114.0454,89.0880
114.0761,89.0279
114.1133,88.9716
114.1566,88.9198
114.2055,88.8732
114.2592,88.8324
114.3172,88.7978
114.3787,88.7700
114.4429,88.7492
114.5090,88.7357
114.5762,88.7297
114.6100,88.7300
Z" /> 
<path style="fill:none; 
stroke:#000000; stroke-width:0.0500; stroke-opacity:1; 
stroke-linecap:round; stroke-linejoin:round;fill:none"
d="M 136.4900,86.2300
136.5211,86.2296
136.5831,86.2353
136.6440,86.2481
136.7030,86.2680
136.7593,86.2947
136.8120,86.3278
136.8606,86.3668
136.9042,86.4112
136.9423,86.4604
136.9745,86.5137
137.0001,86.5705
137.0100,86.6000
137.0391,86.6642
137.1032,86.7896
137.1741,86.9114
137.2515,87.0292
137.3352,87.1425
137.4249,87.2512
137.5204,87.3549
137.6213,87.4532
137.7275,87.5459
137.8385,87.6326
137.9541,87.7133
138.0738,87.7875
138.1975,87.8552
138.3246,87.9160
138.4548,87.9698
138.5878,88.0165
138.7230,88.0559
138.8603,88.0879
138.9990,88.1124
139.1389,88.1294
139.2795,88.1387
139.3500,88.1400
144.2900,88.1400
144.3242,88.1439
144.3915,88.1586
144.4567,88.1809
144.5189,88.2105
144.5773,88.2471
144.6312,88.2901
144.6797,88.3390
144.7224,88.3931
144.7585,88.4518
144.7877,88.5142
144.8096,88.5795
144.8238,88.6469
144.8302,88.7155
144.8300,88.7500
144.8300,89.2800
146.7600,89.2800
146.7600,92.0500
144.4200,92.0500
144.4150,92.0838
144.3987,92.1502
144.3751,92.2143
144.3447,92.2755
144.3077,92.3330
144.2647,92.3861
144.2160,92.4342
144.1625,92.4766
144.1045,92.5129
144.0430,92.5426
143.9786,92.5654
143.9120,92.5810
143.8442,92.5892
143.8100,92.5900
135.5400,92.5900
135.4687,92.5889
135.3265,92.5798
135.1849,92.5629
135.0446,92.5380
134.9058,92.5054
134.7691,92.4651
134.6348,92.4173
134.5034,92.3621
134.3752,92.2997
134.2508,92.2302
134.1303,92.1539
134.0144,92.0711
133.9032,91.9819
133.7971,91.8866
133.6965,91.7856
133.6017,91.6792
133.5129,91.5677
133.4305,91.4513
133.3547,91.3306
133.2857,91.2059
133.2238,91.0775
133.1691,90.9459
133.1218,90.8114
133.0821,90.6745
133.0500,90.5356
133.0257,90.3952
133.0093,90.2536
133.0008,90.1113
133.0000,90.0400
133.0000,89.5600
131.0200,89.5600
131.0200,86.7500
133.0000,86.7500
133.0050,86.7166
133.0216,86.6512
133.0454,86.5880
133.0761,86.5279
133.1133,86.4716
133.1566,86.4198
133.2054,86.3732
133.2592,86.3324
133.3172,86.2978
133.3786,86.2700
133.4429,86.2492
133.5090,86.2357
133.5762,86.2297
133.6100,86.2300
Z" /> 
<path style="fill:none; 
stroke:#000000; stroke-width:0.0500; stroke-opacity:1; 
stroke-linecap:round; stroke-linejoin:round;fill:none"
d="M 155.5900,102.8200
155.6211,102.8196
155.6831,102.8253
155.7441,102.8381
155.8030,102.8580
155.8593,102.8847
155.9121,102.9178
155.9606,102.9568
156.0042,103.0012
156.0424,103.0504
156.0745,103.1037
156.1001,103.1605
156.1100,103.1900
156.1391,103.2542
156.2033,103.3796
156.2741,103.5014
156.3515,103.6192
156.4352,103.7325
156.5249,103.8412
156.6204,103.9449
156.7214,104.0432
156.8275,104.1359
156.9385,104.2226
157.0541,104.3033
157.1739,104.3775
157.2975,104.4452
157.4246,104.5060
157.5548,104.5598
157.6878,104.6065
157.8231,104.6459
157.9603,104.6779
158.0991,104.7024
158.2389,104.7194
158.3796,104.7287
158.4500,104.7300
163.3900,104.7300
163.4242,104.7339
163.4916,104.7486
163.5567,104.7709
163.6190,104.8005
163.6774,104.8371
163.7312,104.8801
163.7798,104.9290
163.8224,104.9831
163.8585,105.0418
163.8877,105.1042
163.9096,105.1695
163.9238,105.2369
163.9302,105.3055
163.9300,105.3400
163.9300,105.8700
165.8600,105.8700
165.8600,108.6400
163.5200,108.6400
163.5150,108.6738
163.4987,108.7402
163.4751,108.8043
163.4447,108.8655
163.4077,108.9230
163.3647,108.9761
163.3161,109.0242
163.2625,109.0666
163.2046,109.1029
163.1430,109.1326
163.0786,109.1554
163.0120,109.1710
162.9442,109.1792
162.9100,109.1800
154.6400,109.1800
154.5687,109.1789
154.4265,109.1698
154.2849,109.1529
154.1446,109.1280
154.0058,109.0954
153.8691,109.0551
153.7348,109.0073
153.6034,108.9521
153.4752,108.8897
153.3508,108.8202
153.2304,108.7439
153.1144,108.6611
153.0032,108.5719
152.8971,108.4766
152.7965,108.3756
152.7017,108.2692
152.6129,108.1577
152.5305,108.0413
152.4547,107.9206
152.3857,107.7959
152.3238,107.6675
152.2691,107.5359
152.2218,107.4014
152.1821,107.2645
152.1500,107.1256
152.1257,106.9852
152.1093,106.8436
152.1008,106.7013
152.1000,106.6300
152.1000,106.1500
150.1200,106.1500
150.1200,103.3400
152.1000,103.3400
152.1050,103.3066
152.1216,103.2412
152.1454,103.1780
152.1761,103.1179
152.2133,103.0616
152.2566,103.0098
152.3055,102.9632
152.3592,102.9224
152.4172,102.8878
152.4787,102.8600
152.5429,102.8392
152.6090,102.8257
152.6762,102.8197
152.7100,102.8200
Z" /> 
<path style="fill:none; 
stroke:#000000; stroke-width:0.0500; stroke-opacity:1; 
stroke-linecap:round; stroke-linejoin:round;fill:none"
d="M 193.6900,110.1300
193.7211,110.1296
193.7831,110.1353
193.8440,110.1481
193.9030,110.1680
193.9593,110.1947
194.0120,110.2278
194.0606,110.2668
194.1042,110.3112
194.1423,110.3604
194.1745,110.4137
194.2001,110.4705
194.2100,110.5000
194.2391,110.5642
194.3032,110.6896
194.3741,110.8114
194.4515,110.9292
194.5352,111.0425
194.6249,111.1512
194.7204,111.2549
194.8213,111.3532
194.9275,111.4459
195.0385,111.5326
195.1541,111.6133
195.2738,111.6875
195.3975,111.7552
195.5246,111.8160
195.6548,111.8698
195.7878,111.9165
195.9230,111.9559
196.0603,111.9879
196.1990,112.0124
196.3389,112.0294
196.4795,112.0387
196.5500,112.0400
201.4900,112.0400
201.5242,112.0439
201.5915,112.0586
201.6567,112.0809
201.7189,112.1105
201.7773,112.1471
201.8312,112.1901
201.8797,112.2390
201.9224,112.2931
201.9585,112.3518
201.9877,112.4142
202.0096,112.4795
202.0238,112.5469
202.0302,112.6155
202.0300,112.6500
202.0300,113.1800
203.9600,113.1800
203.9600,115.9500
201.6200,115.9500
201.6150,115.9838
201.5987,116.0502
201.5751,116.1143
201.5447,116.1755
201.5077,116.2330
201.4647,116.2861
201.4160,116.3342
201.3625,116.3766
201.3045,116.4129
201.2430,116.4426
201.1786,116.4654
201.1120,116.4810
201.0442,116.4892
201.0100,116.4900
192.7400,116.4900
192.6687,116.4889
192.5265,116.4798
192.3849,116.4629
192.2446,116.4380
192.1058,116.4054
191.9691,116.3651
191.8348,116.3173
191.7034,116.2621
191.5752,116.1997
191.4508,116.1302
191.3303,116.0539
191.2144,115.9711
191.1032,115.8819
190.9971,115.7866
190.8965,115.6856
190.8017,115.5792
190.7129,115.4677
190.6305,115.3513
190.5547,115.2306
190.4857,115.1059
190.4238,114.9775
190.3691,114.8459
190.3218,114.7114
190.2821,114.5745
190.2500,114.4356
190.2257,114.2952
190.2093,114.1536
190.2008,114.0113
190.2000,113.9400
190.2000,113.4600
188.2200,113.4600
188.2200,110.6500
190.2000,110.6500
190.2050,110.6166
190.2216,110.5512
190.2454,110.4880
190.2761,110.4279
190.3133,110.3716
190.3566,110.3198
190.4054,110.2732
190.4592,110.2324
190.5172,110.1978
190.5786,110.1700
190.6429,110.1492
190.7090,110.1357
190.7762,110.1297
190.8100,110.1300
Z" /> 
<path style="fill:none; 
stroke:#000000; stroke-width:0.0500; stroke-opacity:1; 
stroke-linecap:round; stroke-linejoin:round;fill:none"
d="M 122.8895,129.6259
122.9236,129.6209
122.9924,129.6176
123.0612,129.6223
123.1289,129.6348
123.1948,129.6550
123.2579,129.6826
123.3175,129.7173
123.3727,129.7585
123.4228,129.8058
123.4671,129.8585
123.5052,129.9160
123.5364,129.9774
123.5603,130.0421
123.5690,130.0754
123.7062,130.5873
125.5704,130.0878
126.2873,132.7634
124.0271,133.3691
124.0310,133.4030
124.0324,133.4713
124.0263,133.5394
124.0127,133.6064
123.9919,133.6715
123.9640,133.7339
123.9295,133.7929
123.8887,133.8478
123.8422,133.8978
123.7904,133.9425
123.7341,133.9811
123.6738,134.0134
123.6104,134.0389
123.5776,134.0485
115.5894,136.1890
115.5203,136.2064
115.3805,136.2344
115.2394,136.2547
115.0974,136.2670
114.9550,136.2714
114.8125,136.2679
114.6704,136.2565
114.5291,136.2372
114.3892,136.2100
114.2510,136.1751
114.1149,136.1326
113.9815,136.0826
113.8510,136.0252
113.7239,135.9607
113.6006,135.8891
113.4814,135.8109
113.3668,135.7261
113.2571,135.6351
113.1527,135.5381
113.0537,135.4355
112.9607,135.3275
112.8738,135.2145
112.7933,135.0969
112.7195,134.9749
112.6526,134.8490
112.5928,134.7197
112.5403,134.5871
112.4952,134.4519
112.4760,134.3833
112.3517,133.9196
110.4392,134.4321
109.7119,131.7178
111.6245,131.2054
111.6207,131.1718
111.6197,131.1043
111.6264,131.0372
111.6405,130.9711
111.6619,130.9071
111.6903,130.8459
111.7254,130.7883
111.7667,130.7349
111.8138,130.6865
111.8660,130.6437
111.9226,130.6070
111.9830,130.5768
112.0464,130.5536
112.0791,130.5452
114.8610,129.7998
114.8909,129.7914
114.9523,129.7808
115.0145,129.7775
115.0766,129.7814
115.1378,129.7926
115.1974,129.8109
115.2543,129.8360
115.3080,129.8676
115.3575,129.9053
115.4024,129.9485
115.4418,129.9966
115.4590,130.0226
115.5037,130.0771
115.5982,130.1817
115.6982,130.2809
115.8034,130.3746
115.9136,130.4625
116.0283,130.5443
116.1474,130.6197
116.2704,130.6885
116.3969,130.7505
116.5266,130.8056
116.6591,130.8536
116.7940,130.8943
116.9309,130.9277
117.0694,130.9535
117.2091,130.9718
117.3496,130.9825
117.4905,130.9855
117.6313,130.9809
117.7717,130.9687
117.9112,130.9489
118.0495,130.9215
118.1179,130.9045
Z" /> 
<path style="fill:none; 
stroke:#000000; stroke-width:0.0500; stroke-opacity:1; 
stroke-linecap:round; stroke-linejoin:round;fill:none"
d="M 212.6900,71.9300
212.7211,71.9296
212.7831,71.9353
212.8440,71.9481
212.9030,71.9680
212.9593,71.9947
213.0120,72.0278
213.0606,72.0668
213.1042,72.1112
213.1423,72.1604
213.1745,72.2137
213.2001,72.2705
213.2100,72.3000
213.2391,72.3642
213.3032,72.4896
213.3741,72.6114
213.4515,72.7292
213.5352,72.8425
213.6249,72.9512
213.7204,73.0549
213.8213,73.1532
213.9275,73.2459
214.0385,73.3326
214.1541,73.4133
214.2738,73.4875
214.3975,73.5552
214.5246,73.6160
214.6548,73.6698
214.7878,73.7165
214.9230,73.7559
215.0603,73.7879
215.1990,73.8124
215.3389,73.8294
215.4795,73.8387
215.5500,73.8400
220.4900,73.8400
220.5242,73.8439
220.5915,73.8586
220.6567,73.8809
220.7189,73.9105
220.7773,73.9471
220.8312,73.9901
220.8797,74.0390
220.9224,74.0931
220.9585,74.1518
220.9877,74.2142
221.0096,74.2795
221.0238,74.3469
221.0302,74.4155
221.0300,74.4500
221.0300,74.9800
222.9600,74.9800
222.9600,77.7500
220.6200,77.7500
220.6150,77.7838
220.5987,77.8502
220.5751,77.9143
220.5447,77.9755
220.5077,78.0330
220.4647,78.0861
220.4160,78.1342
220.3625,78.1766
220.3045,78.2129
220.2430,78.2426
220.1786,78.2654
220.1120,78.2810
220.0442,78.2892
220.0100,78.2900
211.7400,78.2900
211.6687,78.2889
211.5265,78.2798
211.3849,78.2629
211.2446,78.2380
211.1058,78.2054
210.9691,78.1651
210.8348,78.1173
210.7034,78.0621
210.5752,77.9997
210.4508,77.9302
210.3303,77.8539
210.2144,77.7711
210.1032,77.6819
209.9971,77.5866
209.8965,77.4856
209.8017,77.3792
209.7129,77.2677
209.6305,77.1513
209.5547,77.0306
209.4857,76.9059
209.4238,76.7775
209.3691,76.6459
209.3218,76.5114
209.2821,76.3745
209.2500,76.2356
209.2257,76.0952
209.2093,75.9536
209.2008,75.8113
209.2000,75.7400
209.2000,75.2600
207.2200,75.2600
207.2200,72.4500
209.2000,72.4500
209.2050,72.4166
209.2216,72.3512
209.2454,72.2880
209.2761,72.2279
209.3133,72.1716
209.3566,72.1198
209.4054,72.0732
209.4592,72.0324
209.5172,71.9978
209.5786,71.9700
209.6429,71.9492
209.7090,71.9357
209.7762,71.9297
209.8100,71.9300
Z" /> 
<path style="fill:none; 
stroke:#000000; stroke-width:0.0500; stroke-opacity:1; 
stroke-linecap:round; stroke-linejoin:round;fill:none"
d="M 212.6900,91.1300
212.7211,91.1296
212.7831,91.1353
212.8440,91.1481
212.9030,91.1680
212.9593,91.1947
213.0120,91.2278
213.0606,91.2668
213.1042,91.3112
213.1423,91.3604
213.1745,91.4137
213.2001,91.4705
213.2100,91.5000
213.2391,91.5642
213.3032,91.6896
213.3741,91.8114
213.4515,91.9292
213.5352,92.0425
213.6249,92.1512
213.7204,92.2549
213.8213,92.3532
213.9275,92.4459
214.0385,92.5326
214.1541,92.6133
214.2738,92.6875
214.3975,92.7552
214.5246,92.8160
214.6548,92.8698
214.7878,92.9165
214.9230,92.9559
215.0603,92.9879
215.1990,93.0124
215.3389,93.0294
215.4795,93.0387
215.5500,93.0400
220.4900,93.0400
220.5242,93.0439
220.5915,93.0586
220.6567,93.0809
220.7189,93.1105
220.7773,93.1471
220.8312,93.1901
220.8797,93.2390
220.9224,93.2931
220.9585,93.3518
220.9877,93.4142
221.0096,93.4795
221.0238,93.5469
221.0302,93.6155
221.0300,93.6500
221.0300,94.1800
222.9600,94.1800
222.9600,96.9500
220.6200,96.9500
220.6150,96.9838
220.5987,97.0502
220.5751,97.1143
220.5447,97.1755
220.5077,97.2330
220.4647,97.2861
220.4160,97.3342
220.3625,97.3766
220.3045,97.4129
220.2430,97.4426
220.1786,97.4654
220.1120,97.4810
220.0442,97.4892
220.0100,97.4900
211.7400,97.4900
211.6687,97.4889
211.5265,97.4798
211.3849,97.4629
211.2446,97.4380
211.1058,97.4054
210.9691,97.3651
210.8348,97.3173
210.7034,97.2621
210.5752,97.1997
210.4508,97.1302
210.3303,97.0539
210.2144,96.9711
210.1032,96.8819
209.9971,96.7866
209.8965,96.6856
209.8017,96.5792
209.7129,96.4677
209.6305,96.3513
209.5547,96.2306
209.4857,96.1059
209.4238,95.9775
209.3691,95.8459
209.3218,95.7114
209.2821,95.5745
209.2500,95.4356
209.2257,95.2952
209.2093,95.1536
209.2008,95.0113
209.2000,94.9400
209.2000,94.4600
207.2200,94.4600
207.2200,91.6500
209.2000,91.6500
209.2050,91.6166
209.2216,91.5512
209.2454,91.4880
209.2761,91.4279
209.3133,91.3716
209.3566,91.3198
209.4054,91.2732
209.4592,91.2324
209.5172,91.1978
209.5786,91.1700
209.6429,91.1492
209.7090,91.1357
209.7762,91.1297
209.8100,91.1300
Z" /> 
<path style="fill:none; 
stroke:#000000; stroke-width:0.0500; stroke-opacity:1; 
stroke-linecap:round; stroke-linejoin:round;fill:none"
d="M 212.7400,110.1300
212.7711,110.1296
212.8331,110.1353
212.8940,110.1481
212.9530,110.1680
213.0093,110.1947
213.0620,110.2278
213.1106,110.2668
213.1542,110.3112
213.1923,110.3604
213.2245,110.4137
213.2501,110.4705
213.2600,110.5000
213.2891,110.5642
213.3532,110.6896
213.4241,110.8114
213.5015,110.9292
213.5852,111.0425
213.6749,111.1512
213.7704,111.2549
213.8713,111.3532
213.9775,111.4459
214.0885,111.5326
214.2041,111.6133
214.3238,111.6875
214.4475,111.7552
214.5746,111.8160
214.7048,111.8698
214.8378,111.9165
214.9730,111.9559
215.1103,111.9879
215.2490,112.0124
215.3889,112.0294
215.5295,112.0387
215.6000,112.0400
220.5400,112.0400
220.5742,112.0439
220.6415,112.0586
220.7067,112.0809
220.7689,112.1105
220.8273,112.1471
220.8812,112.1901
220.9297,112.2390
220.9724,112.2931
221.0085,112.3518
221.0377,112.4142
221.0596,112.4795
221.0738,112.5469
221.0802,112.6155
221.0800,112.6500
221.0800,113.1800
223.0100,113.1800
223.0100,115.9500
220.6700,115.9500
220.6650,115.9838
220.6487,116.0502
220.6251,116.1143
220.5947,116.1755
220.5577,116.2330
220.5147,116.2861
220.4660,116.3342
220.4125,116.3766
220.3545,116.4129
220.2930,116.4426
220.2286,116.4654
220.1620,116.4810
220.0942,116.4892
220.0600,116.4900
211.7900,116.4900
211.7187,116.4889
211.5765,116.4798
211.4349,116.4629
211.2946,116.4380
211.1558,116.4054
211.0191,116.3651
210.8848,116.3173
210.7534,116.2621
210.6252,116.1997
210.5008,116.1302
210.3803,116.0539
210.2644,115.9711
210.1532,115.8819
210.0471,115.7866
209.9465,115.6856
209.8517,115.5792
209.7629,115.4677
209.6805,115.3513
209.6047,115.2306
209.5357,115.1059
209.4738,114.9775
209.4191,114.8459
209.3718,114.7114
209.3321,114.5745
209.3000,114.4356
209.2757,114.2952
209.2593,114.1536
209.2508,114.0113
209.2500,113.9400
209.2500,113.4600
207.2700,113.4600
207.2700,110.6500
209.2500,110.6500
209.2550,110.6166
209.2716,110.5512
209.2954,110.4880
209.3261,110.4279
209.3633,110.3716
209.4066,110.3198
209.4554,110.2732
209.5092,110.2324
209.5672,110.1978
209.6286,110.1700
209.6929,110.1492
209.7590,110.1357
209.8262,110.1297
209.8600,110.1300
Z" /> 
<path style="fill:none; 
stroke:#000000; stroke-width:0.0500; stroke-opacity:1; 
stroke-linecap:round; stroke-linejoin:round;fill:none"
d="M 174.5900,48.1700
174.6211,48.1696
174.6831,48.1753
174.7440,48.1881
174.8030,48.2080
174.8593,48.2347
174.9120,48.2678
174.9606,48.3068
175.0042,48.3512
175.0423,48.4004
175.0745,48.4537
175.1001,48.5105
175.1100,48.5400
175.1391,48.6042
175.2032,48.7296
175.2741,48.8514
175.3515,48.9692
175.4352,49.0825
175.5249,49.1912
175.6204,49.2949
175.7213,49.3932
175.8275,49.4859
175.9385,49.5726
176.0541,49.6533
176.1738,49.7275
176.2975,49.7952
176.4246,49.8560
176.5548,49.9098
176.6878,49.9565
176.8230,49.9959
176.9603,50.0279
177.0990,50.0524
177.2389,50.0694
177.3795,50.0787
177.4500,50.0800
182.3900,50.0800
182.4242,50.0839
182.4915,50.0986
182.5567,50.1209
182.6189,50.1505
182.6773,50.1871
182.7312,50.2301
182.7797,50.2790
182.8224,50.3331
182.8585,50.3918
182.8877,50.4542
182.9096,50.5195
182.9238,50.5869
182.9302,50.6555
182.9300,50.6900
182.9300,51.2200
184.8600,51.2200
184.8600,53.9900
182.5200,53.9900
182.5150,54.0238
182.4987,54.0902
182.4751,54.1543
182.4447,54.2155
182.4077,54.2730
182.3647,54.3261
182.3160,54.3742
182.2625,54.4166
182.2045,54.4529
182.1430,54.4826
182.0786,54.5054
182.0120,54.5210
181.9442,54.5292
181.9100,54.5300
173.6400,54.5300
173.5687,54.5289
173.4265,54.5198
173.2849,54.5029
173.1446,54.4780
173.0058,54.4454
172.8691,54.4051
172.7348,54.3573
172.6034,54.3021
172.4752,54.2397
172.3508,54.1702
172.2303,54.0939
172.1144,54.0111
172.0032,53.9219
171.8971,53.8266
171.7965,53.7256
171.7017,53.6192
171.6129,53.5077
171.5305,53.3913
171.4547,53.2706
171.3857,53.1459
171.3238,53.0175
171.2691,52.8859
171.2218,52.7514
171.1821,52.6145
171.1500,52.4756
171.1257,52.3352
171.1093,52.1936
171.1008,52.0513
171.1000,51.9800
171.1000,51.5000
169.1200,51.5000
169.1200,48.6900
171.1000,48.6900
171.1050,48.6566
171.1216,48.5912
171.1454,48.5280
171.1761,48.4679
171.2133,48.4116
171.2566,48.3598
171.3054,48.3132
171.3592,48.2724
171.4172,48.2378
171.4786,48.2100
171.5429,48.1892
171.6090,48.1757
171.6762,48.1697
171.7100,48.1700
Z" /> 
<path d="M115.6716 77.6470
L125.4831 77.6470
" />
<path d="M115.6716 79.6742
L115.6716 77.6470
" />
<path d="M125.4831 77.6470
L125.4831 79.6742
" />
<path d="M125.4831 79.6742
L115.6715 79.6742
" />
<path d="M134.9441 75.0558
L144.7556 75.0558
" />
<path d="M134.9441 77.0830
L134.9441 75.0558
" />
<path d="M144.7556 75.0558
L144.7556 77.0830
" />
<path d="M144.7556 77.0830
L134.9440 77.0830
" />
<path d="M153.6496 72.6440
L163.4611 72.6440
" />
<path d="M153.6496 74.6712
L153.6496 72.6440
" />
<path d="M163.4611 72.6440
L163.4611 74.6712
" />
<path d="M163.4611 74.6712
L153.6495 74.6712
" />
<path d="M172.6996 75.1440
L182.5111 75.1440
" />
<path d="M172.6996 77.1712
L172.6996 75.1440
" />
<path d="M182.5111 75.1440
L182.5111 77.1712
" />
<path d="M182.5111 77.1712
L172.6995 77.1712
" />
<path d="M191.7496 80.0440
L201.5611 80.0440
" />
<path d="M191.7496 82.0712
L191.7496 80.0440
" />
<path d="M201.5611 80.0440
L201.5611 82.0712
" />
<path d="M201.5611 82.0712
L191.7495 82.0712
" />
<path d="M210.7996 80.0440
L220.6111 80.0440
" />
<path d="M210.7996 82.0712
L210.7996 80.0440
" />
<path d="M220.6111 80.0440
L220.6111 82.0712
" />
<path d="M220.6111 82.0712
L210.7995 82.0712
" />
<path style="fill:none; 
stroke:#000000; stroke-width:0.0500; stroke-opacity:1; 
stroke-linecap:round; stroke-linejoin:round;fill:none"
d="M 193.6900,53.0300
193.7211,53.0296
193.7831,53.0353
193.8441,53.0481
193.9030,53.0680
193.9593,53.0947
194.0121,53.1278
194.0606,53.1668
194.1042,53.2112
194.1424,53.2604
194.1745,53.3137
194.2001,53.3705
194.2100,53.4000
194.2391,53.4642
194.3033,53.5896
194.3741,53.7114
194.4515,53.8292
194.5352,53.9425
194.6249,54.0512
194.7204,54.1549
194.8214,54.2532
194.9275,54.3459
195.0385,54.4326
195.1541,54.5133
195.2739,54.5875
195.3975,54.6552
195.5246,54.7160
195.6548,54.7698
195.7878,54.8165
195.9231,54.8559
196.0603,54.8879
196.1991,54.9124
196.3389,54.9294
196.4796,54.9387
196.5500,54.9400
201.4900,54.9400
201.5242,54.9439
201.5916,54.9586
201.6567,54.9809
201.7190,55.0105
201.7774,55.0471
201.8312,55.0901
201.8798,55.1390
201.9224,55.1931
201.9585,55.2518
201.9877,55.3142
202.0096,55.3795
202.0238,55.4469
202.0302,55.5155
202.0300,55.5500
202.0300,56.0800
203.9600,56.0800
203.9600,58.8500
201.6200,58.8500
201.6150,58.8838
201.5987,58.9502
201.5751,59.0143
201.5447,59.0755
201.5077,59.1330
201.4647,59.1861
201.4161,59.2342
201.3625,59.2766
201.3046,59.3129
201.2430,59.3426
201.1786,59.3654
201.1120,59.3810
201.0442,59.3892
201.0100,59.3900
192.7400,59.3900
192.6687,59.3889
192.5265,59.3798
192.3850,59.3629
192.2446,59.3380
192.1058,59.3054
191.9691,59.2651
191.8348,59.2173
191.7034,59.1621
191.5752,59.0997
191.4508,59.0302
191.3304,58.9539
191.2144,58.8711
191.1032,58.7819
190.9971,58.6866
190.8965,58.5856
190.8017,58.4792
190.7129,58.3677
190.6305,58.2513
190.5547,58.1306
190.4857,58.0059
190.4238,57.8775
190.3691,57.7459
190.3218,57.6114
190.2821,57.4745
190.2500,57.3356
190.2257,57.1952
190.2093,57.0536
190.2008,56.9113
190.2000,56.8400
190.2000,56.3600
188.2200,56.3600
188.2200,53.5500
190.2000,53.5500
190.2050,53.5166
190.2216,53.4512
190.2454,53.3880
190.2761,53.3279
190.3133,53.2716
190.3566,53.2198
190.4055,53.1732
190.4592,53.1324
190.5172,53.0978
190.5787,53.0700
190.6429,53.0492
190.7090,53.0357
190.7762,53.0297
190.8100,53.0300
Z" /> 
<path style="fill:none; 
stroke:#000000; stroke-width:0.0500; stroke-opacity:1; 
stroke-linecap:round; stroke-linejoin:round;fill:none"
d="M 136.4900,67.2300
136.5211,67.2296
136.5831,67.2353
136.6440,67.2481
136.7030,67.2680
136.7593,67.2947
136.8120,67.3278
136.8606,67.3668
136.9042,67.4112
136.9423,67.4604
136.9745,67.5137
137.0001,67.5705
137.0100,67.6000
137.0391,67.6642
137.1032,67.7896
137.1741,67.9114
137.2515,68.0292
137.3352,68.1425
137.4249,68.2512
137.5204,68.3549
137.6213,68.4532
137.7275,68.5459
137.8385,68.6326
137.9541,68.7133
138.0738,68.7875
138.1975,68.8552
138.3246,68.9160
138.4548,68.9698
138.5878,69.0165
138.7230,69.0559
138.8603,69.0879
138.9990,69.1124
139.1389,69.1294
139.2795,69.1387
139.3500,69.1400
144.2900,69.1400
144.3242,69.1439
144.3915,69.1586
144.4567,69.1809
144.5189,69.2105
144.5773,69.2471
144.6312,69.2901
144.6797,69.3390
144.7224,69.3931
144.7585,69.4518
144.7877,69.5142
144.8096,69.5795
144.8238,69.6469
144.8302,69.7155
144.8300,69.7500
144.8300,70.2800
146.7600,70.2800
146.7600,73.0500
144.4200,73.0500
144.4150,73.0838
144.3987,73.1502
144.3751,73.2143
144.3447,73.2755
144.3077,73.3330
144.2647,73.3861
144.2160,73.4342
144.1625,73.4766
144.1045,73.5129
144.0430,73.5426
143.9786,73.5654
143.9120,73.5810
143.8442,73.5892
143.8100,73.5900
135.5400,73.5900
135.4687,73.5889
135.3265,73.5798
135.1849,73.5629
135.0446,73.5380
134.9058,73.5054
134.7691,73.4651
134.6348,73.4173
134.5034,73.3621
134.3752,73.2997
134.2508,73.2302
134.1303,73.1539
134.0144,73.0711
133.9032,72.9819
133.7971,72.8866
133.6965,72.7856
133.6017,72.6792
133.5129,72.5677
133.4305,72.4513
133.3547,72.3306
133.2857,72.2059
133.2238,72.0775
133.1691,71.9459
133.1218,71.8114
133.0821,71.6745
133.0500,71.5356
133.0257,71.3952
133.0093,71.2536
133.0008,71.1113
133.0000,71.0400
133.0000,70.5600
131.0200,70.5600
131.0200,67.7500
133.0000,67.7500
133.0050,67.7166
133.0216,67.6512
133.0454,67.5880
133.0761,67.5279
133.1133,67.4716
133.1566,67.4198
133.2054,67.3732
133.2592,67.3324
133.3172,67.2978
133.3786,67.2700
133.4429,67.2492
133.5090,67.2357
133.5762,67.2297
133.6100,67.2300
Z" /> 
<path style="fill:none; 
stroke:#000000; stroke-width:0.0500; stroke-opacity:1; 
stroke-linecap:round; stroke-linejoin:round;fill:none"
d="M 174.5900,67.1700
174.6211,67.1696
174.6831,67.1753
174.7440,67.1881
174.8030,67.2080
174.8593,67.2347
174.9120,67.2678
174.9606,67.3068
175.0042,67.3512
175.0423,67.4004
175.0745,67.4537
175.1001,67.5105
175.1100,67.5400
175.1391,67.6042
175.2032,67.7296
175.2741,67.8514
175.3515,67.9692
175.4352,68.0825
175.5249,68.1912
175.6204,68.2949
175.7213,68.3932
175.8275,68.4859
175.9385,68.5726
176.0541,68.6533
176.1738,68.7275
176.2975,68.7952
176.4246,68.8560
176.5548,68.9098
176.6878,68.9565
176.8230,68.9959
176.9603,69.0279
177.0990,69.0524
177.2389,69.0694
177.3795,69.0787
177.4500,69.0800
182.3900,69.0800
182.4242,69.0839
182.4915,69.0986
182.5567,69.1209
182.6189,69.1505
182.6773,69.1871
182.7312,69.2301
182.7797,69.2790
182.8224,69.3331
182.8585,69.3918
182.8877,69.4542
182.9096,69.5195
182.9238,69.5869
182.9302,69.6555
182.9300,69.6900
182.9300,70.2200
184.8600,70.2200
184.8600,72.9900
182.5200,72.9900
182.5150,73.0238
182.4987,73.0902
182.4751,73.1543
182.4447,73.2155
182.4077,73.2730
182.3647,73.3261
182.3160,73.3742
182.2625,73.4166
182.2045,73.4529
182.1430,73.4826
182.0786,73.5054
182.0120,73.5210
181.9442,73.5292
181.9100,73.5300
173.6400,73.5300
173.5687,73.5289
173.4265,73.5198
173.2849,73.5029
173.1446,73.4780
173.0058,73.4454
172.8691,73.4051
172.7348,73.3573
172.6034,73.3021
172.4752,73.2397
172.3508,73.1702
172.2303,73.0939
172.1144,73.0111
172.0032,72.9219
171.8971,72.8266
171.7965,72.7256
171.7017,72.6192
171.6129,72.5077
171.5305,72.3913
171.4547,72.2706
171.3857,72.1459
171.3238,72.0175
171.2691,71.8859
171.2218,71.7514
171.1821,71.6145
171.1500,71.4756
171.1257,71.3352
171.1093,71.1936
171.1008,71.0513
171.1000,70.9800
171.1000,70.5000
169.1200,70.5000
169.1200,67.6900
171.1000,67.6900
171.1050,67.6566
171.1216,67.5912
171.1454,67.5280
171.1761,67.4679
171.2133,67.4116
171.2566,67.3598
171.3054,67.3132
171.3592,67.2724
171.4172,67.2378
171.4786,67.2100
171.5429,67.1892
171.6090,67.1757
171.6762,67.1697
171.7100,67.1700
Z" /> 
<path style="fill:none; 
stroke:#000000; stroke-width:0.0500; stroke-opacity:1; 
stroke-linecap:round; stroke-linejoin:round;fill:none"
d="M 155.5900,64.7200
155.6211,64.7196
155.6831,64.7253
155.7440,64.7381
155.8030,64.7580
155.8593,64.7847
155.9120,64.8178
155.9606,64.8568
156.0042,64.9012
156.0423,64.9504
156.0745,65.0037
156.1001,65.0605
156.1100,65.0900
156.1391,65.1542
156.2032,65.2796
156.2741,65.4014
156.3515,65.5192
156.4352,65.6325
156.5249,65.7412
156.6204,65.8449
156.7213,65.9432
156.8275,66.0359
156.9385,66.1226
157.0541,66.2033
157.1738,66.2775
157.2975,66.3452
157.4246,66.4060
157.5548,66.4598
157.6878,66.5065
157.8230,66.5459
157.9603,66.5779
158.0990,66.6024
158.2389,66.6194
158.3795,66.6287
158.4500,66.6300
163.3900,66.6300
163.4242,66.6339
163.4915,66.6486
163.5567,66.6709
163.6189,66.7005
163.6773,66.7371
163.7312,66.7801
163.7797,66.8290
163.8224,66.8831
163.8585,66.9418
163.8877,67.0042
163.9096,67.0695
163.9238,67.1369
163.9302,67.2055
163.9300,67.2400
163.9300,67.7700
165.8600,67.7700
165.8600,70.5400
163.5200,70.5400
163.5150,70.5738
163.4987,70.6402
163.4751,70.7043
163.4447,70.7655
163.4077,70.8230
163.3647,70.8761
163.3160,70.9242
163.2625,70.9666
163.2045,71.0029
163.1430,71.0326
163.0786,71.0554
163.0120,71.0710
162.9442,71.0792
162.9100,71.0800
154.6400,71.0800
154.5687,71.0789
154.4265,71.0698
154.2849,71.0529
154.1446,71.0280
154.0058,70.9954
153.8691,70.9552
153.7348,70.9073
153.6034,70.8521
153.4752,70.7897
153.3508,70.7202
153.2303,70.6439
153.1144,70.5611
153.0032,70.4719
152.8971,70.3766
152.7965,70.2756
152.7017,70.1692
152.6129,70.0577
152.5305,69.9413
152.4547,69.8206
152.3857,69.6959
152.3238,69.5675
152.2691,69.4359
152.2218,69.3014
152.1821,69.1645
152.1500,69.0256
152.1257,68.8852
152.1093,68.7436
152.1008,68.6013
152.1000,68.5300
152.1000,68.0500
150.1200,68.0500
150.1200,65.2400
152.1000,65.2400
152.1050,65.2066
152.1216,65.1412
152.1454,65.0780
152.1761,65.0179
152.2133,64.9616
152.2566,64.9098
152.3054,64.8632
152.3592,64.8224
152.4172,64.7878
152.4786,64.7600
152.5429,64.7392
152.6090,64.7257
152.6762,64.7197
152.7100,64.7200
Z" /> 
<path style="fill:none; 
stroke:#000000; stroke-width:0.0500; stroke-opacity:1; 
stroke-linecap:round; stroke-linejoin:round;fill:none"
d="M 174.5900,86.2300
174.6211,86.2296
174.6831,86.2353
174.7440,86.2481
174.8030,86.2680
174.8593,86.2947
174.9120,86.3278
174.9606,86.3668
175.0042,86.4112
175.0423,86.4604
175.0745,86.5137
175.1001,86.5705
175.1100,86.6000
175.1391,86.6642
175.2032,86.7896
175.2741,86.9114
175.3515,87.0292
175.4352,87.1425
175.5249,87.2512
175.6204,87.3549
175.7213,87.4532
175.8275,87.5459
175.9385,87.6326
176.0541,87.7133
176.1738,87.7875
176.2975,87.8552
176.4246,87.9160
176.5548,87.9698
176.6878,88.0165
176.8230,88.0559
176.9603,88.0879
177.0990,88.1124
177.2389,88.1294
177.3795,88.1387
177.4500,88.1400
182.3900,88.1400
182.4242,88.1439
182.4915,88.1586
182.5567,88.1809
182.6189,88.2105
182.6773,88.2471
182.7312,88.2901
182.7797,88.3390
182.8224,88.3931
182.8585,88.4518
182.8877,88.5142
182.9096,88.5795
182.9238,88.6469
182.9302,88.7155
182.9300,88.7500
182.9300,89.2800
184.8600,89.2800
184.8600,92.0500
182.5200,92.0500
182.5150,92.0838
182.4987,92.1502
182.4751,92.2143
182.4447,92.2755
182.4077,92.3330
182.3647,92.3861
182.3160,92.4342
182.2625,92.4766
182.2045,92.5129
182.1430,92.5426
182.0786,92.5654
182.0120,92.5810
181.9442,92.5892
181.9100,92.5900
173.6400,92.5900
173.5687,92.5889
173.4265,92.5798
173.2849,92.5629
173.1446,92.5380
173.0058,92.5054
172.8691,92.4651
172.7348,92.4173
172.6034,92.3621
172.4752,92.2997
172.3508,92.2302
172.2303,92.1539
172.1144,92.0711
172.0032,91.9819
171.8971,91.8866
171.7965,91.7856
171.7017,91.6792
171.6129,91.5677
171.5305,91.4513
171.4547,91.3306
171.3857,91.2059
171.3238,91.0775
171.2691,90.9459
171.2218,90.8114
171.1821,90.6745
171.1500,90.5356
171.1257,90.3952
171.1093,90.2536
171.1008,90.1113
171.1000,90.0400
171.1000,89.5600
169.1200,89.5600
169.1200,86.7500
171.1000,86.7500
171.1050,86.7166
171.1216,86.6512
171.1454,86.5880
171.1761,86.5279
171.2133,86.4716
171.2566,86.4198
171.3054,86.3732
171.3592,86.3324
171.4172,86.2978
171.4786,86.2700
171.5429,86.2492
171.6090,86.2357
171.6762,86.2297
171.7100,86.2300
Z" /> 
<path style="fill:none; 
stroke:#000000; stroke-width:0.0500; stroke-opacity:1; 
stroke-linecap:round; stroke-linejoin:round;fill:none"
d="M 212.6900,53.0300
212.7211,53.0296
212.7831,53.0353
212.8440,53.0481
212.9030,53.0680
212.9593,53.0947
213.0120,53.1278
213.0606,53.1668
213.1042,53.2112
213.1423,53.2604
213.1745,53.3137
213.2001,53.3705
213.2100,53.4000
213.2391,53.4642
213.3032,53.5896
213.3741,53.7114
213.4515,53.8292
213.5352,53.9425
213.6249,54.0512
213.7204,54.1549
213.8213,54.2532
213.9275,54.3459
214.0385,54.4326
214.1541,54.5133
214.2738,54.5875
214.3975,54.6552
214.5246,54.7160
214.6548,54.7698
214.7878,54.8165
214.9230,54.8559
215.0603,54.8879
215.1990,54.9124
215.3389,54.9294
215.4795,54.9387
215.5500,54.9400
220.4900,54.9400
220.5242,54.9439
220.5915,54.9586
220.6567,54.9809
220.7189,55.0105
220.7773,55.0471
220.8312,55.0901
220.8797,55.1390
220.9224,55.1931
220.9585,55.2518
220.9877,55.3142
221.0096,55.3795
221.0238,55.4469
221.0302,55.5155
221.0300,55.5500
221.0300,56.0800
222.9600,56.0800
222.9600,58.8500
220.6200,58.8500
220.6150,58.8838
220.5987,58.9502
220.5751,59.0143
220.5447,59.0755
220.5077,59.1330
220.4647,59.1861
220.4160,59.2342
220.3625,59.2766
220.3045,59.3129
220.2430,59.3426
220.1786,59.3654
220.1120,59.3810
220.0442,59.3892
220.0100,59.3900
211.7400,59.3900
211.6687,59.3889
211.5265,59.3798
211.3849,59.3629
211.2446,59.3380
211.1058,59.3054
210.9691,59.2651
210.8348,59.2173
210.7034,59.1621
210.5752,59.0997
210.4508,59.0302
210.3303,58.9539
210.2144,58.8711
210.1032,58.7819
209.9971,58.6866
209.8965,58.5856
209.8017,58.4792
209.7129,58.3677
209.6305,58.2513
209.5547,58.1306
209.4857,58.0059
209.4238,57.8775
209.3691,57.7459
209.3218,57.6114
209.2821,57.4745
209.2500,57.3356
209.2257,57.1952
209.2093,57.0536
209.2008,56.9113
209.2000,56.8400
209.2000,56.3600
207.2200,56.3600
207.2200,53.5500
209.2000,53.5500
209.2050,53.5166
209.2216,53.4512
209.2454,53.3880
209.2761,53.3279
209.3133,53.2716
209.3566,53.2198
209.4054,53.1732
209.4592,53.1324
209.5172,53.0978
209.5786,53.0700
209.6429,53.0492
209.7090,53.0357
209.7762,53.0297
209.8100,53.0300
Z" /> 
<path style="fill:none; 
stroke:#000000; stroke-width:0.0500; stroke-opacity:1; 
stroke-linecap:round; stroke-linejoin:round;fill:none"
d="M 174.5900,124.4300
174.6211,124.4296
174.6831,124.4353
174.7440,124.4481
174.8030,124.4680
174.8593,124.4947
174.9120,124.5278
174.9606,124.5668
175.0042,124.6112
175.0423,124.6604
175.0745,124.7137
175.1001,124.7705
175.1100,124.8000
175.1391,124.8642
175.2032,124.9896
175.2741,125.1114
175.3515,125.2292
175.4352,125.3425
175.5249,125.4512
175.6204,125.5549
175.7213,125.6532
175.8275,125.7459
175.9385,125.8326
176.0541,125.9133
176.1738,125.9875
176.2975,126.0552
176.4246,126.1160
176.5548,126.1698
176.6878,126.2165
176.8230,126.2559
176.9603,126.2879
177.0990,126.3124
177.2389,126.3294
177.3795,126.3387
177.4500,126.3400
182.3900,126.3400
182.4242,126.3439
182.4915,126.3586
182.5567,126.3809
182.6189,126.4105
182.6773,126.4471
182.7312,126.4901
182.7797,126.5390
182.8224,126.5931
182.8585,126.6518
182.8877,126.7142
182.9096,126.7795
182.9238,126.8469
182.9302,126.9155
182.9300,126.9500
182.9300,127.4800
184.8600,127.4800
184.8600,130.2500
182.5200,130.2500
182.5150,130.2838
182.4987,130.3502
182.4751,130.4143
182.4447,130.4755
182.4077,130.5330
182.3647,130.5861
182.3160,130.6342
182.2625,130.6766
182.2045,130.7129
182.1430,130.7426
182.0786,130.7654
182.0120,130.7810
181.9442,130.7892
181.9100,130.7900
173.6400,130.7900
173.5687,130.7889
173.4265,130.7798
173.2849,130.7629
173.1446,130.7380
173.0058,130.7054
172.8691,130.6651
172.7348,130.6173
172.6034,130.5621
172.4752,130.4997
172.3508,130.4302
172.2303,130.3539
172.1144,130.2711
172.0032,130.1819
171.8971,130.0866
171.7965,129.9856
171.7017,129.8792
171.6129,129.7677
171.5305,129.6513
171.4547,129.5306
171.3857,129.4059
171.3238,129.2775
171.2691,129.1459
171.2218,129.0114
171.1821,128.8745
171.1500,128.7356
171.1257,128.5952
171.1093,128.4536
171.1008,128.3113
171.1000,128.2400
171.1000,127.7600
169.1200,127.7600
169.1200,124.9500
171.1000,124.9500
171.1050,124.9166
171.1216,124.8512
171.1454,124.7880
171.1761,124.7279
171.2133,124.6716
171.2566,124.6198
171.3054,124.5732
171.3592,124.5324
171.4172,124.4978
171.4786,124.4700
171.5429,124.4492
171.6090,124.4357
171.6762,124.4297
171.7100,124.4300
Z" /> 
<path style="fill:none; 
stroke:#000000; stroke-width:0.0500; stroke-opacity:1; 
stroke-linecap:round; stroke-linejoin:round;fill:none"
d="M 193.6900,71.9300
193.7211,71.9296
193.7831,71.9353
193.8441,71.9481
193.9030,71.9680
193.9593,71.9947
194.0121,72.0278
194.0606,72.0668
194.1042,72.1112
194.1424,72.1604
194.1745,72.2137
194.2001,72.2705
194.2100,72.3000
194.2391,72.3642
194.3033,72.4896
194.3741,72.6114
194.4515,72.7292
194.5352,72.8425
194.6249,72.9512
194.7204,73.0549
194.8214,73.1532
194.9275,73.2459
195.0385,73.3326
195.1541,73.4133
195.2739,73.4875
195.3975,73.5552
195.5246,73.6160
195.6548,73.6698
195.7878,73.7165
195.9231,73.7559
196.0603,73.7879
196.1991,73.8124
196.3389,73.8294
196.4796,73.8387
196.5500,73.8400
201.4900,73.8400
201.5242,73.8439
201.5916,73.8586
201.6567,73.8809
201.7190,73.9105
201.7774,73.9471
201.8312,73.9901
201.8798,74.0390
201.9224,74.0931
201.9585,74.1518
201.9877,74.2142
202.0096,74.2795
202.0238,74.3469
202.0302,74.4155
202.0300,74.4500
202.0300,74.9800
203.9600,74.9800
203.9600,77.7500
201.6200,77.7500
201.6150,77.7838
201.5987,77.8502
201.5751,77.9143
201.5447,77.9755
201.5077,78.0330
201.4647,78.0861
201.4161,78.1342
201.3625,78.1766
201.3046,78.2129
201.2430,78.2426
201.1786,78.2654
201.1120,78.2810
201.0442,78.2892
201.0100,78.2900
192.7400,78.2900
192.6687,78.2889
192.5265,78.2798
192.3850,78.2629
192.2446,78.2380
192.1058,78.2054
191.9691,78.1651
191.8348,78.1173
191.7034,78.0621
191.5752,77.9997
191.4508,77.9302
191.3304,77.8539
191.2144,77.7711
191.1032,77.6819
190.9971,77.5866
190.8965,77.4856
190.8017,77.3792
190.7129,77.2677
190.6305,77.1513
190.5547,77.0306
190.4857,76.9059
190.4238,76.7775
190.3691,76.6459
190.3218,76.5114
190.2821,76.3745
190.2500,76.2356
190.2257,76.0952
190.2093,75.9536
190.2008,75.8113
190.2000,75.7400
190.2000,75.2600
188.2200,75.2600
188.2200,72.4500
190.2000,72.4500
190.2050,72.4166
190.2216,72.3512
190.2454,72.2880
190.2761,72.2279
190.3133,72.1716
190.3566,72.1198
190.4055,72.0732
190.4592,72.0324
190.5172,71.9978
190.5787,71.9700
190.6429,71.9492
190.7090,71.9357
190.7762,71.9297
190.8100,71.9300
Z" /> 
<path style="fill:none; 
stroke:#000000; stroke-width:0.0500; stroke-opacity:1; 
stroke-linecap:round; stroke-linejoin:round;fill:none"
d="M 174.5900,105.3300
174.6211,105.3296
174.6831,105.3353
174.7440,105.3481
174.8030,105.3680
174.8593,105.3947
174.9120,105.4278
174.9606,105.4668
175.0042,105.5112
175.0423,105.5604
175.0745,105.6137
175.1001,105.6705
175.1100,105.7000
175.1391,105.7642
175.2032,105.8896
175.2741,106.0114
175.3515,106.1292
175.4352,106.2425
175.5249,106.3512
175.6204,106.4549
175.7213,106.5532
175.8275,106.6459
175.9385,106.7326
176.0541,106.8133
176.1738,106.8875
176.2975,106.9552
176.4246,107.0160
176.5548,107.0698
176.6878,107.1165
176.8230,107.1559
176.9603,107.1879
177.0990,107.2124
177.2389,107.2294
177.3795,107.2387
177.4500,107.2400
182.3900,107.2400
182.4242,107.2439
182.4915,107.2586
182.5567,107.2809
182.6189,107.3105
182.6773,107.3471
182.7312,107.3901
182.7797,107.4390
182.8224,107.4931
182.8585,107.5518
182.8877,107.6142
182.9096,107.6795
182.9238,107.7469
182.9302,107.8155
182.9300,107.8500
182.9300,108.3800
184.8600,108.3800
184.8600,111.1500
182.5200,111.1500
182.5150,111.1838
182.4987,111.2502
182.4751,111.3143
182.4447,111.3755
182.4077,111.4330
182.3647,111.4861
182.3160,111.5342
182.2625,111.5766
182.2045,111.6129
182.1430,111.6426
182.0786,111.6654
182.0120,111.6810
181.9442,111.6892
181.9100,111.6900
173.6400,111.6900
173.5687,111.6889
173.4265,111.6798
173.2849,111.6629
173.1446,111.6380
173.0058,111.6054
172.8691,111.5651
172.7348,111.5173
172.6034,111.4621
172.4752,111.3997
172.3508,111.3302
172.2303,111.2539
172.1144,111.1711
172.0032,111.0819
171.8971,110.9866
171.7965,110.8856
171.7017,110.7792
171.6129,110.6677
171.5305,110.5513
171.4547,110.4306
171.3857,110.3059
171.3238,110.1775
171.2691,110.0459
171.2218,109.9114
171.1821,109.7745
171.1500,109.6356
171.1257,109.4952
171.1093,109.3536
171.1008,109.2113
171.1000,109.1400
171.1000,108.6600
169.1200,108.6600
169.1200,105.8500
171.1000,105.8500
171.1050,105.8166
171.1216,105.7512
171.1454,105.6880
171.1761,105.6279
171.2133,105.5716
171.2566,105.5198
171.3054,105.4732
171.3592,105.4324
171.4172,105.3978
171.4786,105.3700
171.5429,105.3492
171.6090,105.3357
171.6762,105.3297
171.7100,105.3300
Z" /> 
<path style="fill:none; 
stroke:#000000; stroke-width:0.0500; stroke-opacity:1; 
stroke-linecap:round; stroke-linejoin:round;fill:none"
d="M 193.6900,91.1300
193.7211,91.1296
193.7831,91.1353
193.8441,91.1481
193.9030,91.1680
193.9593,91.1947
194.0121,91.2278
194.0606,91.2668
194.1042,91.3112
194.1424,91.3604
194.1745,91.4137
194.2001,91.4705
194.2100,91.5000
194.2391,91.5642
194.3033,91.6896
194.3741,91.8114
194.4515,91.9292
194.5352,92.0425
194.6249,92.1512
194.7204,92.2549
194.8214,92.3532
194.9275,92.4459
195.0385,92.5326
195.1541,92.6133
195.2739,92.6875
195.3975,92.7552
195.5246,92.8160
195.6548,92.8698
195.7878,92.9165
195.9231,92.9559
196.0603,92.9879
196.1991,93.0124
196.3389,93.0294
196.4796,93.0387
196.5500,93.0400
201.4900,93.0400
201.5242,93.0439
201.5916,93.0586
201.6567,93.0809
201.7190,93.1105
201.7774,93.1471
201.8312,93.1901
201.8798,93.2390
201.9224,93.2931
201.9585,93.3518
201.9877,93.4142
202.0096,93.4795
202.0238,93.5469
202.0302,93.6155
202.0300,93.6500
202.0300,94.1800
203.9600,94.1800
203.9600,96.9500
201.6200,96.9500
201.6150,96.9838
201.5987,97.0502
201.5751,97.1143
201.5447,97.1755
201.5077,97.2330
201.4647,97.2861
201.4161,97.3342
201.3625,97.3766
201.3046,97.4129
201.2430,97.4426
201.1786,97.4654
201.1120,97.4810
201.0442,97.4892
201.0100,97.4900
192.7400,97.4900
192.6687,97.4889
192.5265,97.4798
192.3850,97.4629
192.2446,97.4380
192.1058,97.4054
191.9691,97.3651
191.8348,97.3173
191.7034,97.2621
191.5752,97.1997
191.4508,97.1302
191.3304,97.0539
191.2144,96.9711
191.1032,96.8819
190.9971,96.7866
190.8965,96.6856
190.8017,96.5792
190.7129,96.4677
190.6305,96.3513
190.5547,96.2306
190.4857,96.1059
190.4238,95.9775
190.3691,95.8459
190.3218,95.7114
190.2821,95.5745
190.2500,95.4356
190.2257,95.2952
190.2093,95.1536
190.2008,95.0113
190.2000,94.9400
190.2000,94.4600
188.2200,94.4600
188.2200,91.6500
190.2000,91.6500
190.2050,91.6166
190.2216,91.5512
190.2454,91.4880
190.2761,91.4279
190.3133,91.3716
190.3566,91.3198
190.4055,91.2732
190.4592,91.2324
190.5172,91.1978
190.5787,91.1700
190.6429,91.1492
190.7090,91.1357
190.7762,91.1297
190.8100,91.1300
Z" /> 
<path style="fill:none; 
stroke:#000000; stroke-width:0.0500; stroke-opacity:1; 
stroke-linecap:round; stroke-linejoin:round;fill:none"
d="M 155.5900,121.9200
155.6211,121.9196
155.6831,121.9253
155.7440,121.9381
155.8030,121.9580
155.8593,121.9847
155.9120,122.0178
155.9606,122.0568
156.0042,122.1012
156.0423,122.1504
156.0745,122.2037
156.1001,122.2605
156.1100,122.2900
156.1391,122.3542
156.2032,122.4796
156.2741,122.6014
156.3515,122.7192
156.4352,122.8325
156.5249,122.9412
156.6204,123.0449
156.7213,123.1432
156.8275,123.2359
156.9385,123.3226
157.0541,123.4033
157.1738,123.4775
157.2975,123.5452
157.4246,123.6060
157.5548,123.6598
157.6878,123.7065
157.8230,123.7459
157.9603,123.7779
158.0990,123.8024
158.2389,123.8194
158.3795,123.8287
158.4500,123.8300
163.3900,123.8300
163.4242,123.8339
163.4915,123.8486
163.5567,123.8709
163.6189,123.9005
163.6773,123.9371
163.7312,123.9801
163.7797,124.0290
163.8224,124.0831
163.8585,124.1418
163.8877,124.2042
163.9096,124.2695
163.9238,124.3369
163.9302,124.4055
163.9300,124.4400
163.9300,124.9700
165.8600,124.9700
165.8600,127.7400
163.5200,127.7400
163.5150,127.7738
163.4987,127.8402
163.4751,127.9043
163.4447,127.9655
163.4077,128.0230
163.3647,128.0761
163.3160,128.1242
163.2625,128.1666
163.2045,128.2029
163.1430,128.2326
163.0786,128.2554
163.0120,128.2710
162.9442,128.2792
162.9100,128.2800
154.6400,128.2800
154.5687,128.2789
154.4265,128.2698
154.2849,128.2529
154.1446,128.2280
154.0058,128.1954
153.8691,128.1551
153.7348,128.1073
153.6034,128.0521
153.4752,127.9897
153.3508,127.9202
153.2303,127.8439
153.1144,127.7611
153.0032,127.6719
152.8971,127.5766
152.7965,127.4756
152.7017,127.3692
152.6129,127.2577
152.5305,127.1413
152.4547,127.0206
152.3857,126.8959
152.3238,126.7675
152.2691,126.6359
152.2218,126.5014
152.1821,126.3645
152.1500,126.2256
152.1257,126.0852
152.1093,125.9436
152.1008,125.8013
152.1000,125.7300
152.1000,125.2500
150.1200,125.2500
150.1200,122.4400
152.1000,122.4400
152.1050,122.4066
152.1216,122.3412
152.1454,122.2780
152.1761,122.2179
152.2133,122.1616
152.2566,122.1098
152.3054,122.0632
152.3592,122.0224
152.4172,121.9878
152.4786,121.9600
152.5429,121.9392
152.6090,121.9257
152.6762,121.9197
152.7100,121.9200
Z" /> 
<path style="fill:none; 
stroke:#000000; stroke-width:0.0500; stroke-opacity:1; 
stroke-linecap:round; stroke-linejoin:round;fill:none"
d="M 155.5900,83.8200
155.6211,83.8196
155.6831,83.8253
155.7441,83.8381
155.8030,83.8580
155.8593,83.8847
155.9121,83.9178
155.9606,83.9568
156.0042,84.0012
156.0424,84.0504
156.0745,84.1037
156.1001,84.1605
156.1100,84.1900
156.1391,84.2542
156.2033,84.3796
156.2741,84.5014
156.3515,84.6192
156.4352,84.7325
156.5249,84.8412
156.6204,84.9449
156.7214,85.0432
156.8275,85.1359
156.9385,85.2226
157.0541,85.3033
157.1739,85.3775
157.2975,85.4452
157.4246,85.5060
157.5548,85.5598
157.6878,85.6065
157.8231,85.6459
157.9603,85.6779
158.0991,85.7024
158.2389,85.7194
158.3796,85.7287
158.4500,85.7300
163.3900,85.7300
163.4242,85.7339
163.4916,85.7486
163.5567,85.7709
163.6190,85.8005
163.6774,85.8371
163.7312,85.8801
163.7798,85.9290
163.8224,85.9831
163.8585,86.0418
163.8877,86.1042
163.9096,86.1695
163.9238,86.2369
163.9302,86.3055
163.9300,86.3400
163.9300,86.8700
165.8600,86.8700
165.8600,89.6400
163.5200,89.6400
163.5150,89.6738
163.4987,89.7402
163.4751,89.8043
163.4447,89.8655
163.4077,89.9230
163.3647,89.9761
163.3161,90.0242
163.2625,90.0666
163.2046,90.1029
163.1430,90.1326
163.0786,90.1554
163.0120,90.1710
162.9442,90.1792
162.9100,90.1800
154.6400,90.1800
154.5687,90.1789
154.4265,90.1698
154.2849,90.1529
154.1446,90.1280
154.0058,90.0954
153.8691,90.0551
153.7348,90.0073
153.6034,89.9521
153.4752,89.8897
153.3508,89.8202
153.2304,89.7439
153.1144,89.6611
153.0032,89.5719
152.8971,89.4766
152.7965,89.3756
152.7017,89.2692
152.6129,89.1577
152.5305,89.0413
152.4547,88.9206
152.3857,88.7959
152.3238,88.6675
152.2691,88.5359
152.2218,88.4014
152.1821,88.2645
152.1500,88.1256
152.1257,87.9852
152.1093,87.8436
152.1008,87.7013
152.1000,87.6300
152.1000,87.1500
150.1200,87.1500
150.1200,84.3400
152.1000,84.3400
152.1050,84.3066
152.1216,84.2412
152.1454,84.1780
152.1761,84.1179
152.2133,84.0616
152.2566,84.0098
152.3055,83.9632
152.3592,83.9224
152.4172,83.8878
152.4787,83.8600
152.5429,83.8392
152.6090,83.8257
152.6762,83.8197
152.7100,83.8200
Z" /> 
<path style="fill:none; 
stroke:#000000; stroke-width:0.0500; stroke-opacity:1; 
stroke-linecap:round; stroke-linejoin:round;fill:none"
d="M 136.4900,48.1300
136.5211,48.1296
136.5831,48.1353
136.6440,48.1481
136.7030,48.1680
136.7593,48.1947
136.8120,48.2278
136.8606,48.2668
136.9042,48.3112
136.9423,48.3604
136.9745,48.4137
137.0001,48.4705
137.0100,48.5000
137.0391,48.5642
137.1032,48.6896
137.1741,48.8114
137.2515,48.9292
137.3352,49.0425
137.4249,49.1512
137.5204,49.2549
137.6213,49.3532
137.7275,49.4459
137.8385,49.5326
137.9541,49.6133
138.0738,49.6875
138.1975,49.7552
138.3246,49.8160
138.4548,49.8698
138.5878,49.9165
138.7230,49.9559
138.8603,49.9879
138.9990,50.0124
139.1389,50.0294
139.2795,50.0387
139.3500,50.0400
144.2900,50.0400
144.3242,50.0439
144.3915,50.0586
144.4567,50.0809
144.5189,50.1105
144.5773,50.1471
144.6312,50.1901
144.6797,50.2390
144.7224,50.2931
144.7585,50.3518
144.7877,50.4142
144.8096,50.4795
144.8238,50.5469
144.8302,50.6155
144.8300,50.6500
144.8300,51.1800
146.7600,51.1800
146.7600,53.9500
144.4200,53.9500
144.4150,53.9838
144.3987,54.0502
144.3751,54.1143
144.3447,54.1755
144.3077,54.2330
144.2647,54.2861
144.2160,54.3342
144.1625,54.3766
144.1045,54.4129
144.0430,54.4426
143.9786,54.4654
143.9120,54.4810
143.8442,54.4892
143.8100,54.4900
135.5400,54.4900
135.4687,54.4889
135.3265,54.4798
135.1849,54.4629
135.0446,54.4380
134.9058,54.4054
134.7691,54.3651
134.6348,54.3173
134.5034,54.2621
134.3752,54.1997
134.2508,54.1302
134.1303,54.0539
134.0144,53.9711
133.9032,53.8819
133.7971,53.7866
133.6965,53.6856
133.6017,53.5792
133.5129,53.4677
133.4305,53.3513
133.3547,53.2306
133.2857,53.1059
133.2238,52.9775
133.1691,52.8459
133.1218,52.7114
133.0821,52.5745
133.0500,52.4356
133.0257,52.2952
133.0093,52.1536
133.0008,52.0113
133.0000,51.9400
133.0000,51.4600
131.0200,51.4600
131.0200,48.6500
133.0000,48.6500
133.0050,48.6166
133.0216,48.5512
133.0454,48.4880
133.0761,48.4279
133.1133,48.3716
133.1566,48.3198
133.2054,48.2732
133.2592,48.2324
133.3172,48.1978
133.3786,48.1700
133.4429,48.1492
133.5090,48.1357
133.5762,48.1297
133.6100,48.1300
Z" /> 
<path d="M115.1628 136.6381
L124.6400 134.0987
" />
<path d="M115.6875 138.5962
L115.1628 136.6381
" />
<path d="M124.6400 134.0987
L125.1647 136.0568
" />
<path d="M125.1647 136.0568
L115.6874 138.5963
" />
<path style="fill:none; 
stroke:#000000; stroke-width:0.0500; stroke-opacity:1; 
stroke-linecap:round; stroke-linejoin:round;fill:none"
d="M 136.4900,105.3300
136.5211,105.3296
136.5831,105.3353
136.6440,105.3481
136.7030,105.3680
136.7593,105.3947
136.8120,105.4278
136.8606,105.4668
136.9042,105.5112
136.9423,105.5604
136.9745,105.6137
137.0001,105.6705
137.0100,105.7000
137.0391,105.7642
137.1032,105.8896
137.1741,106.0114
137.2515,106.1292
137.3352,106.2425
137.4249,106.3512
137.5204,106.4549
137.6213,106.5532
137.7275,106.6459
137.8385,106.7326
137.9541,106.8133
138.0738,106.8875
138.1975,106.9552
138.3246,107.0160
138.4548,107.0698
138.5878,107.1165
138.7230,107.1559
138.8603,107.1879
138.9990,107.2124
139.1389,107.2294
139.2795,107.2387
139.3500,107.2400
144.2900,107.2400
144.3242,107.2439
144.3915,107.2586
144.4567,107.2809
144.5189,107.3105
144.5773,107.3471
144.6312,107.3901
144.6797,107.4390
144.7224,107.4931
144.7585,107.5518
144.7877,107.6142
144.8096,107.6795
144.8238,107.7469
144.8302,107.8155
144.8300,107.8500
144.8300,108.3800
146.7600,108.3800
146.7600,111.1500
144.4200,111.1500
144.4150,111.1838
144.3987,111.2502
144.3751,111.3143
144.3447,111.3755
144.3077,111.4330
144.2647,111.4861
144.2160,111.5342
144.1625,111.5766
144.1045,111.6129
144.0430,111.6426
143.9786,111.6654
143.9120,111.6810
143.8442,111.6892
143.8100,111.6900
135.5400,111.6900
135.4687,111.6889
135.3265,111.6798
135.1849,111.6629
135.0446,111.6380
134.9058,111.6054
134.7691,111.5651
134.6348,111.5173
134.5034,111.4621
134.3752,111.3997
134.2508,111.3302
134.1303,111.2539
134.0144,111.1711
133.9032,111.0819
133.7971,110.9866
133.6965,110.8856
133.6017,110.7792
133.5129,110.6677
133.4305,110.5513
133.3547,110.4306
133.2857,110.3059
133.2238,110.1775
133.1691,110.0459
133.1218,109.9114
133.0821,109.7745
133.0500,109.6356
133.0257,109.4952
133.0093,109.3536
133.0008,109.2113
133.0000,109.1400
133.0000,108.6600
131.0200,108.6600
131.0200,105.8500
133.0000,105.8500
133.0050,105.8166
133.0216,105.7512
133.0454,105.6880
133.0761,105.6279
133.1133,105.5716
133.1566,105.5198
133.2054,105.4732
133.2592,105.4324
133.3172,105.3978
133.3786,105.3700
133.4429,105.3492
133.5090,105.3357
133.5762,105.3297
133.6100,105.3300
Z" /> 
<path d="M153.6496 91.6940
L163.4611 91.6940
" />
<path d="M153.6496 93.7212
L153.6496 91.6940
" />
<path d="M163.4611 91.6940
L163.4611 93.7212
" />
<path d="M163.4611 93.7212
L153.6495 93.7212
" />
<path d="M191.7496 99.0940
L201.5611 99.0940
" />
<path d="M191.7496 101.1212
L191.7496 99.0940
" />
<path d="M201.5611 99.0940
L201.5611 101.1212
" />
<path d="M201.5611 101.1212
L191.7495 101.1212
" />
<path d="M210.7996 99.0940
L220.6111 99.0940
" />
<path d="M210.7996 101.1212
L210.7996 99.0940
" />
<path d="M220.6111 99.0940
L220.6111 101.1212
" />
<path d="M220.6111 101.1212
L210.7995 101.1212
" />
<path d="M134.9250 130.9527
L144.7366 130.9527
" />
<path d="M134.9250 132.9800
L134.9250 130.9527
" />
<path d="M144.7366 130.9527
L144.7366 132.9800
" />
<path d="M144.7366 132.9800
L134.9249 132.9800
" />
<path d="M153.6496 129.7940
L163.4611 129.7940
" />
<path d="M153.6496 131.8212
L153.6496 129.7940
" />
<path d="M163.4611 129.7940
L163.4611 131.8212
" />
<path d="M163.4611 131.8212
L153.6495 131.8212
" />
<path d="M210.7996 118.1440
L220.6111 118.1440
" />
<path d="M210.7996 120.1712
L210.7996 118.1440
" />
<path d="M220.6111 118.1440
L220.6111 120.1712
" />
<path d="M220.6111 120.1712
L210.7995 120.1712
" />
<path d="M134.9441 113.1557
L144.7556 113.1557
" />
<path d="M134.9441 115.1830
L134.9441 113.1557
" />
<path d="M144.7556 113.1557
L144.7556 115.1830
" />
<path d="M144.7556 115.1830
L134.9440 115.1830
" />
<path d="M153.6496 110.7440
L163.4611 110.7440
" />
<path d="M153.6496 112.7712
L153.6496 110.7440
" />
<path d="M163.4611 110.7440
L163.4611 112.7712
" />
<path d="M163.4611 112.7712
L153.6495 112.7712
" />
<path d="M172.6996 113.2440
L182.5111 113.2440
" />
<path d="M172.6996 115.2712
L172.6996 113.2440
" />
<path d="M182.5111 113.2440
L182.5111 115.2712
" />
<path d="M182.5111 115.2712
L172.6995 115.2712
" />
<path d="M191.7821 118.0290
L201.5936 118.0290
" />
<path d="M191.7821 120.0562
L191.7821 118.0290
" />
<path d="M201.5936 118.0290
L201.5936 120.0562
" />
<path d="M201.5936 120.0562
L191.7820 120.0562
" />
<path d="M134.9441 94.1058
L144.7556 94.1058
" />
<path d="M134.9441 96.1330
L134.9441 94.1058
" />
<path d="M144.7556 94.1058
L144.7556 96.1330
" />
<path d="M144.7556 96.1330
L134.9440 96.1330
" />
<path d="M172.6850 131.0027
L182.4966 131.0027
" />
<path d="M172.6850 133.0300
L172.6850 131.0027
" />
<path d="M182.4966 131.0027
L182.4966 133.0300
" />
<path d="M182.4966 133.0300
L172.6849 133.0300
" />
<path style="fill:none; 
stroke:#000000; stroke-width:0.0500; stroke-opacity:1; 
stroke-linecap:round; stroke-linejoin:round;fill:none"
d="M 136.4900,124.3300
136.5211,124.3296
136.5831,124.3353
136.6440,124.3481
136.7030,124.3680
136.7593,124.3947
136.8120,124.4278
136.8606,124.4668
136.9042,124.5112
136.9423,124.5604
136.9745,124.6137
137.0001,124.6705
137.0100,124.7000
137.0391,124.7642
137.1032,124.8896
137.1741,125.0114
137.2515,125.1292
137.3352,125.2425
137.4249,125.3512
137.5204,125.4549
137.6213,125.5532
137.7275,125.6459
137.8385,125.7326
137.9541,125.8133
138.0738,125.8875
138.1975,125.9552
138.3246,126.0160
138.4548,126.0698
138.5878,126.1165
138.7230,126.1559
138.8603,126.1879
138.9990,126.2124
139.1389,126.2294
139.2795,126.2387
139.3500,126.2400
144.2900,126.2400
144.3242,126.2439
144.3915,126.2586
144.4567,126.2809
144.5189,126.3105
144.5773,126.3471
144.6312,126.3901
144.6797,126.4390
144.7224,126.4931
144.7585,126.5518
144.7877,126.6142
144.8096,126.6795
144.8238,126.7469
144.8302,126.8155
144.8300,126.8500
144.8300,127.3800
146.7600,127.3800
146.7600,130.1500
144.4200,130.1500
144.4150,130.1838
144.3987,130.2502
144.3751,130.3143
144.3447,130.3755
144.3077,130.4330
144.2647,130.4861
144.2160,130.5342
144.1625,130.5766
144.1045,130.6129
144.0430,130.6426
143.9786,130.6654
143.9120,130.6810
143.8442,130.6892
143.8100,130.6900
135.5400,130.6900
135.4687,130.6889
135.3265,130.6798
135.1849,130.6629
135.0446,130.6380
134.9058,130.6054
134.7691,130.5651
134.6348,130.5173
134.5034,130.4621
134.3752,130.3997
134.2508,130.3302
134.1303,130.2539
134.0144,130.1711
133.9032,130.0819
133.7971,129.9866
133.6965,129.8856
133.6017,129.7792
133.5129,129.6677
133.4305,129.5513
133.3547,129.4306
133.2857,129.3059
133.2238,129.1775
133.1691,129.0459
133.1218,128.9114
133.0821,128.7745
133.0500,128.6356
133.0257,128.4952
133.0093,128.3536
133.0008,128.2113
133.0000,128.1400
133.0000,127.6600
131.0200,127.6600
131.0200,124.8500
133.0000,124.8500
133.0050,124.8166
133.0216,124.7512
133.0454,124.6880
133.0761,124.6279
133.1133,124.5716
133.1566,124.5198
133.2054,124.4732
133.2592,124.4324
133.3172,124.3978
133.3786,124.3700
133.4429,124.3492
133.5090,124.3357
133.5762,124.3297
133.6100,124.3300
Z" /> 
<path d="M137.8353 41.1306
L137.8353 44.1100
" />
<path d="M137.8353 44.1100
L141.2293 44.1100
" />
<path d="M141.2293 44.1100
L141.2368 41.1314
" />
<path d="M141.2368 41.1314
L137.8353 41.1306
" />
<path d="M114.3489 122.6907
L115.1200 125.5686
" />
<path d="M115.1200 125.5686
L118.3984 124.6902
" />
<path d="M117.6347 121.8111
L114.3489 122.6907
" />
<path d="M118.3984 124.6902
L117.6347 121.8111
" />
<path d="M195.0353 84.1306
L195.0353 87.1100
" />
<path d="M195.0353 87.1100
L198.4293 87.1100
" />
<path d="M198.4293 87.1100
L198.4368 84.1314
" />
<path d="M198.4368 84.1314
L195.0353 84.1306
" />
<path d="M92.4402 128.7527
L93.7928 131.4075
" />
<path d="M93.7928 131.4075
L96.8169 129.8666
" />
<path d="M95.4713 127.2092
L92.4402 128.7527
" />
<path d="M96.8169 129.8666
L95.4713 127.2092
" />
<path style="fill:none; 
stroke:#000000; stroke-width:0.0500; stroke-opacity:1; 
stroke-linecap:round; stroke-linejoin:round;fill:none"
d="M 117.4900,107.7300
117.5211,107.7296
117.5831,107.7353
117.6440,107.7481
117.7030,107.7680
117.7593,107.7947
117.8120,107.8278
117.8606,107.8668
117.9042,107.9112
117.9423,107.9604
117.9745,108.0137
118.0001,108.0705
118.0100,108.1000
118.0391,108.1642
118.1032,108.2896
118.1741,108.4114
118.2515,108.5292
118.3352,108.6425
118.4249,108.7512
118.5204,108.8549
118.6213,108.9532
118.7275,109.0459
118.8385,109.1326
118.9541,109.2133
119.0738,109.2875
119.1975,109.3552
119.3246,109.4160
119.4548,109.4698
119.5878,109.5165
119.7230,109.5559
119.8603,109.5879
119.9990,109.6124
120.1389,109.6294
120.2795,109.6387
120.3500,109.6400
125.2900,109.6400
125.3242,109.6439
125.3915,109.6586
125.4567,109.6809
125.5189,109.7105
125.5773,109.7471
125.6312,109.7901
125.6797,109.8390
125.7224,109.8931
125.7585,109.9518
125.7877,110.0142
125.8096,110.0795
125.8238,110.1469
125.8302,110.2155
125.8300,110.2500
125.8300,110.7800
127.7600,110.7800
127.7600,113.5500
125.4200,113.5500
125.4150,113.5838
125.3987,113.6502
125.3751,113.7143
125.3447,113.7755
125.3077,113.8330
125.2647,113.8861
125.2160,113.9342
125.1625,113.9766
125.1045,114.0129
125.0430,114.0426
124.9786,114.0654
124.9120,114.0810
124.8442,114.0892
124.8100,114.0900
116.5400,114.0900
116.4687,114.0889
116.3265,114.0798
116.1849,114.0629
116.0446,114.0380
115.9058,114.0054
115.7691,113.9651
115.6348,113.9173
115.5034,113.8621
115.3752,113.7997
115.2508,113.7302
115.1303,113.6539
115.0144,113.5711
114.9032,113.4819
114.7971,113.3866
114.6965,113.2856
114.6017,113.1792
114.5129,113.0677
114.4305,112.9513
114.3547,112.8306
114.2857,112.7059
114.2238,112.5775
114.1691,112.4459
114.1218,112.3114
114.0821,112.1745
114.0500,112.0356
114.0257,111.8952
114.0093,111.7536
114.0008,111.6113
114.0000,111.5400
114.0000,111.0600
112.0200,111.0600
112.0200,108.2500
114.0000,108.2500
114.0050,108.2166
114.0216,108.1512
114.0454,108.0880
114.0761,108.0279
114.1133,107.9716
114.1566,107.9198
114.2054,107.8732
114.2592,107.8324
114.3172,107.7978
114.3786,107.7700
114.4429,107.7492
114.5090,107.7357
114.5762,107.7297
114.6100,107.7300
Z" /> 
<path d="M195.0353 64.9306
L195.0353 67.9100
" />
<path d="M195.0353 67.9100
L198.4293 67.9100
" />
<path d="M198.4293 67.9100
L198.4368 64.9314
" />
<path d="M198.4368 64.9314
L195.0353 64.9306
" />
<path d="M204.7177 42.5517
L204.7177 45.8283
" />
<path d="M204.7177 45.8283
L208.3753 45.8283
" />
<path d="M208.3753 42.5517
L204.7177 42.5517
" />
<path d="M208.3753 45.8283
L208.3753 42.5517
" />
<path d="M195.0353 103.1306
L195.0353 106.1100
" />
<path d="M195.0353 106.1100
L198.4293 106.1100
" />
<path d="M198.4293 106.1100
L198.4368 103.1314
" />
<path d="M198.4368 103.1314
L195.0353 103.1306
" />
<path d="M137.8353 60.2306
L137.8353 63.2100
" />
<path d="M137.8353 63.2100
L141.2293 63.2100
" />
<path d="M141.2293 63.2100
L141.2368 60.2314
" />
<path d="M141.2368 60.2314
L137.8353 60.2306
" />
<path d="M175.9353 98.3306
L175.9353 101.3100
" />
<path d="M175.9353 101.3100
L179.3293 101.3100
" />
<path d="M179.3293 101.3100
L179.3368 98.3314
" />
<path d="M179.3368 98.3314
L175.9353 98.3306
" />
<path d="M156.9353 95.8206
L156.9353 98.8000
" />
<path d="M156.9353 98.8000
L160.3293 98.8000
" />
<path d="M160.3293 98.8000
L160.3368 95.8214
" />
<path d="M160.3368 95.8214
L156.9353 95.8206
" />
<path d="M214.0353 84.1306
L214.0353 87.1100
" />
<path d="M214.0353 87.1100
L217.4293 87.1100
" />
<path d="M217.4293 87.1100
L217.4368 84.1314
" />
<path d="M217.4368 84.1314
L214.0353 84.1306
" />
<path d="M172.6996 94.1940
L182.5111 94.1940
" />
<path d="M172.6996 96.2212
L172.6996 94.1940
" />
<path d="M182.5111 94.1940
L182.5111 96.2212
" />
<path d="M182.5111 96.2212
L172.6995 96.2212
" />
<path d="M118.8353 81.7306
L118.8353 84.7100
" />
<path d="M118.8353 84.7100
L122.2293 84.7100
" />
<path d="M122.2293 84.7100
L122.2368 81.7314
" />
<path d="M122.2368 81.7314
L118.8353 81.7306
" />
<path d="M175.9353 60.1706
L175.9353 63.1500
" />
<path d="M175.9353 63.1500
L179.3293 63.1500
" />
<path d="M179.3293 63.1500
L179.3368 60.1714
" />
<path d="M179.3368 60.1714
L175.9353 60.1706
" />
<path d="M137.8353 98.3306
L137.8353 101.3100
" />
<path d="M137.8353 101.3100
L141.2293 101.3100
" />
<path d="M141.2293 101.3100
L141.2368 98.3314
" />
<path d="M141.2368 98.3314
L137.8353 98.3306
" />
<path d="M214.0353 46.0306
L214.0353 49.0100
" />
<path d="M214.0353 49.0100
L217.4293 49.0100
" />
<path d="M217.4293 49.0100
L217.4368 46.0314
" />
<path d="M217.4368 46.0314
L214.0353 46.0306
" />
<path d="M118.8353 43.6306
L118.8353 46.6100
" />
<path d="M118.8353 46.6100
L122.2293 46.6100
" />
<path d="M122.2293 46.6100
L122.2368 43.6314
" />
<path d="M122.2368 43.6314
L118.8353 43.6306
" />
<path d="M166.7750 36.8882
L166.7750 40.1648
" />
<path d="M166.7750 40.1648
L170.4326 40.1648
" />
<path d="M170.4326 36.8882
L166.7750 36.8882
" />
<path d="M170.4326 40.1648
L170.4326 36.8882
" />
<path d="M156.9353 114.9206
L156.9353 117.9000
" />
<path d="M156.9353 117.9000
L160.3293 117.9000
" />
<path d="M160.3293 117.9000
L160.3368 114.9214
" />
<path d="M160.3368 114.9214
L156.9353 114.9206
" />
<path d="M156.9353 57.7206
L156.9353 60.7000
" />
<path d="M156.9353 60.7000
L160.3293 60.7000
" />
<path d="M160.3293 60.7000
L160.3368 57.7214
" />
<path d="M160.3368 57.7214
L156.9353 57.7206
" />
<path style="fill:none; 
stroke:#000000; stroke-width:0.0500; stroke-opacity:1; 
stroke-linecap:round; stroke-linejoin:round;fill:none"
d="M 117.4900,69.7300
117.5211,69.7296
117.5831,69.7353
117.6440,69.7481
117.7030,69.7680
117.7593,69.7947
117.8120,69.8278
117.8606,69.8668
117.9042,69.9112
117.9423,69.9604
117.9745,70.0137
118.0001,70.0705
118.0100,70.1000
118.0391,70.1642
118.1032,70.2896
118.1741,70.4114
118.2515,70.5292
118.3352,70.6425
118.4249,70.7512
118.5204,70.8549
118.6213,70.9532
118.7275,71.0459
118.8385,71.1326
118.9541,71.2133
119.0738,71.2875
119.1975,71.3552
119.3246,71.4160
119.4548,71.4698
119.5878,71.5165
119.7230,71.5559
119.8603,71.5879
119.9990,71.6124
120.1389,71.6294
120.2795,71.6387
120.3500,71.6400
125.2900,71.6400
125.3242,71.6439
125.3915,71.6586
125.4567,71.6809
125.5189,71.7105
125.5773,71.7471
125.6312,71.7901
125.6797,71.8390
125.7224,71.8931
125.7585,71.9518
125.7877,72.0142
125.8096,72.0795
125.8238,72.1469
125.8302,72.2155
125.8300,72.2500
125.8300,72.7800
127.7600,72.7800
127.7600,75.5500
125.4200,75.5500
125.4150,75.5838
125.3987,75.6502
125.3751,75.7143
125.3447,75.7755
125.3077,75.8330
125.2647,75.8861
125.2160,75.9342
125.1625,75.9766
125.1045,76.0129
125.0430,76.0426
124.9786,76.0654
124.9120,76.0810
124.8442,76.0892
124.8100,76.0900
116.5400,76.0900
116.4687,76.0889
116.3265,76.0798
116.1849,76.0629
116.0446,76.0380
115.9058,76.0054
115.7691,75.9651
115.6348,75.9173
115.5034,75.8621
115.3752,75.7997
115.2508,75.7302
115.1303,75.6539
115.0144,75.5711
114.9032,75.4819
114.7971,75.3866
114.6965,75.2856
114.6017,75.1792
114.5129,75.0677
114.4305,74.9513
114.3547,74.8306
114.2857,74.7059
114.2238,74.5775
114.1691,74.4459
114.1218,74.3114
114.0821,74.1745
114.0500,74.0356
114.0257,73.8952
114.0093,73.7536
114.0008,73.6113
114.0000,73.5400
114.0000,73.0600
112.0200,73.0600
112.0200,70.2500
114.0000,70.2500
114.0050,70.2166
114.0216,70.1512
114.0454,70.0880
114.0761,70.0279
114.1133,69.9716
114.1566,69.9198
114.2054,69.8732
114.2592,69.8324
114.3172,69.7978
114.3786,69.7700
114.4429,69.7492
114.5090,69.7357
114.5762,69.7297
114.6100,69.7300
Z" /> 
<path d="M137.8353 117.3306
L137.8353 120.3100
" />
<path d="M137.8353 120.3100
L141.2293 120.3100
" />
<path d="M141.2293 120.3100
L141.2368 117.3314
" />
<path d="M141.2368 117.3314
L137.8353 117.3306
" />
<path d="M118.8353 62.7306
L118.8353 65.7100
" />
<path d="M118.8353 65.7100
L122.2293 65.7100
" />
<path d="M122.2293 65.7100
L122.2368 62.7314
" />
<path d="M122.2368 62.7314
L118.8353 62.7306
" />
<path d="M175.9353 41.1706
L175.9353 44.1500
" />
<path d="M175.9353 44.1500
L179.3293 44.1500
" />
<path d="M179.3293 44.1500
L179.3368 41.1714
" />
<path d="M179.3368 41.1714
L175.9353 41.1706
" />
<path d="M118.8353 100.7306
L118.8353 103.7100
" />
<path d="M118.8353 103.7100
L122.2293 103.7100
" />
<path d="M122.2293 103.7100
L122.2368 100.7314
" />
<path d="M122.2368 100.7314
L118.8353 100.7306
" />
<path d="M175.9353 79.2306
L175.9353 82.2100
" />
<path d="M175.9353 82.2100
L179.3293 82.2100
" />
<path d="M179.3293 82.2100
L179.3368 79.2314
" />
<path d="M179.3368 79.2314
L175.9353 79.2306
" />
<path d="M137.8353 79.2306
L137.8353 82.2100
" />
<path d="M137.8353 82.2100
L141.2293 82.2100
" />
<path d="M141.2293 82.2100
L141.2368 79.2314
" />
<path d="M141.2368 79.2314
L137.8353 79.2306
" />
<path d="M156.9353 76.8206
L156.9353 79.8000
" />
<path d="M156.9353 79.8000
L160.3293 79.8000
" />
<path d="M160.3293 79.8000
L160.3368 76.8214
" />
<path d="M160.3368 76.8214
L156.9353 76.8206
" />
<path d="M214.0353 64.9306
L214.0353 67.9100
" />
<path d="M214.0353 67.9100
L217.4293 67.9100
" />
<path d="M217.4293 67.9100
L217.4368 64.9314
" />
<path d="M217.4368 64.9314
L214.0353 64.9306
" />
<path d="M214.0853 103.1306
L214.0853 106.1100
" />
<path d="M214.0853 106.1100
L217.4793 106.1100
" />
<path d="M217.4793 106.1100
L217.4868 103.1314
" />
<path d="M217.4868 103.1314
L214.0853 103.1306
" />
<path d="M175.9353 117.4306
L175.9353 120.4100
" />
<path d="M175.9353 120.4100
L179.3293 120.4100
" />
<path d="M179.3293 120.4100
L179.3368 117.4314
" />
<path d="M179.3368 117.4314
L175.9353 117.4306
" />
</g> 
</svg>
