<?xml version="1.0" standalone="no"?>
 <!DOCTYPE svg PUBLIC "-//W3C//DTD SVG 1.1//EN" 
 "http://www.w3.org/Graphics/SVG/1.1/DTD/svg11.dtd"> 
<svg
  xmlns:svg="http://www.w3.org/2000/svg"
  xmlns="http://www.w3.org/2000/svg"
  xmlns:xlink="http://www.w3.org/1999/xlink"
  version="1.1"
  width="279.4000mm" height="215.9000mm" viewBox="0.0000 0.0000 279.4000 215.9000">
<title>SVG Image created as sofle_nest-key_plate_acrylic_pcb.svg date 2025/12/28 20:41:24 </title>
  <desc>Image generated by PCBNEW </desc>
<g style="fill:#000000; fill-opacity:1.0000;stroke:#000000; stroke-opacity:1.0000;
stroke-linecap:round; stroke-linejoin:round;"
 transform="translate(0 0) scale(1 1)">
<path style="fill:none; 
stroke:#000000; stroke-width:0.1500; stroke-opacity:1; 
stroke-linecap:round; stroke-linejoin:round;fill:none"
d="M 224.5239,43.4442
224.7256,43.4958
224.7276,43.4977
224.9124,43.5823
224.9104,43.5829
225.0751,43.6971
225.0791,43.7000
225.2208,43.8400
225.2222,43.8389
225.3378,44.0011
225.3368,44.0078
225.4232,44.1887
225.4229,44.1887
225.4770,44.3846
225.4729,44.3840
225.4917,44.5919
225.5187,119.5100
187.5485,134.0000
138.2100,134.0000
138.2000,134.0000
93.9459,146.7500
93.3959,146.6500
92.9459,146.5000
92.5959,146.2000
82.3459,128.4000
82.1959,127.9000
82.1459,127.3000
82.1459,126.9000
82.2459,126.4000
88.0459,115.6500
88.2459,115.0500
88.3211,114.4000
88.3200,114.4000
88.3200,97.3500
88.3205,97.3064
88.3281,97.2194
88.3432,97.1334
88.3658,97.0491
88.3957,96.9671
88.4326,96.8880
88.4762,96.8124
88.5263,96.7409
88.5824,96.6740
88.6442,96.6123
88.7111,96.5562
88.7826,96.5061
88.8582,96.4625
88.9373,96.4256
89.0193,96.3958
89.1037,96.3732
89.1896,96.3580
89.2766,96.3505
89.3202,96.3500
110.0600,96.3549
110.1060,96.3540
110.1975,96.3446
110.2879,96.3268
110.3762,96.3009
110.4617,96.2669
110.5438,96.2252
110.6217,96.1761
110.6947,96.1201
110.7623,96.0576
110.8239,95.9892
110.8789,95.9154
110.9269,95.8368
110.9674,95.7542
111.0002,95.6682
111.0250,95.5795
111.0415,95.4890
111.0496,95.3973
111.0500,95.3513
111.0500,37.5550
111.1500,37.2100
111.3500,36.9100
111.5500,36.7100
111.7500,36.6100
112.0500,36.5100
112.4500,36.4100
112.4500,36.4054
148.9929,34.9779
171.1700,34.9779
Z" /> 
<path style="fill:none; 
stroke:#000000; stroke-width:0.1200; stroke-opacity:1; 
stroke-linecap:round; stroke-linejoin:round;fill:none"
d="M 107.7874,98.5056
92.2126,98.5056
92.2126,112.5056
107.7874,112.5056
Z" /> 
<path style="fill:none; 
stroke:#000000; stroke-width:0.1200; stroke-opacity:1; 
stroke-linecap:round; stroke-linejoin:round;fill:none"
d="M 106.3204,135.9574
94.1960,142.9574
87.1960,130.8330
99.3204,123.8330
Z" /> 
</g>
<g style="fill:none; 
stroke:#000000; stroke-width:0.1000; stroke-opacity:1; 
stroke-linecap:round; stroke-linejoin:round;">
<circle cx="130.0250" cy="97.7750" r="1.1000" /> 
<circle cx="129.9750" cy="57.2750" r="1.1000" /> 
<circle cx="206.2250" cy="61.9750" r="1.1000" /> 
<circle cx="103.0000" cy="119.2000" r="1.1000" /> 
<circle cx="206.1750" cy="100.2250" r="1.1000" /> 
<path style="fill:none; 
stroke:#000000; stroke-width:0.1200; stroke-opacity:1; 
stroke-linecap:round; stroke-linejoin:round;fill:none"
d="M 113.5500,43.0000
127.5500,43.0000
127.5500,57.0000
113.5500,57.0000
Z" /> 
<path style="fill:none; 
stroke:#000000; stroke-width:0.1200; stroke-opacity:1; 
stroke-linecap:round; stroke-linejoin:round;fill:none"
d="M 151.6500,38.0000
165.6500,38.0000
165.6500,52.0000
151.6500,52.0000
Z" /> 
<path style="fill:none; 
stroke:#000000; stroke-width:0.1200; stroke-opacity:1; 
stroke-linecap:round; stroke-linejoin:round;fill:none"
d="M 113.5500,81.1000
127.5500,81.1000
127.5500,95.1000
113.5500,95.1000
Z" /> 
<path style="fill:none; 
stroke:#000000; stroke-width:0.1200; stroke-opacity:1; 
stroke-linecap:round; stroke-linejoin:round;fill:none"
d="M 132.5500,78.6000
146.5500,78.6000
146.5500,92.6000
132.5500,92.6000
Z" /> 
<path style="fill:none; 
stroke:#000000; stroke-width:0.1200; stroke-opacity:1; 
stroke-linecap:round; stroke-linejoin:round;fill:none"
d="M 151.6500,95.1900
165.6500,95.1900
165.6500,109.1900
151.6500,109.1900
Z" /> 
<path style="fill:none; 
stroke:#000000; stroke-width:0.1200; stroke-opacity:1; 
stroke-linecap:round; stroke-linejoin:round;fill:none"
d="M 189.7500,102.5000
203.7500,102.5000
203.7500,116.5000
189.7500,116.5000
Z" /> 
<path style="fill:none; 
stroke:#000000; stroke-width:0.1200; stroke-opacity:1; 
stroke-linecap:round; stroke-linejoin:round;fill:none"
d="M 126.2269,133.3490
112.7039,136.9725
109.0804,123.4495
122.6034,119.8261
Z" /> 
<path style="fill:none; 
stroke:#000000; stroke-width:0.1200; stroke-opacity:1; 
stroke-linecap:round; stroke-linejoin:round;fill:none"
d="M 208.7500,64.3000
222.7500,64.3000
222.7500,78.3000
208.7500,78.3000
Z" /> 
<path style="fill:none; 
stroke:#000000; stroke-width:0.1200; stroke-opacity:1; 
stroke-linecap:round; stroke-linejoin:round;fill:none"
d="M 208.7500,83.5000
222.7500,83.5000
222.7500,97.5000
208.7500,97.5000
Z" /> 
<path style="fill:none; 
stroke:#000000; stroke-width:0.1200; stroke-opacity:1; 
stroke-linecap:round; stroke-linejoin:round;fill:none"
d="M 208.8000,102.5000
222.8000,102.5000
222.8000,116.5000
208.8000,116.5000
Z" /> 
<path style="fill:none; 
stroke:#000000; stroke-width:0.1200; stroke-opacity:1; 
stroke-linecap:round; stroke-linejoin:round;fill:none"
d="M 170.6500,40.5400
184.6500,40.5400
184.6500,54.5400
170.6500,54.5400
Z" /> 
<path style="fill:none; 
stroke:#000000; stroke-width:0.1200; stroke-opacity:1; 
stroke-linecap:round; stroke-linejoin:round;fill:none"
d="M 189.7500,45.4000
203.7500,45.4000
203.7500,59.4000
189.7500,59.4000
Z" /> 
<path style="fill:none; 
stroke:#000000; stroke-width:0.1200; stroke-opacity:1; 
stroke-linecap:round; stroke-linejoin:round;fill:none"
d="M 132.5500,59.6000
146.5500,59.6000
146.5500,73.6000
132.5500,73.6000
Z" /> 
<path style="fill:none; 
stroke:#000000; stroke-width:0.1200; stroke-opacity:1; 
stroke-linecap:round; stroke-linejoin:round;fill:none"
d="M 170.6500,59.5400
184.6500,59.5400
184.6500,73.5400
170.6500,73.5400
Z" /> 
<path style="fill:none; 
stroke:#000000; stroke-width:0.1200; stroke-opacity:1; 
stroke-linecap:round; stroke-linejoin:round;fill:none"
d="M 151.6500,57.0900
165.6500,57.0900
165.6500,71.0900
151.6500,71.0900
Z" /> 
<path style="fill:none; 
stroke:#000000; stroke-width:0.1200; stroke-opacity:1; 
stroke-linecap:round; stroke-linejoin:round;fill:none"
d="M 170.6500,78.6000
184.6500,78.6000
184.6500,92.6000
170.6500,92.6000
Z" /> 
<path style="fill:none; 
stroke:#000000; stroke-width:0.1200; stroke-opacity:1; 
stroke-linecap:round; stroke-linejoin:round;fill:none"
d="M 208.7500,45.4000
222.7500,45.4000
222.7500,59.4000
208.7500,59.4000
Z" /> 
<path style="fill:none; 
stroke:#000000; stroke-width:0.1200; stroke-opacity:1; 
stroke-linecap:round; stroke-linejoin:round;fill:none"
d="M 170.6500,116.8000
184.6500,116.8000
184.6500,130.8000
170.6500,130.8000
Z" /> 
<path style="fill:none; 
stroke:#000000; stroke-width:0.1200; stroke-opacity:1; 
stroke-linecap:round; stroke-linejoin:round;fill:none"
d="M 189.7500,64.3000
203.7500,64.3000
203.7500,78.3000
189.7500,78.3000
Z" /> 
<path style="fill:none; 
stroke:#000000; stroke-width:0.1200; stroke-opacity:1; 
stroke-linecap:round; stroke-linejoin:round;fill:none"
d="M 170.6500,97.7000
184.6500,97.7000
184.6500,111.7000
170.6500,111.7000
Z" /> 
<path style="fill:none; 
stroke:#000000; stroke-width:0.1200; stroke-opacity:1; 
stroke-linecap:round; stroke-linejoin:round;fill:none"
d="M 189.7500,83.5000
203.7500,83.5000
203.7500,97.5000
189.7500,97.5000
Z" /> 
<path style="fill:none; 
stroke:#000000; stroke-width:0.1200; stroke-opacity:1; 
stroke-linecap:round; stroke-linejoin:round;fill:none"
d="M 151.6500,114.2900
165.6500,114.2900
165.6500,128.2900
151.6500,128.2900
Z" /> 
<path style="fill:none; 
stroke:#000000; stroke-width:0.1200; stroke-opacity:1; 
stroke-linecap:round; stroke-linejoin:round;fill:none"
d="M 151.6500,76.1900
165.6500,76.1900
165.6500,90.1900
151.6500,90.1900
Z" /> 
<path style="fill:none; 
stroke:#000000; stroke-width:0.1200; stroke-opacity:1; 
stroke-linecap:round; stroke-linejoin:round;fill:none"
d="M 132.5500,40.5000
146.5500,40.5000
146.5500,54.5000
132.5500,54.5000
Z" /> 
<path style="fill:none; 
stroke:#000000; stroke-width:0.1200; stroke-opacity:1; 
stroke-linecap:round; stroke-linejoin:round;fill:none"
d="M 132.5500,97.7000
146.5500,97.7000
146.5500,111.7000
132.5500,111.7000
Z" /> 
<path style="fill:none; 
stroke:#000000; stroke-width:0.1200; stroke-opacity:1; 
stroke-linecap:round; stroke-linejoin:round;fill:none"
d="M 132.5500,116.7000
146.5500,116.7000
146.5500,130.7000
132.5500,130.7000
Z" /> 
<path style="fill:none; 
stroke:#000000; stroke-width:0.1200; stroke-opacity:1; 
stroke-linecap:round; stroke-linejoin:round;fill:none"
d="M 113.5500,100.1000
127.5500,100.1000
127.5500,114.1000
113.5500,114.1000
Z" /> 
<path style="fill:none; 
stroke:#000000; stroke-width:0.1200; stroke-opacity:1; 
stroke-linecap:round; stroke-linejoin:round;fill:none"
d="M 113.5500,62.1000
127.5500,62.1000
127.5500,76.1000
113.5500,76.1000
Z" /> 
</g> 
</svg>
